<svg width="899" height="899" viewBox="0 0 899 899" fill="none" xmlns="http://www.w3.org/2000/svg">
<path fill-rule="evenodd" clip-rule="evenodd" d="M211.6 317.46C200.662 317.536 190.193 321.915 182.459 329.649C174.724 337.384 170.346 347.852 170.27 358.79V359.05C170.262 348.022 165.877 337.448 158.079 329.65C150.282 321.852 139.708 317.468 128.68 317.46C139.708 317.455 150.284 313.071 158.082 305.273C165.881 297.474 170.264 286.899 170.27 275.87V276.14C170.349 287.121 174.765 297.626 182.555 305.366C190.345 313.105 200.878 317.452 211.86 317.46H211.6Z" fill="#FBBE2E"/>
<path fill-rule="evenodd" clip-rule="evenodd" d="M556.171 739.5C550.142 739.542 544.372 741.955 540.109 746.219C535.846 750.482 533.433 756.251 533.391 762.28V762.43C533.391 756.35 530.976 750.52 526.678 746.22C522.38 741.92 516.55 739.503 510.471 739.5C516.549 739.497 522.377 737.082 526.675 732.784C530.972 728.486 533.388 722.658 533.391 716.58V716.73C533.436 722.783 535.871 728.573 540.166 732.838C544.461 737.103 550.268 739.498 556.321 739.5H556.171Z" fill="#FBBE2E"/>
<path fill-rule="evenodd" clip-rule="evenodd" d="M788.94 449.18C782.906 449.222 777.131 451.641 772.868 455.913C768.606 460.185 766.199 465.965 766.17 472V472.15C766.165 466.071 763.747 460.243 759.448 455.945C755.148 451.648 749.319 449.233 743.24 449.23C749.321 449.227 755.152 446.811 759.451 442.511C763.751 438.211 766.168 432.381 766.17 426.3V426.45C766.21 432.504 768.642 438.296 772.936 442.564C777.229 446.831 783.036 449.228 789.09 449.23L788.94 449.18Z" fill="#FBBE2E"/>
<path d="M629.85 241.01H449.18V495.34H629.85V241.01Z" fill="#FFF3D6"/>
<path fill-rule="evenodd" clip-rule="evenodd" d="M461.2 246.44H580.08C580.08 246.44 596.48 196.75 558.08 169.85C519.68 142.95 482.7 167.09 470.2 188.04C451.4 219.47 461.2 246.44 461.2 246.44Z" fill="white"/>
<path fill-rule="evenodd" clip-rule="evenodd" d="M469.68 188.86C469.84 188.59 470 188.31 470.17 188.04C482.67 167.09 519.61 142.94 558.05 169.85C596.49 196.76 580.05 246.44 580.05 246.44H546.75C555.46 228.36 555.83 189.55 528 176.58C493.16 160.33 469.85 188.72 469.68 188.86Z" fill="#FFF3D6"/>
<path d="M586.731 449.18V519.84C586.731 577.42 550.471 607.14 509.421 607.14C473.881 607.14 436.221 576.86 436.221 519.84" stroke="#163BF3" stroke-width="26.61" stroke-linecap="round" stroke-linejoin="round"/>
<path d="M629.841 374.21H540.461V397.57H629.841V374.21Z" fill="#163BF3"/>
<path d="M629.841 345.22H540.461V354.48H629.841V345.22Z" fill="#FF341A"/>
<path fill-rule="evenodd" clip-rule="evenodd" d="M436.691 258.69L441.991 285.92L398.471 411.88H549.001L582.891 286.55L561.641 258.59L436.691 258.69Z" fill="#00672E"/>
<path fill-rule="evenodd" clip-rule="evenodd" d="M497.28 413.48C507.798 413.48 518.079 416.599 526.825 422.442C535.57 428.286 542.386 436.591 546.412 446.309C550.437 456.026 551.49 466.719 549.438 477.035C547.386 487.351 542.321 496.827 534.884 504.264C527.446 511.701 517.97 516.766 507.655 518.818C497.339 520.87 486.646 519.817 476.928 515.792C467.211 511.767 458.906 504.951 453.062 496.205C447.219 487.46 444.1 477.178 444.1 466.66C444.108 452.558 449.713 439.036 459.684 429.065C469.656 419.093 483.178 413.488 497.28 413.48Z" fill="#FBBE2E"/>
<path d="M431.36 518.13C460.73 518.13 484.54 494.321 484.54 464.95C484.54 435.58 460.73 411.77 431.36 411.77C401.989 411.77 378.18 435.58 378.18 464.95C378.18 494.321 401.989 518.13 431.36 518.13Z" fill="#FBBE2E"/>
<path fill-rule="evenodd" clip-rule="evenodd" d="M374.739 530.76C383.122 530.76 391.316 533.246 398.285 537.903C405.255 542.56 410.687 549.18 413.894 556.924C417.102 564.669 417.94 573.19 416.304 581.412C414.668 589.633 410.631 597.184 404.703 603.111C398.775 609.037 391.223 613.073 383.001 614.707C374.78 616.341 366.258 615.5 358.514 612.291C350.771 609.082 344.152 603.648 339.497 596.678C334.841 589.707 332.357 581.512 332.359 573.13C332.367 561.893 336.835 551.12 344.782 543.175C352.728 535.231 363.503 530.765 374.739 530.76Z" fill="#FBBE2E"/>
<path fill-rule="evenodd" clip-rule="evenodd" d="M299.39 423.63C305.318 429.557 309.354 437.108 310.99 445.329C312.626 453.55 311.787 462.072 308.58 469.816C305.372 477.56 299.94 484.179 292.971 488.837C286.001 493.494 277.807 495.979 269.425 495.979C261.043 495.979 252.849 493.494 245.879 488.837C238.91 484.179 233.478 477.56 230.27 469.816C227.063 462.072 226.224 453.55 227.86 445.329C229.495 437.108 233.532 429.557 239.46 423.63C247.411 415.691 258.189 411.232 269.425 411.232C280.661 411.232 291.438 415.691 299.39 423.63Z" fill="#FBBE2E"/>
<path fill-rule="evenodd" clip-rule="evenodd" d="M415.49 678.62C415.49 678.62 414.77 725.62 414.41 749.06C414.359 752.538 412.957 755.86 410.501 758.323C408.046 760.786 404.728 762.198 401.25 762.26L276.91 764.5C276.91 764.5 276.1 760.07 285.4 754.19C294.7 748.31 331.79 727.67 331.79 727.67L332.36 679.07L415.49 678.62Z" fill="#FFF3D6"/>
<path fill-rule="evenodd" clip-rule="evenodd" d="M260.829 542.23C260.829 542.23 218.139 606.46 206.999 622.68C201.119 631.2 191.529 632.19 180.209 628.55C162.409 622.82 94.6895 600.3 94.6895 600.3C96.6895 581.96 154.519 585.16 173.319 560.05L201.999 498.73L260.829 542.23Z" fill="#FFF3D6"/>
<path d="M173.27 560.05L165.09 577.51" stroke="#FBBE2E" stroke-width="1.52" stroke-linecap="round" stroke-linejoin="round"/>
<path fill-rule="evenodd" clip-rule="evenodd" d="M536.73 214.5C534.777 207.198 530.238 200.855 523.959 196.648C517.679 192.442 510.085 190.658 502.59 191.63C495.094 192.602 488.206 196.263 483.207 201.931C478.208 207.6 475.437 214.892 475.41 222.45C477.17 222.45 480.12 222.06 480.41 223.92C480.77 226.02 478.58 228.69 476.41 230.65C478.616 238.567 483.858 245.293 490.997 249.367C498.135 253.44 506.592 254.532 514.531 252.404C522.469 250.276 529.247 245.101 533.391 238.003C537.535 230.905 538.71 222.459 536.66 214.5H536.73Z" fill="#FFC7BF"/>
<path fill-rule="evenodd" clip-rule="evenodd" d="M477.74 220.83C477.74 220.83 471.66 218.66 469.45 217.61C467.24 216.56 468.45 215.61 471.07 214.28C473.69 212.95 479.07 209.74 479.07 209.74L477.74 220.83Z" fill="#FFC7BF"/>
<path d="M486.411 233.91C483.504 229.726 481.926 224.764 481.881 219.67" stroke="#FF341A" stroke-width="1.52" stroke-linecap="round" stroke-linejoin="round"/>
<path fill-rule="evenodd" clip-rule="evenodd" d="M503.92 253.66C503.92 253.66 501.63 241.1 506.22 235.26C510.81 229.42 513.41 226.86 510.97 223.72C509.18 221.42 504.19 222.07 501.66 223.35C500.74 222.89 499.66 222.29 499.66 222.29L506.33 209.65L487.23 198.16C487.23 198.16 509.1 180.55 527.85 199.72C543.59 215.81 540.66 235.48 532.26 244.6C520.57 257.29 503.92 253.66 503.92 253.66Z" fill="#163BF3"/>
<path fill-rule="evenodd" clip-rule="evenodd" d="M550.11 264.05C554.437 260.81 559.627 258.925 565.024 258.634C570.422 258.344 575.784 259.66 580.434 262.417C585.083 265.174 588.81 269.248 591.145 274.123C593.479 278.998 594.315 284.456 593.547 289.807C592.779 295.157 590.442 300.16 586.831 304.182C583.22 308.204 578.498 311.065 573.261 312.404C568.024 313.742 562.508 313.497 557.41 311.701C552.312 309.904 547.861 306.636 544.621 302.31C540.277 296.507 538.416 289.218 539.445 282.043C540.475 274.869 544.311 268.397 550.11 264.05Z" fill="#00672E"/>
<path fill-rule="evenodd" clip-rule="evenodd" d="M422.78 264.05C427.105 260.808 432.295 258.922 437.692 258.63C443.09 258.338 448.453 259.653 453.103 262.408C457.753 265.164 461.482 269.237 463.817 274.112C466.153 278.986 466.99 284.444 466.224 289.795C465.457 295.146 463.121 300.149 459.511 304.172C455.902 308.196 451.18 311.058 445.943 312.398C440.706 313.737 435.19 313.494 430.091 311.698C424.993 309.903 420.541 306.636 417.3 302.31C412.958 296.508 411.097 289.22 412.124 282.046C413.152 274.873 416.984 268.4 422.78 264.05Z" fill="#00672E"/>
<path fill-rule="evenodd" clip-rule="evenodd" d="M709.72 267.49C713.48 271.372 716.006 276.282 716.976 281.6C717.946 286.917 717.318 292.403 715.171 297.363C713.023 302.323 709.453 306.535 704.912 309.467C700.371 312.398 695.063 313.917 689.658 313.832C684.254 313.747 678.996 312.061 674.55 308.988C670.104 305.914 666.668 301.592 664.679 296.566C662.689 291.54 662.234 286.038 663.372 280.754C664.509 275.47 667.188 270.642 671.07 266.88C676.277 261.837 683.273 259.069 690.521 259.183C697.769 259.297 704.674 262.285 709.72 267.49Z" fill="#00672E"/>
<path fill-rule="evenodd" clip-rule="evenodd" d="M372.139 366C367.128 368.024 362.829 371.488 359.786 375.955C356.743 380.422 355.093 385.691 355.044 391.095C354.995 396.5 356.55 401.798 359.512 406.319C362.474 410.84 366.71 414.381 371.684 416.495C376.658 418.609 382.148 419.2 387.458 418.195C392.769 417.189 397.662 414.631 401.519 410.845C405.376 407.059 408.023 402.214 409.127 396.923C410.231 391.632 409.741 386.133 407.719 381.12C405.003 374.399 399.73 369.032 393.059 366.196C386.387 363.361 378.863 363.291 372.139 366Z" fill="#00672E"/>
<path fill-rule="evenodd" clip-rule="evenodd" d="M626.43 174.31C629.071 172.249 632.264 171.017 635.605 170.771C638.946 170.524 642.285 171.274 645.2 172.925C648.115 174.576 650.475 177.054 651.982 180.047C653.489 183.039 654.074 186.411 653.664 189.736C653.255 193.061 651.868 196.19 649.68 198.727C647.492 201.265 644.601 203.096 641.373 203.99C638.144 204.884 634.723 204.801 631.541 203.751C628.36 202.701 625.561 200.731 623.5 198.09C620.75 194.542 619.514 190.051 620.063 185.596C620.612 181.141 622.901 177.084 626.43 174.31Z" fill="#00672E"/>
<path fill-rule="evenodd" clip-rule="evenodd" d="M572.541 259.27L685.361 259.44L690.781 313.84L567.301 313.24L572.541 259.27Z" fill="#00672E"/>
<path fill-rule="evenodd" clip-rule="evenodd" d="M413.76 275.87L361.65 373.43L405.16 406.52L463.19 298.99L413.76 275.87Z" fill="#00672E"/>
<path fill-rule="evenodd" clip-rule="evenodd" d="M622.061 195.92L668.121 303.36L716.331 277.6L651.201 178.65L622.061 195.92Z" fill="#00672E"/>
<path fill-rule="evenodd" clip-rule="evenodd" d="M328.44 278.81L401.94 372.24L359.64 406.52L298.9 295.38L328.44 278.81Z" fill="#00672E"/>
<path fill-rule="evenodd" clip-rule="evenodd" d="M483 208.58C483.232 208.578 483.46 208.645 483.654 208.773C483.848 208.901 483.999 209.084 484.089 209.298C484.179 209.512 484.203 209.748 484.158 209.976C484.113 210.204 484.001 210.413 483.837 210.577C483.673 210.742 483.464 210.853 483.236 210.898C483.008 210.943 482.772 210.919 482.558 210.829C482.343 210.739 482.161 210.588 482.033 210.394C481.905 210.2 481.838 209.972 481.84 209.74C481.842 209.433 481.966 209.14 482.183 208.923C482.4 208.706 482.693 208.583 483 208.58Z" fill="black"/>
<path d="M403.82 396.39L439.18 294.07" stroke="#24A865" stroke-width="1.52" stroke-linecap="round" stroke-linejoin="round"/>
<path d="M575.669 313.25H563.199" stroke="#24A865" stroke-width="1.52" stroke-linecap="round" stroke-linejoin="round"/>
<path d="M398.73 369.43L377.52 341.19" stroke="#24A865" stroke-width="1.52" stroke-linecap="round" stroke-linejoin="round"/>
<path fill-rule="evenodd" clip-rule="evenodd" d="M398.471 411.88L400.941 404.72H550.931L549.001 411.88H398.471Z" fill="#24A865"/>
<path d="M535.88 238.58H479.83V259.08H535.88V238.58Z" fill="#163BF3"/>
<path fill-rule="evenodd" clip-rule="evenodd" d="M454.94 434.49L338.51 551.15L407.17 600.4L535.88 503.23L454.94 434.49Z" fill="#FBBE2E"/>
<path fill-rule="evenodd" clip-rule="evenodd" d="M424.17 412.27L259.34 412.43L273.07 495.81L432.8 518.11L424.17 412.27Z" fill="#FBBE2E"/>
<path fill-rule="evenodd" clip-rule="evenodd" d="M550.931 466.66L549.001 411.88H398.471L385.461 519.84H497.281L550.931 466.66Z" fill="#FBBE2E"/>
<path fill-rule="evenodd" clip-rule="evenodd" d="M201.98 498.73L229.86 439.2L306.92 473.35L260.83 542.23L201.98 498.73Z" fill="#FBBE2E"/>
<path fill-rule="evenodd" clip-rule="evenodd" d="M332.359 679.09V573.13H417.119L415.489 678.62L332.359 679.09Z" fill="#FBBE2E"/>
<path d="M378.99 510.59L454.94 434.49" stroke="#C98600" stroke-width="1.52" stroke-linecap="round" stroke-linejoin="round"/>
<path fill-rule="evenodd" clip-rule="evenodd" d="M654.22 274.61L699.09 252.53C699.09 252.53 658.84 179.48 653.94 169.66C649.04 159.84 638.34 136.01 634.66 130.07C630.98 124.13 626.18 127.07 627.78 131.84C629.38 136.61 634.4 151.75 634.4 151.75C634.4 151.75 617.73 129 615.72 125.67C613.71 122.34 608.46 125.96 611.53 130.67C614.6 135.38 624.33 157.89 624.33 157.89C624.33 157.89 606.94 135.4 604.91 132.75C602.88 130.1 598.72 132.19 600.84 136.9C602.96 141.61 615.5 169.79 615.5 169.79C615.5 169.79 597.15 146.68 595.23 143.63C593.31 140.58 588.59 141.82 591.59 148.15C594.59 154.48 611 179.89 611 179.89C611 179.89 601.2 175.11 597.16 173.18C593.12 171.25 592.54 173.11 594.71 176.1C596.88 179.09 605.5 190.28 607.71 193.1C609.92 195.92 618.95 201.79 620.59 206.21C622.23 210.63 654.22 274.61 654.22 274.61Z" fill="#FFF3D6"/>
<path fill-rule="evenodd" clip-rule="evenodd" d="M379.05 341.19L337.05 368.38C337.05 368.38 294.99 296.38 289.05 287.11C283.11 277.84 268.22 256.46 265 250.26C261.78 244.06 266.73 241.41 270.05 245.26L283.74 261.15C283.74 261.15 272.8 235.2 271 231.74C269.2 228.28 275 225.65 277.46 230.74C279.92 235.83 294.26 255.69 294.26 255.69C294.26 255.69 283.88 229.23 282.64 226.13C281.4 223.03 285.34 220.52 288.3 224.76C291.26 229 309 254.19 309 254.19C309 254.19 298.57 226.59 296.94 223.37C295.31 220.15 298.79 216.75 302.68 222.57C306.57 228.39 319.98 255.45 319.98 255.45C319.98 255.45 320.9 244.59 321.31 240.13C321.72 235.67 323.63 236.13 325.08 239.53C326.53 242.93 331.72 256.07 332.96 259.41C334.2 262.75 334.66 273.53 337.61 277.19C340.56 280.85 379.05 341.19 379.05 341.19Z" fill="#FFF3D6"/>
<path d="M554.751 246.67H458.641V259.08H554.751V246.67Z" fill="#FFF3D6"/>
<path d="M473.17 357.32C488.904 357.32 501.66 344.565 501.66 328.83C501.66 313.095 488.904 300.34 473.17 300.34C457.435 300.34 444.68 313.095 444.68 328.83C444.68 344.565 457.435 357.32 473.17 357.32Z" fill="#FFF3D6"/>
</svg>
