<svg width="850" height="716" viewBox="0 0 850 716" fill="none" xmlns="http://www.w3.org/2000/svg">
<g clip-path="url(#clip0_447:19446)">
<path d="M653.15 393.26C761.745 393.26 849.78 305.226 849.78 196.63C849.78 88.0343 761.745 0 653.15 0C544.554 0 456.52 88.0343 456.52 196.63C456.52 305.226 544.554 393.26 653.15 393.26Z" fill="black"/>
<path d="M109.169 590.14C132.575 590.14 151.549 571.166 151.549 547.76C151.549 524.354 132.575 505.38 109.169 505.38C85.7632 505.38 66.7891 524.354 66.7891 547.76C66.7891 571.166 85.7632 590.14 109.169 590.14Z" fill="#FBBE2E"/>
<path fill-rule="evenodd" clip-rule="evenodd" d="M69.0391 534.12L120.809 415.63L214.089 464.48L146.349 568.1L69.0391 534.12Z" fill="#FBBE2E"/>
<path d="M208.554 471.004C229.322 450.236 229.322 416.564 208.554 395.796C187.786 375.028 154.114 375.028 133.346 395.796C112.578 416.564 112.578 450.236 133.346 471.004C154.114 491.772 187.786 491.772 208.554 471.004Z" fill="#FBBE2E"/>
<path fill-rule="evenodd" clip-rule="evenodd" d="M266.13 505.38C274.512 505.38 282.706 507.865 289.675 512.522C296.644 517.179 302.076 523.798 305.284 531.542C308.492 539.286 309.331 547.807 307.696 556.028C306.06 564.249 302.024 571.8 296.097 577.727C290.17 583.654 282.619 587.69 274.398 589.326C266.177 590.961 257.656 590.122 249.912 586.914C242.168 583.706 235.549 578.274 230.892 571.305C226.236 564.336 223.75 556.142 223.75 547.76C223.755 536.522 228.222 525.745 236.169 517.799C244.115 509.852 254.892 505.385 266.13 505.38Z" fill="#FBBE2E"/>
<path fill-rule="evenodd" clip-rule="evenodd" d="M131.211 468.73L236.531 578.07L301.101 523.82L216.201 405.46L131.211 468.73Z" fill="#FBBE2E"/>
<path fill-rule="evenodd" clip-rule="evenodd" d="M304.069 566.65L280.699 630.76L201.129 602.15L229.379 526.66L304.069 566.65Z" fill="#FBBE2E"/>
<path d="M178.932 518.27C178.932 518.27 140.142 477.65 131.212 468.73C122.282 459.81 113.022 433.06 121.612 413.53" stroke="#C98600" stroke-width="1.52" stroke-linecap="round" stroke-linejoin="round"/>
<path fill-rule="evenodd" clip-rule="evenodd" d="M146.41 386.21L195.66 362.06L241.79 433.4L238.34 436.33L146.41 386.21Z" fill="#FBBE2E"/>
<path fill-rule="evenodd" clip-rule="evenodd" d="M201.13 602.15L165.62 697C164.861 699.029 164.605 701.211 164.873 703.36C165.141 705.51 165.926 707.562 167.16 709.342C168.395 711.122 170.042 712.577 171.961 713.581C173.88 714.586 176.014 715.11 178.18 715.11H314.18C314.18 715.11 315 710.68 305.69 704.81C296.38 698.94 263.34 678.3 263.34 678.3L280.67 630.73L201.13 602.15Z" fill="#FFF3D6"/>
<path fill-rule="evenodd" clip-rule="evenodd" d="M69.0387 534.12L41.2188 597.79L109.169 624.96L146.349 568.1L69.0387 534.12Z" fill="#FBBE2E"/>
<path fill-rule="evenodd" clip-rule="evenodd" d="M41.2218 597.79L6.22175 677.79C-4.57825 699.79 -1.26825 712.06 15.2218 715.11H93.7817C97.6017 709.74 86.6517 703.51 72.1217 681.6L109.172 625L41.2218 597.79Z" fill="#FFF3D6"/>
<path d="M81.9492 539.79L115.399 554.5" stroke="#C98600" stroke-width="1.52" stroke-linecap="round" stroke-linejoin="round"/>
<path d="M217.828 557.51H242.318" stroke="#C98600" stroke-width="1.52" stroke-linecap="round" stroke-linejoin="round"/>
<path fill-rule="evenodd" clip-rule="evenodd" d="M361.111 290.05L350.281 295.38L378.571 319L381.981 309.54L361.111 290.05Z" fill="#163BF3"/>
<path fill-rule="evenodd" clip-rule="evenodd" d="M391.999 252.36C398.167 252.36 404.198 254.189 409.327 257.617C414.456 261.044 418.454 265.915 420.814 271.614C423.175 277.313 423.793 283.585 422.589 289.635C421.386 295.685 418.415 301.243 414.053 305.605C409.691 309.967 404.134 312.937 398.083 314.141C392.033 315.344 385.762 314.727 380.063 312.366C374.363 310.005 369.492 306.008 366.065 300.878C362.638 295.749 360.809 289.719 360.809 283.55C360.814 275.28 364.102 267.349 369.95 261.501C375.798 255.653 383.728 252.365 391.999 252.36Z" fill="#FFC7BF"/>
<path fill-rule="evenodd" clip-rule="evenodd" d="M401.18 311C401.18 311 404.85 316.31 406.43 318.17C408.01 320.03 408.67 318.64 409.23 315.74C409.79 312.84 411.54 306.85 411.54 306.85L401.18 311Z" fill="#FFC7BF"/>
<path d="M386.289 306C391.084 307.72 396.284 307.964 401.219 306.7" stroke="#FF341A" stroke-width="1.52" stroke-linecap="round" stroke-linejoin="round"/>
<path d="M413.619 306.03L411.539 302.98" stroke="#FF341A" stroke-width="1.52" stroke-linecap="round" stroke-linejoin="round"/>
<path fill-rule="evenodd" clip-rule="evenodd" d="M362.699 294.19C362.699 294.19 375.419 293.19 379.869 287.19C384.319 281.19 386.119 278.06 389.779 279.61C392.479 280.74 393.139 285.73 392.549 288.5C393.239 289.28 394.099 290.2 394.099 290.2L404.589 280.48L420.589 295.95C420.589 295.95 431.929 270.28 408.589 257.12C388.969 246.12 370.729 254 364.089 264.48C354.879 279.05 362.699 294.19 362.699 294.19Z" fill="#163BF3"/>
<path fill-rule="evenodd" clip-rule="evenodd" d="M195.66 362.06C220.89 350.57 307.66 310.06 329 299.85C350.34 289.64 375.27 297.18 383.28 315.85C391.29 334.52 376.61 353.96 363.7 362.05C350.79 370.14 241.79 433.4 241.79 433.4C241.79 433.4 214 389.57 195.66 362.06Z" fill="#9CE8C2"/>
<path fill-rule="evenodd" clip-rule="evenodd" d="M353.3 303.39C358.709 303.382 363.999 304.979 368.5 307.978C373.001 310.977 376.512 315.245 378.587 320.24C380.663 325.235 381.21 330.733 380.16 336.039C379.109 341.345 376.508 346.22 372.686 350.048C368.864 353.876 363.993 356.483 358.689 357.542C353.384 358.6 347.885 358.061 342.887 355.993C337.889 353.924 333.616 350.42 330.61 345.923C327.604 341.426 326 336.139 326 330.73C326 323.486 328.875 316.538 333.994 311.412C339.112 306.286 346.056 303.401 353.3 303.39Z" fill="#9CE8C2"/>
<path fill-rule="evenodd" clip-rule="evenodd" d="M460.891 274.36C460.891 274.36 499.601 251.43 513.891 263.1C528.181 274.77 484.481 284.74 484.481 284.74L460.891 274.36Z" fill="#FFC7BF"/>
<path d="M643.563 170.281L386.297 353.449L438.137 426.26L695.402 243.092L643.563 170.281Z" fill="#FFF3D6"/>
<path d="M556.297 232.309L537.27 245.861L589.122 318.663L608.149 305.111L556.297 232.309Z" fill="#163BF3"/>
<path d="M579.941 215.58L572.396 220.949L624.223 293.769L631.768 288.4L579.941 215.58Z" fill="#FF341A"/>
<path fill-rule="evenodd" clip-rule="evenodd" d="M514.351 312.54C516.808 311.483 519.523 311.178 522.153 311.664C524.783 312.15 527.21 313.405 529.127 315.271C531.043 317.137 532.363 319.529 532.92 322.145C533.476 324.761 533.245 327.483 532.254 329.968C531.263 332.452 529.557 334.587 527.353 336.101C525.149 337.616 522.545 338.443 519.87 338.478C517.196 338.512 514.571 337.753 512.329 336.295C510.086 334.838 508.326 332.748 507.271 330.29C505.858 326.997 505.81 323.278 507.138 319.95C508.465 316.621 511.06 313.956 514.351 312.54Z" fill="#163BF3"/>
<path fill-rule="evenodd" clip-rule="evenodd" d="M525.001 312.54C522.543 311.484 519.828 311.181 517.199 311.669C514.569 312.157 512.143 313.414 510.228 315.28C508.313 317.147 506.994 319.54 506.439 322.156C505.884 324.772 506.117 327.494 507.109 329.978C508.101 332.461 509.807 334.595 512.012 336.108C514.217 337.622 516.821 338.448 519.495 338.481C522.17 338.515 524.794 337.754 527.036 336.296C529.278 334.838 531.037 332.748 532.091 330.29C532.791 328.659 533.164 326.906 533.187 325.131C533.209 323.356 532.882 321.594 532.224 319.946C531.565 318.297 530.589 316.795 529.349 315.524C528.11 314.253 526.632 313.239 525.001 312.54Z" fill="#163BF3"/>
<path fill-rule="evenodd" clip-rule="evenodd" d="M531.64 318.71L506.84 329.23L670.78 715.14H700.05L531.64 318.71Z" fill="#163BF3"/>
<path fill-rule="evenodd" clip-rule="evenodd" d="M507.73 318.71L532.52 329.23L368.58 715.14H339.32L507.73 318.71Z" fill="#163BF3"/>
<path d="M425.931 306.274L409.785 317.77L418.7 330.29L434.845 318.795L425.931 306.274Z" fill="#FBBE2E"/>
<path fill-rule="evenodd" clip-rule="evenodd" d="M450.11 376.85C455.517 376.85 460.803 378.454 465.299 381.458C469.795 384.462 473.299 388.732 475.368 393.728C477.438 398.723 477.979 404.22 476.924 409.524C475.869 414.827 473.265 419.699 469.442 423.522C465.618 427.346 460.747 429.95 455.443 431.005C450.14 432.06 444.643 431.518 439.647 429.449C434.651 427.38 430.381 423.875 427.377 419.379C424.373 414.883 422.77 409.597 422.77 404.19C422.772 396.94 425.654 389.987 430.78 384.861C435.907 379.734 442.859 376.853 450.11 376.85Z" fill="#9CE8C2"/>
<path fill-rule="evenodd" clip-rule="evenodd" d="M469.78 271.68C473.13 271.68 476.405 272.673 479.191 274.535C481.977 276.396 484.148 279.042 485.43 282.137C486.713 285.233 487.048 288.639 486.394 291.925C485.741 295.211 484.127 298.229 481.758 300.598C479.389 302.967 476.371 304.581 473.085 305.234C469.799 305.888 466.393 305.553 463.297 304.27C460.202 302.988 457.556 300.817 455.695 298.031C453.833 295.246 452.84 291.97 452.84 288.62C452.842 284.128 454.628 279.821 457.804 276.644C460.981 273.468 465.288 271.683 469.78 271.68Z" fill="#9CE8C2"/>
<path fill-rule="evenodd" clip-rule="evenodd" d="M374.121 313.02L464.301 380.83L436.001 427.6L337.551 353.07L374.121 313.02Z" fill="#9CE8C2"/>
<path fill-rule="evenodd" clip-rule="evenodd" d="M453.04 286.03L423.25 399.07L477.12 408.42L486.63 290.34L453.04 286.03Z" fill="#9CE8C2"/>
<path d="M356.031 367.06L333.691 349.76" stroke="#00672E" stroke-width="1.52" stroke-linecap="round" stroke-linejoin="round"/>
<path d="M432.488 356.91L462.808 379.71" stroke="#00672E" stroke-width="1.52" stroke-linecap="round" stroke-linejoin="round"/>
<path fill-rule="evenodd" clip-rule="evenodd" d="M195.66 362.06L241.79 433.4L252.03 427.45L208.16 356.32L195.66 362.06Z" fill="#00672E"/>
<path d="M238.341 436.33L221.781 413.25" stroke="#C98600" stroke-width="1.52" stroke-linecap="round" stroke-linejoin="round"/>
<path fill-rule="evenodd" clip-rule="evenodd" d="M522.329 318.78C521.108 318.257 519.759 318.108 518.453 318.352C517.146 318.595 515.942 319.221 514.991 320.149C514.04 321.077 513.386 322.266 513.11 323.566C512.835 324.866 512.952 326.219 513.445 327.452C513.938 328.686 514.786 329.746 515.882 330.498C516.977 331.25 518.271 331.66 519.6 331.677C520.928 331.694 522.232 331.317 523.346 330.593C524.46 329.869 525.335 328.831 525.859 327.61C526.558 325.97 526.579 324.121 525.917 322.466C525.256 320.812 523.966 319.486 522.329 318.78Z" fill="black"/>
<path fill-rule="evenodd" clip-rule="evenodd" d="M586.049 113.27C581.267 113.315 576.694 115.237 573.317 118.624C569.941 122.01 568.03 126.588 567.999 131.37V131.48C567.996 126.651 566.077 122.021 562.663 118.607C559.248 115.192 554.618 113.273 549.789 113.27C554.617 113.27 559.247 111.353 562.662 107.94C566.077 104.527 567.996 99.8979 567.999 95.0701V95.1901C568.033 99.9954 569.966 104.592 573.375 107.979C576.784 111.366 581.394 113.268 586.199 113.27H586.049Z" fill="#FBBE2E"/>
<path fill-rule="evenodd" clip-rule="evenodd" d="M700 323.72C697.348 323.72 694.804 324.774 692.929 326.649C691.054 328.524 690 331.068 690 333.72V333.78C690 331.128 688.946 328.584 687.071 326.709C685.196 324.834 682.652 323.78 680 323.78C681.313 323.78 682.614 323.521 683.827 323.019C685.04 322.516 686.142 321.78 687.071 320.851C688 319.923 688.736 318.82 689.239 317.607C689.741 316.394 690 315.093 690 313.78V313.85C690 316.502 691.054 319.046 692.929 320.921C694.804 322.796 697.348 323.85 700 323.85V323.72Z" fill="#FBBE2E"/>
<path fill-rule="evenodd" clip-rule="evenodd" d="M748.93 151C746.282 151.016 743.748 152.074 741.876 153.946C740.004 155.818 738.945 158.353 738.93 161C738.93 158.348 737.876 155.804 736.001 153.929C734.125 152.054 731.582 151 728.93 151C731.582 151 734.125 149.946 736.001 148.071C737.876 146.196 738.93 143.652 738.93 141C738.93 143.652 739.983 146.196 741.859 148.071C743.734 149.946 746.278 151 748.93 151Z" fill="#FBBE2E"/>
<path d="M572.971 451.29L619.421 560.64" stroke="black" stroke-width="26.61" stroke-linecap="round" stroke-linejoin="round"/>
<path fill-rule="evenodd" clip-rule="evenodd" d="M278.879 411.9C277.009 408.66 275.794 405.083 275.306 401.373C274.818 397.663 275.065 393.894 276.034 390.28C277.002 386.666 278.673 383.278 280.951 380.31C283.229 377.341 286.069 374.851 289.309 372.98C295.853 369.202 303.63 368.178 310.929 370.134C318.228 372.09 324.451 376.866 328.229 383.41C319.939 388 287.929 406.5 278.879 411.9Z" fill="#FFF3D6"/>
</g>
<defs>
<clipPath id="clip0_447:19446">
<rect width="849.77" height="715.14" fill="white"/>
</clipPath>
</defs>
</svg>
