<svg width="558" height="853" viewBox="0 0 558 853" fill="none" xmlns="http://www.w3.org/2000/svg">
<path fill-rule="evenodd" clip-rule="evenodd" d="M429.035 120.559C443.758 131.755 511.77 265.434 517.053 281.727C522.335 298.021 518.343 318.76 500.912 328.493C483.481 338.226 461.582 313.642 454.86 301.578C446.808 287.302 427.96 249.503 411.31 216.339C403.785 201.38 390.511 169.603 382.816 151.665C377.27 138.771 382.798 123.724 391.689 116.665C404.397 106.619 413.431 108.705 429.035 120.559Z" fill="#DFA98B"/>
<path fill-rule="evenodd" clip-rule="evenodd" d="M512.081 322.831C502.709 332.227 441.998 385.515 432.691 393.168C423.383 400.821 418.487 379.611 418.325 367.935C418.162 356.259 418.692 338.858 425.402 330.325C432.113 321.792 460.792 291.287 470.084 281.544C479.375 271.801 510.741 264.899 517.659 283.977C522.574 297.509 521.415 313.423 512.081 322.831Z" fill="#DFA98B"/>
<path fill-rule="evenodd" clip-rule="evenodd" d="M228.994 839.028C339.385 839.028 429.089 838.379 429 845.986C428.911 854.19 339.385 852.931 228.994 852.931C118.603 852.931 29 853.779 29 845.973C29 838.167 118.615 839.028 228.994 839.028Z" fill="black"/>
<path fill-rule="evenodd" clip-rule="evenodd" d="M211.5 316C190.43 391.512 103 776.995 103 776.995L174.165 776.791C174.165 776.791 320.409 472.752 332.599 448.114C344.789 423.475 343.481 368.861 293.424 345.053C243.367 321.244 222.292 277.536 211.5 316Z" fill="#002238"/>
<path fill-rule="evenodd" clip-rule="evenodd" d="M212 315.479L320.877 776.391L398.999 776.977V396.607C387 262.5 348.744 245.481 290 267.992C271.171 275.207 205.6 287.564 212 315.479Z" fill="#014A82"/>
<path fill-rule="evenodd" clip-rule="evenodd" d="M339 777L344.388 819H374.296L375 777H339Z" fill="#DFA98B"/>
<path fill-rule="evenodd" clip-rule="evenodd" d="M159 777L142.136 819H105L123.139 777H159Z" fill="#DFA98B"/>
<path fill-rule="evenodd" clip-rule="evenodd" d="M104.391 819C104.391 819 67.4291 834.288 59.7486 836.108C52.068 837.928 45.3651 842.218 49.0317 847H134.29C134.29 847 146.049 829.799 142.241 819H104.391Z" fill="#0089E3"/>
<path fill-rule="evenodd" clip-rule="evenodd" d="M343.485 819C343.485 819 336.576 828.165 330.93 833C325.284 837.835 321.355 843.121 322.088 847H382.389C382.389 847 387.568 843.453 385.521 839.163C383.475 834.873 373.282 823.768 372.966 819H343.485Z" fill="#0089E3"/>
<path d="M107 767H179" stroke="black" stroke-width="1.67" stroke-linecap="round" stroke-linejoin="round"/>
<path d="M319 767H399" stroke="black" stroke-width="1.67" stroke-linecap="round" stroke-linejoin="round"/>
<path d="M369 395V767" stroke="black" stroke-width="1.67" stroke-linecap="round" stroke-linejoin="round"/>
<path fill-rule="evenodd" clip-rule="evenodd" d="M265 23.8968C265 23.8968 271.716 0 298.515 0C325.314 0 348.054 16.3591 353.53 34.0904C373.994 30.448 395.829 50.07 394.463 72.7147C393.097 95.3595 396.733 113.622 412.65 127.73C428.566 141.838 298.521 127.73 298.521 127.73L265 23.8968Z" fill="#6D83F3"/>
<path fill-rule="evenodd" clip-rule="evenodd" d="M267.532 110.858C252.292 110.858 213.259 110 194.176 110C175.094 110 155.555 112.174 141.252 143.054C126.95 173.934 93.5578 278.804 84.8205 297.943C76.0831 317.083 72.2463 345.414 95.242 351.917C118.238 358.419 128.21 334.087 135.997 320.598C143.785 307.109 180.228 230.068 180.228 230.068C180.228 230.068 184.128 284.023 209.72 300.549H298.619L337.5 110.858C337.5 110.858 282.772 110.858 267.532 110.858Z" fill="#DFA98B"/>
<path fill-rule="evenodd" clip-rule="evenodd" d="M335.605 110.835C353.368 110.688 386.223 110 403.225 110C422.345 110 441.922 112.179 456.253 143.13C461.607 154.674 469.613 176.54 478 200.413C463.733 211.619 438.11 231.523 422.859 242.398C419.37 235.078 417.15 230.357 417.15 230.357C417.15 230.357 413.242 284.429 387.593 301H209.394C183.758 284.435 179.85 230.395 179.85 230.395C179.85 230.395 177.617 235.123 174.141 242.443C158.884 231.567 133.305 211.709 119 200.457C127.38 176.585 135.386 154.719 140.74 143.174C155.078 112.204 174.636 110.045 193.769 110.045C210.771 110.045 243.6 110.733 261.395 110.879C261.574 120.645 265.563 129.949 272.504 136.792C279.444 143.634 288.781 147.468 298.506 147.468C308.232 147.468 317.569 143.634 324.509 136.792C331.449 129.949 335.438 120.645 335.618 110.879L335.605 110.835Z" fill="#FEDD8E"/>
<path fill-rule="evenodd" clip-rule="evenodd" d="M97.0883 353C86.0261 353 72.5318 334.55 69.0137 299.97C65.4956 265.39 63 168.537 63 168.537C74.1574 160.573 85.1625 152.102 103.235 167.903C103.235 167.903 114.914 233.794 117.841 245.154C123.886 268.697 134.758 283.327 132.758 295.364C130.757 307.402 108.157 353 97.0883 353Z" fill="#DFA98B"/>
<path d="M122.586 276C122.23 276.007 121.883 275.893 121.604 275.678C121.326 275.464 121.135 275.162 121.064 274.825L111 219.43C111.009 219.091 111.14 218.766 111.369 218.509C111.598 218.253 111.913 218.081 112.259 218.022C112.605 217.964 112.961 218.022 113.267 218.188C113.574 218.354 113.811 218.616 113.94 218.932L123.983 274.314C124.041 274.688 123.947 275.069 123.72 275.378C123.493 275.686 123.15 275.898 122.765 275.968L122.586 276Z" fill="#935000"/>
<path d="M385 300H210V315H385V300Z" fill="#1C2126"/>
<path fill-rule="evenodd" clip-rule="evenodd" d="M103 167.36C103 167.36 100.77 125 74.6478 125H6.20593C-3.66287 125 -1.07215 134.233 9.1197 136.782C19.3116 139.331 56.2594 145.381 62.999 168C72.4181 167.943 103 167.36 103 167.36Z" fill="#DFA98B"/>
<path d="M265.62 69C265.461 69 265.309 68.9334 265.196 68.815C265.084 68.6965 265.021 68.5358 265.021 68.3682C264.565 52.2199 271.762 46.3381 272.068 46.0917C272.196 46.0092 272.35 45.981 272.498 46.0126C272.646 46.0442 272.777 46.1334 272.865 46.2623C272.961 46.3861 273.009 46.5437 272.999 46.7031C272.989 46.8625 272.922 47.012 272.811 47.1215C272.745 47.1215 265.806 52.9276 266.214 68.343C266.216 68.4267 266.202 68.5101 266.174 68.5882C266.145 68.6663 266.102 68.7375 266.046 68.7978C265.991 68.8587 265.925 68.9073 265.852 68.941C265.779 68.9746 265.7 68.9925 265.62 68.9937V69Z" fill="#FF7968"/>
<path fill-rule="evenodd" clip-rule="evenodd" d="M273.727 45.211C273.727 45.211 259.268 44.0798 253.542 42.9024C247.817 41.7251 246.5 42.8204 252.017 46.8156C257.534 50.8108 266.696 56.1087 266.696 56.1087C266.696 56.1087 272.563 49.8611 273.727 45.211Z" fill="#DFA98B"/>
<path d="M248 144V118.994C248.022 112.369 250.676 106.023 255.382 101.34C260.089 96.657 266.466 94.0183 273.12 94H323.867C330.523 94.0183 336.901 96.6566 341.61 101.339C346.318 106.022 348.975 112.368 349 118.994V118.994V144" stroke="#014A82" stroke-width="11" stroke-linecap="round"/>
<path fill-rule="evenodd" clip-rule="evenodd" d="M302.094 22.2026C309.538 22.8666 316.638 25.6476 322.552 30.2171C328.467 34.7865 332.951 40.9535 335.473 47.9894C337.995 55.0253 338.45 62.6361 336.786 69.9226C335.121 77.2091 331.405 83.8669 326.078 89.1093C320.75 94.3517 314.033 97.9597 306.721 99.507C299.409 101.054 291.806 100.476 284.812 97.8412C277.817 95.2061 271.723 90.6241 267.25 84.6365C262.776 78.6489 260.11 71.5059 259.566 64.0515C261.354 63.1856 265.172 61.9418 265.296 60.1901C265.394 59.0852 261.791 58.4771 259.607 57.7681C260.062 52.6426 261.522 47.6568 263.903 43.0955C266.285 38.5342 269.541 34.4867 273.487 31.1841C277.433 27.8815 281.991 25.3886 286.9 23.8476C291.81 22.3067 296.975 21.7479 302.1 22.2032L302.094 22.2026Z" fill="#DFA98B"/>
<path fill-rule="evenodd" clip-rule="evenodd" d="M320.422 93.6581C320.422 97.7269 323.477 111.129 336 111.129C317.342 121.928 261.773 121.314 262.001 111.129C262.001 111.129 282.284 108.187 282.284 96.3451C282.284 84.5035 320.422 89.583 320.422 93.6581Z" fill="#DFA98B"/>
<path fill-rule="evenodd" clip-rule="evenodd" d="M278 21.8174L340 85V31.8741L305.076 7L278 21.8174Z" fill="#6D83F3"/>
<path fill-rule="evenodd" clip-rule="evenodd" d="M280 102.734L297 100.602L282.016 96.7344C282.056 98.9001 281.346 101.015 280 102.734Z" fill="#935000"/>
<path d="M262 127C264.122 127 266.157 127.822 267.657 129.285C269.157 130.747 270 132.731 270 134.8V153.206C270 154.23 269.793 155.244 269.391 156.19C268.989 157.136 268.399 157.996 267.656 158.719C266.913 159.443 266.032 160.017 265.061 160.409C264.09 160.8 263.05 161.001 262 161C260.95 161.001 259.91 160.8 258.939 160.409C257.968 160.017 257.087 159.443 256.344 158.719C255.601 157.996 255.011 157.136 254.609 156.19C254.207 155.244 254 154.23 254 153.206V134.8C254 132.731 254.843 130.747 256.343 129.285C257.843 127.822 259.878 127 262 127Z" fill="#FF341A"/>
<path d="M271.003 120C273.39 120.002 275.678 120.949 277.365 122.635C279.052 124.32 280 126.605 280 128.988V159.019C280 161.401 279.052 163.685 277.365 165.369C275.678 167.054 273.389 168 271.003 168C268.616 168 266.327 167.054 264.639 165.37C262.951 163.686 262.002 161.401 262 159.019V128.988C262 126.604 262.949 124.318 264.637 122.632C266.325 120.947 268.615 120 271.003 120Z" fill="white"/>
<path d="M335.482 161C333.496 160.997 331.593 160.174 330.191 158.713C328.788 157.251 328 155.271 328 153.206V134.8C328 132.731 328.79 130.747 330.197 129.285C331.603 127.822 333.511 127 335.5 127C337.489 127 339.397 127.822 340.803 129.285C342.21 130.747 343 132.731 343 134.8V153.206C343 154.232 342.805 155.247 342.427 156.195C342.049 157.142 341.495 158.002 340.796 158.726C340.098 159.45 339.269 160.024 338.357 160.414C337.445 160.804 336.468 161.003 335.482 161Z" fill="#FF341A"/>
<path d="M326.01 168C324.827 168.002 323.656 167.771 322.563 167.32C321.47 166.869 320.476 166.208 319.64 165.374C318.803 164.54 318.139 163.549 317.686 162.459C317.233 161.368 317 160.199 317 159.019V128.981C317 126.599 317.948 124.315 319.635 122.631C321.322 120.946 323.611 120 325.997 120C328.384 120 330.673 120.946 332.361 122.63C334.049 124.314 334.998 126.599 335 128.981V159.019C334.998 161.399 334.051 163.682 332.365 165.365C330.68 167.049 328.394 167.997 326.01 168Z" fill="white"/>
<path fill-rule="evenodd" clip-rule="evenodd" d="M373 186H342V217.477C342.002 221.594 343.635 225.543 346.541 228.454C349.447 231.365 353.388 233 357.497 233C361.606 232.998 365.546 231.363 368.453 228.452C371.36 225.542 372.995 221.594 373 217.477V186Z" fill="#935000"/>
<path d="M275.708 48.9855C276.531 49.4812 277.83 48.8351 278.608 47.5423C279.386 46.2495 279.349 44.7996 278.525 44.3039C277.701 43.8081 276.403 44.4543 275.625 45.747C274.847 47.0398 274.884 48.4897 275.708 48.9855Z" fill="black"/>
<path fill-rule="evenodd" clip-rule="evenodd" d="M180 230.479L201 186C201 186 193.893 239.508 182.235 247C180.703 238.701 180 230.479 180 230.479Z" fill="#FBBE2E"/>
<path fill-rule="evenodd" clip-rule="evenodd" d="M417 230.479L396 186C396 186 403.103 239.508 414.764 247C416.297 238.701 417 230.479 417 230.479Z" fill="#FBBE2E"/>
<path fill-rule="evenodd" clip-rule="evenodd" d="M393.788 388.856C396.26 398.402 398.36 411.216 410.686 420.247C423.019 429.253 429.179 423.85 430.036 421.242C430.9 418.61 419.128 411.265 419.128 411.265L447.526 372.866C447.526 372.866 443.546 342.762 426.8 338.275C410.06 333.763 391.316 379.31 393.788 388.856Z" fill="#DFA98B"/>
<mask id="mask0_120:1036" style="mask-type:alpha" maskUnits="userSpaceOnUse" x="340" y="182" width="36" height="55">
<path fill-rule="evenodd" clip-rule="evenodd" d="M375.354 182.734H340V218.556C340.002 223.242 341.865 227.735 345.179 231.048C348.493 234.361 352.987 236.222 357.673 236.222C362.359 236.22 366.853 234.359 370.168 231.046C373.483 227.734 375.348 223.242 375.354 218.556V182.734Z" fill="#935000"/>
</mask>
<g mask="url(#mask0_120:1036)">
<rect x="337.346" y="182.734" width="42.4568" height="9.51962" fill="#FF341A"/>
<rect x="337.346" y="192.258" width="42.4568" height="8.15967" fill="#FBBE2E"/>
<rect x="337.346" y="200.414" width="42.4568" height="9.51962" fill="#FEDD8E"/>
<rect x="337.346" y="209.934" width="42.4568" height="9.51962" fill="#24A865"/>
<rect x="337.346" y="219.457" width="42.4568" height="8.15967" fill="#4FB3F6"/>
<rect x="337.346" y="227.613" width="42.4568" height="9.51962" fill="#6D83F3"/>
</g>
</svg>
