<svg width="811" height="873" viewBox="0 0 811 873" fill="none" xmlns="http://www.w3.org/2000/svg">
<path fill-rule="evenodd" clip-rule="evenodd" d="M389.73 111.145C372.852 111.145 341.961 123.13 340 148.491C338.039 173.852 316.292 226.407 297.983 237.045C279.673 247.684 267.312 290.438 298.754 309.928C330.195 329.418 364.634 291.189 364.634 291.189L423.749 160.697L403.346 135.998C403.368 135.998 406.629 111.145 389.73 111.145Z" fill="#6D83F3"/>
<path fill-rule="evenodd" clip-rule="evenodd" d="M531.472 215.812L620.376 297.37L622.491 324.894L497.65 273.841L483.505 232.676L531.472 215.812Z" fill="#00672E"/>
<path fill-rule="evenodd" clip-rule="evenodd" d="M636.306 268.847C631.084 272.864 620.795 281.958 620.795 281.958L630.908 291.383C630.908 291.383 621.5 300.808 611.365 297.321C605.79 308.688 610.329 326.147 620.773 328.597C631.239 331.047 637.694 331.224 637.694 331.224L671.692 310.078L664.377 272.511C664.399 272.511 641.55 264.808 636.306 268.847Z" fill="#5B3100"/>
<path fill-rule="evenodd" clip-rule="evenodd" d="M637.253 268.32C642.916 264.237 660.081 250.817 670.262 260.176C680.442 269.534 671.716 310.081 671.716 310.081L657.724 318.778C657.724 318.778 648.491 296.242 662.726 284.919C648.777 276.244 643.621 272.249 637.253 268.32Z" fill="black"/>
<path fill-rule="evenodd" clip-rule="evenodd" d="M633.377 271.198C633.377 271.198 626.612 271.86 618.746 268.836C620.993 272.588 625.378 277.952 625.378 277.952L633.377 271.198Z" fill="#5B3100"/>
<path fill-rule="evenodd" clip-rule="evenodd" d="M693.5 345.766C693.5 345.766 733.341 309.955 757.181 315.075C781.021 320.196 783.577 357.609 783.577 373.876V594.026C783.577 615.79 763.989 624.31 751.21 624.31C738.43 624.31 702.67 603.827 708.201 556.923C713.731 509.997 715.075 522.666 715.075 522.666L693.5 345.766Z" fill="#FF341A"/>
<path fill-rule="evenodd" clip-rule="evenodd" d="M638.734 275.633C639.119 276.086 639.082 276.781 638.652 277.186L636.741 278.986C636.311 279.391 635.65 279.352 635.266 278.899C634.881 278.446 634.918 277.75 635.348 277.345L637.259 275.546C637.689 275.141 638.35 275.18 638.734 275.633Z" fill="white"/>
<path fill-rule="evenodd" clip-rule="evenodd" d="M637.801 275.541C638.089 275.881 638.061 276.402 637.739 276.706L636.306 278.056C635.983 278.359 635.488 278.33 635.199 277.99C634.911 277.651 634.939 277.129 635.261 276.825L636.694 275.476C637.017 275.172 637.512 275.201 637.801 275.541Z" fill="black"/>
<path fill-rule="evenodd" clip-rule="evenodd" d="M720.121 152.38C716.155 142.514 719.746 127.461 724.704 122.605C729.661 117.771 743.168 104.66 745.68 102.541C748.192 100.444 756.256 103.865 752.246 109.074C748.236 114.283 743.388 122.627 743.388 122.627C743.388 122.627 784.393 103.578 790.386 100.974C796.379 98.3473 799.772 105.653 793.691 108.611C787.61 111.569 759.341 128.013 759.341 128.013C759.341 128.013 793.536 116.314 799.331 114.548C805.126 112.783 808.916 119.537 802.35 122.207C795.784 124.878 764.012 138.894 764.012 138.894C764.012 138.894 802.086 132.604 805.831 132.074C809.599 131.544 814.777 139.358 806.823 140.682C798.869 142.006 770.93 149.842 770.93 149.842C770.93 149.842 793.779 155.78 798.582 156.508C803.407 157.236 804.707 165.204 794.991 164.542C785.252 163.88 749.976 166.441 743.961 166.22C737.946 165.977 724.087 162.247 720.121 152.38Z" fill="#DFA98B"/>
<path fill-rule="evenodd" clip-rule="evenodd" d="M92.7206 40.8477L368.028 160.745H448.141L718.866 124.745C741.054 131.631 748.655 146.221 740.987 168.868L493.156 236.431L528.916 351.362H366.706L326.826 256.495L62.8433 79.055C62.8213 79.0329 61.7416 41.9071 92.7206 40.8477Z" fill="#FEDD8E"/>
<path fill-rule="evenodd" clip-rule="evenodd" d="M669.112 259.232C669.112 259.232 678.366 226.83 705.578 216.235C726.685 208.024 745.061 214.05 746.736 235.637C748.124 253.626 731.004 263.669 715.162 266.031C697.69 268.613 669.112 259.232 669.112 259.232Z" fill="black"/>
<path fill-rule="evenodd" clip-rule="evenodd" d="M670.961 310.266L713 374.266L642.464 360.292L635 331.266L670.961 310.266Z" fill="#00672E"/>
<path fill-rule="evenodd" clip-rule="evenodd" d="M521.446 277.205C521.446 277.205 676.429 350.839 688.767 355.098C701.106 359.358 721.553 373.021 721.553 402.024C721.553 431.028 715.075 522.65 715.075 522.65H615.132C615.132 522.65 639.104 426.569 640.338 406.638C607.222 390.812 510.231 341.127 493.882 334.836C477.533 328.567 469.359 304.707 477.534 287.844C485.708 270.959 508.931 271.996 521.446 277.205Z" fill="#24A865"/>
<path fill-rule="evenodd" clip-rule="evenodd" d="M659.992 416.153C659.992 416.153 670.194 466.655 715.957 509.806C715.429 514.729 715.076 522.653 715.076 522.653C715.076 522.653 666.074 490.802 646.596 409.664C653.294 412.887 659.992 416.153 659.992 416.153Z" fill="#FF341A"/>
<path fill-rule="evenodd" clip-rule="evenodd" d="M615.154 522.664C615.154 522.664 582.192 660.131 572.41 694.255C562.627 728.379 564.742 771.883 564.742 771.883H664.377L715.979 522.664H615.154Z" fill="#FBBE2E"/>
<path fill-rule="evenodd" clip-rule="evenodd" d="M664.355 771.869H730.786L706.197 569.797L664.355 771.869Z" fill="#C98600"/>
<path fill-rule="evenodd" clip-rule="evenodd" d="M581.443 771.867C581.443 771.867 580.76 806.079 559.652 819.742C538.544 833.383 501.572 858.7 501.572 868.611H626.237L650.254 771.867H581.443Z" fill="#0C114D"/>
<path fill-rule="evenodd" clip-rule="evenodd" d="M718.71 771.867C718.71 771.867 739.752 848.481 737.813 868.611H626.214L628.352 859.76C628.352 859.76 663.186 845.677 661.137 827.247C659.088 808.816 655.342 771.867 655.342 771.867H718.71Z" fill="#0C114D"/>
<path fill-rule="evenodd" clip-rule="evenodd" d="M497.649 273.83C497.649 273.83 496.129 264.052 489.805 257.938C483.482 251.824 476.497 245.489 469.755 241.34C462.991 237.19 460.171 243.569 463.96 247.763C467.728 251.957 474.338 259.638 474.338 259.638C474.338 259.638 428.112 236.44 421.392 233.372C414.694 230.304 413.989 238.117 418.88 241.472C423.772 244.827 450.278 268.864 450.278 268.864C450.278 268.864 421.811 252.641 416.368 249.573C410.926 246.505 407.026 252.795 413.989 257.673C420.973 262.574 444.262 284.646 444.262 284.646C444.262 284.646 414.143 269.835 408.679 266.745C403.236 263.677 399.469 270.652 407.136 275.265C414.804 279.878 443.007 299.434 443.007 299.434C443.007 299.434 416.633 290.495 410.507 288.95C404.36 287.405 403.677 295.241 411.631 297.889C419.585 300.538 466.142 326.076 478.943 320.801C486.544 296.256 497.649 273.83 497.649 273.83Z" fill="#5B3100"/>
<path d="M326.802 256.469L345.973 269.359" stroke="#DFA98B" stroke-width="1.8072" stroke-miterlimit="10" stroke-linecap="round" stroke-linejoin="round"/>
<path d="M494.918 243.468L484.011 208.836" stroke="#DFA98B" stroke-width="1.8072" stroke-miterlimit="10" stroke-linecap="round" stroke-linejoin="round"/>
<path fill-rule="evenodd" clip-rule="evenodd" d="M366.684 351.32C375.123 370.656 399.734 454.641 404.383 467.289C409.032 479.958 420.335 521.94 415.025 556.594C409.715 591.247 381.094 793.85 381.094 793.85H458.938C458.938 793.85 500.845 611.907 504.172 587.914C507.499 563.922 513.14 517.724 506.31 494.261C513.977 513.464 579.35 668.015 579.35 668.015L608.478 550.148L528.872 351.32H366.684Z" fill="#014A82"/>
<path d="M506.334 494.25L478.834 394.461" stroke="#002238" stroke-width="1.8072" stroke-miterlimit="10" stroke-linecap="round" stroke-linejoin="round"/>
<path fill-rule="evenodd" clip-rule="evenodd" d="M381.115 793.855C378.956 807.717 366.705 872.875 366.705 872.875H503.444C503.444 872.875 496.151 856.762 482.865 852.656C469.579 848.551 450.057 827.759 458.981 793.855H381.115Z" fill="#4FB3F6"/>
<path fill-rule="evenodd" clip-rule="evenodd" d="M389.732 111.145C403.416 111.145 414.522 124.874 414.522 141.803C414.522 158.71 403.416 172.44 389.732 172.44C376.049 172.44 364.965 158.71 364.965 141.803C364.965 124.874 376.071 111.145 389.732 111.145Z" fill="#DFA98B"/>
<path fill-rule="evenodd" clip-rule="evenodd" d="M414.364 138.277C415.4 141.721 424.765 146.334 421.349 147.15C418.595 147.15 413.416 147.018 413.416 147.018C413.416 147.018 410.618 139.315 414.364 138.277Z" fill="#DFA98B"/>
<path fill-rule="evenodd" clip-rule="evenodd" d="M412.58 153.702C407.181 154.43 404.515 151.671 400.482 147.168C397.97 144.365 395.062 147.676 396.538 150.744C398.852 155.556 402.399 159.33 409.847 159.749C411.742 156.483 411.764 157.366 412.58 153.702Z" fill="#FFFAF0"/>
<path fill-rule="evenodd" clip-rule="evenodd" d="M365.493 148.114C365.493 148.114 374.836 150.542 379.816 143.016C384.466 136.019 389.732 126.704 389.732 126.704H411.327C411.327 126.704 407.911 111.121 389.732 111.121C371.575 111.143 361.505 128.867 365.493 148.114Z" fill="#6D83F3"/>
<path d="M640.338 406.633L665.15 418.662" stroke="#8D1A00" stroke-width="1.8072" stroke-miterlimit="10" stroke-linecap="round" stroke-linejoin="round"/>
<path fill-rule="evenodd" clip-rule="evenodd" d="M84.7221 67.946C90.9355 59.3157 91.0016 43.8209 87.3441 37.9275C83.6866 32.0342 73.6834 16.0978 71.7444 13.4491C69.8055 10.8004 61.1685 12.2131 63.8125 18.2168C66.4565 24.2426 69.1886 33.513 69.1886 33.513C69.1886 33.513 33.9132 5.23821 28.7133 1.26518C23.5135 -2.70786 18.4677 3.56071 23.6897 7.88691C28.8895 12.2131 52.4432 34.9256 52.4432 34.9256C52.4432 34.9256 21.9931 15.3915 16.7932 12.3014C11.5933 9.21125 6.30537 14.8618 12.034 19.0114C17.7627 23.161 45.2823 44.3726 45.2823 44.3726C45.2823 44.3726 9.83077 29.1647 6.30543 27.7521C2.78009 26.3395 -4.11646 32.6963 3.30878 35.8747C10.712 39.0532 35.9843 53.334 35.9843 53.334C35.9843 53.334 12.3866 53.6431 7.53929 53.2016C2.69195 52.7602 -0.480924 60.1765 9.12563 61.854C18.7322 63.5315 52.3992 74.4353 58.2821 75.6713C64.165 76.8853 78.5087 76.5763 84.7221 67.946Z" fill="#DFA98B"/>
<path fill-rule="evenodd" clip-rule="evenodd" d="M410.222 136.578C410.971 136.578 411.588 137.196 411.588 137.945C411.588 138.695 410.971 139.312 410.222 139.312C409.472 139.312 408.855 138.695 408.855 137.945C408.855 137.196 409.472 136.578 410.222 136.578Z" fill="black"/>
</svg>
