<svg width="466" height="827" viewBox="0 0 466 827" fill="none" xmlns="http://www.w3.org/2000/svg">
<path fill-rule="evenodd" clip-rule="evenodd" d="M102.534 108.477C102.534 108.477 101.281 88.6005 112.02 81.0442C122.759 73.4879 134.137 63.6776 138.254 46.4134C142.371 29.1493 155.641 0 191.694 0C227.746 0 232.17 21.1576 237.54 36.0396C245.441 36.0396 263.774 48.7188 263.135 65.4963C262.521 82.2738 249.864 107.683 249.864 107.683L102.534 108.477Z" fill="#6D83F3"/>
<path fill-rule="evenodd" clip-rule="evenodd" d="M161.702 104.789H107.597C97.1647 104.789 64.5894 115.24 52.265 149.461C39.9406 183.682 7.67242 263.83 2.30288 280.3C-3.06667 296.77 -2.42754 346.821 42.4721 346.821C87.3717 346.821 69.0386 346.821 69.0386 346.821V367.415H263.237L273.337 255.582C273.337 255.582 296.426 299.306 306.552 310.397C316.677 321.488 334.397 330.991 361.884 330.991H425.193C431.432 330.991 436.52 325.919 436.52 319.644C436.52 300.638 436.52 264.444 436.52 264.444H372.316C372.316 264.444 323.606 175.101 312.867 156.735C302.102 138.37 287.579 107.684 249.941 107.684C212.278 107.709 161.702 104.789 161.702 104.789Z" fill="#FEDD8E"/>
<path d="M151.715 130.738C153.174 130.738 154.573 131.294 155.604 132.284C156.636 133.273 157.215 134.615 157.215 136.015V148.466C157.215 149.159 157.073 149.845 156.797 150.485C156.52 151.125 156.115 151.706 155.604 152.196C155.093 152.685 154.487 153.073 153.82 153.338C153.152 153.603 152.437 153.739 151.715 153.738C150.993 153.739 150.278 153.603 149.611 153.338C148.944 153.073 148.337 152.685 147.827 152.196C147.316 151.706 146.911 151.125 146.634 150.485C146.358 149.845 146.215 149.159 146.215 148.466V136.015C146.215 134.615 146.795 133.273 147.826 132.284C148.858 131.294 150.257 130.738 151.715 130.738Z" fill="#FF341A"/>
<path d="M209.715 130.738C208.257 130.738 206.858 131.294 205.826 132.284C204.795 133.273 204.215 134.615 204.215 136.015V148.466C204.215 149.159 204.358 149.845 204.634 150.485C204.911 151.125 205.316 151.706 205.827 152.196C206.337 152.685 206.944 153.073 207.611 153.338C208.278 153.603 208.993 153.739 209.715 153.738C210.437 153.739 211.152 153.603 211.82 153.338C212.487 153.073 213.093 152.685 213.604 152.196C214.115 151.706 214.52 151.125 214.797 150.485C215.073 149.845 215.215 149.159 215.215 148.466V136.015C215.215 134.615 214.636 133.273 213.604 132.284C212.573 131.294 211.174 130.738 209.715 130.738Z" fill="#FF341A"/>
<path d="M158.217 125.738C159.809 125.739 161.334 126.371 162.459 127.495C163.584 128.618 164.215 130.142 164.215 131.73V151.751C164.215 153.339 163.583 154.862 162.459 155.985C161.334 157.107 159.808 157.738 158.217 157.738C156.626 157.738 155.1 157.108 153.975 155.985C152.849 154.862 152.216 153.339 152.215 151.751V131.73C152.215 130.141 152.848 128.617 153.973 127.493C155.099 126.37 156.626 125.738 158.217 125.738Z" fill="white"/>
<path d="M99.6728 179.098L63.9502 290.931" stroke="#FBBE2E" stroke-width="1.8072" stroke-miterlimit="10" stroke-linecap="round" stroke-linejoin="round"/>
<path fill-rule="evenodd" clip-rule="evenodd" d="M94.052 196.715H133.736V290.925H63.957L94.052 196.715Z" fill="#00672E"/>
<path d="M174.691 196.715H161.036V290.925H174.691V196.715Z" fill="#FFF3D6"/>
<path d="M161.039 196.715H147.383V290.925H161.039V196.715Z" fill="#CF1D00"/>
<path d="M147.382 196.715H133.728V290.925H147.382V196.715Z" fill="#FFF3D6"/>
<path fill-rule="evenodd" clip-rule="evenodd" d="M417.675 264.435C422.533 255.854 427.878 244.02 442.121 238.488C456.365 232.98 460.916 239.794 461.069 242.535C461.223 245.301 447.951 249.348 447.951 249.348L465.442 293.789C465.442 293.789 453.807 321.837 436.47 321.837C419.132 321.863 412.816 273.016 417.675 264.435Z" fill="#DFA98B"/>
<path d="M46.2349 290.918H126.574" stroke="#FBBE2E" stroke-width="1.8072" stroke-miterlimit="10" stroke-linecap="round" stroke-linejoin="round"/>
<path d="M69.0117 346.828H123.403" stroke="#FBBE2E" stroke-width="1.8072" stroke-miterlimit="10" stroke-linecap="round" stroke-linejoin="round"/>
<path fill-rule="evenodd" clip-rule="evenodd" d="M126.57 290.929C121.558 294.925 106.063 306.067 104.273 318.106C102.151 332.219 108.518 346.794 123.425 346.794H157.381C164.029 346.794 199.468 339.033 197.857 315.493C196.246 291.979 174.691 269.746 174.691 269.746V290.903H150.247C150.247 290.903 146.514 278.198 144.749 271.539C142.959 264.879 140.709 259.218 134.394 260.012C128.078 260.832 126.595 266.646 126.595 273.024V290.929H126.57Z" fill="#DFA98B"/>
<path d="M273.311 255.583L278.323 200.102" stroke="#FBBE2E" stroke-width="1.8072" stroke-miterlimit="10" stroke-linecap="round" stroke-linejoin="round"/>
<path d="M372.291 264.422H358.482" stroke="#FBBE2E" stroke-width="1.8072" stroke-miterlimit="10" stroke-linecap="round" stroke-linejoin="round"/>
<path fill-rule="evenodd" clip-rule="evenodd" d="M69.013 367.43C69.013 387.281 67.6324 471.578 98.8525 532.695C130.047 593.785 147.383 626.29 147.383 626.29L133.729 777.262H187.655L206.934 718.348C206.934 718.348 233.117 755.976 242.501 767.349H297.347C297.347 767.349 288.935 693.093 278.068 664.404C267.201 635.69 243.498 578.288 243.498 578.288C249.021 563.637 264.056 426.804 263.187 367.455H69.013V367.43Z" fill="#014A82"/>
<path d="M243.503 578.242L183.18 437.746" stroke="#0C114D" stroke-width="1.8072" stroke-miterlimit="10" stroke-linecap="round" stroke-linejoin="round"/>
<path d="M147.383 626.234L206.939 718.293" stroke="#0C114D" stroke-width="1.8072" stroke-miterlimit="10" stroke-linecap="round" stroke-linejoin="round"/>
<path fill-rule="evenodd" clip-rule="evenodd" d="M133.729 777.207C132.681 783.867 123.092 815.552 126.058 826.003H232.579C232.579 826.003 224.985 816.244 215.269 810.736C205.553 805.229 185.353 786.992 187.68 777.207H133.729Z" fill="#0089E3"/>
<path fill-rule="evenodd" clip-rule="evenodd" d="M242.526 767.312C242.526 767.312 237.156 811.267 253.393 825.996H362.189C362.189 825.996 360.988 816.569 341.478 806.042C321.969 795.489 300.696 779.044 297.372 767.312H242.526Z" fill="#0089E3"/>
<path d="M139.215 141.738V120.733C139.233 115.169 141.414 109.837 145.282 105.904C149.15 101.97 154.39 99.7536 159.859 99.7383H201.562C207.031 99.7536 212.273 101.97 216.142 105.903C220.011 109.837 222.195 115.168 222.215 120.733V120.733V141.738" stroke="#014A82" stroke-width="11" stroke-linecap="round"/>
<path fill-rule="evenodd" clip-rule="evenodd" d="M161.701 81.043V104.531C161.701 111.806 167.684 135.884 183.82 135.884C199.956 135.884 206.323 119.618 206.757 105.735C175.586 92.1853 161.701 81.043 161.701 81.043Z" fill="#DFA98B"/>
<path d="M195.504 107.688C215.062 107.688 230.917 90.6694 230.917 69.676C230.917 48.6826 215.062 31.6641 195.504 31.6641C175.946 31.6641 160.091 48.6826 160.091 69.676C160.091 90.6694 175.946 107.688 195.504 107.688Z" fill="#DFA98B"/>
<path fill-rule="evenodd" clip-rule="evenodd" d="M160.601 54.0039H231.83C231.83 54.0039 238.515 22.0039 196.215 22.0039C153.915 22.0039 160.601 54.0039 160.601 54.0039Z" fill="#6D83F3"/>
<path fill-rule="evenodd" clip-rule="evenodd" d="M247.513 117.996C253.599 117.996 258.534 122.94 258.534 129.036C258.534 135.132 253.599 140.076 247.513 140.076C241.427 140.076 236.492 135.132 236.492 129.036C236.492 122.94 241.427 117.996 247.513 117.996Z" fill="#FFF3D6"/>
<path fill-rule="evenodd" clip-rule="evenodd" d="M252.191 195.949C258.277 195.949 263.212 200.893 263.212 206.989C263.212 213.085 258.277 218.029 252.191 218.029C246.105 218.029 241.169 213.085 241.169 206.989C241.169 200.893 246.105 195.949 252.191 195.949Z" fill="#FFF3D6"/>
<path fill-rule="evenodd" clip-rule="evenodd" d="M185.277 158.953C191.364 158.953 196.299 163.897 196.299 169.993C196.299 176.089 191.364 181.033 185.277 181.033C179.191 181.033 174.256 176.089 174.256 169.993C174.256 163.897 179.191 158.953 185.277 158.953Z" fill="#FFF3D6"/>
<path fill-rule="evenodd" clip-rule="evenodd" d="M118.237 117.738C124.323 117.738 129.258 122.682 129.258 128.778C129.258 134.874 124.323 139.818 118.237 139.818C112.151 139.818 107.215 134.874 107.215 128.778C107.215 122.682 112.151 117.738 118.237 117.738Z" fill="#FFF3D6"/>
<path fill-rule="evenodd" clip-rule="evenodd" d="M59.9918 182.336C66.0779 182.336 71.0133 187.28 71.0133 193.376C71.0133 199.472 66.0779 204.416 59.9918 204.416C53.9058 204.416 48.9707 199.472 48.9707 193.376C48.9963 187.28 53.9314 182.336 59.9918 182.336Z" fill="#FFF3D6"/>
<path fill-rule="evenodd" clip-rule="evenodd" d="M212.509 248.953C218.595 248.953 223.53 253.897 223.53 259.993C223.53 266.089 218.595 271.033 212.509 271.033C206.423 271.033 201.488 266.089 201.488 259.993C201.488 253.897 206.423 248.953 212.509 248.953Z" fill="#FFF3D6"/>
<path fill-rule="evenodd" clip-rule="evenodd" d="M242.834 310.129C248.92 310.129 253.855 315.072 253.855 321.169C253.855 327.265 248.92 332.209 242.834 332.209C236.748 332.209 231.812 327.265 231.812 321.169C231.838 315.072 236.773 310.129 242.834 310.129Z" fill="#FFF3D6"/>
<path fill-rule="evenodd" clip-rule="evenodd" d="M313.251 194.355C319.337 194.355 324.273 199.299 324.273 205.395C324.273 211.492 319.337 216.435 313.251 216.435C307.165 216.435 302.23 211.492 302.23 205.395C302.256 199.299 307.191 194.355 313.251 194.355Z" fill="#FFF3D6"/>
<path fill-rule="evenodd" clip-rule="evenodd" d="M326.496 276.621C332.582 276.621 337.518 281.565 337.518 287.661C337.518 293.757 332.582 298.701 326.496 298.701C320.41 298.701 315.475 293.757 315.475 287.661C315.475 281.565 320.41 276.621 326.496 276.621Z" fill="#FFF3D6"/>
<path fill-rule="evenodd" clip-rule="evenodd" d="M394.97 296.895C401.056 296.895 405.992 301.838 405.992 307.934C405.992 314.031 401.056 318.974 394.97 318.974C388.884 318.974 383.949 314.031 383.949 307.934C383.949 301.838 388.884 296.895 394.97 296.895Z" fill="#FFF3D6"/>
<path fill-rule="evenodd" clip-rule="evenodd" d="M68.1709 310.129C74.2569 310.129 79.192 315.072 79.192 321.169C79.192 327.265 74.2569 332.209 68.1709 332.209C62.0849 332.209 57.1494 327.265 57.1494 321.169C57.1494 315.072 62.0849 310.129 68.1709 310.129Z" fill="#FFF3D6"/>
<path d="M206.006 80.7383C210.744 86.1866 216.524 87.7497 223.37 85.4807" stroke="#CF1D00" stroke-width="1.8072" stroke-miterlimit="10" stroke-linecap="round" stroke-linejoin="round"/>
<path fill-rule="evenodd" clip-rule="evenodd" d="M217.734 63.0694C217.734 63.0694 229.749 66.1716 234.71 66.8098C239.67 67.4479 240.431 68.7003 234.857 70.4004C229.282 72.1006 220.395 73.8423 220.395 73.8423C220.395 73.8423 217.383 67.1559 217.734 63.0694Z" fill="#DFA98B"/>
<path d="M151.215 291.004L176.215 291.004" stroke="#935000" stroke-width="1.8072" stroke-miterlimit="10" stroke-linecap="round" stroke-linejoin="round"/>
<path d="M203.213 125.738C201.622 125.739 200.097 126.371 198.972 127.495C197.847 128.618 197.215 130.142 197.215 131.73V151.751C197.215 153.339 197.847 154.862 198.972 155.985C200.097 157.107 201.622 157.738 203.213 157.738C204.804 157.738 206.33 157.108 207.456 155.985C208.581 154.862 209.214 153.339 209.215 151.751V131.73C209.215 130.141 208.583 128.617 207.457 127.493C206.332 126.37 204.805 125.738 203.213 125.738Z" fill="white"/>
<path d="M210.492 62.7778C211.197 63.2019 212.308 62.6491 212.973 61.5429C213.639 60.4367 213.607 59.1961 212.902 58.772C212.197 58.3478 211.086 58.9006 210.421 60.0068C209.755 61.113 209.787 62.3536 210.492 62.7778Z" fill="black"/>
<ellipse cx="161.215" cy="57.5039" rx="5" ry="4.5" fill="#DFA98B"/>
<path fill-rule="evenodd" clip-rule="evenodd" d="M402.206 250.52V264.99H411.056C411.056 264.99 410.176 261.52 408.276 261.52C406.454 261.78 404.696 262.369 403.086 263.26L404.086 251.26L402.206 250.52Z" fill="#FBBE2E"/>
<path fill-rule="evenodd" clip-rule="evenodd" d="M397.005 214.279C398.851 214.055 400.584 213.275 401.975 212.042C403.367 210.81 404.35 209.183 404.795 207.379C405.027 206.462 405.394 205.586 405.885 204.779C407.343 202.427 409.658 200.735 412.341 200.06C415.024 199.385 417.865 199.781 420.261 201.164C422.657 202.546 424.422 204.807 425.18 207.468C425.939 210.129 425.632 212.98 424.325 215.419C423.572 216.761 422.522 217.914 421.255 218.789C419.801 219.837 418.693 221.295 418.073 222.977C417.453 224.659 417.349 226.488 417.775 228.229C418.753 231.869 418.63 235.718 417.421 239.288C416.212 242.858 413.971 245.99 410.983 248.287C407.994 250.583 404.391 251.943 400.63 252.192C396.869 252.442 393.118 251.571 389.852 249.689C386.586 247.807 383.952 244.999 382.281 241.62C380.611 238.241 379.98 234.442 380.469 230.705C380.957 226.967 382.543 223.458 385.025 220.622C387.508 217.785 390.775 215.748 394.415 214.769C395.265 214.541 396.131 214.377 397.005 214.279Z" fill="#0089E3"/>
<path fill-rule="evenodd" clip-rule="evenodd" d="M423.666 207.918H436.286L422.666 215.068C417.776 217.308 415.186 208.338 423.666 207.918Z" fill="#FBBE2E"/>
<path fill-rule="evenodd" clip-rule="evenodd" d="M400.255 223.901C400.255 223.901 392.775 203.641 375.845 203.641C358.915 203.641 349.215 207.711 349.215 215.421C349.215 223.131 360.945 223.901 371.435 223.901H400.255Z" fill="#4FB3F6"/>
<path fill-rule="evenodd" clip-rule="evenodd" d="M391.406 250.52V264.99H400.256C400.256 264.99 399.396 261.52 397.476 261.52C395.655 261.78 393.896 262.369 392.286 263.26L393.286 251.26L391.406 250.52Z" fill="#FBBE2E"/>
<circle cx="415.215" cy="205.738" r="1" fill="black"/>
</svg>
