<svg width="646" height="711" viewBox="0 0 646 711" fill="none" xmlns="http://www.w3.org/2000/svg">
<path fill-rule="evenodd" clip-rule="evenodd" d="M341.045 335.13C341.045 335.13 339.792 315.253 350.531 307.697C361.27 300.14 372.648 290.33 376.765 273.066C380.882 255.802 394.152 226.652 430.205 226.652C466.258 226.652 470.681 247.81 476.051 262.692C483.952 262.692 502.285 275.371 501.646 292.149C501.032 308.926 488.375 334.336 488.375 334.336L341.045 335.13Z" fill="#6D83F3"/>
<path fill-rule="evenodd" clip-rule="evenodd" d="M348.675 485.238C355.331 460.78 352.619 433.781 338.979 410.103C311.877 363.049 251.694 346.894 204.723 374.07C170.06 394.124 152.201 432.196 156.119 469.688C125.676 447.545 83.8289 443.997 49.1407 464.052C2.1697 491.227 -13.9562 551.492 13.1714 598.546C26.8106 622.224 48.8141 638.051 73.2793 644.518L294.847 710.444L348.675 485.238Z" fill="#FF341A"/>
<path fill-rule="evenodd" clip-rule="evenodd" d="M420.992 100.621L486.098 214.331L457.187 292.637L434.556 302.476C434.556 302.476 397.13 317.699 389.318 319.838C381.506 321.952 365.456 327.663 359.252 345.302C353.047 362.941 333.731 401.918 333.731 401.918C333.731 401.918 348.174 465.957 351.515 470.587C354.856 475.217 370.128 476.526 379.723 468.474C389.293 460.447 394.467 452.395 394.467 452.395L401.701 473.405H542.288C542.288 473.405 515.11 377.183 512.523 367.596C509.936 358.01 509.157 353.858 514.331 338.282C519.506 322.732 541.509 248.301 546.156 237.153C550.828 226.006 549.773 213.048 543.569 197.724C537.365 182.425 469.696 65.4688 469.696 65.4688L420.992 100.621Z" fill="#FEDD8E"/>
<mask id="mask0_120:1033" style="mask-type:alpha" maskUnits="userSpaceOnUse" x="423" y="340" width="47" height="58">
<path fill-rule="evenodd" clip-rule="evenodd" d="M457.697 340.635L423.91 351.043L434.455 385.277C435.837 389.755 438.94 393.501 443.082 395.691C447.225 397.881 452.068 398.337 456.546 396.958C461.024 395.576 464.771 392.474 466.964 388.333C469.157 384.192 469.617 379.35 468.243 374.869L457.697 340.635Z" fill="#935000"/>
</mask>
<g mask="url(#mask0_120:1033)">
<rect x="421.374" y="351.824" width="42.4568" height="9.51962" transform="rotate(-17.1207 421.374 351.824)" fill="#FF341A"/>
<rect x="424.177" y="360.926" width="42.4568" height="8.15967" transform="rotate(-17.1207 424.177 360.926)" fill="#FBBE2E"/>
<rect x="426.578" y="368.719" width="42.4568" height="9.51962" transform="rotate(-17.1207 426.578 368.719)" fill="#FEDD8E"/>
<rect x="429.381" y="377.82" width="42.4568" height="9.51962" transform="rotate(-17.1207 429.381 377.82)" fill="#24A865"/>
<rect x="432.184" y="386.918" width="42.4568" height="8.15967" transform="rotate(-17.1207 432.184 386.918)" fill="#4FB3F6"/>
<rect x="434.585" y="394.715" width="42.4568" height="9.51962" transform="rotate(-17.1207 434.585 394.715)" fill="#6D83F3"/>
</g>
<path d="M457.187 292.648L452.037 306.664" stroke="black" stroke-width="1.8072" stroke-miterlimit="10" stroke-linecap="round" stroke-linejoin="round"/>
<path fill-rule="evenodd" clip-rule="evenodd" d="M593.101 643.727C598.803 643.727 611.01 645.488 615.984 656.685C620.932 667.883 646 710.408 646 710.408H563.512C563.512 710.408 587.399 643.727 593.101 643.727Z" fill="#4FB3F6"/>
<path d="M486.098 214.305L491.851 224.319" stroke="#935000" stroke-width="1.8072" stroke-miterlimit="10" stroke-linecap="round" stroke-linejoin="round"/>
<path fill-rule="evenodd" clip-rule="evenodd" d="M300.324 372.574C300.324 372.574 302.333 355.111 288.694 350.557C275.03 346.002 245.817 347.286 234.966 362.71C224.09 378.135 222.859 384.778 226.777 386.238C230.696 387.697 253.779 360.874 253.779 360.874C253.779 360.874 247.073 379.368 244.385 384.35C241.698 389.333 248.128 397.636 254.533 389.735C260.963 381.859 276.084 363.415 276.084 363.415C276.084 363.415 272.97 378.11 271.312 383.092C269.654 388.075 277.541 391.195 280.631 385.986C283.746 380.802 290.05 367.768 290.05 367.768L300.324 372.574Z" fill="#DFA98B"/>
<path d="M394.467 452.375C394.467 452.375 382.384 418.104 378.817 409.347C375.25 400.591 377.21 389.569 379.47 387.305" stroke="#935000" stroke-width="1.8072" stroke-miterlimit="10" stroke-linecap="round" stroke-linejoin="round"/>
<path fill-rule="evenodd" clip-rule="evenodd" d="M401.699 473.387L406.723 486.018H348.499L311.625 640.391H376.857L362.641 576.78H441.411C441.411 576.78 426.617 620.06 420.136 639.511C413.656 658.961 417.7 710.419 461.38 710.419H567.354C579.486 710.419 599.706 687.32 599.706 667.466C599.706 647.613 594.431 636.265 576.246 636.265H517.193C517.193 636.265 544.547 553.278 549.043 535.639C553.539 518 557.282 489.516 542.261 473.387H401.699Z" fill="#0C114D"/>
<path d="M406.725 486.02H433" stroke="black" stroke-width="1.8072" stroke-miterlimit="10" stroke-linecap="round" stroke-linejoin="round"/>
<path d="M362.616 576.782L357.793 555.117" stroke="black" stroke-width="1.8072" stroke-miterlimit="10" stroke-linecap="round" stroke-linejoin="round"/>
<path d="M441.386 576.777L455.931 528.238" stroke="black" stroke-width="1.8072" stroke-miterlimit="10" stroke-linecap="round" stroke-linejoin="round"/>
<path d="M516.088 635.398L508.2 661.291" stroke="black" stroke-width="1.8072" stroke-miterlimit="10" stroke-linecap="round" stroke-linejoin="round"/>
<path fill-rule="evenodd" clip-rule="evenodd" d="M369.096 640.402C369.096 640.402 381.629 668.383 384.87 680.134C388.11 691.885 386.703 704.794 381.454 710.455H294.896L311.625 640.402H369.096Z" fill="#4FB3F6"/>
<path fill-rule="evenodd" clip-rule="evenodd" d="M403.91 90.3122C396.249 83.317 384.669 66.0805 399.238 47.4853C390.949 33.6962 377.686 12.9622 373.718 7.1496C369.749 1.33702 374.697 -3.46902 381.002 3.3249C387.307 10.1188 410.817 34.1995 410.817 34.1995C410.817 34.1995 415.967 25.3926 421.417 26.2229C426.868 27.0533 430.359 34.5266 430.359 34.5266C430.359 34.5266 437.166 28.7141 441.562 32.2117C446.108 28.8902 449.751 29.2173 453.744 33.3691C457.713 37.521 470.322 50.9578 468.991 54.6064C470.975 62.583 468.815 79.6684 461.531 88.123C454.247 96.628 429.782 113.89 403.91 90.3122Z" fill="#DFA98B"/>
<path d="M399.238 47.5076C402.076 43.8842 410.341 38.0464 415.013 42.3996C419.686 46.7527 417.776 53.3453 415.641 55.7861C413.506 58.2268 406.623 67.1595 408.859 73.727" stroke="black" stroke-width="1.8072" stroke-miterlimit="10" stroke-linecap="round" stroke-linejoin="round"/>
<path d="M417.902 49.1277C417.902 49.1277 427.95 71.3968 434.431 68.8554C440.912 66.3139 438.878 57.0037 436.441 51.1408C434.004 45.2779 430.387 34.5586 430.387 34.5586" stroke="black" stroke-width="1.8072" stroke-miterlimit="10" stroke-linecap="round" stroke-linejoin="round"/>
<path d="M438.749 55.7498C438.749 55.7498 447.239 66.3684 450.932 64.2548C454.65 62.1411 452.213 53.1077 449.978 48.8552C447.742 44.6027 441.537 32.2227 441.537 32.2227" stroke="black" stroke-width="1.8072" stroke-miterlimit="10" stroke-linecap="round" stroke-linejoin="round"/>
<path d="M452.865 54.1797C452.865 54.1797 466.506 70.0324 467.36 54.1797" stroke="black" stroke-width="1.8072" stroke-miterlimit="10" stroke-linecap="round" stroke-linejoin="round"/>
<path fill-rule="evenodd" clip-rule="evenodd" d="M398.851 268.249C398.851 268.249 387.018 264.508 382.474 262.419C377.93 260.33 376.621 260.989 380.446 265.386C384.271 269.783 390.882 275.972 390.882 275.972C390.882 275.972 396.981 271.899 398.851 268.249Z" fill="#DFA98B"/>
<path fill-rule="evenodd" clip-rule="evenodd" d="M419.486 246.945C425.856 247.513 431.93 249.893 436.991 253.803C442.052 257.713 445.888 262.989 448.046 269.01C450.204 275.03 450.594 281.542 449.17 287.777C447.745 294.012 444.566 299.708 440.007 304.194C435.449 308.68 429.702 311.767 423.445 313.091C417.188 314.415 410.683 313.92 404.698 311.665C398.714 309.411 393.499 305.49 389.671 300.367C385.844 295.244 383.966 292.328 383.5 285.949C385.03 285.208 392.894 280.448 393 278.949C393.084 278.004 385.001 277.984 383.132 277.377C383.521 272.991 384.77 268.725 386.808 264.822C388.846 260.919 391.632 257.456 395.009 254.63C398.385 251.804 402.285 249.671 406.485 248.353C410.686 247.034 415.106 246.556 419.491 246.946L419.486 246.945Z" fill="#DFA98B"/>
<path d="M396.908 269.864C397.613 270.288 398.724 269.735 399.39 268.629C400.055 267.523 400.024 266.282 399.319 265.858C398.614 265.434 397.503 265.987 396.837 267.093C396.172 268.199 396.203 269.44 396.908 269.864Z" fill="black"/>
<path fill-rule="evenodd" clip-rule="evenodd" d="M92.9902 443.434V457.904H101.84C101.84 457.904 100.96 454.434 99.0602 454.434C97.239 454.694 95.4803 455.283 93.8702 456.174L94.8702 444.174L92.9902 443.434Z" fill="#FBBE2E"/>
<path fill-rule="evenodd" clip-rule="evenodd" d="M87.7901 407.193C89.6353 406.969 91.3687 406.189 92.7601 404.957C94.1515 403.724 95.135 402.098 95.5801 400.293C95.8112 399.377 96.1786 398.5 96.67 397.693C98.1273 395.341 100.443 393.649 103.126 392.974C105.809 392.299 108.649 392.695 111.046 394.078C113.442 395.461 115.206 397.722 115.965 400.382C116.723 403.043 116.417 405.894 115.11 408.333C114.357 409.675 113.307 410.828 112.04 411.703C110.586 412.751 109.478 414.209 108.858 415.891C108.238 417.573 108.134 419.402 108.56 421.143C109.538 424.783 109.415 428.632 108.206 432.202C106.997 435.772 104.756 438.904 101.767 441.201C98.7786 443.498 95.1759 444.857 91.4148 445.106C87.6537 445.356 83.9031 444.485 80.6371 442.603C77.3711 440.721 74.7363 437.913 73.0661 434.534C71.3958 431.155 70.7651 427.356 71.2535 423.619C71.7419 419.881 73.3275 416.372 75.81 413.536C78.2924 410.699 81.5602 408.662 85.2001 407.683C86.05 407.455 86.9157 407.291 87.7901 407.193Z" fill="#0089E3"/>
<path fill-rule="evenodd" clip-rule="evenodd" d="M115.531 398.652H128.151L114.531 405.802C109.641 408.042 107.051 399.072 115.531 398.652Z" fill="#FBBE2E"/>
<path fill-rule="evenodd" clip-rule="evenodd" d="M90.732 409.883C90.732 409.883 71.7497 399.583 59.0212 410.746C46.2927 421.909 41.6836 431.365 46.7672 437.161C51.8509 442.958 61.1776 435.802 69.0642 428.886L90.732 409.883Z" fill="#4FB3F6"/>
<path fill-rule="evenodd" clip-rule="evenodd" d="M82.1904 443.434V457.904H91.0405C91.0405 457.904 90.1804 454.434 88.2604 454.434C86.4392 454.694 84.6805 455.283 83.0704 456.174L84.0704 444.174L82.1904 443.434Z" fill="#FBBE2E"/>
<circle cx="108" cy="396.652" r="1" fill="black"/>
<path fill-rule="evenodd" clip-rule="evenodd" d="M391.33 253.74L452.375 270.54C452.375 270.54 465.535 245.121 429.283 235.144C393.03 225.166 391.33 253.74 391.33 253.74Z" fill="#6D83F3"/>
</svg>
