<svg width="415" height="741" viewBox="0 0 415 741" fill="none" xmlns="http://www.w3.org/2000/svg">
<g clip-path="url(#clip0_447:19329)">
<path fill-rule="evenodd" clip-rule="evenodd" d="M173.026 730.641C260.66 730.641 331.875 730.149 331.807 735.796C331.738 741.885 260.66 740.951 173.026 740.951C85.3927 740.951 14.2363 741.59 14.2363 735.826C14.2363 730.061 85.3828 730.641 173.026 730.641Z" fill="black"/>
<path fill-rule="evenodd" clip-rule="evenodd" d="M229.416 45.5759C229.416 45.5759 248.969 9.33549 252.015 3.18722C257.566 -8.0174 302.95 12.749 296.229 28.0459C289.509 43.3428 276.804 71.3298 276.804 71.3298L229.416 45.5759Z" fill="#FF341A"/>
<path fill-rule="evenodd" clip-rule="evenodd" d="M206.808 78.4027C195.999 71.0739 174.973 51.9504 184.523 38.5619C194.074 25.1734 232.599 38.5619 251.337 47.4941C270.074 56.4263 314.053 82.2294 306.419 100.084C298.784 117.939 272.245 106.459 262.587 101.678C252.928 96.8967 217.635 85.7413 206.808 78.4027Z" fill="black"/>
<path fill-rule="evenodd" clip-rule="evenodd" d="M349.258 426.189C349.258 426.189 347.293 432.406 349.405 435.927C349.931 435.196 350.634 434.611 351.448 434.226C352.262 433.842 353.161 433.671 354.059 433.73C354.957 433.789 355.826 434.076 356.582 434.564C357.339 435.051 357.96 435.724 358.386 436.518C360.94 440.826 355.271 456.881 340.209 459.232C325.146 461.583 318.298 454.313 316.342 445.529C314.387 436.744 319.172 423.385 319.172 423.385L349.258 426.189Z" fill="#DFA98B"/>
<path fill-rule="evenodd" clip-rule="evenodd" d="M308.176 317.645H148.256L146.262 338.008H306.182L308.176 317.645Z" fill="#24A865"/>
<path fill-rule="evenodd" clip-rule="evenodd" d="M214.197 140.181C196.295 140.181 196.511 140.358 184.406 140.486C172.301 140.614 150.085 151.002 139.208 183.061C128.4 214.875 117.072 242.37 117.072 242.37L101.989 222.253L69.123 236.93C69.123 236.93 104.996 307.04 112.444 316.218C119.891 325.396 137.656 334.004 148.258 317.644H305.574L319.192 423.405L349.278 426.208C349.278 426.208 359.103 286.844 358.366 246.187C357.629 205.529 357.718 196.823 356.696 182.835C355.261 163.111 338.578 141.942 306.704 141.942C274.83 141.942 232.118 140.181 214.197 140.181Z" fill="#163BF3"/>
<path fill-rule="evenodd" clip-rule="evenodd" d="M251.003 58.7383C269.799 68.428 275.625 94.6245 264.012 117.191C252.398 139.758 228.64 148.297 208.93 140.525C194.192 134.711 189.888 121.382 201.502 98.8152C203.555 94.8213 200.431 74.468 203.192 71.2709C216.073 56.4364 235.537 50.7603 251.003 58.7383Z" fill="#DFA98B"/>
<path fill-rule="evenodd" clip-rule="evenodd" d="M219.404 143.102L224.16 155.035L266.547 141.607L259.817 124.077L219.404 143.102Z" fill="#DFA98B"/>
<path fill-rule="evenodd" clip-rule="evenodd" d="M219.404 143.102L232.964 143.85L221.743 149.162L219.404 143.102Z" fill="#8D1A00"/>
<path fill-rule="evenodd" clip-rule="evenodd" d="M180.79 338.008H146.106C141.911 354.174 138.566 370.549 136.084 387.066C132.645 411.443 141.812 447.309 136.369 466.521C130.926 485.733 95.3769 604.075 104.78 678.474H136.113C136.113 678.474 192.531 595.556 199.684 567.314C206.837 539.071 198.348 509.943 226.999 466.915C226.999 501.424 227.894 543.557 229.23 564.618C230.566 585.68 225.201 621.094 226.105 640.365C227.009 659.636 233.71 680.698 233.71 680.698H271.646C271.646 680.698 295.041 638.565 296.387 616.155C297.733 593.746 289.676 568.199 295.041 551.613C300.406 535.028 322.67 459.281 324.301 421.634C325.932 383.987 320.558 338.706 320.558 338.706L180.79 338.008Z" fill="#9CE8C2"/>
<path fill-rule="evenodd" clip-rule="evenodd" d="M136.829 464.633L206.866 513.691C202.68 533.66 203.918 550.649 199.683 567.324C192.53 595.556 136.112 678.484 136.112 678.484H104.779C95.3756 604.085 130.905 485.753 136.348 466.531C136.574 465.911 136.682 465.302 136.829 464.633ZM227.794 528.348L293.537 574.397C294.519 587.657 297.201 602.501 296.386 616.175C295.04 638.584 271.645 680.737 271.645 680.737H233.709C233.709 680.737 226.998 659.676 226.104 640.404C225.21 621.133 230.575 585.719 229.229 564.658C228.659 555.637 228.167 542.799 227.794 528.348Z" fill="white"/>
<path d="M226.998 466.925V396.598" stroke="#24A865" stroke-width="1.67" stroke-linecap="round" stroke-linejoin="round"/>
<path d="M117.061 242.37C117.061 242.37 131.317 267.258 135.218 275.059" stroke="black" stroke-width="1.67" stroke-linecap="round" stroke-linejoin="round"/>
<path d="M148.258 317.644V255.276" stroke="black" stroke-width="1.67" stroke-linecap="round" stroke-linejoin="round"/>
<path fill-rule="evenodd" clip-rule="evenodd" d="M103.167 222.4C102.784 211.855 103.245 197.807 103.245 191.905C103.245 186.003 97.969 185.019 96.5934 191.216C95.5757 195.412 94.1166 199.488 92.2407 203.375C92.2407 203.375 81.924 176.067 78.485 166.889C75.0461 157.711 68.8265 160.741 70.6246 169.191C72.5897 178.398 77.0505 198.761 77.0505 198.761C77.0505 198.761 64.7588 173.313 62.6954 168.266C60.6321 163.22 53.5282 163.672 56.2696 171.217C59.0109 178.762 66.8123 201.978 66.8123 201.978C66.8123 201.978 53.3121 182.245 49.4212 176.51C45.5303 170.775 38.8686 172.575 43.2311 180.641C47.5936 188.708 58.3526 207.949 58.3526 207.949C58.3526 207.949 44.5969 195.318 40.9319 191.659C37.267 188 32.4525 191.885 37.9843 198.309C43.516 204.733 63.7369 231.667 69.1508 237.658C79.6739 249.256 103.805 239.153 103.167 222.4Z" fill="#DFA98B"/>
<path fill-rule="evenodd" clip-rule="evenodd" d="M202.523 72.7956L219.168 67.1884C219.168 67.1884 228.561 79.7308 237.04 80.4686C245.52 81.2064 244.724 98.1757 244.724 98.1757H248.654C248.654 98.1757 249.391 90.5223 254.913 90.5223C260.435 90.5223 259.826 97.1428 259.826 100.428C259.826 103.714 259.826 124.097 259.826 124.097C259.826 124.097 270.948 113.04 269.848 89.2828C268.747 65.5259 246.267 60.3711 246.267 60.3711C246.267 60.3711 216.623 55.9739 206.965 64.5717C203.516 67.6114 202.523 72.7956 202.523 72.7956Z" fill="#8D1A00"/>
<path fill-rule="evenodd" clip-rule="evenodd" d="M206.395 65.0831C206.395 65.0831 218.578 54.1048 246.129 69.5591C271.999 84.1084 269.916 90.5026 269.916 90.5026C269.916 90.5026 275.114 66.0078 255.335 55.0885C246.718 50.3765 209.991 49.737 206.395 65.0831Z" fill="black"/>
<path d="M213.381 84.1772C213.381 84.1772 213.734 93.2669 209.725 98.4609C205.717 103.655 206.336 107.226 209.843 107.226H216.829C216.829 107.226 213.685 111.82 211.995 114.653C210.305 117.486 214.196 117.604 218.568 115.715C221.402 114.425 224.026 112.713 226.35 110.639C226.35 110.639 230.064 120.477 216.829 124.097" stroke="#8D1A00" stroke-width="1.67" stroke-linecap="round" stroke-linejoin="round"/>
<path fill-rule="evenodd" clip-rule="evenodd" d="M207.249 85.2102C208.025 85.2102 208.644 86.1939 208.644 87.5023C208.644 88.8106 208.025 89.814 207.249 89.814C206.472 89.814 205.863 88.8303 205.863 87.5023C205.863 86.1742 206.482 85.2102 207.249 85.2102Z" fill="black"/>
<path fill-rule="evenodd" clip-rule="evenodd" d="M221.212 85.2102C221.988 85.2102 222.607 86.1939 222.607 87.5023C222.607 88.8106 221.988 89.814 221.212 89.814C220.435 89.814 219.816 88.8303 219.816 87.5023C219.816 86.1742 220.445 85.2102 221.212 85.2102Z" fill="black"/>
<path fill-rule="evenodd" clip-rule="evenodd" d="M233.71 680.737C234.928 687.918 235.802 701.248 226.183 713.859C216.564 726.47 219.816 735.826 219.816 735.826H298.253C298.253 735.826 288.536 720.696 282.425 711.685C276.313 702.674 271.616 680.727 271.616 680.727C271.616 680.727 247.249 680.009 233.71 680.737Z" fill="#24A865"/>
<path fill-rule="evenodd" clip-rule="evenodd" d="M104.78 678.465C104.78 678.465 92.7925 699.123 69.0442 708.094C45.2959 717.066 29.1035 727.513 29.1035 735.826H136.693C136.693 735.826 136.231 715.236 132.91 708.124C129.589 701.012 132.32 684.19 136.113 678.494L104.78 678.465Z" fill="#24A865"/>
<path fill-rule="evenodd" clip-rule="evenodd" d="M220.612 146.132L216.721 158.862L224.159 155.035L239.162 158.862L273.728 141.538L263.392 133.413L223.461 153.284L220.612 146.132Z" fill="white"/>
<path d="M321.59 331.151H178.059V375.783H321.59V331.151Z" fill="#FFF3D6"/>
<path fill-rule="evenodd" clip-rule="evenodd" d="M178.059 371.277V388.728C178.061 389.702 178.368 390.651 178.935 391.442C179.503 392.234 180.304 392.827 181.225 393.141C182.146 393.454 183.142 393.471 184.074 393.19C185.005 392.908 185.826 392.342 186.42 391.571L191.107 385.462C192.386 383.792 194.031 382.438 195.917 381.506C197.802 380.575 199.876 380.09 201.979 380.09C204.081 380.09 206.155 380.575 208.041 381.506C209.926 382.438 211.572 383.792 212.851 385.462L215.032 388.295C216.311 389.966 217.957 391.32 219.842 392.252C221.727 393.183 223.801 393.668 225.904 393.668C228.006 393.668 230.081 393.183 231.966 392.252C233.851 391.32 235.497 389.966 236.776 388.295L238.947 385.462C240.233 383.8 241.881 382.454 243.767 381.528C245.652 380.603 247.724 380.121 249.824 380.121C251.924 380.121 253.996 380.603 255.881 381.528C257.767 382.454 259.415 383.8 260.701 385.462L262.872 388.295C264.151 389.966 265.797 391.32 267.682 392.252C269.568 393.183 271.642 393.668 273.744 393.668C275.847 393.668 277.921 393.183 279.806 392.252C281.692 391.32 283.337 389.966 284.616 388.295L286.788 385.462C288.073 383.8 289.722 382.454 291.607 381.528C293.493 380.603 295.565 380.121 297.665 380.121C299.764 380.121 301.836 380.603 303.722 381.528C305.607 382.454 307.256 383.8 308.541 385.462C310.113 387.518 311.715 389.594 313.218 391.571C313.812 392.346 314.633 392.916 315.566 393.2C316.499 393.484 317.498 393.468 318.422 393.154C319.345 392.84 320.148 392.245 320.716 391.451C321.284 390.657 321.59 389.705 321.59 388.728V371.277H178.059Z" fill="#FFF3D6"/>
<path d="M249.823 362.404C307.018 362.404 353.383 315.983 353.383 258.719C353.383 201.456 307.018 155.035 249.823 155.035C192.627 155.035 146.262 201.456 146.262 258.719C146.262 315.983 192.627 362.404 249.823 362.404Z" fill="#FBBE2E"/>
<path fill-rule="evenodd" clip-rule="evenodd" d="M249.823 176.401C266.087 176.401 281.986 181.23 295.509 190.277C309.032 199.324 319.571 212.182 325.795 227.226C332.018 242.27 333.646 258.824 330.472 274.794C327.299 290.765 319.466 305.434 307.965 316.947C296.464 328.461 281.811 336.301 265.86 339.476C249.908 342.652 233.374 341.02 218.349 334.787C203.323 328.555 190.482 318.001 181.447 304.461C172.413 290.921 167.592 275.003 167.594 258.719C167.604 236.889 176.271 215.955 191.69 200.52C207.109 185.084 228.019 176.409 249.823 176.401Z" fill="#FFF3D6"/>
<path d="M86.0906 703.825C86.0906 703.825 81.7674 675.494 72.9245 675.494C64.0815 675.494 82.8974 705.399 82.8974 705.399H48.1445" stroke="black" stroke-width="1.67" stroke-linecap="round" stroke-linejoin="round"/>
<path d="M254.343 705.399C254.343 705.399 237.011 660.394 249.823 659.784C262.636 659.174 257.684 705.399 257.684 705.399H293.606" stroke="black" stroke-width="1.67" stroke-linecap="round" stroke-linejoin="round"/>
<path d="M124.111 678.927L178.41 494" stroke="#24A865" stroke-width="1.67" stroke-linecap="round" stroke-linejoin="round"/>
<path fill-rule="evenodd" clip-rule="evenodd" d="M133.676 36.5157C128.514 36.5596 123.576 38.6356 119.93 42.2951C116.284 45.9545 114.223 50.9035 114.192 56.0722V56.2C114.192 50.982 112.122 45.9778 108.436 42.2881C104.751 38.5984 99.7528 36.5256 94.541 36.5256C99.7528 36.5256 104.751 34.4527 108.436 30.763C112.122 27.0734 114.192 22.0691 114.192 16.8511V16.979C114.236 22.1679 116.326 27.1293 120.006 30.7829C123.687 34.4365 128.66 36.4864 133.843 36.4862L133.676 36.5157Z" fill="#FBBE2E"/>
<path fill-rule="evenodd" clip-rule="evenodd" d="M414.883 89.8828C409.729 89.9265 404.799 91.9957 401.154 95.6446C397.509 99.2935 395.443 104.23 395.399 109.39V109.518C395.399 104.3 393.329 99.2956 389.643 95.6059C385.958 91.9163 380.96 89.8434 375.748 89.8434C378.329 89.8434 380.884 89.3345 383.268 88.3458C385.652 87.3571 387.819 85.9078 389.643 84.0809C391.468 82.254 392.916 80.0851 393.903 77.698C394.891 75.311 395.399 72.7526 395.399 70.1689V70.2968C395.443 75.4773 397.526 80.4313 401.196 84.0835C404.866 87.7357 409.826 89.7913 415.001 89.8041L414.883 89.8828Z" fill="#FBBE2E"/>
<path fill-rule="evenodd" clip-rule="evenodd" d="M25.4775 310.011C22.1137 310.029 18.8928 311.375 16.5142 313.756C14.1355 316.138 12.7912 319.362 12.7732 322.73V322.809C12.7732 319.417 11.4274 316.165 9.03199 313.766C6.63656 311.368 3.38765 310.021 0 310.021C3.38765 310.021 6.63656 308.673 9.03199 306.275C11.4274 303.877 12.7732 300.624 12.7732 297.232V297.321C12.7939 300.699 14.1488 303.931 16.542 306.313C18.9352 308.694 22.1722 310.031 25.5463 310.03L25.4775 310.011Z" fill="#FBBE2E"/>
<path d="M181.398 234.904V282.545" stroke="#163BF3" stroke-width="1.67" stroke-linecap="round" stroke-linejoin="round"/>
<path d="M253.812 234.904V282.545" stroke="#163BF3" stroke-width="1.67" stroke-linecap="round" stroke-linejoin="round"/>
<path d="M231.293 234.904V282.545" stroke="#163BF3" stroke-width="1.67" stroke-linecap="round" stroke-linejoin="round"/>
<path d="M277.658 234.904V282.545" stroke="#163BF3" stroke-width="1.67" stroke-linecap="round" stroke-linejoin="round"/>
<path d="M309.523 234.904V282.545" stroke="#163BF3" stroke-width="1.67" stroke-linecap="round" stroke-linejoin="round"/>
<path d="M206.307 234.904L218.205 282.545" stroke="#163BF3" stroke-width="1.67" stroke-linecap="round" stroke-linejoin="round"/>
<path d="M218.205 234.904L206.307 282.545" stroke="#163BF3" stroke-width="1.67" stroke-linecap="round" stroke-linejoin="round"/>
<path d="M181.398 234.904H193.297" stroke="#163BF3" stroke-width="1.67" stroke-linecap="round" stroke-linejoin="round"/>
<path d="M253.812 234.904H265.711" stroke="#163BF3" stroke-width="1.67" stroke-linecap="round" stroke-linejoin="round"/>
<path d="M300.809 234.904H318.239" stroke="#163BF3" stroke-width="1.67" stroke-linecap="round" stroke-linejoin="round"/>
<path d="M181.398 258.719H188.817" stroke="#163BF3" stroke-width="1.67" stroke-linecap="round" stroke-linejoin="round"/>
<path d="M253.812 258.719H261.221" stroke="#163BF3" stroke-width="1.67" stroke-linecap="round" stroke-linejoin="round"/>
<path d="M181.398 282.545H193.297" stroke="#163BF3" stroke-width="1.67" stroke-linecap="round" stroke-linejoin="round"/>
<path d="M253.812 282.545H265.711" stroke="#163BF3" stroke-width="1.67" stroke-linecap="round" stroke-linejoin="round"/>
<path d="M231.293 258.72H234.899C237.098 258.72 239.208 257.845 240.763 256.288C242.318 254.731 243.192 252.619 243.192 250.417V243.206C243.192 241.004 242.318 238.892 240.763 237.335C239.208 235.778 237.098 234.904 234.899 234.904H231.293" stroke="#163BF3" stroke-width="1.67" stroke-linecap="round" stroke-linejoin="round"/>
<path d="M277.658 258.72H281.264C283.464 258.72 285.573 257.845 287.128 256.288C288.683 254.731 289.557 252.619 289.557 250.417V243.206C289.557 241.004 288.683 238.892 287.128 237.335C285.573 235.778 283.464 234.904 281.264 234.904H277.658" stroke="#163BF3" stroke-width="1.67" stroke-linecap="round" stroke-linejoin="round"/>
<path d="M277.658 258.719L289.557 282.545" stroke="#163BF3" stroke-width="1.67" stroke-linecap="round" stroke-linejoin="round"/>
</g>
<defs>
<clipPath id="clip0_447:19329">
<rect width="415" height="741" fill="white"/>
</clipPath>
</defs>
</svg>
