<svg width="221" height="747" viewBox="0 0 221 747" fill="none" xmlns="http://www.w3.org/2000/svg">
<g clip-path="url(#clip0_447:19604)">
<path fill-rule="evenodd" clip-rule="evenodd" d="M107.13 735.66C166.26 735.66 214.31 735.17 214.26 740.9C214.26 747.1 166.26 746.15 107.13 746.15C48 746.15 0 746.79 0 740.9C0 735.01 48 735.66 107.13 735.66Z" fill="black"/>
<path fill-rule="evenodd" clip-rule="evenodd" d="M178.59 356C192.59 363.16 206.71 388.66 210.96 407C215.21 425.34 220.81 447.71 220.81 468.51V579H204.93V688.84H43.86V504.52C43.86 492.44 42.97 434.05 45.43 426.22C47.89 418.39 51.54 391.42 51.54 391.42C51.54 391.42 51 282.16 53.48 245.25C55.96 208.34 60 153.09 60 153.09H111C111 153.09 112.34 220.27 115.14 240.19C117.94 260.11 164.55 348.82 178.59 356Z" fill="#163BF3"/>
<path fill-rule="evenodd" clip-rule="evenodd" d="M86.1795 276.66C82.3195 278.02 82.8895 284.5 90.6695 290.41C98.4495 296.32 105 280.13 105 280.13C105 280.13 96.9995 272.84 86.1795 276.66Z" fill="black"/>
<path fill-rule="evenodd" clip-rule="evenodd" d="M119.59 272.21C126.198 272.21 132.657 274.169 138.151 277.841C143.646 281.512 147.928 286.73 150.457 292.835C152.985 298.939 153.647 305.657 152.358 312.138C151.069 318.619 147.887 324.572 143.214 329.244C138.542 333.917 132.589 337.099 126.108 338.388C119.627 339.677 112.909 339.016 106.804 336.487C100.699 333.958 95.4814 329.676 91.8103 324.182C88.1391 318.687 86.1797 312.228 86.1797 305.62C86.185 296.761 89.7067 288.266 95.9711 282.001C102.236 275.737 110.73 272.215 119.59 272.21Z" fill="#FFC7BF"/>
<path fill-rule="evenodd" clip-rule="evenodd" d="M87.3991 314.56C85.3991 320 72.6791 331.51 68.3991 343.72C64.1191 355.93 64.6991 374 61.1791 381.3C57.6591 388.6 50.3691 388.11 44.7291 402.9C39.0891 417.69 46.6091 435.31 45.7291 448.22C44.8491 461.13 45.7291 475.7 61.2291 480.87C76.7291 486.04 95.2291 471 101.799 457.62C108.369 444.24 136.089 426.39 141.729 410.62C147.369 394.85 145.729 383.38 149.939 374.92C154.149 366.46 164.939 348.86 163.559 338.99C162.179 329.12 152.999 307.34 152.999 307.34C152.999 307.34 144.829 314.81 141.819 317.34C138.809 319.87 132.349 320.65 127.819 320.65H96.5291C94.5933 320.577 92.7157 319.969 91.1041 318.894C89.4926 317.819 88.2102 316.319 87.3991 314.56Z" fill="white"/>
<path fill-rule="evenodd" clip-rule="evenodd" d="M158.629 358H173.629C179.029 358 179.739 352.93 177.149 349.17C174.559 345.41 172.989 339.33 173.279 335.68C173.569 332.03 171.069 329.68 168.559 326.06C166.049 322.44 163.699 307.31 163.699 307.31L152.119 298C153.001 301.06 153.299 304.259 152.999 307.43C152.619 313.44 158.629 358 158.629 358Z" fill="white"/>
<path fill-rule="evenodd" clip-rule="evenodd" d="M84.8594 277C87.8717 275.993 91.0663 275.651 94.2235 275.996C97.3807 276.342 100.426 277.366 103.149 279C112.489 284.61 117.279 287.07 121.659 287.48C126.039 287.89 136.569 287.62 141.769 290.9C146.969 294.18 161.669 304.31 163.689 308.41C165.709 312.51 164.829 313.6 164.829 313.6C164.829 313.6 164.619 303.6 164.479 297.98C164.339 292.36 167.219 287.89 171.319 286.25C175.419 284.61 179.249 276.56 173.509 272.17C167.769 267.78 161.059 260.67 157.089 256.84C153.119 253.01 144.369 250.14 142.319 247.84C140.269 245.54 135.749 239.91 129.459 239.09C123.169 238.27 117.009 239.77 113.459 239.77C109.909 239.77 104.709 246.61 104.709 254.95C104.709 263.29 100.319 273.43 84.8594 277Z" fill="#FF341A"/>
<path d="M120.52 295.15H132.45" stroke="#FF341A" stroke-width="1.67" stroke-linecap="round" stroke-linejoin="round"/>
<path d="M92.9297 293.72C96.0712 293.597 99.2173 293.67 102.35 293.94C105.35 294.38 107.07 298.54 104.98 301.49C102.89 304.44 100.16 309.26 100.16 309.26H111" stroke="#FF341A" stroke-width="1.67" stroke-linecap="round" stroke-linejoin="round"/>
<path d="M99.9492 316.79H118.349" stroke="#FF341A" stroke-width="1.67" stroke-linecap="round" stroke-linejoin="round"/>
<path fill-rule="evenodd" clip-rule="evenodd" d="M167.84 579C166.172 583.917 164.787 588.925 163.69 594C162.26 601.07 163.93 603.68 168.21 605.91C168.77 612.06 168.4 621.91 176.4 624.72C184.4 627.53 199.4 627.32 204.93 622.85C210.46 618.38 215.68 608.33 213.45 596.98C212.241 590.342 209.302 584.14 204.93 579H167.84Z" fill="#FFC7BF"/>
<path fill-rule="evenodd" clip-rule="evenodd" d="M97.4306 298C97.7864 297.932 98.1544 297.976 98.4846 298.125C98.8147 298.274 99.0908 298.521 99.2753 298.832C99.4597 299.144 99.5435 299.505 99.5152 299.866C99.4869 300.227 99.3479 300.571 99.1172 300.85C98.8864 301.129 98.5751 301.33 98.2258 301.426C97.8765 301.522 97.5062 301.508 97.1653 301.385C96.8245 301.263 96.5297 301.038 96.3213 300.742C96.1128 300.445 96.0008 300.092 96.0006 299.73C95.9694 299.313 96.1009 298.9 96.3674 298.577C96.634 298.255 97.015 298.048 97.4306 298Z" fill="black"/>
<path fill-rule="evenodd" clip-rule="evenodd" d="M124.77 298C125.125 297.941 125.49 297.992 125.816 298.147C126.141 298.301 126.411 298.552 126.589 298.866C126.768 299.179 126.846 299.539 126.812 299.898C126.779 300.257 126.637 300.597 126.404 300.872C126.172 301.147 125.86 301.344 125.512 301.437C125.164 301.53 124.796 301.513 124.457 301.39C124.119 301.266 123.826 301.042 123.619 300.747C123.412 300.452 123.301 300.1 123.3 299.74C123.267 299.315 123.402 298.894 123.677 298.568C123.953 298.242 124.345 298.038 124.77 298Z" fill="black"/>
<path d="M115.061 239.7C113.132 240.05 111.324 240.886 109.807 242.128C108.29 243.37 107.115 244.978 106.391 246.8C103.661 253.22 104.821 263.59 101.231 266.85C97.6409 270.11 87.3809 276.32 87.3809 276.32" stroke="#FFC7BF" stroke-width="1.67" stroke-linecap="round" stroke-linejoin="round"/>
<path d="M204.929 579.01H160.119V422.69" stroke="black" stroke-width="1.67" stroke-linecap="round" stroke-linejoin="round"/>
<path d="M160.109 530.37H43.6992V546.79H160.109V530.37Z" fill="black"/>
<path d="M74.2109 481.04V688.84" stroke="black" stroke-width="1.67" stroke-linecap="round" stroke-linejoin="round"/>
<path fill-rule="evenodd" clip-rule="evenodd" d="M67.5893 153.09C65.6793 149 59.7993 138.3 74.8593 133.29C89.9193 128.28 138.779 110.85 149.509 107.29C160.239 103.73 156.559 113.13 151.799 116.46C147.039 119.79 119.999 138.52 114.529 141.61C109.059 144.7 102.259 149.32 103.149 153.09C92.8493 153.09 75.9293 153.61 67.5893 153.09Z" fill="#FFC7BF"/>
<path fill-rule="evenodd" clip-rule="evenodd" d="M61.3906 688.84V715.79C61.3906 719.84 64.2006 722.21 64.5406 724.02C64.8806 725.83 62.3706 729.46 62.3706 729.46L93.3206 733.46L102.001 688.84H61.3906Z" fill="#FF341A"/>
<path fill-rule="evenodd" clip-rule="evenodd" d="M139.199 688.84L147.419 726.39L172.799 731.97L177.949 688.84H139.199Z" fill="#FF341A"/>
<path fill-rule="evenodd" clip-rule="evenodd" d="M62.3701 729.46C59.7501 730.66 41.1201 738.02 41.6701 740.92H92.0001L93.3401 733.5C93.3401 733.5 66.5501 729.71 62.3701 729.46Z" fill="#163BF3"/>
<path fill-rule="evenodd" clip-rule="evenodd" d="M147.421 726.39C145.131 732.5 131.701 738.02 132.251 740.92H172.071L172.801 731.97C172.801 731.97 151.601 726.64 147.421 726.39Z" fill="#163BF3"/>
<path fill-rule="evenodd" clip-rule="evenodd" d="M61.3908 127.29C61.3908 127.29 40.2108 35.17 123.931 0C118.931 7.78 115.531 14 115.531 14L132.241 17.74L122.691 31.74L139.201 38.9L129.231 52L139.231 56.36C139.231 56.36 123.961 72.23 120.851 104.29C112.421 107.38 61.3908 127.29 61.3908 127.29Z" fill="#FF341A"/>
<path fill-rule="evenodd" clip-rule="evenodd" d="M59.6095 115C59.6095 115 39.4795 129.19 36.7695 133.65C42.8295 133.01 47.4495 132.49 61.3895 127.33C64.9995 117.2 59.6095 115 59.6095 115Z" fill="#FF341A"/>
<path d="M186.47 79.1201L120.82 104.26" stroke="#FF341A" stroke-width="1.67" stroke-linecap="round" stroke-linejoin="round"/>
<path fill-rule="evenodd" clip-rule="evenodd" d="M186.47 79.12L191.18 49.95L165.93 86.98L186.47 79.12Z" fill="#FF341A"/>
<path fill-rule="evenodd" clip-rule="evenodd" d="M86.5603 117.62C87.6956 117.62 88.8053 117.957 89.7493 118.587C90.6932 119.218 91.4289 120.115 91.8634 121.164C92.2978 122.212 92.4115 123.366 92.19 124.48C91.9685 125.593 91.4219 126.616 90.6191 127.419C89.8163 128.222 88.7936 128.768 87.6801 128.99C86.5667 129.211 85.4126 129.098 84.3637 128.663C83.3149 128.229 82.4184 127.493 81.7877 126.549C81.157 125.605 80.8203 124.495 80.8203 123.36C80.8203 121.838 81.4251 120.378 82.5015 119.301C83.578 118.225 85.038 117.62 86.5603 117.62Z" fill="#163BF3"/>
<path fill-rule="evenodd" clip-rule="evenodd" d="M126.871 103.12C128.006 103.12 129.116 103.457 130.06 104.087C131.004 104.718 131.739 105.615 132.174 106.664C132.608 107.712 132.722 108.866 132.501 109.98C132.279 111.093 131.732 112.116 130.93 112.919C130.127 113.722 129.104 114.268 127.991 114.49C126.877 114.711 125.723 114.598 124.674 114.163C123.625 113.729 122.729 112.993 122.098 112.049C121.468 111.105 121.131 109.995 121.131 108.86C121.131 107.338 121.736 105.878 122.812 104.801C123.889 103.725 125.349 103.12 126.871 103.12Z" fill="#163BF3"/>
</g>
<defs>
<clipPath id="clip0_447:19604">
<rect width="220.81" height="746.2" fill="white"/>
</clipPath>
</defs>
</svg>
