<svg width="312" height="683" viewBox="0 0 312 683" fill="none" xmlns="http://www.w3.org/2000/svg">
<path fill-rule="evenodd" clip-rule="evenodd" d="M176.402 0C161.453 0 132.384 11.6674 129.309 51.0967C126.234 90.5261 117.629 107.407 96.847 125.708C80.1748 140.382 176.402 153.814 176.402 153.814C176.402 153.814 191.35 0 176.402 0Z" fill="#CF1D00"/>
<path fill-rule="evenodd" clip-rule="evenodd" d="M154.09 668.147C239.133 668.147 308.249 667.457 308.18 675.539C308.097 684.269 239.133 682.917 154.09 682.917C69.0468 682.917 0 683.827 0 675.539C0 667.25 69.0468 668.147 154.09 668.147Z" fill="black"/>
<path fill-rule="evenodd" clip-rule="evenodd" d="M175.575 0C190.524 0 219.566 11.6674 222.668 51.0967C225.771 90.5261 238.389 112.123 256.22 125.363C276.615 140.533 175.575 153.814 175.575 153.814C175.575 153.814 160.627 0 175.575 0Z" fill="#CF1D00"/>
<path fill-rule="evenodd" clip-rule="evenodd" d="M92.4903 417.504C89.9253 425.654 87.2914 436.687 86.0089 441.349C84.7265 446.01 80.4929 445.597 80.6722 440.466C80.7749 436.968 80.5068 433.468 79.8724 430.026L61.311 455.568C56.6637 461.994 52.4439 458.326 55.6432 452.079C59.1321 445.307 67.0062 430.371 67.0062 430.371C67.0062 430.371 51.9475 447.596 49.2447 451.058C46.5418 454.52 41.1085 452.672 44.8732 447.348C48.6379 442.025 59.6975 425.613 59.6975 425.613C59.6975 425.613 44.9008 438.122 40.6259 441.763C36.351 445.404 31.552 442.549 36.6819 437.211C41.8118 431.874 54.347 419.131 54.347 419.131C54.347 419.131 40.9017 426.027 37.2473 428.123C33.5929 430.219 30.6695 426.123 36.3372 422.289C42.0049 418.455 63.6001 401.768 69.1161 398.265C79.8448 391.507 96.5308 404.554 92.4903 417.504Z" fill="#DFA98B"/>
<path fill-rule="evenodd" clip-rule="evenodd" d="M176.003 8.34375C200.108 8.34375 219.662 31.2097 219.662 59.3715C219.662 87.5334 200.108 110.399 176.003 110.399C151.898 110.399 132.385 87.5609 132.385 59.3853C132.385 31.2097 151.911 8.34375 176.003 8.34375Z" fill="#DFA98B"/>
<path d="M176.14 53.7446L181.946 67.6049H170.045" stroke="black" stroke-width="1.7" stroke-linecap="round" stroke-linejoin="round"/>
<path d="M165.66 85.5061C172.652 89.4642 179.643 89.2574 186.635 85.5061" stroke="black" stroke-width="1.7" stroke-linecap="round" stroke-linejoin="round"/>
<path d="M154.684 48.4351C159.662 45.5803 164.24 45.3321 168.322 48.4351" stroke="black" stroke-width="1.7" stroke-linecap="round" stroke-linejoin="round"/>
<path d="M181.945 48.4351C186.91 45.5803 191.488 45.3321 195.584 48.4351" stroke="black" stroke-width="1.7" stroke-linecap="round" stroke-linejoin="round"/>
<path fill-rule="evenodd" clip-rule="evenodd" d="M162.556 53.7861C163.549 53.7861 164.349 54.9308 164.349 56.3513C164.349 57.7718 163.549 58.9165 162.556 58.9165C161.563 58.9165 160.764 57.758 160.764 56.3513C160.764 54.9446 161.563 53.7861 162.556 53.7861Z" fill="black"/>
<path fill-rule="evenodd" clip-rule="evenodd" d="M189.047 53.7861C190.04 53.7861 190.839 54.9308 190.839 56.3513C190.839 57.7718 190.04 58.9165 189.047 58.9165C188.054 58.9165 187.254 57.758 187.254 56.3513C187.254 54.9446 188.054 53.7861 189.047 53.7861Z" fill="black"/>
<path fill-rule="evenodd" clip-rule="evenodd" d="M197.984 74.3901C198.188 74.3929 198.386 74.4558 198.554 74.5711C198.723 74.6864 198.853 74.8489 198.929 75.0381C199.005 75.2273 199.024 75.4349 198.982 75.6346C198.941 75.8343 198.841 76.0173 198.696 76.1606C198.551 76.3039 198.367 76.401 198.167 76.4399C197.966 76.4787 197.759 76.4574 197.571 76.3787C197.383 76.3 197.222 76.1675 197.109 75.9977C196.996 75.8279 196.936 75.6285 196.936 75.4245C196.939 75.1489 197.051 74.8858 197.247 74.6922C197.444 74.4986 197.708 74.3901 197.984 74.3901Z" fill="black"/>
<path fill-rule="evenodd" clip-rule="evenodd" d="M107.41 644.302C100.515 649.046 72.2321 662.299 63.8201 663.375C55.4082 664.451 41.2458 668.574 44.2934 675.553H136.521L136.246 644.302H107.41Z" fill="#CF1D00"/>
<path fill-rule="evenodd" clip-rule="evenodd" d="M208.726 644.302C206.934 648.149 189.048 664.809 189.572 675.553H248.786C248.786 667.278 242.581 660.686 241.684 657.624L237.74 644.288C237.74 644.288 214.808 644.205 208.726 644.302Z" fill="#CF1D00"/>
<path fill-rule="evenodd" clip-rule="evenodd" d="M87.3457 327.626V614.885C87.3457 640.799 106.514 649.363 166.763 649.363C227.011 649.363 258.935 654.107 258.935 616.14V228.232L87.3457 327.626Z" fill="#B9E2FE"/>
<path fill-rule="evenodd" clip-rule="evenodd" d="M57.918 348.354V402.706C57.918 414.746 83.3744 422.8 87.4149 402.099C90.89 384.322 98.4469 341.238 98.4469 341.238L57.918 348.354Z" fill="#B9E2FE"/>
<path fill-rule="evenodd" clip-rule="evenodd" d="M299.947 205.339C299.947 205.339 306.953 250.85 310.717 271.882C314.482 292.913 310.028 307.587 296.045 310.497C282.062 313.407 270.988 299.464 265.707 285.425C260.425 271.385 245.021 221.805 245.021 221.805L299.947 205.339Z" fill="#B9E2FE"/>
<path fill-rule="evenodd" clip-rule="evenodd" d="M134.328 46.201C134.328 46.201 164.928 48.9592 189.047 16.4531C197.749 38.1606 202.561 41.5257 218.475 48.2834C218.475 26.8242 195.032 4.41333 176.002 4.41333C138.934 4.41333 134.328 46.201 134.328 46.201Z" fill="black"/>
<path fill-rule="evenodd" clip-rule="evenodd" d="M94.8618 127.114C77.4864 142.492 53.7812 164.792 53.7812 190.734V338.3C54.2915 394.969 251.944 240.63 299.892 205.338C305.546 201.201 299.892 194.54 299.892 190.678C299.892 164.737 276.173 142.409 258.812 127.059C241.45 111.709 112.224 111.709 94.8618 127.114Z" fill="#CF1D00"/>
<path fill-rule="evenodd" clip-rule="evenodd" d="M203.21 231.597C198.756 224.301 193.557 214.234 191.158 210.027C188.758 205.821 184.704 207.269 186.194 212.179C187.142 215.546 187.729 219.004 187.945 222.495C187.945 222.495 169.825 207.324 163.757 202.208C157.689 197.091 154.49 201.711 159.11 206.966C164.129 212.689 175.368 225.281 175.368 225.281C175.368 225.281 156.586 212.207 153.139 209.462C149.691 206.718 144.865 209.862 149.788 214.11C154.711 218.357 169.425 231.694 169.425 231.694C169.425 231.694 152.049 223.143 147.016 220.661C141.983 218.178 138.025 222.04 144.258 226.025C150.491 230.011 165.77 239.279 165.77 239.279C165.77 239.279 151.056 235.845 147.016 234.714C142.976 233.583 141.114 238.244 147.54 240.589C153.966 242.934 178.968 253.898 185.159 255.953C197.198 259.883 210.285 243.168 203.21 231.597Z" fill="#DFA98B"/>
<path d="M162.533 110.33C162.533 110.33 183.522 129.004 203.531 181.342" stroke="#8D1A00" stroke-width="2.65" stroke-linecap="round" stroke-linejoin="round"/>
<path fill-rule="evenodd" clip-rule="evenodd" d="M284.626 309.132C284.626 309.132 209.98 266.696 194.066 258.104C178.153 249.512 190.288 227.984 207.36 233.156C224.432 238.327 310.179 268.848 310.179 268.848L284.626 309.132Z" fill="#B9E2FE"/>
<path d="M96.2419 244.162C99.4849 244.067 102.037 241.361 101.942 238.118C101.847 234.874 99.1405 232.322 95.8974 232.417C92.6544 232.512 90.1025 235.219 90.1976 238.462C90.2927 241.705 92.9988 244.258 96.2419 244.162Z" fill="#FEDD8E"/>
<path fill-rule="evenodd" clip-rule="evenodd" d="M86.0777 232.411C87.2396 232.411 88.3754 232.755 89.3414 233.401C90.3075 234.047 91.0604 234.964 91.5051 236.038C91.9497 237.111 92.066 238.292 91.8394 239.432C91.6127 240.572 91.0532 241.619 90.2316 242.44C89.4101 243.262 88.3633 243.821 87.2238 244.048C86.0842 244.275 84.903 244.159 83.8296 243.714C82.7562 243.269 81.8387 242.516 81.1932 241.55C80.5477 240.584 80.2031 239.448 80.2031 238.286C80.2031 236.728 80.8221 235.233 81.9237 234.132C83.0254 233.03 84.5197 232.411 86.0777 232.411Z" fill="#8D1A00"/>
<path d="M107.082 244.158C110.321 243.979 112.802 241.207 112.622 237.967C112.443 234.727 109.671 232.246 106.432 232.426C103.193 232.605 100.712 235.377 100.891 238.617C101.071 241.857 103.842 244.337 107.082 244.158Z" fill="#8D1A00"/>
<path d="M99.0719 253.877C101.974 252.425 103.15 248.896 101.698 245.994C100.247 243.092 96.7184 241.916 93.8166 243.367C90.9149 244.819 89.7389 248.348 91.1901 251.25C92.6413 254.152 96.1701 255.328 99.0719 253.877Z" fill="#8D1A00"/>
<path d="M96.4195 233.818C99.6639 233.818 102.294 231.187 102.294 227.942C102.294 224.698 99.6639 222.067 96.4195 222.067C93.175 222.067 90.5449 224.698 90.5449 227.942C90.5449 231.187 93.175 233.818 96.4195 233.818Z" fill="#8D1A00"/>
<path fill-rule="evenodd" clip-rule="evenodd" d="M144.699 267.827C145.525 268.647 146.09 269.693 146.32 270.834C146.551 271.975 146.437 273.159 145.994 274.235C145.551 275.312 144.798 276.232 143.831 276.88C142.864 277.527 141.726 277.873 140.562 277.873C139.398 277.873 138.26 277.527 137.293 276.88C136.326 276.232 135.573 275.312 135.13 274.235C134.687 273.159 134.573 271.975 134.804 270.834C135.034 269.693 135.599 268.647 136.425 267.827C137.527 266.739 139.013 266.129 140.562 266.129C142.111 266.129 143.597 266.739 144.699 267.827Z" fill="#FEDD8E"/>
<path fill-rule="evenodd" clip-rule="evenodd" d="M137.625 260.752C138.451 261.572 139.015 262.618 139.246 263.759C139.477 264.9 139.363 266.084 138.92 267.16C138.477 268.237 137.724 269.157 136.757 269.805C135.789 270.452 134.652 270.798 133.488 270.798C132.324 270.798 131.186 270.452 130.219 269.805C129.252 269.157 128.499 268.237 128.056 267.16C127.613 266.084 127.499 264.9 127.73 263.759C127.96 262.618 128.524 261.572 129.351 260.752C130.453 259.664 131.939 259.054 133.488 259.054C135.037 259.054 136.523 259.664 137.625 260.752Z" fill="#8D1A00"/>
<path fill-rule="evenodd" clip-rule="evenodd" d="M152.256 275.385C153.082 276.204 153.646 277.251 153.877 278.392C154.107 279.533 153.994 280.717 153.551 281.793C153.107 282.869 152.354 283.79 151.387 284.437C150.42 285.085 149.283 285.431 148.119 285.431C146.955 285.431 145.817 285.085 144.85 284.437C143.883 283.79 143.13 282.869 142.687 281.793C142.244 280.717 142.13 279.533 142.361 278.392C142.591 277.251 143.155 276.204 143.982 275.385C145.084 274.296 146.57 273.686 148.119 273.686C149.667 273.686 151.154 274.296 152.256 275.385Z" fill="#8D1A00"/>
<path fill-rule="evenodd" clip-rule="evenodd" d="M129.309 275.385C130.129 274.558 131.176 273.994 132.317 273.763C133.457 273.533 134.641 273.646 135.717 274.09C136.794 274.533 137.714 275.286 138.361 276.253C139.009 277.22 139.355 278.358 139.355 279.522C139.355 280.686 139.009 281.824 138.361 282.791C137.714 283.758 136.794 284.511 135.717 284.954C134.641 285.398 133.457 285.511 132.317 285.281C131.176 285.05 130.129 284.486 129.309 283.659C128.221 282.557 127.611 281.071 127.611 279.522C127.611 277.973 128.221 276.487 129.309 275.385Z" fill="#8D1A00"/>
<path fill-rule="evenodd" clip-rule="evenodd" d="M143.94 260.752C144.76 259.925 145.807 259.361 146.947 259.131C148.088 258.9 149.272 259.014 150.348 259.457C151.424 259.9 152.345 260.653 152.992 261.62C153.64 262.587 153.986 263.725 153.986 264.889C153.986 266.053 153.64 267.191 152.992 268.158C152.345 269.125 151.424 269.878 150.348 270.322C149.272 270.765 148.088 270.878 146.947 270.648C145.807 270.417 144.76 269.853 143.94 269.027C142.852 267.925 142.242 266.438 142.242 264.889C142.242 263.34 142.852 261.854 143.94 260.752Z" fill="#8D1A00"/>
<path fill-rule="evenodd" clip-rule="evenodd" d="M89.2499 304.181C90.0762 305 90.6405 306.047 90.871 307.188C91.1016 308.329 90.988 309.513 90.5448 310.589C90.1016 311.665 89.3487 312.586 88.3816 313.234C87.4144 313.881 86.2768 314.227 85.1129 314.227C83.9489 314.227 82.8113 313.881 81.8441 313.234C80.877 312.586 80.1241 311.665 79.6809 310.589C79.2377 309.513 79.1241 308.329 79.3547 307.188C79.5852 306.047 80.1495 305 80.9758 304.181C82.0779 303.093 83.5642 302.482 85.1129 302.482C86.6615 302.482 88.1478 303.093 89.2499 304.181Z" fill="#FEDD8E"/>
<path fill-rule="evenodd" clip-rule="evenodd" d="M82.1756 297.106C83.002 297.926 83.5662 298.972 83.7968 300.113C84.0273 301.254 83.9138 302.438 83.4706 303.514C83.0273 304.591 82.2744 305.511 81.3073 306.159C80.3402 306.806 79.2025 307.152 78.0386 307.152C76.8747 307.152 75.737 306.806 74.7699 306.159C73.8028 305.511 73.0499 304.591 72.6067 303.514C72.1635 302.438 72.0499 301.254 72.2805 300.113C72.511 298.972 73.0753 297.926 73.9016 297.106C75.0036 296.018 76.49 295.407 78.0386 295.407C79.5873 295.407 81.0736 296.018 82.1756 297.106Z" fill="#8D1A00"/>
<path fill-rule="evenodd" clip-rule="evenodd" d="M96.8065 311.683C97.6328 312.503 98.1971 313.55 98.4276 314.691C98.6582 315.832 98.5447 317.015 98.1014 318.092C97.6582 319.168 96.9053 320.088 95.9382 320.736C94.9711 321.384 93.8334 321.729 92.6695 321.729C91.5056 321.729 90.3679 321.384 89.4008 320.736C88.4337 320.088 87.6808 319.168 87.2375 318.092C86.7943 317.015 86.6808 315.832 86.9113 314.691C87.1419 313.55 87.7061 312.503 88.5325 311.683C89.6345 310.595 91.1208 309.985 92.6695 309.985C94.2181 309.985 95.7045 310.595 96.8065 311.683Z" fill="#8D1A00"/>
<path fill-rule="evenodd" clip-rule="evenodd" d="M73.8603 311.683C74.6799 310.857 75.7266 310.293 76.8674 310.062C78.0083 309.831 79.1919 309.945 80.2681 310.388C81.3443 310.831 82.2646 311.584 82.9123 312.552C83.5599 313.519 83.9056 314.657 83.9056 315.821C83.9056 316.985 83.5599 318.122 82.9123 319.09C82.2646 320.057 81.3443 320.81 80.2681 321.253C79.1919 321.696 78.0083 321.81 76.8674 321.579C75.7266 321.349 74.6799 320.784 73.8603 319.958C72.7722 318.856 72.1621 317.369 72.1621 315.821C72.1621 314.272 72.7722 312.785 73.8603 311.683Z" fill="#8D1A00"/>
<path fill-rule="evenodd" clip-rule="evenodd" d="M88.4911 297.106C89.3108 296.279 90.3574 295.715 91.4983 295.485C92.6391 295.254 93.8228 295.368 94.899 295.811C95.9752 296.254 96.8955 297.007 97.5431 297.974C98.1907 298.941 98.5365 300.079 98.5365 301.243C98.5365 302.407 98.1907 303.545 97.5431 304.512C96.8955 305.479 95.9752 306.232 94.899 306.676C93.8228 307.119 92.6391 307.233 91.4983 307.002C90.3574 306.771 89.3108 306.207 88.4911 305.381C87.4031 304.278 86.793 302.792 86.793 301.243C86.793 299.694 87.4031 298.208 88.4911 297.106Z" fill="#8D1A00"/>
<path d="M104.983 276.998C106.278 276.998 107.327 275.948 107.327 274.654C107.327 273.359 106.278 272.309 104.983 272.309C103.688 272.309 102.639 273.359 102.639 274.654C102.639 275.948 103.688 276.998 104.983 276.998Z" fill="#FEDD8E"/>
<path fill-rule="evenodd" clip-rule="evenodd" d="M107.327 270.668C107.327 271.132 107.19 271.585 106.932 271.971C106.675 272.356 106.308 272.657 105.88 272.834C105.452 273.012 104.98 273.058 104.526 272.967C104.071 272.877 103.653 272.654 103.325 272.326C102.997 271.998 102.774 271.58 102.684 271.125C102.593 270.671 102.64 270.199 102.817 269.771C102.995 269.342 103.295 268.976 103.681 268.719C104.066 268.461 104.519 268.323 104.983 268.323C105.605 268.323 106.201 268.571 106.641 269.01C107.08 269.45 107.327 270.046 107.327 270.668Z" fill="#8D1A00"/>
<path fill-rule="evenodd" clip-rule="evenodd" d="M107.327 278.915C107.327 279.379 107.19 279.832 106.932 280.218C106.675 280.603 106.308 280.904 105.88 281.081C105.452 281.259 104.98 281.305 104.526 281.215C104.071 281.124 103.653 280.901 103.325 280.573C102.997 280.245 102.774 279.827 102.684 279.372C102.593 278.918 102.64 278.446 102.817 278.018C102.995 277.589 103.295 277.223 103.681 276.966C104.066 276.708 104.519 276.571 104.983 276.571C105.605 276.571 106.201 276.818 106.641 277.257C107.08 277.697 107.327 278.293 107.327 278.915Z" fill="#8D1A00"/>
<path fill-rule="evenodd" clip-rule="evenodd" d="M100.86 272.447C101.324 272.447 101.777 272.585 102.162 272.842C102.548 273.1 102.848 273.466 103.026 273.894C103.203 274.323 103.25 274.794 103.159 275.249C103.069 275.704 102.845 276.121 102.518 276.449C102.19 276.777 101.772 277 101.317 277.091C100.863 277.181 100.391 277.135 99.9628 276.958C99.5344 276.78 99.1683 276.48 98.9107 276.094C98.6531 275.709 98.5156 275.255 98.5156 274.792C98.5156 274.17 98.7626 273.573 99.2023 273.134C99.6419 272.694 100.238 272.447 100.86 272.447Z" fill="#8D1A00"/>
<path fill-rule="evenodd" clip-rule="evenodd" d="M109.12 272.447C109.583 272.447 110.037 272.585 110.422 272.842C110.808 273.1 111.108 273.466 111.286 273.894C111.463 274.323 111.509 274.794 111.419 275.249C111.329 275.704 111.105 276.121 110.777 276.449C110.45 276.777 110.032 277 109.577 277.091C109.122 277.181 108.651 277.135 108.223 276.958C107.794 276.78 107.428 276.48 107.17 276.094C106.913 275.709 106.775 275.255 106.775 274.792C106.775 274.17 107.022 273.573 107.462 273.134C107.902 272.694 108.498 272.447 109.12 272.447Z" fill="#8D1A00"/>
<path fill-rule="evenodd" clip-rule="evenodd" d="M72.425 264.6C72.425 265.064 72.2875 265.517 72.0299 265.902C71.7723 266.288 71.4061 266.588 70.9778 266.766C70.5494 266.943 70.078 266.99 69.6233 266.899C69.1685 266.809 68.7508 266.586 68.423 266.258C68.0951 265.93 67.8718 265.512 67.7814 265.057C67.6909 264.602 67.7373 264.131 67.9148 263.703C68.0922 263.274 68.3927 262.908 68.7782 262.65C69.1637 262.393 69.617 262.255 70.0806 262.255C70.3885 262.255 70.6933 262.316 70.9778 262.434C71.2622 262.552 71.5206 262.724 71.7383 262.942C71.956 263.16 72.1287 263.418 72.2465 263.703C72.3643 263.987 72.425 264.292 72.425 264.6Z" fill="#FEDD8E"/>
<path d="M70.0806 262.945C71.3754 262.945 72.425 261.895 72.425 260.6C72.425 259.306 71.3754 258.256 70.0806 258.256C68.7859 258.256 67.7363 259.306 67.7363 260.6C67.7363 261.895 68.7859 262.945 70.0806 262.945Z" fill="#8D1A00"/>
<path fill-rule="evenodd" clip-rule="evenodd" d="M72.4249 268.848C72.4276 269.312 72.2925 269.766 72.0365 270.154C71.7806 270.541 71.4154 270.844 70.9873 271.023C70.5592 271.203 70.0874 271.251 69.6318 271.162C69.1761 271.074 68.7571 270.851 68.4279 270.524C68.0986 270.197 67.874 269.779 67.7824 269.324C67.6908 268.869 67.7364 268.397 67.9134 267.967C68.0905 267.538 68.3909 267.171 68.7767 266.913C69.1626 266.655 69.6164 266.517 70.0806 266.517C70.7 266.517 71.2942 266.762 71.7334 267.199C72.1727 267.635 72.4213 268.228 72.4249 268.848Z" fill="#8D1A00"/>
<path d="M68.2882 264.839C68.3469 263.546 67.346 262.45 66.0526 262.391C64.7592 262.332 63.6631 263.333 63.6044 264.627C63.5457 265.92 64.5465 267.016 65.8399 267.075C67.1333 267.134 68.2294 266.133 68.2882 264.839Z" fill="#8D1A00"/>
<path d="M76.5362 264.848C76.595 263.554 75.5941 262.458 74.3007 262.399C73.0073 262.341 71.9112 263.342 71.8524 264.635C71.7937 265.929 72.7946 267.025 74.088 267.084C75.3814 267.142 76.4775 266.141 76.5362 264.848Z" fill="#8D1A00"/>
<path fill-rule="evenodd" clip-rule="evenodd" d="M80.216 204.621C80.2159 205.086 80.0781 205.54 79.8199 205.925C79.5617 206.311 79.1947 206.612 78.7656 206.789C78.3364 206.966 77.8643 207.011 77.4092 206.92C76.9541 206.828 76.5364 206.604 76.2091 206.274C75.8818 205.945 75.6596 205.526 75.5707 205.07C75.4818 204.615 75.5302 204.143 75.7098 203.715C75.8893 203.286 76.1919 202.921 76.5793 202.665C76.9666 202.409 77.4212 202.274 77.8854 202.277C78.5048 202.281 79.0975 202.529 79.5342 202.968C79.9709 203.408 80.216 204.002 80.216 204.621Z" fill="#FEDD8E"/>
<path d="M77.8853 202.98C79.18 202.98 80.2296 201.931 80.2296 200.636C80.2296 199.341 79.18 198.291 77.8853 198.291C76.5906 198.291 75.541 199.341 75.541 200.636C75.541 201.931 76.5906 202.98 77.8853 202.98Z" fill="#8D1A00"/>
<path fill-rule="evenodd" clip-rule="evenodd" d="M80.216 208.883C80.2159 209.347 80.0781 209.801 79.8199 210.187C79.5617 210.573 79.1947 210.873 78.7656 211.05C78.3364 211.227 77.8643 211.273 77.4092 211.181C76.9541 211.09 76.5364 210.865 76.2091 210.536C75.8818 210.207 75.6596 209.787 75.5707 209.332C75.4818 208.876 75.5302 208.404 75.7098 207.976C75.8893 207.548 76.1919 207.183 76.5793 206.927C76.9666 206.671 77.4212 206.536 77.8854 206.538C78.5048 206.542 79.0975 206.791 79.5342 207.23C79.9709 207.669 80.216 208.263 80.216 208.883Z" fill="#8D1A00"/>
<path fill-rule="evenodd" clip-rule="evenodd" d="M73.7485 202.415C74.2127 202.412 74.6673 202.547 75.0547 202.803C75.442 203.059 75.7446 203.424 75.9242 203.853C76.1037 204.281 76.1521 204.753 76.0632 205.208C75.9743 205.664 75.7521 206.083 75.4248 206.412C75.0975 206.741 74.6798 206.966 74.2247 207.058C73.7696 207.149 73.2975 207.104 72.8684 206.927C72.4392 206.75 72.0722 206.449 71.814 206.063C71.5558 205.677 71.418 205.224 71.418 204.759C71.418 204.14 71.6631 203.546 72.0997 203.106C72.5364 202.667 73.1291 202.418 73.7485 202.415Z" fill="#8D1A00"/>
<path fill-rule="evenodd" clip-rule="evenodd" d="M82.0084 202.415C82.472 202.415 82.9253 202.552 83.3108 202.81C83.6963 203.068 83.9968 203.434 84.1742 203.862C84.3517 204.291 84.3981 204.762 84.3076 205.217C84.2172 205.671 83.9939 206.089 83.666 206.417C83.3382 206.745 82.9205 206.968 82.4657 207.059C82.011 207.149 81.5396 207.103 81.1112 206.925C80.6829 206.748 80.3167 206.447 80.0592 206.062C79.8016 205.676 79.6641 205.223 79.6641 204.759C79.6641 204.137 79.911 203.541 80.3507 203.101C80.7903 202.662 81.3866 202.415 82.0084 202.415Z" fill="#8D1A00"/>
<path d="M245.367 246.023L297.273 264.269" stroke="#0089E3" stroke-width="1.67" stroke-linecap="round" stroke-linejoin="round"/>
<path d="M87.3457 402.044V350.726" stroke="#0089E3" stroke-width="1.67" stroke-linecap="round" stroke-linejoin="round"/>
<path d="M133.459 377.978C133.459 377.978 150.393 505.272 213.938 570.091" stroke="#0089E3" stroke-width="1.67" stroke-linecap="round" stroke-linejoin="round"/>
</svg>
