<svg width="387" height="683" viewBox="0 0 387 683" fill="none" xmlns="http://www.w3.org/2000/svg">
<g clip-path="url(#clip0_447:19528)">
<path fill-rule="evenodd" clip-rule="evenodd" d="M159.453 667.315C247.462 667.315 318.98 666.586 318.905 675.128C318.905 684.339 247.462 682.926 159.453 682.926C71.4434 682.926 0 683.878 0 675.128C0 666.378 71.4434 667.315 159.453 667.315Z" fill="black"/>
<path fill-rule="evenodd" clip-rule="evenodd" d="M76.9054 430.363C81.7874 439.604 89.1252 451.375 92.0723 456.494C95.0193 461.613 90.9559 465.006 86.714 460.378C83.759 457.285 80.4863 454.512 76.9501 452.104C76.9501 452.104 81.6088 480.661 83.2014 490.185C84.794 499.709 77.9622 500.245 75.3128 492.119C72.336 483.265 66.1889 463.592 66.1889 463.592C66.1889 463.592 68.228 491.494 68.9573 496.852C69.6867 502.209 63.3609 505.319 61.9618 497.477C60.5627 489.634 55.7998 465.884 55.7998 465.884C55.7998 465.884 53.9542 489.5 53.4482 496.346C52.9421 503.191 46.3336 504.917 46.0954 495.884C45.8573 486.852 45.5596 464.976 45.5596 464.976C45.5596 464.976 40.0079 482.61 38.6981 487.566C37.3883 492.521 31.256 491.584 32.8338 483.34C34.4115 475.095 38.4302 442 40.1269 434.232C43.4163 419.008 69.1359 415.705 76.9054 430.363Z" fill="#FFC7BF"/>
<path fill-rule="evenodd" clip-rule="evenodd" d="M129.805 128.469C129.805 128.469 88.1296 148.901 73.0967 153.469C58.0638 158.038 52.0953 194.943 85.4207 210.97V355.659H243.087V211.417C243.087 211.417 281.89 168.261 245.365 150.88C227.245 142.197 208.575 134.71 189.475 128.469H129.805Z" fill="#00672E"/>
<path fill-rule="evenodd" clip-rule="evenodd" d="M134.016 132.532L163.962 214.601L187.211 130.791L134.016 132.532Z" fill="white"/>
<path fill-rule="evenodd" clip-rule="evenodd" d="M74.6284 152.978C63.257 157.562 40.1868 168.827 40.1868 199.407C40.1868 229.988 32.5215 433.637 32.5215 433.637L85.3598 433.473V182.74C85.4194 169.972 85.9998 148.41 74.6284 152.978Z" fill="#00672E"/>
<path fill-rule="evenodd" clip-rule="evenodd" d="M248.177 152.353C261.23 158.886 279.433 176.252 280.534 194.943C281.636 213.634 283.511 266.209 284.032 278.59C284.553 290.971 285.015 328.129 259.399 328.129C233.784 328.129 235.585 312.221 235.585 292.95V172.696C235.585 172.696 232.191 144.347 248.177 152.353Z" fill="#00672E"/>
<path fill-rule="evenodd" clip-rule="evenodd" d="M317.225 224.155C317.225 224.155 244.099 286.06 239.634 292.95C235.169 299.84 233.159 335.034 262.332 327.951C291.505 320.867 343.644 252.429 343.644 252.429L317.225 224.155Z" fill="#00672E"/>
<path fill-rule="evenodd" clip-rule="evenodd" d="M314.499 229.333C317.565 219.348 320.721 205.851 322.239 200.136C323.757 194.422 329.041 194.913 328.788 201.193C328.679 205.464 329.028 209.735 329.83 213.931C329.83 213.931 346.708 190.464 352.349 182.577C357.99 174.69 363.17 179.169 359.3 186.803C355.088 195.092 345.562 213.425 345.562 213.425C345.562 213.425 363.869 192.249 367.129 187.949C370.389 183.648 377.086 185.91 372.517 192.413C367.948 198.916 354.537 219.11 354.537 219.11C354.537 219.11 372.547 203.708 377.741 199.229C382.936 194.749 388.83 198.202 382.608 204.764C376.387 211.327 361.131 226.982 361.131 226.982C361.131 226.982 377.503 218.44 381.968 215.881C386.434 213.321 390.021 218.277 383.115 222.994C376.208 227.711 349.923 248.292 343.21 252.607C330.142 261.03 309.587 245.197 314.499 229.333Z" fill="#FFC7BF"/>
<path fill-rule="evenodd" clip-rule="evenodd" d="M77.3963 355.659C77.3963 355.659 76.5777 596.451 110.409 642.717C126.636 650.018 143.269 656.383 160.226 661.779V445.065C174.485 414.604 170.422 384.975 160.226 355.63L77.3963 355.659Z" fill="#00672E"/>
<path fill-rule="evenodd" clip-rule="evenodd" d="M243.086 355.659C243.086 355.659 243.86 596.481 210.014 642.747C193.796 650.048 177.173 656.413 160.227 661.809V355.659H243.086Z" fill="#00672E"/>
<path d="M118.789 419.009L160.226 445.051L201.649 421.181" stroke="black" stroke-width="1.67" stroke-linecap="round" stroke-linejoin="round"/>
<path d="M160.227 445.065V661.78" stroke="black" stroke-width="1.67" stroke-linecap="round" stroke-linejoin="round"/>
<path d="M77.3535 356.999H243.087" stroke="black" stroke-width="1.67" stroke-linecap="round" stroke-linejoin="round"/>
<path d="M282.32 254.036L251.822 285.629" stroke="black" stroke-width="1.67" stroke-linecap="round" stroke-linejoin="round"/>
<path d="M77.3535 433.265V182.056" stroke="black" stroke-width="1.67" stroke-linecap="round" stroke-linejoin="round"/>
<path d="M243.295 324.409V182.056" stroke="black" stroke-width="1.67" stroke-linecap="round" stroke-linejoin="round"/>
<path d="M164.781 355.63V215.018" stroke="black" stroke-width="1.67" stroke-linecap="round" stroke-linejoin="round"/>
<path d="M115.277 135.433L134.582 195.181L145.715 195.419L141.22 207.265L164.782 256.105" stroke="black" stroke-width="1.67" stroke-linecap="round" stroke-linejoin="round"/>
<path d="M213.72 137.174L194.981 195.181L183.833 195.419L188.343 207.265L164.781 256.104" stroke="black" stroke-width="1.67" stroke-linecap="round" stroke-linejoin="round"/>
<path d="M159.065 158.901C163.323 158.901 166.775 155.45 166.775 151.193C166.775 146.935 163.323 143.484 159.065 143.484C154.807 143.484 151.355 146.935 151.355 151.193C151.355 155.45 154.807 158.901 159.065 158.901Z" fill="#163BF3"/>
<path fill-rule="evenodd" clip-rule="evenodd" d="M154.481 157.383L151.355 180.062L163.962 214.601L172.253 184.72L164.781 156.356L154.481 157.383Z" fill="#163BF3"/>
<path fill-rule="evenodd" clip-rule="evenodd" d="M110.411 642.717C112.956 651.645 99.7388 659.25 93.547 661.78C87.3553 664.309 61.9929 668.238 61.0254 674.428H159.067V661.422C159.067 661.422 129.492 650.381 110.411 642.717Z" fill="#163BF3"/>
<path fill-rule="evenodd" clip-rule="evenodd" d="M207.706 642.717C205.175 651.645 218.392 659.25 224.584 661.78C230.776 664.309 256.138 668.238 257.091 674.428H159.064V661.422C159.064 661.422 188.594 650.381 207.706 642.717Z" fill="#163BF3"/>
<path fill-rule="evenodd" clip-rule="evenodd" d="M125.934 123.737C125.934 123.737 86.2387 126.713 73.5575 128.201C60.8763 129.689 62.4243 121.043 68.1397 116.475C73.8552 111.906 79.5707 106.906 79.5707 106.906H53.9999C45.7839 106.906 47.2425 102.025 52.4371 96.8167C57.6316 91.6083 67.202 79.6141 67.202 79.6141L53.5831 83.4981C49.624 84.6291 47.9719 82.9624 54.7292 77.9772C61.4866 72.992 100.111 3.80957 159.647 0V115.493L125.934 123.737Z" fill="white"/>
<path fill-rule="evenodd" clip-rule="evenodd" d="M193.388 123.737C193.388 123.737 233.084 126.713 245.78 128.201C258.476 129.689 256.898 121.043 251.183 116.475C245.467 111.906 239.752 106.906 239.752 106.906H265.323C273.539 106.906 272.08 102.025 266.886 96.8167C261.691 91.6083 252.121 79.5397 252.121 79.5397L265.754 83.4237C269.699 84.5547 271.366 82.888 264.593 77.9028C257.821 72.9176 219.212 3.80957 159.676 0V115.493L193.388 123.737Z" fill="white"/>
<path d="M159.646 142.487C185.112 142.487 205.757 116.077 205.757 83.4981C205.757 50.9195 185.112 24.5093 159.646 24.5093C134.18 24.5093 113.535 50.9195 113.535 83.4981C113.535 116.077 134.18 142.487 159.646 142.487Z" fill="#FFC7BF"/>
<path fill-rule="evenodd" clip-rule="evenodd" d="M114.606 70.9236C114.606 70.9236 110.587 63.8253 105.095 67.9474C99.6029 72.0694 106.584 93.7215 114.026 92.6054C121.468 91.4893 114.606 70.9236 114.606 70.9236Z" fill="#FFC7BF"/>
<path fill-rule="evenodd" clip-rule="evenodd" d="M203.912 70.9236C203.912 70.9236 207.946 63.8253 213.423 67.9474C218.9 72.0694 211.934 93.7215 204.492 92.6054C197.05 91.4893 203.912 70.9236 203.912 70.9236Z" fill="#FFC7BF"/>
<path d="M159.646 79.6143L166.969 97.1145H151.951" stroke="#CF1D00" stroke-width="1.67" stroke-linecap="round" stroke-linejoin="round"/>
<path d="M146.398 119.615H172.892" stroke="#CF1D00" stroke-width="1.67" stroke-linecap="round" stroke-linejoin="round"/>
<path fill-rule="evenodd" clip-rule="evenodd" d="M151.623 119.615C151.623 119.615 152.754 131.773 159.646 131.773C166.537 131.773 168.576 119.615 168.576 119.615H151.623Z" fill="#CF1D00"/>
<path fill-rule="evenodd" clip-rule="evenodd" d="M154.571 99.4804C150.998 100.686 133.733 105.135 138.526 110.269C143.318 115.403 157.875 105.805 159.988 103.007C159.988 100.076 156.61 98.781 154.571 99.4804Z" fill="white"/>
<path fill-rule="evenodd" clip-rule="evenodd" d="M164.706 99.4804C168.293 100.686 185.544 105.135 180.766 110.269C175.988 115.403 161.417 105.805 159.303 103.007C159.259 100.076 162.667 98.781 164.706 99.4804Z" fill="white"/>
<path fill-rule="evenodd" clip-rule="evenodd" d="M142.485 79.6143C143.735 79.6143 144.747 81.1024 144.747 82.8435C144.747 84.5846 143.735 86.0876 142.485 86.0876C141.235 86.0876 140.223 84.5994 140.223 82.8435C140.223 81.0875 141.25 79.6143 142.485 79.6143Z" fill="black"/>
<path fill-rule="evenodd" clip-rule="evenodd" d="M175.928 79.6143C177.179 79.6143 178.191 81.1024 178.191 82.8435C178.191 84.5846 177.179 86.0876 175.928 86.0876C174.678 86.0876 173.666 84.5994 173.666 82.8435C173.666 81.0875 174.678 79.6143 175.928 79.6143Z" fill="black"/>
</g>
<defs>
<clipPath id="clip0_447:19528">
<rect width="387" height="683" fill="white"/>
</clipPath>
</defs>
</svg>
