<svg width="286" height="726" viewBox="0 0 286 726" fill="none" xmlns="http://www.w3.org/2000/svg">
<g clip-path="url(#clip0_447:19564)">
<path fill-rule="evenodd" clip-rule="evenodd" d="M154.229 713.066C226.959 713.066 286.061 712.452 285.999 719.509C285.938 727.119 226.959 725.951 154.229 725.951C81.4991 725.951 22.459 726.75 22.459 719.509C22.459 712.267 81.4991 713.066 154.229 713.066Z" fill="black"/>
<path fill-rule="evenodd" clip-rule="evenodd" d="M188.485 111.3C195.606 118.676 230.551 150.642 243.65 162.026C256.75 173.41 271.19 190.229 271.19 221.456V472.96H214.081V414.193L173.651 412.521C163.688 412.103 145.804 402.784 145.804 389.679C145.804 402.784 127.354 414.538 119.974 414.538C112.594 414.538 104.193 414.193 104.193 414.193V195.27C104.193 182.84 102.84 168.739 110.909 162.358C118.977 155.977 138.99 141.052 138.99 141.052C138.99 141.052 181.363 103.899 188.485 111.3Z" fill="#B9E2FE"/>
<path fill-rule="evenodd" clip-rule="evenodd" d="M109.299 163.919C102.841 169.771 83.3086 179.435 83.3086 202.634V336.739C83.3086 351.357 86.9986 383.581 104.219 383.581C121.439 383.581 129.483 372.405 129.483 358.34V188.36C129.421 173.054 118.191 155.866 109.299 163.919Z" fill="#B9E2FE"/>
<path fill-rule="evenodd" clip-rule="evenodd" d="M57.4039 281.538C57.4039 281.538 104.427 326.4 112.754 335.805C121.081 345.21 133.75 364.18 122.04 377.397C110.331 390.613 94.2055 386.298 85.6078 376.364C77.0101 366.43 31.0449 319.687 31.0449 319.687L57.4039 281.538Z" fill="#B9E2FE"/>
<path fill-rule="evenodd" clip-rule="evenodd" d="M113.738 414.464V676.958H145.202C145.202 676.958 184.045 514.576 194.008 480.472C203.971 446.367 203.012 425.147 196.677 413.468C190.343 401.788 147.293 376.585 147.293 376.585L113.738 414.464Z" fill="#B9E2FE"/>
<path fill-rule="evenodd" clip-rule="evenodd" d="M149.395 458.44L197.168 676.958H236.012V412.792C231.867 351.947 141.548 415.226 149.395 458.44Z" fill="#B9E2FE"/>
<path fill-rule="evenodd" clip-rule="evenodd" d="M57.404 281.538C51.6107 270.793 41.6354 255.819 37.9823 250.065C34.3292 244.311 24.7352 243.352 26.654 252.757C19.1756 254.134 8.03177 256.63 7.07237 269.244C6.11297 281.858 23.9603 313.307 31.0574 319.65C38.1545 325.994 47.9699 320.634 54.1076 310.086C60.2453 299.537 63.1973 292.333 57.404 281.538Z" fill="#FFC7BF"/>
<path fill-rule="evenodd" clip-rule="evenodd" d="M30.7506 127.86C32.6579 127.86 34.5223 128.425 36.1081 129.485C37.6939 130.544 38.9299 132.049 39.6598 133.81C40.3897 135.571 40.5807 137.509 40.2086 139.379C39.8365 141.249 38.9181 142.966 37.5694 144.314C36.2208 145.662 34.5025 146.58 32.6319 146.952C30.7613 147.324 28.8224 147.133 27.0603 146.404C25.2983 145.674 23.7922 144.439 22.7326 142.854C21.673 141.269 21.1074 139.405 21.1074 137.499C21.1058 136.233 21.3541 134.978 21.8382 133.808C22.3222 132.638 23.0325 131.575 23.9283 130.68C24.824 129.784 25.8877 129.074 27.0584 128.591C28.2291 128.107 29.4838 127.858 30.7506 127.86Z" fill="black"/>
<path d="M30.7754 137.523V258.278" stroke="black" stroke-width="1.67" stroke-linecap="round" stroke-linejoin="round"/>
<path d="M30.7502 167.202C39.2126 167.202 46.0884 168.603 46.0884 170.337C46.0884 172.07 39.2372 173.447 30.7502 173.447C22.2632 173.447 15.4121 172.033 15.4121 170.3C15.4121 168.566 22.3124 167.202 30.7502 167.202Z" stroke="black" stroke-width="1.67" stroke-linecap="round" stroke-linejoin="round"/>
<path d="M30.7498 200.175C47.1704 200.175 60.4913 202.917 60.4913 206.322C60.4913 209.728 47.1704 212.469 30.7498 212.469C14.3293 212.469 0.996094 209.728 0.996094 206.322C0.996094 202.917 14.3539 200.175 30.7498 200.175Z" stroke="black" stroke-width="1.67" stroke-linecap="round" stroke-linejoin="round"/>
<path fill-rule="evenodd" clip-rule="evenodd" d="M222.925 472.763C222.925 472.763 213.196 481.308 214.709 491.032C216.222 500.757 223.589 500.929 226.111 501.433C228.792 507.58 232.814 511.994 243.724 511.994C254.634 511.994 261.338 508.81 262.002 500.757C262.666 492.704 264.192 472.96 264.192 472.96L222.925 472.763Z" fill="#FFC7BF"/>
<path fill-rule="evenodd" clip-rule="evenodd" d="M118.634 676.958L115.965 692.24H141.143L143.025 676.958H118.634Z" fill="#FFC7BF"/>
<path fill-rule="evenodd" clip-rule="evenodd" d="M202.053 676.958L204.402 692.24H229.728L229.875 676.958H202.053Z" fill="#FFC7BF"/>
<path fill-rule="evenodd" clip-rule="evenodd" d="M115.964 692.24C109.961 696.383 85.2139 707.952 77.9077 708.886C70.6014 709.821 58.2276 713.423 60.8721 719.509H141.45L141.204 692.24H115.964Z" fill="#CF1D00"/>
<path fill-rule="evenodd" clip-rule="evenodd" d="M204.401 692.24C202.827 695.609 187.181 710.14 187.673 719.509H239.334C239.334 712.329 233.909 706.538 233.122 703.883C232.335 701.227 229.69 692.24 229.69 692.24C229.69 692.24 209.715 692.166 204.401 692.24Z" fill="#CF1D00"/>
<path d="M215.963 190.807V472.96H223.22" stroke="#0089E3" stroke-width="1.67" stroke-linecap="round" stroke-linejoin="round"/>
<path d="M149.396 458.44L172.545 564.306" stroke="#0089E3" stroke-width="1.67" stroke-linecap="round" stroke-linejoin="round"/>
<path d="M148.363 185.606V381.355" stroke="#0089E3" stroke-width="1.67" stroke-linecap="round" stroke-linejoin="round"/>
<path d="M113.738 414.464C124.402 414.464 148.363 406.349 148.363 381.355" stroke="#0089E3" stroke-width="1.67" stroke-linecap="round" stroke-linejoin="round"/>
<path d="M148.363 381.355C148.363 396.477 156.641 412.595 175.559 412.595H215.964" stroke="#0089E3" stroke-width="1.67" stroke-linecap="round" stroke-linejoin="round"/>
<path d="M167.145 212.764H195.939" stroke="#0089E3" stroke-width="1.67" stroke-linecap="round" stroke-linejoin="round"/>
<path d="M104.156 200.839V383.581" stroke="#0089E3" stroke-width="1.67" stroke-linecap="round" stroke-linejoin="round"/>
<path d="M83.3086 306.483L97.6996 320.536" stroke="#0089E3" stroke-width="1.67" stroke-linecap="round" stroke-linejoin="round"/>
<path d="M26.6548 252.794C30.8491 256.606 36.4948 268.888 35.4985 278.182C34.5022 287.477 27.7372 297.656 22.8541 292.935C19.9929 290.223 17.3752 287.265 15.0312 284.096" stroke="#CF1D00" stroke-width="1.67" stroke-linecap="round" stroke-linejoin="round"/>
<path fill-rule="evenodd" clip-rule="evenodd" d="M135.213 125.856L126.689 134.622L139.026 138.679L148.362 185.606L173.651 124.086L188.485 111.3L183.429 96.4854L135.213 125.856Z" fill="white"/>
<path fill-rule="evenodd" clip-rule="evenodd" d="M197.833 62.885C196.148 68.737 184.303 96.5589 179.161 104.194C177.095 84.99 190.133 60.045 190.133 60.045C190.133 60.045 199.518 57.0452 197.833 62.885Z" fill="#FFC7BF"/>
<path fill-rule="evenodd" clip-rule="evenodd" d="M164.956 7.37666C185.423 11.4706 196.714 41.8006 190.134 74.995C183.553 108.19 161.61 131.942 141.143 127.86C120.676 123.779 109.396 93.5594 115.965 60.328C122.533 27.0966 144.488 3.38103 164.956 7.37666Z" fill="#FFC7BF"/>
<path fill-rule="evenodd" clip-rule="evenodd" d="M120.109 45.4886C120.109 45.4886 149.273 41.9971 154.845 23.359C157.944 14.0645 160.22 7.37646 160.22 7.37646L162.077 2.10223C162.077 2.10223 154.426 0.712978 149.273 0.0859712C144.119 -0.541035 135.62 1.9424 133.147 9.83531C130.675 17.7282 120.109 45.4886 120.109 45.4886Z" fill="black"/>
<path fill-rule="evenodd" clip-rule="evenodd" d="M155.079 22.7567C153.197 28.3875 164.919 51.1195 172.2 53.5907C179.482 56.0618 197.833 62.8851 197.833 62.8851C199.072 55.7775 200.715 48.7461 202.753 41.8251C206.271 29.8382 195.103 10.6346 183.947 7.40119C172.791 4.1678 162.04 2.12695 162.04 2.12695C162.04 2.12695 156.948 17.1136 155.079 22.7567Z" fill="black"/>
<path fill-rule="evenodd" clip-rule="evenodd" d="M120.11 45.4888C120.11 45.4888 116.63 40.067 113.099 45.4888C109.569 50.9105 112.681 64.7416 114.797 67.6184C118.745 59.8116 120.11 45.4888 120.11 45.4888Z" fill="#FFC7BF"/>
<path fill-rule="evenodd" clip-rule="evenodd" d="M195.066 61.8645C195.066 61.8645 204.623 56.5166 207.366 62.885C210.109 69.2534 195.644 82.9984 188.916 84.8794C188.916 74.8965 195.066 61.8645 195.066 61.8645Z" fill="#FFC7BF"/>
<path d="M145.805 128.905L148.511 143.499L173.652 124.086" stroke="#FFC7BF" stroke-width="1.67" stroke-linecap="round" stroke-linejoin="round"/>
<path d="M139.027 138.679L145.805 131.524" stroke="#FFC7BF" stroke-width="1.67" stroke-linecap="round" stroke-linejoin="round"/>
<path d="M143.271 54.8938L133.898 76.6423H146.285" stroke="#CF1D00" stroke-width="1.67" stroke-linecap="round" stroke-linejoin="round"/>
<path fill-rule="evenodd" clip-rule="evenodd" d="M156.814 56.1479C158.13 56.1479 159.2 57.611 159.2 59.4059C159.2 61.2009 158.13 62.7008 156.814 62.7008C155.498 62.7008 154.428 61.2378 154.428 59.4551C154.428 57.6724 155.498 56.1479 156.814 56.1479Z" fill="black"/>
<path fill-rule="evenodd" clip-rule="evenodd" d="M131.302 56.1479C132.618 56.1479 133.688 57.611 133.688 59.4059C133.688 61.2009 132.618 62.7008 131.302 62.7008C129.986 62.7008 128.842 61.2378 128.842 59.4551C128.842 57.6724 129.973 56.1479 131.302 56.1479Z" fill="black"/>
<path fill-rule="evenodd" clip-rule="evenodd" d="M144.87 78.8062C148.745 78.8062 151.266 86.7237 158.29 92.1208C147.306 92.1208 141.451 88.6047 140.086 85.4082C138.991 82.728 139.827 78.8062 144.87 78.8062Z" fill="black"/>
<path fill-rule="evenodd" clip-rule="evenodd" d="M134.413 78.8062C130.539 78.8062 128.017 86.7237 120.994 92.1208C131.978 92.1208 137.821 88.6047 139.198 85.4082C140.342 82.728 139.456 78.8062 134.413 78.8062Z" fill="black"/>
</g>
<defs>
<clipPath id="clip0_447:19564">
<rect width="286" height="726" fill="white"/>
</clipPath>
</defs>
</svg>
