<svg width="482" height="726" viewBox="0 0 482 726" fill="none" xmlns="http://www.w3.org/2000/svg">
<g clip-path="url(#clip0_447:19492)">
<path fill-rule="evenodd" clip-rule="evenodd" d="M196.68 712.132C305.233 712.132 393.452 711.474 393.36 719.033C393.267 727.185 305.233 725.934 196.68 725.934C88.1264 725.934 0 726.79 0 719.073C0 711.355 88.1264 712.132 196.68 712.132Z" fill="black"/>
<path fill-rule="evenodd" clip-rule="evenodd" d="M170.283 131.843L135.531 150.413C135.531 150.413 99.4343 129.143 78.6909 152.033C57.9475 174.922 73.0372 198.061 77.887 207.478C77.0699 227.403 70.6123 307.897 69.5316 321.897C68.451 335.897 80.2987 365.779 103.203 370.349C126.108 374.919 130.681 375.999 130.681 375.999L135.531 340.44H196.68V131.567L170.283 131.843Z" fill="#D9F0FF"/>
<path fill-rule="evenodd" clip-rule="evenodd" d="M223.077 131.843L257.829 150.413C257.829 150.413 293.926 129.143 314.669 152.033C335.412 174.922 320.323 198.061 315.473 207.478C316.29 227.403 322.748 307.897 323.828 321.897C324.909 335.897 313.061 365.779 290.157 370.349C267.252 374.919 262.679 375.999 262.679 375.999L257.829 340.44H196.68V131.567L223.077 131.843Z" fill="#D9F0FF"/>
<path fill-rule="evenodd" clip-rule="evenodd" d="M135.531 340.466L92.041 658.86H196.641C221.087 551.829 217.134 445.838 196.641 340.466H135.531Z" fill="#B9E2FE"/>
<path fill-rule="evenodd" clip-rule="evenodd" d="M257.829 340.466L301.279 658.86H196.68V340.466H257.829Z" fill="#B9E2FE"/>
<path fill-rule="evenodd" clip-rule="evenodd" d="M170.283 131.843H223.077L214.116 147.423H179.245L170.283 131.843Z" fill="white"/>
<path fill-rule="evenodd" clip-rule="evenodd" d="M170.282 131.843L196.64 177.727V195.967C196.64 195.967 182.736 195.388 177.939 185.787C173.142 176.186 184.081 169.088 179.468 163.714C174.855 158.341 165.064 160.448 161.215 152.573C157.367 144.697 163.746 137.032 170.282 131.843Z" fill="white"/>
<path fill-rule="evenodd" clip-rule="evenodd" d="M161.506 101.026C161.506 101.026 146.509 97.628 142.687 90.0026C138.865 82.3773 142.239 82.509 140.697 74.7256C139.155 66.9423 129.245 52.4291 137.653 40.9714C146.061 29.5136 156.63 31.7525 161.506 24.6276C166.382 17.5027 172.049 -2.3837 196.68 0.237097C221.312 2.85789 219.888 18.1349 224.896 24.5749C229.904 31.015 244.664 46.7661 244.005 54.6417C243.346 62.5172 237.218 79.9409 237.6 84.4713C186.691 85.4327 161.506 101.026 161.506 101.026Z" fill="#D9F0FF"/>
<path fill-rule="evenodd" clip-rule="evenodd" d="M223.076 131.843L196.719 177.727V195.967C196.719 195.967 210.622 195.388 215.419 185.787C220.216 176.186 209.278 169.088 213.891 163.714C218.503 158.341 228.295 160.448 232.143 152.573C235.991 144.697 229.613 137.032 223.076 131.843Z" fill="white"/>
<path fill-rule="evenodd" clip-rule="evenodd" d="M196.68 107.782V107.584L216.685 107.202L216.83 142.695L196.68 177.727L176.529 142.695L176.687 107.202L196.68 107.782Z" fill="#FFC7BF"/>
<path fill-rule="evenodd" clip-rule="evenodd" d="M196.681 107.782V107.584L216.686 107.202L216.857 118.871C203.81 126.773 190.381 126.694 176.557 118.871L176.688 107.202L196.681 107.782Z" fill="#CF1D00"/>
<path fill-rule="evenodd" clip-rule="evenodd" d="M196.68 39.2461C204.754 39.2591 212.644 41.663 219.352 46.154C226.061 50.6451 231.287 57.022 234.371 64.4793C237.455 71.9367 238.258 80.1401 236.68 88.0535C235.101 95.9669 231.212 103.235 225.502 108.941C219.793 114.647 212.519 118.534 204.6 120.111C196.682 121.689 188.473 120.886 181.01 117.804C173.548 114.722 167.166 109.499 162.672 102.796C158.178 96.0918 155.773 88.2075 155.76 80.1384C155.767 69.2952 160.08 58.8982 167.753 51.2309C175.425 43.5636 185.829 39.2531 196.68 39.2461Z" fill="#FFC7BF"/>
<path fill-rule="evenodd" clip-rule="evenodd" d="M156.34 73.2637C156.34 73.2637 151.886 66.2573 146.614 69.5893C141.343 72.9213 149.54 93.1633 158.106 93.7955C166.672 94.4276 156.34 73.2637 156.34 73.2637Z" fill="#FFC7BF"/>
<path fill-rule="evenodd" clip-rule="evenodd" d="M236.782 73.2637C236.782 73.2637 241.171 66.2573 246.442 69.5893C251.714 72.9213 243.517 93.1633 234.951 93.7955C226.384 94.4276 236.782 73.2637 236.782 73.2637Z" fill="#FFC7BF"/>
<path fill-rule="evenodd" clip-rule="evenodd" d="M286.929 312.125L360.479 253.756L378.152 297.823L296.865 368.149C296.865 368.149 281.67 346.511 286.929 312.125Z" fill="#D9F0FF"/>
<path d="M196.68 195.967V340.466" stroke="#0089E3" stroke-width="1.67" stroke-linecap="round" stroke-linejoin="round"/>
<path d="M118.398 207.227L133.739 340.466" stroke="#0089E3" stroke-width="1.67" stroke-linecap="round" stroke-linejoin="round"/>
<path d="M273.024 207.227L257.684 340.466" stroke="#0089E3" stroke-width="1.67" stroke-linecap="round" stroke-linejoin="round"/>
<path d="M106.498 295.584L130.76 314.693" stroke="#0089E3" stroke-width="1.67" stroke-linecap="round" stroke-linejoin="round"/>
<path d="M320.956 285.153L288.404 310.992" stroke="#0089E3" stroke-width="1.67" stroke-linecap="round" stroke-linejoin="round"/>
<path d="M132.764 360.761H261.006" stroke="#0089E3" stroke-width="1.67" stroke-linecap="round" stroke-linejoin="round"/>
<path fill-rule="evenodd" clip-rule="evenodd" d="M173.142 658.86V718.743H150.119V707.22L132.762 719.073H59.0535C59.0535 719.073 54.6782 713.66 76.3441 703.664C98.01 693.668 118.859 668.461 125.527 658.887L173.142 658.86Z" fill="#163BF3"/>
<path fill-rule="evenodd" clip-rule="evenodd" d="M221.232 658.86V718.743H244.256V707.22L261.612 719.073H335.321C335.321 719.073 339.696 713.66 318.03 703.664C296.365 693.668 275.516 668.461 268.847 658.887L221.232 658.86Z" fill="#163BF3"/>
<path d="M387.82 136.83L364.189 142.609L405.979 313.272L429.61 307.494L387.82 136.83Z" fill="#CF1D00"/>
<path fill-rule="evenodd" clip-rule="evenodd" d="M392.728 137.875C392.661 137.596 392.54 137.334 392.371 137.103C392.202 136.872 391.988 136.677 391.743 136.53C391.497 136.383 391.225 136.286 390.941 136.246C390.658 136.205 390.369 136.222 390.092 136.295L361.968 143.169C361.69 143.235 361.427 143.356 361.196 143.525C360.965 143.694 360.77 143.908 360.623 144.153C360.475 144.399 360.378 144.671 360.338 144.954C360.297 145.238 360.314 145.526 360.387 145.803C360.455 146.081 360.577 146.342 360.746 146.572C360.916 146.802 361.129 146.996 361.375 147.143C361.62 147.29 361.892 147.387 362.175 147.428C362.457 147.47 362.746 147.454 363.023 147.384L391.146 140.509C391.424 140.441 391.685 140.319 391.916 140.15C392.146 139.98 392.34 139.767 392.487 139.522C392.634 139.277 392.731 139.005 392.772 138.722C392.814 138.44 392.798 138.152 392.728 137.875Z" fill="#CF1D00"/>
<path fill-rule="evenodd" clip-rule="evenodd" d="M480.472 361.485C481.147 362.205 481.622 363.089 481.849 364.049C482.076 365.009 482.047 366.012 481.766 366.958C481.485 367.903 480.961 368.759 480.246 369.439C479.531 370.12 478.65 370.601 477.692 370.836L393.005 391.658C392.046 391.897 391.042 391.881 390.091 391.611C389.141 391.341 388.278 390.826 387.589 390.118C386.901 389.41 386.41 388.533 386.167 387.576C385.924 386.619 385.937 385.615 386.205 384.664L406.131 312.889L429.497 307.147L480.472 361.485Z" fill="#CF1D00"/>
<path fill-rule="evenodd" clip-rule="evenodd" d="M360.478 253.783C365.38 243.787 379.165 225.072 383.857 219.093C388.549 213.114 396.601 213.628 394.782 223.044C392.964 232.461 389.577 245.92 389.577 245.92L400.238 289.591C400.238 289.591 387.284 297.638 378.151 297.902C369.018 298.165 362.521 290.105 358.883 281.018C355.246 271.931 355.575 263.792 360.478 253.783Z" fill="#FFC7BF"/>
<path fill-rule="evenodd" clip-rule="evenodd" d="M388.772 207.767C387.665 213.904 396.297 219.897 403.414 221.148C410.53 222.399 426.134 225.599 425.712 216.696C425.291 207.794 413.166 203.039 408.145 203.039C403.124 203.039 389.879 201.643 388.772 207.767Z" fill="#FFC7BF"/>
<path fill-rule="evenodd" clip-rule="evenodd" d="M392.727 226.863C391.62 232.987 400.252 238.98 407.369 240.231C414.486 241.482 430.023 244.682 429.628 235.74C429.233 226.798 417.082 222.096 412.061 222.096C407.04 222.096 393.782 220.726 392.727 226.863Z" fill="#FFC7BF"/>
<path fill-rule="evenodd" clip-rule="evenodd" d="M395.692 245.262C394.664 250.898 402.598 256.39 409.121 257.549C415.645 258.708 429.983 261.632 429.601 253.453C429.219 245.275 418.083 240.916 413.483 240.916C408.884 240.916 396.68 239.691 395.692 245.262Z" fill="#FFC7BF"/>
<path fill-rule="evenodd" clip-rule="evenodd" d="M400.701 261.829C399.831 266.623 406.592 271.312 412.153 272.299C417.715 273.287 429.932 275.789 429.602 268.809C429.273 261.829 419.784 258.129 415.857 258.129C411.929 258.129 401.571 257.036 400.701 261.829Z" fill="#FFC7BF"/>
<path d="M195.916 64.8877L198.894 84.9453H190.855" stroke="#CF1D00" stroke-width="1.67" stroke-linecap="round" stroke-linejoin="round"/>
<path fill-rule="evenodd" clip-rule="evenodd" d="M181.866 66.771C183.184 66.771 184.186 68.2855 184.186 70.1556C184.186 72.0258 183.158 73.5403 181.866 73.5403C180.575 73.5403 179.547 72.0258 179.547 70.1556C179.547 68.2855 180.548 66.771 181.866 66.771Z" fill="black"/>
<path fill-rule="evenodd" clip-rule="evenodd" d="M211.546 66.771C212.863 66.771 213.865 68.2855 213.865 70.1556C213.865 72.0258 212.824 73.5403 211.546 73.5403C210.267 73.5403 209.213 72.0258 209.213 70.1556C209.213 68.2855 210.254 66.771 211.546 66.771Z" fill="black"/>
<path d="M179.494 92.8342C181.516 96.1484 184.37 98.8765 187.773 100.748C191.176 102.619 195.01 103.568 198.893 103.502" stroke="#CF1D00" stroke-width="1.67" stroke-linecap="round" stroke-linejoin="round"/>
</g>
<defs>
<clipPath id="clip0_447:19492">
<rect width="482" height="726" fill="white"/>
</clipPath>
</defs>
</svg>
