<svg width="351" height="1043" viewBox="0 0 351 1043" fill="none" xmlns="http://www.w3.org/2000/svg">
<path fill-rule="evenodd" clip-rule="evenodd" d="M126.209 654.095V503.006C126.209 481.69 148.814 305.941 151.325 292.149H175.395V462.255H191.302V292.358H211.604C211.604 292.358 227.93 427.147 227.93 469.569V663.708H152.79C146.093 663.708 133.325 659.529 126.209 654.095Z" fill="#B9E2FE"/>
<path fill-rule="evenodd" clip-rule="evenodd" d="M126.209 654.095V679.382H227.93V663.708L126.209 654.095Z" fill="#8D1A00"/>
<path fill-rule="evenodd" clip-rule="evenodd" d="M126.209 679.382C126.209 679.382 129.139 913.435 129.976 927.645C130.814 941.856 137.511 942.482 137.511 942.482H219.349C221.969 941.099 224.156 939.021 225.67 936.477C227.184 933.934 227.966 931.022 227.93 928.063C227.511 917.614 227.93 679.382 227.93 679.382H126.209Z" fill="#0089E3"/>
<path d="M196.535 716.37V942.482" stroke="black" stroke-width="1.82" stroke-linecap="round" stroke-linejoin="round"/>
<path fill-rule="evenodd" clip-rule="evenodd" d="M190.884 942.482H227.931V1016.25C227.722 1024.19 241.536 1031.51 246.978 1032.34C252.419 1033.18 255.978 1036.94 255.559 1039.87H183.35L190.884 942.482Z" fill="#8D1A00"/>
<path fill-rule="evenodd" clip-rule="evenodd" d="M190.884 942.482H131.232V1039.87H205.116C203.887 1036.3 201.538 1033.22 198.418 1031.09C193.186 1026.91 190.674 1016.46 191.093 1004.34C191.512 992.219 190.884 942.482 190.884 942.482Z" fill="#8D1A00"/>
<path fill-rule="evenodd" clip-rule="evenodd" d="M175.395 462.255C175.395 462.255 180.627 482.108 194.86 494.647C198.609 490.782 201.592 486.244 203.65 481.272V474.794H210.139C211.045 474.825 211.947 474.666 212.788 474.328C213.628 473.99 214.389 473.479 215.02 472.829C215.651 472.18 216.138 471.405 216.451 470.556C216.764 469.706 216.895 468.801 216.836 467.898C216.836 462.464 217.883 446.373 208.464 437.387C199.046 428.401 186.278 428.819 175.395 436.76V462.255Z" fill="#FFC7BF"/>
<path fill-rule="evenodd" clip-rule="evenodd" d="M189.418 269.579C189.418 272.714 186.697 292.358 195.07 292.358H207.209C218.093 292.358 218.093 269.37 217.883 263.937C202.186 266.027 189.418 265.818 189.418 269.579Z" fill="#FFC7BF"/>
<path d="M203.651 474.794H192.977" stroke="#FFC7BF" stroke-width="1.82" stroke-linecap="round" stroke-linejoin="round"/>
<path fill-rule="evenodd" clip-rule="evenodd" d="M126.209 561.31H150.069C159.488 561.31 169.325 553.996 169.325 538.531V462.673H175.395L183.976 481.481V529.337H203.651V481.272H211.604V537.696C211.604 545.637 216.209 558.802 227.93 562.982V663.708H158.023C146.668 663.938 135.531 660.573 126.209 654.095V561.31Z" fill="#0089E3"/>
<path fill-rule="evenodd" clip-rule="evenodd" d="M186.488 90.0686C204.306 90.0273 221.736 95.2676 236.568 105.126C251.401 114.984 262.969 129.016 269.806 145.444C276.644 161.872 278.444 179.957 274.978 197.408C271.512 214.858 262.936 230.889 250.337 243.469C237.738 256.048 221.682 264.611 204.204 268.071C186.726 271.532 168.613 269.735 152.159 262.908C135.705 256.081 121.651 244.531 111.778 229.721C101.905 214.912 96.6561 197.51 96.6975 179.719C96.7528 155.959 106.231 133.189 123.058 116.388C139.885 99.5868 162.691 90.1238 186.488 90.0686Z" fill="#FBBE2E"/>
<path d="M184.395 39.9145V1.88086" stroke="#FBBE2E" stroke-width="1.82" stroke-linecap="round" stroke-linejoin="round"/>
<path d="M79.3257 83.1725L47.5117 54.3337" stroke="#FBBE2E" stroke-width="1.82" stroke-linecap="round" stroke-linejoin="round"/>
<path d="M276.07 96.547L310.187 68.7532" stroke="#FBBE2E" stroke-width="1.82" stroke-linecap="round" stroke-linejoin="round"/>
<path d="M1.88281 186.825H47.5107" stroke="#FBBE2E" stroke-width="1.82" stroke-linecap="round" stroke-linejoin="round"/>
<path d="M303.697 186.825H349.116" stroke="#FBBE2E" stroke-width="1.82" stroke-linecap="round" stroke-linejoin="round"/>
<path d="M93.1389 263.728L63.418 293.194" stroke="#FBBE2E" stroke-width="1.82" stroke-linecap="round" stroke-linejoin="round"/>
<path d="M280.883 263.728L317.301 300.09" stroke="#FBBE2E" stroke-width="1.82" stroke-linecap="round" stroke-linejoin="round"/>
<path fill-rule="evenodd" clip-rule="evenodd" d="M168.28 292.149H155.303C150.908 292.149 150.07 286.088 150.07 281.7V258.085C150.07 254.115 151.117 251.816 152.791 251.816C154.466 251.816 156.14 253.07 156.14 257.667C156.14 251.189 158.024 246.174 160.745 246.174C163.466 246.174 163.884 251.816 163.884 256.205C163.884 248.055 164.721 245.338 168.28 245.338C171.838 245.338 171.419 254.324 171.419 257.041V268.743H177.07V281.909C177.07 290.477 172.256 292.149 168.28 292.149Z" fill="#FFC7BF"/>
<path d="M190.883 942.482V1013.53C190.883 1020.43 205.115 1034.64 205.115 1041.33" stroke="black" stroke-width="1.67" stroke-linecap="round" stroke-linejoin="round"/>
</svg>
