<svg width="529" height="652" viewBox="0 0 529 652" fill="none" xmlns="http://www.w3.org/2000/svg">
<g clip-path="url(#clip0_447:20282)">
<path fill-rule="evenodd" clip-rule="evenodd" d="M264.569 50.8818C239.431 50.8818 182.149 66.1052 166.489 70.3568C150.829 74.6084 131.873 89.6946 131.873 112.324V201.333H67.585V241.929L174.319 280.604V328.606H264.569V50.8818Z" fill="#FFC7BF"/>
<path fill-rule="evenodd" clip-rule="evenodd" d="M264.568 50.8818C289.569 50.8818 346.988 66.1052 362.648 70.3568C378.308 74.6084 397.127 89.6946 397.127 112.324V201.333H461.415V241.929L354.681 280.604V328.606H264.568C256.052 329.429 251.931 136.736 264.568 50.8818Z" fill="#FFC7BF"/>
<path d="M174.318 280.604V152.92" stroke="black" stroke-width="1.25" stroke-linecap="round" stroke-linejoin="round"/>
<path d="M354.544 280.604V152.92" stroke="black" stroke-width="1.25" stroke-linecap="round" stroke-linejoin="round"/>
<path d="M131.872 201.196H152.477" stroke="black" stroke-width="1.25" stroke-linecap="round" stroke-linejoin="round"/>
<path d="M396.991 201.196H376.386" stroke="black" stroke-width="1.25" stroke-linecap="round" stroke-linejoin="round"/>
<path fill-rule="evenodd" clip-rule="evenodd" d="M263.744 328.606V436.953H202.479C202.479 436.953 174.318 375.922 174.318 328.606H263.744Z" fill="#FBBE2E"/>
<path fill-rule="evenodd" clip-rule="evenodd" d="M263.744 328.606L323.911 436.953H385.177C385.177 436.953 385.726 370.71 353.17 328.606H263.744Z" fill="#FBBE2E"/>
<path fill-rule="evenodd" clip-rule="evenodd" d="M324.461 437.501C324.461 437.501 311.548 466.576 308.251 483.72C304.955 500.863 299.048 617.164 299.048 617.164H339.983L385.177 436.952L324.461 437.501Z" fill="#5B3100"/>
<path fill-rule="evenodd" clip-rule="evenodd" d="M202.479 436.952C202.479 436.952 194.237 476.451 194.786 493.594C195.336 510.738 207.973 617.164 207.973 617.164H247.123C247.123 617.164 262.645 506.075 263.057 488.794C263.47 471.514 263.744 436.952 263.744 436.952H202.479Z" fill="#5B3100"/>
<path fill-rule="evenodd" clip-rule="evenodd" d="M67.5842 201.196C58.2432 201.058 45.4681 183.366 40.2482 184.052C35.0282 184.738 45.6055 198.316 45.6055 198.316H6.73064C1.09859 198.316 0.549126 204.076 6.868 204.761C13.1869 205.447 38.325 208.876 38.325 208.876C38.325 208.876 16.3463 211.345 6.0438 212.853C-4.25872 214.362 0.411759 219.848 6.4559 220.122C12.5 220.396 39.8361 220.122 39.8361 220.122C39.8361 220.122 17.1705 224.648 11.1264 226.294C5.08224 227.939 8.10431 234.111 13.3243 233.562L43.8197 229.448L21.5663 237.951C16.6211 239.871 17.9947 243.574 23.2147 242.751C28.4346 241.928 67.7215 241.928 67.7215 241.928C81.3209 241.928 85.7166 201.47 67.5842 201.196Z" fill="#5B3100"/>
<path fill-rule="evenodd" clip-rule="evenodd" d="M461.416 201.196C470.757 201.196 483.669 183.367 488.752 184.052C493.834 184.738 483.394 198.316 483.394 198.316H522.269C527.901 198.316 528.451 204.076 522.132 204.762C515.813 205.447 490.675 208.876 490.675 208.876C490.675 208.876 512.653 211.345 523.093 212.853C533.533 214.362 528.588 219.848 522.544 220.122C516.5 220.396 489.301 220.122 489.301 220.122C489.301 220.122 511.829 224.648 517.873 226.294C523.918 227.939 520.895 234.111 515.813 233.563L485.18 229.448L507.571 237.951C512.379 239.871 511.005 243.574 505.785 242.751C500.565 241.929 461.416 241.929 461.416 241.929C446.305 241.929 443.42 201.333 461.416 201.196Z" fill="#5B3100"/>
<path fill-rule="evenodd" clip-rule="evenodd" d="M207.973 617.165C200.143 630.331 193.824 642.948 198.22 652H254.266C260.86 645.28 255.365 631.976 247.123 617.165H207.973Z" fill="#C98600"/>
<path fill-rule="evenodd" clip-rule="evenodd" d="M299.048 617.165C298.086 624.159 287.509 640.754 287.509 652H391.358C391.358 652 392.457 646.103 381.605 642.263C370.753 638.422 337.236 626.902 339.983 617.165H299.048Z" fill="#C98600"/>
<path fill-rule="evenodd" clip-rule="evenodd" d="M245.475 47.7274H225.831C225.831 47.7274 228.166 0 264.569 0C268.964 12.7547 264.981 31.6811 264.569 31.6811L245.475 47.7274Z" fill="#CF1D00"/>
<path fill-rule="evenodd" clip-rule="evenodd" d="M283.525 47.7274H303.168C303.168 47.7274 300.971 0 264.568 0V31.6811L283.525 47.7274Z" fill="#CF1D00"/>
<path fill-rule="evenodd" clip-rule="evenodd" d="M241.217 53.2133C241.217 62.1279 244.651 103.409 264.569 103.409C284.487 103.409 286.273 53.0762 286.273 53.0762L264.569 50.8818C264.569 50.8818 251.794 51.8419 241.217 53.2133Z" fill="#5B3100"/>
<path fill-rule="evenodd" clip-rule="evenodd" d="M250.558 52.2533C250.558 52.2533 254.129 65.8309 264.569 66.1052C275.009 66.3795 278.58 52.2533 278.58 52.2533L264.569 50.8818L250.558 52.2533Z" fill="black"/>
<path d="M287.731 41.2343C293.015 28.4981 286.957 13.8968 274.2 8.62134C261.444 3.34585 246.819 9.39391 241.535 22.1301C236.251 34.8662 242.309 49.4675 255.065 54.743C267.822 60.0185 282.447 53.9704 287.731 41.2343Z" fill="#5B3100"/>
<path fill-rule="evenodd" clip-rule="evenodd" d="M237.644 27.5667C238.713 27.6022 239.727 28.0514 240.47 28.8192C241.213 29.587 241.629 30.6132 241.628 31.6811C241.628 32.7359 241.208 33.7476 240.461 34.4934C239.714 35.2393 238.701 35.6584 237.644 35.6584C236.575 35.659 235.547 35.2444 234.778 34.5022C234.009 33.76 233.559 32.7484 233.523 31.6811C233.558 30.6008 234.003 29.5741 234.769 28.8098C235.534 28.0455 236.562 27.601 237.644 27.5667Z" fill="#5B3100"/>
<path fill-rule="evenodd" clip-rule="evenodd" d="M292.316 27.5667C293.385 27.6022 294.399 28.0514 295.142 28.8192C295.885 29.587 296.301 30.6132 296.3 31.6811C296.125 32.6265 295.624 33.4809 294.883 34.0958C294.143 34.7108 293.211 35.0475 292.248 35.0475C291.285 35.0475 290.352 34.7108 289.612 34.0958C288.872 33.4809 288.37 32.6265 288.195 31.6811C288.195 30.5899 288.629 29.5433 289.402 28.7717C290.175 28.0001 291.223 27.5667 292.316 27.5667Z" fill="#5B3100"/>
<path fill-rule="evenodd" clip-rule="evenodd" d="M252.48 26.1953C252.769 26.1953 253.055 26.2521 253.321 26.3623C253.588 26.4726 253.83 26.6343 254.034 26.838C254.238 27.0418 254.4 27.2837 254.511 27.5499C254.621 27.8162 254.678 28.1015 254.678 28.3897C254.678 28.9717 254.446 29.5298 254.034 29.9413C253.622 30.3528 253.063 30.584 252.48 30.584C251.897 30.584 251.338 30.3528 250.926 29.9413C250.514 29.5298 250.282 28.9717 250.282 28.3897C250.282 28.1015 250.339 27.8162 250.45 27.5499C250.56 27.2837 250.722 27.0418 250.926 26.838C251.13 26.6343 251.372 26.4726 251.639 26.3623C251.906 26.2521 252.191 26.1953 252.48 26.1953Z" fill="black"/>
<path fill-rule="evenodd" clip-rule="evenodd" d="M275.008 26.1953C275.567 26.2302 276.092 26.4768 276.474 26.8846C276.857 27.2924 277.07 27.8307 277.069 28.3897C277.069 28.9353 276.852 29.4585 276.465 29.8443C276.079 30.2301 275.555 30.4469 275.008 30.4469C274.449 30.448 273.909 30.2357 273.501 29.8534C273.092 29.4711 272.846 28.9476 272.811 28.3897C272.811 28.1015 272.867 27.8162 272.978 27.5499C273.088 27.2837 273.25 27.0418 273.454 26.838C273.658 26.6343 273.901 26.4726 274.167 26.3623C274.434 26.2521 274.72 26.1953 275.008 26.1953Z" fill="black"/>
<path d="M264.019 26.1953L259.349 39.4986H266.766L260.585 45.6703C262.265 47.2518 264.459 48.1767 266.766 48.2761C270.338 48.2761 273.772 45.1217 273.772 45.1217" stroke="black" stroke-miterlimit="10"/>
<path d="M247.397 22.9036C248.182 22.0927 249.165 21.5014 250.25 21.1885C251.335 20.8757 252.482 20.8523 253.579 21.1207" stroke="black" stroke-width="1.27" stroke-linecap="round" stroke-linejoin="round"/>
<path d="M280.092 22.9036C279.307 22.0927 278.324 21.5014 277.239 21.1885C276.155 20.8757 275.007 20.8523 273.91 21.1207" stroke="black" stroke-width="1.27" stroke-linecap="round" stroke-linejoin="round"/>
</g>
<defs>
<clipPath id="clip0_447:20282">
<rect width="529" height="652" fill="white"/>
</clipPath>
</defs>
</svg>
