<svg width="416" height="582" viewBox="0 0 416 582" fill="none" xmlns="http://www.w3.org/2000/svg">
<g clip-path="url(#clip0_446:17944)">
<path fill-rule="evenodd" clip-rule="evenodd" d="M259.803 85.0361L260.119 79.672C260.119 79.672 250.169 79.672 243.852 80.3031C237.534 80.9341 234.376 72.4147 238.166 57.1114C241.956 41.8081 246.694 0 282.704 0C318.713 0 321.398 22.5606 322.345 35.813C323.293 49.0653 318.555 79.9875 318.555 79.9875L259.803 85.0361Z" fill="#5B3100"/>
<path fill-rule="evenodd" clip-rule="evenodd" d="M289.178 78.7253C275.438 78.7253 247.957 80.9341 230.584 117.851C213.212 154.769 196.313 194.053 196.313 194.053C196.313 194.053 179.572 189.162 169.938 215.351C160.304 241.54 184.468 254.319 191.575 255.424C198.682 256.528 225.373 262.523 239.903 240.436L383.465 239.647C383.465 239.647 366.092 153.507 358.038 124.951C349.983 96.3952 334.032 78.7253 289.178 78.7253Z" fill="#CF1D00"/>
<path fill-rule="evenodd" clip-rule="evenodd" d="M239.903 240.436L243.851 257.001H180.203C164.568 257.001 128.874 267.256 134.086 319.477C139.298 371.697 182.572 538.93 182.572 538.93V368.542H383.465C399.733 368.542 404.155 338.882 403.523 316.479C402.891 294.076 383.465 239.647 383.465 239.647L239.903 240.436Z" fill="#133191"/>
<path fill-rule="evenodd" clip-rule="evenodd" d="M150.512 406.248L63.6475 545.398H141.509L172.938 500.908L150.512 406.248Z" fill="#8D1A00"/>
<path fill-rule="evenodd" clip-rule="evenodd" d="M63.648 545.398C59.0679 552.182 57.8512 558.751 69.5005 558C79.2924 557.369 133.613 557.546 133.613 557.546L141.51 545.398H63.648Z" fill="#5B3100"/>
<path fill-rule="evenodd" clip-rule="evenodd" d="M63.6475 545.398L10.1076 571.587C-0.47398 576.794 -3.47474 582 4.73787 582H145.931C145.931 576.32 137.087 570.325 137.087 565.277C137.087 560.228 139.456 559.755 135.982 553.76L133.613 557.546H65.2269C64.4009 557.517 63.5946 557.286 62.8787 556.874C62.1628 556.461 61.5591 555.879 61.1206 555.18C60.747 554.479 60.5385 553.703 60.5112 552.91C60.4838 552.117 60.6382 551.329 60.9626 550.604L63.6475 545.398Z" fill="#CF1D00"/>
<path d="M243.852 257.001H303.551" stroke="#8D1A00" stroke-width="2.08" stroke-linecap="round" stroke-linejoin="round"/>
<path d="M196.313 194.052L189.048 210.46" stroke="#8D1A00" stroke-width="2.08" stroke-linecap="round" stroke-linejoin="round"/>
<path fill-rule="evenodd" clip-rule="evenodd" d="M243.851 33.9197L233.112 47.8031C230.585 51.274 234.849 52.2206 239.271 52.2206C241.008 46.0677 243.851 33.9197 243.851 33.9197Z" fill="#5B3100"/>
<path d="M261.54 29.9757C261.54 29.9757 264.383 22.8762 270.542 25.4004C276.702 27.9247 274.649 36.4441 273.227 41.4926C271.806 46.5411 266.91 51.7474 262.803 50.3275C258.697 48.9076 259.171 43.0703 259.171 43.0703" stroke="black" stroke-width="2.08" stroke-linecap="round" stroke-linejoin="round"/>
<path d="M346.193 368.542H182.572V582.047H346.193V368.542Z" fill="#B9E2FE"/>
<path d="M416 368.542H346.193V582.047H416V368.542Z" fill="#0089E3"/>
<path d="M239.902 240.436L304.656 123.373" stroke="#8D1A00" stroke-width="2.08" stroke-linecap="round" stroke-linejoin="round"/>
<path d="M182.572 368.542H160.619" stroke="#8D1A00" stroke-width="2.08" stroke-linecap="round" stroke-linejoin="round"/>
</g>
<defs>
<clipPath id="clip0_446:17944">
<rect width="416" height="582" fill="white"/>
</clipPath>
</defs>
</svg>
