<svg width="322" height="709" viewBox="0 0 322 709" fill="none" xmlns="http://www.w3.org/2000/svg">
<g clip-path="url(#clip0_447:20246)">
<path d="M274 15.4714H14.0098V177.735H274V15.4714Z" fill="#163BF3"/>
<path fill-rule="evenodd" clip-rule="evenodd" d="M14.009 1.44409C17.6885 1.49828 21.1991 3.00005 23.7819 5.62483C26.3647 8.24962 27.8123 11.7866 27.8119 15.4714C27.8119 19.137 26.3577 22.6525 23.7691 25.2444C21.1806 27.8364 17.6697 29.2925 14.009 29.2925C12.1791 29.3199 10.362 28.9826 8.66351 28.3002C6.96501 27.6179 5.41897 26.6042 4.11535 25.3181C2.81173 24.0319 1.77655 22.4991 1.07004 20.8086C0.36353 19.1182 -0.000203768 17.3039 8.56393e-08 15.4714C8.56393e-08 11.7512 1.47594 8.18325 4.10313 5.55261C6.73032 2.92197 10.2936 1.44409 14.009 1.44409Z" fill="#163BF3"/>
<path fill-rule="evenodd" clip-rule="evenodd" d="M273.999 1.44409C277.679 1.49828 281.189 3.00005 283.772 5.62483C286.355 8.24962 287.803 11.7866 287.802 15.4714C287.802 19.137 286.348 22.6525 283.759 25.2444C281.171 27.8364 277.66 29.2925 273.999 29.2925C270.319 29.2929 266.787 27.8434 264.165 25.2572C261.544 22.671 260.044 19.1559 259.99 15.4714C259.99 11.7512 261.466 8.18324 264.093 5.55261C266.721 2.92197 270.284 1.44409 273.999 1.44409Z" fill="#163BF3"/>
<path fill-rule="evenodd" clip-rule="evenodd" d="M273.999 163.79C276.77 163.79 279.478 164.613 281.782 166.154C284.086 167.695 285.881 169.886 286.941 172.449C288.002 175.012 288.279 177.833 287.739 180.554C287.198 183.275 285.864 185.774 283.905 187.736C281.945 189.698 279.449 191.034 276.732 191.575C274.014 192.116 271.198 191.839 268.638 190.777C266.078 189.715 263.89 187.917 262.351 185.61C260.811 183.304 259.99 180.592 259.99 177.817C259.962 175.967 260.305 174.131 261 172.416C261.694 170.702 262.725 169.145 264.031 167.836C265.337 166.528 266.893 165.496 268.605 164.801C270.317 164.106 272.151 163.762 273.999 163.79Z" fill="#163BF3"/>
<path fill-rule="evenodd" clip-rule="evenodd" d="M14.0086 163.79C16.7793 163.79 19.4878 164.613 21.7915 166.154C24.0953 167.695 25.8908 169.886 26.9512 172.449C28.0115 175.012 28.2889 177.833 27.7483 180.554C27.2078 183.275 25.8736 185.774 23.9144 187.736C21.9552 189.698 19.459 191.034 16.7416 191.575C14.0241 192.116 11.2074 191.839 8.64757 190.777C6.08777 189.715 3.89987 187.917 2.36054 185.61C0.821219 183.304 -0.00039211 180.592 -0.00039211 177.817C-0.0281767 175.967 0.315197 174.131 1.00938 172.416C1.70355 170.702 2.73441 169.145 4.04083 167.836C5.34726 166.528 6.90267 165.496 8.61487 164.801C10.3271 164.106 12.1612 163.762 14.0086 163.79Z" fill="#163BF3"/>
<path fill-rule="evenodd" clip-rule="evenodd" d="M62.6286 43.3197C73.1353 28.0546 94.9728 2.47535 116.604 3.30049C138.236 4.12563 141.12 15.8838 132.467 25.7855C123.815 35.6872 107.54 64.7733 101.977 73.6435C96.4149 82.5138 97.0329 101.904 104.655 113.456C112.278 125.008 143.592 177.611 143.592 177.611H179.233L209.517 320.566H91.6766C91.6766 320.566 67.9849 210.823 70.0451 181.324C58.0963 148.731 51.2978 124.39 46.7655 117.17C42.2332 109.95 44.7054 69.9304 62.6286 43.3197Z" fill="#CF1D00"/>
<path fill-rule="evenodd" clip-rule="evenodd" d="M91.6758 320.566H209.516C209.516 320.566 211.782 363.886 203.953 389.465C215.284 429.484 281.209 651.447 281.209 651.447C276.56 649.44 271.525 648.491 266.466 648.67C261.407 648.848 256.451 650.149 251.955 652.478C237.122 660.729 229.499 682.183 229.499 682.183C229.499 682.183 92.7059 423.708 91.6758 320.566Z" fill="#00672E"/>
<path d="M203.955 389.465L192.006 347.589" stroke="#60D399" stroke-width="1.82" stroke-linecap="round" stroke-linejoin="round"/>
<path fill-rule="evenodd" clip-rule="evenodd" d="M110.63 411.125L44.7051 648.352C44.7051 648.352 51.7096 675.582 78.2854 673.931C92.7064 648.971 153.48 522.725 153.48 522.725L110.63 411.125Z" fill="#60D399"/>
<path fill-rule="evenodd" clip-rule="evenodd" d="M237.946 700.749L228.676 680.326C228.676 680.326 234.856 660.936 253.191 651.859C257.532 649.691 262.304 648.528 267.153 648.457C272.003 648.386 276.807 649.407 281.209 651.446L309.021 640.926L237.946 700.749Z" fill="#1C2126"/>
<path fill-rule="evenodd" clip-rule="evenodd" d="M254.221 677.026C265.964 668.156 308.403 630.818 320.146 642.576C331.889 654.335 283.681 686.309 273.175 692.497C262.668 698.686 243.097 711.475 237.946 700.749C232.796 690.022 242.479 686.102 254.221 677.026Z" fill="black"/>
<path fill-rule="evenodd" clip-rule="evenodd" d="M44.7043 648.559C44.7043 648.559 39.1419 669.393 37.0818 676.613C35.0216 683.833 38.5239 690.228 46.1464 694.973C53.7689 699.717 76.6365 709 99.092 709C121.548 709 139.059 705.699 119.899 698.686C100.74 691.672 77.0485 684.865 78.2846 674.138C58.0952 670.631 47.5885 656.397 44.7043 648.559Z" fill="#1C2126"/>
<path fill-rule="evenodd" clip-rule="evenodd" d="M131.438 6.8074C131.438 6.8074 148.331 -0.618839 158.219 1.5039e-05C168.108 0.618869 180.675 15.4714 180.675 15.4714H137L131.438 6.8074Z" fill="#FBBE2E"/>
</g>
<defs>
<clipPath id="clip0_447:20246">
<rect width="322" height="709" fill="white"/>
</clipPath>
</defs>
</svg>
