<svg width="431" height="739" viewBox="0 0 431 739" fill="none" xmlns="http://www.w3.org/2000/svg">
<path fill-rule="evenodd" clip-rule="evenodd" d="M259.27 40.8114C259.27 40.8114 239.793 5.02299 247.751 0.418626C255.71 -4.18574 274.977 34.5328 280.841 47.5087C286.705 60.4846 300.108 97.9474 293.825 98.366C287.542 98.7845 273.93 69.484 273.93 69.484L259.27 40.8114Z" fill="#163BF3"/>
<path fill-rule="evenodd" clip-rule="evenodd" d="M245.029 98.3659C243.298 93.6068 239.867 89.6558 235.395 87.2736C227.856 82.6692 220.317 75.7627 220.945 67.3911C221.272 62.947 222.894 58.6959 225.61 55.1625C228.327 51.6292 232.02 48.9684 236.233 47.5086C244.281 44.8607 252.46 42.6254 260.736 40.8114C265.134 40.1835 272.254 46.4622 273.302 52.113C274.349 57.7638 276.024 69.6933 271.626 74.7162C267.228 79.7391 270.998 87.0643 270.998 87.0643L245.029 98.3659Z" fill="#5B3100"/>
<path fill-rule="evenodd" clip-rule="evenodd" d="M275.605 36.6257C275.605 36.6257 299.271 29.7192 303.878 40.8115C308.485 51.9038 287.962 65.5076 287.962 65.5076L275.605 36.6257Z" fill="#C98600"/>
<path fill-rule="evenodd" clip-rule="evenodd" d="M247.752 44.16C247.752 44.16 242.098 38.7185 240.003 36.4163C237.909 34.1141 239.166 42.4857 240.841 46.0436C242.516 49.6015 247.752 44.16 247.752 44.16Z" fill="#5B3100"/>
<path fill-rule="evenodd" clip-rule="evenodd" d="M245.029 98.3659C239.165 103.389 222.62 121.388 215.081 155.502C207.542 189.616 180.944 296.772 180.944 296.772H290.056L304.506 239.217C304.506 239.217 334.035 296.563 339.061 303.051C344.088 298.446 361.889 292.377 370.685 294.261C370.685 283.378 368.381 275.215 363.355 264.123C358.329 253.031 316.234 144.2 311.627 132.689C307.019 121.178 295.501 91.4594 284.401 89.1572C273.301 86.855 270.579 87.0643 270.579 87.0643C270.579 87.0643 253.615 93.9708 245.029 98.3659Z" fill="#C98600"/>
<path d="M304.506 239.218L260.317 137.294" stroke="black" stroke-width="1.82" stroke-linecap="round" stroke-linejoin="round"/>
<path fill-rule="evenodd" clip-rule="evenodd" d="M343.669 300.121C343.669 300.121 340.946 323.352 346.601 326.7C352.255 330.049 356.653 323.561 356.653 323.561C356.653 323.561 364.193 337.583 374.664 334.235C385.135 330.886 389.743 320.631 385.345 313.934C380.947 307.236 374.036 298.656 370.685 294.26C356.5 292 343.669 300.121 343.669 300.121Z" fill="#5B3100"/>
<path fill-rule="evenodd" clip-rule="evenodd" d="M207.542 188.36L177.175 231.055C177.175 231.055 141.992 247.589 125.238 259.1C113.054 268.201 101.573 278.206 90.8916 289.028L116.232 308.492L185.971 277.099L207.542 188.36Z" fill="#FBBE2E"/>
<path fill-rule="evenodd" clip-rule="evenodd" d="M180.945 296.772C180.945 296.772 166.913 375.465 143.877 432.81C120.84 490.155 90.8916 627.449 90.8916 627.449L169.008 662.4C169.008 662.4 204.61 555.453 214.453 529.92C224.296 504.387 289.847 322.305 290.056 296.772H180.945Z" fill="#163BF3"/>
<path fill-rule="evenodd" clip-rule="evenodd" d="M227.856 493.295L296.339 674.33L365.031 655.703C365.031 655.703 319.376 437.624 275.815 352.652C269.323 372.326 227.856 493.295 227.856 493.295Z" fill="#133191"/>
<path fill-rule="evenodd" clip-rule="evenodd" d="M104.922 633.728L85.0268 674.12C85.0268 674.12 29.9476 666.377 14.8689 662.4C-0.209861 658.424 -5.44553 670.562 7.12007 678.515C19.6857 686.468 80.4194 739 80.4194 739H127.54L163.143 659.679L104.922 633.728Z" fill="black"/>
<path fill-rule="evenodd" clip-rule="evenodd" d="M355.188 658.424C355.188 658.424 370.266 719.536 368.591 739H230.998C230.998 739 223.249 731.256 242.935 723.094C262.621 714.932 307.438 697.77 307.438 697.77L304.506 672.027L355.188 658.424Z" fill="black"/>
<path d="M356.653 323.561C350.161 325.445 330.475 339.048 329.847 371.279" stroke="#163BF3" stroke-width="1.82" stroke-linecap="round" stroke-linejoin="round"/>
<path d="M387.021 321.677C387.021 321.677 413.618 330.049 416.34 371.279" stroke="#163BF3" stroke-width="1.82" stroke-linecap="round" stroke-linejoin="round"/>
<path fill-rule="evenodd" clip-rule="evenodd" d="M314.14 371.279H431L409.429 458.762H339.271L314.14 371.279Z" fill="#FF341A"/>
<path fill-rule="evenodd" clip-rule="evenodd" d="M90.8908 289.028C88.3776 291.54 81.4666 303.26 90.8908 312.678C100.315 322.096 112.043 312.05 116.231 308.492C120.42 304.934 117.907 294.47 113.509 290.703C109.111 286.935 93.4039 286.517 90.8908 289.028Z" fill="#5B3100"/>
<path fill-rule="evenodd" clip-rule="evenodd" d="M251.751 48.3635C251.562 47.6878 251.84 47.0197 252.372 46.8712L256.205 45.8012C256.737 45.6527 257.321 46.08 257.51 46.7556C257.698 47.4313 257.42 48.0994 256.888 48.2479L253.055 49.3179C252.523 49.4664 251.939 49.0391 251.751 48.3635Z" fill="black"/>
</svg>
