<svg width="636" height="530" viewBox="0 0 636 530" fill="none" xmlns="http://www.w3.org/2000/svg">
<g clip-path="url(#clip0_447:20201)">
<path fill-rule="evenodd" clip-rule="evenodd" d="M309.395 348.139C309.395 348.139 469.218 274.075 506.932 254.642C544.645 235.209 593.892 248.042 593.892 288.558V490.401H498.327V372.522L357.543 439.07L309.395 348.139Z" fill="#FBBE2E"/>
<path fill-rule="evenodd" clip-rule="evenodd" d="M309.395 348.139C309.395 348.139 378.78 316.057 436.814 288.558C426.562 336.039 408.621 414.87 408.621 414.87L357.36 439.07L309.395 348.139Z" fill="black"/>
<path fill-rule="evenodd" clip-rule="evenodd" d="M309.395 16.1329C353.321 16.1815 395.435 33.6769 426.496 64.7809C457.557 95.8848 475.028 138.057 475.077 182.044C475.077 213.027 473.978 239.793 473.978 270.775C467.754 274.991 439.377 287.091 436.265 288.741C420.824 307.425 401.434 322.444 379.495 332.716C357.555 342.987 333.613 348.255 309.395 348.139C287.161 348.879 265.007 345.133 244.249 337.124C223.491 329.114 204.554 317.005 188.565 301.517C172.576 286.03 159.861 267.479 151.178 246.97C142.494 226.461 138.02 204.412 138.02 182.136C138.02 159.86 142.494 137.811 151.178 117.302C159.861 96.7928 172.576 78.2424 188.565 62.7545C204.554 47.2667 223.491 35.1578 244.249 27.1484C265.007 19.1391 287.161 15.393 309.395 16.1329Z" fill="#BDC7FB"/>
<path d="M335.942 99.9135C354.546 99.9135 369.627 80.2968 369.627 56.0983C369.627 31.8997 354.546 12.283 335.942 12.283C317.337 12.283 302.256 31.8997 302.256 56.0983C302.256 80.2968 317.337 99.9135 335.942 99.9135Z" fill="#163BF3"/>
<path d="M337.589 87.8139C361.754 87.8139 381.344 68.1972 381.344 43.9986C381.344 19.8001 361.754 0.18335 337.589 0.18335C313.424 0.18335 293.834 19.8001 293.834 43.9986C293.834 68.1972 313.424 87.8139 337.589 87.8139Z" fill="#DFA98B"/>
<path d="M422.17 109.447C435.168 140.796 426.014 145.195 426.014 164.078C426.014 207.527 472.698 239.976 436.633 288.558" stroke="black" stroke-width="1.25" stroke-linecap="round" stroke-linejoin="round"/>
<path fill-rule="evenodd" clip-rule="evenodd" d="M143.529 182.044V348.139H309.212C309.395 348.139 143.529 139.879 143.529 182.044Z" fill="#BDC7FB"/>
<path fill-rule="evenodd" clip-rule="evenodd" d="M143.529 348.139C143.529 381.505 149.571 453.919 212.365 453.919H143.529V530H378.78C431.871 530 445.053 498.651 445.053 470.785C445.053 442.919 429.308 427.52 379.878 394.888L309.212 348.139H143.529Z" fill="#FEDD8E"/>
<path fill-rule="evenodd" clip-rule="evenodd" d="M498.328 490.401V530H636L593.893 490.401H498.328Z" fill="#8D1A00"/>
<path fill-rule="evenodd" clip-rule="evenodd" d="M143.53 453.919C133.461 453.919 132.729 434.303 119.548 422.753C100.325 438.153 0 530 0 530H143.53V453.919Z" fill="#CF1D00"/>
<path d="M212.365 453.919H347.474" stroke="black" stroke-width="1.25" stroke-linecap="round" stroke-linejoin="round"/>
<path d="M498.328 372.522L517.734 340.623" stroke="black" stroke-width="1.25" stroke-linecap="round" stroke-linejoin="round"/>
<path fill-rule="evenodd" clip-rule="evenodd" d="M356.995 196.894L319.465 143.545C319.465 143.545 325.506 123.563 328.619 117.88C331.731 112.196 341.983 110.913 341.068 120.996C340.152 131.079 339.786 137.496 339.786 137.496L376.584 112.196C387.752 104.68 392.328 113.846 386.653 119.713L368.895 137.862C368.895 137.862 378.415 151.795 383.541 160.412C388.667 169.028 388.667 177.278 380.795 182.044L356.995 196.894Z" fill="#DFA98B"/>
<path d="M319.464 143.545L212.365 215.593" stroke="black" stroke-width="1.25" stroke-linecap="round" stroke-linejoin="round"/>
<path d="M356.263 196.894L249.164 269.125" stroke="black" stroke-width="1.25" stroke-linecap="round" stroke-linejoin="round"/>
<path d="M191.312 93.6804C191.312 93.6804 155.429 182.228 143.529 219.993" stroke="black" stroke-width="1.25" stroke-linecap="round" stroke-linejoin="round"/>
<path d="M242.207 195.427L289.257 93.6804" stroke="black" stroke-width="1.25" stroke-linecap="round" stroke-linejoin="round"/>
<path d="M249.163 269.125C249.163 269.125 169.16 333.289 143.529 291.491" stroke="black" stroke-width="1.25" stroke-linecap="round" stroke-linejoin="round"/>
<path fill-rule="evenodd" clip-rule="evenodd" d="M296.579 59.3982C296.579 59.3982 297.861 48.7652 305.184 48.7652C312.507 48.7652 309.395 63.7981 309.395 63.7981L313.971 68.1979L320.562 59.2149H378.597C378.597 59.2149 396.538 13.0163 350.586 2.2C307.93 -7.88301 296.946 18.8828 294.016 31.1658C291.087 43.4487 296.579 59.3982 296.579 59.3982Z" fill="#CF1D00"/>
<path fill-rule="evenodd" clip-rule="evenodd" d="M351.503 78.0975C350.588 83.5974 351.87 91.4805 347.659 92.5804C343.448 93.6804 343.082 82.4974 343.082 82.4974C343.082 82.4974 352.419 72.5977 351.503 78.0975Z" fill="#DFA98B"/>
<path d="M332.279 76.4475H338.138" stroke="black" stroke-width="1.25" stroke-linecap="round" stroke-linejoin="round"/>
<path d="M356.08 76.4475H361.938" stroke="black" stroke-width="1.25" stroke-linecap="round" stroke-linejoin="round"/>
</g>
<defs>
<clipPath id="clip0_447:20201">
<rect width="636" height="530" fill="white"/>
</clipPath>
</defs>
</svg>
