<svg width="397" height="727" viewBox="0 0 397 727" fill="none" xmlns="http://www.w3.org/2000/svg">
<g clip-path="url(#clip0_447:19118)">
<path fill-rule="evenodd" clip-rule="evenodd" d="M167.812 56.8091C167.812 56.8091 139.688 69.2604 125.082 78.4432C110.476 87.6261 84.683 105.214 80.3324 140.077C75.9817 174.941 65.7265 244.512 65.7265 244.512C65.7265 244.512 57.1805 298.52 75.3601 302.567C93.5398 306.613 106.592 291.827 110.632 281.866C114.672 271.905 123.373 240.933 123.373 240.933C123.373 240.933 121.198 275.174 137.202 280.777C153.206 286.38 181.641 286.069 199.51 286.069C217.379 286.069 279.842 285.446 289.01 270.038V216.653C289.01 216.653 303.305 243.112 331.274 243.112C359.242 243.112 365.768 211.672 369.342 193.151C372.916 174.629 390.008 72.6845 390.008 72.6845H351.318L324.592 130.894C324.592 130.894 300.042 91.8284 266.324 72.6845C232.606 53.5406 215.048 54.3189 215.048 54.3189L167.812 56.8091Z" fill="#FFE8E5"/>
<path d="M123.373 240.933V125.447" stroke="#CF1D00" stroke-width="1.8" stroke-linecap="round" stroke-linejoin="round"/>
<path d="M324.592 130.894C324.592 130.894 309.676 161.867 310.297 175.408" stroke="#CF1D00" stroke-width="1.8" stroke-linecap="round" stroke-linejoin="round"/>
<path d="M266.324 72.6843C257.467 78.91 238.511 109.883 251.407 141.166C264.304 172.45 289.01 216.652 289.01 216.652" stroke="#CF1D00" stroke-width="1.8" stroke-linecap="round" stroke-linejoin="round"/>
<path fill-rule="evenodd" clip-rule="evenodd" d="M66.9698 236.73L16.7815 236.419C6.37094 236.419 6.52632 246.224 14.9169 246.224C23.3075 246.224 44.1287 253.073 44.1287 253.073V276.419C44.1287 282.8 52.3639 292.139 66.3482 292.139C80.3326 292.139 98.2015 279.998 98.2015 264.59C98.2015 249.182 86.0817 236.73 66.9698 236.73Z" fill="#FBBE2E"/>
<path d="M66.9692 236.419C59.5109 236.419 58.5786 242.333 56.8694 248.87C55.1602 255.407 51.431 272.061 57.957 271.594C64.4831 271.127 69.6107 257.897 72.2522 253.073" stroke="#0C114D" stroke-width="1.8" stroke-linecap="round" stroke-linejoin="round"/>
<path fill-rule="evenodd" clip-rule="evenodd" d="M136.892 280.621L54.2285 643.109C50.344 661.008 56.5592 669.568 72.2528 669.568C87.9463 669.568 106.437 674.238 123.529 643.576C140.621 612.915 134.561 564.822 145.904 545.211C157.247 525.6 186.148 474.706 186.148 474.706V658.207C186.148 671.747 194.693 690.891 208.833 690.891H252.651C252.651 690.891 286.058 569.491 283.572 539.297C281.086 509.102 269.277 490.114 271.763 478.752C274.249 467.39 293.516 369.025 293.516 351.282C293.516 333.539 287.922 271.594 287.922 271.594L136.892 280.621Z" fill="#002E13"/>
<path fill-rule="evenodd" clip-rule="evenodd" d="M98.2009 667.701L81.1089 727H-0.000324845C-0.000324845 727 -1.39876 716.261 14.9163 709.413C31.2314 702.564 60.9093 687.623 63.7061 668.479L98.2009 667.701Z" fill="#CF1D00"/>
<path fill-rule="evenodd" clip-rule="evenodd" d="M208.833 690.891C208.833 690.891 184.283 715.794 183.195 727H258.555C263.217 726.222 258.4 713.926 251.874 705.366C249.388 702.098 252.651 690.891 252.651 690.891H208.833Z" fill="#CF1D00"/>
<path d="M186.147 474.706V339.765" stroke="#00672E" stroke-width="1.8" stroke-linecap="round" stroke-linejoin="round"/>
<path d="M170.454 333.228C170.454 333.228 169.522 342.411 186.147 349.57" stroke="#00672E" stroke-width="1.8" stroke-linecap="round" stroke-linejoin="round"/>
<path d="M253.546 283.463L253.546 684.759" stroke="#00672E" stroke-width="1.8" stroke-linecap="round" stroke-linejoin="round"/>
<path fill-rule="evenodd" clip-rule="evenodd" d="M351.318 72.6844C351.318 72.6844 345.413 60.2331 356.911 54.3188H321.329C314.492 54.3188 312.628 45.2916 321.329 45.2916C330.03 45.2916 360.33 37.1982 372.45 37.1982C384.569 37.1982 397 43.5795 397 54.3188C396.779 61.0505 394.318 67.515 390.008 72.6844H351.318Z" fill="#FBBE2E"/>
<path d="M384.57 56.8091C384.57 56.8091 383.637 67.704 379.908 72.6845" stroke="#0C114D" stroke-width="1.8" stroke-linecap="round" stroke-linejoin="round"/>
<path d="M357.223 54.3188C357.223 54.3188 353.649 67.704 364.837 64.7468" stroke="#0C114D" stroke-width="1.8" stroke-linecap="round" stroke-linejoin="round"/>
<path d="M217.571 49.1584C229.03 38.5289 229.717 20.6067 219.106 9.12791C208.494 -2.35086 190.602 -3.03936 179.142 7.5901C167.682 18.2196 166.995 36.1418 177.607 47.6206C188.219 59.0993 206.111 59.7878 217.571 49.1584Z" fill="#FBBE2E"/>
<path fill-rule="evenodd" clip-rule="evenodd" d="M169.832 26.6147C164.393 32.8404 133.628 61.9453 156.158 79.2215C178.689 96.4976 207.279 62.4122 221.263 44.9804C226.857 38.1322 226.546 28.4824 226.546 28.4824H218.156C210.41 33.9513 201.214 36.9856 191.741 37.1983C176.513 37.0427 170.764 36.5758 169.832 26.6147Z" fill="#0C114D"/>
<path d="M187.235 15.5642C187.235 15.5642 185.215 20.5447 176.669 20.5447L185.215 26.6147" stroke="#0C114D" stroke-width="1.8" stroke-linecap="round" stroke-linejoin="round"/>
<path fill-rule="evenodd" clip-rule="evenodd" d="M168.278 83.8907C168.278 83.8907 147.923 100.389 157.712 106.459C167.501 112.529 179 85.914 179 85.914C179 85.914 185.526 111.284 198.267 106.459C211.008 101.634 190.653 76.1086 190.653 76.1086L168.278 83.8907Z" fill="black"/>
<path d="M198.267 18.677L200.597 16.498" stroke="black" stroke-width="1.8" stroke-linecap="round" stroke-linejoin="round"/>
<path d="M181.952 11.6731L183.817 9.80542" stroke="black" stroke-width="1.8" stroke-linecap="round" stroke-linejoin="round"/>
</g>
<defs>
<clipPath id="clip0_447:19118">
<rect width="397" height="727" fill="white"/>
</clipPath>
</defs>
</svg>
