<svg width="372" height="729" viewBox="0 0 372 729" fill="none" xmlns="http://www.w3.org/2000/svg">
<path fill-rule="evenodd" clip-rule="evenodd" d="M260.246 1.39648C268.245 1.39648 276.065 3.76959 282.717 8.2157C289.368 12.6618 294.552 18.9812 297.614 26.3749C300.675 33.7685 301.476 41.9042 299.915 49.7532C298.355 57.6022 294.502 64.812 288.846 70.4709C283.189 76.1297 275.982 79.9834 268.136 81.5447C260.29 83.1059 252.158 82.3046 244.767 79.2421C237.377 76.1796 231.06 70.9933 226.615 64.3393C222.171 57.6852 219.799 49.8621 219.799 41.8593C219.799 31.1279 224.06 20.836 231.645 13.2478C239.231 5.65952 249.518 1.39648 260.246 1.39648Z" fill="#C98600"/>
<path d="M258.649 54.1045C258.649 54.1045 254.924 62.8892 262.64 65.8174C266.369 67.1193 270.415 67.202 274.193 66.0537C277.972 64.9053 281.288 62.5852 283.662 59.4285" stroke="#C98600" stroke-width="1.82" stroke-linecap="round" stroke-linejoin="round"/>
<path d="M268.229 56.2343L274.349 50.644" stroke="#C98600" stroke-width="1.82" stroke-linecap="round" stroke-linejoin="round"/>
<path fill-rule="evenodd" clip-rule="evenodd" d="M226.984 18.9658H203.567C199.842 18.9658 202.236 24.8223 207.292 26.6857C212.348 28.5491 220.597 33.0746 220.597 33.0746L226.984 18.9658Z" fill="#C98600"/>
<path fill-rule="evenodd" clip-rule="evenodd" d="M249.07 2.99365L277.276 28.0167L263.705 44.2551C263.705 44.2551 278.341 36.5352 283.13 43.4565C287.92 50.3778 284.461 54.637 280.735 59.1625C278.837 61.6563 277.9 64.7507 278.095 67.8793C278.29 71.0079 279.606 73.9615 281.8 76.1994C298.83 66.3499 307.611 46.6509 299.096 27.2181C283.396 -9.51789 249.07 2.99365 249.07 2.99365Z" fill="#1C2126"/>
<path fill-rule="evenodd" clip-rule="evenodd" d="M219.799 38.9311C228.314 38.9311 243.482 29.0816 249.07 36.2691C254.658 43.4566 238.426 57.0329 222.46 56.2343C220.392 50.7112 219.486 44.8206 219.799 38.9311Z" fill="white"/>
<path d="M240.022 20.5631L242.95 17.3687" stroke="#1C2126" stroke-width="2.5" stroke-linecap="round" stroke-linejoin="round"/>
<path fill-rule="evenodd" clip-rule="evenodd" d="M257.851 82.322C244.28 82.322 189.996 82.8544 176.159 121.454C162.322 160.053 153.541 210.366 153.541 210.366H72.9133C72.9133 210.366 72.3811 232.194 60.1406 238.317C77.9691 246.303 163.386 280.377 172.434 283.305C181.481 286.233 191.859 290.226 201.172 281.708V312.587H353.912V286.5C353.912 286.5 374.135 279.578 371.74 248.699C369.346 217.819 359.766 141.153 358.169 124.648C356.573 108.144 344.599 90.3081 325.173 88.1785C305.748 86.0489 271.422 82.322 257.851 82.322Z" fill="#014A82"/>
<path fill-rule="evenodd" clip-rule="evenodd" d="M234.967 106.28L255.988 209.833L285.791 107.611L257.851 82.322L234.967 106.28Z" fill="white"/>
<path fill-rule="evenodd" clip-rule="evenodd" d="M242.949 82.8544C242.949 82.8544 224.322 103.352 232.305 106.28C240.288 109.209 257.851 82.322 257.851 82.322C257.851 82.322 275.945 111.604 288.718 107.079C301.49 102.553 279.671 83.653 279.671 83.653L242.949 82.8544Z" fill="#FF341A"/>
<path fill-rule="evenodd" clip-rule="evenodd" d="M72.9131 210.366H6.65491C-5.31947 210.366 0.800766 216.488 9.84807 219.15C18.8954 221.812 61.649 238.947 61.649 238.947C61.649 238.947 74.2436 227.669 72.9131 210.366Z" fill="#C98600"/>
<path d="M171.635 210.366H324.109" stroke="#1C2126" stroke-width="1.82" stroke-linecap="round" stroke-linejoin="round"/>
<path d="M202.237 210.366V167.773" stroke="#1C2126" stroke-width="1.82" stroke-linecap="round" stroke-linejoin="round"/>
<path d="M311.336 210.366V167.773" stroke="#1C2126" stroke-width="1.82" stroke-linecap="round" stroke-linejoin="round"/>
<path d="M159.927 238.317C159.927 238.317 273.018 278.514 299.894 286.766C326.77 295.018 345.13 291.557 353.912 286.5" stroke="#1C2126" stroke-width="1.82" stroke-linecap="round" stroke-linejoin="round"/>
<path d="M201.172 281.708V252.958" stroke="#1C2126" stroke-width="1.82" stroke-linecap="round" stroke-linejoin="round"/>
<path fill-rule="evenodd" clip-rule="evenodd" d="M201.172 312.588V682.343H263.173H309.829C309.829 682.343 348.59 580.654 353.912 494.67C359.234 408.687 353.912 312.588 353.912 312.588H201.172Z" fill="#FFF3D6"/>
<path d="M263.172 682.343V375.944" stroke="#5B3100" stroke-width="2" stroke-linecap="round" stroke-linejoin="round"/>
<path d="M315.062 330.956L333.422 375.944" stroke="#5B3100" stroke-width="2" stroke-linecap="round" stroke-linejoin="round"/>
<path fill-rule="evenodd" clip-rule="evenodd" d="M207.026 682.344C207.026 682.344 205.696 692.992 191.327 700.978C176.957 708.964 140.502 723.339 140.236 728.929H263.173V682.344H207.026Z" fill="#014A82"/>
<path fill-rule="evenodd" clip-rule="evenodd" d="M263.062 682.163C263.062 682.163 238.957 722.274 239.49 728.929H324.109C324.109 728.929 327.568 724.67 324.109 716.151C320.649 707.633 309.829 682.163 309.829 682.163H263.062Z" fill="#014A82"/>
<path fill-rule="evenodd" clip-rule="evenodd" d="M170.836 210.569H165.248L146.621 192.201C142.896 188.74 135.977 194.33 139.702 198.323C142.481 201.992 144.556 206.144 145.823 210.569H101.651C101.651 210.569 95.2642 219.087 106.972 224.677C118.51 230.01 130.542 234.201 142.896 237.189C150.08 239.052 160.458 240.383 164.716 231.332C167.473 224.643 169.525 217.684 170.836 210.569Z" fill="#C98600"/>
</svg>
