<svg width="690" height="983" viewBox="0 0 690 983" fill="none" xmlns="http://www.w3.org/2000/svg">
<path fill-rule="evenodd" clip-rule="evenodd" d="M189.28 244.029H472.085L405.149 177.07L545.715 36.2695L690 180.79L549.434 321.405L501.091 273.045H320.549L301.212 367.532L189.28 244.029Z" fill="#0C114D"/>
<path d="M606.133 398.867C618.241 398.402 627.68 388.205 627.215 376.093C626.749 363.98 616.557 354.538 604.448 355.004C592.34 355.469 582.901 365.665 583.367 377.778C583.832 389.89 594.025 399.332 606.133 398.867Z" fill="#8D1A00"/>
<path fill-rule="evenodd" clip-rule="evenodd" d="M627.712 561.156H569.329L536.604 832.527H634.406C634.197 809.881 632.583 787.27 629.571 764.824C624.551 730.973 631.989 673.127 638.124 650.993C644.26 628.86 641.843 592.59 627.712 561.156Z" fill="#0C114D"/>
<path fill-rule="evenodd" clip-rule="evenodd" d="M569.329 561.156C569.701 559.11 569.515 536.046 569.515 526.189C569.515 516.331 567.284 501.823 563.194 493.453C559.103 485.083 558.917 444.721 565.239 428.354H573.792V384.458H602.983C602.983 384.458 617.858 443.791 622.321 459.229C626.783 474.667 626.411 481.363 626.411 492.895V561.156H569.329Z" fill="#FF341A"/>
<path fill-rule="evenodd" clip-rule="evenodd" d="M545.157 832.528L540.881 872.331H574.721L580.485 832.528H545.157Z" fill="white"/>
<path fill-rule="evenodd" clip-rule="evenodd" d="M574.721 872.331H540.881L531.213 960.122C515.036 967.748 505.554 975.374 501.277 983H558.359L574.721 872.331Z" fill="#163BF3"/>
<path fill-rule="evenodd" clip-rule="evenodd" d="M593.314 832.528L600.008 874.749L636.823 874.005L632.175 832.528H593.314Z" fill="white"/>
<path fill-rule="evenodd" clip-rule="evenodd" d="M613.209 959.192L600.008 874.749H637.008L649.466 983H591.641C597.405 971.096 604.656 963.47 613.209 959.192Z" fill="#163BF3"/>
<path d="M589.038 424.448L591.641 454.765" stroke="#8D1A00" stroke-width="1.82" stroke-linecap="round" stroke-linejoin="round"/>
<path d="M572.118 428.168V439.514" stroke="#8D1A00" stroke-width="1.82" stroke-linecap="round" stroke-linejoin="round"/>
<path fill-rule="evenodd" clip-rule="evenodd" d="M576.209 384.458C576.209 367.16 576.581 312.291 577.882 291.273C579.184 270.255 584.39 254.073 584.762 249.238C585.134 244.402 585.506 218.548 594.616 218.548C603.727 218.548 602.24 228.22 602.426 232.312C602.612 236.404 607.632 230.266 609.863 232.684C612.094 235.102 601.124 244.774 600.194 251.656C599.265 258.537 602.983 384.458 602.983 384.458H576.209Z" fill="#FFC7BF"/>
<path fill-rule="evenodd" clip-rule="evenodd" d="M573.791 384.458C564.494 384.458 556.499 389.48 554.826 398.966C553.152 408.452 552.037 409.94 553.896 414.218C555.756 418.496 560.032 420.914 565.052 421.844V428.354H573.791V384.458Z" fill="#FFC7BF"/>
<path fill-rule="evenodd" clip-rule="evenodd" d="M554.826 398.966L547.203 406.406H552.967L554.826 398.966Z" fill="#FFC7BF"/>
<path fill-rule="evenodd" clip-rule="evenodd" d="M565.982 304.107V385.76L573.792 384.458H576.209L577.696 292.389L565.982 304.107Z" fill="#FFC7BF"/>
<path fill-rule="evenodd" clip-rule="evenodd" d="M545.716 36.2697L576.767 5.20798C580.108 1.90264 584.618 0.0488281 589.317 0.0488281C594.017 0.0488281 598.526 1.90264 601.868 5.20798L664.899 68.2613C668.204 71.604 670.057 76.1153 670.057 80.8162C670.057 85.5171 668.204 90.0284 664.899 93.3711L633.848 124.619L621.391 112.157C621.391 112.157 639.612 94.1151 647.422 86.1171C647.911 85.6484 648.3 85.0854 648.566 84.462C648.832 83.8387 648.969 83.1679 648.969 82.4902C648.969 81.8124 648.832 81.1417 648.566 80.5183C648.3 79.895 647.911 79.332 647.422 78.8632L592.199 23.4358C591.177 22.5208 589.853 22.0149 588.481 22.0149C587.109 22.0149 585.785 22.5208 584.762 23.4358L558.917 49.4755L545.716 36.2697Z" fill="#163BF3"/>
<path d="M320.55 273.045L291.358 244.03" stroke="black" stroke-width="1.82" stroke-linecap="round" stroke-linejoin="round"/>
<path d="M194.673 249.981C194.673 249.981 1.67383 321.963 1.67383 543.115" stroke="#0C114D" stroke-width="1.82" stroke-linecap="round" stroke-linejoin="round"/>
<path d="M215.497 272.859C215.497 272.859 79.0213 334.053 51.875 543.114" stroke="#0C114D" stroke-width="1.82" stroke-linecap="round" stroke-linejoin="round"/>
<path d="M237.81 297.597C237.81 297.597 126.621 367.718 109.144 543.114" stroke="#0C114D" stroke-width="1.82" stroke-linecap="round" stroke-linejoin="round"/>
<path d="M264.584 327.171C264.584 327.171 178.683 395.432 173.477 543.114" stroke="#0C114D" stroke-width="1.82" stroke-linecap="round" stroke-linejoin="round"/>
<path fill-rule="evenodd" clip-rule="evenodd" d="M573.792 384.458C561.52 384.458 557.43 392.27 557.43 392.27L573.792 396.362V384.458Z" fill="#8D1A00"/>
</svg>
