<svg width="532" height="592" viewBox="0 0 532 592" fill="none" xmlns="http://www.w3.org/2000/svg">
<g clip-path="url(#clip0_447:20395)">
<path fill-rule="evenodd" clip-rule="evenodd" d="M266.131 76.0452H496.507V108.636H476.862C476.862 108.636 416.092 128.923 391.993 128.923C369.99 134.159 338.95 148.425 330.044 148.425V222.507H260.106L266.131 76.0452Z" fill="#014A82"/>
<path fill-rule="evenodd" clip-rule="evenodd" d="M265.869 76.0452H35.4932V99.8665L57.6271 101.961C57.6271 101.961 115.909 128.923 140.007 128.923C162.01 134.159 193.05 148.556 201.956 148.556V222.507H271.894L265.869 76.0452Z" fill="#014A82"/>
<path fill-rule="evenodd" clip-rule="evenodd" d="M263.774 0C270.664 0 277.399 2.04191 283.128 5.86753C288.858 9.69314 293.323 15.1306 295.96 21.4924C298.596 27.8541 299.286 34.8545 297.942 41.6081C296.598 48.3617 293.28 54.5653 288.408 59.4343C283.536 64.3034 277.328 67.6193 270.57 68.9627C263.812 70.3061 256.807 69.6166 250.442 66.9815C244.076 64.3463 238.635 59.8839 234.807 54.1585C230.979 48.433 228.936 41.7018 228.936 34.8158C228.936 25.5821 232.606 16.7266 239.139 10.1973C245.673 3.66809 254.534 0 263.774 0V0Z" fill="#8D1A00"/>
<path fill-rule="evenodd" clip-rule="evenodd" d="M263.25 34.2922C275.692 34.2922 285.907 49.606 285.907 68.3228C285.907 87.0395 275.692 102.353 263.25 102.353C250.807 102.353 240.592 87.1704 240.592 68.3228C240.592 49.4751 250.676 34.2922 263.25 34.2922Z" fill="black"/>
<path fill-rule="evenodd" clip-rule="evenodd" d="M263.25 28.1406C277.788 28.1406 289.706 42.1455 289.706 59.4225C289.706 76.6995 277.788 90.5735 263.25 90.5735C248.712 90.5735 236.794 76.5687 236.794 59.4225C236.794 42.2764 248.581 28.1406 263.25 28.1406Z" fill="#DFA98B"/>
<path fill-rule="evenodd" clip-rule="evenodd" d="M201.956 222.507L105.3 564.907H153.759L277.525 272.375L285.384 222.507H201.956Z" fill="#FBBE2E"/>
<path fill-rule="evenodd" clip-rule="evenodd" d="M330.044 222.507L426.7 564.907H378.241L258.928 264.653L268.881 222.507H330.044Z" fill="#FBBE2E"/>
<path fill-rule="evenodd" clip-rule="evenodd" d="M35.4932 76.0451C33.7905 74.3436 23.9678 71.8567 16.6335 69.5008C9.29916 67.1448 8.77529 71.7259 12.1805 73.82L21.7413 77.7466H3.40552C-0.130672 77.7466 -1.04746 80.4953 1.44097 83.113C3.9294 85.7307 14.0141 95.9399 19.9077 96.4634C28.0279 97.1178 32.7428 89.6573 35.4932 89.6573V76.0451Z" fill="#DFA98B"/>
<path fill-rule="evenodd" clip-rule="evenodd" d="M496.507 76.0451C498.209 74.3436 508.032 71.8567 515.366 69.5008C522.701 67.1448 523.225 71.7259 519.95 73.82L510.259 77.7466H528.594C532.262 77.7466 533.178 80.4953 530.559 83.113C527.94 85.7307 517.986 95.9399 512.223 96.4634C503.972 97.1178 499.388 89.6573 496.507 89.6573V76.0451Z" fill="#DFA98B"/>
<path fill-rule="evenodd" clip-rule="evenodd" d="M106.216 562.42C102.68 570.796 58.8052 568.702 58.1504 592H145.376L154.675 562.42H106.216Z" fill="#163BF3"/>
<path fill-rule="evenodd" clip-rule="evenodd" d="M426.177 562.42C429.582 570.796 473.457 568.702 474.112 592H386.886L377.718 562.42H426.177Z" fill="#163BF3"/>
<path fill-rule="evenodd" clip-rule="evenodd" d="M252.772 53.6635C253.306 53.6625 253.82 53.8651 254.21 54.2299C254.599 54.5948 254.834 55.0944 254.868 55.6268C254.868 56.1823 254.647 56.7149 254.254 57.1077C253.861 57.5004 253.328 57.721 252.772 57.721C252.217 57.721 251.684 57.5004 251.291 57.1077C250.898 56.7149 250.677 56.1823 250.677 55.6268C250.676 55.3576 250.731 55.0912 250.838 54.844C250.945 54.5969 251.101 54.3743 251.298 54.1902C251.494 54.006 251.727 53.8643 251.98 53.7737C252.234 53.6831 252.503 53.6456 252.772 53.6635Z" fill="black"/>
<path fill-rule="evenodd" clip-rule="evenodd" d="M274.251 53.6635C274.785 53.6625 275.299 53.8651 275.688 54.2299C276.078 54.5948 276.313 55.0944 276.346 55.6268C276.346 56.1823 276.126 56.7149 275.733 57.1077C275.34 57.5004 274.807 57.721 274.251 57.721C273.695 57.721 273.162 57.5004 272.769 57.1077C272.376 56.7149 272.155 56.1823 272.155 55.6268C272.155 55.3576 272.209 55.0912 272.316 54.844C272.423 54.5969 272.58 54.3743 272.776 54.1902C272.973 54.006 273.205 53.8643 273.459 53.7737C273.712 53.6831 273.982 53.6456 274.251 53.6635Z" fill="black"/>
<path d="M263.773 55.6267L259.32 68.3227H266.393L260.499 74.2126C262.101 75.7219 264.193 76.6046 266.393 76.6994C269.798 76.6994 273.072 73.6891 273.072 73.6891" stroke="#8D1A00" stroke-miterlimit="10"/>
<path d="M247.926 50.5223C248.675 49.7465 249.608 49.1718 250.638 48.8515C251.668 48.5313 252.762 48.4757 253.819 48.6899" stroke="#8D1A00" stroke-width="1.27" stroke-linecap="round" stroke-linejoin="round"/>
<path d="M279.097 50.5223C278.348 49.7465 277.415 49.1718 276.385 48.8515C275.355 48.5313 274.26 48.4757 273.203 48.6899" stroke="#8D1A00" stroke-width="1.27" stroke-linecap="round" stroke-linejoin="round"/>
<path d="M286.955 25.3921H239.413V37.4206H286.955V25.3921Z" fill="#8D1A00"/>
<path fill-rule="evenodd" clip-rule="evenodd" d="M201.956 148.556V133.635L184.93 143.975C184.93 143.975 196.455 148.556 201.956 148.556Z" fill="black"/>
<path fill-rule="evenodd" clip-rule="evenodd" d="M329.782 148.556V133.635L346.808 143.975C346.808 143.975 335.283 148.556 329.782 148.556Z" fill="black"/>
<path d="M245.699 276.432L269.536 291.353L289.705 277.872" stroke="black" stroke-width="1.27" stroke-linecap="round" stroke-linejoin="round"/>
<path d="M166.855 406.01H182.572" stroke="black" stroke-width="1.27" stroke-linecap="round" stroke-linejoin="round"/>
<path fill-rule="evenodd" clip-rule="evenodd" d="M235.222 55.6267C236.369 55.6267 237.468 56.0818 238.279 56.8918C239.089 57.7018 239.544 58.8004 239.544 59.946C239.544 61.0915 239.089 62.1901 238.279 63.0001C237.468 63.8102 236.369 64.2652 235.222 64.2652C234.076 64.2652 232.977 63.8102 232.166 63.0001C231.356 62.1901 230.9 61.0915 230.9 59.946C230.9 58.8004 231.356 57.7018 232.166 56.8918C232.977 56.0818 234.076 55.6267 235.222 55.6267Z" fill="#DFA98B"/>
<path fill-rule="evenodd" clip-rule="evenodd" d="M291.015 55.6267C292.162 55.6267 293.261 56.0818 294.072 56.8918C294.882 57.7018 295.337 58.8004 295.337 59.946C295.337 61.0915 294.882 62.1901 294.072 63.0001C293.261 63.8102 292.162 64.2652 291.015 64.2652C289.869 64.2652 288.77 63.8102 287.959 63.0001C287.149 62.1901 286.693 61.0915 286.693 59.946C286.693 58.8004 287.149 57.7018 287.959 56.8918C288.77 56.0818 289.869 55.6267 291.015 55.6267Z" fill="#DFA98B"/>
<path fill-rule="evenodd" clip-rule="evenodd" d="M201.955 222.507L199.336 231.931L332.532 231.277L330.044 222.507H201.955Z" fill="black"/>
</g>
<defs>
<clipPath id="clip0_447:20395">
<rect width="532" height="592" fill="white"/>
</clipPath>
</defs>
</svg>
