<svg width="459" height="739" viewBox="0 0 459 739" fill="none" xmlns="http://www.w3.org/2000/svg">
<path fill-rule="evenodd" clip-rule="evenodd" d="M272.053 105.633C267.905 105.633 217.985 115.509 211.406 115.509H133.023L124.44 174.194C124.44 174.194 158.34 198.813 193.669 191.37C211.549 211.122 230.43 210.264 236.866 209.691C237.152 222.573 243.017 253.204 244.018 262.937C244.883 269.218 247.512 275.125 251.599 279.97C251.599 279.97 241.872 329.78 223.278 362.558C204.683 395.336 201.25 434.841 198.819 464.469C196.387 494.098 178.079 528.45 166.922 546.771C155.765 565.092 155.765 617.622 162.059 624.35H439.404C439.404 580.98 422.669 555.502 424.242 516.284C425.816 477.065 436.257 421.959 427.389 387.463C418.521 352.968 391.773 307.452 389.771 292.422C387.768 277.393 393.347 272.384 393.347 272.384C393.347 272.384 440.262 270.38 451.276 236.743C462.29 203.107 464.721 158.735 436.257 132.828C407.793 106.921 395.063 108.925 370.747 106.062C346.431 103.2 331.412 100.48 331.412 100.48C331.412 100.48 276.201 105.633 272.053 105.633Z" fill="#133191"/>
<path fill-rule="evenodd" clip-rule="evenodd" d="M76.9532 110.929L57.0713 152.008L132.737 179.347L153.477 115.509L76.9532 110.929Z" fill="#133191"/>
<path d="M344.572 167.896C344.572 167.896 354.442 200.387 394.635 210.55C399.641 225.865 399.927 258.929 393.347 272.384" stroke="#163BF3" stroke-width="2.08" stroke-linecap="round" stroke-linejoin="round"/>
<path d="M236.866 209.691L235.579 174.766" stroke="#163BF3" stroke-width="2.08" stroke-linecap="round" stroke-linejoin="round"/>
<path fill-rule="evenodd" clip-rule="evenodd" d="M186.661 624.35L168.639 698.922H210.405L236.866 624.35H186.661Z" fill="#DFA98B"/>
<path fill-rule="evenodd" clip-rule="evenodd" d="M319.541 624.35L341.425 698.922H374.896L385.623 624.35H319.541Z" fill="#DFA98B"/>
<path fill-rule="evenodd" clip-rule="evenodd" d="M186.661 624.35L184.372 633.654L232.861 635.801L236.866 624.35H186.661Z" fill="#163BF3"/>
<path fill-rule="evenodd" clip-rule="evenodd" d="M319.541 624.35L322.974 635.801H383.907L385.623 624.35H319.541Z" fill="#163BF3"/>
<path fill-rule="evenodd" clip-rule="evenodd" d="M168.638 698.922C166.493 706.652 157.768 719.104 151.045 721.967C144.322 724.83 126.872 732.702 126.872 739H197.102L210.548 698.922H168.638Z" fill="#8D1A00"/>
<path fill-rule="evenodd" clip-rule="evenodd" d="M341.425 698.922C342.998 704.791 327.98 730.841 330.268 739H395.635C395.635 739 395.921 731.271 385.623 721.967C375.324 712.663 373.608 703.789 374.895 698.922H341.425Z" fill="#8D1A00"/>
<path fill-rule="evenodd" clip-rule="evenodd" d="M293.079 55.1064C298.935 55.1064 304.659 56.8441 309.528 60.0998C314.398 63.3554 318.192 67.9828 320.433 73.3967C322.674 78.8107 323.261 84.768 322.118 90.5154C320.976 96.2628 318.156 101.542 314.015 105.686C309.874 109.829 304.599 112.651 298.855 113.795C293.112 114.938 287.159 114.351 281.748 112.109C276.338 109.866 271.714 106.068 268.461 101.196C265.207 96.3236 263.471 90.5952 263.471 84.7352C263.471 76.8771 266.59 69.341 272.143 63.7845C277.695 58.228 285.226 55.1064 293.079 55.1064Z" fill="#DFA98B"/>
<path fill-rule="evenodd" clip-rule="evenodd" d="M266.332 71.8532H297.657C300.804 71.8532 308.67 77.1492 309.958 86.0235C309.958 77.2923 316.394 73.5708 320.685 74.2865C318.826 68.5611 309.386 55.1066 293.08 55.1066C287.497 55.0907 282.024 56.6545 277.291 59.6176C272.558 62.5807 268.759 66.8224 266.332 71.8532Z" fill="black"/>
<path fill-rule="evenodd" clip-rule="evenodd" d="M293.079 55.1066C293.079 55.1066 282.924 46.0891 287.215 33.6365C291.506 21.1838 308.956 -3.43518 326.549 0.429433C344.143 4.29405 357.016 40.7932 348.577 52.8164C340.138 64.8397 318.253 69.2768 318.253 69.2768L293.079 55.1066Z" fill="black"/>
<path fill-rule="evenodd" clip-rule="evenodd" d="M285.07 113.219C285.07 113.219 266.332 135.404 276.773 139.126C287.215 142.847 296.369 114.078 296.369 114.078L285.07 113.219Z" fill="white"/>
<path fill-rule="evenodd" clip-rule="evenodd" d="M296.369 114.078C296.369 114.078 302.234 142.132 315.107 136.407C327.98 130.681 313.819 121.377 320.685 113.219C327.551 105.06 331.27 100.48 331.27 100.48L322.545 90.7468L296.369 114.078Z" fill="white"/>
<path d="M271.91 79.5825V82.8746" stroke="black" stroke-width="1.8" stroke-linecap="round" stroke-linejoin="round"/>
<path d="M289.933 79.5825V82.8746" stroke="black" stroke-width="1.8" stroke-linecap="round" stroke-linejoin="round"/>
<path d="M271.91 75.8608H279.634C282.066 75.8608 284.926 78.4372 280.921 83.4469C277.987 87.1542 275.265 91.0251 272.768 95.0408H285.928" stroke="black" stroke-width="1.8" stroke-linecap="round" stroke-linejoin="round"/>
<path fill-rule="evenodd" clip-rule="evenodd" d="M53.4948 101.053L7.4375 100.766C-2.28889 100.623 -2.00282 109.784 5.72108 109.784C13.445 109.784 32.4687 116.082 32.4687 116.082V137.409C32.4687 143.277 40.1926 152.008 53.0657 152.008C65.9389 152.008 82.3879 140.701 82.3879 126.53C82.3879 112.36 71.0882 101.053 53.4948 101.053Z" fill="#DFA98B"/>
<path d="M53.4956 100.766C46.773 100.766 45.7717 106.205 44.1983 112.074C42.6249 117.942 39.1921 133.401 45.3426 132.971C51.4931 132.542 55.9272 120.375 58.5018 116.081" stroke="black" stroke-width="1.8" stroke-linecap="round" stroke-linejoin="round"/>
</svg>
