<svg width="481" height="685" viewBox="0 0 481 685" fill="none" xmlns="http://www.w3.org/2000/svg">
<g clip-path="url(#clip0_447:19176)">
<path d="M318.1 25.7207H0V343.224H318.1V25.7207Z" fill="#163BF3"/>
<path fill-rule="evenodd" clip-rule="evenodd" d="M0 25.7207V343.239L318.1 25.7207H0Z" fill="#BDC7FB"/>
<path fill-rule="evenodd" clip-rule="evenodd" d="M101.294 25.7208C101.294 25.7208 115.066 8.42578 131.208 8.42578C147.35 8.42578 152.83 15.9646 159.049 25.7208C165.269 35.4769 155.051 46.2678 143.352 46.2678C131.653 46.2678 116.695 25.7208 116.695 25.7208H101.294Z" fill="#DFA98B"/>
<path fill-rule="evenodd" clip-rule="evenodd" d="M318.099 122.543H399.994C428.427 122.543 447.531 129.491 448.123 149.151C448.716 168.811 427.687 193.497 427.687 193.497C427.687 193.497 384.74 339.691 377.78 366.299C370.82 392.907 358.084 436.218 372.597 480.712C382.265 512.38 388.86 544.902 392.293 577.83H120.102L218.582 341.17H318.099V122.543Z" fill="#24A865"/>
<path fill-rule="evenodd" clip-rule="evenodd" d="M272.784 316.484L318.1 254.695C325.364 284.003 325.058 314.672 317.212 343.83L272.784 316.484Z" fill="#24A865"/>
<path d="M383.852 165.115L318.1 254.695" stroke="#00672E" stroke-width="1.22" stroke-linecap="round" stroke-linejoin="round"/>
<path fill-rule="evenodd" clip-rule="evenodd" d="M272.784 316.484L237.538 343.535H218.73C218.73 343.535 227.172 366.595 249.83 366.595C272.488 366.595 302.55 359.795 318.1 343.535L272.784 316.484Z" fill="#DFA98B"/>
<path d="M427.687 193.645L318.1 342.943" stroke="#00672E" stroke-width="1.22" stroke-linecap="round" stroke-linejoin="round"/>
<path fill-rule="evenodd" clip-rule="evenodd" d="M120.102 577.978L94.0381 640.506H147.351L172.823 577.978H120.102Z" fill="#163BF3"/>
<path fill-rule="evenodd" clip-rule="evenodd" d="M328.91 577.978L350.976 653.662L405.621 636.071L392.293 577.978H328.91Z" fill="#163BF3"/>
<path fill-rule="evenodd" clip-rule="evenodd" d="M94.0382 640.506C94.0382 640.506 37.3193 673.618 36.875 681.452H127.655L147.203 640.506H94.0382Z" fill="#FBBE2E"/>
<path fill-rule="evenodd" clip-rule="evenodd" d="M350.976 653.662L311.436 685H414.211C414.211 685 413.767 654.105 405.622 636.071C387.406 641.541 350.976 653.662 350.976 653.662Z" fill="#FBBE2E"/>
<path fill-rule="evenodd" clip-rule="evenodd" d="M392.885 53.0675C399.733 53.0967 406.418 55.1501 412.097 58.9686C417.776 62.7871 422.195 68.1995 424.795 74.5225C427.395 80.8455 428.06 87.7957 426.707 94.4958C425.353 101.196 422.041 107.345 417.189 112.168C412.336 116.991 406.162 120.27 399.444 121.593C392.726 122.916 385.766 122.222 379.442 119.6C373.119 116.978 367.715 112.544 363.914 106.859C360.113 101.174 358.084 94.4924 358.084 87.6574C358.084 83.1026 358.985 78.5925 360.736 74.3862C362.487 70.1799 365.052 66.3601 368.286 63.1462C371.52 59.9323 375.357 57.3875 379.579 55.6579C383.8 53.9283 388.322 53.048 392.885 53.0675Z" fill="#DFA98B"/>
<path fill-rule="evenodd" clip-rule="evenodd" d="M366.889 68.267C365.044 70.4686 359.368 74.6327 355.681 74.9248C351.995 75.2168 351.907 78.4463 354.118 79.0933L363.279 81.7736C363.279 81.7736 368.734 66.0655 366.889 68.267Z" fill="#DFA98B"/>
<path fill-rule="evenodd" clip-rule="evenodd" d="M440.571 0C448.568 0 456.384 2.36678 463.033 6.80104C469.681 11.2353 474.863 17.5379 477.923 24.9118C480.983 32.2857 481.784 40.3997 480.224 48.2279C478.664 56.056 474.813 63.2465 469.159 68.8903C463.505 74.534 456.301 78.3775 448.459 79.9346C440.616 81.4917 432.487 80.6925 425.1 77.6381C417.713 74.5838 411.398 69.4114 406.956 62.775C402.514 56.1387 400.143 48.3364 400.143 40.355C400.143 29.6522 404.402 19.3877 411.984 11.8197C419.566 4.25167 429.849 0 440.571 0V0Z" fill="black"/>
<ellipse rx="1.62856" ry="3.25695" transform="matrix(0.804171 0.594398 -0.594541 0.804065 374.582 71.9782)" fill="black"/>
</g>
<defs>
<clipPath id="clip0_447:19176">
<rect width="481" height="685" fill="white"/>
</clipPath>
</defs>
</svg>
