<svg width="407" height="569" viewBox="0 0 407 569" fill="none" xmlns="http://www.w3.org/2000/svg">
<g clip-path="url(#clip0_447:20420)">
<path fill-rule="evenodd" clip-rule="evenodd" d="M38.457 223.148C30.6232 241.847 18.3385 318.782 78.5161 318.782H216.319V448.789L289.316 411.568C289.316 411.568 318.336 318.782 324.924 296.699C331.511 274.616 327.06 242.381 298.04 234.546C269.019 226.71 194.954 223.148 194.954 223.148H38.457Z" fill="#FF7968"/>
<path d="M270.087 61.6193C272.939 61.6193 275.25 54.3635 275.25 45.413C275.25 36.4626 272.939 29.2068 270.087 29.2068C267.235 29.2068 264.924 36.4626 264.924 45.413C264.924 54.3635 267.235 61.6193 270.087 61.6193Z" fill="white"/>
<path fill-rule="evenodd" clip-rule="evenodd" d="M259.939 16.7405C264.568 21.1928 268.307 30.8097 268.307 42.0294V77.4695C268.307 86.0178 264.212 100.443 254.064 99.5527C243.915 98.6623 222.729 78.7161 222.729 78.7161L230.206 49.1531C230.384 49.1531 255.31 12.2883 259.939 16.7405Z" fill="#935000"/>
<path fill-rule="evenodd" clip-rule="evenodd" d="M155.073 60.551C155.073 60.551 141.542 36.3306 159.88 21.1929C178.219 6.0552 215.073 -7.12352 243.203 4.27429C255.488 10.6856 259.939 16.7406 259.939 16.7406V45.7694C259.939 45.7694 257.268 33.8374 250.503 33.8374C243.737 33.8374 244.093 44.879 244.093 50.5779C244.093 56.2768 248.01 72.6611 234.657 75.1544C221.304 77.6477 155.073 60.551 155.073 60.551Z" fill="black"/>
<path d="M257.446 62.688C257.446 62.688 257.09 69.2774 253.173 69.2774C249.256 69.2774 245.873 65.8937 244.627 58.77" stroke="black" stroke-width="2.08" stroke-linecap="round" stroke-linejoin="round"/>
<path d="M274.716 37.7551H257.446" stroke="black" stroke-width="1.82" stroke-linecap="round" stroke-linejoin="round"/>
<path fill-rule="evenodd" clip-rule="evenodd" d="M179.821 58.77C161.661 58.77 105.756 61.9757 88.1303 101.512C70.5043 141.048 38.457 223.148 38.457 223.148H194.954C194.954 223.148 205.637 247.902 238.574 247.902C271.512 247.902 327.06 223.148 327.06 223.148C327.06 223.148 354.122 190.913 321.897 176.666H256.022V108.279C256.022 94.5663 235.013 58.77 179.821 58.77Z" fill="#0089E3"/>
<path d="M216.319 318.782H283.619" stroke="#CF1D00" stroke-width="2.08" stroke-linecap="round" stroke-linejoin="round"/>
<path fill-rule="evenodd" clip-rule="evenodd" d="M346.644 76.0446C349.934 76.0095 353.16 76.9553 355.91 78.7616C358.66 80.5679 360.809 83.1527 362.085 86.1862C363.36 89.2198 363.703 92.5646 363.07 95.7939C362.436 99.0232 360.856 101.991 358.53 104.318C356.203 106.645 353.237 108.226 350.008 108.859C346.78 109.492 343.436 109.149 340.403 107.874C337.371 106.598 334.787 104.448 332.981 101.697C331.175 98.9462 330.229 95.7196 330.265 92.429C330.311 88.098 332.052 83.9574 335.113 80.8947C338.175 77.832 342.315 76.091 346.644 76.0446Z" fill="white"/>
<path d="M368.543 108.635C377.688 108.635 385.101 101.22 385.101 92.0729C385.101 82.9258 377.688 75.5105 368.543 75.5105C359.399 75.5105 351.985 82.9258 351.985 92.0729C351.985 101.22 359.399 108.635 368.543 108.635Z" fill="white"/>
<path d="M194.954 223.148C185.162 202.845 188.01 141.938 188.01 120.389" stroke="#323C45" stroke-width="2.08" stroke-linecap="round" stroke-linejoin="round"/>
<path d="M256.021 176.666V198.571" stroke="#323C45" stroke-width="2.08" stroke-linecap="round" stroke-linejoin="round"/>
<path d="M328.485 125.732C337.629 125.732 345.042 118.317 345.042 109.17C345.042 100.022 337.629 92.6072 328.485 92.6072C319.34 92.6072 311.927 100.022 311.927 109.17C311.927 118.317 319.34 125.732 328.485 125.732Z" fill="#FEDD8E"/>
<path fill-rule="evenodd" clip-rule="evenodd" d="M356.971 92.7854C359.137 92.7618 361.286 93.1682 363.294 93.9811C365.301 94.7939 367.128 95.9971 368.668 97.5208C370.208 99.0446 371.431 100.859 372.265 102.858C373.099 104.858 373.529 107.003 373.528 109.17C373.769 111.477 373.522 113.809 372.803 116.015C372.085 118.22 370.912 120.25 369.359 121.973C367.807 123.696 365.909 125.074 363.791 126.017C361.672 126.96 359.379 127.447 357.06 127.447C354.741 127.447 352.448 126.96 350.329 126.017C348.21 125.074 346.313 123.696 344.76 121.973C343.208 120.25 342.034 118.22 341.316 116.015C340.598 113.809 340.351 111.477 340.591 109.17C340.591 104.824 342.317 100.657 345.388 97.5843C348.46 94.5116 352.627 92.7854 356.971 92.7854Z" fill="#FEDD8E"/>
<path fill-rule="evenodd" clip-rule="evenodd" d="M386.703 92.7854C389.993 92.7502 393.218 93.6961 395.968 95.5023C398.718 97.3086 400.868 99.8934 402.143 102.927C403.418 105.961 403.761 109.305 403.128 112.535C402.495 115.764 400.914 118.731 398.588 121.058C396.262 123.385 393.295 124.966 390.067 125.6C386.838 126.233 383.495 125.89 380.462 124.614C377.429 123.339 374.845 121.189 373.039 118.438C371.234 115.687 370.288 112.46 370.323 109.17C370.37 104.839 372.11 100.698 375.172 97.6355C378.234 94.5728 382.373 92.8317 386.703 92.7854Z" fill="#FEDD8E"/>
<path fill-rule="evenodd" clip-rule="evenodd" d="M407 109.348H307.832L332.58 235.792H382.253L407 109.348Z" fill="#CF1D00"/>
<path fill-rule="evenodd" clip-rule="evenodd" d="M321.006 176.666C321.006 176.666 318.514 170.255 314.241 161.172C309.968 152.089 322.609 153.336 330.442 162.953C334.181 167.583 340.056 177.735 352.697 171.858C365.338 165.981 376.377 159.213 379.047 162.953C381.718 166.693 375.486 170.611 373.172 171.858C379.403 168.118 383.676 166.693 385.457 169.542C387.237 172.392 380.294 177.022 377.979 178.625C381.896 176.488 388.305 175.063 389.196 178.803C390.086 182.543 383.854 184.858 380.65 186.283C384.389 184.858 390.264 185.571 390.264 189.489C390.264 193.407 384.032 195.9 376.911 199.462L327.416 223.148L321.006 176.666Z" fill="#935000"/>
<path d="M378.87 168.83L363.024 176.844" stroke="black" stroke-width="2.08" stroke-linecap="round" stroke-linejoin="round"/>
<path d="M381.184 176.666L365.339 184.502" stroke="black" stroke-width="2.08" stroke-linecap="round" stroke-linejoin="round"/>
<path d="M384.033 184.858L368.188 192.694" stroke="black" stroke-width="2.08" stroke-linecap="round" stroke-linejoin="round"/>
<path fill-rule="evenodd" clip-rule="evenodd" d="M260.295 342.469C260.263 336.228 257.842 330.237 253.53 325.728C249.092 321.285 243.072 318.787 236.794 318.782H112.878V366.155H236.794C243.072 366.15 249.092 363.652 253.53 359.209C257.842 354.7 260.263 348.709 260.295 342.469Z" fill="#002E13"/>
<path fill-rule="evenodd" clip-rule="evenodd" d="M152.224 342.469C152.22 336.188 149.722 330.167 145.281 325.728C143.089 323.52 140.482 321.769 137.609 320.577C134.736 319.385 131.655 318.775 128.545 318.783H4.62891V366.155H128.545C131.655 366.162 134.736 365.552 137.609 364.36C140.482 363.168 143.089 361.417 145.281 359.209C149.722 354.77 152.22 348.749 152.224 342.469Z" fill="#E3F7ED"/>
<path d="M216.319 366.155H179.643V411.995H216.319V366.155Z" fill="#C98600"/>
<path d="M179.642 366.155H25.8154V411.995H179.642V366.155Z" fill="#FFFAF0"/>
<path fill-rule="evenodd" clip-rule="evenodd" d="M328.484 447.72C328.508 443.028 327.604 438.377 325.825 434.035C324.046 429.693 321.427 425.745 318.118 422.419C314.809 419.093 310.876 416.453 306.544 414.652C302.212 412.851 297.567 411.924 292.876 411.924H73.3525V502.216H292.876C297.567 502.216 302.212 501.289 306.544 499.488C310.876 497.687 314.809 495.047 318.118 491.721C321.427 488.394 324.046 484.447 325.825 480.105C327.604 475.763 328.508 471.112 328.484 466.42V447.72Z" fill="#163BF3"/>
<path fill-rule="evenodd" clip-rule="evenodd" d="M255.132 447.72C255.132 438.257 251.386 429.179 244.713 422.471C238.04 415.763 228.984 411.971 219.524 411.924H0V502.216H219.524C228.984 502.169 238.04 498.377 244.713 491.669C251.386 484.961 255.132 475.883 255.132 466.42V447.72Z" fill="#FFF3D6"/>
<path d="M157.744 502.216H31.6914V569H157.744V502.216Z" fill="#BDC7FB"/>
<path d="M283.797 502.216H157.744V569H283.797V502.216Z" fill="#133191"/>
</g>
<defs>
<clipPath id="clip0_447:20420">
<rect width="407" height="569" fill="white"/>
</clipPath>
</defs>
</svg>
