<svg width="503" height="727" viewBox="0 0 503 727" fill="none" xmlns="http://www.w3.org/2000/svg">
<g clip-path="url(#clip0_447:19140)">
<path fill-rule="evenodd" clip-rule="evenodd" d="M250.379 99.831L276.3 63.6562C276.3 63.6562 286.668 69.5452 326.04 88.4738C365.411 107.402 365.971 141.754 369.614 155.776L251.5 224.62V225.882L250.379 225.181L249.258 225.882V224.62L131.145 155.776C134.787 141.754 135.208 107.402 174.719 88.4738C214.231 69.5452 224.459 63.6562 224.459 63.6562L250.379 99.831Z" fill="#163BF3"/>
<path fill-rule="evenodd" clip-rule="evenodd" d="M224.459 63.6562C224.459 63.6562 222.357 99.831 250.379 99.831C278.401 99.831 276.3 63.6562 276.3 63.6562H224.459Z" fill="black"/>
<path fill-rule="evenodd" clip-rule="evenodd" d="M125.54 181.995L131.144 155.776L183.406 166.993V183.257L125.54 181.995Z" fill="#935000"/>
<path fill-rule="evenodd" clip-rule="evenodd" d="M372.556 181.855L369.614 155.776L317.353 166.993V186.202L372.556 181.855Z" fill="#935000"/>
<path fill-rule="evenodd" clip-rule="evenodd" d="M224.459 63.6562C224.459 63.6562 215.491 108.384 228.662 112.029C241.832 115.675 250.379 99.831 250.379 99.831L224.459 63.6562Z" fill="white"/>
<path fill-rule="evenodd" clip-rule="evenodd" d="M276.3 63.6562C276.3 63.6562 285.267 108.384 272.096 112.029C258.926 115.675 250.379 99.831 250.379 99.831L276.3 63.6562Z" fill="white"/>
<path d="M183.406 166.993V138.109" stroke="#133191" stroke-width="2.08" stroke-linecap="round" stroke-linejoin="round"/>
<path d="M317.212 166.993V138.109" stroke="#133191" stroke-width="2.08" stroke-linecap="round" stroke-linejoin="round"/>
<path fill-rule="evenodd" clip-rule="evenodd" d="M279.077 135.696C280.656 135.657 282.227 135.923 283.698 136.48C285.168 137.038 286.508 137.874 287.639 138.939C288.77 140.005 289.669 141.279 290.282 142.686C290.896 144.093 291.211 145.604 291.211 147.131C291.211 150.241 289.933 153.224 287.657 155.424C285.381 157.623 282.295 158.859 279.077 158.859C275.859 158.859 272.773 157.623 270.497 155.424C268.222 153.224 266.943 150.241 266.943 147.131C266.943 145.604 267.259 144.093 267.872 142.686C268.485 141.279 269.384 140.005 270.515 138.939C271.646 137.874 272.986 137.038 274.457 136.48C275.927 135.923 277.498 135.657 279.077 135.696Z" fill="#FBBE2E"/>
<path fill-rule="evenodd" clip-rule="evenodd" d="M251.5 685.918V727H154.543C154.543 727 153.282 722.233 164.631 716.624C175.98 711.016 204.142 699.939 208.486 685.918H251.5Z" fill="#FBBE2E"/>
<path fill-rule="evenodd" clip-rule="evenodd" d="M251.5 685.918V727H348.457C348.457 727 349.718 722.233 338.369 716.624C327.02 711.016 298.858 699.939 294.514 685.918H251.5Z" fill="#FBBE2E"/>
<path fill-rule="evenodd" clip-rule="evenodd" d="M251.5 685.918V660.96H206.384L208.485 685.918H251.5Z" fill="#163BF3"/>
<path fill-rule="evenodd" clip-rule="evenodd" d="M251.5 685.918V660.96H296.616L294.514 685.918H251.5Z" fill="#163BF3"/>
<path fill-rule="evenodd" clip-rule="evenodd" d="M206.384 660.96C206.384 660.96 191.952 594.359 192.793 575.431C203.161 585.386 251.5 634.32 251.5 634.32V660.96H206.384Z" fill="#935000"/>
<path fill-rule="evenodd" clip-rule="evenodd" d="M296.616 660.96C296.616 660.96 311.047 594.359 310.207 575.431C299.838 585.386 251.5 634.32 251.5 634.32V660.96H296.616Z" fill="#935000"/>
<path fill-rule="evenodd" clip-rule="evenodd" d="M251.5 634.32C251.5 634.32 198.257 623.804 194.614 597.164C193.481 589.973 192.872 582.71 192.793 575.431C203.161 585.386 251.5 634.32 251.5 634.32Z" fill="black"/>
<path fill-rule="evenodd" clip-rule="evenodd" d="M251.5 634.32C251.5 634.32 304.462 624.645 308.245 598.005C309.646 588.611 310.487 580.338 310.207 575.431C299.838 585.386 251.5 634.32 251.5 634.32Z" fill="black"/>
<path fill-rule="evenodd" clip-rule="evenodd" d="M251.5 708.772C251.5 708.772 234.406 713.96 231.744 727H251.5V708.772Z" fill="#FF341A"/>
<path fill-rule="evenodd" clip-rule="evenodd" d="M251.5 708.772C251.5 708.772 268.594 713.96 271.256 727H251.5V708.772Z" fill="#FF341A"/>
<path d="M195.316 700.64C195.596 699.518 180.324 670.635 173.178 676.944C166.032 683.254 193.634 701.622 193.634 701.622H166.312" stroke="#FF341A" stroke-width="2.08" stroke-linecap="round" stroke-linejoin="round"/>
<path d="M307.685 700.64C307.544 699.518 322.676 670.635 329.822 676.944C336.968 683.254 309.366 701.622 309.366 701.622H336.828" stroke="#FF341A" stroke-width="2.08" stroke-linecap="round" stroke-linejoin="round"/>
<path fill-rule="evenodd" clip-rule="evenodd" d="M251.5 225.882C277.092 198.283 312.452 181.789 350.03 179.922C387.608 178.054 424.426 190.961 452.626 215.886C480.825 240.812 498.17 275.781 500.959 313.329C503.748 350.876 491.759 388.027 467.552 416.851H468.252L251.5 634.32L34.7473 416.851H35.4479C11.2407 388.027 -0.748291 350.876 2.04043 313.329C4.82915 275.781 22.1746 240.812 50.3738 215.886C78.573 190.961 115.392 178.054 152.97 179.922C190.547 181.789 225.907 198.283 251.5 225.882Z" fill="#FF341A"/>
<path fill-rule="evenodd" clip-rule="evenodd" d="M86.8692 193.017C86.8692 193.017 80.9845 189.651 69.2151 194.419C57.4458 199.186 47.4979 209.281 42.1736 214.048C36.8494 218.816 33.4867 234.519 35.0279 243.914C36.5692 253.308 39.7917 258.916 43.0143 256.953C46.2369 254.99 46.2369 234.66 46.2369 229.472C46.6572 238.305 51.0006 255.832 56.6051 253.588C62.2096 251.345 63.1903 241.53 61.6491 228.49C64.5915 238.025 70.4761 237.464 72.9981 236.623C75.5201 235.781 76.5009 229.051 74.6795 219.797C72.858 210.543 74.2591 198.905 86.8692 193.017Z" fill="#935000"/>
<path fill-rule="evenodd" clip-rule="evenodd" d="M416.411 193.017C416.411 193.017 422.296 189.651 434.065 194.419C445.835 199.186 455.782 209.281 461.107 214.048C466.431 218.816 469.794 234.519 468.252 243.914C466.711 253.308 463.348 258.916 460.126 256.953C456.903 254.99 457.043 234.66 456.903 229.472C456.623 238.305 452.28 255.832 446.675 253.588C441.071 251.345 440.09 241.53 441.631 228.49C438.689 238.025 432.804 237.464 430.142 236.623C427.48 235.781 426.779 229.051 428.601 219.797C430.422 210.543 429.021 198.905 416.411 193.017Z" fill="#935000"/>
<path fill-rule="evenodd" clip-rule="evenodd" d="M248.838 10.2356C255.322 10.2356 261.661 12.1598 267.053 15.765C272.444 19.3702 276.647 24.4944 279.128 30.4895C281.61 36.4847 282.259 43.0816 280.994 49.4461C279.729 55.8105 276.606 61.6567 272.021 66.2452C267.436 70.8337 261.594 73.9585 255.234 75.2245C248.874 76.4904 242.282 75.8407 236.291 73.3574C230.3 70.8741 225.18 66.6688 221.577 61.2733C217.975 55.8778 216.052 49.5344 216.052 43.0452C216.052 34.3436 219.506 25.9983 225.655 19.8453C231.803 13.6923 240.142 10.2356 248.838 10.2356Z" fill="#935000"/>
<path fill-rule="evenodd" clip-rule="evenodd" d="M220.115 27.2011C220.115 27.2011 219.415 10.2355 233.006 3.50529C246.597 -3.22489 271.396 2.94445 277.561 27.2011H220.115Z" fill="#FBBE2E"/>
<path fill-rule="evenodd" clip-rule="evenodd" d="M220.115 27.2012H277.561C277.561 27.2012 300.259 14.8626 290.871 5.32813C281.484 -4.20629 240.291 -3.36502 220.115 27.2012Z" fill="#FF341A"/>
<path fill-rule="evenodd" clip-rule="evenodd" d="M218.153 31.5477C218.153 31.5477 213.53 24.8175 207.645 27.2011C201.76 29.5847 208.065 45.2885 216.052 44.4472C216.331 40.0892 217.035 35.7689 218.153 31.5477Z" fill="#935000"/>
<path fill-rule="evenodd" clip-rule="evenodd" d="M278.962 32.1086C278.962 32.1086 284.286 24.8176 290.171 27.2012C296.056 29.5848 288.77 45.9896 280.643 45.0082C280.373 40.6754 279.811 36.3658 278.962 32.1086Z" fill="#935000"/>
<path d="M248.838 35.6138C248.838 35.6138 252.761 43.1852 255.143 47.2514H248.838L255.143 52.5794C255.143 52.5794 246.316 57.6271 239.45 51.1773" stroke="black" stroke-width="2.08" stroke-linecap="round" stroke-linejoin="round"/>
<path d="M237.209 35.6138V37.9974" stroke="black" stroke-width="2.08" stroke-linecap="round" stroke-linejoin="round"/>
<path d="M264.25 35.6138V37.9974" stroke="black" stroke-width="2.08" stroke-linecap="round" stroke-linejoin="round"/>
<path fill-rule="evenodd" clip-rule="evenodd" d="M380.963 228.406C386.733 228.406 392.373 230.12 397.168 233.33C401.964 236.541 405.699 241.104 407.901 246.442C410.102 251.779 410.671 257.65 409.535 263.311C408.399 268.972 405.61 274.168 401.52 278.241C397.43 282.314 392.224 285.081 386.562 286.19C380.9 287.3 375.036 286.702 369.713 284.473C364.39 282.244 359.848 278.485 356.663 273.67C353.478 268.856 351.792 263.203 351.82 257.429C351.857 249.719 354.943 242.337 360.405 236.898C365.866 231.459 373.258 228.405 380.963 228.406Z" fill="white"/>
<path fill-rule="evenodd" clip-rule="evenodd" d="M439.81 302.998C443.452 302.971 447.02 304.028 450.059 306.035C453.099 308.043 455.473 310.91 456.88 314.272C458.287 317.634 458.662 321.339 457.958 324.915C457.254 328.491 455.503 331.776 452.928 334.354C450.353 336.931 447.069 338.683 443.496 339.387C439.922 340.092 436.22 339.716 432.861 338.308C429.501 336.901 426.636 334.525 424.63 331.483C422.624 328.441 421.568 324.871 421.595 321.226C421.632 316.403 423.563 311.788 426.971 308.378C430.379 304.967 434.99 303.035 439.81 302.998Z" fill="white"/>
</g>
<defs>
<clipPath id="clip0_447:19140">
<rect width="503" height="727" fill="white"/>
</clipPath>
</defs>
</svg>
