<svg width="164" height="727" viewBox="0 0 164 727" fill="none" xmlns="http://www.w3.org/2000/svg">
<path fill-rule="evenodd" clip-rule="evenodd" d="M44.4744 200.07L39.332 685.659H132.729C132.729 685.659 133.84 543.798 134.118 503.701C134.396 463.604 154.549 321.744 155.939 287.869C157.329 253.994 145.515 210.025 145.515 210.025L44.4744 200.07Z" fill="#4FB3F6"/>
<path fill-rule="evenodd" clip-rule="evenodd" d="M82.1387 9.26367C86.9767 9.26367 91.706 10.6909 95.7286 13.3648C99.7512 16.0387 102.886 19.8393 104.738 24.2859C106.589 28.7325 107.074 33.6254 106.13 38.3459C105.186 43.0663 102.856 47.4024 99.4353 50.8057C96.0144 54.2089 91.6558 56.5266 86.9109 57.4655C82.1659 58.4045 77.2476 57.9226 72.7779 56.0808C68.3083 54.2389 64.488 51.1199 61.8002 47.1181C59.1123 43.1162 57.6777 38.4114 57.6777 33.5984C57.6777 27.1444 60.2549 20.9548 64.8422 16.3911C69.4295 11.8275 75.6513 9.26367 82.1387 9.26367Z" fill="#FBBE2E"/>
<path fill-rule="evenodd" clip-rule="evenodd" d="M64.627 16.7301C68.0769 11.5879 72.748 7.37108 78.2266 4.45295C83.7053 1.53482 89.8226 0.00537939 96.0371 0C117.579 0 131.617 20.7398 133.146 35.5342C134.674 50.3286 141.346 83.6506 115.634 83.6506C89.9219 83.6506 87.0032 55.721 86.4473 40.3735C86.0303 27.1 85.0575 25.4409 82.1388 24.0582C79.2202 22.6755 74.7727 25.8556 74.7727 29.8653C74.7727 20.6016 64.627 16.7301 64.627 16.7301Z" fill="#0C114D"/>
<path fill-rule="evenodd" clip-rule="evenodd" d="M80.1934 57.9332C69.2138 59.8689 41.6951 64.1552 36.4138 83.6506C31.1324 103.146 17.3731 163.292 17.3731 163.292C17.3731 163.292 3.33581 162.462 0.417161 182.925C-2.50148 203.389 11.5358 209.61 18.485 209.196C25.4341 208.781 37.1087 205.324 44.4748 200.07C46.0036 207.122 60.8748 210.025 74.7731 210.025H145.515V185.967C145.515 185.967 162.749 181.819 163.583 161.079C164.417 140.339 163.583 98.1685 163.583 89.4577C163.583 80.747 154.549 63.8786 139.678 60.6985C124.807 57.5184 91.1731 55.9975 80.1934 57.9332Z" fill="#FFC7BF"/>
<path d="M17.3731 163.292L11.6748 188.456" stroke="#CF1D00" stroke-width="2.08" stroke-linecap="round" stroke-linejoin="round"/>
<path d="M44.4746 200.07L75.3288 99.4128" stroke="#CF1D00" stroke-width="2.08" stroke-linecap="round" stroke-linejoin="round"/>
<path d="M145.516 185.967V99.4128" stroke="#CF1D00" stroke-width="2.08" stroke-linecap="round" stroke-linejoin="round"/>
<path d="M92.1455 266.023H139.956" stroke="#014A82" stroke-width="2.08" stroke-linecap="round" stroke-linejoin="round"/>
<path d="M111.604 266.023V685.659" stroke="#014A82" stroke-width="2.08" stroke-linecap="round" stroke-linejoin="round"/>
<path fill-rule="evenodd" clip-rule="evenodd" d="M54.6206 685.659C54.6206 685.659 46.0036 712.344 26.9629 717.045C7.92225 721.746 26.268 727 26.268 727H90.0612V685.659H54.6206Z" fill="#002238"/>
<path fill-rule="evenodd" clip-rule="evenodd" d="M124.39 685.659V702.112C124.39 707.919 136.759 715.801 134.952 727H89.9219V685.659H124.39Z" fill="#002238"/>
</svg>
