<svg width="453" height="589" viewBox="0 0 453 589" fill="none" xmlns="http://www.w3.org/2000/svg">
<g clip-path="url(#clip0_447:20180)">
<path fill-rule="evenodd" clip-rule="evenodd" d="M240.729 35.8376C201.732 55.232 173.274 70.8319 151.773 83.0588C130.272 95.2857 129.218 145.669 140.812 167.804C152.405 189.939 177.069 278.057 177.069 278.057C256.749 278.057 332.636 285.014 404.939 251.706C404.939 251.706 354.559 136.815 340.224 99.9235C325.89 63.032 279.937 16.4432 240.729 35.8376Z" fill="#014A82"/>
<path fill-rule="evenodd" clip-rule="evenodd" d="M281.834 36.0483C346.759 72.9398 404.517 103.296 434.661 120.793C464.804 138.291 456.373 184.669 419.483 184.669H276.564C276.353 184.879 223.443 3.16211 281.834 36.0483Z" fill="#014A82"/>
<path fill-rule="evenodd" clip-rule="evenodd" d="M171.167 71.6749C106.242 108.356 48.4837 138.712 18.3399 156.209C-11.8039 173.706 -3.37207 220.295 33.728 220.295H176.647C176.647 220.295 229.557 38.5779 171.167 71.6749Z" fill="#014A82"/>
<path fill-rule="evenodd" clip-rule="evenodd" d="M192.456 4.21618C185.127 4.25782 177.975 6.46918 171.902 10.5713C165.828 14.6734 161.106 20.4824 158.33 27.2655C155.555 34.0487 154.85 41.502 156.305 48.6852C157.76 55.8684 161.31 62.4597 166.507 67.6275C171.704 72.7953 178.315 76.3081 185.506 77.7226C192.697 79.1373 200.145 78.3903 206.912 75.576C213.679 72.7617 219.461 68.0062 223.528 61.9094C227.596 55.8126 229.766 48.6477 229.767 41.3185C229.767 36.4284 228.8 31.5865 226.922 27.0712C225.045 22.556 222.293 18.4564 218.826 15.0084C215.358 11.5603 211.244 8.83181 206.718 6.97969C202.192 5.12756 197.345 4.18839 192.456 4.21618Z" fill="#FFC7BF"/>
<path fill-rule="evenodd" clip-rule="evenodd" d="M158.728 31.1997C154.512 36.4699 143.973 36.8915 143.973 43.005H158.728C158.728 43.005 162.733 25.9295 158.728 31.1997Z" fill="#FFC7BF"/>
<path fill-rule="evenodd" clip-rule="evenodd" d="M374.163 184.879H299.752L388.708 220.295L374.163 184.879Z" fill="black"/>
<path fill-rule="evenodd" clip-rule="evenodd" d="M159.994 220.295H233.562L169.691 251.284L159.994 220.295Z" fill="black"/>
<path d="M382.173 128.172L287.525 151.361" stroke="black" stroke-width="1.25" stroke-linecap="round" stroke-linejoin="round"/>
<path d="M349.921 135.972L308.184 114.258" stroke="black" stroke-width="1.25" stroke-linecap="round" stroke-linejoin="round"/>
<path d="M245.787 186.566L80.3125 161.901" stroke="black" stroke-width="1.25" stroke-linecap="round" stroke-linejoin="round"/>
<path d="M173.063 149.463L135.33 170.123" stroke="black" stroke-width="1.25" stroke-linecap="round" stroke-linejoin="round"/>
<path fill-rule="evenodd" clip-rule="evenodd" d="M244.523 184.879C257.382 184.879 271.927 194.577 271.927 207.436C271.927 212.917 271.505 225.987 271.505 232.101C271.505 234.63 264.549 236.528 264.549 232.311C264.549 228.095 262.652 213.549 262.652 213.549C262.652 213.549 261.808 231.679 261.387 235.474C260.965 239.268 255.906 237.792 255.906 233.365C255.906 228.938 254.852 214.393 254.852 214.393C254.852 214.393 250.004 230.414 248.528 233.365C247.053 236.317 242.415 232.944 243.68 229.571C244.945 226.198 247.685 213.76 247.685 213.76L241.572 218.398C232.508 223.879 223.865 217.976 223.865 203.009C223.865 188.042 231.665 184.879 244.523 184.879Z" fill="#FFC7BF"/>
<path fill-rule="evenodd" clip-rule="evenodd" d="M279.726 185.933C268.554 185.933 257.804 167.804 257.804 167.804H245.578C245.223 167.873 244.858 167.859 244.511 167.762C244.163 167.665 243.843 167.488 243.576 167.246C243.308 167.004 243.101 166.702 242.971 166.366C242.841 166.03 242.791 165.667 242.825 165.308C242.859 164.949 242.976 164.603 243.168 164.297C243.36 163.991 243.62 163.734 243.928 163.547C244.236 163.359 244.584 163.246 244.943 163.217C245.303 163.187 245.664 163.242 245.999 163.377C241.151 163.377 240.729 157.685 245.999 157.685L276.564 157.053L267.289 145.458C264.971 142.507 266.868 138.712 271.927 141.664L287.526 151.572C295.325 155.155 300.384 157.053 300.384 167.804C300.384 182.561 292.374 185.933 279.726 185.933Z" fill="#FFC7BF"/>
<path fill-rule="evenodd" clip-rule="evenodd" d="M394.821 505.098C412.317 505.098 415.269 530.395 404.94 551.054C394.611 571.714 387.022 589 364.045 589C341.068 589 343.598 518.379 343.598 518.379C343.598 518.379 377.115 505.098 394.821 505.098Z" fill="black"/>
<path fill-rule="evenodd" clip-rule="evenodd" d="M289.845 542.2C289.47 548.213 290.332 554.238 292.378 559.904C294.423 565.57 297.609 570.756 301.738 575.142C305.867 579.528 310.851 583.021 316.383 585.404C321.915 587.788 327.877 589.012 333.901 589H364.045C364.045 589 408.312 473.687 420.959 422.25C436.769 358.797 437.402 326.965 421.381 289.862L404.939 249.598C331.371 281.008 265.181 278.057 177.49 278.057L181.074 289.862H96.1232C55.6505 289.862 27.193 343.408 61.7635 385.78C104.133 437.218 150.719 501.514 150.719 501.514L235.67 502.568L182.971 378.823C182.971 378.823 241.572 406.229 297.855 406.229C297.012 413.607 292.796 490.552 289.845 542.2Z" fill="#C98600"/>
<path fill-rule="evenodd" clip-rule="evenodd" d="M307.972 324.013L271.926 404.331L297.854 406.229L307.972 324.013Z" fill="black"/>
<path d="M182.971 378.823L160.838 326.754" stroke="black" stroke-width="1.25" stroke-linecap="round" stroke-linejoin="round"/>
<path d="M232.296 289.862H181.705" stroke="black" stroke-width="1.25" stroke-linecap="round" stroke-linejoin="round"/>
<path fill-rule="evenodd" clip-rule="evenodd" d="M235.67 502.568L272.349 589H122.684C108.139 569.184 189.084 554.006 176.858 537.141C161.049 515.217 150.72 501.514 150.72 501.514L235.67 502.568Z" fill="#CF1D00"/>
<path fill-rule="evenodd" clip-rule="evenodd" d="M161.68 20.6593H192.457V60.713C192.457 60.713 195.618 41.3185 200.888 41.3185C206.158 41.3185 206.791 45.7455 206.791 50.1725V107.934H235.459C235.459 107.934 235.67 57.7616 235.67 38.3672C235.67 10.5404 216.276 0 192.457 0C171.799 0 154.724 6.95669 161.68 20.6593Z" fill="#163BF3"/>
</g>
<defs>
<clipPath id="clip0_447:20180">
<rect width="453" height="589" fill="white"/>
</clipPath>
</defs>
</svg>
