<svg width="334" height="776" viewBox="0 0 334 776" fill="none" xmlns="http://www.w3.org/2000/svg">
<path fill-rule="evenodd" clip-rule="evenodd" d="M137.604 139.231L303.752 20.8848L321.361 38.5018L196.679 170.061C183.615 183.7 196.679 264.255 196.679 264.255H58.0807V246.638C58.0807 246.638 38.0577 246.07 23.857 246.07C7.52623 246.07 -0.994174 233.709 4.40208 222.344C11.2184 207.852 31.8094 170.771 40.1878 156.706C46.8621 145.34 56.9446 139.231 65.607 139.231H137.604Z" fill="#00672E"/>
<path fill-rule="evenodd" clip-rule="evenodd" d="M115.31 139.657C115.31 139.657 119.996 152.302 127.38 152.302C134.764 152.302 140.019 139.089 140.019 139.089L115.31 139.657Z" fill="black"/>
<path d="M128.517 139.231H167.995" stroke="black" stroke-width="1.25" stroke-linecap="round" stroke-linejoin="round"/>
<path d="M58.0811 218.366V170.771" stroke="black" stroke-width="1.25" stroke-linecap="round" stroke-linejoin="round"/>
<path fill-rule="evenodd" clip-rule="evenodd" d="M303.753 20.8847C316.96 10.9396 327.326 2.84146 330.45 0.852441C333.574 -1.13657 334.994 0.710369 333.148 3.55182C331.302 6.39327 324.628 17.617 324.628 17.617C324.628 17.617 332.722 26.1413 327.894 31.6822C325.854 34.0828 323.672 36.3599 321.362 38.5017C321.362 38.5017 309.149 27.2779 303.753 20.8847Z" fill="#DFA98B"/>
<path d="M29.3955 215.24C29.3955 215.24 86.7663 221.491 92.8725 222.485" stroke="black" stroke-width="1.25" stroke-linecap="round" stroke-linejoin="round"/>
<path fill-rule="evenodd" clip-rule="evenodd" d="M196.537 264.397L270.097 733.52H200.229L132.066 371.093L127.38 733.52H47.7139L58.0804 264.397H196.537Z" fill="#133191"/>
<path fill-rule="evenodd" clip-rule="evenodd" d="M58.0808 733.52C58.0808 745.17 0 766.197 0 776H116.73V733.52H58.0808Z" fill="#CF1D00"/>
<path fill-rule="evenodd" clip-rule="evenodd" d="M263.28 733.52C263.28 745.17 279.469 766.197 279.469 776H204.774C194.407 767.76 206.052 758.241 204.774 733.52H263.28Z" fill="#CF1D00"/>
<path d="M112.043 353.05L132.066 371.093L150.527 349.925" stroke="black" stroke-width="1.25" stroke-linecap="round" stroke-linejoin="round"/>
<path fill-rule="evenodd" clip-rule="evenodd" d="M70.8613 494.697H96.4225C96.4225 494.697 84.92 516.718 70.8613 494.697Z" fill="black"/>
<path fill-rule="evenodd" clip-rule="evenodd" d="M212.868 494.697H187.307C187.307 494.697 198.809 516.718 212.868 494.697Z" fill="black"/>
<path fill-rule="evenodd" clip-rule="evenodd" d="M58.0811 246.638H97.2749L58.0811 264.397V246.638Z" fill="black"/>
<path fill-rule="evenodd" clip-rule="evenodd" d="M86.4822 231.72C87.7602 223.622 99.8308 217.939 103.239 215.808C106.647 213.677 108.067 217.087 106.505 219.076C104.943 221.065 102.813 222.201 101.251 223.906C99.6888 225.611 101.109 226.606 101.393 227.458C101.677 228.311 104.375 228.026 107.783 226.89L124.114 221.349C127.806 220.07 128.8 224.332 125.25 226.037L107.215 234.846C107.215 234.846 107.357 246.212 100.541 246.496C93.7245 246.78 87.0502 245.643 86.6242 240.387C86.1981 235.13 85.9141 235.272 86.4822 231.72Z" fill="#DFA98B"/>
<path fill-rule="evenodd" clip-rule="evenodd" d="M146.066 113.803C148.764 117.213 155.864 117.639 155.864 121.759H146.066C146.066 121.759 143.226 110.251 146.066 113.803Z" fill="#DFA98B"/>
<path fill-rule="evenodd" clip-rule="evenodd" d="M127.522 91.9208C132.499 91.8927 137.373 93.3436 141.525 96.0896C145.677 98.8356 148.921 102.753 150.845 107.346C152.769 111.938 153.287 116.999 152.333 121.886C151.38 126.773 148.997 131.267 145.487 134.798C141.978 138.329 137.5 140.739 132.62 141.72C127.74 142.702 122.679 142.213 118.078 140.314C113.477 138.415 109.543 135.192 106.775 131.053C104.007 126.915 102.529 122.047 102.529 117.068C102.51 113.772 103.143 110.505 104.39 107.455C105.638 104.405 107.476 101.632 109.799 99.2947C112.121 96.9577 114.883 95.1032 117.925 93.8377C120.966 92.5722 124.228 91.9208 127.522 91.9208Z" fill="#DFA98B"/>
<path fill-rule="evenodd" clip-rule="evenodd" d="M120.138 93.0575C114.623 94.7041 109.845 98.2042 106.611 102.967C103.377 107.73 101.885 113.463 102.387 119.199C102.955 126.16 108.636 133.548 108.636 133.548C108.636 133.548 111.902 121.756 111.902 117.068C111.902 112.379 113.18 110.106 116.162 110.106C119.144 110.106 120.422 113.516 120.422 117.068H124.966L129.511 106.128H150.102C150.102 106.128 145.415 94.4783 133.487 92.6313C121.558 90.7844 126.812 91.3527 120.138 93.0575Z" fill="#0C114D"/>
<path fill-rule="evenodd" clip-rule="evenodd" d="M138.462 115.237C138.462 114.653 138.681 114.18 138.951 114.18H143.258C143.528 114.18 143.747 114.653 143.747 115.237C143.747 115.821 143.528 116.294 143.258 116.294H138.951C138.681 116.294 138.462 115.821 138.462 115.237Z" fill="black"/>
<path d="M118.86 97.4617C133.683 97.4617 145.699 85.4398 145.699 70.61C145.699 55.7802 133.683 43.7583 118.86 43.7583C104.037 43.7583 92.0205 55.7802 92.0205 70.61C92.0205 85.4398 104.037 97.4617 118.86 97.4617Z" fill="#0C114D"/>
<path d="M58.1328 264.305H196.595L197.652 271.706H58.1328V264.305Z" fill="#FF341A"/>
</svg>
