<svg width="309" height="750" viewBox="0 0 309 750" fill="none" xmlns="http://www.w3.org/2000/svg">
<g clip-path="url(#clip0_447:19428)">
<path d="M202.675 194.117C247.077 149.714 247.077 77.7236 202.675 33.321C158.272 -11.0817 86.2811 -11.0817 41.8785 33.321C-2.5241 77.7236 -2.52411 149.714 41.8785 194.117C86.2811 238.52 158.272 238.52 202.675 194.117Z" fill="#FBBE2E"/>
<path fill-rule="evenodd" clip-rule="evenodd" d="M44.5991 196.5C43.8539 195.785 42.974 195.224 42.0105 194.852C41.047 194.479 40.0191 194.302 38.9864 194.33C37.9537 194.357 36.9369 194.59 35.9949 195.014C35.0529 195.438 34.2046 196.045 33.4991 196.8C33.0789 197.222 32.7097 197.692 32.3991 198.2C29.3991 202.6 29.5991 208.1 36.1991 213.9C42.7991 219.7 52.6991 230.2 61.7991 234.6C70.8991 239 83.6991 240.9 87.1991 234.6C90.6991 228.3 85.9991 221.6 81.0991 219.6C67.506 214.427 55.0929 206.571 44.5991 196.5Z" fill="#DFA98B"/>
<path fill-rule="evenodd" clip-rule="evenodd" d="M200.699 196.5C202.186 195.073 204.179 194.293 206.24 194.33C208.301 194.368 210.264 195.22 211.699 196.7C212.129 197.175 212.529 197.676 212.899 198.2C215.899 202.6 215.699 208.1 209.099 213.9C202.499 219.7 192.599 230.2 183.499 234.6C174.399 239 161.599 240.9 157.999 234.6C154.399 228.3 159.299 221.6 164.199 219.6C177.774 214.39 190.18 206.539 200.699 196.5Z" fill="#DFA98B"/>
<path fill-rule="evenodd" clip-rule="evenodd" d="M57.1003 231.8C57.1003 231.8 19.7003 273.1 8.60026 284.6C-2.49974 296.1 -3.29974 311.7 8.60026 322.9C20.5003 334.1 66.5003 383.6 66.5003 383.6L92.0003 359.9L35.9003 298.3C35.9003 298.3 70.4003 257 75.4003 251.3C76.8606 249.548 77.8775 247.47 78.3649 245.242C78.8522 243.014 78.7958 240.702 78.2003 238.5L57.1003 231.8Z" fill="#163BF3"/>
<path fill-rule="evenodd" clip-rule="evenodd" d="M188.201 231.8C188.201 231.8 225.601 273.1 236.601 284.6C247.601 296.1 248.601 311.7 236.601 322.9C224.601 334.1 178.801 383.6 178.801 383.6L153.301 359.9L209.401 298.3C209.401 298.3 174.901 257 169.901 251.3C168.443 249.528 167.444 247.424 166.991 245.175C166.537 242.925 166.644 240.599 167.301 238.4L188.201 231.8Z" fill="#163BF3"/>
<path fill-rule="evenodd" clip-rule="evenodd" d="M158.898 353.8H86.2984L66.3984 383.6V466.1H178.898V383.6L158.898 353.8Z" fill="#163BF3"/>
<path fill-rule="evenodd" clip-rule="evenodd" d="M66.3997 466.1C66.3997 482.3 63.4997 529.9 82.8997 556.7C102.3 583.5 199.3 702.3 199.3 702.3L234.5 668.2L156.8 540.9C156.8 540.9 177.6 500.9 178.9 466.1H66.3997Z" fill="#9CE8C2"/>
<path d="M156.798 540.9L138.398 510.7" stroke="#24A865" stroke-width="2.11" stroke-linecap="round" stroke-linejoin="round"/>
<path fill-rule="evenodd" clip-rule="evenodd" d="M100.799 580.1L83.6992 708.4H125.399L144.699 635.1L100.799 580.1Z" fill="#60D399"/>
<path fill-rule="evenodd" clip-rule="evenodd" d="M83.6984 708.4C83.6984 708.4 75.3984 737.3 75.3984 749.2H154.898C154.898 749.2 147.198 734.8 140.998 731.4C134.798 728 124.498 716.8 125.298 708.4H83.6984Z" fill="#163BF3"/>
<path fill-rule="evenodd" clip-rule="evenodd" d="M199.301 702.3L232.301 749.2C232.301 749.2 299.801 695.5 308.901 686.9C294.601 683.5 276.301 693.3 266.801 690.6C254.494 685.643 243.457 677.988 234.501 668.2C220.901 681 199.301 702.3 199.301 702.3Z" fill="#163BF3"/>
<path d="M86.3008 353.8L99.9008 368.7" stroke="#0C114D" stroke-width="2.11" stroke-linecap="round" stroke-linejoin="round"/>
<path d="M178.898 383.6V371.9" stroke="#0C114D" stroke-width="2.11" stroke-linecap="round" stroke-linejoin="round"/>
<path d="M128.801 356.8V466.1" stroke="#0C114D" stroke-width="2.11" stroke-linecap="round" stroke-linejoin="round"/>
<path fill-rule="evenodd" clip-rule="evenodd" d="M121.298 316.6C133.698 312.5 146.698 318.2 150.198 329C153.698 339.8 146.098 351.7 133.698 355.6C121.298 359.5 108.198 354 104.798 343.2C101.398 332.4 108.698 320.5 121.298 316.6Z" fill="#DFA98B"/>
<path fill-rule="evenodd" clip-rule="evenodd" d="M141.5 318.5L150.1 316.6C152.4 316 155.4 318.4 152.4 320.3L147.2 323.4L141.5 318.5Z" fill="#DFA98B"/>
<path fill-rule="evenodd" clip-rule="evenodd" d="M43.1016 195.2C64.5812 215.688 93.2215 226.963 122.903 226.617C152.585 226.271 180.955 214.331 201.951 193.348C222.947 172.365 234.905 144.003 235.269 114.321C235.634 84.6396 224.376 55.9924 203.902 34.5L123.502 114.9L43.1016 195.2Z" fill="#FFF3D6"/>
</g>
<defs>
<clipPath id="clip0_447:19428">
<rect width="308.9" height="749.2" fill="white"/>
</clipPath>
</defs>
</svg>
