<svg width="705" height="409" viewBox="0 0 705 409" fill="none" xmlns="http://www.w3.org/2000/svg">
<g clip-path="url(#clip0_447:20449)">
<path fill-rule="evenodd" clip-rule="evenodd" d="M382.152 76.9038H265.937C236.684 76.9038 223.121 92.3378 211.42 116.021C199.719 139.704 82.7061 378.132 82.7061 378.132L153.179 406.339L204.505 311.873C204.505 311.873 194.4 406.339 250.513 406.339H339.868C339.868 406.339 424.967 194.255 439.86 159.928C458.476 117.085 416.723 76.9038 382.152 76.9038Z" fill="#6D83F3"/>
<path d="M204.506 311.872C206.101 292.713 231.366 204.367 247.854 159.396" stroke="#133191" stroke-width="2.08" stroke-linecap="round" stroke-linejoin="round"/>
<path d="M317.847 94.7272C343.985 94.1793 364.73 72.5332 364.182 46.3793C363.635 20.2254 342.002 -0.532488 315.865 0.0153595C289.727 0.563207 268.982 22.2093 269.529 48.3632C270.077 74.5172 291.71 95.275 317.847 94.7272Z" fill="#DFA98B"/>
<path d="M339.868 406.339L282.691 377.6L351.037 159.396" stroke="#133191" stroke-width="2.08" stroke-linecap="round" stroke-linejoin="round"/>
<path fill-rule="evenodd" clip-rule="evenodd" d="M282.692 377.6C281.231 381.503 278.616 384.868 275.195 387.245C271.773 389.622 267.709 390.899 263.544 390.905C252.907 391.171 235.621 397.025 232.695 406.339H339.868C339.868 406.339 295.722 384.785 282.692 377.6Z" fill="#DFA98B"/>
<path fill-rule="evenodd" clip-rule="evenodd" d="M82.9725 377.6C77.9196 386.115 38.029 384.785 20.2112 391.969C2.39344 399.154 0 406.339 0 406.339H153.18C153.18 406.339 96.8012 382.922 82.9725 377.6Z" fill="#DFA98B"/>
<path fill-rule="evenodd" clip-rule="evenodd" d="M395.449 267.699C395.449 267.699 456.615 221.93 474.964 209.423C493.314 196.916 520.706 203.036 532.673 226.453C544.64 249.87 587.722 353.651 587.722 353.651H510.068L486.4 321.186C486.4 321.186 409.012 391.437 394.119 406.339H339.868L395.449 267.699Z" fill="#C98600"/>
<path d="M486.399 321.186L504.483 304.688" stroke="#5B3100" stroke-width="2.08" stroke-linecap="round" stroke-linejoin="round"/>
<path fill-rule="evenodd" clip-rule="evenodd" d="M510.068 353.651L548.097 406.339H652.079C652.079 406.339 649.154 398.622 634.261 391.969C619.369 385.317 599.157 377.866 587.988 353.651H510.068Z" fill="#8D1A00"/>
<path fill-rule="evenodd" clip-rule="evenodd" d="M569.638 310.276L620.432 331.298V385.849C620.432 385.849 601.55 382.656 587.987 353.651C580.982 339.585 574.854 325.099 569.638 310.276Z" fill="#935000"/>
<path fill-rule="evenodd" clip-rule="evenodd" d="M620.432 331.298C620.432 331.298 649.153 349.659 669.098 328.105C689.044 306.55 692.767 290.052 705 287.657C701.809 310.01 690.373 406.339 690.373 406.339H620.432V331.298Z" fill="#8D1A00"/>
</g>
<defs>
<clipPath id="clip0_447:20449">
<rect width="705" height="409" fill="white"/>
</clipPath>
</defs>
</svg>
