<svg width="412" height="741" viewBox="0 0 412 741" fill="none" xmlns="http://www.w3.org/2000/svg">
<g clip-path="url(#clip0_447:20461)">
<path fill-rule="evenodd" clip-rule="evenodd" d="M106.53 331.545L67.7778 468.396L192.821 517.775L225.926 430.617V519.656H329.475V331.545H106.53Z" fill="#FF341A"/>
<path fill-rule="evenodd" clip-rule="evenodd" d="M73.5826 470.747C73.5826 470.747 51.147 547.873 44.4006 564.959C37.6542 582.046 41.2628 589.727 48.0092 604.776C54.7555 619.825 91.3115 690.21 91.3115 690.21L159.56 665.756L143.714 593.333L181.995 513.386L73.5826 470.747Z" fill="#FFC7BF"/>
<path fill-rule="evenodd" clip-rule="evenodd" d="M237.693 519.656C233.77 573.895 252.284 621.236 252.284 664.972H322.101V519.656H237.693Z" fill="#FFC7BF"/>
<path fill-rule="evenodd" clip-rule="evenodd" d="M184.976 94.0554C177.445 94.0554 163.639 94.3689 148.734 95.4663C133.829 96.5636 92.5665 98.6014 76.7203 132.148C60.8742 165.694 11.9237 267.117 5.33417 280.755C-1.25532 294.394 -5.33453 328.567 14.4339 338.286C34.2024 348.005 65.5809 350.043 86.6045 345.027C99.2128 341.936 111.425 337.412 123.004 331.545H331.043V323.551C331.043 323.551 358.029 325.745 369.639 326.372C381.249 326.999 401.017 326.059 408.548 306.15C416.079 286.242 410.117 267.431 401.645 251.442C393.173 235.452 338.731 135.597 330.259 119.764C321.787 103.931 306.568 95.623 288.682 95.623H240.202C240.202 95.623 192.507 94.0554 184.976 94.0554Z" fill="#BDC7FB"/>
<path d="M128.338 180.43V275.112" stroke="#163BF3" stroke-width="2.08" stroke-linecap="round" stroke-linejoin="round"/>
<path d="M73.5825 275.112H181.682V308.972C181.682 308.972 142.772 324.491 123.004 331.545" stroke="#163BF3" stroke-width="2.08" stroke-linecap="round" stroke-linejoin="round"/>
<path d="M378.425 275.112H280.524V312.107C280.524 312.107 306.882 321.513 331.043 323.551" stroke="#163BF3" stroke-width="2.08" stroke-linecap="round" stroke-linejoin="round"/>
<path d="M285.231 188.581H176.034V273.466H285.231V188.581Z" fill="#FBBE2E"/>
<path fill-rule="evenodd" clip-rule="evenodd" d="M179.799 273.544H243.497C243.497 273.544 246.007 278.247 225.455 281.696C204.902 285.145 179.799 295.177 179.799 295.177V273.544Z" fill="#FFC7BF"/>
<path d="M308.608 275.112V180.43" stroke="#163BF3" stroke-width="2.08" stroke-linecap="round" stroke-linejoin="round"/>
<path d="M292.134 158.327H169.13V188.534H292.134V158.327Z" fill="#FBBE2E"/>
<path d="M239.732 188.581H221.689V273.466H239.732V188.581Z" fill="#FF341A"/>
<path d="M239.732 158.327H221.689V188.534H239.732V158.327Z" fill="#FF341A"/>
<path fill-rule="evenodd" clip-rule="evenodd" d="M282.093 273.544H218.551C218.551 273.544 215.884 278.247 236.437 281.696C256.99 285.145 282.093 295.177 282.093 295.177V273.544Z" fill="#FFC7BF"/>
<path d="M285.231 188.581H176.034V197.203H285.231V188.581Z" fill="#CF1D00"/>
<path d="M239.732 188.424H221.689V197.046H239.732V188.424Z" fill="#CF1D00"/>
<path d="M230.632 158.327C230.632 158.327 205.059 118.823 194.39 127.288C183.721 135.753 230.632 158.327 230.632 158.327Z" stroke="#CF1D00" stroke-width="2.08" stroke-linecap="round" stroke-linejoin="round"/>
<path d="M230.632 158.327C230.632 158.327 256.206 118.823 266.875 127.288C277.543 135.753 230.632 158.327 230.632 158.327Z" stroke="#CF1D00" stroke-width="2.08" stroke-linecap="round" stroke-linejoin="round"/>
<path d="M100.725 351.767H329.475" stroke="#163BF3" stroke-width="2.08" stroke-linecap="round" stroke-linejoin="round"/>
<path d="M177.132 430.147H264.678" stroke="#FF341A" stroke-width="2.08" stroke-linecap="round" stroke-linejoin="round"/>
<path fill-rule="evenodd" clip-rule="evenodd" d="M49.5781 741H185.918L159.403 664.972L91.3116 690.21L100.725 712C100.725 712 88.9582 725.324 78.7602 727.676C68.5621 730.027 49.5781 732.535 49.5781 741Z" fill="#0089E3"/>
<path fill-rule="evenodd" clip-rule="evenodd" d="M252.283 664.972C252.283 676.415 245.851 710.902 245.851 741H333.554L322.1 664.972H252.283Z" fill="#0089E3"/>
<path fill-rule="evenodd" clip-rule="evenodd" d="M192.193 57.844V81.5146L212.746 102.05L232.672 81.9849V58.1575L192.193 57.844Z" fill="#FFC7BF"/>
<path fill-rule="evenodd" clip-rule="evenodd" d="M215.257 65.0551L232.672 68.9741V58.1577L215.257 65.0551Z" fill="#FF341A"/>
<path fill-rule="evenodd" clip-rule="evenodd" d="M212.746 -0.000109601C219.207 -3.49949e-05 225.523 1.91629 230.893 5.50605C236.263 9.09581 240.445 14.1974 242.911 20.1645C245.376 26.1316 246.013 32.6956 244.741 39.0247C243.469 45.3539 240.345 51.1634 235.766 55.7171C231.186 60.2708 225.357 63.3638 219.016 64.6041C212.676 65.8445 206.109 65.1764 200.149 62.6845C194.189 60.1925 189.103 55.989 185.536 50.6064C181.969 45.2238 180.082 38.9044 180.113 32.449C180.113 28.1745 180.958 23.9421 182.6 19.995C184.242 16.0478 186.648 12.4637 189.68 9.44842C192.713 6.43318 196.311 4.04627 200.27 2.42479C204.228 0.803321 208.468 -0.0207594 212.746 -0.000109601Z" fill="#FFC7BF"/>
<path fill-rule="evenodd" clip-rule="evenodd" d="M190.311 56.1197C194.233 56.1197 210.707 41.6979 210.707 32.4491C210.707 23.2003 220.591 22.5733 220.591 30.0977C220.591 20.5354 222.003 9.24878 235.496 9.24878C229.304 3.48331 221.208 0.191839 212.747 0C205.686 0 180.27 4.54601 180.27 32.4491C180.194 36.8768 181.048 41.2712 182.778 45.3484C184.507 49.4256 187.074 53.0951 190.311 56.1197Z" fill="black"/>
<path fill-rule="evenodd" clip-rule="evenodd" d="M243.654 24.4544C244.752 26.9626 248.832 32.2924 252.126 33.5465C255.421 34.8005 254.637 37.7789 252.44 37.7789H243.34C243.34 37.7789 242.556 21.9463 243.654 24.4544Z" fill="#FFC7BF"/>
<path fill-rule="evenodd" clip-rule="evenodd" d="M192.194 81.5146L184.977 94.0554L207.883 119.607L212.433 101.893L192.194 81.5146Z" fill="#6D83F3"/>
<path fill-rule="evenodd" clip-rule="evenodd" d="M212.433 101.893L222.003 119.607L240.203 95.623L232.672 81.5146L212.433 101.893Z" fill="#6D83F3"/>
<path d="M237.692 24.1409V27.4328" stroke="#935000" stroke-width="2.08" stroke-linecap="round" stroke-linejoin="round"/>
</g>
<defs>
<clipPath id="clip0_447:20461">
<rect width="412" height="741" fill="white"/>
</clipPath>
</defs>
</svg>
