<svg width="416" height="736" viewBox="0 0 416 736" fill="none" xmlns="http://www.w3.org/2000/svg">
<g clip-path="url(#clip0_447:20356)">
<path fill-rule="evenodd" clip-rule="evenodd" d="M241.814 144.414L137.814 154.364L157.847 67.2322H121.759C121.759 67.2322 92.4913 131.622 84.5351 159.055C76.5788 186.487 94.1963 204.397 113.092 204.397H193.224L86.3821 598.977H416L341.694 278.026C341.694 278.026 374.371 256.705 365.847 209.798C361.016 183.218 359.737 171.279 357.464 160.334C355.191 149.389 343.683 139.723 327.628 139.723H281.453L241.814 144.414Z" fill="#C98600"/>
<path fill-rule="evenodd" clip-rule="evenodd" d="M241.814 144.414L268.241 193.026L281.454 139.723L241.814 144.414Z" fill="#DFA98B"/>
<path fill-rule="evenodd" clip-rule="evenodd" d="M86.3827 598.977L70.0439 659.387C70.0439 659.387 82.1205 649.295 95.6177 658.25C109.115 667.204 112.809 685.825 112.809 685.825L147.049 598.977H86.3827Z" fill="#DFA98B"/>
<path fill-rule="evenodd" clip-rule="evenodd" d="M277.476 598.977L296.372 682.129H342.831V598.977H277.476Z" fill="#DFA98B"/>
<path fill-rule="evenodd" clip-rule="evenodd" d="M86.3825 598.977L82.6885 612.338L140.798 614.755L147.049 598.977H86.3825Z" fill="black"/>
<path fill-rule="evenodd" clip-rule="evenodd" d="M277.476 598.977L281.027 614.755H342.831V598.977H277.476Z" fill="black"/>
<path fill-rule="evenodd" clip-rule="evenodd" d="M70.0434 659.387C66.7757 668.626 60.2402 685.825 60.2402 685.825C60.2402 685.825 23.0161 673.174 2.13086 673.885C33.956 699.47 82.6882 734.579 82.6882 734.579C82.6882 734.579 107.125 700.323 112.808 685.683C108.546 670.474 103.289 661.945 92.4915 656.402C84.3932 652.422 75.4423 655.407 70.0434 659.387Z" fill="#0C114D"/>
<path fill-rule="evenodd" clip-rule="evenodd" d="M2.13079 673.885C-2.55774 675.448 0.283792 684.972 12.3603 694.495C24.4368 704.019 66.0652 729.319 72.1745 732.873C78.2838 736.426 80.9832 737.279 83.3985 733.442C85.8139 729.604 82.9723 728.751 78.2838 724.629C63.792 711.836 29.1253 689.094 23.5843 684.119C18.0434 679.144 6.81931 672.464 2.13079 673.885Z" fill="#133191"/>
<path d="M60.2402 685.825L78.426 692.221" stroke="#163BF3" stroke-width="1.8" stroke-linecap="round" stroke-linejoin="round"/>
<path fill-rule="evenodd" clip-rule="evenodd" d="M296.371 682.129C297.934 689.378 298.218 710.983 293.956 714.821C289.694 718.659 272.502 727.756 272.644 734.579H347.945C347.945 734.579 344.109 714.821 343.256 706.435C342.404 698.049 342.83 682.129 342.83 682.129H296.371Z" fill="#0C114D"/>
<path d="M316.405 709.988C316.405 709.988 297.508 713.115 292.394 716.243" stroke="#163BF3" stroke-width="1.8" stroke-linecap="round" stroke-linejoin="round"/>
<path fill-rule="evenodd" clip-rule="evenodd" d="M130.284 67.232C127.371 63.3697 126.049 58.5369 126.59 53.7287C127.443 45.4846 128.437 35.8191 122.186 28.9964C115.934 22.1737 112.098 18.0516 114.514 15.2088C116.929 12.366 119.628 14.2139 121.333 16.4881C119.344 14.356 113.093 5.40119 115.792 2.98482C118.492 0.568439 125.169 3.2691 128.295 6.96473C126.306 5.11691 129.289 -3.8379 135.967 1.8477C142.645 7.53329 161.115 27.7171 161.115 27.7171C161.115 27.7171 168.361 16.2038 171.202 12.5082C174.044 8.81255 182 7.81757 180.153 17.7674C178.306 27.7171 166.087 57.7087 157.847 67.232H130.284Z" fill="#DFA98B"/>
<path d="M121.333 16.4883L133.694 30.8444" stroke="black" stroke-width="1.8" stroke-linecap="round" stroke-linejoin="round"/>
<path d="M127.869 6.39624L140.23 20.7524" stroke="black" stroke-width="1.8" stroke-linecap="round" stroke-linejoin="round"/>
<path d="M161.115 27.7173L153.442 38.5199" stroke="black" stroke-width="1.8" stroke-linecap="round" stroke-linejoin="round"/>
<path fill-rule="evenodd" clip-rule="evenodd" d="M192.088 149.247C192.088 149.247 178.164 136.596 180.437 121.814C182.711 107.031 190.383 99.6399 190.383 99.6399C190.383 99.6399 183.847 82.5832 191.519 72.0648C199.191 61.5465 217.804 67.232 217.804 67.232C217.804 67.232 236.984 33.687 273.924 42.2154C294.951 46.9061 299.64 67.232 299.64 67.232C299.64 67.232 327.629 78.4611 329.476 100.208C331.323 121.956 317.541 139.723 317.541 139.723L192.088 149.247Z" fill="#8D1A00"/>
<path fill-rule="evenodd" clip-rule="evenodd" d="M227.465 86.7053H300.35C300.35 86.7053 283.727 67.2322 263.552 67.2322C243.377 67.2322 227.465 86.7053 227.465 86.7053Z" fill="#8D1A00"/>
<path fill-rule="evenodd" clip-rule="evenodd" d="M235.563 86.7053C235.563 86.7053 229.596 101.061 229.596 112.717C229.596 124.372 232.295 142.282 259.716 144.13C287.137 145.978 294.383 119.255 294.667 111.438C295.377 99.7822 287.847 86.7053 287.847 86.7053H235.563Z" fill="#DFA98B"/>
<path fill-rule="evenodd" clip-rule="evenodd" d="M230.875 102.056C230.875 102.056 226.186 91.2539 218.798 94.9495C211.41 98.6451 221.64 120.393 230.022 120.25C229.88 112.148 230.875 102.056 230.875 102.056Z" fill="#DFA98B"/>
<path fill-rule="evenodd" clip-rule="evenodd" d="M293.672 101.203C293.672 101.203 299.497 91.1115 306.459 95.66C313.42 100.208 301.202 120.392 292.819 119.255C293.528 113.266 293.812 107.233 293.672 101.203Z" fill="#DFA98B"/>
<path d="M266.109 94.2388L271.082 110.158H260.142C260.142 110.158 263.552 118.403 269.661 119.255C263.694 124.23 258.011 125.367 250.055 119.255" stroke="black" stroke-width="2" stroke-linecap="round" stroke-linejoin="round"/>
<path d="M248.634 94.2388V97.2237" stroke="black" stroke-width="1.8" stroke-linecap="round" stroke-linejoin="round"/>
<path d="M278.754 94.2388V97.2237" stroke="black" stroke-width="1.8" stroke-linecap="round" stroke-linejoin="round"/>
<path d="M137.815 154.364L133.979 171.278" stroke="#5B3100" stroke-width="1.8" stroke-linecap="round" stroke-linejoin="round"/>
<path d="M193.224 204.397L198.623 184.498" stroke="#5B3100" stroke-width="1.8" stroke-linecap="round" stroke-linejoin="round"/>
<path d="M320.524 177.817L334.448 244.623" stroke="#5B3100" stroke-width="1.8" stroke-linecap="round" stroke-linejoin="round"/>
</g>
<defs>
<clipPath id="clip0_447:20356">
<rect width="416" height="736" fill="white"/>
</clipPath>
</defs>
</svg>
