<svg width="343" height="458" viewBox="0 0 343 458" fill="none" xmlns="http://www.w3.org/2000/svg">
<g clip-path="url(#clip0_447:20330)">
<path fill-rule="evenodd" clip-rule="evenodd" d="M177.907 87.0659H69.98C46.6533 87.0659 26.6121 111.05 5.25678 161.976C-14.2916 208.794 22.8339 253.477 76.7151 253.477V292.246H177.907C177.907 292.246 220.453 87.0659 177.907 87.0659Z" fill="#FBBE2E"/>
<path fill-rule="evenodd" clip-rule="evenodd" d="M164.929 87.0659H273.02C296.347 87.0659 316.388 111.05 337.579 161.976C357.292 208.794 320.166 253.477 266.121 253.477V292.246H164.929C164.929 292.246 122.383 87.0659 164.929 87.0659Z" fill="#FBBE2E"/>
<path fill-rule="evenodd" clip-rule="evenodd" d="M150.473 87.0659C150.473 87.0659 126.489 114.993 141.931 121.564C157.372 128.135 173.471 87.0659 173.471 87.0659H150.473Z" fill="white"/>
<path fill-rule="evenodd" clip-rule="evenodd" d="M196.47 87.0659C196.47 87.0659 220.453 114.993 205.012 121.564C189.57 128.135 173.472 87.0659 173.472 87.0659H196.47Z" fill="white"/>
<path fill-rule="evenodd" clip-rule="evenodd" d="M76.7148 292.246V458H128.296L171.664 292.246H76.7148Z" fill="#014A82"/>
<path fill-rule="evenodd" clip-rule="evenodd" d="M266.449 292.246V458H214.868L171.664 292.246H266.449Z" fill="#014A82"/>
<path fill-rule="evenodd" clip-rule="evenodd" d="M173.471 13.3064C181.691 13.3064 189.726 15.7439 196.561 20.3108C203.396 24.8777 208.723 31.3687 211.868 38.9631C215.014 46.5575 215.837 54.9142 214.233 62.9764C212.63 71.0386 208.671 78.4441 202.859 84.2566C197.047 90.0692 189.641 94.0275 181.579 95.6312C173.517 97.2349 165.161 96.4118 157.566 93.2661C149.972 90.1204 143.481 84.7933 138.914 77.9585C134.348 71.1237 131.91 63.0882 131.91 54.8681C131.91 43.8452 136.289 33.2739 144.083 25.4795C151.877 17.6852 162.448 13.3064 173.471 13.3064Z" fill="#FFC7BF"/>
<path fill-rule="evenodd" clip-rule="evenodd" d="M128.296 458H49.9385L76.7148 434.673H134.374L128.296 458Z" fill="#24A865"/>
<path fill-rule="evenodd" clip-rule="evenodd" d="M214.867 458H293.061L266.284 434.673H208.625L214.867 458Z" fill="#24A865"/>
<path d="M76.7148 253.477V135.199" stroke="black" stroke-width="1.25" stroke-linecap="round" stroke-linejoin="round"/>
<path d="M265.628 253.477V135.199" stroke="black" stroke-width="1.25" stroke-linecap="round" stroke-linejoin="round"/>
<path d="M294.54 189.738H265.628" stroke="black" stroke-width="1.25" stroke-linecap="round" stroke-linejoin="round"/>
<path fill-rule="evenodd" clip-rule="evenodd" d="M57.8242 189.738H76.7155V170.025L57.8242 189.738Z" fill="black"/>
<path fill-rule="evenodd" clip-rule="evenodd" d="M284.847 189.738H265.956V170.025L284.847 189.738Z" fill="black"/>
<path d="M129.118 36.7977C139.279 36.7977 147.517 28.5603 147.517 18.3989C147.517 8.23745 139.279 0 129.118 0C118.957 0 110.72 8.23745 110.72 18.3989C110.72 28.5603 118.957 36.7977 129.118 36.7977Z" fill="#CF1D00"/>
<path fill-rule="evenodd" clip-rule="evenodd" d="M129.775 48.4612C131.474 48.4612 133.104 49.1362 134.305 50.3377C135.507 51.5392 136.182 53.1688 136.182 54.868C136.14 56.554 135.452 58.1595 134.259 59.3521C133.067 60.5447 131.461 61.233 129.775 61.2747C128.076 61.2747 126.446 60.5997 125.245 59.3982C124.043 58.1967 123.368 56.5671 123.368 54.868C123.346 54.0204 123.496 53.1772 123.81 52.3897C124.124 51.6022 124.595 50.8868 125.195 50.2874C125.794 49.6879 126.509 49.2168 127.297 48.9028C128.084 48.5889 128.928 48.4386 129.775 48.4612Z" fill="#FFC7BF"/>
<path d="M219.604 36.8544C229.755 36.3934 237.61 27.7908 237.149 17.6399C236.688 7.48891 228.086 -0.366379 217.935 0.0945725C207.784 0.555524 199.929 9.15817 200.39 19.3091C200.851 29.4601 209.454 37.3153 219.604 36.8544Z" fill="#CF1D00"/>
<path fill-rule="evenodd" clip-rule="evenodd" d="M218.81 48.4612C219.652 48.4612 220.485 48.6269 221.262 48.9489C222.039 49.2709 222.745 49.7428 223.34 50.3377C223.935 50.9326 224.407 51.6389 224.729 52.4162C225.051 53.1935 225.217 54.0266 225.217 54.868C225.175 56.554 224.487 58.1595 223.294 59.3521C222.102 60.5447 220.496 61.233 218.81 61.2747C217.111 61.2747 215.481 60.5997 214.28 59.3982C213.079 58.1967 212.404 56.5671 212.404 54.868C212.381 54.0204 212.531 53.1772 212.845 52.3897C213.159 51.6022 213.63 50.8868 214.23 50.2874C214.829 49.6879 215.544 49.2168 216.332 48.9028C217.12 48.5889 217.963 48.4386 218.81 48.4612Z" fill="#FFC7BF"/>
<path fill-rule="evenodd" clip-rule="evenodd" d="M132.403 48.9541C133.597 49.3844 134.616 50.1979 135.299 51.2677C135.982 52.3375 136.293 53.6034 136.181 54.868V62.9175L147.516 40.0832H173.471V13.3063C173.471 13.3063 141.274 10.6779 131.91 48.4613" fill="#CF1D00"/>
<path fill-rule="evenodd" clip-rule="evenodd" d="M214.54 48.9541C213.345 49.3844 212.327 50.1979 211.644 51.2677C210.96 52.3375 210.65 53.6034 210.761 54.868V62.9175L199.427 40.0832H173.472V13.3063C173.472 13.3063 205.669 10.6779 215.033 48.4613" fill="#CF1D00"/>
<path fill-rule="evenodd" clip-rule="evenodd" d="M158.851 53.3896C159.361 53.4276 159.841 53.6475 160.203 54.0093C160.565 54.3711 160.784 54.8507 160.822 55.361C160.822 55.8838 160.615 56.3852 160.245 56.7549C159.875 57.1246 159.374 57.3323 158.851 57.3323C158.328 57.3323 157.827 57.1246 157.457 56.7549C157.088 56.3852 156.88 55.8838 156.88 55.361C156.88 54.8381 157.088 54.3367 157.457 53.967C157.827 53.5973 158.328 53.3896 158.851 53.3896Z" fill="black"/>
<path fill-rule="evenodd" clip-rule="evenodd" d="M185.791 53.5537C186.271 53.5537 186.73 53.7441 187.069 54.083C187.408 54.4219 187.598 54.8815 187.598 55.3607C187.598 55.84 187.408 56.2996 187.069 56.6385C186.73 56.9774 186.271 57.1678 185.791 57.1678C185.312 57.1678 184.853 56.9774 184.514 56.6385C184.175 56.2996 183.984 55.84 183.984 55.3607C183.984 54.8815 184.175 54.4219 184.514 54.083C184.853 53.7441 185.312 53.5537 185.791 53.5537Z" fill="black"/>
<path d="M172.65 55.3608L167.064 71.2956H175.935L168.543 78.8522C170.591 80.6626 173.203 81.7074 175.935 81.8092C180.206 81.8092 184.313 78.0309 184.313 78.0309" stroke="#CF1D00" stroke-linecap="round" stroke-linejoin="round"/>
<path d="M152.773 48.954C153.713 47.9802 154.883 47.259 156.175 46.857C157.467 46.4551 158.84 46.3853 160.166 46.6542" fill="black"/>
<path d="M152.773 48.954C153.713 47.9802 154.883 47.259 156.175 46.857C157.467 46.4551 158.84 46.3853 160.166 46.6542" stroke="#CF1D00" stroke-width="1.27" stroke-linecap="round" stroke-linejoin="round"/>
<path d="M191.87 48.954C190.93 47.9802 189.76 47.259 188.468 46.857C187.176 46.4551 185.804 46.3853 184.478 46.6542" fill="black"/>
<path d="M191.87 48.954C190.93 47.9802 189.76 47.259 188.468 46.857C187.176 46.4551 185.804 46.3853 184.478 46.6542" stroke="#CF1D00" stroke-width="1.27" stroke-linecap="round" stroke-linejoin="round"/>
</g>
<defs>
<clipPath id="clip0_447:20330">
<rect width="343" height="458" fill="white"/>
</clipPath>
</defs>
</svg>
