<svg width="465" height="589" viewBox="0 0 465 589" fill="none" xmlns="http://www.w3.org/2000/svg">
<g clip-path="url(#clip0_447:20122)">
<path fill-rule="evenodd" clip-rule="evenodd" d="M165.362 36.5474C172.466 36.5474 179.41 38.6551 185.317 42.6042C191.223 46.5532 195.827 52.1661 198.545 58.7331C201.264 65.3001 201.975 72.5263 200.589 79.4978C199.203 86.4692 195.782 92.873 190.759 97.8991C185.736 102.925 179.336 106.348 172.369 107.735C165.402 109.122 158.18 108.41 151.617 105.69C145.054 102.97 139.445 98.3632 135.498 92.4531C131.552 86.5429 129.445 79.5945 129.445 72.4864C129.445 62.9548 133.229 53.8135 139.965 47.0737C146.701 40.3338 155.836 36.5474 165.362 36.5474Z" fill="#DFA98B"/>
<path fill-rule="evenodd" clip-rule="evenodd" d="M131.669 4.98442e-06C136.754 5.96967e-06 141.726 1.50919 145.954 4.33667C150.182 7.16415 153.478 11.1829 155.423 15.8846C157.368 20.5862 157.877 25.7596 156.883 30.7503C155.89 35.7411 153.44 40.3249 149.843 43.9221C146.246 47.5192 141.663 49.9681 136.675 50.9589C131.686 51.9497 126.517 51.438 121.819 49.4884C117.121 47.5388 113.107 44.239 110.284 40.0064C107.461 35.7737 105.956 30.7984 105.959 25.7096C105.959 22.332 106.624 18.9876 107.916 15.8673C109.209 12.747 111.103 9.91208 113.49 7.52452C115.878 5.13695 118.712 3.24352 121.831 1.95244C124.95 0.661349 128.293 -0.00209812 131.669 4.98442e-06Z" fill="black"/>
<path fill-rule="evenodd" clip-rule="evenodd" d="M195.358 52.7319L148.962 69.3006L152.162 94.9142C152.162 94.9142 141.475 69.6368 137.987 72.5023C134.5 75.3679 139.267 97.2995 139.267 97.2995C139.267 97.2995 110.182 64.4181 146.211 38.8365C182.24 13.255 195.358 52.7319 195.358 52.7319Z" fill="black"/>
<path fill-rule="evenodd" clip-rule="evenodd" d="M292.535 80.0423L322.053 142.699C322.053 142.699 394.238 101.35 417.852 88.6389C441.466 75.9281 442.826 51.4832 431.019 51.4352C444.634 47.289 452.361 41.702 460.985 36.5473C469.608 31.3925 463.256 25.8376 452.361 30.1439C441.466 34.4502 401.566 54.5568 389.247 58.655C376.928 62.7532 292.535 80.0423 292.535 80.0423Z" fill="#DFA98B"/>
<path fill-rule="evenodd" clip-rule="evenodd" d="M49.163 246.291C49.163 246.291 40.0917 274.001 32.3484 293.083C24.6051 312.165 34.1722 330.335 40.0917 343.51C46.0112 356.685 58.2342 391.68 67.2894 401.669C76.3446 411.658 90.0234 423.937 101.83 409.817C113.637 395.698 117.829 380.153 111.03 375.495C104.23 370.836 94.2951 370.836 94.2951 370.836C94.2951 370.836 82.4401 336.178 79.1924 328.302C75.9447 320.426 72.441 299.231 78.0245 289.69C83.608 280.148 92.6792 262.011 92.6792 262.011L49.163 246.291Z" fill="#DFA98B"/>
<path fill-rule="evenodd" clip-rule="evenodd" d="M175.857 108.426C150.883 117.63 122.742 133.079 110.487 137.673C98.2318 142.267 78.2176 154.882 71.8821 174.493C65.5467 194.103 49.1641 246.355 49.1641 246.355L92.6803 262.075L105.959 246.355L123.286 325.597H292.535C292.535 325.597 287.464 253.27 251.499 182.385C282.744 163.847 322.053 142.764 322.053 142.764L292.535 80.0425C292.535 80.0425 200.831 99.2527 175.857 108.426Z" fill="#FF341A"/>
<path fill-rule="evenodd" clip-rule="evenodd" d="M123.285 325.532L131.668 416.204H203.214L218.541 381.146L232.156 416.204H305.382L292.535 325.532H123.285Z" fill="#FBBE2E"/>
<path fill-rule="evenodd" clip-rule="evenodd" d="M144.164 416.22C144.164 416.22 147.796 529.977 153.619 551.428H191.392L197.567 416.22H144.164Z" fill="#DFA98B"/>
<path fill-rule="evenodd" clip-rule="evenodd" d="M305.381 416.22C308.709 438.392 316.708 504.907 318.884 544.16H272.76C272.76 544.16 268.392 454.769 248.41 416.22C271.304 416.22 292.23 414.764 305.381 416.22Z" fill="#DFA98B"/>
<path fill-rule="evenodd" clip-rule="evenodd" d="M153.587 551.412C147.539 562.954 134.693 579.763 135.06 585.206H200.815C200.815 576.129 195.711 560.137 191.36 551.412C187.008 542.687 157.619 543.776 153.587 551.412Z" fill="#FF341A"/>
<path fill-rule="evenodd" clip-rule="evenodd" d="M272.761 544.144C272.761 544.144 262.217 577.57 269.113 585.206H365.393C361.372 578.542 355.231 573.423 347.954 570.67C336.339 566.668 319.989 551.764 318.885 544.144C317.781 536.524 272.761 544.144 272.761 544.144Z" fill="#FF341A"/>
<path d="M460.424 585.206H3.79102" stroke="black" stroke-width="4.74" stroke-linecap="round" stroke-linejoin="round"/>
</g>
<defs>
<clipPath id="clip0_447:20122">
<rect width="465" height="589" fill="white"/>
</clipPath>
</defs>
</svg>
