<svg width="440" height="630" viewBox="0 0 440 630" fill="none" xmlns="http://www.w3.org/2000/svg">
<g clip-path="url(#clip0_447:20149)">
<path fill-rule="evenodd" clip-rule="evenodd" d="M149.006 153.673C149.006 153.673 118.434 132.911 124.424 106.043C130.414 79.1753 154.299 75.8491 155.633 63.2127C156.967 50.5762 145.685 16.7069 173.573 4.00968C201.46 -8.68752 246.044 9.50776 244.998 46.3388C244.998 86.4808 222.539 106.043 222.539 106.043L149.006 153.673Z" fill="black"/>
<path fill-rule="evenodd" clip-rule="evenodd" d="M222.541 37.8486C229.274 37.8486 235.856 39.8484 241.455 43.595C247.053 47.3417 251.417 52.6669 253.994 58.8974C256.57 65.1278 257.244 71.9836 255.931 78.5978C254.617 85.212 251.375 91.2875 246.614 96.0561C241.852 100.825 235.786 104.072 229.182 105.388C222.578 106.703 215.733 106.028 209.512 103.447C203.291 100.867 197.974 96.4964 194.234 90.8892C190.493 85.2819 188.496 78.6896 188.496 71.9458C188.504 62.9051 192.094 54.2371 198.476 47.8443C204.859 41.4516 213.514 37.8567 222.541 37.8486Z" fill="#5B3100"/>
<path fill-rule="evenodd" clip-rule="evenodd" d="M237.901 102.367C237.901 102.367 281.879 128.521 294.162 137.042C306.445 145.562 311.51 153.384 316.606 175.862C321.701 198.341 329.677 251.879 332.862 273.157C336.047 294.435 327.024 321.592 306.309 321.592H280.271V358.833H106.516C106.516 358.833 133.069 202.396 136.845 173.113C140.621 143.831 153.283 131.604 162.261 125.225C171.238 118.846 209.271 103.4 209.271 103.4L237.901 102.367Z" fill="#9CE8C2"/>
<path d="M152.541 358.833L178.033 188.605" stroke="#00672E" stroke-width="3" stroke-linecap="round" stroke-linejoin="round"/>
<path d="M278.467 188.605V262.996" stroke="#00672E" stroke-width="3" stroke-linecap="round" stroke-linejoin="round"/>
<path d="M250.396 262.996H303.533" stroke="#00672E" stroke-width="3" stroke-linecap="round" stroke-linejoin="round"/>
<path d="M280.271 321.592H250.396" stroke="#00672E" stroke-width="3" stroke-linecap="round" stroke-linejoin="round"/>
<path d="M260.179 256.192H170.496V328.988H260.179V256.192Z" fill="#00672E"/>
<path fill-rule="evenodd" clip-rule="evenodd" d="M123.288 358.833C119.027 373.641 114.781 391.092 123.698 395.284C129.124 397.865 135.191 398.785 141.137 397.927C141.137 397.927 155.164 406.007 155.164 395.785V358.833C144.553 358.068 133.9 358.068 123.288 358.833Z" fill="#5B3100"/>
<path fill-rule="evenodd" clip-rule="evenodd" d="M280.272 358.833L265.38 602.965H237.629C237.629 602.965 217.005 527.162 215.337 431.34C216.338 527.131 187.783 592.334 180.459 602.297H160.547L155.164 358.802L280.272 358.833Z" fill="#163BF3"/>
<path fill-rule="evenodd" clip-rule="evenodd" d="M160.547 602.327C156.256 608.509 137.891 618.715 141.986 626.902H180.458C180.458 626.902 181.975 609.435 180.458 602.327C178.942 595.219 164.839 596.146 160.547 602.327Z" fill="#CF1D00"/>
<path fill-rule="evenodd" clip-rule="evenodd" d="M237.598 602.965C237.598 602.965 230.728 621.419 232.776 626.871H295.709C295.709 626.871 291.811 615.511 265.379 602.965H237.598Z" fill="#CF1D00"/>
<path d="M198.033 400.949L214.365 415.879L232.396 400.949" stroke="black" stroke-width="3" stroke-linecap="round" stroke-linejoin="round"/>
<path d="M215.23 436.307V415.879" stroke="black" stroke-width="3" stroke-linecap="round" stroke-linejoin="round"/>
<path d="M436.421 626.4H3.59375" stroke="black" stroke-width="4.74" stroke-linecap="round" stroke-linejoin="round"/>
</g>
<defs>
<clipPath id="clip0_447:20149">
<rect width="440" height="630" fill="white"/>
</clipPath>
</defs>
</svg>
