<svg width="462" height="720" viewBox="0 0 462 720" fill="none" xmlns="http://www.w3.org/2000/svg">
<g clip-path="url(#clip0_447:20135)">
<path fill-rule="evenodd" clip-rule="evenodd" d="M216.677 69.0213C196.407 72.685 153.192 87.4354 133.878 92.0071C114.564 96.5788 98.848 109.816 90.6637 140.83C82.4793 171.844 71.8748 219.154 69.8366 241.535C67.7985 263.915 62.6873 309.696 124.723 313.805C136.859 313.933 148.952 315.278 160.82 317.82L298.106 310.205C305.717 309.775 311.322 298.497 309.793 291.887C315.366 303.037 363.166 323.936 380.968 288.844C398.77 253.752 419.087 200.851 419.087 200.851L365.714 162.191L349.441 200.851C349.441 200.851 347.403 152.028 346.893 132.706C346.384 113.384 334.681 90.9876 304.125 82.354C273.569 73.7204 243.984 68.5752 243.984 68.5752C243.984 68.5752 236.962 65.3098 216.677 69.0213Z" fill="#FFC7BF"/>
<path fill-rule="evenodd" clip-rule="evenodd" d="M229.813 0C236.883 0 243.794 2.09735 249.673 6.02683C255.551 9.9563 260.133 15.5414 262.839 22.0759C265.544 28.6104 266.252 35.8007 264.873 42.7377C263.494 49.6747 260.089 56.0467 255.09 61.048C250.091 66.0492 243.721 69.4551 236.787 70.835C229.853 72.2148 222.665 71.5067 216.133 68.8C209.602 66.0933 204.019 61.5097 200.091 55.6288C196.163 49.748 194.066 42.8339 194.066 35.7611C194.066 26.2766 197.833 17.1807 204.536 10.4742C211.24 3.76767 220.332 0 229.813 0V0Z" fill="#FBBE2E"/>
<path fill-rule="evenodd" clip-rule="evenodd" d="M160.82 316.864C160.82 316.864 164.785 407.533 169.737 455.687C174.689 503.841 182.141 672.69 182.141 672.69H230.244L235.673 440.124L295.336 666.621H349.474L301.371 308.357L160.82 316.864Z" fill="#0089E3"/>
<path fill-rule="evenodd" clip-rule="evenodd" d="M364.631 174.409C366.223 165.616 361.447 128.421 370.586 125.028C379.726 121.635 379.392 128.851 379.392 134.984V144.956C379.392 144.956 398.499 117.382 406.588 107.028C414.677 96.6743 426.491 100.147 420.377 112.014C414.263 123.881 399.677 147.632 399.677 147.632C399.677 147.632 420.377 121.588 427.638 114.308C434.899 107.028 444.468 111.249 439.484 120.823C434.5 130.396 417.654 152.92 417.654 152.92C417.654 152.92 440.249 134.538 447.907 128.788C455.566 123.037 460.534 131.846 454.786 137.979C449.038 144.111 430.297 162.876 430.297 162.876C430.297 162.876 444.834 159.053 453.258 156.361C461.681 153.669 462.063 162.876 454.038 167.081C446.013 171.287 422.511 206.172 408.212 205.98C393.913 205.789 361.319 193.205 364.631 174.409Z" fill="#FBBE2E"/>
<path fill-rule="evenodd" clip-rule="evenodd" d="M219.178 314.586V262.943C219.178 262.943 234.448 243.828 239.304 237.95C244.161 232.073 249.033 236.565 246.931 242.108C244.829 247.651 239.304 260.857 239.304 260.857C239.304 260.857 263.013 267.117 265.561 280.306C268.109 293.496 271.452 312.451 257.456 312.451C243.46 312.451 219.178 314.586 219.178 314.586Z" fill="#FBBE2E"/>
<path d="M150.615 153.414L145.742 252.589" stroke="#CF1D00" stroke-width="3" stroke-linecap="round" stroke-linejoin="round"/>
<path d="M120.248 252.589L219.176 262.943" stroke="#CF1D00" stroke-width="3" stroke-linecap="round" stroke-linejoin="round"/>
<path d="M301.371 158.735L309.778 291.887" stroke="#CF1D00" stroke-width="3" stroke-linecap="round" stroke-linejoin="round"/>
<path d="M349.426 200.851L334.984 235.163" stroke="#CF1D00" stroke-width="3" stroke-linecap="round" stroke-linejoin="round"/>
<path d="M209.623 390.664L233.921 410.448L255.114 387.191" stroke="#163BF3" stroke-width="3" stroke-linecap="round" stroke-linejoin="round"/>
<path fill-rule="evenodd" clip-rule="evenodd" d="M182.125 672.69C182.427 682.248 124.802 703.386 127.605 716.225H232.377L230.243 672.69C230.243 672.69 198.812 671.495 182.125 672.69Z" fill="#163BF3"/>
<path fill-rule="evenodd" clip-rule="evenodd" d="M295.336 666.589C299.38 681.165 311.545 711.717 317.787 716.225H382.688C382.688 716.225 382.354 710.681 367.068 697.827C357.789 689.739 351.562 678.714 349.426 666.589C349.426 666.589 312.771 664.152 295.336 666.589Z" fill="#163BF3"/>
<path d="M458.242 716.225H3.77344" stroke="black" stroke-width="4.74" stroke-linecap="round" stroke-linejoin="round"/>
</g>
<defs>
<clipPath id="clip0_447:20135">
<rect width="462" height="720" fill="white"/>
</clipPath>
</defs>
</svg>
