<svg width="458" height="482" viewBox="0 0 458 482" fill="none" xmlns="http://www.w3.org/2000/svg">
<g clip-path="url(#clip0_447:20165)">
<path d="M454.258 478.261H3.74023" stroke="black" stroke-width="4.74" stroke-linecap="round" stroke-linejoin="round"/>
<path fill-rule="evenodd" clip-rule="evenodd" d="M212.623 71.7399L215.464 59.8752H247.792L250.602 71.5821L212.623 71.7399Z" fill="#DFA98B"/>
<path fill-rule="evenodd" clip-rule="evenodd" d="M230.965 0C237.973 0 244.825 2.07736 250.652 5.9694C256.48 9.86143 261.022 15.3933 263.704 21.8655C266.386 28.3377 267.088 35.4596 265.721 42.3305C264.353 49.2013 260.978 55.5126 256.022 60.4662C251.066 65.4198 244.752 68.7933 237.878 70.16C231.004 71.5267 223.879 70.8253 217.403 68.1444C210.928 65.4635 205.393 60.9236 201.5 55.0988C197.606 49.2739 195.527 42.4258 195.527 35.4203C195.532 26.0275 199.266 17.0207 205.911 10.379C212.556 3.73729 221.567 0.00418107 230.965 0V0Z" fill="#DFA98B"/>
<path fill-rule="evenodd" clip-rule="evenodd" d="M230.965 70.8406C193.334 70.8406 103.012 84.5511 84.3386 152C65.665 219.448 64.6074 283.788 64.6074 283.788H145.584V310.815H320.008V283.836H398.932C398.932 283.836 388.767 200.673 366.826 135.007C354.608 98.4984 300.94 70.8406 230.965 70.8406Z" fill="#B9E2FE"/>
<path d="M145.584 283.788V164.006" stroke="#0089E3" stroke-width="3" stroke-linecap="round" stroke-linejoin="round"/>
<path d="M321.666 283.788V164.006" stroke="#0089E3" stroke-width="3" stroke-linecap="round" stroke-linejoin="round"/>
<path fill-rule="evenodd" clip-rule="evenodd" d="M145.584 310.768V405.763H223.246L241.367 375.218L257.894 405.763H319.992V310.768H145.584Z" fill="#0089E3"/>
<path fill-rule="evenodd" clip-rule="evenodd" d="M182.396 448.505H215.986L218.97 478.261H154.693C154.693 478.261 156.809 466.664 166.343 462.862C175.877 459.06 182.396 448.505 182.396 448.505Z" fill="#163BF3"/>
<path fill-rule="evenodd" clip-rule="evenodd" d="M294.027 448.505H260.452L257.484 478.261H321.698C321.698 478.261 319.567 466.664 310.048 462.862C300.53 459.06 294.027 448.505 294.027 448.505Z" fill="#163BF3"/>
<path fill-rule="evenodd" clip-rule="evenodd" d="M212.938 448.505L209.671 405.764H172.387L182.394 448.505H212.938Z" fill="#DFA98B"/>
<path fill-rule="evenodd" clip-rule="evenodd" d="M263.467 448.505L266.734 405.764H304.018L294.026 448.505H263.467Z" fill="#DFA98B"/>
<path fill-rule="evenodd" clip-rule="evenodd" d="M82.4284 283.662C82.4284 283.662 68.0009 298.856 77.3298 310.641C84.2436 319.366 104.543 317.236 110.336 310.641C107.953 316.621 116.113 323.421 122.238 313.56C128.363 303.699 132.104 283.583 132.104 283.583L82.4284 283.662Z" fill="#DFA98B"/>
<path fill-rule="evenodd" clip-rule="evenodd" d="M385.406 283.662C385.406 283.662 399.833 298.856 390.504 310.641C383.59 319.366 363.291 317.236 357.498 310.641C359.881 316.621 351.721 323.421 345.596 313.56C339.471 303.699 335.73 283.583 335.73 283.583L385.406 283.662Z" fill="#DFA98B"/>
<path fill-rule="evenodd" clip-rule="evenodd" d="M207.887 72.2133L231.754 96.2423L254.231 71.8188C238.823 70.0989 223.264 70.2314 207.887 72.2133Z" fill="white"/>
</g>
<defs>
<clipPath id="clip0_447:20165">
<rect width="458" height="482" fill="white"/>
</clipPath>
</defs>
</svg>
