<svg width="381" height="751" viewBox="0 0 381 751" fill="none" xmlns="http://www.w3.org/2000/svg">
<path fill-rule="evenodd" clip-rule="evenodd" d="M130.267 88.8176L274.636 46.6831V72.5384L118.077 150.583L94.4141 92.8874L130.267 88.8176Z" fill="#FEDD8E"/>
<path fill-rule="evenodd" clip-rule="evenodd" d="M110.188 46.4437C115.351 46.3963 120.412 47.8863 124.727 50.7246C129.043 53.5629 132.42 57.6216 134.428 62.3854C136.437 67.1492 136.987 72.4033 136.009 77.4809C135.031 82.5584 132.569 87.2304 128.935 90.9038C125.301 94.5772 120.659 97.0863 115.599 98.1128C110.539 99.1392 105.288 98.6366 100.513 96.6688C95.7387 94.701 91.6556 91.3567 88.7821 87.0604C85.9086 82.7641 84.3744 77.7096 84.3742 72.5384C84.3426 69.1229 84.987 65.7351 86.2701 62.5705C87.5533 59.4059 89.4497 56.5273 91.85 54.101C94.2502 51.6747 97.1066 49.7488 100.254 48.4345C103.402 47.1202 106.778 46.4436 110.188 46.4437Z" fill="#5B3100"/>
<path fill-rule="evenodd" clip-rule="evenodd" d="M133.375 60.8077C133.375 60.8077 123.814 66.3139 114.97 65.8351V88.3388C114.97 88.3388 108.516 74.9324 101.824 74.9324C95.1312 74.9324 95.1312 93.6056 95.1312 93.6056C95.1312 93.6056 76.9656 81.6356 87.7216 59.6107C64.2975 70.1443 49.7172 71.102 39.6783 56.9773C29.6394 42.8527 32.9857 22.9824 45.1758 10.773C57.3658 -1.43646 82.9411 -4.30927 93.6971 7.66077C104.453 19.6308 104.453 47.1619 104.453 47.1619C104.453 47.1619 125.726 42.8527 133.375 60.8077Z" fill="black"/>
<path fill-rule="evenodd" clip-rule="evenodd" d="M134.33 62.7229C134.33 62.7229 143.174 64.8775 146.998 65.3563C143.413 67.2715 136.003 72.5383 136.003 72.5383L134.33 62.7229Z" fill="#5B3100"/>
<path fill-rule="evenodd" clip-rule="evenodd" d="M92.98 88.8176L83.6582 106.294C94.5329 114.124 106.438 120.408 119.033 124.967L131.223 104.139L92.98 88.8176Z" fill="#FBBE2E"/>
<path fill-rule="evenodd" clip-rule="evenodd" d="M80.7901 105.336C70.2732 102.464 60.4733 110.843 52.1076 128.319C43.7418 145.795 9.32277 208.039 1.43507 238.683C-6.45263 269.326 20.7958 300.209 41.3516 305.236V264.538C41.3516 264.538 76.0097 208.518 89.6339 187.211C103.258 165.905 111.146 123.052 99.9119 114.912C88.6778 106.773 90.112 107.97 80.7901 105.336Z" fill="#FEDD8E"/>
<path fill-rule="evenodd" clip-rule="evenodd" d="M117.36 123.77C117.36 123.77 140.067 136.698 140.545 178.354C141.023 220.009 140.545 312.179 140.545 312.179H41.3516V263.58L99.9118 114.912L117.36 123.77Z" fill="#FEDD8E"/>
<path fill-rule="evenodd" clip-rule="evenodd" d="M52.584 311.939C52.584 311.939 43.2622 322.951 41.5891 354.552C39.9159 386.153 60.4717 446.243 60.4717 446.243V624.117H128.354V311.939H52.584Z" fill="#C98600"/>
<path fill-rule="evenodd" clip-rule="evenodd" d="M274.635 46.6833C279.415 45.2469 303.317 40.6982 311.922 40.6982H329.61C333.673 40.6982 333.673 46.6833 328.176 46.6833C322.678 46.6833 308.815 50.7531 302.361 58.4139C295.908 66.0747 289.454 77.0871 274.635 72.5385V46.6833Z" fill="#5B3100"/>
<path fill-rule="evenodd" clip-rule="evenodd" d="M78.8773 624.118L60.7117 638.003C55.6922 642.073 38.7217 654.043 51.1508 668.646C63.5799 683.25 113.535 748.845 113.535 748.845H163.73C174.486 748.845 142.457 719.878 122.857 700.726C120.616 698.591 118.891 695.971 117.814 693.067C116.737 690.163 116.337 687.051 116.643 683.968C116.643 674.871 117.36 641.594 117.36 624.118H78.8773Z" fill="#8D1A00"/>
<path d="M41.3516 263.341C41.3516 263.341 80.5511 200.857 88.9168 188.408C97.2826 175.959 104.214 146.753 105.17 137.895" stroke="black" stroke-width="1.67" stroke-linecap="round" stroke-linejoin="round"/>
<path d="M41.3516 263.341V305.236" stroke="black" stroke-width="1.67" stroke-linecap="round" stroke-linejoin="round"/>
<path fill-rule="evenodd" clip-rule="evenodd" d="M235.675 150.583H258.86C258.86 150.583 259.577 129.516 233.523 120.419C207.47 111.321 201.256 125.685 196.236 139.331C191.217 152.977 178.31 193.915 176.636 203.73C174.963 213.546 181.656 217.376 188.827 217.376H235.197L235.675 150.583Z" fill="#5B3100"/>
<path fill-rule="evenodd" clip-rule="evenodd" d="M235.436 186.972C235.436 186.972 254.796 182.902 260.533 163.032H267.942L258.86 150.583H235.675L235.436 186.972Z" fill="#DFA98B"/>
<path fill-rule="evenodd" clip-rule="evenodd" d="M217.747 224.079C228.742 223.6 244.996 230.543 251.689 250.174C258.381 269.805 283.239 356.707 283.239 356.707L339.648 357.425V414.882H267.942C252.167 414.882 231.133 400.757 223.484 364.847C215.835 328.937 201.255 265.495 198.387 254.244C195.519 242.992 195.997 225.276 217.747 224.079Z" fill="#BDC7FB"/>
<path fill-rule="evenodd" clip-rule="evenodd" d="M244.758 183.142V207.082C244.758 207.082 307.142 303.8 315.508 357.186C323.874 410.572 344.908 694.741 344.908 694.741H183.568C183.568 694.741 196.476 573.365 208.188 517.584C219.9 461.804 234.241 379.211 228.265 329.176C224.933 299.375 214.345 270.849 197.432 246.104C197.432 246.104 194.324 218.094 197.432 209.954C200.539 201.815 244.758 183.142 244.758 183.142Z" fill="#BDC7FB"/>
<path d="M314.312 356.707H258.859" stroke="black" stroke-width="1.82" stroke-linecap="round" stroke-linejoin="round"/>
<path fill-rule="evenodd" clip-rule="evenodd" d="M339.649 357.425C346.58 357.425 367.136 364.607 373.829 381.126C380.521 397.645 380.282 400.039 380.76 404.587C381.238 409.136 375.741 410.812 373.829 404.348C371.63 398.788 368.824 393.489 365.463 388.547C365.463 388.547 352.795 414.881 339.649 414.881C326.503 414.881 318.376 357.425 339.649 357.425Z" fill="#DFA98B"/>
<path fill-rule="evenodd" clip-rule="evenodd" d="M268.422 246.583L306.426 164.947L335.826 185.296L292.802 293.026L268.422 246.583Z" fill="#163BF3"/>
<path fill-rule="evenodd" clip-rule="evenodd" d="M306.426 164.947C309.294 159.68 316.226 140.528 339.65 137.895C344.908 137.177 348.972 141.725 344.191 144.598C339.411 147.471 331.762 159.202 331.762 159.202C331.762 159.202 341.562 170.932 335.825 185.296L306.426 164.947Z" fill="#DFA98B"/>
<path fill-rule="evenodd" clip-rule="evenodd" d="M212.252 694.741C212.252 694.741 208.666 704.556 205.32 706.232C201.974 707.908 197.193 713.414 203.169 717.484C209.144 721.554 249.3 751 249.3 751H269.856V694.741H212.252Z" fill="#0C114D"/>
<path fill-rule="evenodd" clip-rule="evenodd" d="M262.207 694.741V745.254C262.207 745.254 260.773 751 275.831 751H363.791C363.791 751 363.074 745.494 349.449 741.663C335.825 737.833 304.752 722.99 304.752 722.99L306.426 694.741H262.207Z" fill="#163BF3"/>
<path d="M228.744 381.844C228.744 381.844 238.783 414.881 268.422 414.881H321.962" stroke="black" stroke-width="1.67" stroke-linecap="round" stroke-linejoin="round"/>
</svg>
