<svg width="301" height="629" viewBox="0 0 301 629" fill="none" xmlns="http://www.w3.org/2000/svg">
<g clip-path="url(#clip0_447:19982)">
<path fill-rule="evenodd" clip-rule="evenodd" d="M87.5347 384.074C87.5347 384.074 42.3998 451.075 67.6667 481.541C92.9336 512.008 128.293 486.832 128.293 486.832L114.169 369.596L87.5347 384.074Z" fill="#C98600"/>
<path fill-rule="evenodd" clip-rule="evenodd" d="M185.795 86.3674C191.223 77.8558 196.823 60.6743 196.823 43.6654C196.823 26.6564 185.795 0 140.142 0C94.4887 0 72.2308 35.355 72.2308 58.5464C72.2308 81.7378 75.5277 118.243 48.2452 135.051C20.9627 151.858 41.9249 179.291 73.9728 179.291C101.644 179.291 119.799 166.351 133.159 144.137C146.52 121.924 180.382 94.8935 185.795 86.3674Z" fill="black"/>
<path fill-rule="evenodd" clip-rule="evenodd" d="M201.042 194.388H146.203C150.162 190.434 151.041 184.769 151.041 181.333C151.041 177.897 173.572 179.291 173.572 179.291L173.673 179.708V179.291C173.673 179.291 196.204 177.853 196.204 181.333C196.204 184.812 197.082 190.434 201.042 194.388Z" fill="#FFC7BF"/>
<path fill-rule="evenodd" clip-rule="evenodd" d="M196.377 184.036C196.78 187.3 181.217 191.455 173.629 191.484C166.042 191.512 150.407 187.443 150.839 184.223C150.968 183.27 151.035 182.309 151.04 181.347C151.04 177.911 173.572 179.306 173.572 179.306L173.673 179.723V179.306C173.673 179.306 196.204 177.868 196.204 181.347C196.206 182.246 196.263 183.144 196.377 184.036Z" fill="#CF1D00"/>
<path fill-rule="evenodd" clip-rule="evenodd" d="M173.673 107C181.714 107 189.575 109.381 196.261 113.842C202.947 118.304 208.158 124.645 211.236 132.064C214.313 139.484 215.118 147.647 213.549 155.524C211.98 163.4 208.108 170.635 202.422 176.313C196.736 181.991 189.492 185.858 181.605 187.425C173.718 188.992 165.543 188.188 158.114 185.115C150.685 182.041 144.335 176.837 139.868 170.16C135.4 163.483 133.016 155.633 133.016 147.602C133.019 136.835 137.304 126.51 144.928 118.896C152.552 111.282 162.891 107.003 173.673 107Z" fill="#FFC7BF"/>
<path fill-rule="evenodd" clip-rule="evenodd" d="M133.015 143.778C133.015 143.778 124.896 135.151 122.462 140.802C120.029 146.452 129.387 159.09 134.729 159.277C140.07 159.464 133.015 143.778 133.015 143.778Z" fill="#FFC7BF"/>
<path fill-rule="evenodd" clip-rule="evenodd" d="M214.056 143.778C214.056 143.778 222.176 135.151 224.609 140.802C227.042 146.452 217.684 159.09 212.343 159.277C207.001 159.464 214.056 143.778 214.056 143.778Z" fill="#FFC7BF"/>
<path fill-rule="evenodd" clip-rule="evenodd" d="M133.015 143.778C133.015 143.778 121.584 96.3313 173.672 96.3313C225.761 96.3313 214.056 143.778 214.056 143.778H133.015Z" fill="black"/>
<path d="M185.809 86.3674H161.795V97.2658H185.809V86.3674Z" fill="#CF1D00"/>
<path fill-rule="evenodd" clip-rule="evenodd" d="M241.771 239.635V319.101V472.958L205.03 472.584L202.77 239.635H241.771Z" fill="#FEDD8E"/>
<path fill-rule="evenodd" clip-rule="evenodd" d="M205.029 472.584C205.029 472.584 205.029 497.112 218.822 496.71C232.614 496.307 241.771 483.382 241.771 472.958C227.374 473.03 205.029 472.584 205.029 472.584Z" fill="#FFC7BF"/>
<path fill-rule="evenodd" clip-rule="evenodd" d="M173.673 194.388H146.203C146.203 194.388 139.12 202.727 122.779 208.334C106.439 213.942 98.5059 230.591 98.5059 242.841C98.5059 255.091 105.503 264.552 114.17 265.414V413.506H225.114V267.743C225.114 267.743 241.584 254.487 241.584 239.462C241.584 224.438 230.599 212.231 220.464 206.753C210.328 201.275 206.988 200.614 201.042 194.388H173.673Z" fill="#FEDD8E"/>
<path fill-rule="evenodd" clip-rule="evenodd" d="M98.5184 243.632V323.098L48.0566 352.788L72.1574 392.686C72.1574 392.686 101.355 376.195 114.168 369.596C126.981 362.996 137.535 350.818 137.535 323.759V243.632H98.5184Z" fill="#FEDD8E"/>
<path d="M114.168 369.596V251.669" stroke="#C98600" stroke-width="1.67" stroke-linecap="round" stroke-linejoin="round"/>
<path d="M222.277 413.563V251.669" stroke="#C98600" stroke-width="1.67" stroke-linecap="round" stroke-linejoin="round"/>
<path fill-rule="evenodd" clip-rule="evenodd" d="M114.169 413.563C114.169 413.563 112.729 501.066 112.585 515.171C112.441 529.275 125.543 594.709 129.718 604.313H167.006V413.563H114.169Z" fill="#B9E2FE"/>
<path fill-rule="evenodd" clip-rule="evenodd" d="M167.007 604.313H173.629C173.629 604.313 223.674 480.894 222.306 413.563H156.756L166.978 440.795L167.007 604.313Z" fill="#B9E2FE"/>
<path fill-rule="evenodd" clip-rule="evenodd" d="M167.006 604.313H173.629C173.629 604.313 185.636 574.709 197.729 536.594C176.321 539.167 167.006 518.607 167.006 518.607V604.313Z" fill="#0089E3"/>
<path d="M168.359 530.613V438.379" stroke="#0089E3" stroke-width="1.67" stroke-linecap="round" stroke-linejoin="round"/>
<path fill-rule="evenodd" clip-rule="evenodd" d="M159.607 613.846C237.639 613.846 301.058 613.141 301.001 621.394C301.001 630.294 237.653 628.928 159.607 628.928C81.5601 628.928 18.2129 629.848 18.2129 621.394C18.2129 612.94 81.5745 613.846 159.607 613.846Z" fill="black"/>
<path fill-rule="evenodd" clip-rule="evenodd" d="M55.2842 350.962C44.4288 354.283 29.7582 357.691 23.6106 359.359C17.4631 361.027 17.9382 366.735 24.748 366.447C29.3873 366.33 34.0257 366.711 38.5836 367.583C38.5836 367.583 13.1152 385.871 4.5345 392.025C-4.04617 398.179 0.848843 403.757 9.12717 399.559C18.1397 394.987 38.0365 384.678 38.0365 384.678C38.0365 384.678 15.0012 404.505 10.3653 408.056C5.72946 411.608 8.16256 418.854 15.2603 413.894C22.3581 408.933 44.1985 394.383 44.1985 394.383C44.1985 394.383 27.4835 413.894 22.6028 419.53C17.7222 425.166 21.4943 431.564 28.6208 424.806C35.7474 418.049 52.7648 401.529 52.7648 401.529C52.7648 401.529 43.4786 419.3 40.7 424.145C37.9214 428.99 43.2915 432.887 48.4312 425.382C53.571 417.876 75.8865 389.437 80.5799 382.119C89.7077 367.928 72.5032 345.671 55.2842 350.962Z" fill="#FFC7BF"/>
<path d="M176.149 147.631L179.431 161.434H170.678" stroke="#CF1D00" stroke-width="1.67" stroke-linecap="round" stroke-linejoin="round"/>
<path d="M148.938 165.934C148.938 165.934 150.852 175.222 164.386 177.264" stroke="#CF1D00" stroke-width="1.67" stroke-linecap="round" stroke-linejoin="round"/>
<path fill-rule="evenodd" clip-rule="evenodd" d="M160.757 147.602C161.2 147.504 161.661 147.545 162.079 147.72C162.496 147.895 162.849 148.195 163.089 148.579C163.329 148.962 163.443 149.411 163.417 149.862C163.391 150.314 163.225 150.746 162.942 151.1C162.66 151.453 162.274 151.71 161.839 151.835C161.404 151.961 160.941 151.948 160.513 151.8C160.086 151.651 159.715 151.374 159.451 151.006C159.188 150.637 159.046 150.197 159.044 149.745C158.995 149.235 159.147 148.727 159.466 148.327C159.786 147.927 160.249 147.667 160.757 147.602Z" fill="black"/>
<path fill-rule="evenodd" clip-rule="evenodd" d="M189.882 147.602C190.325 147.504 190.786 147.545 191.204 147.72C191.621 147.895 191.974 148.195 192.214 148.579C192.454 148.962 192.568 149.411 192.542 149.862C192.516 150.314 192.35 150.746 192.067 151.1C191.785 151.453 191.399 151.71 190.964 151.835C190.529 151.961 190.066 151.948 189.638 151.8C189.211 151.651 188.84 151.374 188.576 151.006C188.313 150.637 188.171 150.197 188.169 149.745C188.12 149.235 188.272 148.727 188.591 148.327C188.911 147.927 189.374 147.667 189.882 147.602Z" fill="black"/>
<path fill-rule="evenodd" clip-rule="evenodd" d="M207.72 199.967L114.168 383.068V408.545L219.31 206.207L207.72 199.967Z" fill="#C98600"/>
<path fill-rule="evenodd" clip-rule="evenodd" d="M167.007 604.313V621.408H105.315C100.492 618.935 120.115 614.521 129.718 604.313H167.007Z" fill="#FEDD8E"/>
<path fill-rule="evenodd" clip-rule="evenodd" d="M167.006 604.313V621.408H198.032C202.869 618.935 183.231 614.521 173.557 604.313H167.006Z" fill="#C98600"/>
</g>
<defs>
<clipPath id="clip0_447:19982">
<rect width="301" height="629" fill="white"/>
</clipPath>
</defs>
</svg>
