<svg width="679" height="734" viewBox="0 0 679 734" fill="none" xmlns="http://www.w3.org/2000/svg">
<g clip-path="url(#clip0_447:19221)">
<path fill-rule="evenodd" clip-rule="evenodd" d="M545.647 724.114C619.25 724.114 679.057 723.655 679 729.029C678.935 734.844 619.25 733.944 545.647 733.944C472.043 733.944 412.293 734.553 412.293 729.029C412.293 723.505 472.043 724.114 545.647 724.114Z" fill="black"/>
<path fill-rule="evenodd" clip-rule="evenodd" d="M133.354 724.114C206.948 724.114 266.764 723.655 266.707 729.029C266.642 734.844 206.948 733.944 133.354 733.944C59.7599 733.944 0 734.553 0 729.029C0 723.505 59.7505 724.114 133.354 724.114Z" fill="black"/>
<path fill-rule="evenodd" clip-rule="evenodd" d="M97.8497 46.1077C97.8497 46.1077 88.7488 51.5851 88.7488 62.8401C88.7488 74.095 92.4979 76.3272 92.4979 76.3272C92.4979 76.3272 84.2406 85.2655 88.7488 95.3762C93.2571 105.487 105.432 107.016 110.362 103.986C115.292 100.957 118.404 74.1325 118.404 74.1325L113.015 46.0796L97.8497 46.1077Z" fill="black"/>
<path fill-rule="evenodd" clip-rule="evenodd" d="M166.832 79.8162H114.158L109.875 100.685C131.741 115.485 152.436 115.11 172.053 100.685L166.832 79.8162Z" fill="#00672E"/>
<path fill-rule="evenodd" clip-rule="evenodd" d="M145.024 19.3491C152.559 19.3491 159.925 21.5852 166.191 25.7745C172.456 29.9639 177.339 35.9184 180.223 42.885C183.107 49.8516 183.861 57.5175 182.391 64.9132C180.921 72.309 177.292 79.1024 171.964 84.4344C166.636 89.7665 159.847 93.3976 152.456 94.8687C145.066 96.3398 137.405 95.5848 130.443 92.6991C123.482 89.8135 117.531 84.9267 113.345 78.6569C109.158 72.3871 106.924 65.0158 106.924 57.4752C106.931 47.3658 110.948 37.6726 118.091 30.5242C125.235 23.3758 134.921 19.3566 145.024 19.3491Z" fill="#DFA98B"/>
<path fill-rule="evenodd" clip-rule="evenodd" d="M114.158 79.8162V57.4751C114.158 52.8888 113.998 46.1077 118.403 46.1077C122.809 46.1077 125.742 51.4162 125.742 55.4868V72.4817L132.903 46.1077H106.566C106.566 46.1077 100.755 71.4406 114.158 79.8162Z" fill="black"/>
<path d="M163.298 46.1077C164.616 50.812 166.734 55.2539 169.559 59.2384H158.771" stroke="black" stroke-width="1.67" stroke-linecap="round" stroke-linejoin="round"/>
<path fill-rule="evenodd" clip-rule="evenodd" d="M162.053 72.2192C158.023 72.2192 153.496 73.6542 153.496 76.5805C153.496 79.5068 159.073 79.8351 162.119 79.8351C165.165 79.8351 168.633 78.4095 168.633 76.0834C168.633 73.7574 165.427 72.2192 162.053 72.2192Z" fill="white"/>
<path fill-rule="evenodd" clip-rule="evenodd" d="M151.686 49.7094C152.141 49.6184 152.613 49.6705 153.037 49.8585C153.461 50.0464 153.817 50.361 154.056 50.7591C154.294 51.1573 154.404 51.6195 154.37 52.0825C154.336 52.5455 154.159 52.9866 153.865 53.3454C153.57 53.7042 153.172 53.9631 152.725 54.0866C152.278 54.2101 151.804 54.1923 151.367 54.0355C150.93 53.8787 150.553 53.5906 150.286 53.2107C150.019 52.8308 149.876 52.3777 149.877 51.9134C149.83 51.3821 149.993 50.8535 150.331 50.4413C150.67 50.0291 151.156 49.7663 151.686 49.7094Z" fill="black"/>
<path fill-rule="evenodd" clip-rule="evenodd" d="M173.862 49.7094C174.317 49.6184 174.789 49.6705 175.213 49.8585C175.637 50.0464 175.993 50.361 176.232 50.7591C176.47 51.1573 176.58 51.6195 176.546 52.0825C176.512 52.5455 176.335 52.9866 176.041 53.3454C175.746 53.7042 175.348 53.9631 174.901 54.0866C174.454 54.2101 173.979 54.1923 173.543 54.0355C173.106 53.8787 172.728 53.5906 172.462 53.2107C172.195 52.8308 172.052 52.3777 172.053 51.9134C172.006 51.3821 172.169 50.8535 172.507 50.4413C172.845 50.0291 173.332 49.7663 173.862 49.7094Z" fill="black"/>
<path fill-rule="evenodd" clip-rule="evenodd" d="M109.876 100.685C89.7246 100.685 34.0231 109.323 24.21 154.99C14.3968 200.657 8.01408 241.925 5.55845 261.565C3.10282 281.204 15.1279 315.832 55.1303 313.872V333.268H213.396V286.372C213.396 286.372 219.02 310.195 253.886 310.195C288.752 310.195 291.433 278.766 295.847 264.238C300.262 249.709 314.255 200.394 314.255 200.394C314.255 200.394 285.05 171.422 280.636 183.202C276.221 194.982 260.756 226.177 260.756 226.177C260.756 226.177 254.87 170.681 251.431 154.23C247.991 137.779 229.592 110.026 204.567 104.877C179.543 99.728 172.054 100.657 172.054 100.657L109.876 100.685Z" fill="#00672E"/>
<path fill-rule="evenodd" clip-rule="evenodd" d="M55.1293 333.268C55.1293 333.268 33.1692 481.889 78.1016 675.521H166.579C166.579 675.521 213.442 435.866 213.442 333.268H55.1293Z" fill="#60D399"/>
<path d="M149.924 675.521V382.583" stroke="#00672E" stroke-width="1.67" stroke-linecap="round" stroke-linejoin="round"/>
<path d="M125.949 345.592H213.199" stroke="#00672E" stroke-width="1.67" stroke-linecap="round" stroke-linejoin="round"/>
<path fill-rule="evenodd" clip-rule="evenodd" d="M55.1304 333.268H124.188C132.623 333.268 134.001 342.45 124.188 350.901C114.375 359.351 67.849 398.247 61.9537 402.758C56.0583 407.269 47.4261 406.697 45.8609 395.695C44.2956 384.694 34.9417 333.268 55.1304 333.268Z" fill="black"/>
<path d="M49.7695 248.687L177.275 228.428" stroke="black" stroke-width="1.67" stroke-linecap="round" stroke-linejoin="round"/>
<path d="M55.1289 313.872L189.851 266.188" stroke="black" stroke-width="1.67" stroke-linecap="round" stroke-linejoin="round"/>
<path d="M86.6867 148.931L74.2305 244.804" stroke="black" stroke-width="1.67" stroke-linecap="round" stroke-linejoin="round"/>
<path d="M211.934 234.872V143.407" stroke="black" stroke-width="1.67" stroke-linecap="round" stroke-linejoin="round"/>
<path d="M260.756 226.205L248.328 251.773" stroke="black" stroke-width="1.67" stroke-linecap="round" stroke-linejoin="round"/>
<path fill-rule="evenodd" clip-rule="evenodd" d="M177.273 228.428H197.762C200.273 228.428 210.883 234.243 213.414 236.063C215.945 237.882 214.351 238.989 214.351 238.989C214.351 238.989 227.895 247.271 230.791 248.687C233.687 250.103 232.403 252.664 229.244 251.773C226.086 250.882 213.217 245.667 213.217 245.667C213.217 245.667 228.729 259.314 232.075 262.08C235.421 264.847 233.556 266.77 229.76 264.979C225.964 263.187 213.217 255.262 213.217 255.262C213.217 255.262 229.694 269.678 233.237 272.96C236.78 276.243 233.687 277.987 229.488 275.99C225.289 273.992 210.255 264.913 210.255 264.913C210.255 264.913 221.577 275.605 224.661 279.075C227.745 282.546 225.598 283.971 221.709 281.974C217.819 279.976 192.494 268.458 185.362 263.375C178.229 258.291 169.578 256.809 169.578 242.319C169.578 236.082 171.031 228.428 177.273 228.428Z" fill="#DFA98B"/>
<path fill-rule="evenodd" clip-rule="evenodd" d="M298.435 179.441C292.671 179.441 282.998 178.1 282.998 185.003C282.998 191.906 293.805 203.442 305.333 201.482C316.861 199.522 354.727 187.582 359.469 185.538C364.212 183.493 367.492 179.15 357.595 179.15C347.697 179.15 304.199 179.441 298.435 179.441Z" fill="#DFA98B"/>
<path fill-rule="evenodd" clip-rule="evenodd" d="M306.307 179.404C306.307 179.404 320.637 171.225 323.515 169.64C326.392 168.055 330.441 169.903 328.117 172.651C325.902 175.035 323.525 177.263 321.003 179.319L306.307 179.404Z" fill="#DFA98B"/>
<path fill-rule="evenodd" clip-rule="evenodd" d="M312.857 57.9254C312.857 57.9254 315.079 42.2061 327.198 42.2061C339.316 42.2061 316.888 58.2631 316.888 58.2631L312.857 57.9254Z" fill="#60D399"/>
<path fill-rule="evenodd" clip-rule="evenodd" d="M317.124 57.3813C323.873 57.3813 330.471 59.3842 336.083 63.1366C341.695 66.8889 346.069 72.2223 348.652 78.4623C351.235 84.7023 351.911 91.5686 350.594 98.1929C349.277 104.817 346.027 110.902 341.254 115.678C336.482 120.454 330.401 123.706 323.781 125.024C317.162 126.342 310.3 125.665 304.064 123.081C297.829 120.496 292.499 116.119 288.749 110.503C284.999 104.887 282.998 98.2848 282.998 91.5307C283.003 82.4752 286.6 73.7921 292.999 67.389C299.397 60.9858 308.075 57.3863 317.124 57.3813Z" fill="#FF341A"/>
<path fill-rule="evenodd" clip-rule="evenodd" d="M317.123 57.3814C317.123 57.3814 314.311 37.5728 299.09 37.5728C283.869 37.5728 312.006 57.766 312.006 57.766L317.123 57.3814Z" fill="#00672E"/>
<path fill-rule="evenodd" clip-rule="evenodd" d="M82.8818 675.521C83.5753 682.949 85.6936 696.446 76.3209 704.362C66.9483 712.278 56.5447 719.5 57.0133 729.048H142.464L137.112 675.521C137.112 675.521 97.3062 674.855 82.8818 675.521Z" fill="#FF341A"/>
<path fill-rule="evenodd" clip-rule="evenodd" d="M163.701 675.521C162.764 679.535 163.252 696.23 171.443 699.053C179.635 701.876 220.725 717.905 221.324 729.066H142.463L137.111 675.54C137.111 675.54 155.069 675.39 163.701 675.521Z" fill="#FF341A"/>
<path d="M109.875 100.685C109.875 100.685 117.504 113.093 152.052 113.093C173.993 113.093 172.1 100.685 172.1 100.685" stroke="black" stroke-width="1.67" stroke-linecap="round" stroke-linejoin="round"/>
<path d="M47.6133 344.607H120.842" stroke="white" stroke-width="1.67" stroke-linecap="round" stroke-linejoin="round"/>
<path d="M137.094 675.521L142.446 729.048" stroke="black" stroke-width="1.67" stroke-linecap="round" stroke-linejoin="round"/>
<path fill-rule="evenodd" clip-rule="evenodd" d="M439.773 240.405C429.088 242.675 410.802 244.936 402.704 273.448C409.021 274.574 410.474 279.92 409.668 284.947C408.862 289.974 400.933 289.636 400.933 289.636C400.933 289.636 397.849 300.647 412.583 310.205C417.756 313.769 421.552 316.648 422.611 320.897C423.671 325.146 424.27 329.057 424.27 329.057L454.394 316.264C454.394 316.264 450.458 238.136 439.773 240.405Z" fill="#DFA98B"/>
<path fill-rule="evenodd" clip-rule="evenodd" d="M405.581 265.288C405.581 265.288 399.386 256.312 398.083 254.324C396.78 252.336 397.193 250.938 400.623 251.407C404.054 251.876 407.831 254.118 413.961 252.223C414.757 256.247 405.581 265.288 405.581 265.288Z" fill="#DFA98B"/>
<path fill-rule="evenodd" clip-rule="evenodd" d="M440.233 240.359C450.242 236.682 480.535 239.59 482.175 275.587C483.815 311.584 458.509 314.791 454.395 316.273C450.28 317.755 429.351 305.647 430.026 284.712C434.103 284.159 440.336 277.416 440.851 269.256C441.367 261.096 433.54 260.542 433.54 260.542C433.54 260.542 441.451 251.801 440.233 240.359Z" fill="#CF1D00"/>
<path d="M414.27 262.615C414.27 262.615 419.698 256.047 428.328 254.174" stroke="#935000" stroke-width="1.67" stroke-linecap="round" stroke-linejoin="round"/>
<path d="M423.643 278.503C423.643 278.503 423.062 286.813 430.682 285.397" stroke="#935000" stroke-width="1.67" stroke-linecap="round" stroke-linejoin="round"/>
<path fill-rule="evenodd" clip-rule="evenodd" d="M443.981 316.404C433.072 318.186 409.734 333.962 416.313 364.135C422.893 394.307 454.394 472.867 454.394 472.867H546.078C546.078 472.867 511.061 383.484 500.705 357.738C490.348 331.993 471.574 311.884 443.981 316.404Z" fill="#B9E2FE"/>
<path fill-rule="evenodd" clip-rule="evenodd" d="M511.746 385.575C511.746 385.575 526.039 381.73 531.522 398.434C537.005 415.138 532.272 418.327 526.18 422.22C520.088 426.112 511.746 385.575 511.746 385.575Z" fill="#B9E2FE"/>
<path d="M463.289 328.644L511.764 390.846" stroke="#0089E3" stroke-width="1.67" stroke-linecap="round" stroke-linejoin="round"/>
<path d="M419.068 374.817C419.068 374.817 446.699 412.259 455.622 422.482C464.544 432.705 483.402 438.492 494.049 434.581C504.697 430.67 526.348 422.482 526.348 422.482" stroke="#0089E3" stroke-width="1.67" stroke-linecap="round" stroke-linejoin="round"/>
<path d="M508.671 413.506L503.984 422.482" stroke="#0089E3" stroke-width="1.67" stroke-linecap="round" stroke-linejoin="round"/>
<path fill-rule="evenodd" clip-rule="evenodd" d="M564.833 548.697L635.821 542.141L639.486 578.457L562.724 613.61L558.047 576.928L564.833 548.697Z" fill="#DFA98B"/>
<path fill-rule="evenodd" clip-rule="evenodd" d="M454.395 472.867L490.873 583.915H573.802L546.078 472.867H454.395Z" fill="#0089E3"/>
<path fill-rule="evenodd" clip-rule="evenodd" d="M494.893 583.915L537.276 712.325L573.801 700.732L559.226 583.915H494.893Z" fill="#DFA98B"/>
<path fill-rule="evenodd" clip-rule="evenodd" d="M635.82 542.141L639.429 577.875L660.667 606.838L655.793 539.412L635.82 542.141Z" fill="#FF341A"/>
<path fill-rule="evenodd" clip-rule="evenodd" d="M573.801 700.732L503.029 723.242C502.361 723.456 501.792 723.902 501.424 724.499C501.055 725.095 500.912 725.804 501.019 726.497C501.126 727.191 501.478 727.823 502.009 728.28C502.541 728.737 503.218 728.99 503.919 728.992L577.654 729.048C577.654 729.048 589.463 731.355 573.801 700.732Z" fill="#FF341A"/>
<path fill-rule="evenodd" clip-rule="evenodd" d="M106.566 30.0131C108.807 21.516 113.795 13.9998 120.753 8.63676C127.71 3.27376 136.245 0.365479 145.027 0.365479C153.809 0.365479 162.344 3.27376 169.301 8.63676C176.259 13.9998 181.247 21.516 183.488 30.0131H106.566Z" fill="#FBBE2E"/>
<path d="M145.023 0.394043V30.032" stroke="black" stroke-width="0.83" stroke-linecap="round" stroke-linejoin="round"/>
<path d="M132.417 13.3184C132.71 13.3165 132.997 13.4019 133.242 13.5636C133.487 13.7253 133.678 13.956 133.792 14.2267C133.905 14.4973 133.936 14.7955 133.88 15.0836C133.824 15.3717 133.683 15.6366 133.477 15.8448C133.27 16.053 133.006 16.195 132.719 16.253C132.431 16.3109 132.133 16.2821 131.862 16.1703C131.591 16.0584 131.359 15.8684 131.196 15.6246C131.032 15.3807 130.945 15.0938 130.945 14.8003C130.945 14.4089 131.1 14.0334 131.376 13.7557C131.651 13.4781 132.026 13.3209 132.417 13.3184V13.3184Z" stroke="black" stroke-width="0.83" stroke-linecap="round" stroke-linejoin="round"/>
<path d="M157.225 13.3184C157.519 13.3165 157.806 13.4019 158.051 13.5636C158.295 13.7253 158.487 13.956 158.6 14.2267C158.714 14.4973 158.744 14.7955 158.688 15.0836C158.632 15.3717 158.492 15.6366 158.285 15.8448C158.079 16.053 157.815 16.195 157.527 16.253C157.24 16.3109 156.941 16.2821 156.67 16.1703C156.399 16.0584 156.167 15.8684 156.004 15.6246C155.841 15.3807 155.754 15.0938 155.754 14.8003C155.754 14.4089 155.909 14.0334 156.184 13.7557C156.46 13.4781 156.834 13.3209 157.225 13.3184V13.3184Z" stroke="black" stroke-width="0.83" stroke-linecap="round" stroke-linejoin="round"/>
<path fill-rule="evenodd" clip-rule="evenodd" d="M208.606 46.1078H81.4473C85.1963 37.826 106.903 30.032 106.922 30.032H183.131C183.131 30.032 204.847 37.8166 208.606 46.1078Z" fill="#FBBE2E"/>
</g>
<defs>
<clipPath id="clip0_447:19221">
<rect width="679" height="734" fill="white"/>
</clipPath>
</defs>
</svg>
