<svg width="231" height="630" viewBox="0 0 231 630" fill="none" xmlns="http://www.w3.org/2000/svg">
<g clip-path="url(#clip0_447:20042)">
<path fill-rule="evenodd" clip-rule="evenodd" d="M116.038 617.332C147.655 617.332 173.362 616.733 173.347 623.636C173.347 631.123 147.655 629.94 116.038 629.94C84.4214 629.94 58.7148 630.704 58.7148 623.636C58.7148 616.568 84.4065 617.332 116.038 617.332Z" fill="black"/>
<path fill-rule="evenodd" clip-rule="evenodd" d="M85.8573 227.61C79.5878 233.869 55.8564 247.076 46.295 253.066C36.7336 259.056 26.1995 287.327 31.4217 300.19C36.6438 313.053 41.3123 322.293 41.3123 322.293L47.8811 417.305H180.065V279.541C180.065 261.661 181.711 225.379 161.945 214.822C142.178 204.265 134.248 206.571 122.382 210.854C110.516 215.136 92.1119 221.351 85.8573 227.61Z" fill="#4FB3F6"/>
<path fill-rule="evenodd" clip-rule="evenodd" d="M138.274 69.3911C129.296 65.348 117.176 60.8108 112.043 58.6994C106.911 56.588 108.003 51.7513 113.809 52.7097C117.768 53.3169 121.781 53.5026 125.779 53.2637C125.779 53.2637 105.983 34.8004 99.3098 28.616C92.6362 22.4316 97.4394 18.134 104.068 22.6263C111.28 27.5528 127.186 38.5889 127.186 38.5889C127.186 38.5889 109.679 19.1223 106.073 15.4985C102.467 11.8747 105.37 6.00476 110.906 11.0062C116.442 16.0076 133.56 30.922 133.56 30.922C133.56 30.922 121.395 12.3539 117.834 6.96312C114.273 1.57236 118.208 -3.51891 123.565 3.09974C128.922 9.7184 141.67 25.726 141.67 25.726C141.67 25.726 135.685 9.44886 133.815 5.00148C131.944 0.554106 137.002 -2.1862 140.653 4.80682C144.304 11.7998 160.105 38.6937 163.337 45.4471C169.606 58.6096 152.429 75.8001 138.274 69.3911Z" fill="#935000"/>
<path fill-rule="evenodd" clip-rule="evenodd" d="M44.1702 254.698C33.2621 260.598 20.0796 266.857 15.471 283.359C10.8624 299.861 2.99178 334.811 0.313389 351.313C-2.365 367.814 12.5083 383.972 26.3491 383.972C40.19 383.972 85.6777 377.982 85.6777 377.982L86.0069 357.886H43.826C43.826 357.886 55.0633 248.798 44.1702 254.698Z" fill="#4FB3F6"/>
<path fill-rule="evenodd" clip-rule="evenodd" d="M126.678 209.326L172.39 126.413C172.39 126.413 150.948 91.7776 140.249 75.6952C129.551 59.6128 156.32 39.4124 171.567 51.3619C186.814 63.3114 208.645 88.064 218.536 97.1385C228.427 106.213 235.833 129.303 227.185 147.033C218.536 164.763 179.677 254.698 179.677 254.698L126.678 209.326Z" fill="#4FB3F6"/>
<path fill-rule="evenodd" clip-rule="evenodd" d="M81.5195 231.189L92.6072 259.041L110.428 232.761L134.803 250.281V208.368L81.5195 231.189Z" fill="white"/>
<path fill-rule="evenodd" clip-rule="evenodd" d="M76.8961 367.47C77.5246 360.881 83.7043 358.006 91.0362 358.006C98.3681 358.006 118.239 358.231 122.938 358.246C127.636 358.261 125.616 361.241 122.219 362.304C118.823 363.367 111.446 366.632 105.625 368.788C99.8046 370.944 98.2784 374.523 95.1511 378.566C92.0238 382.609 75.6841 379.974 76.8961 367.47Z" fill="#935000"/>
<path d="M164.669 332.849H43.0039V358.006H164.669V332.849Z" fill="white"/>
<path d="M164.669 285.141H43.0039V307.692H164.669V285.141Z" fill="#163BF3"/>
<path d="M164.669 307.692H34.625V332.849H164.669V307.692Z" fill="#FF341A"/>
<path d="M15.6211 358.006H43.0035" stroke="#0089E3" stroke-width="1.67" stroke-linecap="round" stroke-linejoin="round"/>
<path fill-rule="evenodd" clip-rule="evenodd" d="M51.4277 417.305C51.4277 417.305 59.7622 507.795 74.426 538.492C89.0898 569.189 83.0896 572.184 89.1048 587.203C95.1199 602.223 99.5789 614.562 99.5789 614.562H113.36V417.305H51.4277Z" fill="#0089E3"/>
<path fill-rule="evenodd" clip-rule="evenodd" d="M175.443 417.305C175.443 417.305 167.108 507.795 152.444 538.492C137.78 569.189 143.766 572.184 137.78 587.203C131.795 602.223 127.187 614.562 127.187 614.562H113.436V417.305H175.443Z" fill="#0089E3"/>
<path fill-rule="evenodd" clip-rule="evenodd" d="M113.436 614.562V622.228H137.317L127.217 614.562H113.436Z" fill="#FFC7BF"/>
<path fill-rule="evenodd" clip-rule="evenodd" d="M113.42 614.562V622.228H89.5391L99.6242 614.562H113.42Z" fill="#FFC7BF"/>
<path d="M113.436 614.561V466.645" stroke="#163BF3" stroke-width="1.67" stroke-linecap="round" stroke-linejoin="round"/>
<path fill-rule="evenodd" clip-rule="evenodd" d="M47.4037 188.676C47.4037 188.676 38.1565 185.068 36.9295 176.248C35.7025 167.428 44.5307 164.134 44.5307 164.134C44.5307 164.134 39.0243 143.589 52.0123 135.473C65.0002 127.357 72.3471 132.163 74.816 129.573C77.2849 126.982 80.6815 117.473 91.3951 116.62C102.109 115.766 106.238 121.457 110.338 121.457C114.438 121.457 123.641 111.439 137.451 120.423C151.262 129.408 161.632 140.639 159.043 152.049C156.455 163.46 150.784 166.904 148 171.396C145.217 175.888 151.981 174.286 151.532 180.8C144.364 190.578 47.4037 188.676 47.4037 188.676Z" fill="black"/>
<path d="M65.1639 227.191C78.1382 227.191 88.6559 216.665 88.6559 203.681C88.6559 190.697 78.1382 180.171 65.1639 180.171C52.1896 180.171 41.6719 190.697 41.6719 203.681C41.6719 216.665 52.1896 227.191 65.1639 227.191Z" fill="#FFC7BF"/>
<path fill-rule="evenodd" clip-rule="evenodd" d="M148 180.186C152.648 180.186 157.192 181.566 161.056 184.151C164.92 186.737 167.931 190.411 169.708 194.709C171.485 199.008 171.947 203.737 171.037 208.299C170.127 212.86 167.885 217.049 164.595 220.335C161.305 223.622 157.115 225.857 152.555 226.759C147.995 227.661 143.271 227.189 138.979 225.403C134.687 223.617 131.021 220.596 128.445 216.724C125.869 212.852 124.499 208.302 124.508 203.651C124.52 197.423 127 191.455 131.404 187.056C135.809 182.657 141.777 180.186 148 180.186Z" fill="#FFC7BF"/>
<path fill-rule="evenodd" clip-rule="evenodd" d="M65.1641 180.186C65.1641 180.186 67.1093 146.314 104.173 146.194C146.638 146.045 144.034 180.516 144.034 180.516L138.752 182.013H74.4112L65.1641 180.186Z" fill="#FF341A"/>
<path d="M133.068 227.755C147.694 213.118 147.694 189.386 133.068 174.749C118.442 160.112 94.7283 160.112 80.1021 174.749C65.476 189.386 65.476 213.118 80.1021 227.755C94.7283 242.392 118.442 242.392 133.068 227.755Z" fill="#935000"/>
<path d="M100.941 191.686H112.224" stroke="black" stroke-width="1.67" stroke-linecap="round" stroke-linejoin="round"/>
<path d="M85.4988 191.686H70.3711" stroke="black" stroke-width="1.67" stroke-linecap="round" stroke-linejoin="round"/>
<path d="M142.27 191.686H127.127" stroke="black" stroke-width="1.67" stroke-linecap="round" stroke-linejoin="round"/>
<path d="M100.941 212.216H109.216L106.582 191.686" stroke="black" stroke-width="1.67" stroke-linecap="round" stroke-linejoin="round"/>
<path fill-rule="evenodd" clip-rule="evenodd" d="M92.771 182.492C98.0679 182.492 102.377 188.227 102.377 195.295C102.377 202.363 98.1278 208.143 92.771 208.143C87.4142 208.143 83.1797 202.408 83.1797 195.355C83.1797 188.302 87.5339 182.492 92.771 182.492Z" fill="white"/>
<path d="M121.32 208.083C126.617 208.083 130.911 202.358 130.911 195.295C130.911 188.233 126.617 182.507 121.32 182.507C116.023 182.507 111.729 188.233 111.729 195.295C111.729 202.358 116.023 208.083 121.32 208.083Z" fill="white"/>
<path d="M95.2109 223.372C98.3046 225.781 102.091 227.128 106.01 227.214C109.929 227.301 113.771 226.121 116.967 223.851" stroke="black" stroke-width="1.67" stroke-linecap="round" stroke-linejoin="round"/>
</g>
<defs>
<clipPath id="clip0_447:20042">
<rect width="231" height="630" fill="white"/>
</clipPath>
</defs>
</svg>
