<svg width="272" height="599" viewBox="0 0 272 599" fill="none" xmlns="http://www.w3.org/2000/svg">
<g clip-path="url(#clip0_447:20071)">
<path fill-rule="evenodd" clip-rule="evenodd" d="M106.017 587.622C164.526 587.622 212.077 587.093 212.034 593.279C212.034 599.972 164.536 598.946 106.017 598.946C47.4977 598.946 0 599.637 0 593.279C0 586.92 47.4977 587.622 106.017 587.622Z" fill="black"/>
<path fill-rule="evenodd" clip-rule="evenodd" d="M90.3653 102.133H44.1953C44.1953 102.133 60.3229 0 102.736 0C145.15 0 161.31 102.133 161.31 102.133H90.3653Z" fill="#163BF3"/>
<path d="M115.096 79.1174H90.3652V102.133H115.096V79.1174Z" fill="#FFC7BF"/>
<path fill-rule="evenodd" clip-rule="evenodd" d="M115.096 79.1174H90.3652V81.9134C98.292 85.1466 107.17 85.1466 115.096 81.9134V79.1174Z" fill="#CF1D00"/>
<path fill-rule="evenodd" clip-rule="evenodd" d="M102.736 21.4714C108.714 21.4714 114.558 23.2442 119.528 26.5655C124.499 29.8868 128.373 34.6075 130.661 40.1307C132.948 45.6538 133.547 51.7313 132.381 57.5947C131.214 63.458 128.336 68.8438 124.108 73.0711C119.881 77.2983 114.496 80.1771 108.632 81.3434C102.769 82.5097 96.6917 81.9111 91.1687 79.6233C85.6456 77.3356 80.925 73.4614 77.6037 68.4907C74.2825 63.52 72.5098 57.676 72.5098 51.6978C72.5098 43.6813 75.6943 35.9931 81.3627 30.3245C87.0311 24.656 94.7192 21.4714 102.736 21.4714Z" fill="#FFC7BF"/>
<path fill-rule="evenodd" clip-rule="evenodd" d="M72.5098 40.5141H132.961C132.961 40.5141 119.047 17.2722 102.736 17.2722C86.4244 17.2722 72.5098 40.5141 72.5098 40.5141Z" fill="#163BF3"/>
<path fill-rule="evenodd" clip-rule="evenodd" d="M90.3653 102.133C90.3653 102.133 60.4526 123.658 49.7224 130.135C38.9922 136.612 41.3347 166.731 48.2003 178.174C51.2445 194.571 56.5772 250.987 56.5772 250.987H161.288L166.686 177.029C166.686 177.029 175.991 136.99 161.288 126.703C146.585 116.415 115.075 102.133 115.075 102.133H90.3653Z" fill="#B9E2FE"/>
<path fill-rule="evenodd" clip-rule="evenodd" d="M47.3888 132.132C40.8471 136.343 26.2091 151.564 24.374 169.073C22.5389 186.583 15.0256 246.798 15.2307 261.998C15.4358 277.197 28.2494 290.259 42.3692 289.849C56.4889 289.439 102.745 287.42 102.745 287.42C102.745 287.42 115.095 285.585 115.095 268.302C115.095 251.019 106.318 251.03 96.7432 251.03H57.5145C57.5145 251.03 53.9737 127.922 47.3888 132.132Z" fill="#B9E2FE"/>
<path fill-rule="evenodd" clip-rule="evenodd" d="M159.366 125.385C167.916 129.077 182.716 140.315 184.194 150.884C185.673 161.452 192.15 204.568 192.15 204.568L200.927 196.104L232.167 223.276C232.167 223.276 225.334 240.494 218.501 250.987C211.668 261.48 183.849 268.982 176.53 258.9C169.211 248.817 163.9 237.989 163.382 222.822C162.864 207.655 150.827 121.694 159.366 125.385Z" fill="#B9E2FE"/>
<path d="M44.1953 178.422C44.1953 178.422 49.7871 230.033 57.5163 250.987" stroke="#014A82" stroke-width="1.67" stroke-linecap="round" stroke-linejoin="round"/>
<path d="M165.142 171.297L163.533 225.478" stroke="#014A82" stroke-width="1.67" stroke-linecap="round" stroke-linejoin="round"/>
<path d="M192.15 204.568L174.371 222.466" stroke="#014A82" stroke-width="1.67" stroke-linecap="round" stroke-linejoin="round"/>
<path d="M57.516 250.987H38.0527" stroke="#014A82" stroke-width="1.67" stroke-linecap="round" stroke-linejoin="round"/>
<path fill-rule="evenodd" clip-rule="evenodd" d="M57.5158 250.987C57.5158 259.709 37.3724 303.937 38.0849 327.092C38.7973 350.248 47.8003 409.837 47.8003 409.837H163.533C163.533 409.837 170.301 358.15 174.328 327.092C178.354 296.035 161.266 272.847 161.266 250.987H57.5158Z" fill="#CF1D00"/>
<path fill-rule="evenodd" clip-rule="evenodd" d="M201.023 202.409C204.035 192.628 207.111 179.404 208.579 173.823C210.047 168.242 215.251 168.695 214.981 174.849C214.877 179.029 215.221 183.209 216.006 187.317C216.006 187.317 232.523 164.345 238.05 156.616C243.577 148.886 248.65 153.291 244.861 160.761C240.727 168.879 231.421 186.82 231.421 186.82C231.421 186.82 249.363 166.083 252.601 161.927C255.84 157.771 262.317 159.94 257.869 166.342C253.422 172.744 240.273 192.477 240.273 192.477C240.273 192.477 257.901 177.364 262.997 173.046C268.092 168.728 273.856 172.042 267.757 178.443C261.658 184.845 246.729 200.217 246.729 200.217C246.729 200.217 262.781 191.851 267.142 189.336C271.503 186.82 275.033 191.678 268.221 196.309C261.41 200.94 235.729 221.073 229.144 225.305C216.341 233.455 196.252 217.943 201.023 202.409Z" fill="#FFC7BF"/>
<path fill-rule="evenodd" clip-rule="evenodd" d="M101.44 409.837V546.438H71.2249L47.7891 409.837H101.44Z" fill="#FFC7BF"/>
<path fill-rule="evenodd" clip-rule="evenodd" d="M109.871 409.837V546.438H140.075L163.511 409.837H109.871Z" fill="#FFC7BF"/>
<path fill-rule="evenodd" clip-rule="evenodd" d="M101.473 546.438H71.2468C71.2468 546.438 66.3891 558.032 58.865 564.229C51.341 570.425 28.3262 581.058 28.3262 592.566H101.473V546.438Z" fill="#014A82"/>
<path fill-rule="evenodd" clip-rule="evenodd" d="M109.871 546.438H140.097C140.097 546.438 144.955 558.032 152.479 564.229C160.003 570.425 183.028 581.058 183.028 592.566H109.871V546.438Z" fill="#014A82"/>
<path d="M103.35 47.9412L105.79 58.2937H99.2483L103.771 64.4253C103.771 64.4253 95.1894 66.8434 91.8105 61.7697" stroke="#CF1D00" stroke-width="1.67" stroke-linecap="round" stroke-linejoin="round"/>
<path fill-rule="evenodd" clip-rule="evenodd" d="M91.8119 47.9195C92.1436 47.8434 92.4909 47.8723 92.8054 48.0023C93.12 48.1322 93.3864 48.3568 93.5677 48.6449C93.749 48.933 93.8362 49.2703 93.8172 49.6102C93.7983 49.95 93.6741 50.2756 93.4619 50.5417C93.2497 50.8079 92.96 51.0014 92.6329 51.0956C92.3058 51.1898 91.9575 51.1799 91.6363 51.0673C91.3151 50.9548 91.0368 50.7451 90.8401 50.4674C90.6433 50.1896 90.5378 49.8576 90.5381 49.5172C90.5013 49.1376 90.6137 48.7586 90.8514 48.4604C91.0892 48.1622 91.4337 47.9682 91.8119 47.9195Z" fill="black"/>
<path d="M113.65 51.115C114.359 51.115 114.934 50.3997 114.934 49.5174C114.934 48.635 114.359 47.9197 113.65 47.9197C112.94 47.9197 112.365 48.635 112.365 49.5174C112.365 50.3997 112.94 51.115 113.65 51.115Z" fill="black"/>
<path fill-rule="evenodd" clip-rule="evenodd" d="M51.459 225.445L57.5149 125.051L71.9478 115.141C71.9478 115.141 74.6465 208.951 55.5934 240.753C53.035 236.413 51.459 225.445 51.459 225.445Z" fill="#163BF3"/>
<path fill-rule="evenodd" clip-rule="evenodd" d="M163.057 227.313L155.609 125.083L141.176 115.173C141.176 115.173 142.871 210.721 161.934 242.556C162.539 236.014 163.057 227.313 163.057 227.313Z" fill="#163BF3"/>
<path d="M56.6621 434.914H66.8417" stroke="#CF1D00" stroke-width="1.67" stroke-linecap="round" stroke-linejoin="round"/>
<path d="M143.475 434.914H153.654" stroke="#CF1D00" stroke-width="1.67" stroke-linecap="round" stroke-linejoin="round"/>
</g>
<defs>
<clipPath id="clip0_447:20071">
<rect width="272" height="599" fill="white"/>
</clipPath>
</defs>
</svg>
