<svg width="382" height="630" viewBox="0 0 382 630" fill="none" xmlns="http://www.w3.org/2000/svg">
<g clip-path="url(#clip0_447:20011)">
<path fill-rule="evenodd" clip-rule="evenodd" d="M202.236 616.042C301.45 616.042 382.079 615.393 381.999 622.988C381.906 631.206 301.45 629.934 202.236 629.934C103.023 629.934 22.4863 630.795 22.4863 623.001C22.4863 615.207 103.036 616.042 202.236 616.042Z" fill="black"/>
<path fill-rule="evenodd" clip-rule="evenodd" d="M196.834 251.229C196.834 251.229 198.559 126.39 198.559 113.519C198.559 100.648 193.807 80.6985 176.696 76.2447C188.298 65.3753 181.156 46.8576 174.599 46.8576C168.041 46.8576 102.664 47.0299 91.9519 46.8576C81.2394 46.6853 71.1773 70.863 82.0624 84.8342C47.2168 88.6915 47.9602 116.528 47.9602 116.528V283.24C47.9602 294.653 46.2876 313.661 61.9117 319.745C77.5358 325.83 104.284 322.118 120.718 323.046C137.152 323.974 166.714 325.551 175.648 322.211C184.581 318.871 196.887 310.281 196.887 285.467L196.834 251.229Z" fill="#60D399"/>
<path fill-rule="evenodd" clip-rule="evenodd" d="M133.024 0C152.378 0 168.108 19.6312 168.108 43.8089C168.108 67.9867 152.378 87.6311 133.024 87.6311C113.669 87.6311 97.9258 67.9999 97.9258 43.8089C97.9258 19.6179 113.656 0 133.024 0Z" fill="#DFA98B"/>
<path fill-rule="evenodd" clip-rule="evenodd" d="M98.4958 38.8646C98.4958 38.8646 91.0222 30.9114 88.7656 36.1208C86.5089 41.3301 95.1373 53.0214 100.075 53.1539C105.014 53.2865 98.4958 38.8646 98.4958 38.8646Z" fill="#DFA98B"/>
<path fill-rule="evenodd" clip-rule="evenodd" d="M168.043 38.8646C168.043 38.8646 175.529 30.9114 177.773 36.1208C180.016 41.3301 171.401 53.0214 166.476 53.1539C161.551 53.2865 168.043 38.8646 168.043 38.8646Z" fill="#DFA98B"/>
<path fill-rule="evenodd" clip-rule="evenodd" d="M66.7974 88.8107C52.4212 93.7814 18.6774 115.494 12.2658 149.785C5.85424 184.077 0.292229 217.069 0.000190436 235.455C-0.291848 253.84 15.0535 284.725 38.4962 284.725C61.939 284.725 68.8682 275.539 76.3949 263.012C83.9215 250.486 97.9394 221.536 97.9394 221.536L59.4434 173.088C59.4434 173.088 81.1737 83.8002 66.7974 88.8107Z" fill="#60D399"/>
<path fill-rule="evenodd" clip-rule="evenodd" d="M182.233 78.4185C198.773 82.3951 232.225 100.953 235.849 129.107C239.473 157.261 238.636 221.245 238.636 221.245L238.358 225.977C238.358 225.977 246.999 242.97 241.703 256.597C236.406 270.223 227.765 274.386 219.402 274.386C211.039 274.386 201.587 266.432 196.835 251.189V123.54C196.835 123.54 165.706 74.4949 182.233 78.4185Z" fill="#60D399"/>
<path fill-rule="evenodd" clip-rule="evenodd" d="M61.9121 319.745V414.203H123.24L130.408 389.203L154.369 412.573H221.339L188.206 313.608L61.9121 319.745Z" fill="#163BF3"/>
<path fill-rule="evenodd" clip-rule="evenodd" d="M132.294 132.129C132.294 130.899 131.804 129.719 130.933 128.849C130.062 127.979 128.88 127.49 127.648 127.49H99.7711C99.1599 127.488 98.5543 127.607 97.9891 127.839C97.4239 128.072 96.9101 128.413 96.4773 128.844C96.0445 129.275 95.701 129.787 95.4667 130.351C95.2324 130.915 95.1118 131.519 95.1118 132.129V192.786C95.103 193.4 95.2162 194.01 95.4447 194.581C95.6733 195.151 96.0127 195.671 96.4435 196.109C96.8742 196.548 97.3877 196.897 97.9543 197.137C98.5208 197.376 99.1293 197.501 99.7446 197.505H127.621C128.854 197.501 130.036 197.009 130.907 196.137C131.778 195.265 132.267 194.084 132.267 192.852L132.294 132.129Z" fill="white"/>
<path d="M63.2802 183.56L30.625 245.383" stroke="#00672E" stroke-width="1.67" stroke-linecap="round" stroke-linejoin="round"/>
<path d="M196.834 129.77V251.229" stroke="#00672E" stroke-width="1.67" stroke-linecap="round" stroke-linejoin="round"/>
<path d="M94.6739 223.472L71.5497 267.215C71.5497 267.215 61.9522 284.089 47.9609 284.089" stroke="#00672E" stroke-width="1.67" stroke-linecap="round" stroke-linejoin="round"/>
<path fill-rule="evenodd" clip-rule="evenodd" d="M65.4705 178.337C80.63 161.41 71.3777 141.633 95.0859 139.499V154.465C95.0859 154.465 109.17 143.781 113.989 139.672C118.807 135.562 122.551 137.365 119.299 142.535C116.046 147.704 105.573 158.733 105.573 158.733C105.573 158.733 113.245 154.637 118.064 151.787C122.883 148.937 128.166 151.973 123.201 156.068C118.237 160.164 108.852 168.184 108.852 168.184C108.852 168.184 119.325 163.73 123.281 162.312C127.237 160.893 130.98 164.963 126.334 167.468C121.688 169.973 111.002 177.807 111.002 177.807C111.002 177.807 122.06 175.156 125.803 174.056C129.546 172.956 129.56 178.337 125.631 180.471C121.701 182.606 104.869 190.771 96.5063 219.747C91.3292 234.633 73.6741 232.499 65.2847 215.572C56.8952 198.645 59.8952 184.554 65.4705 178.337Z" fill="#DFA98B"/>
<path d="M120.957 84.9668C126.665 89.9508 148.568 110.775 152.816 115.931" stroke="#00672E" stroke-width="1.67" stroke-linecap="round" stroke-linejoin="round"/>
<path d="M145.077 84.9668L134.656 97.7184" stroke="#00672E" stroke-width="1.67" stroke-linecap="round" stroke-linejoin="round"/>
<path d="M176.697 76.2446C173.763 79.2271 147.785 105.406 144.002 106.732" stroke="#00672E" stroke-width="1.67" stroke-linecap="round" stroke-linejoin="round"/>
<path d="M82.0625 84.8342C85.9652 89.4338 128.457 119.046 136.899 125.117" stroke="#00672E" stroke-width="1.67" stroke-linecap="round" stroke-linejoin="round"/>
<path d="M238.356 225.977H210.4" stroke="#00672E" stroke-width="1.67" stroke-linecap="round" stroke-linejoin="round"/>
<path fill-rule="evenodd" clip-rule="evenodd" d="M211.9 240.85C212.949 229.901 223.25 225.115 235.462 225.115C247.675 225.115 280.821 225.487 288.667 225.526C296.512 225.566 293.127 230.55 287.459 232.273C281.79 233.997 269.498 239.458 259.795 243.05C250.091 246.642 247.529 252.594 242.312 259.328C237.095 266.061 209.896 261.66 211.9 240.85Z" fill="#DFA98B"/>
<path fill-rule="evenodd" clip-rule="evenodd" d="M252.535 124.468C262.512 124.468 272.264 127.422 280.56 132.957C288.855 138.491 295.32 146.358 299.138 155.562C302.956 164.766 303.955 174.894 302.009 184.665C300.062 194.436 295.258 203.411 288.203 210.455C281.149 217.5 272.161 222.297 262.376 224.241C252.591 226.184 242.448 225.187 233.231 221.374C224.014 217.562 216.136 211.106 210.593 202.822C205.05 194.539 202.092 184.8 202.092 174.838C202.092 161.479 207.406 148.667 216.866 139.221C226.326 129.775 239.157 124.468 252.535 124.468Z" fill="#CF1D00"/>
<path fill-rule="evenodd" clip-rule="evenodd" d="M116.284 414.203V550.229L76.885 549.368C76.885 549.368 72.1194 492.728 67.3539 472.407C62.5883 452.087 67.7919 414.203 67.7919 414.203H116.284Z" fill="#DFA98B"/>
<path fill-rule="evenodd" clip-rule="evenodd" d="M218.033 412.573L277.781 550.229H236.219L160.873 412.573H218.033Z" fill="#DFA98B"/>
<path fill-rule="evenodd" clip-rule="evenodd" d="M76.8859 549.368L116.285 550.229V623.001H36.9031C29.403 623.001 30.5579 614.067 41.2439 604.55C51.9298 595.032 76.8859 565.367 76.8859 549.368Z" fill="#133191"/>
<path fill-rule="evenodd" clip-rule="evenodd" d="M277.783 550.229H236.141L273.933 623.001H363.416C370.916 623.001 365.129 614.067 349.505 604.55C333.881 595.032 295.04 584.388 277.783 550.229Z" fill="#133191"/>
<path fill-rule="evenodd" clip-rule="evenodd" d="M76.8851 549.368C74.3364 543.111 59.7344 531.632 51.9158 539.493C44.0971 547.353 70.2478 568.654 59.3495 584.468C70.9647 575.163 81.6506 560.701 76.8851 549.368Z" fill="#163BF3"/>
<path fill-rule="evenodd" clip-rule="evenodd" d="M275.086 549.368C277.741 543.111 292.263 531.632 300.056 539.426C307.848 547.22 294.361 565.022 305.259 580.862C293.644 571.624 270.321 560.701 275.086 549.368Z" fill="#163BF3"/>
<path d="M111.664 386.433H147.731" stroke="black" stroke-width="1.67" stroke-linecap="round" stroke-linejoin="round"/>
<path fill-rule="evenodd" clip-rule="evenodd" d="M120.055 54.2542C120.463 54.1607 120.89 54.1962 121.277 54.3558C121.664 54.5154 121.991 54.7911 122.214 55.1449C122.437 55.4986 122.545 55.9128 122.521 56.3302C122.498 56.7475 122.345 57.1472 122.084 57.474C121.823 57.8008 121.467 58.0385 121.065 58.1541C120.663 58.2697 120.234 58.2576 119.839 58.1194C119.444 57.9812 119.102 57.7237 118.86 57.3827C118.618 57.0417 118.488 56.6339 118.489 56.216C118.444 55.7499 118.582 55.2845 118.874 54.9183C119.167 54.5522 119.59 54.314 120.055 54.2542Z" fill="black"/>
<path fill-rule="evenodd" clip-rule="evenodd" d="M146.909 54.2542C147.317 54.1607 147.744 54.1962 148.131 54.3558C148.517 54.5154 148.845 54.7911 149.068 55.1449C149.291 55.4986 149.398 55.9128 149.375 56.3302C149.351 56.7475 149.199 57.1472 148.938 57.474C148.677 57.8008 148.321 58.0385 147.918 58.1541C147.516 58.2697 147.088 58.2576 146.693 58.1194C146.298 57.9812 145.956 57.7237 145.714 57.3827C145.472 57.0417 145.342 56.6339 145.342 56.216C145.297 55.7499 145.435 55.2845 145.728 54.9183C146.02 54.5522 146.444 54.314 146.909 54.2542Z" fill="black"/>
<path d="M136.701 59.9937L133.024 73.8322L129.334 60.6299" stroke="#935000" stroke-width="1.67" stroke-linecap="round" stroke-linejoin="round"/>
</g>
<defs>
<clipPath id="clip0_447:20011">
<rect width="382" height="630" fill="white"/>
</clipPath>
</defs>
</svg>
