<svg width="977" height="707" viewBox="0 0 977 707" fill="none" xmlns="http://www.w3.org/2000/svg">
<g clip-path="url(#clip0_447:19754)">
<path fill-rule="evenodd" clip-rule="evenodd" d="M192.17 335H170.9C170.9 335 179.27 280.11 215.62 280.11C215.62 291.75 192.17 335 192.17 335Z" fill="#CF1D00"/>
<path fill-rule="evenodd" clip-rule="evenodd" d="M239.079 335H260.349C260.349 335 251.979 280.11 215.619 280.11C215.619 291.75 239.079 335 239.079 335Z" fill="#CF1D00"/>
<path fill-rule="evenodd" clip-rule="evenodd" d="M232.491 347.07C225.761 346.51 199.111 347.49 199.111 347.49C199.111 347.49 193.331 356.33 185.111 358.17C176.891 360.01 158.471 366.39 153.681 382.09C148.891 397.79 134.001 451 133.351 471.62C132.701 492.24 145.101 498.62 155.411 498.62H271.101C281.331 498.62 303.581 486.62 299.201 470.88C294.821 455.14 278.331 392.88 274.541 381.47C270.751 370.06 257.901 362.2 246.801 359.58C235.701 356.96 234.171 348.94 232.491 347.07Z" fill="#B9E2FE"/>
<path fill-rule="evenodd" clip-rule="evenodd" d="M744.309 347.07C751.039 346.51 777.679 347.49 777.679 347.49C777.679 347.49 783.469 356.33 791.679 358.17C799.889 360.01 818.319 366.39 823.109 382.09C827.899 397.79 842.839 451 843.439 471.62C844.039 492.24 831.689 498.62 821.369 498.62H705.689C695.469 498.62 673.209 486.62 677.589 470.88C681.969 455.14 698.469 392.88 702.259 381.47C706.049 370.06 718.899 362.2 729.999 359.58C741.099 356.96 742.629 348.94 744.309 347.07Z" fill="#FBBE2E"/>
<path fill-rule="evenodd" clip-rule="evenodd" d="M215.621 281.6C230.021 281.6 241.701 298.24 241.701 318.75C241.701 339.26 230.001 355.89 215.621 355.89C201.241 355.89 189.551 339.25 189.551 318.75C189.551 298.25 201.231 281.6 215.621 281.6Z" fill="#FFC7BF"/>
<path fill-rule="evenodd" clip-rule="evenodd" d="M761.17 281.6C746.78 281.6 735.1 298.24 735.1 318.75C735.1 339.26 746.78 355.89 761.17 355.89C775.56 355.89 787.25 339.25 787.25 318.75C787.25 298.25 775.56 281.6 761.17 281.6Z" fill="#FFC7BF"/>
<path fill-rule="evenodd" clip-rule="evenodd" d="M190.3 309.84C188.3 308.11 183.15 308.11 182.76 312.84C182.37 317.57 186.84 324 189.76 323.68C192.68 323.36 192.3 311.57 190.3 309.84Z" fill="#FFC7BF"/>
<path fill-rule="evenodd" clip-rule="evenodd" d="M786.489 309.84C788.489 308.11 793.649 308.11 794.029 312.84C794.409 317.57 789.999 324 786.999 323.64C783.999 323.28 784.499 311.57 786.489 309.84Z" fill="#FFC7BF"/>
<path fill-rule="evenodd" clip-rule="evenodd" d="M240.669 309.84C242.669 308.11 247.829 308.11 248.209 312.84C248.589 317.57 244.139 324 241.209 323.68C238.279 323.36 238.679 311.57 240.669 309.84Z" fill="#FFC7BF"/>
<path fill-rule="evenodd" clip-rule="evenodd" d="M736.131 309.84C734.131 308.11 728.971 308.11 728.581 312.84C728.191 317.57 732.661 324 735.581 323.68C738.501 323.36 738.121 311.57 736.131 309.84Z" fill="#FFC7BF"/>
<path d="M169.75 397.07C169.75 397.07 174.3 449.78 176.75 465.32" stroke="#0089E3" stroke-width="1.67" stroke-linecap="round" stroke-linejoin="round"/>
<path d="M807.051 397.07C807.051 397.07 802.501 449.78 800.051 465.32" stroke="#935000" stroke-width="1.67" stroke-linecap="round" stroke-linejoin="round"/>
<path d="M217.46 317.32L220.06 334.71H211.19L217.93 341.45C215.24 342.99 208.46 343.02 206.25 341.45" stroke="#CF1D00" stroke-width="1.67" stroke-linecap="round" stroke-linejoin="round"/>
<path d="M759.34 317.32L756.74 334.71H765.6L758.87 341.45C761.56 342.99 768.34 343.02 770.55 341.45" stroke="#CF1D00" stroke-width="1.67" stroke-linecap="round" stroke-linejoin="round"/>
<path fill-rule="evenodd" clip-rule="evenodd" d="M190.189 310.55C190.189 310.55 196.389 303.3 198.499 297.55C216.499 304.88 232.789 297.33 232.789 297.33C232.789 297.33 236.139 308.33 240.789 308.71C240.789 298.71 230.789 280.09 215.669 280.09C189.999 280.11 190.189 310.55 190.189 310.55Z" fill="#CF1D00"/>
<path fill-rule="evenodd" clip-rule="evenodd" d="M786.61 310.55L744 297.35C744 297.35 740.65 308.35 736 308.73C736 298.73 746 280.11 761.12 280.11C786.77 280.11 786.61 310.55 786.61 310.55Z" fill="#CF1D00"/>
<path fill-rule="evenodd" clip-rule="evenodd" d="M206.25 314.09C207.03 314.09 207.65 315.09 207.65 316.42C207.65 317.75 207.03 318.75 206.25 318.75C205.47 318.75 204.83 317.7 204.83 316.42C204.83 315.14 205.47 314.09 206.25 314.09Z" fill="black"/>
<path fill-rule="evenodd" clip-rule="evenodd" d="M770.551 314.09C769.771 314.09 769.141 315.09 769.141 316.42C769.141 317.75 769.771 318.75 770.551 318.75C771.331 318.75 771.961 317.7 771.961 316.42C771.961 315.14 771.331 314.09 770.551 314.09Z" fill="black"/>
<path fill-rule="evenodd" clip-rule="evenodd" d="M226.41 314.09C227.18 314.09 227.82 315.09 227.82 316.42C227.82 317.75 227.18 318.75 226.41 318.75C225.64 318.75 225 317.7 225 316.42C225 315.14 225.63 314.09 226.41 314.09Z" fill="black"/>
<path fill-rule="evenodd" clip-rule="evenodd" d="M750.391 314.09C749.611 314.09 748.98 315.09 748.98 316.42C748.98 317.75 749.611 318.75 750.391 318.75C751.171 318.75 751.8 317.7 751.8 316.42C751.8 315.14 751.171 314.09 750.391 314.09Z" fill="black"/>
<path d="M201.539 312.27C201.539 312.27 202.649 309.88 207.649 310.58" stroke="#CF1D00" stroke-width="1.67" stroke-linecap="round" stroke-linejoin="round"/>
<path d="M775.261 312.27C775.261 312.27 774.151 309.88 769.141 310.58" stroke="#CF1D00" stroke-width="1.67" stroke-linecap="round" stroke-linejoin="round"/>
<path d="M230.88 312.27C230.88 312.27 229.76 309.88 224.76 310.58" stroke="#CF1D00" stroke-width="1.67" stroke-linecap="round" stroke-linejoin="round"/>
<path d="M745.92 312.27C745.92 312.27 747.03 309.88 752.04 310.58" stroke="#CF1D00" stroke-width="1.67" stroke-linecap="round" stroke-linejoin="round"/>
<path d="M157.26 465.32H241.4" stroke="#0089E3" stroke-width="2.14" stroke-linecap="round" stroke-linejoin="round"/>
<path d="M819.54 465.32H735.4" stroke="#935000" stroke-width="2.14" stroke-linecap="round" stroke-linejoin="round"/>
<path d="M855.48 569.02H152.35V611.64H855.48V569.02Z" fill="#163BF3"/>
<path d="M331.78 498.62H0V519.52H331.78V498.62Z" fill="black"/>
<path d="M976.93 498.62H645.15V519.52H976.93V498.62Z" fill="black"/>
<path fill-rule="evenodd" clip-rule="evenodd" d="M539.85 250.89C525.53 249.69 418.58 249.68 418.58 249.68C418.58 249.68 390.26 261.28 372.76 265.18C355.26 269.08 320.89 287.54 310.71 321C300.53 354.46 268.71 467.69 267.43 511.6C266.15 555.51 292.43 569.07 314.43 569.07H654.21C675.96 569.07 723.35 543.43 714.03 510.07C704.71 476.71 669.59 343.98 661.51 319.75C653.43 295.52 626.09 278.75 602.51 273.13C578.93 267.51 543.43 254.86 539.85 250.89Z" fill="#9CE8C2"/>
<path fill-rule="evenodd" clip-rule="evenodd" d="M463.19 427.11C465.594 427.116 467.942 427.834 469.938 429.174C471.933 430.514 473.487 432.415 474.403 434.637C475.319 436.86 475.555 439.304 475.083 441.661C474.61 444.017 473.45 446.181 471.748 447.879C470.046 449.576 467.879 450.732 465.521 451.198C463.163 451.665 460.72 451.423 458.5 450.501C456.279 449.58 454.382 448.022 453.047 446.023C451.712 444.023 451 441.674 451 439.27C451.001 437.671 451.318 436.088 451.931 434.611C452.545 433.134 453.443 431.793 454.575 430.664C455.707 429.535 457.051 428.639 458.529 428.03C460.007 427.42 461.591 427.107 463.19 427.11Z" fill="#E3F7ED"/>
<path d="M502.991 421.17H482.461V427.11H502.991V421.17Z" fill="#E3F7ED"/>
<path fill-rule="evenodd" clip-rule="evenodd" d="M470.711 429.72L510.651 360.55V451.43H500.231V399.42L473.501 445.72L470.711 429.72Z" fill="#E3F7ED"/>
<path fill-rule="evenodd" clip-rule="evenodd" d="M390.37 257.55C429.52 294.23 532.17 303.81 553.77 271.38C595.201 237.9 562.87 190 544 190C532.06 190 427.79 188.8 408.32 188.48C388.85 188.16 370.57 232.2 390.37 257.55Z" fill="#9CE8C2"/>
<path d="M461.1 257.9C471.47 266.98 511.32 304.9 519.1 314.28" stroke="#24A865" stroke-width="1.67" stroke-linecap="round" stroke-linejoin="round"/>
<path d="M504.97 257.9L486 281.1" stroke="#24A865" stroke-width="1.67" stroke-linecap="round" stroke-linejoin="round"/>
<path d="M563.75 261.39C558.41 266.83 536.32 290.46 503.01 297.6" stroke="#24A865" stroke-width="1.67" stroke-linecap="round" stroke-linejoin="round"/>
<path d="M390.369 257.55C397.469 265.94 474.729 319.85 490.099 330.91" stroke="#24A865" stroke-width="1.67" stroke-linecap="round" stroke-linejoin="round"/>
<path fill-rule="evenodd" clip-rule="evenodd" d="M484.35 107C514.98 107 539.85 142.43 539.85 186.07C539.85 229.71 514.98 265.14 484.35 265.14C453.72 265.14 428.84 229.71 428.84 186.07C428.84 142.43 453.71 107 484.35 107Z" fill="#DFA98B"/>
<path fill-rule="evenodd" clip-rule="evenodd" d="M430.45 167.16C426.21 163.47 415.21 163.47 414.4 173.45C413.59 183.43 423.07 197.21 429.32 196.53C435.57 195.85 434.69 170.85 430.45 167.16Z" fill="#DFA98B"/>
<path fill-rule="evenodd" clip-rule="evenodd" d="M537.67 167.16C541.91 163.47 552.91 163.47 553.72 173.45C554.53 183.43 545.05 197.21 538.8 196.53C532.55 195.85 533.42 170.85 537.67 167.16Z" fill="#DFA98B"/>
<path d="M348.711 352.86C348.711 352.86 358.401 465 363.641 498.12" stroke="#24A865" stroke-width="1.67" stroke-linecap="round" stroke-linejoin="round"/>
<path d="M640 352.86C640 352.86 630.34 465 625.09 498.12" stroke="#24A865" stroke-width="1.67" stroke-linecap="round" stroke-linejoin="round"/>
<path d="M488.251 183.07L493.781 220.07H474.911L489.261 234.41C483.521 237.71 469.091 237.76 464.381 234.41" stroke="black" stroke-width="1.67" stroke-linecap="round" stroke-linejoin="round"/>
<path fill-rule="evenodd" clip-rule="evenodd" d="M430.199 168.66C430.199 168.66 443.399 153.24 447.899 141.03C486.209 156.65 520.899 140.58 520.899 140.58C520.899 140.58 527.999 164 537.809 164.8C537.809 143.5 516.629 103.87 484.329 103.87C429.869 103.87 430.199 168.66 430.199 168.66Z" fill="black"/>
<path fill-rule="evenodd" clip-rule="evenodd" d="M464.381 176.2C466.041 176.2 467.381 178.42 467.381 181.2C467.381 183.98 466.041 186.2 464.381 186.2C462.721 186.2 461.381 183.98 461.381 181.2C461.381 178.42 462.721 176.2 464.381 176.2Z" fill="black"/>
<path d="M507.301 186.1C508.958 186.1 510.301 183.884 510.301 181.15C510.301 178.416 508.958 176.2 507.301 176.2C505.644 176.2 504.301 178.416 504.301 181.15C504.301 183.884 505.644 186.1 507.301 186.1Z" fill="black"/>
<path d="M454.359 172.32C454.359 172.32 456.729 167.23 467.359 168.73" stroke="black" stroke-width="1.67" stroke-linecap="round" stroke-linejoin="round"/>
<path d="M516.811 172.32C516.811 172.32 514.441 167.23 503.811 168.73" stroke="black" stroke-width="1.67" stroke-linecap="round" stroke-linejoin="round"/>
<path d="M314.449 498.12H432.969" stroke="#24A865" stroke-width="1.67" stroke-linecap="round" stroke-linejoin="round"/>
<path d="M543.721 498.12H662.241" stroke="#24A865" stroke-width="1.67" stroke-linecap="round" stroke-linejoin="round"/>
<path fill-rule="evenodd" clip-rule="evenodd" d="M433 498.62C421.95 498.62 412.92 527.3 412.92 543.12C412.92 558.94 421.39 569.02 436.08 569.02C450.77 569.02 449.35 551.87 449.35 542.55C449.35 533.23 444 498.62 433 498.62Z" fill="#24A865"/>
<path fill-rule="evenodd" clip-rule="evenodd" d="M542.46 498.62C553.46 498.62 562.55 527.3 562.55 543.12C562.55 558.94 554.07 569 539.39 569C524.71 569 526.11 551.85 526.11 542.53C526.11 533.21 531.41 498.62 542.46 498.62Z" fill="#24A865"/>
<path fill-rule="evenodd" clip-rule="evenodd" d="M544.309 498.89C544.309 498.89 526.619 504.14 517.139 512.5C507.659 520.86 480.489 548.77 476.649 553.29C474.209 556.15 471.649 561.71 474.869 562.81C475.964 563.293 477.166 563.479 478.355 563.347C479.544 563.215 480.677 562.771 481.639 562.06C484.569 560.16 488.739 557.31 490.529 556.06C485.079 559.95 484.089 567.14 486.529 568.5C489.449 570.11 496.279 568.1 500.529 564C503.429 570.62 510.239 570.57 513.459 564.38C515.219 567.81 521.459 571.65 527.799 566.51C539.729 556.79 554.039 560.61 561.899 550.19C564.999 534.5 557.289 504.91 544.309 498.89Z" fill="#DFA98B"/>
<path fill-rule="evenodd" clip-rule="evenodd" d="M340.811 176.34C330.054 176.429 319.764 180.741 312.158 188.347C304.552 195.953 300.24 206.244 300.151 217V217.26C300.132 206.41 295.814 196.01 288.142 188.338C280.47 180.667 270.07 176.348 259.221 176.33C270.07 176.311 280.47 171.993 288.142 164.321C295.814 156.649 300.132 146.25 300.151 135.4V135.66C300.222 146.468 304.564 156.809 312.23 164.427C319.895 172.046 330.263 176.325 341.071 176.33L340.811 176.34Z" fill="#FBBE2E"/>
<path fill-rule="evenodd" clip-rule="evenodd" d="M692.79 203.26C685.706 203.299 678.922 206.128 673.908 211.132C668.893 216.137 666.053 222.916 666 230V230.18C665.997 223.04 663.161 216.194 658.113 211.144C653.065 206.095 646.22 203.255 639.08 203.25C646.217 203.247 653.061 200.412 658.109 195.366C663.157 190.32 665.995 183.477 666 176.34V176.51C666.048 183.633 668.915 190.447 673.976 195.461C679.036 200.474 685.877 203.279 693 203.26H692.79Z" fill="#FBBE2E"/>
<path fill-rule="evenodd" clip-rule="evenodd" d="M544.15 24.32C537.757 24.3646 531.638 26.9246 527.119 31.4461C522.599 35.9677 520.042 42.087 520 48.48V48.64C519.997 42.1907 517.434 36.0064 512.874 31.4461C508.313 26.8858 502.129 24.3226 495.68 24.32C502.129 24.3174 508.313 21.7542 512.874 17.1939C517.434 12.6336 519.997 6.44925 520 0V0.16C520.045 6.58148 522.626 12.7248 527.182 17.2506C531.738 21.7764 537.898 24.3175 544.32 24.32H544.15Z" fill="#FBBE2E"/>
<path fill-rule="evenodd" clip-rule="evenodd" d="M416.12 522.83C416.12 522.83 430.76 520.74 437.38 521.14C444 521.54 445 526.35 445 526.35C445 526.35 466.46 525.55 466.86 538.79C467.26 552.03 464.25 568.79 452.62 569.02C440.99 569.25 401.27 577.66 416.12 522.83Z" fill="#DFA98B"/>
<path fill-rule="evenodd" clip-rule="evenodd" d="M504.539 524.53C504.539 524.53 474.879 485.31 466.899 474.4C458.919 463.49 452.899 468.4 460.969 478.9C469.039 489.4 498.639 530.43 498.639 530.43L504.539 524.53Z" fill="black"/>
<path d="M231.811 611.64H202.561V706.29H231.811V611.64Z" fill="#163BF3"/>
<path d="M800.039 611.64H770.789V706.29H800.039V611.64Z" fill="#163BF3"/>
<path d="M231.811 611.64H202.561V629.69H231.811V611.64Z" fill="black"/>
<path d="M800.039 611.64H770.789V629.69H800.039V611.64Z" fill="black"/>
<path fill-rule="evenodd" clip-rule="evenodd" d="M355.59 611.64C355.59 611.64 318.98 706.29 386.59 706.29H497.67V611.64H355.59Z" fill="#9CE8C2"/>
<path fill-rule="evenodd" clip-rule="evenodd" d="M627 611.64C627 611.64 663.61 706.29 596 706.29H485V611.64H627Z" fill="#9CE8C2"/>
<path d="M345.48 548.11H201.4V569.01H345.48V548.11Z" fill="#B9E2FE"/>
<path d="M316.281 535.21H189.551V548.11H316.281V535.21Z" fill="#0089E3"/>
</g>
<defs>
<clipPath id="clip0_447:19754">
<rect width="976.93" height="706.29" fill="white"/>
</clipPath>
</defs>
</svg>
