<svg width="861" height="819" viewBox="0 0 861 819" fill="none" xmlns="http://www.w3.org/2000/svg">
<g clip-path="url(#clip0_447:19870)">
<path fill-rule="evenodd" clip-rule="evenodd" d="M447.349 805.628C654.663 805.628 823.178 805.02 822.973 812.041C822.795 819.623 654.691 818.454 447.349 818.454C240.007 818.454 71.7246 819.249 71.7246 812.041C71.7246 804.833 240.035 805.628 447.349 805.628Z" fill="#163BF3"/>
<path fill-rule="evenodd" clip-rule="evenodd" d="M761.429 775.505C757.98 783.414 771.919 801.738 768.535 809.311H697.258L709.767 775.505C709.767 775.505 748.35 775.169 761.429 775.505Z" fill="black"/>
<g style="mix-blend-mode:multiply">
<path fill-rule="evenodd" clip-rule="evenodd" d="M636.964 342.03L686.111 422.094L718.692 471.691L798.58 478.086C798.58 478.086 775.946 400.405 778.666 384.474C789.614 393.683 798.832 403.967 810.537 397.451C820.737 417.083 849.616 482.311 857.834 504.721C866.051 527.13 851.607 544.305 814.267 544.305H754.284L731.136 587.628H565.014L630.756 474.739L579 364.234C579 364.234 598.82 320.592 636.964 342.03Z" fill="#163BF3"/>
</g>
<path d="M798.602 478.076L805.221 501.514" stroke="black" stroke-width="1.67" stroke-linecap="round" stroke-linejoin="round"/>
<path fill-rule="evenodd" clip-rule="evenodd" d="M754.285 544.295H739.869L747.246 557.477L754.285 544.295Z" fill="black"/>
<path fill-rule="evenodd" clip-rule="evenodd" d="M498.693 811.405C498.693 811.405 537.09 812.499 548.131 812.499C559.172 812.499 549.832 797.036 539.577 785.237C529.321 773.439 498.693 811.405 498.693 811.405Z" fill="black"/>
<path d="M630.758 474.72L635.339 484.508" stroke="black" stroke-width="1.67" stroke-linecap="round" stroke-linejoin="round"/>
<path d="M697.258 494.858L649.971 587.618" stroke="black" stroke-width="1.67" stroke-linecap="round" stroke-linejoin="round"/>
<path fill-rule="evenodd" clip-rule="evenodd" d="M737.719 473.215C737.719 473.215 719.507 498.672 694.714 494.54C679.25 491.959 676.016 470.634 676.016 470.634L737.719 473.215Z" fill="black"/>
<path fill-rule="evenodd" clip-rule="evenodd" d="M719.15 398.264C738.839 402.34 750.872 424.824 745.991 448.459C741.111 472.093 721.151 487.967 701.453 483.901C681.754 479.834 669.732 457.34 674.621 433.706C679.511 410.072 699.452 394.178 719.15 398.264Z" fill="#FFC7BF"/>
<path fill-rule="evenodd" clip-rule="evenodd" d="M778.668 384.474C782.52 391.841 797.46 404.93 810.539 397.451C823.618 389.971 841.138 372.853 845.317 368.674C849.496 364.495 846.514 361.102 841.335 364.495C836.155 367.889 821.674 373.255 821.674 373.255C821.674 373.255 838.203 353.136 843.579 346.77C848.954 340.403 844.579 338.402 839.4 342.385C834.22 346.368 816.691 361.307 816.691 361.307C816.691 361.307 830.836 340.001 835.809 332.821C840.783 325.641 836.613 323.266 831.228 328.446C825.843 333.625 811.511 347.144 811.511 347.144C811.511 347.144 820.281 328.221 823.469 320.854C826.657 313.487 823.665 312.094 818.682 318.47C813.699 324.846 800.564 344.76 797.179 349.537C793.795 354.314 787.017 353.323 786.821 347.144C786.624 340.964 786.222 334.401 786.026 331.25C785.83 328.1 780.248 327.258 778.65 336.131C777.051 345.003 770.385 368.6 778.668 384.474Z" fill="#FFC7BF"/>
<path fill-rule="evenodd" clip-rule="evenodd" d="M731.138 587.628L716.301 616.011H759.091C785.549 616.011 828.339 637.018 806.949 683.324C785.558 729.63 761.429 775.514 761.429 775.514H709.766L734.933 685.652H612.91L532.939 794.259C529.125 799.44 524.173 803.677 518.465 806.645C512.757 809.613 506.444 811.232 500.012 811.377C494.95 811.494 489.945 810.296 485.484 807.902C481.023 805.507 477.259 801.997 474.559 797.714C471.859 793.431 470.316 788.522 470.079 783.464C469.842 778.407 470.92 773.374 473.208 768.858C506.332 703.415 565.015 587.628 565.015 587.628" fill="#24A865"/>
<path d="M734.932 685.643L744.814 650.35" stroke="#00672E" stroke-width="1.67" stroke-linecap="round" stroke-linejoin="round"/>
<path d="M612.91 685.643L650.512 634.569" stroke="#00672E" stroke-width="1.67" stroke-linecap="round" stroke-linejoin="round"/>
<path d="M716.301 616.011H699.744" stroke="#00672E" stroke-width="1.67" stroke-linecap="round" stroke-linejoin="round"/>
<path d="M726.089 597.285H562.604" stroke="#00672E" stroke-width="1.67" stroke-linecap="round" stroke-linejoin="round"/>
<path fill-rule="evenodd" clip-rule="evenodd" d="M689.161 415.952C689.161 415.952 677.428 415.017 672.959 414.783C668.49 414.55 668.752 417.85 671.155 420.01C673.558 422.169 679.064 426.554 679.064 426.554L689.161 415.952Z" fill="#FFC7BF"/>
<path fill-rule="evenodd" clip-rule="evenodd" d="M676.382 427.386C677.383 429.144 680.122 429.835 682.113 429.92C684.104 430.004 697.287 430.022 697.072 434.921C696.726 443.784 675.569 439.596 673.783 438.726C673.878 434.81 674.762 430.953 676.382 427.386Z" fill="white"/>
<path fill-rule="evenodd" clip-rule="evenodd" d="M703.737 416.195C703.238 415.907 702.663 415.78 702.09 415.83C701.516 415.88 700.972 416.105 700.531 416.476C700.09 416.846 699.773 417.343 699.625 417.899C699.476 418.455 699.502 419.044 699.699 419.585C699.896 420.126 700.255 420.593 700.727 420.923C701.199 421.252 701.761 421.429 702.337 421.428C702.913 421.428 703.474 421.25 703.945 420.919C704.417 420.589 704.775 420.121 704.971 419.579C705.255 418.967 705.284 418.267 705.053 417.632C704.821 416.998 704.348 416.481 703.737 416.195Z" fill="black"/>
<path d="M721.584 426.703C721.584 426.703 723.762 423.02 727.034 424.338C730.306 425.656 731.428 430.985 730.447 434.968C729.465 438.951 726.782 443.139 723.51 442.999C720.237 442.859 719.387 438.866 719.387 438.866" stroke="black" stroke-width="1.67" stroke-linecap="round" stroke-linejoin="round"/>
<path d="M725.623 428.068C726.462 429.555 726.873 431.245 726.812 432.951C726.751 434.656 726.22 436.312 725.277 437.735" stroke="black" stroke-width="1.67" stroke-linecap="round" stroke-linejoin="round"/>
<path fill-rule="evenodd" clip-rule="evenodd" d="M649.474 287.59C649.474 287.59 609.095 312.131 598.363 319.798C587.63 327.464 568.773 343.282 579.001 364.233C589.229 385.185 618.8 380.632 618.8 380.632L643.958 353.435L686.786 293.733L649.474 287.59Z" fill="#163BF3"/>
<path fill-rule="evenodd" clip-rule="evenodd" d="M666.797 265.564C666.797 265.564 646.575 269.463 649.474 287.59C651.867 302.549 677.521 301.38 686.795 293.733C688.789 292.125 690.435 290.128 691.632 287.863C692.829 285.598 693.553 283.113 693.758 280.56C693.964 278.007 693.647 275.438 692.828 273.011C692.008 270.584 690.703 268.349 688.992 266.443C682.448 259.328 667.629 245.09 661.562 240.06C655.494 235.03 653.4 240.481 656.953 245.669C660.505 250.858 666.797 265.564 666.797 265.564Z" fill="#FFC7BF"/>
<path d="M627.271 376.724L643.969 353.435" stroke="black" stroke-width="1.67" stroke-linecap="round" stroke-linejoin="round"/>
<path d="M685.935 276.502C685.935 276.502 676.586 266.602 673.145 263.208C670.079 260.142 666.152 262.404 668.2 266.723C671.285 273.212 666.424 282.187 675.324 287.59" stroke="#CF1D00" stroke-width="1.67" stroke-linecap="round" stroke-linejoin="round"/>
<path fill-rule="evenodd" clip-rule="evenodd" d="M154.65 775.187C158.099 783.096 144.151 801.42 147.544 808.993H218.821L206.322 775.187C206.322 775.187 167.729 774.851 154.65 775.187Z" fill="black"/>
<g style="mix-blend-mode:multiply">
<path fill-rule="evenodd" clip-rule="evenodd" d="M279.114 341.721L229.947 421.777L197.366 471.373L117.479 477.73C117.479 477.73 140.132 400.134 137.392 384.156C126.435 393.365 117.226 403.649 105.54 397.142C95.3311 416.775 66.4521 482.003 58.2343 504.403C50.0166 526.803 64.4514 543.996 101.801 543.996H161.803L184.96 587.31H351.073L285.321 474.412L337.077 363.916C337.077 363.916 317.248 320.275 279.114 341.721Z" fill="#163BF3"/>
</g>
<path d="M117.478 477.758L110.859 501.196" stroke="black" stroke-width="1.67" stroke-linecap="round" stroke-linejoin="round"/>
<path fill-rule="evenodd" clip-rule="evenodd" d="M161.793 543.987H176.209L168.833 557.159L161.793 543.987Z" fill="black"/>
<path d="M285.321 474.411L280.74 484.2" stroke="black" stroke-width="1.67" stroke-linecap="round" stroke-linejoin="round"/>
<path d="M218.822 494.54L266.109 587.301" stroke="black" stroke-width="1.67" stroke-linecap="round" stroke-linejoin="round"/>
<path fill-rule="evenodd" clip-rule="evenodd" d="M178.361 472.897C178.361 472.897 196.583 498.354 221.367 494.222C236.83 491.642 240.065 470.317 240.065 470.317L178.361 472.897Z" fill="black"/>
<path fill-rule="evenodd" clip-rule="evenodd" d="M167 422.281C155.95 439.109 163.345 463.492 183.511 476.749C203.677 490.005 229.003 487.126 240.053 470.316C251.104 453.507 243.709 429.106 223.552 415.849C203.396 402.592 178.051 405.472 167 422.281Z" fill="#FFC7BF"/>
<path fill-rule="evenodd" clip-rule="evenodd" d="M137.393 384.156C133.588 391.523 118.629 404.602 105.541 397.142C92.452 389.681 74.9226 372.545 70.7436 368.347C66.5646 364.149 69.5469 360.784 74.7263 364.168C79.9056 367.552 94.4433 372.928 94.4433 372.928C94.4433 372.928 77.9143 352.828 72.5386 346.452C67.1629 340.076 71.5383 338.084 76.7176 342.067C81.8969 346.05 99.417 360.989 99.417 360.989C99.417 360.989 85.2813 339.674 80.2983 332.512C75.3153 325.351 79.5036 322.948 84.8793 328.128C90.2549 333.307 104.606 346.844 104.606 346.844C104.606 346.844 95.8363 327.931 92.6483 320.555C89.4603 313.179 92.452 311.795 97.435 318.171C102.418 324.547 115.553 344.46 118.938 349.238C122.322 354.015 129.1 353.024 129.296 346.844C129.493 340.665 129.895 334.102 130.091 330.951C130.287 327.8 135.869 326.959 137.467 335.831C139.066 344.703 145.741 368.282 137.393 384.156Z" fill="#FFC7BF"/>
<path fill-rule="evenodd" clip-rule="evenodd" d="M184.95 587.31L199.778 615.693H156.959C130.502 615.693 87.7112 636.701 109.111 683.006C130.511 729.312 154.622 775.197 154.622 775.197H206.322L181.145 685.334H303.177L383.139 793.951C386.954 799.132 391.905 803.369 397.614 806.337C403.322 809.304 409.635 810.923 416.067 811.069C421.128 811.185 426.134 809.988 430.594 807.593C435.055 805.199 438.819 801.689 441.519 797.406C444.219 793.123 445.763 788.213 446 783.156C446.236 778.098 445.158 773.066 442.87 768.549L351.072 587.31" fill="#24A865"/>
<path fill-rule="evenodd" clip-rule="evenodd" d="M469.084 689.279L454.425 773.897L424.994 774.159V689.279H469.084Z" fill="#FBBE2E"/>
<path fill-rule="evenodd" clip-rule="evenodd" d="M633.757 769.699C634.384 775.028 639.881 786.948 641.451 794.596C643.676 805.403 649.753 809.367 649.753 809.367L737.634 760.107C736.343 758.678 734.686 757.63 732.842 757.075C730.998 756.519 729.038 756.478 727.172 756.957C720.366 758.452 699.621 760.107 688.673 758.826C677.726 757.546 659.934 754.713 659.934 754.713C659.934 754.713 631.439 750.253 633.757 769.699Z" fill="#CF1D00"/>
<path fill-rule="evenodd" clip-rule="evenodd" d="M550.703 660.587L603.992 635.41L659.937 754.713C653.963 759.612 640.304 765.492 633.76 769.671C621.606 757.92 574.562 703.088 567.915 691.972C561.268 680.856 550.703 660.587 550.703 660.587Z" fill="#FBBE2E"/>
<path fill-rule="evenodd" clip-rule="evenodd" d="M551.748 662.579L562.256 682.127L609.338 646.807L605.365 637.467L551.748 662.579Z" fill="black"/>
<path fill-rule="evenodd" clip-rule="evenodd" d="M469.084 689.279H424.994V702.882L467.467 698.619L469.084 689.279Z" fill="black"/>
<path fill-rule="evenodd" clip-rule="evenodd" d="M454.425 773.897C454.425 773.897 470.599 787.491 481.06 791.146C491.522 794.801 521.887 803.169 521.887 812.013H424.994V774.159L454.425 773.897Z" fill="#CF1D00"/>
<path d="M181.146 685.325L171.264 650.032" stroke="#00672E" stroke-width="1.67" stroke-linecap="round" stroke-linejoin="round"/>
<path d="M303.177 685.325L265.566 634.251" stroke="#00672E" stroke-width="1.67" stroke-linecap="round" stroke-linejoin="round"/>
<path d="M199.777 615.693H216.334" stroke="#00672E" stroke-width="1.67" stroke-linecap="round" stroke-linejoin="round"/>
<path d="M189.99 596.967H353.476" stroke="#00672E" stroke-width="1.67" stroke-linecap="round" stroke-linejoin="round"/>
<path fill-rule="evenodd" clip-rule="evenodd" d="M356.579 241.883L303.897 310.383L282.105 262.928C282.105 262.928 278.365 269.883 271.821 273.212C265.277 276.54 256.059 275.446 256.059 275.446C256.059 275.446 279.618 345.909 283.591 355.744C287.565 365.58 313.733 375.2 332.804 354.81C351.502 334.84 352.933 333.419 352.933 333.419L356.579 241.883Z" fill="#24A865"/>
<path d="M303.898 310.402L313.163 330.596" stroke="#00672E" stroke-width="1.67" stroke-linecap="round" stroke-linejoin="round"/>
<path fill-rule="evenodd" clip-rule="evenodd" d="M356.581 242.369L352.935 333.457L343.764 341.917L351.486 248.998L356.581 242.369Z" fill="#00672E"/>
<path fill-rule="evenodd" clip-rule="evenodd" d="M423.603 170.644L384.701 185.602L385.318 194.016C385.318 194.016 354.373 217.922 353.205 266.546C352.036 315.17 353.99 398.806 353.99 398.806H445.012C445.012 398.806 447.349 242.033 447.349 224.148C447.349 206.263 423.603 170.644 423.603 170.644Z" fill="#24A865"/>
<path fill-rule="evenodd" clip-rule="evenodd" d="M353.476 372.657L445.012 383.857V350.247L353.373 366.187L353.476 372.657Z" fill="black"/>
<path fill-rule="evenodd" clip-rule="evenodd" d="M333.654 362.233C333.654 362.233 321.856 359.98 316.873 358.736C311.89 357.493 305.074 352.098 306.337 345.124C307.058 340.468 308.384 335.927 310.282 331.615C311.422 329.175 315.742 326.735 317.378 326.735C317.537 324.612 320.799 320.368 323.165 321.022C325.53 321.677 340.199 332.97 340.199 332.97L333.654 362.233Z" fill="#DFA98B"/>
<path fill-rule="evenodd" clip-rule="evenodd" d="M353.429 369.431C361.31 370.619 413.019 369.861 427.706 369.861C442.394 369.861 445.638 357.904 445.703 351.678C445.769 345.451 446.386 321.555 446.376 304.587C446.367 287.618 443.142 215.5 440.823 207.441C438.505 199.383 432.007 180.236 418.918 184.237C394.938 191.576 391.61 234.423 393.283 255.617C394.957 276.811 404.362 328.539 404.362 328.539L353.784 333.438C347.978 334.017 328.439 331.568 327.84 349.49C327.242 367.412 345.557 368.244 353.429 369.431Z" fill="#24A865"/>
<path fill-rule="evenodd" clip-rule="evenodd" d="M241.278 733.958L282.311 749.15L256.723 812.181H167.094C167.094 812.181 167.094 807.909 173.32 804.917C179.547 801.925 215.643 789.23 221.374 783.508C227.105 777.786 241.278 733.958 241.278 733.958Z" fill="#FBBE2E"/>
<path fill-rule="evenodd" clip-rule="evenodd" d="M241.278 734.734L238.277 742.943L279.217 756.77L282.311 749.15L241.278 734.734Z" fill="black"/>
<path fill-rule="evenodd" clip-rule="evenodd" d="M445.011 398.778V746.131L370.443 747.084V593.219L300.026 756.77L241.277 734.734L348.426 454.442L353.989 398.778H445.011Z" fill="white"/>
<path d="M370.443 593.228V483.218" stroke="#24A865" stroke-width="1.67" stroke-linecap="round" stroke-linejoin="round"/>
<path d="M353.037 408.295H445.013" stroke="#24A865" stroke-width="1.67" stroke-linecap="round" stroke-linejoin="round"/>
<path fill-rule="evenodd" clip-rule="evenodd" d="M364.33 397.862C365.362 397.862 366.37 398.168 367.228 398.741C368.086 399.314 368.755 400.129 369.15 401.082C369.544 402.035 369.648 403.084 369.447 404.096C369.245 405.108 368.748 406.038 368.019 406.767C367.289 407.497 366.36 407.994 365.348 408.195C364.336 408.396 363.287 408.293 362.334 407.898C361.38 407.503 360.566 406.835 359.992 405.977C359.419 405.119 359.113 404.11 359.113 403.079C359.113 401.695 359.663 400.368 360.641 399.39C361.62 398.411 362.946 397.862 364.33 397.862Z" fill="white"/>
<path d="M353.783 333.456L403.193 328.558" stroke="#00672E" stroke-width="1.67" stroke-linecap="round" stroke-linejoin="round"/>
<path d="M440.824 207.441C438.907 199.027 430.951 180.872 418.087 184.443C402.885 188.659 388.525 215.295 393.508 257.58C398.491 299.866 406.887 341.917 406.887 341.917" stroke="#00672E" stroke-width="1.67" stroke-linecap="round" stroke-linejoin="round"/>
<path d="M385.318 194.456C385.318 194.456 394.05 187.107 399.744 183.957" stroke="#00672E" stroke-width="1.67" stroke-linecap="round" stroke-linejoin="round"/>
<path fill-rule="evenodd" clip-rule="evenodd" d="M259.603 66.4773C271.55 66.4773 283.228 70.0199 293.162 76.6572C303.095 83.2944 310.837 92.7282 315.409 103.766C319.981 114.803 321.177 126.948 318.846 138.665C316.516 150.383 310.763 161.145 302.315 169.593C293.867 178.041 283.104 183.794 271.387 186.124C259.67 188.455 247.525 187.259 236.488 182.687C225.45 178.115 216.016 170.373 209.379 160.44C202.742 150.506 199.199 138.828 199.199 126.881C199.207 110.863 205.573 95.5037 216.899 84.1774C228.226 72.8511 243.585 66.4847 259.603 66.4773Z" fill="#FBBE2E"/>
<path fill-rule="evenodd" clip-rule="evenodd" d="M256.059 275.446L251.487 265.377C251.487 265.377 238.866 256.159 233.621 252.625C228.377 249.091 229.003 245.922 229.798 243.379C230.102 242.582 230.572 241.858 231.177 241.256C231.781 240.653 232.506 240.185 233.304 239.883C233.304 239.883 230.873 236.414 232.509 232.871C234.145 229.328 237.445 229.683 237.445 229.683C237.445 229.683 237.604 224.905 240.792 223.952C241.775 223.695 242.804 223.675 243.796 223.895C244.787 224.114 245.713 224.566 246.495 225.214C246.495 225.214 244.41 221.1 246.495 218.931C249.3 216.033 254.647 222.512 254.647 222.512C254.647 222.512 255.788 198.466 256.04 193.194C256.293 187.921 261.182 184.593 261.986 190.165C262.79 195.737 266.119 227.458 266.764 231.123C269.952 234.311 279.469 247.997 282.115 262.909C281.713 268.892 276.842 274.128 272.85 275.998C265.333 279.644 256.059 275.446 256.059 275.446Z" fill="#DFA98B"/>
<path d="M246.486 225.214L257.612 240.986C257.612 240.986 262.202 253.326 269.541 255.159" stroke="#935000" stroke-width="1.67" stroke-linecap="round" stroke-linejoin="round"/>
<path d="M251.666 264.573C251.666 264.573 255.265 266.134 256.032 264.573C257.528 261.479 254.059 258.534 252.516 257.094C251.17 255.851 233.295 239.929 233.295 239.929" stroke="#935000" stroke-width="1.67" stroke-linecap="round" stroke-linejoin="round"/>
<path d="M254.488 258.964C254.488 258.964 257.377 259.609 258.733 258.029C260.088 256.449 258.863 251.728 256.956 250.157C255.049 248.586 237.436 229.673 237.436 229.673" stroke="#935000" stroke-width="1.67" stroke-linecap="round" stroke-linejoin="round"/>
<path d="M237.436 229.683C237.436 229.683 257.742 251.531 260.808 248.483" stroke="#935000" stroke-width="1.67" stroke-linecap="round" stroke-linejoin="round"/>
<path d="M254.992 222.334C254.992 222.334 266.678 231.412 267.856 232.618" stroke="#935000" stroke-width="1.67" stroke-linecap="round" stroke-linejoin="round"/>
<path fill-rule="evenodd" clip-rule="evenodd" d="M410.242 94.0849C428.08 103.294 433.69 128.19 422.62 149.637C411.551 171.083 388.085 181.031 370.201 171.822C352.316 162.613 346.744 137.717 357.823 116.27C368.901 94.8234 392.358 84.8761 410.242 94.0849Z" fill="#DFA98B"/>
<path fill-rule="evenodd" clip-rule="evenodd" d="M479.547 94.0849C461.672 103.294 456.119 128.19 467.169 149.637C478.22 171.083 501.704 181.031 519.589 171.822C537.474 162.613 542.962 137.717 531.958 116.27C520.954 94.8234 497.432 84.8761 479.547 94.0849Z" fill="#DFA98B"/>
<path fill-rule="evenodd" clip-rule="evenodd" d="M380.326 174.982L384.701 185.611L423.603 170.672L416.161 159.341L380.326 174.982Z" fill="#DFA98B"/>
<path fill-rule="evenodd" clip-rule="evenodd" d="M509.464 174.982L505.089 185.611L466.188 170.672L473.62 159.341L509.464 174.982Z" fill="#DFA98B"/>
<path fill-rule="evenodd" clip-rule="evenodd" d="M380.326 174.982H393.078L382.392 180.011L380.326 174.982Z" fill="#935000"/>
<path fill-rule="evenodd" clip-rule="evenodd" d="M509.465 174.982H496.713L507.389 180.011L509.465 174.982Z" fill="#935000"/>
<path fill-rule="evenodd" clip-rule="evenodd" d="M370.444 747.084L370.79 770.849C370.79 770.849 336.938 795.157 326.242 801.972C315.547 808.788 311.648 807.32 314.565 812.181H414.254L413.73 746.533L370.444 747.084Z" fill="#FBBE2E"/>
<path fill-rule="evenodd" clip-rule="evenodd" d="M370.443 747.084L413.729 746.533L413.832 759.341L370.537 753.974L370.443 747.084Z" fill="black"/>
<path d="M354.739 136.473C359.035 136.473 362.518 131.157 362.518 124.6C362.518 118.043 359.035 112.727 354.739 112.727C350.443 112.727 346.961 118.043 346.961 124.6C346.961 131.157 350.443 136.473 354.739 136.473Z" fill="black"/>
<path d="M401.904 141.802C401.904 141.802 403.559 148.347 408.271 148.047C412.983 147.748 417.33 141.166 417.33 135.436" stroke="#935000" stroke-width="1.67" stroke-linecap="round" stroke-linejoin="round"/>
<path d="M380.11 136.473C384.406 136.473 387.889 131.157 387.889 124.6C387.889 118.043 384.406 112.727 380.11 112.727C375.815 112.727 372.332 118.043 372.332 124.6C372.332 131.157 375.815 136.473 380.11 136.473Z" fill="black"/>
<path fill-rule="evenodd" clip-rule="evenodd" d="M367.424 103.163H401.08V132.949H403.885C403.885 132.949 404.82 122.842 410.28 122.525C415.739 122.207 416.497 130.602 416.497 135.333C416.497 140.063 415.824 151.404 419.301 155.227C423.686 148.646 428.903 139.1 430.193 126.208C432.998 98.1611 421.583 86.3907 401.043 85.5493C385.075 84.8482 372.781 96.7962 367.424 103.163Z" fill="#163BF3"/>
<path d="M387.768 122.525H403.848" stroke="black" stroke-width="1.67" stroke-linecap="round" stroke-linejoin="round"/>
<path d="M364.452 122.525C364.452 122.525 364.583 135.202 357.057 142.98H367.425L362.526 152.928C362.526 152.928 375.493 154.582 380.111 149.478" stroke="#935000" stroke-width="1.67" stroke-linecap="round" stroke-linejoin="round"/>
<path d="M525.309 122.525C525.309 122.525 525.188 135.202 532.704 142.98H522.364L527.263 152.928C527.263 152.928 514.287 154.582 509.678 149.478" stroke="#935000" stroke-width="1.67" stroke-linecap="round" stroke-linejoin="round"/>
<path d="M408.756 126.629C408.756 126.629 411.112 128.573 411.364 133.93C411.617 139.287 409.579 141.643 409.579 141.643" stroke="#935000" stroke-width="1.67" stroke-linecap="round" stroke-linejoin="round"/>
<path d="M362.404 122.525H372.445" stroke="black" stroke-width="1.67" stroke-linecap="round" stroke-linejoin="round"/>
<path fill-rule="evenodd" clip-rule="evenodd" d="M200.723 413.587C200.723 413.587 208.361 404.621 211.352 401.302C214.344 397.983 216.494 400.508 216.326 403.733C216.158 406.959 215.335 413.923 215.335 413.923L200.723 413.587Z" fill="#FFC7BF"/>
<path fill-rule="evenodd" clip-rule="evenodd" d="M215.605 411.521C216.642 413.531 216.942 416.999 215.605 418.486C214.268 419.972 205.321 430.303 208.546 432.612C211.772 434.921 221.317 421.805 222.673 420.103C224.028 418.402 225.879 417.757 227.712 418.832C224.43 415.765 220.326 412.035 215.605 411.521Z" fill="white"/>
<path fill-rule="evenodd" clip-rule="evenodd" d="M190.617 424.067C190.766 423.512 191.083 423.016 191.524 422.646C191.966 422.277 192.51 422.052 193.083 422.003C193.656 421.953 194.231 422.081 194.729 422.369C195.227 422.657 195.624 423.091 195.867 423.613C196.11 424.134 196.187 424.718 196.087 425.285C195.987 425.851 195.715 426.373 195.308 426.78C194.901 427.187 194.379 427.459 193.812 427.559C193.246 427.659 192.662 427.582 192.14 427.339C191.506 427.105 190.99 426.63 190.704 426.017C190.419 425.404 190.387 424.703 190.617 424.067Z" fill="black"/>
<path fill-rule="evenodd" clip-rule="evenodd" d="M514.513 123.123C515.081 123.017 515.667 123.089 516.192 123.329C516.717 123.568 517.155 123.964 517.447 124.462C517.739 124.96 517.87 125.535 517.823 126.111C517.775 126.686 517.551 127.232 517.182 127.676C516.813 128.119 516.315 128.438 515.758 128.588C515.201 128.738 514.611 128.713 514.069 128.516C513.526 128.319 513.058 127.959 512.728 127.486C512.397 127.012 512.221 126.449 512.223 125.872C512.17 125.205 512.381 124.545 512.809 124.031C513.237 123.518 513.848 123.192 514.513 123.123Z" fill="black"/>
<path fill-rule="evenodd" clip-rule="evenodd" d="M531.023 123.123C531.59 123.025 532.174 123.104 532.695 123.349C533.216 123.595 533.649 123.995 533.934 124.494C534.22 124.994 534.345 125.57 534.293 126.143C534.24 126.717 534.012 127.26 533.64 127.699C533.268 128.139 532.77 128.453 532.213 128.599C531.656 128.746 531.067 128.717 530.527 128.517C529.987 128.318 529.522 127.957 529.194 127.483C528.866 127.01 528.692 126.447 528.695 125.871C528.643 125.199 528.859 124.533 529.294 124.019C529.73 123.504 530.351 123.182 531.023 123.123Z" fill="black"/>
<path d="M185.399 444.121C185.399 444.121 181.257 443.055 179.873 446.299C178.49 449.543 181.472 454.105 184.969 456.228C188.465 458.35 193.383 459.416 195.589 456.976C197.795 454.535 195.589 451.132 195.589 451.132" stroke="black" stroke-width="1.67" stroke-linecap="round" stroke-linejoin="round"/>
<path d="M183.512 447.944C183.969 449.589 184.872 451.075 186.121 452.238C187.37 453.401 188.916 454.196 190.589 454.535" stroke="black" stroke-width="1.67" stroke-linecap="round" stroke-linejoin="round"/>
<path fill-rule="evenodd" clip-rule="evenodd" d="M466.411 170.644L505.312 185.602L504.686 194.016C504.686 194.016 535.631 217.922 536.8 266.546C537.968 315.17 536.024 398.806 536.024 398.806H445.011C445.011 398.806 442.674 242.033 442.674 224.148C442.674 206.263 466.411 170.644 466.411 170.644Z" fill="white"/>
<path fill-rule="evenodd" clip-rule="evenodd" d="M561.883 316.928C567.941 317.863 576.842 319.732 579.917 330.689C582.993 341.646 576.047 348.247 576.047 348.247C576.047 348.247 555.816 315.993 561.883 316.928Z" fill="#DFA98B"/>
<path fill-rule="evenodd" clip-rule="evenodd" d="M459.437 235.675C465.047 252.363 499.731 345.162 505.565 358.774C511.399 372.386 522.132 378.229 537.193 374.34C552.254 370.451 586.612 358.774 577.534 335.766C568.456 312.758 545.747 311.122 537.193 314.684C534.098 303.671 513.344 235.217 508.482 217.763C503.621 200.308 479.313 182.106 467.347 186.977C455.38 191.847 449.583 206.609 459.437 235.675Z" fill="white"/>
<path fill-rule="evenodd" clip-rule="evenodd" d="M536.809 266.387L610.385 184.443C610.385 184.443 609.282 197.99 617.06 201.879C624.839 205.768 633.683 205.497 633.683 205.497L537.192 327.66L536.809 266.387Z" fill="white"/>
<path fill-rule="evenodd" clip-rule="evenodd" d="M608.245 187.089C614.452 179.609 618.239 173.224 628.99 173.224C639.741 173.224 685.458 173.542 692.358 173.579C699.257 173.617 696.284 178.011 691.282 179.525C686.281 181.04 664.731 185.724 656.196 188.874C647.66 192.025 638.124 199.775 633.534 205.703C628.943 211.63 595.577 202.299 608.245 187.089Z" fill="#DFA98B"/>
<path fill-rule="evenodd" clip-rule="evenodd" d="M673.285 55.2585C673.283 54.7361 673.074 54.2358 672.705 53.8664C672.335 53.497 671.835 53.2883 671.312 53.2859H652.876C652.623 53.2887 652.373 53.3414 652.141 53.4409C651.908 53.5403 651.697 53.6846 651.521 53.8655C651.335 54.0469 651.187 54.2636 651.086 54.5027C650.985 54.7419 650.932 54.9988 650.932 55.2585C650.933 55.518 650.986 55.7747 651.087 56.0137C651.188 56.2528 651.336 56.4695 651.521 56.6515C651.702 56.8369 651.919 56.9838 652.158 57.0834C652.397 57.183 652.654 57.2333 652.914 57.2312H671.35C671.872 57.2287 672.373 57.0201 672.742 56.6507C673.111 56.2813 673.32 55.7809 673.322 55.2585H673.285Z" fill="#24A865"/>
<path fill-rule="evenodd" clip-rule="evenodd" d="M638.236 173.224C636.745 173.226 635.278 172.845 633.978 172.116C632.677 171.388 631.586 170.336 630.809 169.064C630.032 167.791 629.596 166.34 629.543 164.85C629.489 163.36 629.82 161.881 630.504 160.556L652.858 117.074C654.174 114.511 654.86 111.672 654.858 108.791V56.4365H670.378V108.791C670.376 111.672 671.062 114.511 672.378 117.074C676.819 125.722 687.673 146.823 694.732 160.556C695.414 161.878 695.745 163.352 695.694 164.838C695.642 166.324 695.21 167.772 694.439 169.044C693.668 170.315 692.583 171.367 691.289 172.099C689.994 172.831 688.534 173.218 687.047 173.224H638.236Z" fill="#24A865"/>
<path d="M670.369 57.2312H654.859V61.0082H670.369V57.2312Z" fill="black"/>
<path d="M509.201 220.296L546.345 345.61" stroke="#24A865" stroke-width="1.67" stroke-linecap="round" stroke-linejoin="round"/>
<path d="M456.314 224.802C456.314 224.802 498.731 340.73 503.106 352.715C507.481 364.701 519.14 379.622 536.763 374.433" stroke="#24A865" stroke-width="1.67" stroke-linecap="round" stroke-linejoin="round"/>
<path fill-rule="evenodd" clip-rule="evenodd" d="M445.012 398.778V690.467L493.196 691.112C493.196 691.112 507.052 655.128 509.202 629.848C515.241 644.105 527.769 667.122 527.769 667.122C527.769 667.122 583.321 662.906 621.568 623.36C608.283 598.117 546.776 456.948 536.043 398.797L445.012 398.778Z" fill="#24A865"/>
<path d="M509.201 629.829L527.768 434.996" stroke="black" stroke-width="1.67" stroke-linecap="round" stroke-linejoin="round"/>
<path fill-rule="evenodd" clip-rule="evenodd" d="M533.341 119.159L503.49 118.869L488.747 171.289L446.012 171.822C446.012 171.822 445.535 141.634 445.489 128.629C445.377 100.582 468.207 86.3438 488.747 85.5024C504.743 84.848 522.188 88.9335 533.341 119.159Z" fill="#163BF3"/>
<path fill-rule="evenodd" clip-rule="evenodd" d="M486.979 122.225L480.687 136.838C480.687 136.838 475.554 124.684 479.565 121.795C480.656 120.988 481.995 120.589 483.35 120.667C484.705 120.746 485.989 121.297 486.979 122.225Z" fill="#DFA98B"/>
<path d="M258.546 807.675H167.094V812.181H258.546V807.675Z" fill="black"/>
<path d="M414.255 807.675H313.641V812.181H414.255V807.675Z" fill="black"/>
<path d="M521.887 807.675H424.994V812.181H521.887V807.675Z" fill="black"/>
<path fill-rule="evenodd" clip-rule="evenodd" d="M736.046 755.9L646.408 806.03L648.661 809.928L738.299 759.799L736.046 755.9Z" fill="black"/>
</g>
<defs>
<clipPath id="clip0_447:19870">
<rect width="860.09" height="818.52" fill="white"/>
</clipPath>
</defs>
</svg>
