<svg width="338" height="723" viewBox="0 0 338 723" fill="none" xmlns="http://www.w3.org/2000/svg">
<path fill-rule="evenodd" clip-rule="evenodd" d="M183.282 711.669C260.369 711.669 323.016 711.164 322.954 717.074C322.893 723.468 260.369 722.478 183.282 722.478C106.194 722.478 43.6191 723.149 43.6191 717.074C43.6191 710.999 106.236 711.669 183.282 711.669Z" fill="black"/>
<path fill-rule="evenodd" clip-rule="evenodd" d="M75.7575 292.455C80.2028 295.487 80.5432 303.45 80.5432 308.266C80.5432 313.083 83.0495 341.663 88.2993 344.365V272.219C88.2894 267.88 86.6599 263.702 83.7302 260.502C83.7302 260.502 71.3121 289.433 75.7575 292.455Z" fill="#5B3100"/>
<path fill-rule="evenodd" clip-rule="evenodd" d="M138.209 76.2414H90.2695C90.2695 76.2414 90.1148 0 152.226 0C214.337 0 206.457 76.2414 206.457 76.2414H138.209Z" fill="black"/>
<path fill-rule="evenodd" clip-rule="evenodd" d="M152.226 15.2854C158.252 15.2936 164.141 17.088 169.147 20.4419C174.154 23.7958 178.054 28.5587 180.354 34.1285C182.655 39.6984 183.253 45.8252 182.072 51.7346C180.891 57.6441 177.985 63.0709 173.721 67.3292C169.457 71.5875 164.026 74.4861 158.115 75.6588C152.204 76.8314 146.078 76.2255 140.512 73.9175C134.945 71.6094 130.187 67.703 126.84 62.6918C123.493 57.6806 121.707 51.7896 121.707 45.7634C121.709 41.7583 122.501 37.7929 124.036 34.0937C125.571 30.3944 127.82 27.0338 130.654 24.2037C133.488 21.3735 136.852 19.1293 140.553 17.5991C144.254 16.0689 148.221 15.2827 152.226 15.2854Z" fill="#5B3100"/>
<path fill-rule="evenodd" clip-rule="evenodd" d="M132.093 86.5451C134.321 86.1222 137.085 83.8944 137.085 80.9136V72.1982H167.378V81.0064C167.544 82.5781 168.306 84.0265 169.507 85.0545C170.707 86.0824 172.256 86.6121 173.834 86.5348C171.39 88.9792 163.52 97.478 152.226 97.478C148.223 97.4877 144.282 96.4916 140.764 94.5814C137.246 92.6711 134.265 89.9078 132.093 86.5451Z" fill="#5B3100"/>
<path fill-rule="evenodd" clip-rule="evenodd" d="M132.093 86.5452C127.473 87.1847 112.6 89.9798 106.494 91.5681C100.388 93.1565 88.2998 105.647 88.2998 129.153V252.416H211.945V126.78C211.945 107.338 208.696 96.2301 195.741 92.4964C183.034 88.8452 173.834 86.5452 173.834 86.5452C173.834 86.5452 136.704 85.9057 132.093 86.5452Z" fill="#FF341A"/>
<path fill-rule="evenodd" clip-rule="evenodd" d="M103.049 93.2597C89.7332 98.9221 12.4707 187.262 5.33335 198.607C-1.80397 209.953 -2.76317 226.455 8.58228 237.192C19.9277 247.929 41.2572 233.489 48.673 225.63C57.5224 216.347 79.0788 191.295 98.0773 169.336C106.659 159.435 122.831 137.878 132.114 125.749C138.797 117.034 137.498 104.554 132.114 97.4884C124.409 87.4219 117.158 87.2672 103.049 93.2597Z" fill="#FF341A"/>
<path fill-rule="evenodd" clip-rule="evenodd" d="M208.211 102.872C218.164 113.413 253.592 225.279 255.552 238.533C257.512 251.787 251.808 267.33 237.131 272.569C222.454 277.809 208.716 256.067 205.013 245.918C200.63 233.861 190.914 202.279 182.322 174.555C178.434 162.044 172.287 135.826 168.615 120.994C165.975 110.329 172.163 99.4171 179.96 95.1058C190.966 88.969 197.68 91.7332 208.211 102.872Z" fill="#FF341A"/>
<path fill-rule="evenodd" clip-rule="evenodd" d="M7.22093 235.862C14.9565 243.267 64.9796 285.183 72.6429 291.196C80.3063 297.21 84.0503 280.202 84.0503 270.868C84.0503 261.533 83.4211 247.63 77.8618 240.885C72.3026 234.139 48.6112 210.077 40.9375 202.393C33.2639 194.709 7.65412 189.541 2.23924 204.868C-1.6079 215.739 -0.483665 228.446 7.22093 235.862Z" fill="#FF341A"/>
<path fill-rule="evenodd" clip-rule="evenodd" d="M252.808 266.267C260.235 258.552 302.244 208.633 308.277 200.969C314.311 193.306 297.303 189.531 287.969 189.51C278.635 189.49 264.732 190.088 257.976 195.699C251.22 201.31 227.106 224.887 219.412 232.551C211.717 240.214 206.488 265.783 221.804 271.259C232.665 275.096 245.382 273.993 252.808 266.267Z" fill="#FF341A"/>
<path fill-rule="evenodd" clip-rule="evenodd" d="M275.922 189.335C277.449 180.269 278.48 168.119 279.171 162.962C279.862 157.805 284.483 157.599 284.999 163.096C285.422 166.83 286.241 170.509 287.443 174.07C287.443 174.07 299.325 151.616 303.296 144.056C307.267 136.496 312.31 139.797 309.856 146.903C307.174 154.638 301.089 171.739 301.089 171.739C301.089 171.739 314.497 151.111 316.818 146.985C319.138 142.86 325.244 144.015 322.047 150.265C318.849 156.516 309.587 175.669 309.587 175.669C309.587 175.669 323.419 160.095 327.41 155.567C331.402 151.039 336.951 153.339 332.309 159.806C327.668 166.273 316.271 181.744 316.271 181.744C316.271 181.744 329.524 172.337 333.103 169.563C336.682 166.788 340.406 170.687 334.95 175.638C329.493 180.589 309.072 201.65 303.739 206.209C293.353 215.079 273.581 203.733 275.922 189.335Z" fill="#5B3100"/>
<path d="M178.331 252.416H88.2998V605.641H178.331V252.416Z" fill="#60D399"/>
<path fill-rule="evenodd" clip-rule="evenodd" d="M127.679 383.765L178.341 605.641H280.151L211.944 292.455L211.996 252.416H127.679V383.765Z" fill="#60D399"/>
<path d="M178.341 605.641L127.679 383.765L105.06 302.408" stroke="black" stroke-width="1.67" stroke-linecap="round" stroke-linejoin="round"/>
<path fill-rule="evenodd" clip-rule="evenodd" d="M121.893 42.8859C121.893 42.8859 140.654 40.9262 161.911 16.8635C168.316 32.3346 177.217 38.3786 182.312 40.854C182.312 31.8086 177.475 9.91187 156.898 9.91187C136.322 9.91187 121.893 18.1012 121.893 42.8859Z" fill="black"/>
<path d="M158.053 37.7288L160.704 51.137H153.01" stroke="black" stroke-width="1.67" stroke-linecap="round" stroke-linejoin="round"/>
<path fill-rule="evenodd" clip-rule="evenodd" d="M149.008 37.7288C149.605 37.8208 150.144 38.1411 150.509 38.6221C150.875 39.1031 151.039 39.7073 150.968 40.3073C151.073 40.6176 151.102 40.9484 151.054 41.2723C151.005 41.5962 150.88 41.9039 150.689 42.1699C150.498 42.4359 150.247 42.6527 149.955 42.8022C149.664 42.9517 149.341 43.0297 149.013 43.0297C148.686 43.0297 148.363 42.9517 148.072 42.8022C147.78 42.6527 147.529 42.4359 147.338 42.1699C147.147 41.9039 147.022 41.5962 146.973 41.2723C146.925 40.9484 146.954 40.6176 147.059 40.3073C146.988 39.7088 147.151 39.106 147.514 38.6252C147.878 38.1445 148.413 37.8232 149.008 37.7288Z" fill="black"/>
<path fill-rule="evenodd" clip-rule="evenodd" d="M167.202 37.7288C167.797 37.8232 168.333 38.1445 168.696 38.6252C169.059 39.106 169.223 39.7088 169.151 40.3073C169.223 40.9057 169.059 41.5085 168.696 41.9893C168.333 42.4701 167.797 42.7914 167.202 42.8858C166.119 42.8858 165.252 41.7306 165.252 40.3073C165.252 38.8839 166.119 37.7288 167.202 37.7288Z" fill="black"/>
<path d="M149.008 58.9036C154.11 61.9565 158.531 61.9565 162.272 58.9036" stroke="black" stroke-width="1.67" stroke-linecap="round" stroke-linejoin="round"/>
<path d="M88.2998 180.64V128.977" stroke="black" stroke-width="1.67" stroke-linecap="round" stroke-linejoin="round"/>
<path d="M211.944 252.416V169.336" stroke="black" stroke-width="1.67" stroke-linecap="round" stroke-linejoin="round"/>
<path d="M246.661 206.477L220.495 231.457" stroke="black" stroke-width="1.67" stroke-linecap="round" stroke-linejoin="round"/>
<path d="M127.111 87.3599C129.668 91.7026 133.32 95.298 137.702 97.7868C142.084 100.276 147.042 101.57 152.082 101.542C157.153 101.552 162.143 100.263 166.575 97.7987C171.007 95.3342 174.735 91.776 177.403 87.463" stroke="black" stroke-width="1.67" stroke-linecap="round" stroke-linejoin="round"/>
<path d="M107.082 175.298H196.308" stroke="black" stroke-width="1.67" stroke-linecap="round" stroke-linejoin="round"/>
<path d="M88.2998 263.998H211.945" stroke="black" stroke-width="1.67" stroke-linecap="round" stroke-linejoin="round"/>
<path d="M287.443 174.07C287.443 174.07 292.807 187.478 291.352 195.327" stroke="black" stroke-width="1.67" stroke-linecap="round" stroke-linejoin="round"/>
<path d="M293.631 175.298L310.856 184.694" stroke="black" stroke-width="1.67" stroke-linecap="round" stroke-linejoin="round"/>
<path fill-rule="evenodd" clip-rule="evenodd" d="M112.259 605.641L117.437 676.457H149.184L156.249 605.641H112.259Z" fill="#5B3100"/>
<path fill-rule="evenodd" clip-rule="evenodd" d="M201.888 605.641L225.126 673.971L258.12 674.384L249.818 605.641H201.888Z" fill="#5B3100"/>
<path fill-rule="evenodd" clip-rule="evenodd" d="M117.447 676.457C117.447 676.457 101.677 697.003 91.92 701.149C82.1629 705.295 73.8704 711.319 76.3251 717.125H145.615C145.615 717.125 155.991 700.53 149.142 676.457H117.447Z" fill="#FF341A"/>
<path fill-rule="evenodd" clip-rule="evenodd" d="M225.126 673.971L258.131 674.384C258.131 674.384 264.144 688.7 269.744 691.815C275.345 694.93 302.667 707.585 303.152 717.125H235.357C235.357 717.125 224.775 709.658 224.981 702.809C225.188 695.961 228.653 685.585 225.126 673.971Z" fill="#FF341A"/>
</svg>
