<svg width="342" height="746" viewBox="0 0 342 746" fill="none" xmlns="http://www.w3.org/2000/svg">
<path fill-rule="evenodd" clip-rule="evenodd" d="M262.692 178.87C268.192 191.47 280.772 221.09 285.542 230.68C290.312 240.27 287.542 254.95 276.212 258.93C264.882 262.91 253.972 256.2 247.912 244C241.852 231.8 219.722 195.79 219.722 195.79C219.722 195.79 248.722 184.48 262.692 178.87Z" fill="#FFC7BF"/>
<path fill-rule="evenodd" clip-rule="evenodd" d="M294.501 146.09C289.781 156.4 266.211 207.09 260.311 219.47C254.411 231.85 244.491 248.73 259.511 257.19C274.531 265.65 285.131 254.35 286.721 247.52C288.311 240.69 312.471 160.24 312.471 160.24C312.471 160.24 299.211 135.78 294.501 146.09Z" fill="#FFC7BF"/>
<path fill-rule="evenodd" clip-rule="evenodd" d="M295.062 145.08C296.462 142.08 292.212 133.92 295.202 129.47C298.192 125.02 303.892 121.27 303.892 121.27C303.892 121.27 310.732 88.2699 312.472 80.1399C314.212 72.0099 319.952 75.4599 319.802 81.6499C319.652 87.8399 317.232 110.65 317.232 110.65C317.232 110.65 321.462 102.5 325.532 104.65C329.602 106.8 328.852 116.27 328.852 116.27C328.852 116.27 332.622 111.75 335.192 113.55C337.762 115.35 336.392 121.7 336.392 121.7C336.392 121.7 340.622 120.49 341.522 123.51C342.422 126.53 340.312 136.51 336.392 136.34C335.642 141.34 325.212 157.87 312.472 160.34C302.452 152.11 293.652 148 295.062 145.08Z" fill="#FFC7BF"/>
<path d="M303.892 121.27C306.392 119.4 315.892 114.65 317.892 116.27C319.892 117.89 312.172 129.79 309.892 131.57C312.722 133.81 319.842 139.34 322.892 144.16" stroke="#FF7968" stroke-width="1.67" stroke-linecap="round" stroke-linejoin="round"/>
<path d="M314.971 124.91C314.971 124.91 314.821 133.11 318.841 132.78C322.861 132.45 328.311 121.62 328.911 115.96" stroke="#FF7968" stroke-width="1.67" stroke-linecap="round" stroke-linejoin="round"/>
<path d="M325.421 125.8C325.421 125.8 324.791 133.8 327.891 134.43C330.991 135.06 336.391 121.63 336.391 121.63" stroke="#FF7968" stroke-width="1.67" stroke-linecap="round" stroke-linejoin="round"/>
<path d="M331.832 130.82C331.832 130.82 332.242 135.4 336.392 136.27" stroke="#FF7968" stroke-width="1.67" stroke-linecap="round" stroke-linejoin="round"/>
<path fill-rule="evenodd" clip-rule="evenodd" d="M72.2515 201.93C69.5215 215.41 63.6715 246.72 61.0415 257.09C58.4115 267.46 64.2415 281.23 76.1215 282.74C88.0015 284.25 97.2415 275.38 100.642 262.18C104.042 248.98 115.812 206.09 115.812 206.09C115.812 206.09 86.2915 203.16 72.2515 201.93Z" fill="#FFC7BF"/>
<path fill-rule="evenodd" clip-rule="evenodd" d="M66.2815 232.32C66.2815 232.32 82.5015 238.71 88.1115 240.97C93.7215 243.23 102.641 254.44 99.5915 265.62C96.5415 276.8 85.4215 286.21 73.1615 282.07C60.9015 277.93 58.2515 261.91 58.2515 261.91L66.2815 232.32Z" fill="#FFC7BF"/>
<path fill-rule="evenodd" clip-rule="evenodd" d="M67.7514 232.61C58.7514 230.36 44.2414 226.33 35.0914 230.25C25.9414 234.17 7.18144 250.1 2.97144 253.8C-1.23856 257.5 -0.528557 262.35 5.47144 260.15C-0.208557 262.62 -5.15856 274.6 10.6314 266.7C5.78144 271.31 3.17144 281.7 15.6314 274.75C18.605 272.937 21.7261 271.379 24.9614 270.09C24.9614 270.09 20.1114 275.48 22.6714 277.68C25.2314 279.88 31.2314 275.35 34.8014 272.75C38.3714 270.15 42.7214 267.5 49.9514 268.16C57.1814 268.82 66.9514 266.23 71.1314 257.35C75.3114 248.47 75.2514 234.49 67.7514 232.61Z" fill="#FFC7BF"/>
<path d="M33.1117 231.59C29.8117 234.34 21.3817 240.17 24.3817 243.21C27.3817 246.25 36.9517 242.33 41.3817 241.03C45.8117 239.73 61.1117 245.91 67.1917 239.92" stroke="#FF7968" stroke-width="1.67" stroke-linecap="round" stroke-linejoin="round"/>
<path d="M6.67139 259.85L32.8514 243.63" stroke="#FF7968" stroke-width="1.67" stroke-linecap="round" stroke-linejoin="round"/>
<path d="M10.9717 266.45L30.1917 255.35" stroke="#FF7968" stroke-width="1.67" stroke-linecap="round" stroke-linejoin="round"/>
<path d="M24.9111 270.09L37.7611 262.34" stroke="#FF7968" stroke-width="1.67" stroke-linecap="round" stroke-linejoin="round"/>
<path d="M66.3013 232.24L88.1113 241.27" stroke="#FF7968" stroke-width="1.67" stroke-linecap="round" stroke-linejoin="round"/>
<path d="M59.6914 267.07C62.0417 266.179 64.2642 264.982 66.3014 263.51" stroke="#FF7968" stroke-width="1.67" stroke-linecap="round" stroke-linejoin="round"/>
<path fill-rule="evenodd" clip-rule="evenodd" d="M177.232 734.74C263.672 734.74 333.922 734.25 333.852 739.98C333.772 746.18 263.672 745.22 177.232 745.22C90.7915 745.22 20.6016 745.87 20.6016 740C20.6016 734.13 90.7915 734.74 177.232 734.74Z" fill="black"/>
<path fill-rule="evenodd" clip-rule="evenodd" d="M154.971 113.12C145.431 115.22 122.061 122.23 115.461 124.67C108.861 127.11 99.6214 143.53 103.771 169.37C107.921 195.21 117.831 278.52 117.831 278.52H243.971C243.971 278.52 234.761 183.21 232.451 162.52C230.141 141.83 229.201 116.6 213.971 114.92C199.401 113.32 174.971 113.12 174.971 113.12C174.971 113.12 163.621 113 154.971 113.12Z" fill="#FEDD8E"/>
<path fill-rule="evenodd" clip-rule="evenodd" d="M154.972 113.12C154.972 113.12 128.232 150.39 140.162 152.6C152.092 154.81 164.972 112.88 164.972 112.88L154.972 113.12Z" fill="#935000"/>
<path fill-rule="evenodd" clip-rule="evenodd" d="M174.972 113.12C174.972 113.12 201.712 150.39 189.782 152.6C177.852 154.81 164.972 112.88 164.972 112.88L174.972 113.12Z" fill="#935000"/>
<path fill-rule="evenodd" clip-rule="evenodd" d="M114.341 125.19C104.451 128.79 83.3415 138.98 78.1415 168.92C72.9415 198.86 72.2515 201.92 72.2515 201.92L108.711 205.23C108.711 205.23 114.211 180.7 117.281 169.62C120.351 158.54 134.741 117.76 114.341 125.19Z" fill="#FEDD8E"/>
<path fill-rule="evenodd" clip-rule="evenodd" d="M211.971 114.72C223.671 114.72 238.341 120.03 247.971 144.17C257.601 168.31 262.691 178.87 262.691 178.87L227.411 192.87L213.841 152.72C210.691 143.37 195.811 114.72 211.971 114.72Z" fill="#FEDD8E"/>
<path fill-rule="evenodd" clip-rule="evenodd" d="M117.761 278.27C117.761 278.27 120.121 325.65 119.391 335.27C118.661 344.89 108.101 408.94 102.691 441.35C97.2814 473.76 79.2314 596.76 79.2314 596.76H285.141L243.971 278.52L117.761 278.27Z" fill="#014A82"/>
<path fill-rule="evenodd" clip-rule="evenodd" d="M102.692 596.76L90.6016 709.7H122.662L149.542 596.76H102.692Z" fill="#FFC7BF"/>
<path fill-rule="evenodd" clip-rule="evenodd" d="M250.912 709.7L223.562 596.76H272.362L285.142 709.7H250.912Z" fill="#FFC7BF"/>
<path fill-rule="evenodd" clip-rule="evenodd" d="M90.6014 709.7C87.9714 713 65.1714 728.53 56.5714 731.55C47.9714 734.57 41.0314 735.32 41.6414 740H125.221C125.221 740 127.051 717.57 122.661 709.7C114.971 709.7 96.4214 709.58 90.6014 709.7Z" fill="#014A82"/>
<path fill-rule="evenodd" clip-rule="evenodd" d="M250.911 709.7C251.671 713.7 240.661 735.23 245.791 740H298.901C305.261 733.63 301.011 730.08 295.731 724.82C290.451 719.56 286.181 718.28 285.141 709.64C275.811 709.46 259.351 709.49 250.911 709.7Z" fill="#014A82"/>
<path d="M164.941 112.88V278.36" stroke="#014A82" stroke-width="1.67" stroke-linecap="round" stroke-linejoin="round"/>
<path d="M136.412 216.25L207.722 215.36" stroke="#014A82" stroke-width="1.67" stroke-linecap="round" stroke-linejoin="round"/>
<path d="M136.412 310.25L197.702 334.12" stroke="black" stroke-width="1.67" stroke-linecap="round" stroke-linejoin="round"/>
<path d="M214.111 305.89L173.321 324.62" stroke="black" stroke-width="1.67" stroke-linecap="round" stroke-linejoin="round"/>
<path d="M80.7715 586.29H283.791" stroke="black" stroke-width="1.67" stroke-linecap="round" stroke-linejoin="round"/>
<path d="M76.8512 724C76.8512 724 53.3512 706.45 60.1113 701.3C66.8713 696.15 79.2313 723.19 79.2313 723.19V708.19" stroke="black" stroke-width="1.67" stroke-linecap="round" stroke-linejoin="round"/>
<path d="M270.682 719.32C270.682 719.32 257.602 691.96 263.682 691.96C269.762 691.96 273.732 719.32 273.732 719.32L278.732 704.84" stroke="black" stroke-width="1.67" stroke-linecap="round" stroke-linejoin="round"/>
<path d="M108.711 205.24L104.591 172.93" stroke="#014A82" stroke-width="1.67" stroke-linecap="round" stroke-linejoin="round"/>
<path d="M235.251 189.73L232.741 164.35" stroke="#014A82" stroke-width="1.67" stroke-linecap="round" stroke-linejoin="round"/>
<path d="M270.151 198.53L256.611 227.15" stroke="#FF7968" stroke-width="1.67" stroke-linecap="round" stroke-linejoin="round"/>
<path fill-rule="evenodd" clip-rule="evenodd" d="M163.091 46C169.725 46 176.21 47.9673 181.726 51.6532C187.242 55.3391 191.541 60.5779 194.079 66.7071C196.617 72.8363 197.281 79.5806 195.986 86.087C194.691 92.5934 191.496 98.5696 186.804 103.26C182.112 107.95 176.135 111.144 169.628 112.437C163.122 113.73 156.378 113.064 150.249 110.524C144.121 107.984 138.883 103.683 135.199 98.1665C131.515 92.6496 129.549 86.164 129.551 79.53C129.559 70.638 133.096 62.1126 139.384 55.826C145.673 49.5393 154.199 46.0053 163.091 46Z" fill="#FFC7BF"/>
<path d="M164.601 75.8599L166.881 85.4499H160.801L166.321 91.8399C166.321 91.8399 161.111 96.7199 154.381 92.0499" stroke="#FF7968" stroke-width="1.67" stroke-linecap="round" stroke-linejoin="round"/>
<path d="M153.191 78.8001C153.849 78.8001 154.381 78.1375 154.381 77.3201C154.381 76.5027 153.849 75.8401 153.191 75.8401C152.534 75.8401 152.001 76.5027 152.001 77.3201C152.001 78.1375 152.534 78.8001 153.191 78.8001Z" fill="black"/>
<path fill-rule="evenodd" clip-rule="evenodd" d="M173.421 75.84C173.729 75.7695 174.05 75.7963 174.342 75.9167C174.633 76.0371 174.88 76.2451 175.048 76.512C175.216 76.7789 175.296 77.0913 175.279 77.4062C175.261 77.721 175.146 78.0226 174.95 78.2691C174.753 78.5156 174.485 78.6949 174.182 78.7822C173.879 78.8694 173.556 78.8603 173.259 78.756C172.961 78.6517 172.703 78.4575 172.521 78.2002C172.339 77.9429 172.241 77.6353 172.241 77.32C172.207 76.9684 172.311 76.6173 172.531 76.3411C172.752 76.0648 173.071 75.8851 173.421 75.84Z" fill="black"/>
<path fill-rule="evenodd" clip-rule="evenodd" d="M130.141 71.5699C130.141 71.5699 128.141 67.3499 124.291 68.9799C120.441 70.6099 125.901 82.3199 129.751 83.0899C133.601 83.8599 130.141 71.5699 130.141 71.5699Z" fill="#FFC7BF"/>
<path fill-rule="evenodd" clip-rule="evenodd" d="M195.391 71.5499C195.391 71.5499 197.391 67.3299 201.241 68.9599C205.091 70.5899 199.641 82.2999 195.791 83.0699C191.941 83.8399 195.391 71.5499 195.391 71.5499Z" fill="#FFC7BF"/>
<path fill-rule="evenodd" clip-rule="evenodd" d="M133.621 63.57H192.561C192.561 63.57 182.881 43.78 163.091 43.78C143.301 43.78 133.621 63.57 133.621 63.57Z" fill="black"/>
<path fill-rule="evenodd" clip-rule="evenodd" d="M163.091 0C173.501 0 181.971 9.37 181.971 20.91C181.971 32.45 173.521 41.82 163.111 41.82C152.701 41.82 144.261 32.45 144.261 20.91C144.261 9.37 152.691 0 163.091 0Z" fill="black"/>
<path d="M171.671 39.46H154.381V45.19H171.671V39.46Z" fill="#C98600"/>
</svg>
