<svg width="447" height="741" viewBox="0 0 447 741" fill="none" xmlns="http://www.w3.org/2000/svg">
<g clip-path="url(#clip0_447:19690)">
<path fill-rule="evenodd" clip-rule="evenodd" d="M260.525 729.767C350.886 729.767 424.319 729.234 424.244 735.357C424.159 741.96 350.886 740.947 260.525 740.947C170.164 740.947 96.8164 741.64 96.8164 735.357C96.8164 729.074 170.175 729.767 260.525 729.767Z" fill="#163BF3"/>
<path fill-rule="evenodd" clip-rule="evenodd" d="M269.059 116.424C269.059 116.424 203.009 117.629 179.572 117.629C156.134 117.629 127.285 135.071 114.075 160.299C100.865 185.527 19.1016 336.631 5.89155 358.883C-7.31849 381.135 0.479696 428.072 41.9422 428.072H118.848L100.226 571.868H411.461L406.049 505.091H446.904C446.904 505.091 448.715 276.467 436.091 222.949C423.467 169.43 422.508 134.911 339.956 118.259C316.786 113.554 269.059 116.424 269.059 116.424Z" fill="white"/>
<path fill-rule="evenodd" clip-rule="evenodd" d="M264.99 0C287.883 0 306.473 24.1403 306.473 53.8703C306.473 83.6004 287.883 107.741 264.99 107.741C242.096 107.741 223.506 83.5897 223.506 53.8703C223.506 24.151 242.096 0 264.99 0Z" fill="#FFC7BF"/>
<path fill-rule="evenodd" clip-rule="evenodd" d="M223.718 48.7819C223.718 48.7819 214.386 36.4931 207.962 41.6881C201.538 46.8831 212.798 68.9433 225.486 70.4047C238.175 71.8662 223.718 48.7819 223.718 48.7819Z" fill="#FFC7BF"/>
<path fill-rule="evenodd" clip-rule="evenodd" d="M304.991 48.7819C304.991 48.7819 314.324 36.4931 320.748 41.6881C327.171 46.8831 315.868 68.9433 303.191 70.4047C290.514 71.8662 304.991 48.7819 304.991 48.7819Z" fill="#FFC7BF"/>
<path fill-rule="evenodd" clip-rule="evenodd" d="M245.377 101.34V116.829C245.377 116.829 249.564 125.065 264.99 125.065C280.416 125.065 283.974 115.549 283.974 115.549L284.197 101.607L245.377 101.34Z" fill="#FFC7BF"/>
<path fill-rule="evenodd" clip-rule="evenodd" d="M234.958 16.7158C234.958 16.7158 228.694 61.0922 223.858 60.9215C222.654 47.0219 222.078 25.2177 234.958 16.7158Z" fill="white"/>
<path fill-rule="evenodd" clip-rule="evenodd" d="M294.775 16.7158C294.775 16.7158 301.039 61.0922 305.876 60.9215C307.112 47.0219 307.644 25.2177 294.775 16.7158Z" fill="white"/>
<path d="M264.786 46.8513L258.395 70.1383H267.61L262.017 78.6722C262.017 78.6722 272.105 80.1016 275.951 72.5277" stroke="#CF1D00" stroke-width="1.67" stroke-linecap="round" stroke-linejoin="round"/>
<path fill-rule="evenodd" clip-rule="evenodd" d="M248.008 49.4861C249.468 49.4861 250.65 51.0542 250.65 52.9957C250.65 54.9371 249.468 56.5372 248.008 56.5372C246.549 56.5372 245.377 54.9585 245.377 53.017C245.377 51.0755 246.559 49.4861 248.008 49.4861Z" fill="black"/>
<path fill-rule="evenodd" clip-rule="evenodd" d="M280.053 49.4861C281.502 49.4861 282.685 51.0542 282.685 52.9957C282.685 54.9371 281.502 56.5159 280.053 56.5159C278.604 56.5159 277.422 54.9371 277.422 52.9957C277.422 51.0542 278.604 49.4861 280.053 49.4861Z" fill="black"/>
<path d="M240.891 116.499L238.047 166.902L267.216 124.99L299.165 167.083L290.269 115.912" stroke="#CF1D00" stroke-width="1.67" stroke-linecap="round" stroke-linejoin="round"/>
<path d="M303.98 223.61H352.08" stroke="#CF1D00" stroke-width="1.67" stroke-linecap="round" stroke-linejoin="round"/>
<path d="M324.818 221.477V290.569" stroke="black" stroke-width="1.67" stroke-linecap="round" stroke-linejoin="round"/>
<path d="M267.215 124.99L268.6 571.868" stroke="#CF1D00" stroke-width="1.67" stroke-linecap="round" stroke-linejoin="round"/>
<path d="M386.234 207.204L406.049 505.091" stroke="#CF1D00" stroke-width="1.67" stroke-linecap="round" stroke-linejoin="round"/>
<path d="M320.577 409.82H382.451V497.101C382.451 521.284 363.755 527.044 354.55 527.044C345.346 527.044 319.746 522.148 319.746 493.356C319.746 464.565 320.577 409.82 320.577 409.82Z" stroke="#CF1D00" stroke-width="1.67" stroke-linecap="round" stroke-linejoin="round"/>
<path d="M144.885 409.82H206.674V497.101C206.674 521.284 187.977 527.044 178.773 527.044C169.569 527.044 143.969 522.148 143.969 493.356C143.969 464.565 144.885 409.82 144.885 409.82Z" stroke="#CF1D00" stroke-width="1.67" stroke-linecap="round" stroke-linejoin="round"/>
<path fill-rule="evenodd" clip-rule="evenodd" d="M323.252 227.216C326.063 227.216 328.811 228.05 331.148 229.614C333.485 231.177 335.306 233.4 336.382 236C337.458 238.6 337.739 241.462 337.191 244.222C336.642 246.982 335.289 249.518 333.301 251.508C331.314 253.498 328.782 254.854 326.025 255.403C323.268 255.952 320.411 255.67 317.814 254.593C315.217 253.516 312.998 251.692 311.436 249.352C309.875 247.012 309.041 244.26 309.041 241.446C309.041 237.672 310.538 234.052 313.203 231.384C315.869 228.715 319.483 227.216 323.252 227.216Z" fill="#4FB3F6"/>
<path fill-rule="evenodd" clip-rule="evenodd" d="M323.252 266.568C326.063 266.568 328.811 267.402 331.148 268.966C333.485 270.53 335.306 272.752 336.382 275.352C337.458 277.952 337.739 280.814 337.191 283.574C336.642 286.335 335.289 288.87 333.301 290.86C331.314 292.85 328.782 294.206 326.025 294.755C323.268 295.304 320.411 295.022 317.814 293.945C315.217 292.868 312.998 291.044 311.436 288.704C309.875 286.364 309.041 283.612 309.041 280.798C309.041 277.024 310.538 273.404 313.203 270.736C315.869 268.067 319.483 266.568 323.252 266.568Z" fill="#4FB3F6"/>
<path fill-rule="evenodd" clip-rule="evenodd" d="M107.779 204.825V356.888H223.506L206.684 307.434H229.578V295.146H154.1V307.125H175.332V314.187H143.979V204.942L107.779 204.825Z" fill="black"/>
<path fill-rule="evenodd" clip-rule="evenodd" d="M118.731 356.888C118.731 356.888 114.736 372.634 114.736 382.874C114.736 393.115 120.223 429.309 131.696 429.309C143.17 429.309 151.149 396.614 151.149 383.877C151.149 371.14 145.663 356.888 145.663 356.888H118.731Z" fill="#CF1D00"/>
<path fill-rule="evenodd" clip-rule="evenodd" d="M114.991 377.839H135.435C143.169 377.839 153.641 381.626 165.36 377.381C177.078 373.135 185.526 370.745 192.376 367.673C199.226 364.601 206.875 356.888 201.868 356.888H118.773C118.773 356.888 114.927 373.167 114.991 377.839Z" fill="#FFC7BF"/>
<path fill-rule="evenodd" clip-rule="evenodd" d="M168.673 185.495L136.361 194.381L158.137 265.117L193.196 265.159L168.673 185.495Z" fill="black"/>
<path fill-rule="evenodd" clip-rule="evenodd" d="M152.693 173.804C156.01 173.802 159.253 174.785 162.012 176.628C164.771 178.472 166.922 181.094 168.193 184.162C169.463 187.229 169.797 190.606 169.151 193.864C168.505 197.121 166.909 200.114 164.564 202.463C162.22 204.813 159.232 206.413 155.979 207.062C152.726 207.71 149.354 207.378 146.289 206.108C143.225 204.837 140.605 202.685 138.762 199.924C136.919 197.162 135.936 193.916 135.936 190.594C135.936 186.143 137.701 181.874 140.843 178.726C143.985 175.577 148.248 173.807 152.693 173.804Z" fill="#60D399"/>
<path fill-rule="evenodd" clip-rule="evenodd" d="M168.674 571.868L178.102 708.763H218.787V571.868H168.674Z" fill="#163BF3"/>
<path fill-rule="evenodd" clip-rule="evenodd" d="M354.477 571.868L345.06 708.763H304.375V571.868H354.477Z" fill="#163BF3"/>
<path fill-rule="evenodd" clip-rule="evenodd" d="M178.101 708.763C173.69 714.246 151.681 725.148 144.202 727.42C136.724 729.692 132.398 732.423 135.349 735.368H218.786V708.763C218.786 708.763 189.532 708.048 178.101 708.763Z" fill="black"/>
<path fill-rule="evenodd" clip-rule="evenodd" d="M345.06 708.763C349.47 714.246 371.469 725.148 378.958 727.42C386.448 729.692 390.752 732.423 387.811 735.368H304.375V708.763C304.375 708.763 333.629 708.048 345.06 708.763Z" fill="black"/>
<path fill-rule="evenodd" clip-rule="evenodd" d="M107.779 356.888V292.34L172.242 356.888H107.779Z" fill="#163BF3"/>
</g>
<defs>
<clipPath id="clip0_447:19690">
<rect width="447" height="741" fill="white"/>
</clipPath>
</defs>
</svg>
