<svg width="421" height="745" viewBox="0 0 421 745" fill="none" xmlns="http://www.w3.org/2000/svg">
<g clip-path="url(#clip0_447:19721)">
<path fill-rule="evenodd" clip-rule="evenodd" d="M278.453 735.242C357.134 735.242 421.074 734.788 421 740.098C420.935 745.843 357.134 744.954 278.453 744.954C199.772 744.954 135.896 745.556 135.896 740.098C135.896 734.64 199.772 735.242 278.453 735.242Z" fill="#163BF3"/>
<path fill-rule="evenodd" clip-rule="evenodd" d="M254.668 140.856C244.882 140.856 209.085 154.849 209.085 180.491V258.036C209.085 258.036 204.447 250.455 194.493 252.985C184.54 255.515 174.652 266.394 178.353 278.831C182.054 291.267 194.299 320.031 201.107 334.015C207.916 347.998 216.877 349.175 220.374 348.981V495.351H331.827V458.422H349.536V227.27C349.536 201.841 345.519 179.24 337.931 166.433C330.343 153.626 302.635 141.31 283.851 141.31C265.067 141.31 264.464 140.856 254.668 140.856Z" fill="#FBBE2E"/>
<path d="M209.086 258.073C209.086 258.073 213.418 264.439 214.995 268.127C216.572 271.816 220.375 282.333 220.375 282.333" stroke="black" stroke-width="1.67" stroke-linecap="round" stroke-linejoin="round"/>
<path d="M220.375 349.018V209.097" stroke="black" stroke-width="1.67" stroke-linecap="round" stroke-linejoin="round"/>
<path d="M331.828 202.259V458.422" stroke="black" stroke-width="1.67" stroke-linecap="round" stroke-linejoin="round"/>
<path fill-rule="evenodd" clip-rule="evenodd" d="M179.541 169.176H0L102.112 254.023H281.653L179.541 169.176Z" fill="#163BF3"/>
<path fill-rule="evenodd" clip-rule="evenodd" d="M102.112 169.176H77.4375L179.541 254.023H204.215L102.112 169.176Z" fill="#133191"/>
<path d="M179.541 164.181H0V169.176H179.541V164.181Z" fill="#163BF3"/>
<path fill-rule="evenodd" clip-rule="evenodd" d="M244.075 97.6912C244.075 97.6912 241.293 108.432 224.373 108.432C207.453 108.432 217.648 90.5558 210.755 83.3461C203.863 76.1365 191.387 68.7508 191.387 59.2523C191.387 49.7538 208.455 43.4986 213.872 33.6758C219.29 23.8529 224.735 2.02017 241.051 0.213137C257.368 -1.5939 264.418 8.55331 270.986 8.55331C277.553 8.55331 294.788 0.0463331 303.49 7.41349C312.191 14.7806 310.91 21.3601 317.404 26.114C323.897 30.8679 342.839 34.4542 344.481 55.1378C346.123 75.8214 329.055 76.2848 325.437 83.1701C321.819 90.0554 316.671 112.666 293.805 99.0627C276.57 99.072 244.075 97.6912 244.075 97.6912Z" fill="black"/>
<path fill-rule="evenodd" clip-rule="evenodd" d="M281.653 249.019L179.541 164.181V169.176L281.653 254.023V249.019Z" fill="#163BF3"/>
<path fill-rule="evenodd" clip-rule="evenodd" d="M279.047 231.273L179.541 148.603V164.181L279.047 246.86V231.273Z" fill="#FFE8E5"/>
<path fill-rule="evenodd" clip-rule="evenodd" d="M97.1504 164.181C97.1504 154.061 106.705 133.934 126.677 133.934C146.648 133.934 158.41 148.603 179.551 148.603V164.181C179.551 164.181 108.44 163.884 97.1504 164.181Z" fill="#FFC7BF"/>
<path fill-rule="evenodd" clip-rule="evenodd" d="M97.1499 164.181C97.1499 154.061 87.5955 133.934 67.6145 133.934C47.6336 133.934 35.8807 148.603 14.7402 148.603V164.181C14.7402 164.181 85.8515 163.884 97.1499 164.181Z" fill="#FFC7BF"/>
<path fill-rule="evenodd" clip-rule="evenodd" d="M146.565 254.023C139.71 247.342 130.405 236.592 128.513 234.313C126.621 232.033 128.114 229.132 130.999 231.273C133.884 233.414 143.401 242.643 143.401 242.643C143.401 242.643 134.765 228.66 132.984 225.036C131.203 221.413 133.383 219.773 136.76 223.248C140.136 226.723 154.82 241.689 154.82 241.689C154.82 241.689 145.989 225.935 143.995 221.96C142.001 217.984 144.394 215.714 148.763 219.977C153.132 224.239 171.202 242.087 171.202 242.087C171.202 242.087 164.653 229.494 163.262 226.723C161.87 223.952 162.334 219.578 167.9 225.129C173.466 230.68 190.534 248.194 198.771 254.069C207.008 259.945 208.975 274.021 199.56 274.911C190.144 275.8 158.698 265.801 146.565 254.023Z" fill="#DFA98B"/>
<path d="M269.176 124.157C284.709 124.157 297.302 102.55 297.302 75.8956C297.302 49.2413 284.709 27.6338 269.176 27.6338C253.643 27.6338 241.051 49.2413 241.051 75.8956C241.051 102.55 253.643 124.157 269.176 124.157Z" fill="#DFA98B"/>
<path fill-rule="evenodd" clip-rule="evenodd" d="M241.646 65.9707C240.412 63.2741 238.408 60.8276 235.245 60.8276C232.082 60.8276 232.536 66.5638 234.791 71.2714C237.045 75.979 241.117 78.8702 243.25 77.4616C245.384 76.0531 242.879 68.6767 241.646 65.9707Z" fill="#DFA98B"/>
<path fill-rule="evenodd" clip-rule="evenodd" d="M296.281 65.9707C297.515 63.2741 299.518 60.8276 302.682 60.8276C305.845 60.8276 305.39 66.5638 303.127 71.2714C300.864 75.979 296.81 78.8702 294.676 77.4616C292.543 76.0531 295.038 68.6767 296.281 65.9707Z" fill="#DFA98B"/>
<path fill-rule="evenodd" clip-rule="evenodd" d="M251.32 38.6243C257.035 43.165 271.413 52.7192 293.842 52.7192C316.272 52.7192 270.986 23.5193 270.986 23.5193C270.986 23.5193 245.606 34.0742 251.32 38.6243Z" fill="black"/>
<path d="M241.709 65.4426H249.065" stroke="black" stroke-width="1.67" stroke-linecap="round" stroke-linejoin="round"/>
<path d="M264.539 65.4426H271.886" stroke="black" stroke-width="1.67" stroke-linecap="round" stroke-linejoin="round"/>
<path d="M288.768 65.4426H296.124" stroke="black" stroke-width="1.67" stroke-linecap="round" stroke-linejoin="round"/>
<path d="M255.958 81.0849C260.692 81.0849 264.529 75.5212 264.529 68.6581C264.529 61.7949 260.692 56.2312 255.958 56.2312C251.224 56.2312 247.387 61.7949 247.387 68.6581C247.387 75.5212 251.224 81.0849 255.958 81.0849Z" fill="white"/>
<path d="M280.048 81.0849C284.781 81.0849 288.619 75.5212 288.619 68.6581C288.619 61.7949 284.781 56.2312 280.048 56.2312C275.314 56.2312 271.477 61.7949 271.477 68.6581C271.477 75.5212 275.314 81.0849 280.048 81.0849Z" fill="white"/>
<path d="M269.177 65.4426C269.177 65.4426 267.322 82.9941 264.539 88.6098H271.477L262.684 96.848C262.684 96.848 267.702 103.743 274.873 97.0334" stroke="black" stroke-width="1.67" stroke-linecap="round" stroke-linejoin="round"/>
<path d="M283.795 117.254H254.668V136.779H283.795V117.254Z" fill="#DFA98B"/>
<path fill-rule="evenodd" clip-rule="evenodd" d="M283.851 130.895H254.668V140.291C254.764 144.087 256.341 147.696 259.062 150.347C261.784 152.998 265.435 154.482 269.236 154.482C273.038 154.482 276.688 152.998 279.41 150.347C282.132 147.696 283.709 144.087 283.804 140.291L283.851 130.895Z" fill="white"/>
<path fill-rule="evenodd" clip-rule="evenodd" d="M224.066 495.351V631.639H333.748L331.837 495.351H224.066Z" fill="#FEDD8E"/>
<path fill-rule="evenodd" clip-rule="evenodd" d="M331.828 458.422V474.269C332.754 475.484 334.046 476.37 335.514 476.797C336.981 477.224 338.548 477.169 339.982 476.641C345.037 474.741 346.475 458.422 346.475 458.422H331.828Z" fill="#DFA98B"/>
<path fill-rule="evenodd" clip-rule="evenodd" d="M231.07 631.638V718.979H254.799L276.412 631.638H231.07Z" fill="#DFA98B"/>
<path fill-rule="evenodd" clip-rule="evenodd" d="M333.747 718.979V631.638H293.795L310.399 718.979H333.747Z" fill="#DFA98B"/>
<path fill-rule="evenodd" clip-rule="evenodd" d="M231.069 718.979C230.68 721.379 216.784 735.131 217.999 740.116H261.17L254.798 718.979C254.798 718.979 236.848 718.339 231.069 718.979Z" fill="#6D83F3"/>
<path fill-rule="evenodd" clip-rule="evenodd" d="M310.4 718.979C308.795 722.454 302.451 733.101 305.827 740.116H369.499C374.091 740.116 368.961 734.454 363.432 733.101C357.904 731.748 339.954 725.984 333.748 718.691C325.112 718.691 315.391 719.108 310.4 718.979Z" fill="#6D83F3"/>
</g>
<defs>
<clipPath id="clip0_447:19721">
<rect width="421" height="745" fill="white"/>
</clipPath>
</defs>
</svg>
