<svg width="340" height="735" viewBox="0 0 340 735" fill="none" xmlns="http://www.w3.org/2000/svg">
<path fill-rule="evenodd" clip-rule="evenodd" d="M156.62 723.76C243.07 723.76 313.32 723.27 313.25 729.01C313.18 735.2 243.07 734.25 156.62 734.25C70.17 734.25 0 734.89 0 729C0 723.11 70.18 723.76 156.62 723.76Z" fill="black"/>
<path fill-rule="evenodd" clip-rule="evenodd" d="M141.59 374.2C125.17 433.35 58.6499 675.32 58.6499 675.32L114.11 675.16C114.11 675.16 228.08 437 237.58 417.7C247.08 398.4 246.06 355.62 207.05 336.97C168.04 318.32 150 344.07 141.59 374.2Z" fill="#935000"/>
<path fill-rule="evenodd" clip-rule="evenodd" d="M178.62 368.48L228.52 675.17L289.8 675.63V377.23C289.8 346.69 249.39 301.88 203.31 319.54C188.54 325.2 173.6 346.58 178.62 368.48Z" fill="#C98600"/>
<path fill-rule="evenodd" clip-rule="evenodd" d="M242.57 675.63L246.78 707.94H270.15L270.7 675.63H242.57Z" fill="#5B3100"/>
<path fill-rule="evenodd" clip-rule="evenodd" d="M102.28 675.16L88.92 707.94H59.5L73.87 675.16H102.28Z" fill="#5B3100"/>
<path fill-rule="evenodd" clip-rule="evenodd" d="M59.4999 707.94C59.4999 707.94 30.7699 719.45 24.7999 720.82C18.8299 722.19 13.6199 725.42 16.4699 729.02H82.7399C82.7399 729.02 91.8799 716.07 88.9199 707.94H59.4999Z" fill="#0089E3"/>
<path fill-rule="evenodd" clip-rule="evenodd" d="M246.77 707.94C246.77 707.94 241.3 714.84 236.83 718.48C232.36 722.12 229.25 726.1 229.83 729.02H277.57C277.57 729.02 281.67 726.35 280.05 723.12C278.43 719.89 270.36 711.53 270.11 707.94H246.77Z" fill="#0089E3"/>
<path d="M61.4502 667.29H117.87" stroke="black" stroke-width="1.67" stroke-linecap="round" stroke-linejoin="round"/>
<path d="M227.74 667.29H289.8" stroke="black" stroke-width="1.67" stroke-linecap="round" stroke-linejoin="round"/>
<path d="M266.85 375.58V667.29" stroke="black" stroke-width="1.67" stroke-linecap="round" stroke-linejoin="round"/>
<path fill-rule="evenodd" clip-rule="evenodd" d="M188.75 88C182.75 93.34 165.27 107.55 153.39 113.84C141.51 120.13 132.9 140.4 132.9 165.79V373.2C132.9 373.2 177.82 382.46 206.42 348.34C222.77 380.14 280.08 377.16 296.3 377.16V169.79C296.3 149.59 300.97 110.53 280.62 95.95C260.27 81.37 254.17 76.51 254.17 76.51C254.17 76.51 194.76 82.66 188.75 88Z" fill="#4FB3F6"/>
<path fill-rule="evenodd" clip-rule="evenodd" d="M238.2 174.87C238.2 174.87 239.1 165.87 242.57 161.75C245.049 164.39 247.189 167.33 248.94 170.5C248.94 170.5 253.32 157.5 256.63 152.07C260.21 157.24 264.63 167.58 264.63 174.87H238.2Z" fill="#FBBE2E"/>
<path fill-rule="evenodd" clip-rule="evenodd" d="M190.28 87.24L207.07 153.99L233.53 91.79L208.1 78.27L190.28 87.24Z" fill="#ACE4FF"/>
<path fill-rule="evenodd" clip-rule="evenodd" d="M196.11 69.7901L188.75 88.0001L208.1 78.2601L223.16 92.6601C223.16 92.6601 240.48 95.6601 254.16 76.5001C248.04 65.1401 245.16 59.0801 245.16 59.0801L196.11 69.7901Z" fill="#DEF4FF"/>
<path fill-rule="evenodd" clip-rule="evenodd" d="M226.77 1.57007C214.49 1.57007 200.12 8.24007 195.95 15.3201C191.78 22.4001 191.79 31.0001 190.33 34.7001C188.87 38.4001 184.5 55.0901 191.17 64.0501C197.84 73.0101 209.91 83.2001 222.82 79.4601C235.73 75.7201 246.56 64.4601 250.52 39.8901C254.48 15.3201 243.43 1.57007 226.77 1.57007Z" fill="#5B3100"/>
<path fill-rule="evenodd" clip-rule="evenodd" d="M195.79 15.61H221.46V38.67H225.46C225.46 38.67 229.16 29.85 235.13 29.85C241.1 29.85 240.87 36.3 239.82 40.91C238.82 45.24 234.77 53.71 242.13 64.45C249.92 52.6 252.9 36.25 252.9 27.15C252.9 18.05 246.63 0 227.15 0C207.67 0 195.79 15.61 195.79 15.61Z" fill="black"/>
<path d="M192.08 26.49H195C196.36 26.49 198.27 27.57 197.27 32.23C196.27 36.89 190.05 48 190.05 48H199.51" stroke="black" stroke-width="1.67" stroke-linecap="round" stroke-linejoin="round"/>
<path fill-rule="evenodd" clip-rule="evenodd" d="M193.64 30C194.27 30 194.78 30.81 194.78 31.8C194.78 32.79 194.27 33.61 193.64 33.61C193.01 33.61 192.5 32.8 192.5 31.8C192.5 30.8 193 30 193.64 30Z" fill="black"/>
<path fill-rule="evenodd" clip-rule="evenodd" d="M204.48 30C205.11 30 205.62 30.81 205.62 31.8C205.62 32.79 205.11 33.61 204.48 33.61C203.85 33.61 203.35 32.8 203.35 31.8C203.35 30.8 203.85 30 204.48 30Z" fill="black"/>
<path fill-rule="evenodd" clip-rule="evenodd" d="M188.75 59.21C192.68 59.21 194.86 59.35 199.75 59.35C206.75 59.35 209.49 59.65 207.75 62.55C206.01 65.45 198.97 65.55 192.29 65.55C190.568 63.7885 189.346 61.6002 188.75 59.21Z" fill="white"/>
<path d="M202.32 26.49H209.07" stroke="black" stroke-width="1.67" stroke-linecap="round" stroke-linejoin="round"/>
<path fill-rule="evenodd" clip-rule="evenodd" d="M208.1 78.27L197.5 83.6C197.5 83.6 195.2 96.75 205.7 96.75C216.2 96.75 215.55 85.38 215.55 85.38L208.1 78.27Z" fill="#C98600"/>
<path fill-rule="evenodd" clip-rule="evenodd" d="M201.76 95.95L197.28 115.09L207.07 153.99L218.36 127.45L209.83 96.02L201.76 95.95Z" fill="#C98600"/>
<path fill-rule="evenodd" clip-rule="evenodd" d="M280.62 96.0001C293.62 104.49 332.73 125.69 336.37 172.72C340.01 219.75 339 270.4 339 283C339 295.6 329.07 310.83 317.14 310.83C305.21 310.83 290 305.51 290 276V154C290 154 267.59 87.4601 280.62 96.0001Z" fill="#4FB3F6"/>
<path fill-rule="evenodd" clip-rule="evenodd" d="M132.9 135.45C125.51 146.53 86.78 222.11 79.63 235.62C72.48 249.13 66.91 271.14 85.46 281.21C104.01 291.28 124.68 276.21 132.9 260.8C141.12 245.39 173.44 175.73 179.27 164.07C185.1 152.41 186.16 127.5 169.73 120.07C153.3 112.64 145.62 116.37 132.9 135.45Z" fill="#4FB3F6"/>
<path fill-rule="evenodd" clip-rule="evenodd" d="M104.12 143.67C104.12 143.67 114.12 232.92 114.94 242.25C115.76 251.58 121.69 284.47 98.14 284.47C67.8 284.47 63.63 253.89 65.54 226.87C67.45 199.85 72.9 143.52 72.9 143.52L104.12 143.67Z" fill="#4FB3F6"/>
<path d="M104.21 124.24H72.8999V143.53H104.21V124.24Z" fill="#DEF4FF"/>
<path fill-rule="evenodd" clip-rule="evenodd" d="M76.86 124.23C76.86 122.6 76.53 120.43 73.93 116.3C71.33 112.17 66.99 102.74 72.93 94.92C74.5919 92.6701 76.8145 90.8952 79.3762 89.7722C81.938 88.6493 84.7494 88.2175 87.53 88.52C87.53 88.52 89.37 68.76 89.8 64.52C90.23 60.28 94.47 60.52 94.9 65.06C95.33 69.6 97.62 102.4 97.84 105.55C100.44 108.91 104.57 118.91 104.24 124.23C96.72 124.24 78.21 124.15 76.86 124.23Z" fill="#5B3100"/>
<path d="M97.8102 105.56C94.2202 101.56 86.8102 96.7601 84.4302 100.65C82.0502 104.54 90.3302 109.4 92.1402 111.42C93.9502 113.44 87.8302 118.58 88.5602 124.2" stroke="black" stroke-width="1.67" stroke-linecap="round" stroke-linejoin="round"/>
<path d="M87.5 88.52C87.5 88.52 95.29 94.92 90.91 100.26" stroke="black" stroke-width="1.67" stroke-linecap="round" stroke-linejoin="round"/>
<path d="M85.93 105.92C82.51 108.92 77.62 111.35 74.04 109.29" stroke="black" stroke-width="1.67" stroke-linecap="round" stroke-linejoin="round"/>
<path d="M108.24 180.69L115.08 243.67" stroke="#014A82" stroke-width="1.67" stroke-linecap="round" stroke-linejoin="round"/>
<path d="M296.3 301.25V157.72" stroke="#014A82" stroke-width="1.67" stroke-linecap="round" stroke-linejoin="round"/>
<path d="M132.9 260.8V165.79" stroke="#014A82" stroke-width="1.67" stroke-linecap="round" stroke-linejoin="round"/>
<path d="M207.07 153.99V349.55" stroke="#014A82" stroke-width="1.67" stroke-linecap="round" stroke-linejoin="round"/>
<path d="M180.16 95.2L179.36 120.81H185.77L183.05 130.71L207.07 190.93" stroke="#014A82" stroke-width="1.67" stroke-linecap="round" stroke-linejoin="round"/>
<path d="M207.07 190.93L233.55 137.51L232.2 124.97H240.16L262.65 82.9099" stroke="#014A82" stroke-width="1.67" stroke-linecap="round" stroke-linejoin="round"/>
<path d="M234.86 174.87H266.85" stroke="#014A82" stroke-width="1.67" stroke-linecap="round" stroke-linejoin="round"/>
</svg>
