<svg width="288" height="759" viewBox="0 0 288 759" fill="none" xmlns="http://www.w3.org/2000/svg">
<g clip-path="url(#clip0_447:19661)">
<path fill-rule="evenodd" clip-rule="evenodd" d="M136.724 749.629C203.391 749.629 257.559 749.184 257.505 754.292C257.452 759.801 203.391 758.956 136.724 758.956C70.057 758.956 15.9336 759.534 15.9336 754.292C15.9336 749.051 70.057 749.629 136.724 749.629Z" fill="black"/>
<path fill-rule="evenodd" clip-rule="evenodd" d="M175.251 94.5713C166.044 93.806 97.2597 93.7971 97.2597 93.7971C97.2597 93.7971 79.0496 101.264 67.7961 103.773C56.5426 106.283 34.4449 118.154 27.8885 139.646C21.3321 161.137 0.889057 234.048 -0.000546165 262.258C-0.890149 290.468 16.5728 298.495 30.6996 298.495H71.8883L71.1677 285.396H220.799L219.909 298.495C219.909 298.495 234.739 299.234 248.732 299.234C262.726 299.234 293.213 282.735 287.199 261.253C281.185 239.77 258.651 154.4 253.456 138.827C248.261 123.253 230.673 112.441 215.488 108.837C200.302 105.233 177.52 97.1343 175.251 94.5713Z" fill="#FBBE2E"/>
<path fill-rule="evenodd" clip-rule="evenodd" d="M108.718 78.6152L97.2246 93.7972L123.148 127.863L139.525 103.773L155.849 128.041L175.216 94.5803L169.193 81.1782L108.718 78.6152Z" fill="white"/>
<path fill-rule="evenodd" clip-rule="evenodd" d="M139.526 2.03784C159.24 2.03784 175.252 24.8286 175.252 52.9054C175.252 80.9822 159.24 103.773 139.562 103.773C119.884 103.773 103.826 80.9822 103.826 52.9054C103.826 24.8286 119.821 2.03784 139.526 2.03784Z" fill="#935000"/>
<path fill-rule="evenodd" clip-rule="evenodd" d="M104.858 40.7136C102.136 38.3375 95.0724 38.3375 94.5386 44.7627C94.0048 51.1879 100.116 60.0515 104.137 59.6243C108.158 59.1972 107.589 43.0808 104.858 40.7136Z" fill="#935000"/>
<path fill-rule="evenodd" clip-rule="evenodd" d="M173.81 40.7136C176.541 38.3375 183.596 38.3375 184.139 44.7627C184.681 51.1879 178.561 60.0515 174.54 59.6243C170.519 59.1972 171.079 43.0808 173.81 40.7136Z" fill="#935000"/>
<path fill-rule="evenodd" clip-rule="evenodd" d="M71.1504 285.396L71.9154 298.496H219.936L220.782 285.396H71.1504Z" fill="#133191"/>
<path fill-rule="evenodd" clip-rule="evenodd" d="M71.9156 298.495C68.1348 311.773 65.9998 381.667 71.9156 422.38C77.8315 463.094 82.8489 515.528 83.9698 526.127C85.0907 536.726 86.3183 651.605 110.231 690.112H145.895V298.495C145.895 298.495 89.3963 298.7 71.9156 298.495Z" fill="#FFC7BF"/>
<path fill-rule="evenodd" clip-rule="evenodd" d="M219.936 298.495C223.726 311.773 225.852 381.667 219.936 422.38C214.02 463.094 209.003 515.528 207.891 526.127C206.779 536.726 205.533 651.605 181.621 690.112H145.895V298.495C145.895 298.495 202.447 298.7 219.936 298.495Z" fill="#FFC7BF"/>
<path d="M145.93 690.112V378.561" stroke="#CF1D00" stroke-width="1.67" stroke-linecap="round" stroke-linejoin="round"/>
<path d="M111.682 359.775L145.905 378.561L175.715 361.145" stroke="#CF1D00" stroke-width="1.67" stroke-linecap="round" stroke-linejoin="round"/>
<path d="M90.5176 299.234C90.5176 299.234 82.3689 331.351 68.3398 345.563" stroke="#CF1D00" stroke-width="1.67" stroke-linecap="round" stroke-linejoin="round"/>
<path d="M201.441 299.234C201.441 299.234 209.59 331.351 223.619 345.563" stroke="#CF1D00" stroke-width="1.67" stroke-linecap="round" stroke-linejoin="round"/>
<path d="M145.967 369.172V329.954" stroke="#CF1D00" stroke-width="1.67" stroke-linecap="round" stroke-linejoin="round"/>
<path d="M52.3008 160.185C52.3008 160.185 58.528 232.348 61.8996 253.626C65.2712 274.904 71.1693 285.396 71.1693 285.396" stroke="#133191" stroke-width="1.67" stroke-linecap="round" stroke-linejoin="round"/>
<path d="M239.632 160.185C239.632 160.185 233.405 232.348 230.033 253.626C226.662 274.904 220.781 285.396 220.781 285.396" stroke="#133191" stroke-width="1.67" stroke-linecap="round" stroke-linejoin="round"/>
<path d="M139.525 106.274V285.396" stroke="#133191" stroke-width="1.67" stroke-linecap="round" stroke-linejoin="round"/>
<path fill-rule="evenodd" clip-rule="evenodd" d="M113.611 690.112L115.702 721.49L145.966 720.787V690.112H113.611Z" fill="#935000"/>
<path fill-rule="evenodd" clip-rule="evenodd" d="M178.313 690.112L176.222 721.49L145.967 720.787V690.112H178.313Z" fill="#935000"/>
<path fill-rule="evenodd" clip-rule="evenodd" d="M115.569 721.49C115.569 721.49 71.3464 740.81 62.2724 743.898C53.1985 746.986 48.0388 750.564 52.4868 755.075H145.895V720.787L115.569 721.49Z" fill="#CF1D00"/>
<path fill-rule="evenodd" clip-rule="evenodd" d="M145.895 720.832L176.186 721.535C176.186 721.535 175.963 724.578 175.678 727.693C175.394 730.808 185.259 745.224 187.857 748.73C190.455 752.237 189.289 753.981 188.506 755.12H145.966L145.895 720.832Z" fill="#CF1D00"/>
<path d="M142.034 50.9478L145.593 74.7619H133.459L142.675 83.9903H132.596" stroke="black" stroke-width="1.67" stroke-linecap="round" stroke-linejoin="round"/>
<path d="M104.43 43.5168H115.763" stroke="black" stroke-width="1.67" stroke-linecap="round" stroke-linejoin="round"/>
<path d="M162.852 43.5168H174.176" stroke="black" stroke-width="1.67" stroke-linecap="round" stroke-linejoin="round"/>
<path d="M128.219 43.5168H150.797" stroke="black" stroke-width="1.67" stroke-linecap="round" stroke-linejoin="round"/>
<path fill-rule="evenodd" clip-rule="evenodd" d="M121.99 41.6836C124.258 41.6836 126.475 42.3564 128.361 43.6168C130.247 44.8773 131.717 46.6688 132.585 48.7648C133.452 50.8609 133.68 53.1673 133.237 55.3925C132.795 57.6176 131.702 59.6616 130.099 61.2658C128.495 62.8701 126.452 63.9626 124.228 64.4052C122.003 64.8478 119.698 64.6207 117.602 63.7524C115.507 62.8842 113.716 61.414 112.456 59.5276C111.196 57.6412 110.523 55.4234 110.523 53.1546C110.526 50.113 111.735 47.1967 113.885 45.046C116.035 42.8953 118.95 41.686 121.99 41.6836Z" fill="white"/>
<path fill-rule="evenodd" clip-rule="evenodd" d="M157.05 41.6836C159.318 41.6818 161.536 42.3531 163.423 43.6125C165.31 44.8719 166.781 46.6628 167.65 48.7587C168.52 50.8546 168.748 53.1613 168.307 55.387C167.865 57.6128 166.774 59.6575 165.17 61.2627C163.567 62.8678 161.524 63.9612 159.299 64.4045C157.075 64.8479 154.768 64.6212 152.673 63.7533C150.577 62.8853 148.785 61.4151 147.525 59.5285C146.265 57.6419 145.592 55.4237 145.592 53.1546C145.594 50.1146 146.802 47.1996 148.95 45.0491C151.098 42.8987 154.011 41.6883 157.05 41.6836Z" fill="white"/>
<path fill-rule="evenodd" clip-rule="evenodd" d="M104.697 41.6836C104.697 41.6836 122.961 26.822 125.861 18.9641C137.702 31.2894 153.225 37.5633 173.899 39.2007C173.899 25.496 160.271 0.0444692 139.499 0.0444692C104.484 -2.65837e-05 104.697 41.6836 104.697 41.6836Z" fill="black"/>
</g>
<defs>
<clipPath id="clip0_447:19661">
<rect width="288" height="759" fill="white"/>
</clipPath>
</defs>
</svg>
