<svg width="475" height="759" viewBox="0 0 475 759" fill="none" xmlns="http://www.w3.org/2000/svg">
<g clip-path="url(#clip0_447:19633)">
<path fill-rule="evenodd" clip-rule="evenodd" d="M207.86 750.788C322.58 750.788 415.814 750.406 415.72 754.879C415.619 759.701 322.58 758.961 207.86 758.961C93.1406 758.961 0 759.467 0 754.879C0 750.29 93.1406 750.788 207.86 750.788Z" fill="black"/>
<path fill-rule="evenodd" clip-rule="evenodd" d="M166.351 184.647C151.302 195.858 130.477 214.806 120.441 223.695C110.406 232.585 112.341 256.176 128.93 269.709C145.518 283.242 187.953 320.351 193.356 327.705C198.758 335.06 202.8 338.613 199.162 347.775C195.524 356.937 188.28 383.567 194.895 385.476C201.51 387.385 200.266 384.697 201.37 381.354C202.474 378.012 214.173 326.397 215.751 320.857C217.329 315.318 216.069 310.729 210.698 303.273C205.327 295.817 173.565 248.798 173.565 248.798L203.383 227.988C203.383 227.988 178.384 198.266 166.351 184.647Z" fill="#FFC7BF"/>
<path fill-rule="evenodd" clip-rule="evenodd" d="M162.658 518.164L130.072 648.157H165.34L229.159 517.502L162.658 518.164Z" fill="#FFC7BF"/>
<path fill-rule="evenodd" clip-rule="evenodd" d="M275.574 517.502H341.889L331.208 653.767L295.839 655.418L275.574 517.502Z" fill="#FFC7BF"/>
<path fill-rule="evenodd" clip-rule="evenodd" d="M218.362 301.489L162.658 518.164L341.889 517.502L359.527 301.489H218.362Z" fill="#163BF3"/>
<path fill-rule="evenodd" clip-rule="evenodd" d="M287.109 117.582C274.306 117.582 256.389 118.314 249.439 148.38C242.49 178.445 218.346 301.489 218.346 301.489H359.51C359.51 301.489 378.905 153.148 380.001 143.246C381.097 133.343 377.785 111.723 359.526 111.723C341.266 111.723 299.912 117.582 287.109 117.582Z" fill="#133191"/>
<path fill-rule="evenodd" clip-rule="evenodd" d="M218.361 301.489L221.043 287.862H361.306L359.526 301.489H218.361Z" fill="white"/>
<path d="M452.643 183.486H322.338V306.529H452.643V183.486Z" fill="#BDC7FB"/>
<path fill-rule="evenodd" clip-rule="evenodd" d="M278.838 117.909C267.481 117.909 254.041 114.091 229.159 134.036C204.276 153.981 166.35 184.647 166.35 184.647L203.382 227.988C203.382 227.988 264.014 184.475 275.581 175.929C287.148 167.382 308.703 117.909 278.838 117.909Z" fill="#133191"/>
<path fill-rule="evenodd" clip-rule="evenodd" d="M359.526 111.723C375.85 111.723 393.184 120.2 404.891 132.159C416.598 144.118 431.631 160.783 431.631 160.783L383.281 198.671C383.281 198.671 364.858 175.804 355.297 165.715C345.736 155.625 327.732 111.723 359.526 111.723Z" fill="#133191"/>
<path fill-rule="evenodd" clip-rule="evenodd" d="M431.633 160.783C431.633 160.783 461.467 200.478 467.39 208.729C473.314 216.98 477.939 231.93 472.785 241.981C467.631 252.031 451.704 256.16 437.556 256.16H344.447C344.447 256.16 333.642 266.982 326.444 266.982V276.775C326.444 276.775 308.681 273.355 307.158 257.189C305.712 241.981 301.499 218.522 312.817 211.822C311.783 204.124 300.986 188.854 306.38 184.647C311.775 180.44 329.786 204.374 332.616 206.181H389.447L383.275 198.702L431.633 160.783Z" fill="#FFC7BF"/>
<path fill-rule="evenodd" clip-rule="evenodd" d="M344.283 106.347L355.485 111.801C355.485 111.801 350.953 127.57 345.38 134.262C337.078 144.266 314.434 157.69 314.434 157.69L306.567 146.003L295.84 156.599C295.84 156.599 288.269 123.581 286.512 117.644C290.492 115.704 293.259 114.021 293.259 114.021L344.283 106.347Z" fill="white"/>
<path fill-rule="evenodd" clip-rule="evenodd" d="M341.889 35.8386C356.534 44.3152 358.104 69.1062 345.395 91.1547C332.685 113.203 310.484 124.243 295.839 115.774C281.194 107.305 279.624 82.5067 292.333 60.4582C305.043 38.4096 327.259 27.3386 341.889 35.8386Z" fill="#FFC7BF"/>
<path fill-rule="evenodd" clip-rule="evenodd" d="M295.84 115.759L306.583 146.003C306.583 146.003 336.806 135.236 345.395 110.313C342.612 100.605 341.889 96.6162 341.889 96.6162L295.84 115.759Z" fill="#FFC7BF"/>
<path fill-rule="evenodd" clip-rule="evenodd" d="M294.727 56.5626H320.62L318.863 75.783H322.26C322.26 75.783 324.219 65.6002 330.811 65.6002C337.402 65.6002 334.946 77.3646 333.796 81.5172C332.645 85.6698 334.231 98.5016 338.903 100.558C343.808 96.0474 357.823 72.9861 353.346 53.6098C348.868 34.2336 335.568 27.619 317.075 36.3449C298.582 45.0709 294.727 56.5626 294.727 56.5626Z" fill="#8D1A00"/>
<path fill-rule="evenodd" clip-rule="evenodd" d="M336.237 43.8089C336.237 43.8089 330.959 4.62017 345.394 0.342912C359.829 -3.93435 390.176 33.2288 382.535 46.3099C374.894 59.391 336.237 43.8089 336.237 43.8089Z" fill="#8D1A00"/>
<path d="M389.453 206.15H443.183" stroke="#CF1D00" stroke-width="1.67" stroke-linecap="round" stroke-linejoin="round"/>
<path d="M173.556 248.767L157.068 224.381" stroke="#CF1D00" stroke-width="1.67" stroke-linecap="round" stroke-linejoin="round"/>
<path d="M237.951 203.104L247.139 157.69" stroke="black" stroke-width="1.67" stroke-linecap="round" stroke-linejoin="round"/>
<path d="M374.545 187.989L355.484 165.941" stroke="black" stroke-width="1.67" stroke-linecap="round" stroke-linejoin="round"/>
<path fill-rule="evenodd" clip-rule="evenodd" d="M431.632 160.783C431.632 160.783 387.323 195.009 383.281 198.671C379.239 202.332 379.115 198.266 376.93 195.78C374.746 193.295 373.292 194.035 376.06 189.072C378.827 184.109 418.681 155.103 423.773 152.189C428.864 149.276 427.846 153.506 429.735 154.963C431.624 156.42 433.816 159.022 431.632 160.783Z" fill="white"/>
<path fill-rule="evenodd" clip-rule="evenodd" d="M164.252 184.047C164.252 184.047 200.616 226.672 203.803 231.089C206.99 235.507 207.97 231.541 210.613 229.531C213.256 227.521 214.499 228.573 212.836 223.15C211.172 217.727 178.089 181.133 173.705 177.23C169.32 173.326 169.445 177.674 167.299 178.71C165.154 179.746 162.464 181.881 164.252 184.047Z" fill="white"/>
<path fill-rule="evenodd" clip-rule="evenodd" d="M165.34 648.157L113.258 754.894H24.2216C24.2216 754.894 21.3921 748.178 38.377 744.127C55.3618 740.076 91.2359 717.443 102.189 700.817C113.141 684.191 130.072 648.165 130.072 648.165L165.34 648.157Z" fill="#CF1D00"/>
<path fill-rule="evenodd" clip-rule="evenodd" d="M294.773 648.157L310.001 754.894H398.999C398.999 754.894 401.828 748.178 384.844 744.127C367.859 740.076 361.671 737.458 350.75 720.84C339.828 704.221 331.199 648.165 331.199 648.165L294.773 648.157Z" fill="#CF1D00"/>
<path d="M292.9 65.1095C292.9 65.1095 302.384 63.2941 301.49 66.6131C300.596 69.9321 290.941 86.4023 290.941 86.4023L303.301 86.862L292.597 95.0503H304.957" stroke="#CF1D00" stroke-width="1.67" stroke-linecap="round" stroke-linejoin="round"/>
<path fill-rule="evenodd" clip-rule="evenodd" d="M294.315 69.8853C294.913 69.8853 295.395 70.7734 295.395 71.8564C295.395 72.9393 294.913 73.8353 294.315 73.8353C293.716 73.8353 293.234 72.9471 293.234 71.8564C293.234 70.7656 293.716 69.8853 294.315 69.8853Z" fill="black"/>
<path fill-rule="evenodd" clip-rule="evenodd" d="M309.668 69.8853C310.267 69.8853 310.757 70.7734 310.757 71.8564C310.757 72.9393 310.267 73.8353 309.668 73.8353C309.07 73.8353 308.604 72.9471 308.604 71.8564C308.604 70.7656 309.078 69.8853 309.668 69.8853Z" fill="black"/>
</g>
<defs>
<clipPath id="clip0_447:19633">
<rect width="475" height="759" fill="white"/>
</clipPath>
</defs>
</svg>
