<svg width="337" height="734" viewBox="0 0 337 734" fill="none" xmlns="http://www.w3.org/2000/svg">
<path fill-rule="evenodd" clip-rule="evenodd" d="M85.5227 408.705C79.5862 412.958 68.888 447.474 87.8827 474.381C87.8827 447.381 88.86 423.947 85.5227 408.705Z" fill="#FFDC8E"/>
<path fill-rule="evenodd" clip-rule="evenodd" d="M221.542 408.705C227.479 412.958 238.177 447.474 219.182 474.381C219.182 447.381 218.205 423.947 221.542 408.705Z" fill="#FFDC8E"/>
<path fill-rule="evenodd" clip-rule="evenodd" d="M140.791 722.944C218.496 722.944 281.635 722.435 281.573 728.402C281.51 734.838 218.496 733.85 140.791 733.85C63.0869 733.85 0 734.516 0 728.402C0 722.289 63.0869 722.944 140.791 722.944Z" fill="black"/>
<path fill-rule="evenodd" clip-rule="evenodd" d="M72.8389 113.534C63.4819 150.515 52.8149 193.245 46.8472 224.362C40.8796 255.479 41.3058 270.825 49.4048 290.433C57.5038 310.041 93.2995 379.085 93.2995 379.085L116.744 351.409L81.3953 255.937L124.25 125.178C134.023 96.9199 82.2582 76.4489 72.8389 113.534Z" fill="#FFC7BF"/>
<path fill-rule="evenodd" clip-rule="evenodd" d="M231.242 113.534C240.287 152.085 248.521 191.218 254.624 221.212C256.298 229.415 258.419 250.042 244.04 254.284C223.694 260.293 212.902 248.961 208.401 230.933C202.339 206.636 179.862 125.147 179.862 125.147C170.068 96.9201 222.488 76.2827 231.242 113.534Z" fill="#FFC7BF"/>
<path fill-rule="evenodd" clip-rule="evenodd" d="M142.091 78.9025C128.918 78.9025 81.9152 87.4381 74.2633 109.167C66.6113 130.896 62.1304 148.383 62.1304 148.383H97.7909V275.826H204.44V146.044H241.868C241.868 146.044 235.63 118.618 227.001 103.418C218.371 88.2179 188.221 78.8921 169.819 78.8921L142.091 78.9025Z" fill="#00672E"/>
<path fill-rule="evenodd" clip-rule="evenodd" d="M273.432 136.105C269.273 142.697 236.42 207.686 228.903 219.382C221.386 231.079 221.054 245.374 231.877 251.154C242.699 256.935 249.634 250.78 254.375 243.461C259.116 236.142 290.763 165.548 299.268 149.205C305.194 137.81 287.176 114.49 273.432 136.105Z" fill="#FFC7BF"/>
<path fill-rule="evenodd" clip-rule="evenodd" d="M122.265 41.8177C122.265 36.7234 123.751 27.0441 131.237 19.6625C138.723 12.2808 154.785 -5.38308 172.74 1.60348C190.695 8.59003 192.109 32.5127 188.408 42.0569C184.707 51.601 146.198 55.4789 146.198 55.4789C146.198 55.4789 122.265 46.9121 122.265 41.8177Z" fill="#163BF3"/>
<path fill-rule="evenodd" clip-rule="evenodd" d="M274.253 132.591C275.74 123.442 276.873 111.205 277.528 106.007C278.183 100.808 282.872 100.59 283.392 106.142C283.841 109.907 284.684 113.615 285.908 117.204C285.908 117.204 297.833 94.6119 301.836 86.9495C305.838 79.2872 310.933 82.6557 308.458 89.819C305.755 97.6165 299.621 114.854 299.621 114.854C299.621 114.854 313.137 94.0608 315.476 89.9022C317.815 85.7435 323.97 86.9079 320.737 93.1979C317.504 99.4879 308.188 118.815 308.188 118.815C308.188 118.815 322.13 103.116 326.154 98.5522C330.177 93.9881 335.77 96.3065 331.102 102.825C326.434 109.344 314.925 124.939 314.925 124.939C314.925 124.939 328.295 115.457 331.892 112.671C335.49 109.885 339.253 113.794 333.753 118.784C328.254 123.774 307.668 145.004 302.293 149.6C291.824 158.541 271.893 147.105 274.253 132.591Z" fill="#FFC7BF"/>
<path fill-rule="evenodd" clip-rule="evenodd" d="M142.091 78.9026C142.091 78.9026 143.39 89.4656 155.981 98.4483C169.33 88.8418 169.881 78.9026 169.881 78.9026H142.091Z" fill="#FFC7BF"/>
<path d="M155.981 82.2606C172.742 82.2606 186.329 68.6734 186.329 51.9128C186.329 35.1521 172.742 21.5649 155.981 21.5649C139.22 21.5649 125.633 35.1521 125.633 51.9128C125.633 68.6734 139.22 82.2606 155.981 82.2606Z" fill="#FFC7BF"/>
<path d="M157.509 45.5085L159.88 55.4789H153.559" stroke="#935000" stroke-width="1.67" stroke-linecap="round" stroke-linejoin="round"/>
<path fill-rule="evenodd" clip-rule="evenodd" d="M145.646 45.4878C145.966 45.4145 146.3 45.4423 146.603 45.5675C146.906 45.6927 147.163 45.909 147.337 46.1864C147.512 46.4639 147.596 46.7888 147.578 47.1161C147.56 47.4434 147.44 47.7569 147.236 48.0132C147.031 48.2695 146.752 48.4559 146.437 48.5466C146.122 48.6373 145.787 48.6278 145.477 48.5194C145.168 48.411 144.9 48.2091 144.71 47.9416C144.521 47.6741 144.419 47.3543 144.42 47.0265C144.384 46.6609 144.492 46.2959 144.721 46.0087C144.95 45.7215 145.282 45.5347 145.646 45.4878Z" fill="black"/>
<path d="M166.679 48.5652C167.362 48.5652 167.916 47.8763 167.916 47.0265C167.916 46.1767 167.362 45.4878 166.679 45.4878C165.996 45.4878 165.442 46.1767 165.442 47.0265C165.442 47.8763 165.996 48.5652 166.679 48.5652Z" fill="black"/>
<path fill-rule="evenodd" clip-rule="evenodd" d="M126.454 44.9056C126.454 44.9056 124.375 40.5078 120.362 42.2129C116.349 43.9179 122.036 56.082 126.038 56.8722C130.041 57.6623 126.454 44.9056 126.454 44.9056Z" fill="#FFC7BF"/>
<path fill-rule="evenodd" clip-rule="evenodd" d="M185.425 44.9056C185.425 44.9056 187.504 40.5078 191.517 42.2129C195.53 43.9179 189.843 56.082 185.84 56.8722C181.838 57.6623 185.425 44.9056 185.425 44.9056Z" fill="#FFC7BF"/>
<path d="M204.44 275.826H97.791V287.096H204.44V275.826Z" fill="#163BF3"/>
<path fill-rule="evenodd" clip-rule="evenodd" d="M151.115 275.826C155.274 275.826 158.715 278.352 158.715 281.461C158.715 284.569 155.315 287.096 151.115 287.096C146.915 287.096 143.505 284.569 143.505 281.461C143.505 278.352 146.915 275.826 151.115 275.826Z" fill="white"/>
<path d="M97.791 148.342V125.677" stroke="#002E13" stroke-width="1.67" stroke-linecap="round" stroke-linejoin="round"/>
<path d="M204.439 145.847V125.677" stroke="#002E13" stroke-width="1.58" stroke-linecap="round" stroke-linejoin="round"/>
<path d="M248.2 183.888L230.671 216.471" stroke="#935000" stroke-width="1.67" stroke-linecap="round" stroke-linejoin="round"/>
<path fill-rule="evenodd" clip-rule="evenodd" d="M126.455 44.9055L126.049 56.9137C126.049 56.9137 125.602 85.3485 155.95 85.3485C158.303 81.8049 159.558 77.6459 159.558 73.3923C159.558 69.1388 158.303 64.9798 155.95 61.4362C147.383 61.4362 145.709 65.1894 140.927 65.1894C130.343 65.1582 126.455 49.6256 126.455 44.9055Z" fill="#935000"/>
<path fill-rule="evenodd" clip-rule="evenodd" d="M185.518 44.9055L185.923 56.9137C185.923 56.9137 186.37 85.3485 155.981 85.3485V61.4362C164.548 61.4362 166.222 65.1894 171.015 65.1894C181.63 65.1582 185.518 49.6256 185.518 44.9055Z" fill="#935000"/>
<path fill-rule="evenodd" clip-rule="evenodd" d="M152.01 546.45V677.989H124.084C124.084 677.989 110.485 600.108 110.485 546.45H152.01Z" fill="#FFC7BF"/>
<path fill-rule="evenodd" clip-rule="evenodd" d="M152.009 546.45V677.989H179.924C179.924 677.989 193.523 600.108 193.523 546.45H152.009Z" fill="#FFC7BF"/>
<path fill-rule="evenodd" clip-rule="evenodd" d="M97.7909 287.096C97.7909 287.096 66.7465 443.638 102.927 546.451H204.461C204.461 546.451 244.394 451.009 204.461 287.096H97.7909Z" fill="#FBBE2E"/>
<path fill-rule="evenodd" clip-rule="evenodd" d="M152.009 677.989V728.413H85.3875C85.3875 728.413 83.7136 723.142 97.7907 717.559C111.868 711.976 125.934 693.906 124.084 677.989H152.009Z" fill="#FEDD8E"/>
<path fill-rule="evenodd" clip-rule="evenodd" d="M152.009 677.989H179.976C179.976 677.989 178.729 689.425 181.972 697.504C185.216 705.582 193.825 718.671 191.329 728.413H152.009V677.989Z" fill="#FEDD8E"/>
<path fill-rule="evenodd" clip-rule="evenodd" d="M124.126 683.416C124.126 683.416 120.497 677.053 116.63 679.798C112.762 682.543 120.705 689.28 118.709 698.938C122.992 693.886 124.126 683.416 124.126 683.416Z" fill="#C98600"/>
<path d="M152.009 546.451V354.653" stroke="black" stroke-width="1.67" stroke-linecap="round" stroke-linejoin="round"/>
<path d="M131.278 339.495L152.009 354.653L173.135 338.725" stroke="black" stroke-width="1.67" stroke-linecap="round" stroke-linejoin="round"/>
<path d="M92.603 319.616L111.868 287.096" stroke="black" stroke-width="1.67" stroke-linecap="round" stroke-linejoin="round"/>
<path d="M211.167 319.616L191.891 287.096" stroke="black" stroke-width="1.67" stroke-linecap="round" stroke-linejoin="round"/>
<path d="M115.715 557.346H123.596" stroke="#935000" stroke-width="1.67" stroke-linecap="round" stroke-linejoin="round"/>
<path d="M179.956 557.346H187.836" stroke="#935000" stroke-width="1.67" stroke-linecap="round" stroke-linejoin="round"/>
<path fill-rule="evenodd" clip-rule="evenodd" d="M157.146 677.989C157.146 677.989 162.801 697.42 168.582 697.42C174.362 697.42 175.724 677.989 175.724 677.989H157.146Z" fill="#FFF2D6"/>
</svg>
