<svg width="294" height="723" viewBox="0 0 294 723" fill="none" xmlns="http://www.w3.org/2000/svg">
<g clip-path="url(#clip0_447:20492)">
<path fill-rule="evenodd" clip-rule="evenodd" d="M204.725 68.2589C212.369 63.7256 216.645 54.1408 203.17 41.577C189.694 29.0133 137.217 -11.5276 107.545 3.10857C86.425 13.6 89.7939 28.6247 86.1658 36.3961C82.5378 44.1675 67.8961 71.2379 85.2588 94.5521C102.622 117.866 114.413 114.887 114.413 114.887C143.566 102.064 186.196 79.5274 204.725 68.2589Z" fill="#8D1A00"/>
<path fill-rule="evenodd" clip-rule="evenodd" d="M109.748 6.08753C118.559 1.55421 138.513 2.20182 149.786 17.8742C161.059 33.5465 169.999 55.8245 151.729 65.2798C133.46 74.735 114.931 59.5807 107.286 50.9026C99.6413 42.2246 85.9066 18.3923 109.748 6.08753Z" fill="#935000"/>
<path fill-rule="evenodd" clip-rule="evenodd" d="M115.449 4.2743C115.449 4.2743 113.117 27.5885 103.787 46.3694C90.9597 38.9866 88.4978 25.9047 90.1822 20.9828C91.8667 16.0609 106.249 2.20193 115.449 4.2743Z" fill="#8D1A00"/>
<path fill-rule="evenodd" clip-rule="evenodd" d="M143.307 11.1389C143.307 11.1389 124.131 11.7865 115.449 4.27418C118.689 -9.03904e-05 126.722 -0.388661 129.961 0.647527C133.201 1.68371 143.307 11.1389 143.307 11.1389Z" fill="#8D1A00"/>
<path fill-rule="evenodd" clip-rule="evenodd" d="M122.576 67.6113C122.576 67.6113 107.286 85.2265 96.143 93.3865C84.9998 101.546 71.1355 110.613 70.7468 125.897C70.3581 141.181 68.9328 158.796 68.9328 158.796L31.4863 172.137C31.4863 172.137 37.7058 213.714 40.0381 228.479C42.3704 243.245 59.8627 250.11 74.2453 247.39C88.6278 244.67 106.12 189.752 106.12 189.752H176.348C176.348 189.752 194.748 226.407 199.283 236.51C203.818 246.613 233.231 258.27 246.836 226.148C260.441 194.026 268.734 170.323 268.734 170.323L225.197 151.931C225.197 151.931 211.981 124.084 208.742 115.405C205.502 106.727 197.469 97.1427 182.438 90.0189C167.408 82.8951 160.8 76.678 157.949 70.4608C144.862 70.4608 122.576 67.6113 122.576 67.6113Z" fill="#FBBE2E"/>
<path fill-rule="evenodd" clip-rule="evenodd" d="M123.483 63.3371L120.373 77.7142L139.938 105.432L159.245 77.3256C159.245 77.3256 156.783 63.4666 156.394 62.9485C156.005 62.4304 123.483 63.3371 123.483 63.3371Z" fill="#935000"/>
<path d="M68.9326 158.796C68.9326 158.796 82.2786 202.834 85.777 213.196" stroke="black" stroke-width="2" stroke-linecap="round" stroke-linejoin="round"/>
<path d="M225.716 155.687L203.17 210.864" stroke="black" stroke-width="2" stroke-linecap="round" stroke-linejoin="round"/>
<path d="M93.1628 138.461C93.1628 138.461 84.8702 174.08 106.12 189.752" stroke="black" stroke-width="2" stroke-linecap="round" stroke-linejoin="round"/>
<path d="M190.083 138.461C190.083 138.461 198.375 174.08 177.125 189.752" stroke="black" stroke-width="2" stroke-linecap="round" stroke-linejoin="round"/>
<path fill-rule="evenodd" clip-rule="evenodd" d="M91.6076 510.063C91.6076 510.063 70.2282 430.018 57.9188 390.384C45.6094 350.75 53.6429 305.287 59.0849 285.211C64.527 265.135 106.12 189.752 106.12 189.752H178.032C178.032 189.752 219.755 265.135 225.197 285.211C230.639 305.287 238.543 350.75 226.233 390.384C213.924 430.018 192.545 510.063 192.545 510.063H91.6076Z" fill="#163BF3"/>
<path d="M112.728 321.736C112.728 321.736 137.347 347.252 141.234 360.593" stroke="black" stroke-width="2" stroke-linecap="round" stroke-linejoin="round"/>
<path d="M142.141 387.146V472.761" stroke="black" stroke-width="2" stroke-linecap="round" stroke-linejoin="round"/>
<path fill-rule="evenodd" clip-rule="evenodd" d="M91.6079 510.063C91.6079 510.063 84.3518 546.719 91.4783 574.307C98.6048 601.896 116.227 677.537 116.227 677.537H141.234V510.063H91.6079Z" fill="#935000"/>
<path fill-rule="evenodd" clip-rule="evenodd" d="M190.86 510.063C190.86 510.063 198.116 546.719 190.99 574.307C183.863 601.896 166.241 677.537 166.241 677.537H141.234V510.063H190.86Z" fill="#935000"/>
<path fill-rule="evenodd" clip-rule="evenodd" d="M116.226 677.537C117.133 685.438 111.821 706.421 102.751 712.25C93.6808 718.078 91.478 719.762 91.478 723H141.234V677.537H116.226Z" fill="#0C114D"/>
<path fill-rule="evenodd" clip-rule="evenodd" d="M166.241 677.537C165.334 685.438 170.647 706.421 179.717 712.25C188.787 718.078 190.99 719.762 190.99 723H141.234V677.537H166.241Z" fill="#0C114D"/>
<path d="M141.234 510.063V677.537" stroke="black" stroke-width="2" stroke-linecap="round" stroke-linejoin="round"/>
<path fill-rule="evenodd" clip-rule="evenodd" d="M36.2801 174.079C29.5423 172.137 23.3228 169.417 18.7878 167.733C14.2527 166.049 11.0134 163.977 8.55154 157.889C6.08967 151.801 1.55463 138.072 0.258904 133.668C-1.03682 129.264 4.14608 123.565 7.38539 129.912C6.8671 124.861 9.58812 115.794 14.771 123.177C12.957 117.478 18.5286 113.851 22.1567 118.514C25.7847 123.177 26.1734 123.824 26.1734 123.824C26.1734 123.824 24.1002 118.125 27.21 115.923C30.3197 113.721 33.8182 118.773 35.5026 121.234L52.4766 146.232C52.4766 146.232 54.9385 132.891 55.1976 129.912C55.4568 124.861 62.8424 122.659 63.6198 131.207C63.879 135.093 66.2113 148.822 67.3774 150.118C74.1152 157.5 67.1183 167.603 61.5467 172.655C55.9751 177.706 43.1474 176.152 36.2801 174.079Z" fill="#935000"/>
<path fill-rule="evenodd" clip-rule="evenodd" d="M257.72 174.079C264.458 172.137 270.677 169.417 275.212 167.733C279.747 166.049 282.987 163.977 285.448 157.889C287.91 151.801 292.575 138.072 293.871 133.668C295.166 129.264 289.854 123.565 286.615 129.912C287.133 124.861 284.412 115.794 279.229 123.177C281.043 117.478 275.471 113.851 271.843 118.514C268.215 123.177 267.827 123.824 267.827 123.824C267.827 123.824 269.9 118.125 266.79 115.923C263.68 113.721 260.182 118.773 258.497 121.234L241.523 146.232C241.523 146.232 239.061 132.891 238.932 129.912C238.543 124.861 231.158 122.659 230.38 131.207C230.121 135.093 227.789 148.822 226.622 150.118C219.885 157.5 226.882 167.603 232.453 172.655C238.025 177.706 250.853 176.152 257.72 174.079Z" fill="#935000"/>
<path d="M26.1738 123.824L39.2606 147.527" stroke="black" stroke-width="2" stroke-linecap="round" stroke-linejoin="round"/>
<path d="M53.3839 145.584C50.2742 155.169 41.0746 157.63 32.6523 160.739" stroke="black" stroke-width="2" stroke-linecap="round" stroke-linejoin="round"/>
<path d="M241.394 145.584C244.503 155.169 253.573 157.63 261.996 160.739" stroke="black" stroke-width="2" stroke-linecap="round" stroke-linejoin="round"/>
<path d="M267.827 123.824L254.74 147.527" stroke="black" stroke-width="2" stroke-linecap="round" stroke-linejoin="round"/>
<path d="M14.7715 123.177L27.8583 150.377" stroke="black" stroke-width="2" stroke-linecap="round" stroke-linejoin="round"/>
<path d="M279.229 123.177L266.142 150.377" stroke="black" stroke-width="2" stroke-linecap="round" stroke-linejoin="round"/>
<path d="M7.38574 129.912L18.2698 152.32" stroke="black" stroke-width="2" stroke-linecap="round" stroke-linejoin="round"/>
<path d="M286.615 129.912L275.73 152.32" stroke="black" stroke-width="2" stroke-linecap="round" stroke-linejoin="round"/>
<path d="M155.617 63.3369C153.068 65.8927 149.637 67.3759 146.028 67.4817" stroke="black" stroke-width="2" stroke-linecap="round" stroke-linejoin="round"/>
<path fill-rule="evenodd" clip-rule="evenodd" d="M155.357 35.2305C153.543 36.0076 137.606 44.8152 135.533 45.9809C137.088 47.6647 142.4 52.0685 150.045 47.5352C152.161 46.3544 153.829 44.5086 154.79 42.2839C155.75 40.0593 155.95 37.58 155.357 35.2305Z" fill="#EDF8FF"/>
<path d="M138.643 14.7656L140.716 17.2266" stroke="black" stroke-width="3" stroke-linecap="round" stroke-linejoin="round"/>
<path d="M122.187 23.3142L124.26 25.7752" stroke="black" stroke-width="3" stroke-linecap="round" stroke-linejoin="round"/>
<path d="M132.812 19.5581C132.812 19.5581 136.829 24.8686 141.364 24.2209C145.899 23.5733 144.214 26.2933 142.53 27.2L136.051 30.5676" stroke="black" stroke-width="2" stroke-linecap="round" stroke-linejoin="round"/>
<path d="M120.632 179.779H166.889" stroke="black" stroke-width="2" stroke-linecap="round" stroke-linejoin="round"/>
</g>
<defs>
<clipPath id="clip0_447:20492">
<rect width="294" height="723" fill="white"/>
</clipPath>
</defs>
</svg>
