<svg width="1475" height="730" viewBox="0 0 1475 730" fill="none" xmlns="http://www.w3.org/2000/svg">
<g clip-path="url(#clip0_450:17971)">
<path d="M405.9 629.07H306.4V728.57H405.9V629.07Z" fill="#24A865"/>
<path d="M1073.78 629.07H974.279V728.57H1073.78V629.07Z" fill="#FF341A"/>
<path d="M690.09 388.08H505.4V529.56H690.09V388.08Z" fill="#24A865"/>
<path d="M874.78 388.08H690.09V529.56H874.78V388.08Z" fill="#FFC7BF"/>
<path fill-rule="evenodd" clip-rule="evenodd" d="M356.151 629.07L413.741 529.57H298.561L356.151 629.07Z" fill="#FF341A"/>
<path fill-rule="evenodd" clip-rule="evenodd" d="M1024.04 629.07L966.449 529.57H1081.62L1024.04 629.07Z" fill="#24A865"/>
<path fill-rule="evenodd" clip-rule="evenodd" d="M306.4 629.07L248.95 728.57H134.05L76.5996 629.07L134.05 529.57H248.95L306.4 629.07Z" fill="#163BF3"/>
<path d="M168.18 668.86C168.18 668.86 211.71 652.82 222.02 617.31" stroke="black" stroke-width="1.8333" stroke-miterlimit="10" stroke-linecap="round" stroke-linejoin="round"/>
<path d="M165.68 622.5L172.33 631.83" stroke="black" stroke-width="1.8333" stroke-miterlimit="10" stroke-linecap="round" stroke-linejoin="round"/>
<path d="M188.5 608.26L193.98 617.31" stroke="black" stroke-width="1.8333" stroke-miterlimit="10" stroke-linecap="round" stroke-linejoin="round"/>
<path fill-rule="evenodd" clip-rule="evenodd" d="M505.4 529.57C560.32 529.57 604.9 574.16 604.9 629.07C604.9 683.99 560.32 728.57 505.4 728.57C450.48 728.57 405.9 683.98 405.9 629.07C405.9 574.15 450.49 529.57 505.4 529.57Z" fill="#133191"/>
<path d="M450.35 621.2C450.35 621.2 486 684 550.98 670.46" stroke="black" stroke-width="1.8333" stroke-miterlimit="10" stroke-linecap="round" stroke-linejoin="round"/>
<path d="M495.5 604.64L492.02 614.63" stroke="black" stroke-width="1.8333" stroke-miterlimit="10" stroke-linecap="round" stroke-linejoin="round"/>
<path d="M527.84 621.2L524.35 631.19" stroke="black" stroke-width="1.8333" stroke-miterlimit="10" stroke-linecap="round" stroke-linejoin="round"/>
<path d="M435.36 532.81C474.048 532.81 505.411 501.448 505.411 462.76C505.411 424.072 474.048 392.71 435.36 392.71C396.673 392.71 365.311 424.072 365.311 462.76C365.311 501.448 396.673 532.81 435.36 532.81Z" fill="#24A865"/>
<path d="M463.611 460.09C463.611 460.09 427.971 473.05 407.721 460.9" stroke="black" stroke-width="1.8333" stroke-miterlimit="10" stroke-linecap="round" stroke-linejoin="round"/>
<path fill-rule="evenodd" clip-rule="evenodd" d="M874.779 529.57C819.859 529.57 775.279 574.16 775.279 629.07C775.279 683.99 819.859 728.57 874.779 728.57C929.699 728.57 974.279 683.98 974.279 629.07C974.279 574.15 929.699 529.57 874.779 529.57Z" fill="#163BF3"/>
<path d="M931.549 649.16C931.549 649.16 857.639 663.38 819.619 599.44" stroke="black" stroke-width="1.8333" stroke-miterlimit="10" stroke-linecap="round" stroke-linejoin="round"/>
<path d="M916.83 595.66L912.25 608.26" stroke="black" stroke-width="1.8333" stroke-miterlimit="10" stroke-linecap="round" stroke-linejoin="round"/>
<path d="M868.728 584.17L864.818 595.66" stroke="black" stroke-width="1.8333" stroke-miterlimit="10" stroke-linecap="round" stroke-linejoin="round"/>
<path fill-rule="evenodd" clip-rule="evenodd" d="M944.829 392.71C906.169 392.71 874.779 424.1 874.779 462.76C874.779 501.42 906.169 532.81 944.829 532.81C983.489 532.81 1014.88 501.42 1014.88 462.76C1014.88 424.1 983.489 392.71 944.829 392.71Z" fill="#133191"/>
<path d="M962.288 427.27C962.288 427.27 952.908 471.36 916.148 479.96" stroke="black" stroke-width="1.8333" stroke-miterlimit="10" stroke-linecap="round" stroke-linejoin="round"/>
<path d="M914.898 449.25L922.858 454.56" stroke="black" stroke-width="1.8333" stroke-miterlimit="10" stroke-linecap="round" stroke-linejoin="round"/>
<path d="M927.119 430.95L935.069 436.26" stroke="black" stroke-width="1.8333" stroke-miterlimit="10" stroke-linecap="round" stroke-linejoin="round"/>
<path fill-rule="evenodd" clip-rule="evenodd" d="M1073.79 629.07L1131.24 728.57H1246.13L1303.58 629.07L1246.13 529.57H1131.24L1073.79 629.07Z" fill="#24A865"/>
<path d="M1237.56 608.26C1237.56 608.26 1232.93 675.29 1142.15 668.97" stroke="black" stroke-width="1.8333" stroke-miterlimit="10" stroke-linecap="round" stroke-linejoin="round"/>
<path d="M1167.33 625L1172.17 635.33" stroke="black" stroke-width="1.8333" stroke-miterlimit="10" stroke-linecap="round" stroke-linejoin="round"/>
<path d="M1191.67 612.12L1198.17 619.83" stroke="black" stroke-width="1.8333" stroke-miterlimit="10" stroke-linecap="round" stroke-linejoin="round"/>
<path d="M424.67 439.71V449.26" stroke="black" stroke-width="1.8333" stroke-miterlimit="10" stroke-linecap="round" stroke-linejoin="round"/>
<path d="M446.67 439.71V449.26" stroke="black" stroke-width="1.8333" stroke-miterlimit="10" stroke-linecap="round" stroke-linejoin="round"/>
<path d="M540.139 280.71L616.059 211.33L648.819 228.45L733.779 144.63L761.539 164.83L845.319 89.25" stroke="#FFC7BF" stroke-width="11.51" stroke-miterlimit="10" stroke-linecap="round" stroke-linejoin="round"/>
<path fill-rule="evenodd" clip-rule="evenodd" d="M845.318 55.21C864.728 55.21 880.488 70.97 880.488 90.38C880.488 109.79 864.728 125.55 845.318 125.55C825.908 125.55 810.148 109.79 810.148 90.38C810.148 70.97 825.908 55.21 845.318 55.21Z" fill="#163BF3"/>
<path d="M832.449 103.29V77.46H850.919C852.849 77.46 854.699 78.23 856.069 79.59C857.439 80.95 858.199 82.81 858.199 84.74C858.199 86.67 857.429 88.52 856.069 89.89C854.709 91.25 852.859 92.02 850.919 92.02C843.309 92.02 832.449 92.02 832.449 92.02" stroke="white" stroke-width="1.6667" stroke-miterlimit="10" stroke-linecap="round" stroke-linejoin="round"/>
<path d="M826.738 61.1399C826.738 61.1399 802.078 70.8299 791.398 91.0699" stroke="#163BF3" stroke-width="1.6667" stroke-miterlimit="10" stroke-linecap="round" stroke-linejoin="round"/>
<path d="M816.85 146.54C816.85 146.54 829.98 143.09 836.63 133.44" stroke="#163BF3" stroke-width="1.6667" stroke-miterlimit="10" stroke-linecap="round" stroke-linejoin="round"/>
<path d="M540.139 313.73C559.563 313.73 575.309 297.984 575.309 278.56C575.309 259.136 559.563 243.39 540.139 243.39C520.715 243.39 504.969 259.136 504.969 278.56C504.969 297.984 520.715 313.73 540.139 313.73Z" fill="#133191"/>
<path d="M553.02 289.83L540.14 264L527.27 289.83" stroke="white" stroke-width="1.6667" stroke-miterlimit="10" stroke-linecap="round" stroke-linejoin="round"/>
<path d="M532.879 278.56H547.399" stroke="white" stroke-width="1.6667" stroke-miterlimit="10" stroke-linecap="round" stroke-linejoin="round"/>
<path d="M516.299 254.23C516.299 254.23 493.059 266.97 485.039 288.39" stroke="#133191" stroke-width="1.6667" stroke-miterlimit="10" stroke-linecap="round" stroke-linejoin="round"/>
<path d="M512.718 317.84C512.718 317.84 504.678 329.42 492.898 332.48" stroke="#133191" stroke-width="1.6667" stroke-miterlimit="10" stroke-linecap="round" stroke-linejoin="round"/>
<path fill-rule="evenodd" clip-rule="evenodd" d="M688.799 149.81C708.209 149.81 723.969 165.57 723.969 184.98C723.969 204.39 708.209 220.15 688.799 220.15C669.389 220.15 653.629 204.39 653.629 184.98C653.619 165.57 669.379 149.81 688.799 149.81Z" fill="#FF341A"/>
<path d="M675.92 197.9V172.07L688.8 184.98L701.67 172.07V197.9" stroke="white" stroke-width="1.6667" stroke-miterlimit="10" stroke-linecap="round" stroke-linejoin="round"/>
<path d="M673.808 153.64C673.808 153.64 648.738 162.21 637.158 181.95" stroke="#FF341A" stroke-width="1.6667" stroke-miterlimit="10" stroke-linecap="round" stroke-linejoin="round"/>
<path d="M680.429 225.59C680.429 225.59 673.729 236.63 663.129 240.08" stroke="#FF341A" stroke-width="1.6667" stroke-miterlimit="10" stroke-linecap="round" stroke-linejoin="round"/>
<path d="M-0.140625 728.57H1474.58" stroke="black" stroke-width="1.6667" stroke-miterlimit="10" stroke-linecap="round" stroke-linejoin="round"/>
<path fill-rule="evenodd" clip-rule="evenodd" d="M727.509 310.5C732.399 307.55 735.159 301.46 726.529 293.39C717.909 285.32 684.439 259.55 665.489 268.88C651.999 275.53 654.149 285.14 651.849 290.14C649.549 295.14 640.149 312.34 651.229 327.21C662.299 342.08 669.879 340.25 669.879 340.25C688.449 332.07 715.699 317.63 727.509 310.5Z" fill="#FF341A"/>
<path fill-rule="evenodd" clip-rule="evenodd" d="M666.85 270.78C672.48 267.87 685.23 268.25 692.45 278.27C699.66 288.3 705.31 302.53 693.65 308.55C681.99 314.57 670.19 304.87 665.33 299.4C660.47 293.94 651.7 278.6 666.85 270.78Z" fill="#935000"/>
<path fill-rule="evenodd" clip-rule="evenodd" d="M670.519 269.57C670.519 269.57 669.019 284.52 663.049 296.45C654.929 291.78 653.339 283.38 654.429 280.26C655.509 277.14 664.669 268.31 670.519 269.57Z" fill="#FF341A"/>
<path fill-rule="evenodd" clip-rule="evenodd" d="M688.319 273.94C688.319 273.94 676.06 274.38 670.52 269.56C672.61 266.89 677.72 266.62 679.77 267.26C681.82 267.9 688.319 273.94 688.319 273.94Z" fill="#FF341A"/>
<path fill-rule="evenodd" clip-rule="evenodd" d="M675.078 310.08C675.078 310.08 665.298 321.31 658.178 326.5C651.058 331.69 642.248 337.48 642.008 347.26C641.768 357.03 640.848 368.29 640.848 368.29L616.898 376.77C616.898 376.77 620.858 403.36 622.368 412.79C623.878 422.22 634.998 426.56 644.248 424.86C653.488 423.16 664.608 388.09 664.608 388.09H709.438C709.438 388.09 721.178 411.47 724.008 417.88C726.838 424.29 745.688 431.83 754.368 411.28C763.038 390.73 768.338 375.62 768.338 375.62L740.598 363.91C740.598 363.91 732.118 346.08 730.038 340.59C727.968 335.09 722.868 328.87 713.258 324.35C703.638 319.82 699.468 315.8 697.688 311.87C689.308 311.87 675.078 310.08 675.078 310.08Z" fill="#FBBE2E"/>
<path fill-rule="evenodd" clip-rule="evenodd" d="M675.68 307.3L673.68 316.48L686.18 334.22L698.46 316.24C698.46 316.24 696.95 307.38 696.69 307.1C696.44 306.82 675.68 307.3 675.68 307.3Z" fill="#935000"/>
<path d="M640.85 368.28C640.85 368.28 649.34 396.38 651.6 402.98" stroke="black" stroke-width="1.6667" stroke-miterlimit="10" stroke-linecap="round" stroke-linejoin="round"/>
<path d="M740.95 366.31L726.5 401.49" stroke="black" stroke-width="1.6667" stroke-miterlimit="10" stroke-linecap="round" stroke-linejoin="round"/>
<path d="M656.309 355.31C656.309 355.31 651.029 378.01 664.609 388.08" stroke="black" stroke-width="1.6667" stroke-miterlimit="10" stroke-linecap="round" stroke-linejoin="round"/>
<path d="M718.21 355.31C718.21 355.31 723.49 378.01 709.91 388.08" stroke="black" stroke-width="1.6667" stroke-miterlimit="10" stroke-linecap="round" stroke-linejoin="round"/>
<path fill-rule="evenodd" clip-rule="evenodd" d="M655.299 592.57C655.299 592.57 641.629 541.47 633.799 516.15C625.969 490.83 631.039 461.85 634.509 449.03C637.979 436.21 664.599 388.08 664.599 388.08H710.459C710.459 388.08 737.079 436.2 740.559 449.03C744.029 461.85 749.089 490.83 741.269 516.15C733.439 541.47 719.769 592.57 719.769 592.57H655.299Z" fill="#163BF3"/>
<path d="M668.77 472.31C668.77 472.31 684.48 488.65 686.99 497.14" stroke="black" stroke-width="1.6667" stroke-miterlimit="10" stroke-linecap="round" stroke-linejoin="round"/>
<path d="M687.539 514.11V568.8" stroke="black" stroke-width="1.6667" stroke-miterlimit="10" stroke-linecap="round" stroke-linejoin="round"/>
<path fill-rule="evenodd" clip-rule="evenodd" d="M655.3 592.57C655.3 592.57 650.68 616.03 655.2 633.63C659.73 651.23 671.04 699.51 671.04 699.51H686.98V592.57H655.3Z" fill="#935000"/>
<path fill-rule="evenodd" clip-rule="evenodd" d="M718.68 592.57C718.68 592.57 723.3 616.03 718.78 633.63C714.25 651.23 702.94 699.51 702.94 699.51H686.99V592.57H718.68Z" fill="#935000"/>
<path fill-rule="evenodd" clip-rule="evenodd" d="M671.05 699.51C671.6 704.63 668.25 718.02 662.46 721.75C656.66 725.48 655.25 726.51 655.25 728.57H687V699.5H671.05V699.51Z" fill="#133191"/>
<path fill-rule="evenodd" clip-rule="evenodd" d="M702.94 699.51C702.39 704.63 705.74 718.02 711.53 721.75C717.33 725.48 718.74 726.51 718.74 728.57H686.99V699.5H702.94V699.51Z" fill="#133191"/>
<path d="M686.99 592.57V699.51" stroke="black" stroke-width="1.6667" stroke-miterlimit="10" stroke-linecap="round" stroke-linejoin="round"/>
<path fill-rule="evenodd" clip-rule="evenodd" d="M619.99 378.05C615.73 376.78 611.73 375.09 608.84 374.01C605.95 372.94 603.89 371.62 602.28 367.66C600.67 363.7 597.78 355.04 596.96 352.23C596.14 349.42 599.52 345.8 601.58 349.84C601.25 346.62 602.98 340.85 606.28 345.55C605.13 341.92 608.67 339.61 610.98 342.58C613.29 345.55 613.54 345.96 613.54 345.96C613.54 345.96 612.22 342.33 614.2 340.93C616.18 339.53 618.41 342.75 619.48 344.31C620.56 345.88 630.37 360.23 630.37 360.23C630.37 360.23 631.9 351.76 632.03 349.83C632.25 346.62 636.95 345.15 637.43 350.63C637.65 353.12 639.13 361.89 639.86 362.7C644.15 367.4 639.68 373.87 636.14 377.14C633.02 380.02 624.38 379.37 619.99 378.05Z" fill="#935000"/>
<path fill-rule="evenodd" clip-rule="evenodd" d="M761.359 378.05C765.619 376.78 769.619 375.09 772.509 374.01C775.399 372.94 777.459 371.62 779.069 367.66C780.679 363.7 783.569 355.04 784.389 352.23C785.209 349.43 781.829 345.8 779.769 349.84C780.099 346.62 778.369 340.85 775.069 345.55C776.219 341.92 772.679 339.61 770.369 342.58C768.059 345.55 767.809 345.96 767.809 345.96C767.809 345.96 769.129 342.33 767.149 340.93C765.169 339.53 762.939 342.75 761.869 344.31C760.799 345.88 750.979 360.23 750.979 360.23C750.979 360.23 749.449 351.76 749.319 349.83C749.099 346.62 744.399 345.15 743.919 350.63C743.699 353.12 742.219 361.89 741.489 362.7C737.199 367.4 741.669 373.87 745.219 377.14C748.329 380.02 756.969 379.37 761.359 378.05Z" fill="#935000"/>
<path d="M613.539 345.96L621.889 361.08" stroke="black" stroke-width="1.6667" stroke-miterlimit="10" stroke-linecap="round" stroke-linejoin="round"/>
<path d="M630.899 359.84C628.889 365.99 623.079 367.51 617.709 369.56" stroke="black" stroke-width="1.6667" stroke-miterlimit="10" stroke-linecap="round" stroke-linejoin="round"/>
<path d="M750.91 359.84C752.92 365.99 758.73 367.51 764.1 369.56" stroke="black" stroke-width="1.6667" stroke-miterlimit="10" stroke-linecap="round" stroke-linejoin="round"/>
<path d="M767.809 345.96L759.459 361.08" stroke="black" stroke-width="1.6667" stroke-miterlimit="10" stroke-linecap="round" stroke-linejoin="round"/>
<path d="M606.279 345.55L614.619 362.87" stroke="black" stroke-width="1.6667" stroke-miterlimit="10" stroke-linecap="round" stroke-linejoin="round"/>
<path d="M775.069 345.55L766.719 362.87" stroke="black" stroke-width="1.6667" stroke-miterlimit="10" stroke-linecap="round" stroke-linejoin="round"/>
<path d="M601.58 349.84L608.49 364.12" stroke="black" stroke-width="1.6667" stroke-miterlimit="10" stroke-linecap="round" stroke-linejoin="round"/>
<path d="M779.769 349.84L772.859 364.12" stroke="black" stroke-width="1.6667" stroke-miterlimit="10" stroke-linecap="round" stroke-linejoin="round"/>
<path d="M696.169 307.3C694.729 308.7 693.059 309.68 690.029 309.95" stroke="black" stroke-width="1.6667" stroke-miterlimit="10" stroke-linecap="round" stroke-linejoin="round"/>
<path fill-rule="evenodd" clip-rule="evenodd" d="M695.97 289.4C694.87 289.84 684.66 295.51 683.33 296.22C684.38 297.28 687.73 300.11 692.61 297.2C696.54 294.85 696.5 290.91 695.97 289.4Z" fill="#D9F0FF"/>
<path d="M685.309 276.32L686.679 277.88" stroke="black" stroke-width="1.6667" stroke-miterlimit="10" stroke-linecap="round" stroke-linejoin="round"/>
<path d="M674.799 281.75L676.169 283.3" stroke="black" stroke-width="1.6667" stroke-miterlimit="10" stroke-linecap="round" stroke-linejoin="round"/>
<path d="M681.6 279.37C681.6 279.37 684.16 282.77 687.06 282.36C688.79 282.11 688.94 283.68 687.85 284.24C686.76 284.8 683.7 286.38 683.7 286.38" stroke="black" stroke-width="1.6667" stroke-miterlimit="10" stroke-linecap="round" stroke-linejoin="round"/>
<path d="M673.82 381.66H703.36" stroke="black" stroke-width="1.815" stroke-miterlimit="10" stroke-linecap="round" stroke-linejoin="round"/>
</g>
<defs>
<clipPath id="clip0_450:17971">
<rect width="1475" height="730" fill="white"/>
</clipPath>
</defs>
</svg>
