<svg width="2155" height="745" viewBox="0 0 2155 745" fill="none" xmlns="http://www.w3.org/2000/svg">
<g clip-path="url(#clip0_450:18376)">
<path fill-rule="evenodd" clip-rule="evenodd" d="M203.08 333.15C204.66 326.21 210.82 321.29 217.94 321.29C222.95 321.29 227.69 323.57 230.82 327.49C233.94 331.41 235.12 336.54 234.01 341.42C215.13 424.58 144.21 737 144.21 737H111.4C111.4 737 187.67 401.02 203.08 333.15Z" fill="#8D1A00"/>
<path fill-rule="evenodd" clip-rule="evenodd" d="M203.08 333.15C204.66 326.21 210.82 321.29 217.94 321.29C222.95 321.29 227.69 323.57 230.82 327.49C233.94 331.41 235.12 336.54 234.01 341.42C226.69 373.67 213.14 433.33 213.14 433.33H180.33C180.34 433.33 196.53 361.98 203.08 333.15Z" fill="black"/>
<path fill-rule="evenodd" clip-rule="evenodd" d="M1070.2 136.8L291.121 283.75V347.85L1070.2 638.01V136.8Z" fill="#B9E2FE"/>
<path fill-rule="evenodd" clip-rule="evenodd" d="M368.161 269.22L291.121 283.75V347.85L367.721 376.38L368.161 269.22Z" fill="#8D1A00"/>
<path fill-rule="evenodd" clip-rule="evenodd" d="M291.121 285.05C291.121 280.05 289.131 275.25 285.601 271.72C282.061 268.18 277.271 266.19 272.271 266.19C246.281 266.19 199.721 266.19 173.721 266.19C168.721 266.19 163.921 268.18 160.391 271.72C156.851 275.25 154.871 280.05 154.871 285.05C154.871 305.3 154.871 337.28 154.871 357.53C154.871 362.53 156.861 367.33 160.391 370.86C163.921 374.4 168.721 376.39 173.721 376.39C199.711 376.39 246.271 376.39 272.271 376.39C277.271 376.39 282.071 374.4 285.601 370.86C289.131 367.33 291.121 362.53 291.121 357.53C291.121 337.28 291.121 305.3 291.121 285.05Z" fill="#FBBE2E"/>
<path fill-rule="evenodd" clip-rule="evenodd" d="M154.86 289.33H141.41C135.93 289.33 131.48 293.78 131.48 299.26V343.76C131.48 349.24 135.93 353.69 141.41 353.69H154.86V289.33Z" fill="#8D1A00"/>
<path fill-rule="evenodd" clip-rule="evenodd" d="M190.66 266.13C174.12 265.08 161.02 251.31 161.02 234.51C161.02 217.02 175.22 202.83 192.7 202.83C206.95 202.83 219.01 212.26 222.99 225.21C226.96 212.26 239.03 202.83 253.28 202.83C270.76 202.83 284.96 217.03 284.96 234.51C284.96 251.31 271.86 265.07 255.32 266.13C254.65 266.17 253.97 266.19 253.28 266.19C252.59 266.19 251.92 266.17 251.24 266.13H194.73C194.06 266.17 193.38 266.19 192.69 266.19C192.01 266.2 191.33 266.18 190.66 266.13Z" fill="#0089E3"/>
<path fill-rule="evenodd" clip-rule="evenodd" d="M192.441 223.42C198.421 223.42 203.271 228.27 203.271 234.25C203.271 240.23 198.421 245.08 192.441 245.08C186.461 245.08 181.611 240.23 181.611 234.25C181.611 228.28 186.461 223.42 192.441 223.42Z" fill="black"/>
<path fill-rule="evenodd" clip-rule="evenodd" d="M254.48 223.42C260.46 223.42 265.31 228.27 265.31 234.25C265.31 240.23 260.46 245.08 254.48 245.08C248.5 245.08 243.65 240.23 243.65 234.25C243.65 228.28 248.5 223.42 254.48 223.42Z" fill="black"/>
<path fill-rule="evenodd" clip-rule="evenodd" d="M291.121 308.38V357.53C291.121 362.53 289.131 367.33 285.601 370.86C282.061 374.4 277.271 376.39 272.271 376.39C246.281 376.39 199.721 376.39 173.721 376.39C168.721 376.39 163.921 374.4 160.391 370.86C156.851 367.33 154.871 362.53 154.871 357.53V308.38H291.121Z" fill="#B9E2FE"/>
<path fill-rule="evenodd" clip-rule="evenodd" d="M232.25 333.15C230.67 326.21 224.51 321.29 217.39 321.29C212.38 321.29 207.64 323.57 204.51 327.49C201.38 331.41 200.21 336.54 201.32 341.42C220.2 424.58 291.12 737 291.12 737H323.93C323.93 737 247.65 401.02 232.25 333.15Z" fill="#CF1D00"/>
<path fill-rule="evenodd" clip-rule="evenodd" d="M738.691 231.9C753.811 231.9 766.091 244.18 766.091 259.31C766.091 274.43 753.811 286.71 738.691 286.71C723.561 286.71 711.281 274.43 711.281 259.31C711.281 244.18 723.561 231.9 738.691 231.9Z" fill="#EDF8FF"/>
<path fill-rule="evenodd" clip-rule="evenodd" d="M934.671 371.83C960.411 371.83 981.311 392.73 981.311 418.47C981.311 444.21 960.411 465.11 934.671 465.11C908.931 465.11 888.041 444.21 888.041 418.47C888.041 392.73 908.931 371.83 934.671 371.83Z" fill="#EDF8FF"/>
<path d="M1077.7 744.61C1672.71 744.61 2155.06 741.418 2155.06 737.48C2155.06 733.542 1672.71 730.35 1077.7 730.35C482.69 730.35 0.339844 733.542 0.339844 737.48C0.339844 741.418 482.69 744.61 1077.7 744.61Z" fill="black"/>
<path fill-rule="evenodd" clip-rule="evenodd" d="M1904.76 207.59C1919.88 207.59 1932.17 219.87 1932.17 234.99C1932.17 250.12 1919.89 262.39 1904.76 262.39C1889.63 262.39 1877.36 250.11 1877.36 234.99C1877.36 219.87 1889.64 207.59 1904.76 207.59Z" fill="#EDF8FF"/>
<path fill-rule="evenodd" clip-rule="evenodd" d="M953.489 93.6101C982.389 93.6101 1005.85 117.07 1005.85 145.97C1005.85 174.87 982.389 198.34 953.489 198.34C924.589 198.34 901.129 174.87 901.129 145.97C901.129 117.08 924.589 93.6101 953.489 93.6101Z" fill="#EDF8FF"/>
<path fill-rule="evenodd" clip-rule="evenodd" d="M542.301 109.4C557.421 109.4 569.701 121.68 569.701 136.8C569.701 151.92 557.421 164.21 542.301 164.21C527.171 164.21 514.891 151.93 514.891 136.8C514.891 121.67 527.171 109.4 542.301 109.4Z" fill="#EDF8FF"/>
<path d="M1765.75 136.8H1070.2V638.01H1765.75V136.8Z" fill="#CF1D00"/>
<path fill-rule="evenodd" clip-rule="evenodd" d="M1506.8 419.76H1585.51C1585.51 419.76 1575.49 416.49 1568.34 416.49C1561.18 416.49 1558.59 412.78 1550.87 412.63C1543.15 412.48 1533.71 416.93 1526.27 417.08C1518.82 417.24 1506.8 419.76 1506.8 419.76Z" fill="#8D1A00"/>
<path fill-rule="evenodd" clip-rule="evenodd" d="M1377.42 410.37H1456.13C1456.13 410.37 1446.11 407.1 1438.95 407.1C1431.8 407.1 1429.2 403.39 1421.48 403.24C1413.76 403.09 1404.31 407.54 1396.87 407.69C1389.45 407.85 1377.42 410.37 1377.42 410.37Z" fill="#8D1A00"/>
<path d="M1296.48 350.922C1307.55 324.205 1294.86 293.575 1268.15 282.508C1241.43 271.442 1210.8 284.129 1199.73 310.846C1188.67 337.563 1201.35 368.192 1228.07 379.259C1254.79 390.326 1285.42 377.639 1296.48 350.922Z" fill="white"/>
<path d="M1248.08 270.75C1281.28 270.75 1308.24 297.7 1308.24 330.91C1308.24 364.11 1281.28 391.07 1248.08 391.07C1214.88 391.07 1187.93 364.11 1187.93 330.91C1187.93 297.71 1214.88 270.75 1248.08 270.75Z" stroke="white" stroke-width="1.815" stroke-miterlimit="10" stroke-linecap="round" stroke-linejoin="round"/>
<path d="M1248.08 258.44C1288.08 258.44 1320.56 290.92 1320.56 330.92C1320.56 370.92 1288.08 403.39 1248.08 403.39C1208.08 403.39 1175.61 370.92 1175.61 330.92C1175.61 290.92 1208.08 258.44 1248.08 258.44Z" stroke="white" stroke-width="1.815" stroke-miterlimit="10" stroke-linecap="round" stroke-linejoin="round"/>
<path d="M1248.08 232.12C1302.61 232.12 1346.87 276.39 1346.87 330.91C1346.87 385.43 1302.6 429.7 1248.08 429.7C1193.56 429.7 1149.29 385.43 1149.29 330.91C1149.29 276.39 1193.55 232.12 1248.08 232.12Z" stroke="white" stroke-width="1.815" stroke-miterlimit="10" stroke-linecap="round" stroke-linejoin="round"/>
<path fill-rule="evenodd" clip-rule="evenodd" d="M1070.2 455.27L1204.21 357.24H1387.01L1443.4 449.28H1557.27L1582.74 330.91L1632.19 462.77H1765.76V638.01H1070.2V455.27Z" fill="#FFC7BF"/>
<path fill-rule="evenodd" clip-rule="evenodd" d="M1070.2 455.27L1204.21 357.24L1417.98 407.79L1443.4 449.28H1557.27L1582.74 330.91L1627.13 449.28H1765.76V490.97L1443.4 449.28L1070.2 455.27Z" fill="#FF7968"/>
<path fill-rule="evenodd" clip-rule="evenodd" d="M1582.74 330.91L1577.17 356.79H1592.45L1582.74 330.91Z" fill="#8D1A00"/>
<path d="M1765.75 607.87H1070.2V638.01H1765.75V607.87Z" fill="#8D1A00"/>
<path fill-rule="evenodd" clip-rule="evenodd" d="M1635.39 320.87C1608.42 320.09 1558.39 307.73 1539.24 307.73C1520.09 307.73 1517.93 329.48 1538.55 334.38C1559.17 339.29 1614.62 340.75 1637.43 335.25C1656.39 330.68 1656.34 321.48 1635.39 320.87Z" fill="#FFC7BF"/>
<path d="M1765.75 136.8H1070.2V158.37H1765.75V136.8Z" fill="#8D1A00"/>
<path fill-rule="evenodd" clip-rule="evenodd" d="M1327.65 535.83V491.36C1327.65 482.02 1333.15 482.25 1333.15 491.59V535.83H1327.65Z" fill="#8D1A00"/>
<path fill-rule="evenodd" clip-rule="evenodd" d="M1317.45 499.89V496.05C1317.45 486.71 1322.95 486.94 1322.95 496.28V499.9C1322.95 503.22 1325 505.21 1327.65 505.21V510.87C1321.56 510.86 1317.45 505.55 1317.45 499.89Z" fill="#8D1A00"/>
<path fill-rule="evenodd" clip-rule="evenodd" d="M1343.34 499.89V496.05C1343.34 486.71 1337.84 486.94 1337.84 496.28V499.9C1337.84 503.22 1335.79 505.21 1333.14 505.21V510.87C1339.23 510.86 1343.34 505.55 1343.34 499.89Z" fill="#8D1A00"/>
<path fill-rule="evenodd" clip-rule="evenodd" d="M1217.5 499.9V473.17C1217.5 467.55 1220.8 467.69 1220.8 473.31V499.9H1217.5Z" fill="#8D1A00"/>
<path fill-rule="evenodd" clip-rule="evenodd" d="M1211.37 478.3V475.99C1211.37 470.37 1214.67 470.51 1214.67 476.13V478.3C1214.67 480.29 1215.9 481.49 1217.49 481.49V484.89C1213.84 484.89 1211.37 481.7 1211.37 478.3Z" fill="#8D1A00"/>
<path fill-rule="evenodd" clip-rule="evenodd" d="M1226.93 478.3V475.99C1226.93 470.37 1223.63 470.51 1223.63 476.13V478.3C1223.63 480.29 1222.4 481.49 1220.8 481.49V484.89C1224.46 484.89 1226.93 481.7 1226.93 478.3Z" fill="#8D1A00"/>
<path fill-rule="evenodd" clip-rule="evenodd" d="M1593.31 504.3V477.57C1593.31 471.95 1596.61 472.09 1596.61 477.71V504.3H1593.31Z" fill="#8D1A00"/>
<path fill-rule="evenodd" clip-rule="evenodd" d="M1587.19 482.7V480.39C1587.19 474.77 1590.49 474.91 1590.49 480.53V482.7C1590.49 484.69 1591.72 485.89 1593.32 485.89V489.29C1589.65 489.29 1587.19 486.1 1587.19 482.7Z" fill="#8D1A00"/>
<path fill-rule="evenodd" clip-rule="evenodd" d="M1602.74 482.7V480.39C1602.74 474.77 1599.44 474.91 1599.44 480.53V482.7C1599.44 484.69 1598.21 485.89 1596.61 485.89V489.29C1600.28 489.29 1602.74 486.1 1602.74 482.7Z" fill="#8D1A00"/>
<path fill-rule="evenodd" clip-rule="evenodd" d="M1422.19 632.21V504.29C1422.19 477.42 1438 478.08 1438 504.95V632.21H1422.19Z" fill="#8D1A00"/>
<path fill-rule="evenodd" clip-rule="evenodd" d="M1392.87 528.84V517.78C1392.87 490.91 1408.68 491.57 1408.68 518.44V528.84C1408.68 538.38 1414.57 544.13 1422.19 544.13V560.4C1404.68 560.4 1392.87 545.12 1392.87 528.84Z" fill="#8D1A00"/>
<path fill-rule="evenodd" clip-rule="evenodd" d="M1467.32 528.84V517.78C1467.32 490.91 1451.51 491.57 1451.51 518.44V528.84C1451.51 538.38 1445.62 544.13 1438 544.13V560.4C1455.5 560.4 1467.32 545.12 1467.32 528.84Z" fill="#8D1A00"/>
<path fill-rule="evenodd" clip-rule="evenodd" d="M1528.48 553.8V509.33C1528.48 499.99 1533.98 500.22 1533.98 509.56V553.8H1528.48Z" fill="#8D1A00"/>
<path fill-rule="evenodd" clip-rule="evenodd" d="M1518.28 517.86V514.02C1518.28 504.68 1523.78 504.91 1523.78 514.25V517.87C1523.78 521.19 1525.83 523.18 1528.48 523.18V528.84C1522.39 528.84 1518.28 523.52 1518.28 517.86Z" fill="#8D1A00"/>
<path fill-rule="evenodd" clip-rule="evenodd" d="M1544.17 517.86V514.02C1544.17 504.68 1538.67 504.91 1538.67 514.25V517.87C1538.67 521.19 1536.62 523.18 1533.97 523.18V528.84C1540.06 528.84 1544.17 523.52 1544.17 517.86Z" fill="#8D1A00"/>
<path fill-rule="evenodd" clip-rule="evenodd" d="M1129.65 553.82V493.77C1129.65 481.15 1137.07 481.46 1137.07 494.08V553.82H1129.65Z" fill="#8D1A00"/>
<path fill-rule="evenodd" clip-rule="evenodd" d="M1115.88 505.3V500.11C1115.88 487.49 1123.3 487.8 1123.3 500.42V505.3C1123.3 509.78 1126.07 512.48 1129.65 512.48V520.12C1121.43 520.11 1115.88 512.94 1115.88 505.3Z" fill="#8D1A00"/>
<path fill-rule="evenodd" clip-rule="evenodd" d="M1150.83 505.3V500.11C1150.83 487.49 1143.41 487.8 1143.41 500.42V505.3C1143.41 509.78 1140.64 512.48 1137.06 512.48V520.12C1145.28 520.11 1150.83 512.94 1150.83 505.3Z" fill="#8D1A00"/>
<path fill-rule="evenodd" clip-rule="evenodd" d="M1683.4 553.8V497.58C1683.4 485.77 1690.35 486.06 1690.35 497.87V553.81H1683.4V553.8Z" fill="#8D1A00"/>
<path fill-rule="evenodd" clip-rule="evenodd" d="M1670.51 508.37V503.51C1670.51 491.7 1677.46 491.99 1677.46 503.8V508.37C1677.46 512.56 1680.05 515.09 1683.4 515.09V522.24C1675.7 522.24 1670.51 515.52 1670.51 508.37Z" fill="#8D1A00"/>
<path fill-rule="evenodd" clip-rule="evenodd" d="M1703.23 508.37V503.51C1703.23 491.7 1696.28 491.99 1696.28 503.8V508.37C1696.28 512.56 1693.69 515.09 1690.34 515.09V522.24C1698.04 522.24 1703.23 515.52 1703.23 508.37Z" fill="#8D1A00"/>
<path fill-rule="evenodd" clip-rule="evenodd" d="M1657.9 453.62V436.81C1657.9 433.28 1659.98 433.36 1659.98 436.9V453.63H1657.9V453.62Z" fill="#FF7968"/>
<path fill-rule="evenodd" clip-rule="evenodd" d="M1654.05 440.04V438.59C1654.05 435.06 1656.13 435.14 1656.13 438.68V440.05C1656.13 441.3 1656.91 442.06 1657.91 442.06V444.2C1655.6 444.18 1654.05 442.18 1654.05 440.04Z" fill="#FF7968"/>
<path fill-rule="evenodd" clip-rule="evenodd" d="M1663.84 440.04V438.59C1663.84 435.06 1661.76 435.14 1661.76 438.68V440.05C1661.76 441.3 1660.99 442.06 1659.99 442.06V444.2C1662.28 444.18 1663.84 442.18 1663.84 440.04Z" fill="#FF7968"/>
<path fill-rule="evenodd" clip-rule="evenodd" d="M1727.6 473.04V456.23C1727.6 452.7 1729.68 452.78 1729.68 456.32V473.05H1727.6V473.04Z" fill="#FFC7BF"/>
<path fill-rule="evenodd" clip-rule="evenodd" d="M1723.75 459.46V458C1723.75 454.47 1725.83 454.55 1725.83 458.09V459.46C1725.83 460.71 1726.6 461.47 1727.61 461.47V463.61C1725.3 463.6 1723.75 461.59 1723.75 459.46Z" fill="#FFC7BF"/>
<path fill-rule="evenodd" clip-rule="evenodd" d="M1733.53 459.46V458C1733.53 454.47 1731.45 454.55 1731.45 458.09V459.46C1731.45 460.71 1730.68 461.47 1729.68 461.47V463.61C1731.98 463.6 1733.53 461.59 1733.53 459.46Z" fill="#FFC7BF"/>
<path fill-rule="evenodd" clip-rule="evenodd" d="M1482.67 451.69V434.88C1482.67 431.35 1484.75 431.43 1484.75 434.97V451.7H1482.67V451.69Z" fill="#FF7968"/>
<path fill-rule="evenodd" clip-rule="evenodd" d="M1478.82 438.11V436.66C1478.82 433.13 1480.9 433.21 1480.9 436.75V438.12C1480.9 439.37 1481.67 440.13 1482.68 440.13V442.27C1480.37 442.25 1478.82 440.24 1478.82 438.11Z" fill="#FF7968"/>
<path fill-rule="evenodd" clip-rule="evenodd" d="M1488.6 438.11V436.66C1488.6 433.13 1486.53 433.21 1486.53 436.75V438.12C1486.53 439.37 1485.75 440.13 1484.75 440.13V442.27C1487.05 442.25 1488.6 440.24 1488.6 438.11Z" fill="#FF7968"/>
<path fill-rule="evenodd" clip-rule="evenodd" d="M1697.48 246.24H1603.1C1603.1 246.24 1615.11 238.69 1623.69 238.69C1632.27 238.69 1635.38 230.11 1644.64 229.77C1653.89 229.43 1665.22 239.72 1674.14 240.07C1683.07 240.4 1697.48 246.24 1697.48 246.24Z" fill="#8D1A00"/>
<path fill-rule="evenodd" clip-rule="evenodd" d="M1427.08 279.98H1485.2C1485.2 279.98 1477.8 275.33 1472.52 275.33C1467.24 275.33 1465.32 270.05 1459.62 269.83C1453.92 269.62 1446.94 275.96 1441.45 276.17C1435.95 276.39 1427.08 279.98 1427.08 279.98Z" fill="#8D1A00"/>
<path fill-rule="evenodd" clip-rule="evenodd" d="M1439.53 387.4H1545.7C1545.7 387.4 1532.19 382.75 1522.54 382.75C1512.89 382.75 1509.39 377.47 1498.98 377.25C1488.57 377.04 1475.83 383.38 1465.79 383.59C1455.75 383.81 1439.53 387.4 1439.53 387.4Z" fill="#8D1A00"/>
<path fill-rule="evenodd" clip-rule="evenodd" d="M1638.25 417.44H1744.42C1744.42 417.44 1730.91 414.92 1721.26 414.92C1711.61 414.92 1708.11 412.05 1697.69 411.94C1687.28 411.83 1674.54 415.26 1664.5 415.38C1654.47 415.49 1638.25 417.44 1638.25 417.44Z" fill="#8D1A00"/>
<path fill-rule="evenodd" clip-rule="evenodd" d="M471.479 540.53C467.059 550.99 460.219 594.23 493.999 594.23H571.429V667.23L612.46 646.31C612.46 646.31 628.749 594.22 632.369 581.76C635.989 569.29 633.579 551.28 617.289 546.91C600.999 542.54 559.369 540.53 559.369 540.53H471.479Z" fill="#FBBE2E"/>
<path d="M601.64 449.76C603.23 449.76 604.52 445.704 604.52 440.7C604.52 435.696 603.23 431.64 601.64 431.64C600.049 431.64 598.76 435.696 598.76 440.7C598.76 445.704 600.049 449.76 601.64 449.76Z" fill="white"/>
<path fill-rule="evenodd" clip-rule="evenodd" d="M595.919 424.57C598.519 427.07 600.569 432.53 600.569 438.81V458.68C600.569 463.52 598.319 471.56 592.649 471.09C586.979 471.09 575.029 459.4 575.029 459.4L579.249 442.82C579.269 442.82 593.329 422.07 595.919 424.57Z" fill="#8D1A00"/>
<path fill-rule="evenodd" clip-rule="evenodd" d="M536.99 449.24C536.99 449.24 529.39 435.64 539.68 427.14C549.98 418.65 570.7 411.18 586.53 417.62C593.42 421.15 595.93 424.57 595.93 424.57V440.92C595.93 440.92 594.38 434.23 590.65 434.23C586.92 434.23 587.05 440.41 587.05 443.63C587.05 446.85 589.17 455.99 581.67 457.4C574.17 458.8 536.99 449.24 536.99 449.24Z" fill="#CF1D00"/>
<path d="M594.521 450.43C594.521 450.43 594.321 454.05 592.151 454.05C589.981 454.05 588.021 452.22 587.311 448.22" stroke="#8D1A00" stroke-width="2.0833" stroke-miterlimit="10" stroke-linecap="round" stroke-linejoin="round"/>
<path d="M604.169 436.36H594.52" stroke="#8D1A00" stroke-width="1.815" stroke-miterlimit="10" stroke-linecap="round" stroke-linejoin="round"/>
<path fill-rule="evenodd" clip-rule="evenodd" d="M550.92 448.23C540.67 448.23 509.29 450.04 499.44 472.16C489.59 494.28 471.49 540.54 471.49 540.54H559.37C559.37 540.54 565.4 554.42 583.9 554.42C602.4 554.42 633.57 540.54 633.57 540.54C633.57 540.54 648.85 522.44 630.75 514.4H593.75V475.99C593.75 468.34 581.89 448.23 550.92 448.23Z" fill="#0089E3"/>
<path d="M571.43 594.23H609.24" stroke="#CF1D00" stroke-width="2.0833" stroke-miterlimit="10" stroke-linecap="round" stroke-linejoin="round"/>
<path fill-rule="evenodd" clip-rule="evenodd" d="M644.65 457.85C649.75 457.85 653.9 462 653.9 467.1C653.9 472.2 649.75 476.35 644.65 476.35C639.54 476.35 635.4 472.21 635.4 467.1C635.4 461.99 639.55 457.85 644.65 457.85Z" fill="white"/>
<path d="M666.176 467.013C666.221 461.904 662.116 457.726 657.007 457.681C651.899 457.636 647.721 461.74 647.676 466.849C647.63 471.958 651.735 476.136 656.844 476.181C661.952 476.226 666.13 472.121 666.176 467.013Z" fill="white"/>
<path d="M559.37 540.53C553.94 529.07 555.54 494.88 555.54 482.81" stroke="black" stroke-width="2.0833" stroke-miterlimit="10" stroke-linecap="round" stroke-linejoin="round"/>
<path d="M593.75 514.39V526.66" stroke="black" stroke-width="2.0833" stroke-miterlimit="10" stroke-linecap="round" stroke-linejoin="round"/>
<path d="M634.439 485.78C639.548 485.78 643.689 481.638 643.689 476.53C643.689 471.421 639.548 467.28 634.439 467.28C629.331 467.28 625.189 471.421 625.189 476.53C625.189 481.638 629.331 485.78 634.439 485.78Z" fill="#FFC7BF"/>
<path fill-rule="evenodd" clip-rule="evenodd" d="M650.449 467.28C655.559 467.28 659.699 471.43 659.699 476.53C659.699 481.64 655.549 485.78 650.449 485.78C645.349 485.78 641.199 481.63 641.199 476.53C641.199 471.42 645.349 467.28 650.449 467.28Z" fill="#FFC7BF"/>
<path fill-rule="evenodd" clip-rule="evenodd" d="M667.121 467.28C672.221 467.28 676.371 471.43 676.371 476.53C676.371 481.64 672.221 485.78 667.121 485.78C662.011 485.78 657.871 481.63 657.871 476.53C657.871 471.42 662.021 467.28 667.121 467.28Z" fill="#FFC7BF"/>
<path fill-rule="evenodd" clip-rule="evenodd" d="M678.47 476.6H622.85L636.76 547.62H664.57L678.47 476.6Z" fill="#CF1D00"/>
<path fill-rule="evenodd" clip-rule="evenodd" d="M630.25 514.4C630.25 514.4 628.78 510.84 626.44 505.68C624.05 500.4 631.16 501.31 635.54 506.69C637.65 509.29 640.89 515.02 648 511.68C655.11 508.34 661.28 504.63 662.83 506.69C664.38 508.75 660.77 511.01 659.53 511.68C663.01 509.55 665.39 508.77 666.42 510.37C667.45 511.97 663.51 514.59 662.16 515.45C664.43 514.33 667.98 513.49 668.47 515.62C668.96 517.71 665.54 518.98 663.74 519.8C665.8 518.96 669.07 519.44 669.06 521.59C669.06 524.23 665.6 525.2 661.59 527.24C659.29 528.41 633.82 540.52 633.82 540.52L630.25 514.4Z" fill="#8D1A00"/>
<path d="M662.659 510.03L653.77 514.45" stroke="#8D1A00" stroke-width="2.0833" stroke-miterlimit="10" stroke-linecap="round" stroke-linejoin="round"/>
<path d="M664.031 514.4L655.141 518.82" stroke="#8D1A00" stroke-width="2.0833" stroke-miterlimit="10" stroke-linecap="round" stroke-linejoin="round"/>
<path d="M665.611 518.99L656.721 523.41" stroke="#8D1A00" stroke-width="2.0833" stroke-miterlimit="10" stroke-linecap="round" stroke-linejoin="round"/>
<path fill-rule="evenodd" clip-rule="evenodd" d="M596.151 607.49C596.151 603.97 594.751 600.6 592.261 598.11C589.771 595.62 586.401 594.22 582.881 594.22C559.481 594.22 513.291 594.22 513.291 594.22V620.75H582.881C586.401 620.75 589.771 619.35 592.261 616.86C594.751 614.37 596.151 611.02 596.151 607.49C596.151 607.5 596.151 607.5 596.151 607.49Z" fill="#8D1A00"/>
<path fill-rule="evenodd" clip-rule="evenodd" d="M535.421 607.49C535.421 603.97 534.021 600.6 531.531 598.11C529.041 595.62 525.671 594.22 522.151 594.22C498.751 594.22 452.561 594.22 452.561 594.22V620.75H522.151C525.671 620.75 529.041 619.35 531.531 616.86C534.021 614.37 535.421 611.02 535.421 607.49C535.421 607.5 535.421 607.5 535.421 607.49Z" fill="#CF1D00"/>
<path d="M571.431 620.76H550.791V646.5H571.431V620.76Z" fill="#CF1D00"/>
<path d="M550.791 620.76H464.391V646.5H550.791V620.76Z" fill="#FBBE2E"/>
<path fill-rule="evenodd" clip-rule="evenodd" d="M634.451 666.56C634.451 661.24 632.341 656.14 628.581 652.38C624.821 648.62 619.721 646.51 614.401 646.51C574.971 646.51 491.141 646.51 491.141 646.51V697.19H614.401C619.721 697.19 624.821 695.08 628.581 691.32C632.341 687.56 634.451 682.46 634.451 677.14V666.56Z" fill="#BDC7FB"/>
<path fill-rule="evenodd" clip-rule="evenodd" d="M593.22 666.56C593.22 661.24 591.11 656.14 587.35 652.38C583.59 648.62 578.49 646.51 573.17 646.51C533.74 646.51 449.91 646.51 449.91 646.51V697.19H573.17C578.49 697.19 583.59 695.08 587.35 691.32C591.11 687.56 593.22 682.46 593.22 677.14V666.56Z" fill="white"/>
<path d="M538.54 697.18H467.75V734.68H538.54V697.18Z" fill="#BDC7FB"/>
<path d="M609.331 697.18H538.541V734.68H609.331V697.18Z" fill="#8D1A00"/>
<path fill-rule="evenodd" clip-rule="evenodd" d="M739.011 610.94H695.371C684.311 610.94 679.281 616.77 674.861 625.62C670.431 634.47 626.391 724.16 626.391 724.16L652.941 734.69L672.251 699.23C672.251 699.23 668.431 734.69 689.541 734.69H723.131C723.131 734.69 755.101 654.98 760.731 642.11C767.781 626 752.081 610.94 739.011 610.94Z" fill="#BDC7FB"/>
<path d="M672.25 699.22C672.85 691.98 682.3 658.8 688.54 641.9" stroke="#8D1A00" stroke-width="2.0833" stroke-miterlimit="10" stroke-linecap="round" stroke-linejoin="round"/>
<path d="M714.845 617.678C724.691 617.473 732.506 609.326 732.301 599.48C732.096 589.635 723.949 581.82 714.104 582.025C704.258 582.23 696.443 590.377 696.648 600.222C696.853 610.067 705 617.883 714.845 617.678Z" fill="#CF1D00"/>
<path d="M723.12 734.68L701.6 723.96L727.35 641.91" stroke="#8D1A00" stroke-width="2.0833" stroke-miterlimit="10" stroke-linecap="round" stroke-linejoin="round"/>
<path fill-rule="evenodd" clip-rule="evenodd" d="M701.6 723.96C700.57 726.47 698.461 728.79 694.431 728.92C690.401 729.05 683.971 731.2 682.811 734.69H723.12C723.12 734.68 706.5 726.6 701.6 723.96Z" fill="#CF1D00"/>
<path fill-rule="evenodd" clip-rule="evenodd" d="M626.49 723.96C624.62 727.16 609.66 726.66 602.9 729.32C596.14 731.99 595.34 734.68 595.34 734.68H652.94C652.94 734.68 631.74 725.9 626.49 723.96Z" fill="#CF1D00"/>
<path fill-rule="evenodd" clip-rule="evenodd" d="M744.089 682.66C744.089 682.66 767.009 665.38 773.919 660.71C780.839 656.04 791.129 658.3 795.639 667.15C800.139 676 816.389 714.93 816.389 714.93H787.109L778.259 702.7C778.259 702.7 749.139 729.17 743.509 734.68H723.119L744.089 682.66Z" fill="#FBBE2E"/>
<path d="M778.26 702.71L785.07 696.51" stroke="#CF1D00" stroke-width="2.0833" stroke-miterlimit="10" stroke-linecap="round" stroke-linejoin="round"/>
<path fill-rule="evenodd" clip-rule="evenodd" d="M787.109 714.93L801.409 734.68H840.499C840.499 734.68 839.469 731.8 833.799 729.32C828.139 726.84 820.609 724.01 816.399 714.93H787.109Z" fill="#8D1A00"/>
<path fill-rule="evenodd" clip-rule="evenodd" d="M809.5 698.58L828.65 706.5V726.99C828.65 726.99 821.5 725.81 816.39 714.93C811.28 704.06 809.5 698.58 809.5 698.58Z" fill="#CF1D00"/>
<path fill-rule="evenodd" clip-rule="evenodd" d="M828.65 706.5C828.65 706.5 839.46 713.45 846.92 705.34C854.39 697.23 855.8 691.05 860.44 690.15C859.28 698.52 854.9 734.68 854.9 734.68H828.65V706.5Z" fill="#8D1A00"/>
<path fill-rule="evenodd" clip-rule="evenodd" d="M1148.82 679.46C1148.82 679.46 1133.82 669.48 1124.16 679.46C1114.51 689.44 1119.73 711.76 1135.02 721.62C1150.3 731.47 1162.77 735.29 1177.05 735.29H1261.92C1280.62 735.29 1290.88 726.84 1298.12 717.19C1305.36 707.54 1309.98 687.23 1301.14 675.76C1292.29 664.3 1274.02 674.3 1267.37 677.14C1260.72 679.98 1251.11 679.45 1251.11 679.45H1148.82V679.46Z" fill="#BDC7FB"/>
<path fill-rule="evenodd" clip-rule="evenodd" d="M1218.28 591.47C1200.63 591.47 1188.1 594.5 1181.82 597.1C1173.93 600.37 1166.4 611.34 1163.39 622.9C1160.37 634.46 1150.82 656.59 1148.81 663.37C1146.8 670.16 1146.55 683.98 1154.84 683.98H1161.13L1162.38 679.45H1251.12L1253.13 685.73C1253.13 685.73 1278.02 679.19 1271.23 656.82C1264.44 634.45 1256.65 620.62 1253.38 612.83C1250.11 605.04 1247.78 599.69 1238.55 595.81C1229.58 592.06 1222.18 591.47 1218.28 591.47Z" fill="#CF1D00"/>
<path d="M1161.12 683.99L1157.35 697.69" stroke="#8D1A00" stroke-width="2.0833" stroke-miterlimit="10" stroke-linecap="round" stroke-linejoin="round"/>
<path d="M1253.12 685.74L1256.5 697.69" stroke="#8D1A00" stroke-width="2.0833" stroke-miterlimit="10" stroke-linecap="round" stroke-linejoin="round"/>
<path d="M1162.37 679.46L1173.27 629.89" stroke="#8D1A00" stroke-width="2.0833" stroke-miterlimit="10" stroke-linecap="round" stroke-linejoin="round"/>
<path d="M1250.97 679.46L1240.08 629.89" stroke="#8D1A00" stroke-width="2.0833" stroke-miterlimit="10" stroke-linecap="round" stroke-linejoin="round"/>
<path d="M1211.37 562.64C1219.7 562.64 1226.45 555.888 1226.45 547.56C1226.45 539.232 1219.7 532.48 1211.37 532.48C1203.04 532.48 1196.29 539.232 1196.29 547.56C1196.29 555.888 1203.04 562.64 1211.37 562.64Z" fill="black"/>
<path fill-rule="evenodd" clip-rule="evenodd" d="M1211.37 560.48C1220.89 560.48 1228.62 568.21 1228.62 577.73C1228.62 587.25 1220.89 594.97 1211.37 594.97C1201.85 594.97 1194.12 587.24 1194.12 577.73C1194.12 568.21 1201.85 560.48 1211.37 560.48Z" fill="black"/>
<path d="M1644.29 600.623C1644.46 592.247 1637.81 585.321 1629.43 585.154C1621.05 584.987 1614.13 591.643 1613.96 600.019C1613.79 608.396 1620.45 615.321 1628.83 615.488C1637.2 615.655 1644.13 609 1644.29 600.623Z" fill="white"/>
<path fill-rule="evenodd" clip-rule="evenodd" d="M1685.21 686.19C1685.21 686.19 1698.41 677.41 1706.9 686.19C1715.39 694.97 1710.79 714.6 1697.35 723.27C1683.91 731.94 1672.94 735.3 1660.38 735.3H1585.74C1569.29 735.3 1560.27 727.87 1553.9 719.38C1547.53 710.89 1543.46 693.03 1551.25 682.94C1559.03 672.86 1575.1 681.66 1580.95 684.16C1586.8 686.66 1595.25 686.19 1595.25 686.19H1685.21Z" fill="#0089E3"/>
<path d="M1674.4 690.17L1677.71 702.22" stroke="#8D1A00" stroke-width="2.0833" stroke-miterlimit="10" stroke-linecap="round" stroke-linejoin="round"/>
<path d="M1593.48 691.71L1590.51 702.22" stroke="#8D1A00" stroke-width="2.0833" stroke-miterlimit="10" stroke-linecap="round" stroke-linejoin="round"/>
<path fill-rule="evenodd" clip-rule="evenodd" d="M1624.33 611.24C1631.02 611.24 1648.19 611.81 1654.53 613.95C1661.64 616.35 1669.76 626.26 1672.42 636.43C1675.07 646.6 1683.47 666.06 1685.24 672.03C1687.01 678 1687.23 690.16 1679.93 690.16H1674.4L1673.29 686.18H1595.24L1593.47 691.71C1593.47 691.71 1571.58 685.96 1577.55 666.28C1583.52 646.6 1590.38 634.44 1593.25 627.59C1596.12 620.74 1598.58 617.07 1606.68 613.61C1614.78 610.17 1621.9 611.24 1624.33 611.24Z" fill="#FBBE2E"/>
<path d="M1673.3 686.19L1663.71 642.59" stroke="#8D1A00" stroke-width="2.0833" stroke-miterlimit="10" stroke-linecap="round" stroke-linejoin="round"/>
<path d="M1595.37 686.19L1604.95 642.59" stroke="#8D1A00" stroke-width="2.0833" stroke-miterlimit="10" stroke-linecap="round" stroke-linejoin="round"/>
<path fill-rule="evenodd" clip-rule="evenodd" d="M1942.98 421.02L1943.18 417.6C1943.18 417.6 1936.95 417.6 1932.93 418C1928.91 418.4 1926.9 412.97 1929.31 403.32C1931.72 393.67 1934.74 367.12 1957.46 367.12C1980.19 367.12 1982 381.4 1982.6 389.85C1983.2 398.3 1980.19 417.8 1980.19 417.8L1942.98 421.02Z" fill="#8D1A00"/>
<path fill-rule="evenodd" clip-rule="evenodd" d="M1961.62 417.01C1952.95 417.01 1935.5 418.43 1924.55 441.85C1913.61 465.27 1902.8 490.12 1902.8 490.12C1902.8 490.12 1892.25 487.03 1886.07 503.63C1879.89 520.23 1895.34 528.32 1899.84 528.97C1904.34 529.63 1921.18 533.54 1930.44 519.54C1939 519.54 2021.26 519.03 2021.26 519.03C2021.26 519.03 2010.26 464.38 2005.16 446.32C2000.05 428.25 1989.96 417.01 1961.62 417.01Z" fill="#CF1D00"/>
<path d="M1930.45 519.54L1971.41 445.36" stroke="#8D1A00" stroke-width="2.0833" stroke-miterlimit="10" stroke-linecap="round" stroke-linejoin="round"/>
<path fill-rule="evenodd" clip-rule="evenodd" d="M1930.45 519.54L1932.95 529.97H1892.57C1882.75 529.97 1860.07 536.49 1863.45 569.65C1866.83 602.8 1894.14 708.73 1894.14 708.73V600.72H2021.26C2031.61 600.72 2034.36 581.87 2033.97 567.73C2033.58 553.59 2021.26 519.04 2021.26 519.04L1930.45 519.54Z" fill="#BDC7FB"/>
<path fill-rule="evenodd" clip-rule="evenodd" d="M1873.83 624.6L1818.83 712.82H1868.1L1888.05 684.58L1873.83 624.6Z" fill="#8D1A00"/>
<path fill-rule="evenodd" clip-rule="evenodd" d="M1818.83 712.82C1815.95 717.1 1816.36 720.91 1822.64 720.5C1828.92 720.09 1863.1 720.5 1863.1 720.5L1868.1 712.82H1818.83Z" fill="#8D1A00"/>
<path fill-rule="evenodd" clip-rule="evenodd" d="M1818.83 712.82C1818.83 712.82 1791.55 726.16 1784.86 729.46C1778.17 732.75 1776.31 736.05 1781.46 736.05H1870.94C1870.94 732.45 1865.28 728.64 1865.28 725.44C1865.28 722.25 1866.79 721.87 1864.64 718.15C1863.84 719.37 1863.11 720.5 1863.11 720.5H1819.83C1818.78 720.5 1817.8 719.95 1817.25 719.05C1816.7 718.15 1816.66 717.03 1817.15 716.1C1818.03 714.38 1818.83 712.82 1818.83 712.82Z" fill="#CF1D00"/>
<path d="M1894.14 600.72H1880.16" stroke="#8D1A00" stroke-width="2.0833" stroke-miterlimit="10" stroke-linecap="round" stroke-linejoin="round"/>
<path d="M1932.95 529.97H1970.66" stroke="#8D1A00" stroke-width="2.0833" stroke-miterlimit="10" stroke-linecap="round" stroke-linejoin="round"/>
<path d="M1902.8 490.12L1898.24 500.53" stroke="#8D1A00" stroke-width="2.0833" stroke-miterlimit="10" stroke-linecap="round" stroke-linejoin="round"/>
<path fill-rule="evenodd" clip-rule="evenodd" d="M1932.95 388.63C1932.95 388.63 1928.09 394.78 1926.14 397.41C1924.54 399.57 1927.2 400.2 1930.02 400.2C1931.07 396.31 1932.95 388.63 1932.95 388.63Z" fill="#8D1A00"/>
<path d="M1944.12 386.13C1944.12 386.13 1945.92 381.59 1949.82 383.23C1953.72 384.86 1952.45 390.19 1951.51 393.46C1950.56 396.73 1947.5 399.89 1944.87 399C1942.23 398.1 1942.65 394.42 1942.65 394.42" stroke="black" stroke-width="2.0833" stroke-miterlimit="10" stroke-linecap="round" stroke-linejoin="round"/>
<path d="M1997.69 600.72H1894.14V736.05H1997.69V600.72Z" fill="#B9E2FE"/>
<path d="M2041.93 600.72H1997.69V736.05H2041.93V600.72Z" fill="#0089E3"/>
<path fill-rule="evenodd" clip-rule="evenodd" d="M2091.07 216.9C2100.78 216.9 2108.67 224.78 2108.67 234.5C2108.67 244.21 2100.79 252.1 2091.07 252.1C2081.35 252.1 2073.47 244.22 2073.47 234.5C2073.47 224.78 2081.35 216.9 2091.07 216.9Z" fill="#8D1A00"/>
<path fill-rule="evenodd" clip-rule="evenodd" d="M2078.42 222.27C2078.42 222.27 2085.64 210.2 2101.07 210.2C2116.5 210.2 2126.68 225.22 2127.77 235.86C2128.78 245.78 2133.59 270.69 2115.09 270.69C2096.59 270.69 2094.52 250.51 2094.15 239.42C2093.83 229.8 2093.12 228.61 2091.08 227.57C2089.1 226.57 2085.78 228.89 2085.78 231.84C2085.76 225.14 2078.42 222.27 2078.42 222.27Z" fill="#CF1D00"/>
<path fill-rule="evenodd" clip-rule="evenodd" d="M2089.65 252.09C2081.77 253.51 2061.98 256.64 2058.12 270.68C2054.26 284.72 2044.44 328.32 2044.44 328.32C2044.44 328.32 2034.3 327.68 2032.21 342.48C2030.12 357.28 2040.26 361.79 2045.24 361.46C2050.23 361.14 2058.59 358.73 2063.9 354.86C2065.02 360.01 2075.75 362.1 2085.75 362.1H2136.62V344.72C2136.62 344.72 2149.01 341.66 2149.65 326.7C2150.3 311.74 2149.65 281.17 2149.65 274.9C2149.65 268.63 2143.12 256.35 2132.39 254.12C2121.67 251.9 2097.54 250.67 2089.65 252.09Z" fill="#BDC7FB"/>
<path d="M2044.45 328.32L2040.33 346.46" stroke="#8D1A00" stroke-width="2.0833" stroke-miterlimit="10" stroke-linecap="round" stroke-linejoin="round"/>
<path d="M2063.91 354.87L2086.12 282.08" stroke="#8D1A00" stroke-width="2.0833" stroke-miterlimit="10" stroke-linecap="round" stroke-linejoin="round"/>
<path d="M2136.63 344.74V282.08" stroke="#8D1A00" stroke-width="2.0833" stroke-miterlimit="10" stroke-linecap="round" stroke-linejoin="round"/>
<path fill-rule="evenodd" clip-rule="evenodd" d="M2060.24 357.1V706.07H2127.46C2127.46 706.07 2128.23 603.46 2128.44 574.49C2128.66 545.52 2143.17 442.91 2144.15 418.36C2145.13 393.81 2136.63 362.12 2136.63 362.12L2060.24 357.1Z" fill="#FBBE2E"/>
<path d="M2098.22 402.64H2132.61" stroke="#CF1D00" stroke-width="2.0833" stroke-miterlimit="10" stroke-linecap="round" stroke-linejoin="round"/>
<path d="M2112.24 402.64V706.07" stroke="#CF1D00" stroke-width="2.0833" stroke-miterlimit="10" stroke-linecap="round" stroke-linejoin="round"/>
<path fill-rule="evenodd" clip-rule="evenodd" d="M2071.26 706.07C2071.26 706.07 2064.99 725.38 2051.31 728.76C2037.63 732.14 2050.83 736.04 2050.83 736.04H2096.68V706.07H2071.26Z" fill="#0089E3"/>
<path fill-rule="evenodd" clip-rule="evenodd" d="M2121.46 706.07V717.98C2121.46 722.16 2130.31 727.88 2129.02 736.04H2096.68V706.07H2121.46Z" fill="#0089E3"/>
</g>
<defs>
<clipPath id="clip0_450:18376">
<rect width="2155" height="745" fill="white"/>
</clipPath>
</defs>
</svg>
