<svg width="833" height="989" viewBox="0 0 833 989" fill="none" xmlns="http://www.w3.org/2000/svg">
<path fill-rule="evenodd" clip-rule="evenodd" d="M141.588 330L256.401 491.959C257.02 492.826 257.388 493.847 257.464 494.91C257.541 495.973 257.323 497.036 256.835 497.983C256.348 498.93 255.608 499.724 254.699 500.278C253.79 500.833 252.745 501.125 251.681 501.124H31.51C30.4488 501.117 29.4097 500.819 28.5057 500.263C27.6017 499.707 26.8673 498.913 26.3822 497.968C25.8972 497.024 25.6801 495.964 25.7545 494.905C25.8289 493.845 26.192 492.827 26.8043 491.959C51.9411 456.476 141.588 330 141.588 330Z" fill="#B9E2FE"/>
<path fill-rule="evenodd" clip-rule="evenodd" d="M170.448 201.734C170.448 200.153 169.82 198.637 168.703 197.519C167.586 196.401 166.071 195.773 164.491 195.773H118.64C117.06 195.773 115.545 196.401 114.428 197.519C113.311 198.637 112.684 200.153 112.684 201.734C112.684 203.315 113.311 204.831 114.428 205.949C115.545 207.067 117.06 207.695 118.64 207.695H164.551C166.13 207.695 167.646 207.067 168.763 205.949C169.88 204.831 170.507 203.315 170.507 201.734H170.448Z" fill="#B9E2FE"/>
<path d="M161.842 201.734H121.352V366.183H161.842V201.734Z" fill="#B9E2FE"/>
<path fill-rule="evenodd" clip-rule="evenodd" d="M692.215 268.78H631.875L552.994 189.842V399.594H509.66V86.0913L692.215 268.78Z" fill="#60D399"/>
<path d="M307.614 87.656H277.578V439.637H307.614V87.656Z" fill="#FBBE2E"/>
<path d="M337.649 87.656H307.613V389.088H337.649V87.656Z" fill="#FFF3D6"/>
<path d="M277.562 87.656H247.525V389.088H277.562V87.656Z" fill="#FFF3D6"/>
<path fill-rule="evenodd" clip-rule="evenodd" d="M292.587 0L337.649 87.6561H247.525L292.587 0Z" fill="#FEDD8E"/>
<path fill-rule="evenodd" clip-rule="evenodd" d="M292.589 0L302.209 18.7175H282.969L292.589 0Z" fill="black"/>
<path d="M777.249 369.7C794.789 292.19 746.22 215.127 668.767 197.574C591.314 180.021 514.307 228.625 496.767 306.135C479.227 383.645 527.796 460.709 605.249 478.262C682.702 495.815 759.709 447.21 777.249 369.7Z" fill="#B9E2FE"/>
<mask id="mask0_450:22386" style="mask-type:alpha" maskUnits="userSpaceOnUse" x="493" y="193" width="288" height="289">
<path d="M777.249 369.7C794.789 292.19 746.22 215.127 668.767 197.574C591.314 180.021 514.307 228.625 496.767 306.135C479.227 383.645 527.796 460.709 605.249 478.262C682.702 495.815 759.709 447.21 777.249 369.7Z" fill="#B9E2FE"/>
</mask>
<g mask="url(#mask0_450:22386)">
<path fill-rule="evenodd" clip-rule="evenodd" d="M750.085 249.049C750.085 249.049 723.071 234.743 699.96 235.041C676.848 235.339 692.514 250.659 700.868 250.361C709.222 250.063 733.629 256.963 727.866 266.575C722.103 276.187 683.192 267.186 661.852 265.681C640.513 264.175 616.508 284.294 637.058 305.619C657.608 326.945 686.453 311.327 703.266 305.917C720.078 300.508 736.027 305.023 729.37 320.328C722.714 335.633 674.748 334.455 645.353 330.849C615.957 327.243 617.133 356.064 630.64 378C644.146 399.937 678.754 421.53 687.153 446.164C690.787 456.804 724.59 469.054 743.86 444.301C753.45 431.962 768.393 400.399 777 388C791.072 367.718 780.85 337.957 780.85 337.957C780.85 337.957 788.207 270.852 750.085 249.049Z" fill="#4FB3F6"/>
<path fill-rule="evenodd" clip-rule="evenodd" d="M519.505 255.115C519.505 255.115 555.929 294.815 550.777 323.577C545.625 352.338 525.462 371.547 500.399 382.843C466.551 353.083 492.611 262.715 519.505 255.115Z" fill="#4FB3F6"/>
</g>
<path fill-rule="evenodd" clip-rule="evenodd" d="M504.196 393.037C504.196 393.037 544.403 391.934 551.298 405.868C558.192 419.802 564.149 450.948 571.029 465.806C577.909 480.663 495.678 432.26 504.196 393.037Z" fill="#163BF3"/>
<path d="M493.266 337.957H780.85" stroke="black" stroke-width="0.76" stroke-linecap="round" stroke-linejoin="round"/>
<path d="M637.058 194.06C658.799 194.06 676.446 258.542 676.446 337.957C676.446 417.373 658.799 481.855 637.058 481.855C615.316 481.855 597.67 417.373 597.67 337.957C597.67 258.542 615.316 194.06 637.058 194.06Z" stroke="black" stroke-width="0.76" stroke-linecap="round" stroke-linejoin="round"/>
<path d="M637.058 481.855C696.043 481.855 743.859 417.43 743.859 337.957C743.859 258.485 696.043 194.06 637.058 194.06C578.073 194.06 530.256 258.485 530.256 337.957C530.256 417.43 578.073 481.855 637.058 481.855Z" stroke="black" stroke-width="0.76" stroke-linecap="round" stroke-linejoin="round"/>
<path d="M740.687 446.954H17.3184V938.436H740.687V446.954Z" fill="#163BF3"/>
<path d="M758.006 432.752H0V446.954H758.006V432.752Z" fill="#163BF3"/>
<path d="M740.687 446.954H17.3184V461.156H740.687V446.954Z" fill="black"/>
<path d="M832.999 432.752H758.006V446.954H832.999V432.752Z" fill="#4FB3F6"/>
<path d="M815.681 446.954H740.688V938.436H815.681V446.954Z" fill="#4FB3F6"/>
<path d="M815.681 446.954H740.688V461.156H815.681V446.954Z" fill="#163BF3"/>
<path d="M167.379 522.047H77.3008V558.111H167.379V522.047Z" stroke="#4FB3F6" stroke-width="2.11" stroke-linecap="round" stroke-linejoin="round"/>
<path d="M77.302 522.047H43.3047" stroke="#4FB3F6" stroke-width="2.11" stroke-linecap="round" stroke-linejoin="round"/>
<path d="M201.378 558.111H167.381" stroke="#4FB3F6" stroke-width="2.11" stroke-linecap="round" stroke-linejoin="round"/>
<path d="M122.348 485.998V522.047" stroke="#4FB3F6" stroke-width="2.11" stroke-linecap="round" stroke-linejoin="round"/>
<path d="M122.348 558.111V594.16" stroke="#4FB3F6" stroke-width="2.11" stroke-linecap="round" stroke-linejoin="round"/>
<path d="M537.508 399.594H389.367V432.752H537.508V399.594Z" fill="#FFC7BF"/>
<path d="M389.368 177.443H325.617V432.752H389.368V177.443Z" fill="#FFC7BF"/>
<path d="M262.909 314.262H199.158V432.752H262.909V314.262Z" fill="#FFC7BF"/>
<path fill-rule="evenodd" clip-rule="evenodd" d="M357.501 93.1104L397.797 177.443H317.189L357.501 93.1104Z" fill="#FF341A"/>
<path fill-rule="evenodd" clip-rule="evenodd" d="M231.027 229.93L271.338 314.263H190.73L231.027 229.93Z" fill="#FF341A"/>
<path d="M325.633 348.479H262.91V432.752H325.633V348.479Z" fill="#FFC7BF"/>
<path d="M277.578 348.479H262.91V432.752H277.578V348.479Z" fill="#FF341A"/>
<path fill-rule="evenodd" clip-rule="evenodd" d="M364.261 201.511C364.261 200.23 363.753 199.002 362.848 198.097C361.943 197.191 360.716 196.682 359.436 196.682C358.157 196.682 356.929 197.191 356.024 198.097C355.12 199.002 354.611 200.23 354.611 201.511V219.066H364.261V201.511Z" fill="#FF341A"/>
<path fill-rule="evenodd" clip-rule="evenodd" d="M237.786 338.285C237.786 337.005 237.278 335.776 236.373 334.871C235.468 333.965 234.241 333.457 232.962 333.457C231.682 333.457 230.455 333.965 229.55 334.871C228.645 335.776 228.137 337.005 228.137 338.285V355.84H237.786V338.285Z" fill="#FF341A"/>
<path d="M389.368 177.443H325.617V182.778H389.368V177.443Z" fill="black"/>
<path d="M262.909 314.262H199.158V319.598H262.909V314.262Z" fill="black"/>
<path d="M389.368 348.479H325.617V432.752H389.368V348.479Z" fill="#FFE8E5"/>
<path d="M161.842 207.65H121.352V213.82H161.842V207.65Z" fill="black"/>
<path fill-rule="evenodd" clip-rule="evenodd" d="M264.934 899.183H586.083C586.083 899.183 485.283 853.075 427.668 853.075C370.053 853.075 264.934 899.183 264.934 899.183Z" fill="#FFC7BF"/>
<path fill-rule="evenodd" clip-rule="evenodd" d="M600.247 903.773C600.248 903.17 600.131 902.572 599.901 902.015C599.671 901.457 599.333 900.951 598.907 900.524C598.046 899.672 596.886 899.19 595.675 899.183H255.345C254.134 899.19 252.974 899.672 252.114 900.524C251.687 900.951 251.349 901.457 251.119 902.015C250.889 902.572 250.772 903.17 250.773 903.773C250.773 904.986 251.255 906.15 252.112 907.008C252.97 907.866 254.133 908.348 255.345 908.348H595.66C596.873 908.348 598.036 907.866 598.893 907.008C599.75 906.15 600.232 904.986 600.232 903.773H600.247Z" fill="black"/>
<path fill-rule="evenodd" clip-rule="evenodd" d="M425.51 974.977C521.947 974.977 600.247 978.121 600.247 981.996C600.247 985.871 521.947 989 425.51 989C329.073 989 250.773 985.856 250.773 982.07C250.773 978.285 329.103 974.977 425.51 974.977Z" fill="#FFC7BF"/>
<path d="M282.029 908.348H272.588V981.996H282.029V908.348Z" fill="black"/>
<path d="M578.429 908.348H568.988V981.996H578.429V908.348Z" fill="black"/>
<path d="M61.248 982.07C61.248 982.07 147.231 822.719 238.635 793.301C334.149 762.572 418.629 854.044 418.629 854.044V721.755" stroke="white" stroke-width="2.11" stroke-linecap="round" stroke-linejoin="round"/>
<path fill-rule="evenodd" clip-rule="evenodd" d="M381.728 472.407C381.728 472.407 342.191 521.973 326.317 540.511C310.442 559.05 338.036 582.685 358.065 566.978C377.514 551.673 395.666 533.731 395.666 533.731C395.666 533.731 390.737 617.274 389.412 641.028C388.027 665.975 387.774 680.073 387.565 693.902C387.387 706.703 409.575 717.746 415.234 698.671C420.893 679.596 442.604 553.044 446.297 537.725C449.991 522.405 461.382 501.959 461.382 501.959L381.728 472.407Z" fill="white"/>
<path d="M375.504 521.168L417.84 541.823" stroke="#163BF3" stroke-width="2.11" stroke-linecap="round" stroke-linejoin="round"/>
<path fill-rule="evenodd" clip-rule="evenodd" d="M325.96 563.789C331.246 573.923 341.551 582.179 344.708 586.143C353.241 596.813 369.905 582.626 365.556 573.401C361.208 564.176 347.686 541.853 347.686 541.853C347.686 541.853 319.407 551.241 325.96 563.789Z" fill="white"/>
<path d="M360.671 564.072L354.506 553.491" stroke="#163BF3" stroke-width="2.11" stroke-linecap="round" stroke-linejoin="round"/>
<path fill-rule="evenodd" clip-rule="evenodd" d="M363.77 566.099C356.905 560.227 350.576 568.155 342.714 577.097C334.851 586.038 318.455 606.38 327.822 614.249C337.189 622.117 354.433 597.126 358.782 592.133C363.13 587.141 371.812 572.969 363.77 566.099Z" fill="black"/>
<path fill-rule="evenodd" clip-rule="evenodd" d="M399.688 679.015C390.753 677.36 389.264 687.405 386.956 699.088C384.648 710.772 380.582 736.583 392.54 738.744C404.498 740.904 407.059 710.608 408.31 704.11C409.561 697.613 410.082 680.952 399.688 679.015Z" fill="black"/>
<path fill-rule="evenodd" clip-rule="evenodd" d="M457.527 346.154C462.219 346.154 466.805 347.546 470.706 350.155C474.607 352.763 477.648 356.471 479.443 360.809C481.239 365.146 481.708 369.92 480.793 374.525C479.878 379.13 477.619 383.36 474.301 386.68C470.983 390 466.756 392.261 462.155 393.177C457.553 394.093 452.783 393.623 448.449 391.826C444.114 390.029 440.409 386.986 437.803 383.082C435.196 379.178 433.805 374.589 433.805 369.893C433.809 363.598 436.309 357.563 440.757 353.111C445.205 348.66 451.237 346.158 457.527 346.154Z" fill="black"/>
<path fill-rule="evenodd" clip-rule="evenodd" d="M452.061 387.553C452.061 387.553 455.829 388.924 465.88 393.156C473.952 396.554 481.278 401.01 486.877 411.158C497.644 430.665 484.227 451.752 484.227 451.752L457.169 511.034L381.729 472.407L408.965 402.202L417.289 333.934L427.058 258.572L445.032 255.696L452.061 387.553Z" fill="#4FB3F6"/>
<path fill-rule="evenodd" clip-rule="evenodd" d="M427.386 258.572C427.044 254.817 426.076 238.603 426.269 235.026C426.463 231.45 428.965 231.837 429.054 234.132C429.144 236.427 430.052 243.491 430.052 243.491C430.052 243.491 430.752 230.839 430.945 227.754C431.139 224.669 433.447 224.669 433.73 227.456C434.013 230.243 433.641 240.6 433.641 240.6C433.641 240.6 435.234 229.05 435.726 226.86C436.217 224.669 438.212 223.879 438.212 226.562C438.212 229.244 438.019 239.214 438.019 239.214C438.019 239.214 440.61 228.156 440.997 226.457C441.384 224.758 443.975 224.073 443.797 226.651C443.618 229.229 442.68 239.11 442.308 242.299C441.935 245.488 443.365 248.468 447.445 245.875C451.525 243.282 451.719 242.984 453.119 242.001C454.519 241.017 455.799 243.193 453.908 244.787C452.017 246.382 449.039 254.921 443.856 255.934C438.674 256.948 429.829 258.647 427.386 258.572Z" fill="#FFC7BF"/>
<path d="M367.045 602.327V658.464" stroke="white" stroke-width="2.11" stroke-linecap="round" stroke-linejoin="round"/>
<path d="M449.648 718.252V744.063" stroke="white" stroke-width="2.11" stroke-linecap="round" stroke-linejoin="round"/>
<path d="M346.004 695.944V721.755" stroke="white" stroke-width="2.11" stroke-linecap="round" stroke-linejoin="round"/>
<path d="M437.422 382.516L451.792 387.538" stroke="#163BF3" stroke-width="0.8" stroke-linecap="round" stroke-linejoin="round"/>
</svg>
