<svg width="1438" height="800" viewBox="0 0 1438 800" fill="none" xmlns="http://www.w3.org/2000/svg">
<g clip-path="url(#clip0_450:19126)">
<path fill-rule="evenodd" clip-rule="evenodd" d="M217.81 302.41L233.97 325.1H201.65L217.81 302.41Z" fill="#FBBE2E"/>
<path d="M217.811 302.33C260.066 302.33 294.321 262.533 294.321 213.44C294.321 164.347 260.066 124.55 217.811 124.55C175.555 124.55 141.301 164.347 141.301 213.44C141.301 262.533 175.555 302.33 217.811 302.33Z" fill="#163BF3"/>
<path d="M219.48 144.25C219.48 144.25 257.75 144.3 274.66 198.78" stroke="white" stroke-width="21.7589" stroke-miterlimit="10" stroke-linecap="round" stroke-linejoin="round"/>
<path fill-rule="evenodd" clip-rule="evenodd" d="M1237.52 307.65L1220.88 331.02H1254.16L1237.52 307.65Z" fill="#FBBE2E"/>
<path d="M1237.52 307.57C1281.02 307.57 1316.29 266.6 1316.29 216.06C1316.29 165.52 1281.02 124.55 1237.52 124.55C1194.02 124.55 1158.75 165.52 1158.75 216.06C1158.75 266.6 1194.02 307.57 1237.52 307.57Z" fill="#163BF3"/>
<path d="M1235.8 144.83C1235.8 144.83 1196.4 144.88 1178.99 200.97" stroke="white" stroke-width="22.4008" stroke-miterlimit="10" stroke-linecap="round" stroke-linejoin="round"/>
<path fill-rule="evenodd" clip-rule="evenodd" d="M103.251 388.32L119.891 411.68H86.6211L103.251 388.32Z" fill="#FBBE2E"/>
<path fill-rule="evenodd" clip-rule="evenodd" d="M103.25 205.17C146.72 205.17 182.021 246.17 182.021 296.68C182.021 347.19 146.72 388.19 103.25 388.19C59.7705 388.19 24.4805 347.19 24.4805 296.68C24.4805 246.18 59.7705 205.17 103.25 205.17Z" fill="#24A865"/>
<path d="M103.25 227.14C103.25 227.14 142.65 227.19 160.06 283.28" stroke="white" stroke-width="22.4008" stroke-miterlimit="10" stroke-linecap="round" stroke-linejoin="round"/>
<path d="M106.6 388.84H99.9004" stroke="black" stroke-width="1.9967" stroke-miterlimit="10" stroke-linecap="round" stroke-linejoin="round"/>
<path d="M99.9009 388.84C54.2209 388.84 23.6209 411.15 34.1709 443.48C45.8509 479.23 121.311 464.91 121.311 520.59C121.311 576.26 15.4609 592.76 15.4609 663.55" stroke="black" stroke-width="1.9967" stroke-miterlimit="10" stroke-linecap="round" stroke-linejoin="round"/>
<path fill-rule="evenodd" clip-rule="evenodd" d="M1349.82 388.32L1333.18 411.68H1366.46L1349.82 388.32Z" fill="#FBBE2E"/>
<path fill-rule="evenodd" clip-rule="evenodd" d="M1349.82 205.17C1306.35 205.17 1271.05 246.17 1271.05 296.68C1271.05 347.19 1306.35 388.19 1349.82 388.19C1393.3 388.19 1428.59 347.19 1428.59 296.68C1428.59 246.18 1393.3 205.17 1349.82 205.17Z" fill="#24A865"/>
<path d="M1349.82 227.14C1349.82 227.14 1310.42 227.19 1293.01 283.28" stroke="white" stroke-width="22.4008" stroke-miterlimit="10" stroke-linecap="round" stroke-linejoin="round"/>
<path d="M1346.47 388.84H1353.17" stroke="black" stroke-width="1.9967" stroke-miterlimit="10" stroke-linecap="round" stroke-linejoin="round"/>
<path d="M1353.17 388.84C1398.85 388.84 1429.46 411.15 1418.9 443.48C1407.22 479.23 1331.76 464.91 1331.76 520.59C1331.76 576.26 1437.61 592.76 1437.61 663.55" stroke="black" stroke-width="1.9967" stroke-miterlimit="10" stroke-linecap="round" stroke-linejoin="round"/>
<path d="M1288.34 568.34H144.82V594.82H1288.34V568.34Z" fill="#163BF3"/>
<path fill-rule="evenodd" clip-rule="evenodd" d="M144.82 568.34L229.34 489.94H716.58V568.34H144.82Z" fill="#B9E2FE"/>
<path fill-rule="evenodd" clip-rule="evenodd" d="M1288.34 568.34L1203.82 489.94H716.58V568.34H1288.34Z" fill="#B9E2FE"/>
<path d="M275.331 594.82H257.301V800H275.331V594.82Z" fill="#163BF3"/>
<path d="M1175.86 594.82H1157.83V800H1175.86V594.82Z" fill="#163BF3"/>
<path d="M275.331 594.82H257.301V635.59H275.331V594.82Z" fill="black"/>
<path d="M1175.86 594.82H1157.83V635.59H1175.86V594.82Z" fill="black"/>
<path fill-rule="evenodd" clip-rule="evenodd" d="M500.41 500.93L485.93 540.75H952.07L930.21 500.93H500.41Z" fill="#EDF8FF"/>
<path fill-rule="evenodd" clip-rule="evenodd" d="M516.219 506.3L511.799 518.47L918.269 517.48L912.139 506.3H516.219Z" fill="white"/>
<path fill-rule="evenodd" clip-rule="evenodd" d="M677.789 522.83L673.369 535H765.179L758.499 522.83H677.789Z" fill="white"/>
<path d="M952.07 540.75H485.93V551.03H952.07V540.75Z" fill="#4FB3F6"/>
<path d="M930.21 261.12H500.41V271.4H930.21V261.12Z" fill="#B9E2FE"/>
<path d="M930.21 271.4H500.41V500.93H930.21V271.4Z" fill="#4FB3F6"/>
<path d="M919.29 281.84H511.32V490.48H919.29V281.84Z" fill="#163BF3"/>
<path fill-rule="evenodd" clip-rule="evenodd" d="M993.72 528.19C991.96 524.85 988.49 522.77 984.72 522.77H974.17C972.4 522.77 970.75 523.7 969.83 525.22C968.92 526.74 968.86 528.63 969.69 530.2C972.25 535.04 975.53 541.24 977.84 545.62C979.6 548.96 983.06 551.04 986.84 551.04C990.01 551.04 993.94 551.04 997.39 551.04C999.17 551.04 1000.81 550.11 1001.72 548.59C1002.64 547.07 1002.69 545.18 1001.86 543.61C999.32 538.77 996.04 532.56 993.72 528.19Z" fill="#EDF8FF"/>
<path fill-rule="evenodd" clip-rule="evenodd" d="M1015.78 499.93C1012.34 499.93 1009.54 501.36 1009.54 503.12C1009.54 504.88 1012.34 506.31 1015.78 506.31C1019.23 506.31 1022.02 504.88 1022.02 503.12C1022.02 501.36 1019.22 499.93 1015.78 499.93Z" fill="#FBBE2E"/>
<path d="M428.46 91.6899H415.98V503.12H428.46V91.6899Z" fill="#FBBE2E"/>
<path d="M1022.01 91.6899H1009.53V503.12H1022.01V91.6899Z" fill="#FBBE2E"/>
<path fill-rule="evenodd" clip-rule="evenodd" d="M422.22 88.5C425.66 88.5 428.46 89.93 428.46 91.69C428.46 93.45 425.66 94.88 422.22 94.88C418.77 94.88 415.98 93.45 415.98 91.69C415.98 89.93 418.78 88.5 422.22 88.5Z" fill="#DFA98B"/>
<path fill-rule="evenodd" clip-rule="evenodd" d="M1015.78 88.5C1019.23 88.5 1022.02 89.93 1022.02 91.69C1022.02 93.45 1019.22 94.88 1015.78 94.88C1012.34 94.88 1009.54 93.45 1009.54 91.69C1009.53 89.93 1012.33 88.5 1015.78 88.5Z" fill="#DFA98B"/>
<path fill-rule="evenodd" clip-rule="evenodd" d="M422.22 499.93C425.66 499.93 428.46 501.36 428.46 503.12C428.46 504.88 425.66 506.31 422.22 506.31C418.77 506.31 415.98 504.88 415.98 503.12C415.98 501.36 418.78 499.93 422.22 499.93Z" fill="#FBBE2E"/>
<path fill-rule="evenodd" clip-rule="evenodd" d="M1015.78 499.93C1019.23 499.93 1022.02 501.36 1022.02 503.12C1022.02 504.88 1019.22 506.31 1015.78 506.31C1012.34 506.31 1009.54 504.88 1009.54 503.12C1009.54 501.36 1012.33 499.93 1015.78 499.93Z" fill="#FBBE2E"/>
<path fill-rule="evenodd" clip-rule="evenodd" d="M727.831 144.17C593.261 144.17 499.861 120.61 428.461 94.8701V175.52C479.871 194.75 595.121 224.82 727.831 224.82V144.17Z" fill="#FF341A"/>
<path fill-rule="evenodd" clip-rule="evenodd" d="M710.17 144.17C844.74 144.17 938.14 120.61 1009.54 94.8701V175.52C958.13 194.75 843.04 224.65 710.33 224.65L710.17 144.17Z" fill="#FF341A"/>
<path d="M264.4 351.19H251.92V503.12H264.4V351.19Z" fill="#FBBE2E"/>
<path fill-rule="evenodd" clip-rule="evenodd" d="M258.16 348C261.61 348 264.4 349.42 264.4 351.18C264.4 352.94 261.6 354.37 258.16 354.37C254.72 354.37 251.92 352.94 251.92 351.18C251.92 349.42 254.72 348 258.16 348Z" fill="#DFA98B"/>
<path d="M258.16 506.31C261.606 506.31 264.4 504.882 264.4 503.12C264.4 501.358 261.606 499.93 258.16 499.93C254.714 499.93 251.92 501.358 251.92 503.12C251.92 504.882 254.714 506.31 258.16 506.31Z" fill="#FBBE2E"/>
<path d="M264.4 368.33C264.4 368.33 367.98 371.21 415.98 310.71" stroke="#FF341A" stroke-width="1.6667" stroke-miterlimit="10" stroke-linecap="round" stroke-linejoin="round"/>
<path d="M264.4 368.33L251.92 368.35" stroke="#FF341A" stroke-width="1.6667" stroke-miterlimit="10" stroke-linecap="round" stroke-linejoin="round"/>
<path d="M415.98 310.7H428.47" stroke="#FF341A" stroke-width="1.6667" stroke-miterlimit="10" stroke-linecap="round" stroke-linejoin="round"/>
<path fill-rule="evenodd" clip-rule="evenodd" d="M285.98 383.64L294.61 367L277.34 368.33L285.98 383.64Z" fill="#4FB3F6"/>
<path fill-rule="evenodd" clip-rule="evenodd" d="M308.62 380.93L317.25 363.63L299.98 366.28L308.62 380.93Z" fill="#4FB3F6"/>
<path fill-rule="evenodd" clip-rule="evenodd" d="M329.579 376.46L338.209 358.29L320.939 362.66L329.579 376.46Z" fill="#4FB3F6"/>
<path fill-rule="evenodd" clip-rule="evenodd" d="M350.55 370.3L359.18 351.39L341.91 357.24L350.55 370.3Z" fill="#4FB3F6"/>
<path fill-rule="evenodd" clip-rule="evenodd" d="M371.271 361.47L379.901 341.25L362.631 349.71L371.271 361.47Z" fill="#4FB3F6"/>
<path fill-rule="evenodd" clip-rule="evenodd" d="M391.499 349.39L400.129 327.2L382.859 339.61L391.499 349.39Z" fill="#4FB3F6"/>
<path d="M1186.08 351.19H1173.6V503.12H1186.08V351.19Z" fill="#FBBE2E"/>
<path fill-rule="evenodd" clip-rule="evenodd" d="M1179.84 348C1176.39 348 1173.6 349.42 1173.6 351.18C1173.6 352.94 1176.4 354.37 1179.84 354.37C1183.28 354.37 1186.08 352.94 1186.08 351.18C1186.08 349.42 1183.28 348 1179.84 348Z" fill="#DFA98B"/>
<path fill-rule="evenodd" clip-rule="evenodd" d="M1179.84 499.93C1176.39 499.93 1173.6 501.36 1173.6 503.12C1173.6 504.88 1176.4 506.31 1179.84 506.31C1183.28 506.31 1186.08 504.88 1186.08 503.12C1186.08 501.36 1183.28 499.93 1179.84 499.93Z" fill="#FBBE2E"/>
<path d="M1173.6 368.33C1173.6 368.33 1070.03 371.21 1022.02 310.71" stroke="#FF341A" stroke-width="1.6667" stroke-miterlimit="10" stroke-linecap="round" stroke-linejoin="round"/>
<path d="M1173.6 368.33L1186.08 368.35" stroke="#FF341A" stroke-width="1.6667" stroke-miterlimit="10" stroke-linecap="round" stroke-linejoin="round"/>
<path d="M1022.02 310.7H1009.53" stroke="#FF341A" stroke-width="1.6667" stroke-miterlimit="10" stroke-linecap="round" stroke-linejoin="round"/>
<path fill-rule="evenodd" clip-rule="evenodd" d="M1152.03 383.64L1143.39 367L1160.66 368.33L1152.03 383.64Z" fill="#4FB3F6"/>
<path fill-rule="evenodd" clip-rule="evenodd" d="M1129.38 380.93L1120.75 363.63L1138.02 366.28L1129.38 380.93Z" fill="#4FB3F6"/>
<path fill-rule="evenodd" clip-rule="evenodd" d="M1108.42 376.46L1099.79 358.29L1117.06 362.66L1108.42 376.46Z" fill="#4FB3F6"/>
<path fill-rule="evenodd" clip-rule="evenodd" d="M1087.45 370.3L1078.82 351.39L1096.09 357.24L1087.45 370.3Z" fill="#4FB3F6"/>
<path fill-rule="evenodd" clip-rule="evenodd" d="M1066.73 361.47L1058.1 341.25L1075.37 349.71L1066.73 361.47Z" fill="#4FB3F6"/>
<path fill-rule="evenodd" clip-rule="evenodd" d="M1046.5 349.39L1037.87 327.2L1055.14 339.61L1046.5 349.39Z" fill="#4FB3F6"/>
<path d="M509.92 138.65V180.88" stroke="black" stroke-width="1.8333" stroke-miterlimit="10" stroke-linecap="round" stroke-linejoin="round"/>
<path d="M509.92 138.65H519.71C522.51 138.65 525.19 139.76 527.17 141.74C529.15 143.72 530.27 146.4 530.27 149.2C530.27 152 529.16 154.68 527.17 156.66C525.19 158.64 522.51 159.75 519.71 159.75C514.76 159.75 509.92 159.75 509.92 159.75" stroke="black" stroke-width="1.8333" stroke-miterlimit="10" stroke-linecap="round" stroke-linejoin="round"/>
<path d="M509.92 159.76H519.71C522.51 159.76 525.19 160.87 527.17 162.86C529.15 164.84 530.27 167.52 530.27 170.32C530.27 173.12 529.16 175.8 527.17 177.78C525.19 179.76 522.51 180.87 519.71 180.87C514.76 180.87 509.92 180.87 509.92 180.87" stroke="black" stroke-width="1.8333" stroke-miterlimit="10" stroke-linecap="round" stroke-linejoin="round"/>
<path d="M544.209 146.19V188.42" stroke="black" stroke-width="1.8333" stroke-miterlimit="10" stroke-linecap="round" stroke-linejoin="round"/>
<path d="M554.379 167.3L564.549 188.42" stroke="black" stroke-width="1.8333" stroke-miterlimit="10" stroke-linecap="round" stroke-linejoin="round"/>
<path d="M544.209 146.19H553.999C556.799 146.19 559.479 147.3 561.459 149.28C563.439 151.26 564.549 153.95 564.549 156.75C564.549 159.55 563.439 162.24 561.459 164.22C559.479 166.2 556.799 167.31 553.999 167.31C549.049 167.31 544.209 167.31 544.209 167.31" stroke="black" stroke-width="1.8333" stroke-miterlimit="10" stroke-linecap="round" stroke-linejoin="round"/>
<path d="M908.49 141.04V183.27" stroke="black" stroke-width="1.8333" stroke-miterlimit="10" stroke-linecap="round" stroke-linejoin="round"/>
<path d="M908.49 141.04H918.28C921.08 141.04 923.77 142.15 925.75 144.13C927.73 146.11 928.84 148.8 928.84 151.6C928.84 154.4 927.73 157.09 925.75 159.07C923.77 161.05 921.08 162.16 918.28 162.16C913.33 162.16 908.49 162.16 908.49 162.16" stroke="black" stroke-width="1.8333" stroke-miterlimit="10" stroke-linecap="round" stroke-linejoin="round"/>
<path d="M579.379 195.7L589.549 153.47L599.719 195.7" stroke="black" stroke-width="1.8333" stroke-miterlimit="10" stroke-linecap="round" stroke-linejoin="round"/>
<path d="M584.459 174.58H594.629" stroke="black" stroke-width="1.8333" stroke-miterlimit="10" stroke-linecap="round" stroke-linejoin="round"/>
<path d="M824.92 197.45L835.1 155.22L845.27 197.45" stroke="black" stroke-width="1.8333" stroke-miterlimit="10" stroke-linecap="round" stroke-linejoin="round"/>
<path d="M830.01 176.34H840.18" stroke="black" stroke-width="1.8333" stroke-miterlimit="10" stroke-linecap="round" stroke-linejoin="round"/>
<path d="M618 159.85V202.08" stroke="black" stroke-width="1.8333" stroke-miterlimit="10" stroke-linecap="round" stroke-linejoin="round"/>
<path d="M642.08 204.23V162L662.42 204.23V162" stroke="black" stroke-width="1.8333" stroke-miterlimit="10" stroke-linecap="round" stroke-linejoin="round"/>
<path d="M687.76 163.13V205.36H708.1" stroke="black" stroke-width="1.8333" stroke-miterlimit="10" stroke-linecap="round" stroke-linejoin="round"/>
<path d="M721.879 163.13L732.049 184.25L742.219 163.13" stroke="black" stroke-width="1.8333" stroke-miterlimit="10" stroke-linecap="round" stroke-linejoin="round"/>
<path d="M732.051 184.25V205.36" stroke="black" stroke-width="1.8333" stroke-miterlimit="10" stroke-linecap="round" stroke-linejoin="round"/>
<path d="M806.549 172.71C806.549 172.71 806.549 172.57 806.549 172.32C806.549 166.7 801.999 162.15 796.379 162.15C790.759 162.15 786.209 166.7 786.209 172.32C786.209 178.95 786.209 187.57 786.209 194.21C786.209 199.83 790.759 204.38 796.379 204.38C801.999 204.38 806.549 199.83 806.549 194.21C806.549 193.96 806.549 193.82 806.549 193.82" stroke="black" stroke-width="1.8333" stroke-miterlimit="10" stroke-linecap="round" stroke-linejoin="round"/>
<path d="M865.25 191.9V149.66L875.42 170.78L885.6 149.82V192.05" stroke="black" stroke-width="1.8333" stroke-miterlimit="10" stroke-linecap="round" stroke-linejoin="round"/>
<path d="M773.679 290.46H658.699V481.87H773.679V290.46Z" fill="white"/>
<path fill-rule="evenodd" clip-rule="evenodd" d="M658.699 420.31L692.939 398.84H716.189V481.87H658.699V420.31Z" fill="#FF341A"/>
<path fill-rule="evenodd" clip-rule="evenodd" d="M773.679 420.31L739.439 398.84H716.189C710.009 427.44 708.219 455.39 716.189 481.87H773.679V420.31Z" fill="#FF341A"/>
<path fill-rule="evenodd" clip-rule="evenodd" d="M692.938 398.84C692.938 398.84 695.638 394.47 695.638 389.97C695.638 385.47 691.628 381.79 687.118 375.78C681.608 368.43 679.768 356.23 679.938 348.38C680.108 340.53 684.288 311.96 716.188 311.96C724.718 349.95 721.158 418.24 716.188 417.71L692.938 398.84Z" fill="#FBBE2E"/>
<path fill-rule="evenodd" clip-rule="evenodd" d="M739.449 398.84C739.449 398.84 736.749 394.47 736.749 389.97C736.749 385.47 740.769 381.79 745.269 375.78C750.779 368.43 752.619 356.23 752.449 348.38C752.279 340.53 748.109 311.96 716.199 311.96V417.71L739.449 398.84Z" fill="#FBBE2E"/>
<path fill-rule="evenodd" clip-rule="evenodd" d="M679.95 347.83C679.95 347.83 678.19 343.78 673.91 345.39C669.63 346.99 672.05 359.83 681.59 363.09C685.79 355.23 679.95 347.83 679.95 347.83Z" fill="#FBBE2E"/>
<path fill-rule="evenodd" clip-rule="evenodd" d="M752.45 347.83C752.45 347.83 754.21 343.78 758.49 345.39C762.77 346.99 760.35 359.83 750.82 363.09C746.62 355.23 752.45 347.83 752.45 347.83Z" fill="#FBBE2E"/>
<path fill-rule="evenodd" clip-rule="evenodd" d="M692.94 398.84L688.08 401.97L702.7 428.61L716.19 417.72L692.94 398.84Z" fill="white"/>
<path fill-rule="evenodd" clip-rule="evenodd" d="M739.449 398.84L744.31 401.97L729.689 428.61L716.189 417.72L739.449 398.84Z" fill="white"/>
<path fill-rule="evenodd" clip-rule="evenodd" d="M700.629 359.79H729.879C729.879 359.79 724.209 368.99 716.179 368.99C708.149 368.99 700.629 359.79 700.629 359.79Z" fill="white"/>
<path d="M700.629 342.29V346.36" stroke="black" stroke-width="1.6667" stroke-miterlimit="10" stroke-linecap="round" stroke-linejoin="round"/>
<path d="M729.889 342.29V346.36" stroke="black" stroke-width="1.6667" stroke-miterlimit="10" stroke-linecap="round" stroke-linejoin="round"/>
<path d="M717.299 344.91C717.299 347.46 714.409 351.96 709.519 351.96C705.699 351.96 706.329 356.29 709.379 356.29H719.999" stroke="black" stroke-width="1.6667" stroke-miterlimit="10" stroke-linecap="round" stroke-linejoin="round"/>
<path fill-rule="evenodd" clip-rule="evenodd" d="M679.96 347.7L680.13 354H684.65L689.23 323.05H743.16L747.06 354.05H752.25V348.1C752.25 348.1 754.59 311.97 716.19 311.97C677.79 311.97 679.96 347.7 679.96 347.7Z" fill="black"/>
<path d="M706.869 387.85C706.869 387.85 711.489 391.31 721.339 387.85" stroke="black" stroke-width="1.6667" stroke-miterlimit="10" stroke-linecap="round" stroke-linejoin="round"/>
<path d="M578.399 290.46H520.539V348.32H578.399V290.46Z" fill="white"/>
<path d="M533.769 333.4C538.353 333.4 542.069 329.684 542.069 325.1C542.069 320.516 538.353 316.8 533.769 316.8C529.185 316.8 525.469 320.516 525.469 325.1C525.469 329.684 529.185 333.4 533.769 333.4Z" fill="black"/>
<path fill-rule="evenodd" clip-rule="evenodd" d="M520.539 344.01L538.809 334.17H549.469V348.32H520.539V344.01Z" fill="#FF341A"/>
<path fill-rule="evenodd" clip-rule="evenodd" d="M578.399 344.01L560.129 334.17H549.469C545.059 337.09 540.769 345.32 549.469 348.32H578.399V344.01Z" fill="#FF341A"/>
<path fill-rule="evenodd" clip-rule="evenodd" d="M538.81 334.17C538.81 334.17 540.05 332.17 540.05 330.11C540.05 328.04 538.21 326.36 536.15 323.6C533.62 320.23 532.78 314.64 532.85 311.04C532.93 307.44 534.84 294.34 549.47 294.34C553.38 311.75 551.75 343.06 549.47 342.82L538.81 334.17Z" fill="#FBBE2E"/>
<path fill-rule="evenodd" clip-rule="evenodd" d="M560.129 334.17C560.129 334.17 558.889 332.17 558.889 330.11C558.889 328.04 560.729 326.36 562.789 323.6C565.319 320.23 566.159 314.64 566.079 311.04C565.999 307.44 564.089 294.34 549.459 294.34V342.82L560.129 334.17Z" fill="#FBBE2E"/>
<path fill-rule="evenodd" clip-rule="evenodd" d="M532.859 310.79C532.859 310.79 532.049 308.94 530.089 309.67C528.129 310.4 529.239 316.29 533.609 317.78C535.529 314.18 532.859 310.79 532.859 310.79Z" fill="#FBBE2E"/>
<path fill-rule="evenodd" clip-rule="evenodd" d="M566.089 310.79C566.089 310.79 566.889 308.94 568.859 309.67C570.819 310.4 569.709 316.29 565.339 317.78C563.419 314.18 566.089 310.79 566.089 310.79Z" fill="#FBBE2E"/>
<path fill-rule="evenodd" clip-rule="evenodd" d="M543.52 317.56H555.41C555.41 317.56 553.109 321.3 549.839 321.3C546.579 321.3 543.52 317.56 543.52 317.56Z" fill="white"/>
<path d="M543.52 310.45V312.1" stroke="black" stroke-width="1.6667" stroke-miterlimit="10" stroke-linecap="round" stroke-linejoin="round"/>
<path d="M555.42 310.45V312.1" stroke="black" stroke-width="1.6667" stroke-miterlimit="10" stroke-linecap="round" stroke-linejoin="round"/>
<path d="M550.3 311.51C550.3 312.55 549.13 314.38 547.14 314.38C545.58 314.38 545.84 316.14 547.08 316.14H551.4" stroke="black" stroke-width="1.6667" stroke-miterlimit="10" stroke-linecap="round" stroke-linejoin="round"/>
<path d="M546.059 328.98C546.059 328.98 547.938 330.39 551.938 328.98" stroke="black" stroke-width="1.6667" stroke-miterlimit="10" stroke-linecap="round" stroke-linejoin="round"/>
<path d="M845.688 290.46H787.828V348.32H845.688V290.46Z" fill="white"/>
<path fill-rule="evenodd" clip-rule="evenodd" d="M787.828 344.01L806.098 334.17H816.758V348.32H787.828V344.01Z" fill="#4FB3F6"/>
<path fill-rule="evenodd" clip-rule="evenodd" d="M845.688 344.01L827.418 334.17H816.758C812.348 337.09 808.058 345.32 816.758 348.32H845.688V344.01Z" fill="#4FB3F6"/>
<path fill-rule="evenodd" clip-rule="evenodd" d="M806.099 334.17C806.099 334.17 807.339 332.17 807.339 330.11C807.339 328.04 805.499 326.36 803.439 323.6C800.909 320.23 800.069 314.64 800.139 311.04C800.219 307.44 802.129 294.34 816.759 294.34C820.669 311.75 819.029 343.06 816.759 342.82L806.099 334.17Z" fill="#DFA98B"/>
<path fill-rule="evenodd" clip-rule="evenodd" d="M827.418 334.17C827.418 334.17 826.178 332.17 826.178 330.11C826.178 328.04 828.018 326.36 830.078 323.6C832.608 320.23 833.448 314.64 833.368 311.04C833.298 307.44 831.378 294.34 816.748 294.34V342.82L827.418 334.17Z" fill="#DFA98B"/>
<path fill-rule="evenodd" clip-rule="evenodd" d="M800.148 310.79C800.148 310.79 799.338 308.94 797.378 309.67C795.418 310.4 796.528 316.29 800.898 317.78C802.828 314.18 800.148 310.79 800.148 310.79Z" fill="#DFA98B"/>
<path fill-rule="evenodd" clip-rule="evenodd" d="M833.378 310.79C833.378 310.79 834.178 308.94 836.148 309.67C838.108 310.4 836.998 316.29 832.628 317.78C830.708 314.18 833.378 310.79 833.378 310.79Z" fill="#DFA98B"/>
<path fill-rule="evenodd" clip-rule="evenodd" d="M810.809 316.12H822.708C822.708 316.12 820.409 319.86 817.139 319.86C813.879 319.87 810.809 316.12 810.809 316.12Z" fill="white"/>
<path d="M810.809 309.01V310.67" stroke="black" stroke-width="1.6667" stroke-miterlimit="10" stroke-linecap="round" stroke-linejoin="round"/>
<path d="M822.709 309.01V310.67" stroke="black" stroke-width="1.6667" stroke-miterlimit="10" stroke-linecap="round" stroke-linejoin="round"/>
<path d="M817.588 310.08C817.588 311.12 816.418 312.95 814.418 312.95C812.868 312.95 813.118 314.71 814.368 314.71H818.688" stroke="black" stroke-width="1.6667" stroke-miterlimit="10" stroke-linecap="round" stroke-linejoin="round"/>
<path d="M813.348 327.54C813.348 327.54 815.228 328.95 819.228 327.54" stroke="black" stroke-width="1.6667" stroke-miterlimit="10" stroke-linecap="round" stroke-linejoin="round"/>
<path d="M644.55 290.46H586.689V348.32H644.55V290.46Z" fill="white"/>
<path fill-rule="evenodd" clip-rule="evenodd" d="M615.619 293.6C613.069 293.6 597.559 293.43 595.309 316.82C594.609 324.01 589.069 324.27 590.459 330.68C591.849 337.09 602.269 340.65 608.489 331.46C614.719 322.27 615.619 302.86 615.619 302.86C615.619 302.86 615.619 298.19 615.619 293.6Z" fill="#FF341A"/>
<path fill-rule="evenodd" clip-rule="evenodd" d="M615.619 293.6C618.169 293.6 633.679 293.43 635.929 316.82C636.619 324.01 642.169 324.27 640.779 330.68C639.399 337.09 628.979 340.65 622.749 331.46C616.529 322.27 615.619 302.86 615.619 302.86C615.619 302.86 615.619 298.19 615.619 293.6Z" fill="#FF341A"/>
<path fill-rule="evenodd" clip-rule="evenodd" d="M586.689 344.01L604.969 334.17H615.62V348.32H586.689V344.01Z" fill="#4FB3F6"/>
<path fill-rule="evenodd" clip-rule="evenodd" d="M644.55 344.01L626.28 334.17H615.62C611.21 337.09 606.92 345.32 615.62 348.32H644.55V344.01Z" fill="#4FB3F6"/>
<path fill-rule="evenodd" clip-rule="evenodd" d="M604.97 334.17C604.97 334.17 606.21 332.17 606.21 330.11C606.21 328.04 604.37 326.36 602.31 323.6C599.78 320.23 598.94 314.64 599.01 311.04C599.09 307.44 601 294.34 615.63 294.34C619.54 311.75 617.91 343.06 615.63 342.82L604.97 334.17Z" fill="#DFA98B"/>
<path fill-rule="evenodd" clip-rule="evenodd" d="M626.279 334.17C626.279 334.17 625.039 332.17 625.039 330.11C625.039 328.04 626.879 326.36 628.949 323.6C631.479 320.23 632.319 314.64 632.239 311.04C632.159 307.44 630.249 294.34 615.619 294.34V342.82L626.279 334.17Z" fill="#DFA98B"/>
<path fill-rule="evenodd" clip-rule="evenodd" d="M599.009 310.79C599.009 310.79 598.199 308.94 596.239 309.67C594.279 310.4 595.389 316.29 599.759 317.78C601.679 314.18 599.009 310.79 599.009 310.79Z" fill="#DFA98B"/>
<path fill-rule="evenodd" clip-rule="evenodd" d="M632.239 310.79C632.239 310.79 633.049 308.94 635.009 309.67C636.969 310.4 635.859 316.29 631.489 317.78C629.569 314.18 632.239 310.79 632.239 310.79Z" fill="#DFA98B"/>
<path fill-rule="evenodd" clip-rule="evenodd" d="M609.67 317.56H621.57C621.57 317.56 619.27 321.3 616 321.3C612.74 321.3 609.67 317.56 609.67 317.56Z" fill="white"/>
<path d="M609.67 310.45V312.1" stroke="black" stroke-width="1.6667" stroke-miterlimit="10" stroke-linecap="round" stroke-linejoin="round"/>
<path d="M621.57 310.45V312.1" stroke="black" stroke-width="1.6667" stroke-miterlimit="10" stroke-linecap="round" stroke-linejoin="round"/>
<path d="M616.449 311.51C616.449 312.55 615.269 314.38 613.279 314.38C611.729 314.38 611.979 316.14 613.229 316.14H617.55" stroke="black" stroke-width="1.6667" stroke-miterlimit="10" stroke-linecap="round" stroke-linejoin="round"/>
<path d="M612.209 328.98C612.209 328.98 614.089 330.39 618.089 328.98" stroke="black" stroke-width="1.6667" stroke-miterlimit="10" stroke-linecap="round" stroke-linejoin="round"/>
<path fill-rule="evenodd" clip-rule="evenodd" d="M599.01 310.82C599.01 310.82 613.36 302.98 615.62 294.35C613.84 294.01 605.97 294.65 602.92 298.58C598.23 304.64 599.01 310.82 599.01 310.82Z" fill="#FF341A"/>
<path fill-rule="evenodd" clip-rule="evenodd" d="M632.239 310.82C632.239 310.82 617.889 302.98 615.629 294.35C617.409 294.01 625.269 294.65 628.319 298.58C633.019 304.64 632.239 310.82 632.239 310.82Z" fill="#FF341A"/>
<path d="M644.55 357.48H586.689V415.34H644.55V357.48Z" fill="white"/>
<path fill-rule="evenodd" clip-rule="evenodd" d="M586.689 411.03L604.969 401.19H615.62V415.34H586.689V411.03Z" fill="#FBBE2E"/>
<path fill-rule="evenodd" clip-rule="evenodd" d="M644.55 411.03L626.28 401.19H615.62C611.21 404.11 606.92 412.34 615.62 415.34H644.55V411.03Z" fill="#FBBE2E"/>
<path fill-rule="evenodd" clip-rule="evenodd" d="M604.97 401.19C604.97 401.19 606.21 399.19 606.21 397.13C606.21 395.07 604.37 393.38 602.31 390.63C599.78 387.26 598.94 381.67 599.01 378.07C599.09 374.47 601 361.37 615.63 361.37C619.54 378.79 617.91 410.09 615.63 409.85L604.97 401.19Z" fill="#FF341A"/>
<path fill-rule="evenodd" clip-rule="evenodd" d="M626.279 401.19C626.279 401.19 625.039 399.19 625.039 397.13C625.039 395.07 626.879 393.38 628.949 390.63C631.479 387.26 632.319 381.67 632.239 378.07C632.159 374.47 630.249 361.37 615.619 361.37V409.85L626.279 401.19Z" fill="#FF341A"/>
<path fill-rule="evenodd" clip-rule="evenodd" d="M599.009 377.8C599.009 377.8 598.199 375.95 596.239 376.68C594.279 377.41 595.389 383.3 599.759 384.79C601.679 381.2 599.009 377.8 599.009 377.8Z" fill="#FF341A"/>
<path fill-rule="evenodd" clip-rule="evenodd" d="M632.239 377.8C632.239 377.8 633.049 375.95 635.009 376.68C636.969 377.41 635.859 383.3 631.489 384.79C629.569 381.2 632.239 377.8 632.239 377.8Z" fill="#FF341A"/>
<path fill-rule="evenodd" clip-rule="evenodd" d="M609.67 383.14H621.57C621.57 383.14 619.27 386.88 616 386.88C612.74 386.88 609.67 383.14 609.67 383.14Z" fill="white"/>
<path d="M609.67 376.03V377.68" stroke="black" stroke-width="1.6667" stroke-miterlimit="10" stroke-linecap="round" stroke-linejoin="round"/>
<path d="M621.57 376.03V377.68" stroke="black" stroke-width="1.6667" stroke-miterlimit="10" stroke-linecap="round" stroke-linejoin="round"/>
<path d="M616.449 377.1C616.449 378.14 615.269 379.97 613.279 379.97C611.729 379.97 611.979 381.73 613.229 381.73H617.55" stroke="black" stroke-width="1.6667" stroke-miterlimit="10" stroke-linecap="round" stroke-linejoin="round"/>
<path d="M612.209 394.55C612.209 394.55 614.089 395.96 618.089 394.55" stroke="black" stroke-width="1.6667" stroke-miterlimit="10" stroke-linecap="round" stroke-linejoin="round"/>
<path fill-rule="evenodd" clip-rule="evenodd" d="M599.01 377.8C599.01 377.8 614.1 368.72 615.62 361.36C616.9 368.65 632.24 377.79 632.24 377.79C632.24 377.79 632.08 360.26 615.62 360.26C599.16 360.27 599.01 377.8 599.01 377.8Z" fill="black"/>
<path d="M578.399 357.48H520.539V415.34H578.399V357.48Z" fill="white"/>
<path fill-rule="evenodd" clip-rule="evenodd" d="M520.539 411.03L538.809 401.19H549.469V415.34H520.539V411.03Z" fill="#DFA98B"/>
<path fill-rule="evenodd" clip-rule="evenodd" d="M578.399 411.03L560.129 401.19H549.469C545.059 404.11 540.769 412.34 549.469 415.34H578.399V411.03Z" fill="#DFA98B"/>
<path fill-rule="evenodd" clip-rule="evenodd" d="M538.81 401.19C538.81 401.19 540.05 399.19 540.05 397.13C540.05 395.07 538.21 393.38 536.15 390.63C533.62 387.26 532.78 381.67 532.85 378.07C532.93 374.47 534.84 361.37 549.47 361.37C553.38 378.79 551.75 410.09 549.47 409.85L538.81 401.19Z" fill="#FFC7BF"/>
<path fill-rule="evenodd" clip-rule="evenodd" d="M560.129 401.19C560.129 401.19 558.889 399.19 558.889 397.13C558.889 395.07 560.729 393.38 562.789 390.63C565.319 387.26 566.159 381.67 566.079 378.07C565.999 374.47 564.089 361.37 549.459 361.37V409.85L560.129 401.19Z" fill="#FFC7BF"/>
<path fill-rule="evenodd" clip-rule="evenodd" d="M532.859 377.8C532.859 377.8 532.049 375.95 530.089 376.68C528.129 377.41 529.239 383.3 533.609 384.79C535.529 381.2 532.859 377.8 532.859 377.8Z" fill="#FFC7BF"/>
<path fill-rule="evenodd" clip-rule="evenodd" d="M566.089 377.8C566.089 377.8 566.889 375.95 568.859 376.68C570.819 377.41 569.709 383.3 565.339 384.79C563.419 381.2 566.089 377.8 566.089 377.8Z" fill="#FFC7BF"/>
<path fill-rule="evenodd" clip-rule="evenodd" d="M543.52 383.14H555.41C555.41 383.14 553.109 386.88 549.839 386.88C546.579 386.88 543.52 383.14 543.52 383.14Z" fill="white"/>
<path d="M543.52 376.03V377.68" stroke="black" stroke-width="1.6667" stroke-miterlimit="10" stroke-linecap="round" stroke-linejoin="round"/>
<path d="M555.42 376.03V377.68" stroke="black" stroke-width="1.6667" stroke-miterlimit="10" stroke-linecap="round" stroke-linejoin="round"/>
<path d="M550.3 377.1C550.3 378.14 549.13 379.97 547.14 379.97C545.58 379.97 545.84 381.73 547.08 381.73H551.4" stroke="black" stroke-width="1.6667" stroke-miterlimit="10" stroke-linecap="round" stroke-linejoin="round"/>
<path d="M546.059 394.55C546.059 394.55 547.938 395.96 551.938 394.55" stroke="black" stroke-width="1.6667" stroke-miterlimit="10" stroke-linecap="round" stroke-linejoin="round"/>
<path fill-rule="evenodd" clip-rule="evenodd" d="M532.859 377.8L533.029 379.9L534.309 379.95L541.259 365.83L562.669 372.91L564.599 379.89L566.099 379.94C566.099 379.94 566.099 379.34 566.089 377.79C566.079 376.25 565.459 361.35 549.479 361.35C532.759 361.36 532.859 377.8 532.859 377.8Z" fill="#FF341A"/>
<path d="M644.55 424.01H586.689V481.87H644.55V424.01Z" fill="white"/>
<path fill-rule="evenodd" clip-rule="evenodd" d="M586.689 477.57L604.969 467.72H615.62V481.87H586.689V477.57Z" fill="#FF341A"/>
<path fill-rule="evenodd" clip-rule="evenodd" d="M644.55 477.57L626.28 467.73H615.62C611.21 470.65 606.92 478.88 615.62 481.88H644.55V477.57Z" fill="#FF341A"/>
<path fill-rule="evenodd" clip-rule="evenodd" d="M604.97 467.72C604.97 467.72 606.21 465.72 606.21 463.66C606.21 461.6 604.37 459.91 602.31 457.16C599.78 453.79 598.94 448.2 599.01 444.6C599.09 441 601 427.9 615.63 427.9C619.54 445.31 617.91 476.62 615.63 476.38L604.97 467.72Z" fill="#FFC7BF"/>
<path fill-rule="evenodd" clip-rule="evenodd" d="M626.279 467.72C626.279 467.72 625.039 465.72 625.039 463.66C625.039 461.6 626.879 459.91 628.949 457.16C631.479 453.79 632.319 448.2 632.239 444.6C632.159 441 630.249 427.9 615.619 427.9V476.38L626.279 467.72Z" fill="#FFC7BF"/>
<path fill-rule="evenodd" clip-rule="evenodd" d="M599.009 444.34C599.009 444.34 598.199 442.49 596.239 443.22C594.279 443.96 595.389 449.84 599.759 451.33C601.679 447.73 599.009 444.34 599.009 444.34Z" fill="#FFC7BF"/>
<path fill-rule="evenodd" clip-rule="evenodd" d="M632.239 444.34C632.239 444.34 633.049 442.49 635.009 443.22C636.969 443.96 635.859 449.84 631.489 451.33C629.569 447.73 632.239 444.34 632.239 444.34Z" fill="#FFC7BF"/>
<path fill-rule="evenodd" clip-rule="evenodd" d="M610.18 449.68H622.08C622.08 449.68 619.78 453.42 616.51 453.42C613.25 453.42 610.18 449.68 610.18 449.68Z" fill="white"/>
<path d="M610.18 442.56V444.22" stroke="black" stroke-width="1.6667" stroke-miterlimit="10" stroke-linecap="round" stroke-linejoin="round"/>
<path d="M622.08 442.56V444.22" stroke="black" stroke-width="1.6667" stroke-miterlimit="10" stroke-linecap="round" stroke-linejoin="round"/>
<path d="M616.959 443.63C616.959 444.67 615.789 446.5 613.789 446.5C612.239 446.5 612.489 448.26 613.739 448.26H618.059" stroke="black" stroke-width="1.6667" stroke-miterlimit="10" stroke-linecap="round" stroke-linejoin="round"/>
<path d="M612.719 461.09C612.719 461.09 614.599 462.5 618.599 461.09" stroke="black" stroke-width="1.6667" stroke-miterlimit="10" stroke-linecap="round" stroke-linejoin="round"/>
<path fill-rule="evenodd" clip-rule="evenodd" d="M599.01 444.34C599.01 444.34 608.89 437 604.48 431.73C601.14 431.66 596.35 440.49 599.01 444.34Z" fill="#FF341A"/>
<path fill-rule="evenodd" clip-rule="evenodd" d="M632.25 444.34C632.25 444.34 622.37 437 626.78 431.73C630.12 431.66 634.91 440.49 632.25 444.34Z" fill="#FF341A"/>
<path d="M578.399 424.01H520.539V481.87H578.399V424.01Z" fill="white"/>
<path fill-rule="evenodd" clip-rule="evenodd" d="M532.85 470.94C532.85 470.94 526.53 468.12 526.64 461.93C526.75 455.74 531.12 454.57 531.12 454.57C531.12 454.57 523.44 448.28 526.53 440.06C529.62 431.85 534 433.23 534 433.23C534 433.23 537.53 426.51 549.47 426.83V474.8L532.85 470.94Z" fill="black"/>
<path fill-rule="evenodd" clip-rule="evenodd" d="M566.089 470.94C566.089 470.94 572.409 468.12 572.299 461.93C572.199 455.74 567.819 454.57 567.819 454.57C567.819 454.57 575.499 448.28 572.409 440.06C569.309 431.85 564.939 433.23 564.939 433.23C564.939 433.23 561.409 426.51 549.459 426.83V474.8L566.089 470.94Z" fill="black"/>
<path fill-rule="evenodd" clip-rule="evenodd" d="M520.539 477.57L538.809 467.72H549.469V481.87H520.539V477.57Z" fill="#4FB3F6"/>
<path fill-rule="evenodd" clip-rule="evenodd" d="M578.399 477.57L560.129 467.73H549.469C545.059 470.65 540.769 478.88 549.469 481.88H578.399V477.57Z" fill="#4FB3F6"/>
<path fill-rule="evenodd" clip-rule="evenodd" d="M538.81 467.72C538.81 467.72 540.05 465.72 540.05 463.66C540.05 461.6 538.21 459.91 536.15 457.16C533.62 453.79 532.78 448.2 532.85 444.6C532.93 441 534.84 427.9 549.47 427.9C553.38 445.31 551.75 476.62 549.47 476.38L538.81 467.72Z" fill="#DFA98B"/>
<path fill-rule="evenodd" clip-rule="evenodd" d="M560.129 467.72C560.129 467.72 558.889 465.72 558.889 463.66C558.889 461.6 560.729 459.91 562.789 457.16C565.319 453.79 566.159 448.2 566.079 444.6C565.999 441 564.089 427.9 549.459 427.9V476.38L560.129 467.72Z" fill="#DFA98B"/>
<path fill-rule="evenodd" clip-rule="evenodd" d="M532.859 444.34C532.859 444.34 532.049 442.49 530.089 443.22C528.129 443.96 529.239 449.84 533.609 451.33C535.529 447.73 532.859 444.34 532.859 444.34Z" fill="#DFA98B"/>
<path fill-rule="evenodd" clip-rule="evenodd" d="M566.089 444.34C566.089 444.34 566.889 442.49 568.859 443.22C570.819 443.96 569.709 449.84 565.339 451.33C563.419 447.73 566.089 444.34 566.089 444.34Z" fill="#DFA98B"/>
<path fill-rule="evenodd" clip-rule="evenodd" d="M543.52 449.68H555.41C555.41 449.68 553.109 453.42 549.839 453.42C546.579 453.42 543.52 449.68 543.52 449.68Z" fill="white"/>
<path d="M543.52 442.56V444.22" stroke="black" stroke-width="1.6667" stroke-miterlimit="10" stroke-linecap="round" stroke-linejoin="round"/>
<path d="M555.42 442.56V444.22" stroke="black" stroke-width="1.6667" stroke-miterlimit="10" stroke-linecap="round" stroke-linejoin="round"/>
<path d="M550.3 443.63C550.3 444.67 549.13 446.5 547.14 446.5C545.58 446.5 545.84 448.26 547.08 448.26H551.4" stroke="black" stroke-width="1.6667" stroke-miterlimit="10" stroke-linecap="round" stroke-linejoin="round"/>
<path d="M546.059 461.09C546.059 461.09 547.938 462.5 551.938 461.09" stroke="black" stroke-width="1.6667" stroke-miterlimit="10" stroke-linecap="round" stroke-linejoin="round"/>
<path fill-rule="evenodd" clip-rule="evenodd" d="M549.469 426.83C546.589 426.83 535.939 429.18 533.049 438.04H565.389C565.379 438.04 562.939 426.83 549.469 426.83Z" fill="black"/>
<path d="M911.839 290.46H853.979V348.32H911.839V290.46Z" fill="white"/>
<path fill-rule="evenodd" clip-rule="evenodd" d="M873.489 329.88H866.289V310.66C866.289 305.71 868.509 293.36 882.909 293.36V324.51L873.489 329.88Z" fill="black"/>
<path fill-rule="evenodd" clip-rule="evenodd" d="M892.338 329.88H899.538V310.66C899.538 305.71 897.318 293.36 882.918 293.36V324.51L892.338 329.88Z" fill="black"/>
<path fill-rule="evenodd" clip-rule="evenodd" d="M853.979 344.01L872.259 334.17H882.919V348.32H853.979V344.01Z" fill="#4FB3F6"/>
<path fill-rule="evenodd" clip-rule="evenodd" d="M911.848 344.01L893.578 334.17H882.918C878.508 337.09 874.218 345.32 882.918 348.32H911.848V344.01Z" fill="#4FB3F6"/>
<path fill-rule="evenodd" clip-rule="evenodd" d="M872.258 334.17C872.258 334.17 873.498 332.17 873.498 330.11C873.498 328.04 871.658 326.36 869.588 323.6C867.068 320.23 866.218 314.64 866.298 311.04C866.378 307.44 868.288 294.34 882.918 294.34C886.828 311.75 885.198 343.06 882.918 342.82L872.258 334.17Z" fill="#FFC7BF"/>
<path fill-rule="evenodd" clip-rule="evenodd" d="M893.578 334.17C893.578 334.17 892.338 332.17 892.338 330.11C892.338 328.04 894.178 326.36 896.248 323.6C898.778 320.23 899.618 314.64 899.538 311.04C899.468 307.44 897.548 294.34 882.918 294.34V342.82L893.578 334.17Z" fill="#FFC7BF"/>
<path fill-rule="evenodd" clip-rule="evenodd" d="M866.298 310.79C866.298 310.79 865.488 308.94 863.528 309.67C861.568 310.4 862.678 316.29 867.048 317.78C868.968 314.18 866.298 310.79 866.298 310.79Z" fill="#FFC7BF"/>
<path fill-rule="evenodd" clip-rule="evenodd" d="M899.528 310.79C899.528 310.79 900.339 308.94 902.299 309.67C904.259 310.4 903.148 316.29 898.778 317.78C896.858 314.18 899.528 310.79 899.528 310.79Z" fill="#FFC7BF"/>
<path fill-rule="evenodd" clip-rule="evenodd" d="M877.469 316.12H889.369C889.369 316.12 887.069 319.86 883.799 319.86C880.539 319.87 877.469 316.12 877.469 316.12Z" fill="white"/>
<path d="M877.469 309.01V310.67" stroke="black" stroke-width="1.6667" stroke-miterlimit="10" stroke-linecap="round" stroke-linejoin="round"/>
<path d="M889.369 309.01V310.67" stroke="black" stroke-width="1.6667" stroke-miterlimit="10" stroke-linecap="round" stroke-linejoin="round"/>
<path d="M884.248 310.08C884.248 311.12 883.068 312.95 881.078 312.95C879.528 312.95 879.778 314.71 881.028 314.71H885.348" stroke="black" stroke-width="1.6667" stroke-miterlimit="10" stroke-linecap="round" stroke-linejoin="round"/>
<path d="M880.008 327.54C880.008 327.54 881.888 328.95 885.888 327.54" stroke="black" stroke-width="1.6667" stroke-miterlimit="10" stroke-linecap="round" stroke-linejoin="round"/>
<path fill-rule="evenodd" clip-rule="evenodd" d="M866.288 310.65L868.188 314.29V306.2H882.908V293.35C882.918 293.36 866.138 294.54 866.288 310.65Z" fill="black"/>
<path fill-rule="evenodd" clip-rule="evenodd" d="M899.539 310.65L897.639 314.29V306.2H880.219L882.919 293.35C882.909 293.36 899.689 294.54 899.539 310.65Z" fill="black"/>
<path d="M845.688 357.48H787.828V415.34H845.688V357.48Z" fill="white"/>
<path fill-rule="evenodd" clip-rule="evenodd" d="M787.828 411.03L806.098 401.19H816.758V415.34H787.828V411.03Z" fill="#4FB3F6"/>
<path fill-rule="evenodd" clip-rule="evenodd" d="M845.688 411.03L827.418 401.19H816.758C812.348 404.11 808.058 412.34 816.758 415.34H845.688V411.03Z" fill="#4FB3F6"/>
<path fill-rule="evenodd" clip-rule="evenodd" d="M806.099 401.19C806.099 401.19 807.339 399.19 807.339 397.13C807.339 395.07 805.499 393.38 803.439 390.63C800.909 387.26 800.069 381.67 800.139 378.07C800.219 374.47 802.129 361.37 816.759 361.37C820.669 378.79 819.029 410.09 816.759 409.85L806.099 401.19Z" fill="#FBBE2E"/>
<path fill-rule="evenodd" clip-rule="evenodd" d="M827.418 401.19C827.418 401.19 826.178 399.19 826.178 397.13C826.178 395.07 828.018 393.38 830.078 390.63C832.608 387.26 833.448 381.67 833.368 378.07C833.298 374.47 831.378 361.37 816.748 361.37V409.85L827.418 401.19Z" fill="#FBBE2E"/>
<path fill-rule="evenodd" clip-rule="evenodd" d="M800.148 377.8C800.148 377.8 799.338 375.95 797.378 376.68C795.418 377.41 796.528 383.3 800.898 384.79C802.828 381.2 800.148 377.8 800.148 377.8Z" fill="#FBBE2E"/>
<path fill-rule="evenodd" clip-rule="evenodd" d="M833.378 377.8C833.378 377.8 834.178 375.95 836.148 376.68C838.108 377.41 836.998 383.3 832.628 384.79C830.708 381.2 833.378 377.8 833.378 377.8Z" fill="#FBBE2E"/>
<path fill-rule="evenodd" clip-rule="evenodd" d="M810.809 383.14H822.708C822.708 383.14 820.409 386.88 817.139 386.88C813.879 386.88 810.809 383.14 810.809 383.14Z" fill="white"/>
<path d="M810.809 376.03V377.68" stroke="black" stroke-width="1.6667" stroke-miterlimit="10" stroke-linecap="round" stroke-linejoin="round"/>
<path d="M822.709 376.03V377.68" stroke="black" stroke-width="1.6667" stroke-miterlimit="10" stroke-linecap="round" stroke-linejoin="round"/>
<path d="M817.588 377.1C817.588 378.14 816.418 379.97 814.418 379.97C812.868 379.97 813.118 381.73 814.368 381.73H818.688" stroke="black" stroke-width="1.6667" stroke-miterlimit="10" stroke-linecap="round" stroke-linejoin="round"/>
<path d="M813.348 394.55C813.348 394.55 815.228 395.96 819.228 394.55" stroke="black" stroke-width="1.6667" stroke-miterlimit="10" stroke-linecap="round" stroke-linejoin="round"/>
<path fill-rule="evenodd" clip-rule="evenodd" d="M816.758 361.36C816.758 361.36 810.258 370.16 806.808 372.65C805.358 377.71 805.358 387.74 803.198 390.23C799.908 390.23 799.018 370.96 799.018 370.96C799.018 370.96 803.668 358.07 816.758 361.36Z" fill="#FF341A"/>
<path fill-rule="evenodd" clip-rule="evenodd" d="M816.758 361.36C816.758 361.36 823.248 370.16 826.708 372.65C828.158 377.71 828.158 387.74 830.318 390.23C833.608 390.23 834.498 370.96 834.498 370.96C834.498 370.96 829.848 358.07 816.758 361.36Z" fill="#FF341A"/>
<path d="M911.839 357.48H853.979V415.34H911.839V357.48Z" fill="white"/>
<path fill-rule="evenodd" clip-rule="evenodd" d="M853.979 411.03L872.259 401.19H882.919V415.34H853.979V411.03Z" fill="#4FB3F6"/>
<path fill-rule="evenodd" clip-rule="evenodd" d="M911.848 411.03L893.578 401.19H882.918C878.508 404.11 874.218 412.34 882.918 415.34H911.848V411.03Z" fill="#4FB3F6"/>
<path fill-rule="evenodd" clip-rule="evenodd" d="M872.258 401.19C872.258 401.19 873.498 399.19 873.498 397.13C873.498 395.07 871.658 393.38 869.588 390.63C867.068 387.26 866.218 381.67 866.298 378.07C866.378 374.47 868.288 361.37 882.918 361.37C886.828 378.79 885.198 410.09 882.918 409.85L872.258 401.19Z" fill="#DFA98B"/>
<path fill-rule="evenodd" clip-rule="evenodd" d="M893.578 401.19C893.578 401.19 892.338 399.19 892.338 397.13C892.338 395.07 894.178 393.38 896.248 390.63C898.778 387.26 899.618 381.67 899.538 378.07C899.468 374.47 897.548 361.37 882.918 361.37V409.85L893.578 401.19Z" fill="#DFA98B"/>
<path fill-rule="evenodd" clip-rule="evenodd" d="M866.298 377.8C866.298 377.8 865.488 375.95 863.528 376.68C861.568 377.41 862.678 383.3 867.048 384.79C868.968 381.2 866.298 377.8 866.298 377.8Z" fill="#DFA98B"/>
<path fill-rule="evenodd" clip-rule="evenodd" d="M899.528 377.8C899.528 377.8 900.339 375.95 902.299 376.68C904.259 377.41 903.148 383.3 898.778 384.79C896.858 381.2 899.528 377.8 899.528 377.8Z" fill="#DFA98B"/>
<path fill-rule="evenodd" clip-rule="evenodd" d="M876.969 383.14H888.869C888.869 383.14 886.569 386.88 883.299 386.88C880.029 386.88 876.969 383.14 876.969 383.14Z" fill="white"/>
<path d="M876.969 376.03V377.68" stroke="black" stroke-width="1.6667" stroke-miterlimit="10" stroke-linecap="round" stroke-linejoin="round"/>
<path d="M888.859 376.03V377.68" stroke="black" stroke-width="1.6667" stroke-miterlimit="10" stroke-linecap="round" stroke-linejoin="round"/>
<path d="M883.748 377.1C883.748 378.14 882.568 379.97 880.578 379.97C879.028 379.97 879.278 381.73 880.528 381.73H884.848" stroke="black" stroke-width="1.6667" stroke-miterlimit="10" stroke-linecap="round" stroke-linejoin="round"/>
<path d="M879.498 394.55C879.498 394.55 881.378 395.96 885.378 394.55" stroke="black" stroke-width="1.6667" stroke-miterlimit="10" stroke-linecap="round" stroke-linejoin="round"/>
<path fill-rule="evenodd" clip-rule="evenodd" d="M894.049 365.2C894.049 365.2 878.839 373.45 866.299 377.81C866.429 368.99 870.959 360.83 882.909 360.83C894.869 360.83 894.049 365.2 894.049 365.2Z" fill="black"/>
<path fill-rule="evenodd" clip-rule="evenodd" d="M866.298 377.8C866.298 381.14 866.048 391.68 872.758 396.46C876.288 398.97 880.058 400 882.908 400V389.16C882.908 389.16 874.198 387.18 873.118 383.65C872.038 380.12 868.308 377.07 868.308 377.07C868.308 377.07 866.298 376.21 866.298 377.8Z" fill="black"/>
<path fill-rule="evenodd" clip-rule="evenodd" d="M899.518 377.8C899.518 381.14 899.768 391.68 893.058 396.46C889.528 398.97 885.758 400 882.908 400V389.16C882.908 389.16 891.618 387.18 892.698 383.65C893.778 380.12 897.498 377.07 897.498 377.07C897.498 377.07 899.518 376.21 899.518 377.8Z" fill="black"/>
<path d="M845.688 424.01H787.828V481.87H845.688V424.01Z" fill="white"/>
<path fill-rule="evenodd" clip-rule="evenodd" d="M787.828 477.57L806.098 467.72H816.758V481.87H787.828V477.57Z" fill="#4FB3F6"/>
<path fill-rule="evenodd" clip-rule="evenodd" d="M845.688 477.57L827.418 467.73H816.758C812.348 470.65 808.058 478.88 816.758 481.88H845.688V477.57Z" fill="#4FB3F6"/>
<path fill-rule="evenodd" clip-rule="evenodd" d="M806.099 467.72C806.099 467.72 807.339 465.72 807.339 463.66C807.339 461.6 805.499 459.91 803.439 457.16C800.909 453.79 800.069 448.2 800.139 444.6C800.219 441 802.129 427.9 816.759 427.9C820.669 445.31 819.029 476.62 816.759 476.38L806.099 467.72Z" fill="#DFA98B"/>
<path fill-rule="evenodd" clip-rule="evenodd" d="M827.418 467.72C827.418 467.72 826.178 465.72 826.178 463.66C826.178 461.6 828.018 459.91 830.078 457.16C832.608 453.79 833.448 448.2 833.368 444.6C833.298 441 831.378 427.9 816.748 427.9V476.38L827.418 467.72Z" fill="#DFA98B"/>
<path fill-rule="evenodd" clip-rule="evenodd" d="M800.148 444.34C800.148 444.34 799.338 442.49 797.378 443.22C795.418 443.96 796.528 449.84 800.898 451.33C802.828 447.73 800.148 444.34 800.148 444.34Z" fill="#DFA98B"/>
<path fill-rule="evenodd" clip-rule="evenodd" d="M833.378 444.34C833.378 444.34 834.178 442.49 836.148 443.22C838.108 443.96 836.998 449.84 832.628 451.33C830.708 447.73 833.378 444.34 833.378 444.34Z" fill="#DFA98B"/>
<path fill-rule="evenodd" clip-rule="evenodd" d="M810.809 449.68H822.708C822.708 449.68 820.409 453.42 817.139 453.42C813.879 453.42 810.809 449.68 810.809 449.68Z" fill="white"/>
<path d="M810.809 442.56V444.22" stroke="black" stroke-width="1.6667" stroke-miterlimit="10" stroke-linecap="round" stroke-linejoin="round"/>
<path d="M822.709 442.56V444.22" stroke="black" stroke-width="1.6667" stroke-miterlimit="10" stroke-linecap="round" stroke-linejoin="round"/>
<path d="M817.588 443.63C817.588 444.67 816.418 446.5 814.418 446.5C812.868 446.5 813.118 448.26 814.368 448.26H818.688" stroke="black" stroke-width="1.6667" stroke-miterlimit="10" stroke-linecap="round" stroke-linejoin="round"/>
<path d="M813.348 461.09C813.348 461.09 815.228 462.5 819.228 461.09" stroke="black" stroke-width="1.6667" stroke-miterlimit="10" stroke-linecap="round" stroke-linejoin="round"/>
<path fill-rule="evenodd" clip-rule="evenodd" d="M816.759 427.9C816.759 427.9 815.839 433.34 812.649 435.73C809.459 438.12 806.179 440.2 806.179 440.2C806.179 440.2 808.329 446.66 806.019 448.98C803.709 451.29 798.439 453.77 798.439 453.77C798.439 453.77 793.969 459.12 790.459 460.63C790.939 455.68 793.969 452.33 795.249 450.89C794.609 448.81 795.729 442.91 797.329 440.99C798.929 439.07 801.829 437.11 801.829 437.11C801.829 437.11 803.149 427.9 816.759 427.9Z" fill="black"/>
<path fill-rule="evenodd" clip-rule="evenodd" d="M816.758 427.9C816.758 427.9 817.678 433.34 820.868 435.73C824.058 438.12 827.328 440.2 827.328 440.2C827.328 440.2 825.178 446.66 827.488 448.98C829.798 451.29 835.068 453.77 835.068 453.77C835.068 453.77 839.538 459.12 843.048 460.63C842.568 455.68 839.538 452.33 838.258 450.89C838.898 448.81 837.778 442.91 836.178 440.99C834.578 439.07 831.678 437.11 831.678 437.11C831.678 437.11 830.368 427.9 816.758 427.9Z" fill="black"/>
<path d="M911.839 424.01H853.979V481.87H911.839V424.01Z" fill="white"/>
<path fill-rule="evenodd" clip-rule="evenodd" d="M853.979 477.57L872.259 467.72H882.919V481.87H853.979V477.57Z" fill="#4FB3F6"/>
<path fill-rule="evenodd" clip-rule="evenodd" d="M911.848 477.57L893.578 467.73H882.918C878.508 470.65 874.218 478.88 882.918 481.88H911.848V477.57Z" fill="#4FB3F6"/>
<path fill-rule="evenodd" clip-rule="evenodd" d="M872.258 467.72C872.258 467.72 873.498 465.72 873.498 463.66C873.498 461.6 871.658 459.91 869.588 457.16C867.068 453.79 866.218 448.2 866.298 444.6C866.378 441 868.288 427.9 882.918 427.9C886.828 445.31 885.198 476.62 882.918 476.38L872.258 467.72Z" fill="#FF341A"/>
<path fill-rule="evenodd" clip-rule="evenodd" d="M893.578 467.72C893.578 467.72 892.338 465.72 892.338 463.66C892.338 461.6 894.178 459.91 896.248 457.16C898.778 453.79 899.618 448.2 899.538 444.6C899.468 441 897.548 427.9 882.918 427.9V476.38L893.578 467.72Z" fill="#FF341A"/>
<path fill-rule="evenodd" clip-rule="evenodd" d="M866.298 444.34C866.298 444.34 865.488 442.49 863.528 443.22C861.568 443.96 862.678 449.84 867.048 451.33C868.968 447.73 866.298 444.34 866.298 444.34Z" fill="#FF341A"/>
<path fill-rule="evenodd" clip-rule="evenodd" d="M899.528 444.34C899.528 444.34 900.339 442.49 902.299 443.22C904.259 443.96 903.148 449.84 898.778 451.33C896.858 447.73 899.528 444.34 899.528 444.34Z" fill="#FF341A"/>
<path fill-rule="evenodd" clip-rule="evenodd" d="M876.969 449.68H888.869C888.869 449.68 886.569 453.42 883.299 453.42C880.029 453.42 876.969 449.68 876.969 449.68Z" fill="white"/>
<path d="M876.969 442.56V444.22" stroke="black" stroke-width="1.6667" stroke-miterlimit="10" stroke-linecap="round" stroke-linejoin="round"/>
<path d="M888.859 442.56V444.22" stroke="black" stroke-width="1.6667" stroke-miterlimit="10" stroke-linecap="round" stroke-linejoin="round"/>
<path d="M883.748 443.63C883.748 444.67 882.568 446.5 880.578 446.5C879.028 446.5 879.278 448.26 880.528 448.26H884.848" stroke="black" stroke-width="1.6667" stroke-miterlimit="10" stroke-linecap="round" stroke-linejoin="round"/>
<path d="M879.498 461.09C879.498 461.09 881.378 462.5 885.378 461.09" stroke="black" stroke-width="1.6667" stroke-miterlimit="10" stroke-linecap="round" stroke-linejoin="round"/>
<path fill-rule="evenodd" clip-rule="evenodd" d="M866.299 444.34L867.749 448.58L870.899 434.15C870.899 434.15 877.529 429.92 882.919 429.92C882.919 427.92 882.919 427.9 882.919 427.9C882.919 427.9 873.969 427.05 868.999 433.77C864.039 440.48 866.299 444.34 866.299 444.34Z" fill="#FBBE2E"/>
<path fill-rule="evenodd" clip-rule="evenodd" d="M899.518 444.34L898.068 448.58L894.918 434.15C894.918 434.15 888.288 429.92 882.898 429.92C882.898 427.92 882.898 427.9 882.898 427.9C882.898 427.9 891.848 427.05 896.818 433.77C901.788 440.48 899.518 444.34 899.518 444.34Z" fill="#FBBE2E"/>
</g>
<defs>
<clipPath id="clip0_450:19126">
<rect width="1438" height="800" fill="white"/>
</clipPath>
</defs>
</svg>
