<svg width="924" height="946" viewBox="0 0 924 946" fill="none" xmlns="http://www.w3.org/2000/svg">
<g clip-path="url(#clip0_450:22517)">
<path d="M175.183 701.231C177.892 669.946 154.733 642.388 123.455 639.679C92.1772 636.969 64.6256 660.134 61.9167 691.419C59.2077 722.704 82.3673 750.261 113.645 752.971C144.923 755.681 172.474 732.516 175.183 701.231Z" fill="#D9F0FF"/>
<path fill-rule="evenodd" clip-rule="evenodd" d="M139.248 570.69C139.248 569.567 138.803 568.489 138.011 567.694C137.218 566.898 136.142 566.449 135.019 566.445H102.094C101.015 566.509 100 566.984 99.2583 567.772C98.5166 568.559 98.1035 569.601 98.1035 570.683C98.1035 571.765 98.5166 572.806 99.2583 573.594C100 574.381 101.015 574.856 102.094 574.92H135.019C136.14 574.916 137.213 574.47 138.005 573.677C138.798 572.885 139.244 571.811 139.248 570.69Z" fill="#D9F0FF"/>
<path fill-rule="evenodd" clip-rule="evenodd" d="M462.008 54.7962C462.004 47.5991 463.418 40.4719 466.17 33.8219C468.922 27.1719 472.957 21.1296 478.045 16.0406C483.133 10.9515 489.173 6.91536 495.822 4.163C502.47 1.41065 509.596 -0.00397779 516.791 8.40088e-06H684.22V251.465H462.008V54.7962Z" fill="#E3F7ED"/>
<path fill-rule="evenodd" clip-rule="evenodd" d="M462.008 54.7962C462.008 40.2633 456.236 26.3257 445.962 16.0494C435.688 5.77315 421.754 0 407.225 0L239.781 0V251.465H462.008V54.7962Z" fill="#E3F7ED"/>
<path d="M462 51L462 251" stroke="#60D399" stroke-width="2.11" stroke-linecap="round" stroke-linejoin="round"/>
<path d="M894.899 290.228C912.217 184.562 840.617 84.8598 734.975 67.5374C629.334 50.215 529.655 121.832 512.336 227.498C495.018 333.164 566.618 432.865 672.26 450.188C777.902 467.51 877.581 395.894 894.899 290.228Z" fill="#FEDD8E"/>
<path d="M703.562 91.2008C725.708 91.1787 747.638 95.5598 768.077 104.09C788.515 112.619 807.055 125.128 822.618 140.887" stroke="#FFF3D6" stroke-width="12" stroke-linecap="round" stroke-linejoin="round"/>
<path d="M822.618 140.887C827.226 145.543 831.559 150.464 835.594 155.625" stroke="#FFF3D6" stroke-width="12" stroke-linecap="round" stroke-linejoin="round"/>
<path d="M856.331 189.861C866.131 211.527 871.186 235.039 871.156 258.819" stroke="#FFF3D6" stroke-width="12" stroke-linecap="round" stroke-linejoin="round"/>
<path fill-rule="evenodd" clip-rule="evenodd" d="M800.199 427.074H662.437V568.931H747.871C754.706 568.931 761.26 566.216 766.093 561.382C770.926 556.548 773.641 549.992 773.641 543.156V479.778C773.64 475.079 774.885 470.465 777.249 466.404L800.199 427.074Z" fill="#FFF3D6"/>
<path d="M886.588 818.971H720.934V855.937H886.588V818.971Z" fill="#4FB3F6"/>
<path fill-rule="evenodd" clip-rule="evenodd" d="M886.589 818.971L803.761 718.385H710.065L693.709 818.971H886.589Z" fill="#B9E2FE"/>
<path fill-rule="evenodd" clip-rule="evenodd" d="M734.985 715.656H886.573V722.858C886.573 725.617 886.029 728.349 884.973 730.898C883.917 733.446 882.369 735.762 880.418 737.712C878.467 739.662 876.151 741.209 873.602 742.263C871.053 743.318 868.321 743.859 865.563 743.857H710.064L734.985 715.656Z" fill="#B9E2FE"/>
<path d="M847.585 552.389H780.705V614.387H847.585V552.389Z" fill="#4FB3F6"/>
<path d="M743.187 467.193H673.396V718.4H743.187V467.193Z" fill="#4FB3F6"/>
<path fill-rule="evenodd" clip-rule="evenodd" d="M827.529 614.387H800.744V645.44C800.683 647.237 800.985 649.028 801.631 650.706C802.277 652.384 803.254 653.915 804.503 655.207C805.753 656.5 807.25 657.528 808.905 658.23C810.56 658.932 812.339 659.294 814.137 659.294C815.934 659.294 817.714 658.932 819.369 658.23C821.024 657.528 822.521 656.5 823.77 655.207C825.02 653.915 825.997 652.384 826.642 650.706C827.288 649.028 827.59 647.237 827.529 645.44V614.387Z" fill="#4FB3F6"/>
<path d="M827.53 614.387H800.744V622.651H827.53V614.387Z" fill="black"/>
<path fill-rule="evenodd" clip-rule="evenodd" d="M779.053 467.193H712.188L782.342 552.389H849.222L779.053 467.193Z" fill="#B9E2FE"/>
<path fill-rule="evenodd" clip-rule="evenodd" d="M824.74 743.857H710.064L711.777 759.656H837.746L824.74 743.857Z" fill="black"/>
<path fill-rule="evenodd" clip-rule="evenodd" d="M211.039 856.664H61.4072C56.5901 856.665 51.8649 855.345 47.745 852.848C43.6251 850.351 40.2681 846.772 38.0385 842.501C35.8089 838.23 34.792 833.429 35.0983 828.621C35.4045 823.812 37.0223 819.18 39.7757 815.226L133.078 681.192V469.346H187.649V678.918L210.387 702.662L211.039 856.664Z" fill="#4FB3F6"/>
<path fill-rule="evenodd" clip-rule="evenodd" d="M107.99 717.172H210.448L211.039 856.664H61.4072C56.5901 856.665 51.8649 855.345 47.745 852.848C43.6251 850.351 40.2681 846.772 38.0385 842.501C35.8089 838.23 34.792 833.429 35.0983 828.621C35.4045 823.812 37.0223 819.18 39.7757 815.226L107.99 717.172Z" fill="#163BF3"/>
<path fill-rule="evenodd" clip-rule="evenodd" d="M178.22 676.75C133.396 676.75 116.07 736.868 153.587 736.868C191.105 736.868 174.067 685.938 210.357 685.938C204.46 682.663 195.547 676.75 178.22 676.75Z" fill="black"/>
<path fill-rule="evenodd" clip-rule="evenodd" d="M745.279 676.75C790.103 676.75 807.43 736.868 769.912 736.868C732.394 736.868 749.433 685.938 713.143 685.938C719.039 682.663 728.013 676.75 745.279 676.75Z" fill="black"/>
<path fill-rule="evenodd" clip-rule="evenodd" d="M178.221 676.75C225.94 676.75 264.625 712.138 264.625 745.783C264.625 779.428 249.467 785.811 233.262 785.811C217.057 785.811 202.823 768.405 202.823 744.616C202.823 720.826 204.794 676.598 178.221 676.75Z" fill="#60D399"/>
<path fill-rule="evenodd" clip-rule="evenodd" d="M745.279 676.75C697.559 676.75 658.874 712.138 658.874 745.783C658.874 779.428 674.033 785.811 690.253 785.811C706.472 785.811 720.691 768.405 720.691 744.616C720.691 720.826 718.721 676.598 745.279 676.75Z" fill="#60D399"/>
<path d="M385.404 395.909C461.101 320.194 461.101 197.437 385.404 121.722C309.707 46.0078 186.978 46.0078 111.281 121.722C35.5834 197.437 35.5834 320.194 111.281 395.909C186.978 471.623 309.707 471.623 385.404 395.909Z" fill="#B9E2FE"/>
<mask id="mask0_450:22517" style="mask-type:alpha" maskUnits="userSpaceOnUse" x="54" y="64" width="389" height="389">
<path d="M385.404 395.909C461.101 320.194 461.101 197.437 385.404 121.722C309.707 46.0078 186.978 46.0078 111.281 121.722C35.5834 197.437 35.5834 320.194 111.281 395.909C186.978 471.623 309.707 471.623 385.404 395.909Z" fill="#B9E2FE"/>
</mask>
<g mask="url(#mask0_450:22517)">
<path fill-rule="evenodd" clip-rule="evenodd" d="M400.704 139.022C400.704 139.022 364.323 119.766 333.127 120.161C301.93 120.555 323.016 141.206 334.355 140.796C345.693 140.387 378.436 149.696 370.736 162.645C363.035 175.594 310.465 163.464 281.739 161.432C253.013 159.4 220.573 186.495 248.329 215.303C276.085 244.112 314.936 222.991 337.584 215.698C360.231 208.405 381.68 214.485 372.782 235.12C363.884 255.756 299.156 254.149 259.516 249.282C219.876 244.415 221.483 283.275 239.688 312.811C257.894 342.347 274.068 320.089 285.392 353.279C296.716 386.469 442.179 258.819 442.179 258.819C442.179 258.819 452.093 168.407 400.704 139.022Z" fill="#163BF3"/>
<path fill-rule="evenodd" clip-rule="evenodd" d="M89.8754 147.195C89.8754 147.195 138.975 200.687 132.062 239.442C125.15 278.196 97.9399 304.078 64.1359 319.301C18.4778 279.197 53.6157 157.444 89.8754 147.195Z" fill="#163BF3"/>
<path fill-rule="evenodd" clip-rule="evenodd" d="M69.2289 333.038C69.2289 333.038 123.512 331.522 132.729 350.323C141.945 369.124 150.07 411.062 159.332 431.077C168.594 451.091 57.7537 385.878 69.2289 333.038Z" fill="#163BF3"/>
</g>
<path d="M54.4961 258.819H442.18" stroke="black" stroke-width="2.11" stroke-linecap="round" stroke-linejoin="round"/>
<path d="M248.33 452.698C277.656 452.698 301.431 365.895 301.431 258.819C301.431 151.742 277.656 64.9397 248.33 64.9397C219.003 64.9397 195.229 151.742 195.229 258.819C195.229 365.895 219.003 452.698 248.33 452.698Z" stroke="black" stroke-width="2.11" stroke-linecap="round" stroke-linejoin="round"/>
<path d="M248.345 452.698C327.853 452.698 392.308 365.895 392.308 258.819C392.308 151.742 327.853 64.9397 248.345 64.9397C168.837 64.9397 104.383 151.742 104.383 258.819C104.383 365.895 168.837 452.698 248.345 452.698Z" stroke="black" stroke-width="2.11" stroke-linecap="round" stroke-linejoin="round"/>
<path d="M658.662 452.698H265.354V855.921H658.662V452.698Z" fill="#163BF3"/>
<path fill-rule="evenodd" clip-rule="evenodd" d="M284.651 616.465C326.61 616.465 342.845 672.732 307.708 672.732C272.57 672.732 288.547 625.077 254.576 625.077C260.094 621.999 268.507 616.465 284.651 616.465Z" fill="#4FB3F6"/>
<path fill-rule="evenodd" clip-rule="evenodd" d="M638.849 616.465C596.905 616.465 580.67 672.732 615.793 672.732C650.915 672.732 634.953 625.077 668.848 625.077C663.406 621.999 655.008 616.465 638.849 616.465Z" fill="#4FB3F6"/>
<path fill-rule="evenodd" clip-rule="evenodd" d="M284.651 616.465C239.993 616.465 203.779 649.579 203.779 681.071C203.779 712.563 217.983 718.537 233.142 718.537C248.3 718.537 261.64 702.252 261.64 679.994C261.64 657.736 259.791 616.328 284.651 616.465Z" fill="#60D399"/>
<path fill-rule="evenodd" clip-rule="evenodd" d="M638.85 616.465C683.507 616.465 719.721 649.579 719.721 681.071C719.721 712.563 705.518 718.537 690.374 718.537C675.231 718.537 661.876 702.252 661.876 679.994C661.876 657.736 663.71 616.328 638.85 616.465Z" fill="#60D399"/>
<path d="M574.986 543.489H353.578V855.937H574.986V543.489Z" fill="black"/>
<path fill-rule="evenodd" clip-rule="evenodd" d="M673.395 452.698C672.923 396.929 650.443 343.606 610.85 304.338C571.257 265.069 517.757 243.036 461.999 243.036C406.242 243.036 352.742 265.069 313.149 304.338C273.556 343.606 251.076 396.929 250.604 452.698H673.395Z" fill="#4FB3F6"/>
<path fill-rule="evenodd" clip-rule="evenodd" d="M642.943 452.698C642.506 404.985 623.25 359.375 589.365 325.79C555.479 292.205 509.705 273.363 462.001 273.363C414.297 273.363 368.523 292.205 334.637 325.79C300.751 359.375 281.495 404.985 281.059 452.698" fill="#163BF3"/>
<path fill-rule="evenodd" clip-rule="evenodd" d="M332.067 452.698C332.151 456.164 331.54 459.613 330.272 462.84C329.003 466.067 327.102 469.008 324.681 471.489C322.259 473.971 319.366 475.943 316.171 477.289C312.976 478.635 309.544 479.329 306.077 479.329C302.61 479.329 299.179 478.635 295.984 477.289C292.789 475.943 289.896 473.971 287.474 471.489C285.052 469.008 283.151 466.067 281.883 462.84C280.614 459.613 280.004 456.164 280.088 452.698H332.067Z" fill="#4FB3F6"/>
<path fill-rule="evenodd" clip-rule="evenodd" d="M436.01 452.698C436.094 456.164 435.484 459.613 434.215 462.84C432.947 466.067 431.046 469.008 428.624 471.489C426.202 473.971 423.309 475.943 420.114 477.289C416.919 478.635 413.487 479.329 410.021 479.329C406.554 479.329 403.122 478.635 399.927 477.289C396.732 475.943 393.839 473.971 391.417 471.489C388.996 469.008 387.095 466.067 385.826 462.84C384.558 459.613 383.947 456.164 384.031 452.698H436.01Z" fill="#4FB3F6"/>
<path fill-rule="evenodd" clip-rule="evenodd" d="M591.948 452.698C592.032 456.164 591.421 459.613 590.153 462.84C588.884 466.067 586.983 469.008 584.562 471.489C582.14 473.971 579.247 475.943 576.052 477.289C572.857 478.635 569.425 479.329 565.958 479.329C562.491 479.329 559.06 478.635 555.865 477.289C552.67 475.943 549.776 473.971 547.355 471.489C544.933 469.008 543.032 466.067 541.764 462.84C540.495 459.613 539.885 456.164 539.969 452.698H591.948Z" fill="#4FB3F6"/>
<path fill-rule="evenodd" clip-rule="evenodd" d="M384.031 452.698C384.031 459.59 381.293 466.2 376.421 471.074C371.548 475.948 364.939 478.686 358.048 478.686C351.158 478.686 344.549 475.948 339.676 471.074C334.804 466.2 332.066 459.59 332.066 452.698H384.031Z" fill="#4FB3F6"/>
<path fill-rule="evenodd" clip-rule="evenodd" d="M539.969 452.698C540.053 456.164 539.443 459.613 538.174 462.84C536.906 466.067 535.005 469.008 532.583 471.489C530.161 473.971 527.268 475.943 524.073 477.289C520.878 478.635 517.446 479.329 513.98 479.329C510.513 479.329 507.081 478.635 503.886 477.289C500.691 475.943 497.798 473.971 495.376 471.489C492.955 469.008 491.054 466.067 489.785 462.84C488.517 459.613 487.906 456.164 487.99 452.698H539.969Z" fill="#4FB3F6"/>
<path fill-rule="evenodd" clip-rule="evenodd" d="M487.989 452.698C488.073 456.164 487.462 459.613 486.194 462.84C484.925 466.067 483.024 469.008 480.603 471.489C478.181 473.971 475.288 475.943 472.093 477.289C468.898 478.635 465.466 479.329 461.999 479.329C458.532 479.329 455.101 478.635 451.906 477.289C448.711 475.943 445.817 473.971 443.396 471.489C440.974 469.008 439.073 466.067 437.805 462.84C436.536 459.613 435.926 456.164 436.01 452.698H487.989Z" fill="#4FB3F6"/>
<path fill-rule="evenodd" clip-rule="evenodd" d="M643.927 452.698C644.011 456.164 643.401 459.613 642.132 462.84C640.864 466.067 638.963 469.008 636.541 471.489C634.119 473.971 631.226 475.943 628.031 477.289C624.836 478.635 621.404 479.329 617.938 479.329C614.471 479.329 611.039 478.635 607.844 477.289C604.649 475.943 601.756 473.971 599.334 471.489C596.913 469.008 595.012 466.067 593.743 462.84C592.475 459.613 591.864 456.164 591.948 452.698H643.927Z" fill="#4FB3F6"/>
<path d="M280.072 452.698H250.604V855.921H280.072V452.698Z" fill="#FEDD8E"/>
<path d="M673.396 452.698H643.928V855.921H673.396V452.698Z" fill="#FEDD8E"/>
<path d="M280.072 452.698H250.604V480.536H280.072V452.698Z" fill="#FBBE2E"/>
<path fill-rule="evenodd" clip-rule="evenodd" d="M280.087 542.731L250.604 511.709V539.547L280.087 570.569V542.731Z" fill="#FBBE2E"/>
<path fill-rule="evenodd" clip-rule="evenodd" d="M643.928 542.731L673.396 511.709V539.547L643.928 570.569V542.731Z" fill="#FBBE2E"/>
<path fill-rule="evenodd" clip-rule="evenodd" d="M280.087 612.189L250.604 581.167V609.005L280.087 640.027V612.189Z" fill="#FBBE2E"/>
<path fill-rule="evenodd" clip-rule="evenodd" d="M643.928 612.189L673.396 581.167V609.005L643.928 640.027V612.189Z" fill="#FBBE2E"/>
<path fill-rule="evenodd" clip-rule="evenodd" d="M280.087 681.647L250.604 650.625V678.463L280.087 709.485V681.647Z" fill="#FBBE2E"/>
<path fill-rule="evenodd" clip-rule="evenodd" d="M643.928 681.647L673.396 650.625V678.463L643.928 709.485V681.647Z" fill="#FBBE2E"/>
<path fill-rule="evenodd" clip-rule="evenodd" d="M280.087 751.105L250.604 720.083V747.921L280.087 778.943V751.105Z" fill="#FBBE2E"/>
<path fill-rule="evenodd" clip-rule="evenodd" d="M643.928 751.105L673.396 720.083V747.921L643.928 778.943V751.105Z" fill="#FBBE2E"/>
<path d="M673.396 452.698H643.928V480.536H673.396V452.698Z" fill="#FBBE2E"/>
<path d="M817.298 855.937H922.408" stroke="black" stroke-width="2.11" stroke-linecap="round" stroke-linejoin="round"/>
<path fill-rule="evenodd" clip-rule="evenodd" d="M700.332 937.13C701.206 937.695 701.873 938.528 702.235 939.505C702.596 940.481 702.632 941.548 702.337 942.546C702.041 943.544 701.431 944.42 700.597 945.042C699.763 945.665 698.75 946.001 697.71 946H230.897C229.856 946.001 228.843 945.665 228.009 945.042C227.175 944.42 226.565 943.544 226.27 942.546C225.975 941.548 226.011 940.481 226.372 939.505C226.733 938.528 227.401 937.695 228.274 937.13L353.576 855.937H574.985L700.332 937.13Z" fill="#FF341A"/>
<path d="M464.282 543.489H353.578V855.937H464.282V543.489Z" fill="#BDC7FB"/>
<path d="M574.985 543.489H464.281V855.937H574.985V543.489Z" fill="#BDC7FB"/>
<path d="M487.019 663.922H464.281V737.05H487.019V663.922Z" fill="#EBEEFF"/>
<path d="M464.281 663.922H441.543V737.05H464.281V663.922Z" fill="#EBEEFF"/>
<path fill-rule="evenodd" clip-rule="evenodd" d="M250.604 774.591H162.789L195.153 855.937H250.604V774.591Z" fill="#FFC7BF"/>
<path d="M250.604 774.591H223.713V855.937H250.604V774.591Z" fill="#FF341A"/>
<path fill-rule="evenodd" clip-rule="evenodd" d="M673.396 774.591H761.226L728.862 855.937H673.396V774.591Z" fill="#FFC7BF"/>
<path d="M700.288 774.591H673.396V855.937H700.288V774.591Z" fill="#FF341A"/>
<path d="M1.60742 855.937H922.409" stroke="black" stroke-width="2.11" stroke-linecap="round" stroke-linejoin="round"/>
<path d="M187.65 469.361H133.078V481.567H187.65V469.361Z" fill="black"/>
<path d="M190.788 453.683H129.941C125.612 453.683 122.104 457.19 122.104 461.515C122.104 465.84 125.612 469.346 129.941 469.346H190.788C195.116 469.346 198.625 465.84 198.625 461.515C198.625 457.19 195.116 453.683 190.788 453.683Z" fill="#4FB3F6"/>
<path d="M133.078 570.69H104.049V649.2H133.078V570.69Z" fill="#D9F0FF"/>
<path d="M353.578 576.452H347.408V596.921H353.578V576.452Z" fill="#BDC7FB"/>
<path d="M353.578 798.987H347.408V819.456H353.578V798.987Z" fill="#BDC7FB"/>
<path d="M581.156 576.452H574.986V596.921H581.156V576.452Z" fill="#BDC7FB"/>
<path d="M581.156 798.987H574.986V819.456H581.156V798.987Z" fill="#BDC7FB"/>
<path d="M814.144 715.671C821.545 715.671 827.545 709.67 827.545 702.268C827.545 694.865 821.545 688.864 814.144 688.864C806.744 688.864 800.744 694.865 800.744 702.268C800.744 709.67 806.744 715.671 814.144 715.671Z" fill="#24A865"/>
<path d="M171.719 663.013C175.402 663.013 178.389 660.026 178.389 656.341C178.389 652.657 175.402 649.67 171.719 649.67C168.035 649.67 165.049 652.657 165.049 656.341C165.049 660.026 168.035 663.013 171.719 663.013Z" fill="#B9E2FE"/>
<path fill-rule="evenodd" clip-rule="evenodd" d="M152.89 626.942C153.624 626.942 154.342 627.159 154.954 627.566C155.565 627.972 156.043 628.55 156.327 629.227C156.612 629.905 156.69 630.651 156.552 631.372C156.414 632.093 156.066 632.758 155.552 633.283C155.038 633.807 154.381 634.168 153.663 634.321C152.945 634.473 152.197 634.41 151.515 634.139C150.832 633.868 150.245 633.402 149.826 632.799C149.407 632.195 149.176 631.482 149.161 630.748C149.151 630.251 149.24 629.758 149.423 629.297C149.606 628.836 149.879 628.415 150.226 628.061C150.573 627.707 150.988 627.425 151.445 627.233C151.903 627.041 152.394 626.942 152.89 626.942Z" fill="#B9E2FE"/>
<path fill-rule="evenodd" clip-rule="evenodd" d="M165.047 568.583C165.785 568.583 166.506 568.801 167.119 569.211C167.732 569.621 168.21 570.203 168.493 570.885C168.775 571.567 168.849 572.317 168.705 573.04C168.561 573.764 168.206 574.428 167.684 574.95C167.163 575.472 166.498 575.827 165.775 575.971C165.052 576.115 164.302 576.041 163.62 575.758C162.939 575.476 162.357 574.998 161.947 574.385C161.537 573.771 161.318 573.05 161.318 572.312C161.318 571.323 161.711 570.374 162.411 569.675C163.11 568.975 164.058 568.583 165.047 568.583Z" fill="#B9E2FE"/>
<path fill-rule="evenodd" clip-rule="evenodd" d="M452.912 675.855C451.766 675.855 450.647 676.195 449.695 676.831C448.742 677.468 448 678.372 447.562 679.43C447.124 680.489 447.009 681.653 447.232 682.777C447.456 683.9 448.007 684.932 448.817 685.742C449.627 686.552 450.659 687.104 451.782 687.328C452.905 687.551 454.07 687.436 455.128 686.998C456.186 686.56 457.09 685.817 457.726 684.865C458.363 683.912 458.702 682.792 458.702 681.647C458.702 680.111 458.092 678.638 457.006 677.551C455.92 676.465 454.448 675.855 452.912 675.855Z" fill="#163BF3"/>
<path fill-rule="evenodd" clip-rule="evenodd" d="M475.65 675.855C474.504 675.852 473.383 676.189 472.428 676.824C471.474 677.458 470.729 678.362 470.289 679.42C469.848 680.478 469.731 681.643 469.953 682.768C470.175 683.892 470.725 684.926 471.534 685.737C472.344 686.549 473.375 687.102 474.499 687.327C475.623 687.551 476.788 687.437 477.847 686.999C478.906 686.562 479.811 685.819 480.448 684.866C481.085 683.914 481.425 682.793 481.425 681.647C481.425 680.113 480.817 678.643 479.734 677.557C478.652 676.471 477.183 675.859 475.65 675.855Z" fill="#163BF3"/>
<path fill-rule="evenodd" clip-rule="evenodd" d="M703.562 278.742C706.983 278.742 710.328 279.757 713.172 281.659C716.017 283.56 718.234 286.263 719.543 289.425C720.851 292.587 721.193 296.066 720.524 299.423C719.856 302.779 718.207 305.862 715.787 308.28C713.366 310.699 710.283 312.346 706.927 313.012C703.571 313.677 700.092 313.333 696.932 312.021C693.772 310.709 691.072 308.489 689.173 305.642C687.274 302.795 686.263 299.449 686.266 296.027C686.274 291.442 688.099 287.048 691.341 283.808C694.584 280.568 698.978 278.746 703.562 278.742Z" fill="#FFF3D6"/>
<path d="M703.562 296.027L627.39 258.819V228.843" stroke="#FFF3D6" stroke-width="2.11" stroke-linecap="round" stroke-linejoin="round"/>
<path d="M703.562 296.027L779.734 258.819V228.843" stroke="#FFF3D6" stroke-width="2.11" stroke-linecap="round" stroke-linejoin="round"/>
<path d="M627.39 228.843C627.39 215.864 630.239 204.735 642.382 204.735C654.524 204.735 657.54 240.033 648.445 240.033C639.35 240.033 658.283 205.069 671.426 205.069C684.568 205.069 688.1 240.139 679.278 240.139C670.456 240.139 689.889 205.417 703.532 205.417C717.175 205.417 721.04 240.139 709.914 240.139C698.787 240.139 717.493 204.735 736.866 204.735C751.024 204.735 760.013 240.472 745.855 240.472C731.697 240.472 756.163 205.599 769.973 205.918C780.735 206.1 779.432 216.683 779.704 228.843" stroke="#FFF3D6" stroke-width="2.11" stroke-linecap="round" stroke-linejoin="round"/>
<path fill-rule="evenodd" clip-rule="evenodd" d="M703.562 308.263V385.696H683.992V354.977C683.992 346.282 685.723 337.673 689.082 329.652C692.442 321.632 697.365 314.361 703.562 308.263Z" fill="#FFF3D6"/>
<path fill-rule="evenodd" clip-rule="evenodd" d="M703.562 308.263V385.696H723.071V354.977C723.071 346.282 721.34 337.673 717.981 329.652C714.621 321.632 709.699 314.361 703.501 308.263H703.562Z" fill="#FFF3D6"/>
<path d="M723.132 394.156H683.992V401.798H723.132V394.156Z" fill="#FFF3D6"/>
<path d="M723.132 408.652H683.992V416.293H723.132V408.652Z" fill="#FFF3D6"/>
<path fill-rule="evenodd" clip-rule="evenodd" d="M191.501 584.503C165.231 584.503 155.12 619.74 177.07 619.74C199.019 619.74 189.075 589.885 210.343 589.885C204.732 586.267 198.175 584.394 191.501 584.503Z" fill="black"/>
<path fill-rule="evenodd" clip-rule="evenodd" d="M706.26 580.712C725.542 571.296 745.673 593.524 729.468 601.409C713.263 609.293 709.974 583.79 694.36 591.402C697.187 586.744 701.327 583.025 706.26 580.712Z" fill="black"/>
<path fill-rule="evenodd" clip-rule="evenodd" d="M191.5 584.503C219.483 584.503 242.16 605.245 242.16 624.971C242.16 644.697 233.262 648.427 223.773 648.427C214.284 648.427 205.931 638.223 205.931 624.289C205.931 610.354 207.083 584.412 191.5 584.503Z" fill="#60D399"/>
<path fill-rule="evenodd" clip-rule="evenodd" d="M706.26 580.712C685.736 590.719 676.504 614.069 683.522 628.549C690.541 643.029 698.439 642.574 705.412 639.163C712.385 635.751 714.855 625.289 709.868 615.055C704.881 604.82 694.8 586.231 706.26 580.712Z" fill="#60D399"/>
<path d="M211.039 587.99C211.039 587.99 232.383 601.879 228.199 636.358" stroke="#24A865" stroke-width="0.93" stroke-linecap="round" stroke-linejoin="round"/>
<path d="M693.163 590.264C693.163 590.264 682.552 608.11 697.877 631.93" stroke="#24A865" stroke-width="0.93" stroke-linecap="round" stroke-linejoin="round"/>
<path d="M216.77 684.816C223.909 688.864 249.725 710.046 237.097 774.591" stroke="#24A865" stroke-width="0.93" stroke-linecap="round" stroke-linejoin="round"/>
<path d="M706.669 684.816C699.529 688.864 673.714 710.046 686.341 774.591" stroke="#24A865" stroke-width="0.93" stroke-linecap="round" stroke-linejoin="round"/>
<path d="M542.322 625.934C550.069 613.398 546.188 596.953 533.655 589.205C521.121 581.456 504.68 585.337 496.933 597.874C489.186 610.41 493.067 626.855 505.6 634.603C518.134 642.352 534.575 638.471 542.322 625.934Z" fill="#EBEEFF"/>
<path d="M408.922 638.541C423.656 638.541 435.601 626.593 435.601 611.855C435.601 597.117 423.656 585.17 408.922 585.17C394.187 585.17 382.242 597.117 382.242 611.855C382.242 626.593 394.187 638.541 408.922 638.541Z" fill="#EBEEFF"/>
<path d="M422.413 384.18C422.413 384.18 432.645 361.224 422.58 362.24C415.273 362.983 405.42 376.857 399.084 391.973C393.794 404.619 391.626 429.788 402.116 429.788C412.605 429.788 436.981 402.739 446.773 386.197C452.443 376.66 459.734 362.24 452.018 362.24C446.273 362.24 441.407 371.58 435.829 384.119C423.05 412.548 424.732 429.03 429.113 429.03C433.494 429.03 451.851 414.11 460.628 391.973C450.32 416.4 447.38 429.03 452.913 429.03C458.445 429.03 475.878 411.624 482.063 391.973C479.031 399.994 466.677 430.167 474.104 430.167C481.532 430.167 525.856 362.24 511.865 362.24C499.586 362.24 482.093 429.788 498.313 429.788C514.533 429.788 540.757 394.005 523.916 394.005C507.075 394.005 500.966 413.2 500.966 413.2" stroke="white" stroke-width="2.11" stroke-linecap="round" stroke-linejoin="round"/>
<path d="M421.852 319.771L433.751 338.526L445.666 319.771" stroke="white" stroke-width="2.11" stroke-linecap="round" stroke-linejoin="round"/>
<path d="M462.008 319.771V338.526" stroke="white" stroke-width="2.11" stroke-linecap="round" stroke-linejoin="round"/>
<path d="M484.867 319.771V338.526" stroke="white" stroke-width="2.11" stroke-linecap="round" stroke-linejoin="round"/>
<path d="M484.867 319.771H496.479C497.721 319.771 498.913 320.264 499.791 321.143C500.669 322.022 501.163 323.213 501.163 324.456C501.163 325.698 500.669 326.89 499.791 327.769C498.913 328.647 497.721 329.141 496.479 329.141H484.867" stroke="white" stroke-width="2.11" stroke-linecap="round" stroke-linejoin="round"/>
</g>
<defs>
<clipPath id="clip0_450:22517">
<rect width="924" height="946" fill="white"/>
</clipPath>
</defs>
</svg>
