<svg width="2856" height="800" viewBox="0 0 2856 800" fill="none" xmlns="http://www.w3.org/2000/svg">
<g clip-path="url(#clip0_450:20500)">
<path d="M2856 0H0V800H2856V0Z" fill="#4FB3F6"/>
<path fill-rule="evenodd" clip-rule="evenodd" d="M269.931 0C269.401 8.53 269.141 17.12 269.141 25.78C269.141 253.74 454.211 438.82 682.181 438.82C828.631 438.82 957.391 362.43 1030.73 247.34C1065.08 193.58 1124.46 161.05 1188.26 161.05C1321.39 161.05 1439.9 97.93 1515.45 0H269.931V0Z" fill="#BDC7FB"/>
<path fill-rule="evenodd" clip-rule="evenodd" d="M650.74 0H0V506.38C75.73 592.7 186.82 647.23 310.55 647.23C538.51 647.23 723.59 462.15 723.59 234.19C723.59 147.26 696.68 66.57 650.74 0Z" fill="#0089E3"/>
<path fill-rule="evenodd" clip-rule="evenodd" d="M317.39 800C317.39 624.83 175.17 482.6 0 482.6V800H317.39Z" fill="#E3F7ED"/>
<path fill-rule="evenodd" clip-rule="evenodd" d="M2856 0H2456C2456 220.77 2635.23 400 2856 400V0Z" fill="#D9F0FF"/>
<path fill-rule="evenodd" clip-rule="evenodd" d="M2856 800V372.55C2799.65 343.71 2735.83 327.44 2668.24 327.44C2521.79 327.44 2393.03 403.83 2319.69 518.92C2285.34 572.68 2225.96 605.21 2162.16 605.21C2014.3 605.21 1884.48 683.07 1811.51 800H2856Z" fill="#0089E3"/>
<path fill-rule="evenodd" clip-rule="evenodd" d="M2021.74 800C1946.05 704.69 1829.18 643.52 1698.13 643.52C1567.08 643.52 1450.21 704.69 1374.52 800H2021.74Z" fill="#BDC7FB"/>
<path fill-rule="evenodd" clip-rule="evenodd" d="M91.0918 563C94.7418 556.93 107.242 557.73 119.012 564.8C130.772 571.86 137.362 582.53 133.722 588.6C130.072 594.67 117.572 593.87 105.802 586.8C94.0418 579.74 87.4518 569.07 91.0918 563Z" fill="#9CE8C2"/>
<path d="M237.428 753.359C246.557 750.267 249.101 733.423 243.111 715.736C237.12 698.049 224.864 686.218 215.736 689.309C206.607 692.401 204.063 709.245 210.053 726.932C216.043 744.619 228.3 756.451 237.428 753.359Z" fill="#9CE8C2"/>
<path fill-rule="evenodd" clip-rule="evenodd" d="M59.1818 668.24C72.3218 653.29 97.9718 654.33 116.442 670.55C134.912 686.78 139.242 712.09 126.102 727.04C112.962 741.99 87.3118 740.95 68.8418 724.73C50.3718 708.5 46.0418 683.19 59.1818 668.24Z" fill="#9CE8C2"/>
<path fill-rule="evenodd" clip-rule="evenodd" d="M2534.32 596.28C2534.32 596.28 2542.16 607.62 2548.55 607.62C2554.94 607.62 2568.14 603.91 2571.24 591.74C2574.33 579.57 2584.74 540.41 2565.41 535.04C2546.08 529.67 2535.56 568.03 2535.56 568.03L2534.32 596.28Z" fill="#4FB3F6"/>
<path fill-rule="evenodd" clip-rule="evenodd" d="M2546.98 518.53C2537.98 517.45 2526 522.44 2524.77 536.06C2519.82 533.71 2515.49 533.34 2510.66 532.1C2505.83 530.86 2501.51 532.1 2499.52 537.55C2497.54 543 2496.43 556.11 2496.06 560.94C2495.69 565.77 2500.76 574.43 2504.72 572.7C2508.68 570.97 2506.7 562.8 2508.06 559.58C2509.42 556.36 2513.38 545.84 2513.38 545.84L2522.91 552.03C2522.91 552.03 2518.21 561.56 2517.83 570.96C2517.72 573.82 2499.64 587.54 2493.7 591.5C2487.76 595.46 2488.37 597.81 2486.27 604C2484.17 610.19 2480.95 625.9 2480.95 625.9C2480.95 625.9 2476.12 630.85 2472.17 632.95C2468.21 635.05 2465.24 639.26 2468.33 641.61C2471.43 643.96 2485.04 641.12 2491.35 637.77C2489 642.6 2477.62 655.96 2482.94 660.17C2488.26 664.38 2494.45 657.94 2498.66 654.35C2502.86 650.76 2507.44 640.98 2508.06 637.15C2508.68 633.31 2509.17 620.57 2516.84 616.24C2524.51 611.91 2537.88 600.52 2542.09 597.18C2546.3 593.84 2552.11 586.91 2553.23 581.09C2554.34 575.27 2556.94 566.36 2556.94 566.36C2556.94 566.36 2565.97 571.68 2567.83 574.78C2569.68 577.87 2571.17 582.82 2568.82 588.39C2566.47 593.96 2560.28 606.33 2560.78 611.9C2561.27 617.47 2562.63 618.95 2565.85 618.95C2569.07 618.95 2573.03 613.75 2573.9 608.55C2574.77 603.35 2580.21 593.08 2583.67 589.37C2587.14 585.66 2589.49 572.66 2583.42 567.22C2577.35 561.77 2563.87 549.89 2563.87 549.89C2563.87 549.89 2567.21 544.57 2566.35 538.26C2565.48 531.98 2562.13 520.35 2546.98 518.53Z" fill="white"/>
<path d="M2525.86 588.04C2525.86 588.04 2511.42 598.87 2506.27 602.22C2501.11 605.57 2500.34 609.7 2498.28 616.14C2496.66 621.2 2492.6 632.43 2490.7 637.1C2490.17 638.38 2488.69 640.11 2488.69 640.11" stroke="#4FB3F6" stroke-width="2.0833" stroke-miterlimit="10" stroke-linecap="round" stroke-linejoin="round"/>
<path d="M2549.74 563.15L2557.08 567.73" stroke="#0089E3" stroke-width="2.0833" stroke-miterlimit="10" stroke-linecap="round" stroke-linejoin="round"/>
<path d="M2558.53 556.38C2558.53 556.38 2561.93 555.06 2564.61 550.57" stroke="#0089E3" stroke-width="2.0833" stroke-miterlimit="10" stroke-linecap="round" stroke-linejoin="round"/>
<path d="M2509.05 544.25L2513.48 547.16" stroke="#4FB3F6" stroke-width="2.0833" stroke-miterlimit="10" stroke-linecap="round" stroke-linejoin="round"/>
<path d="M2524.96 547.66C2524.96 547.66 2521.74 551.65 2520.95 553.48" stroke="#4FB3F6" stroke-width="2.0833" stroke-miterlimit="10" stroke-linecap="round" stroke-linejoin="round"/>
<path fill-rule="evenodd" clip-rule="evenodd" d="M2527.11 531.05C2527.11 531.05 2538.82 530.9 2544.14 538.58C2549.46 546.27 2544.38 550.91 2540.58 552.51C2536.78 554.11 2528.75 549.22 2526.56 543.89C2524.36 538.58 2527.11 531.05 2527.11 531.05Z" fill="#4FB3F6"/>
<path fill-rule="evenodd" clip-rule="evenodd" d="M2315.4 275.95C2316.48 265.73 2319.48 250.33 2325.05 250.33C2330.62 250.33 2325.55 264.93 2325.55 271.74C2325.55 278.54 2331.86 288.32 2331.86 288.32C2331.86 288.32 2336.44 274.09 2347.21 275.82C2357.98 277.55 2359.21 289.06 2358.1 293.27C2356.99 297.47 2355.75 301.68 2355.75 301.68C2355.75 301.68 2363.05 302.8 2362.93 308.98C2362.81 315.17 2360.95 346.97 2361.2 352.05C2361.45 357.13 2354.89 356.01 2355.01 349.82C2355.13 343.63 2352.86 321.77 2352.86 321.77C2352.86 321.77 2350.34 365.47 2348.99 377.26C2347.64 389.05 2347.25 394.66 2341.64 393.7C2336.03 392.73 2335.39 377.4 2335.39 377.4C2335.39 377.4 2333.95 392.99 2327.77 392.8C2321.58 392.61 2321.27 382.88 2321.73 375.91C2322.36 366.42 2325.4 309.4 2325.4 309.4C2325.4 309.4 2325.54 298.43 2321.7 294.72C2317.86 291 2314.31 286.3 2315.4 275.95Z" fill="white"/>
<path fill-rule="evenodd" clip-rule="evenodd" d="M2324.49 300.38C2324.52 298.85 2325.24 297.41 2326.45 296.47C2327.66 295.53 2329.23 295.19 2330.72 295.54C2336.64 296.94 2345.44 299.02 2350.52 300.22C2352.87 300.77 2354.49 302.9 2354.42 305.31C2354.18 313.04 2353.66 329.71 2353.38 338.61C2353.33 340.08 2352.65 341.46 2351.5 342.39C2350.36 343.32 2348.87 343.7 2347.42 343.44C2341.72 342.42 2333.13 340.87 2328.03 339.96C2325.58 339.52 2323.81 337.37 2323.86 334.88C2324.01 326.87 2324.32 309.68 2324.49 300.38Z" fill="#0089E3"/>
<path d="M2335.34 385.27L2337.88 353.35" stroke="#4FB3F6" stroke-width="2.0833" stroke-miterlimit="10" stroke-linecap="round" stroke-linejoin="round"/>
<path fill-rule="evenodd" clip-rule="evenodd" d="M2330.15 383C2326.74 383.61 2325.25 386.72 2325.75 391.36C2326.26 396.01 2328.12 400.31 2330.4 399.98C2332.68 399.64 2335.33 392.04 2335.33 389.25C2335.33 386.46 2335.81 381.99 2330.15 383Z" fill="#0089E3"/>
<path fill-rule="evenodd" clip-rule="evenodd" d="M2340.54 383C2343.95 383.61 2345.44 386.72 2344.93 391.36C2344.42 396.01 2342.56 400.31 2340.28 399.98C2338 399.64 2335.34 392.04 2335.34 389.25C2335.34 386.46 2334.88 381.99 2340.54 383Z" fill="#0089E3"/>
<path d="M2333.05 283.47C2333.05 283.47 2329.26 289.91 2335.33 293.4" stroke="#4FB3F6" stroke-width="2.0833" stroke-miterlimit="10" stroke-linecap="round" stroke-linejoin="round"/>
<path fill-rule="evenodd" clip-rule="evenodd" d="M828.821 702.2C824.851 702.2 813.721 703.29 811.981 709.6C810.251 715.91 819.031 732.74 822.631 736.33C826.221 739.92 832.931 739.89 837.001 739.89C841.071 739.89 832.791 702.2 828.821 702.2Z" fill="#0089E3"/>
<path fill-rule="evenodd" clip-rule="evenodd" d="M829.031 706.52C828.091 689.69 829.031 676.05 829.031 671.41C829.031 666.77 830.891 659.34 835.371 658.88C839.861 658.42 837.841 663.52 839.551 665.07C841.251 666.62 842.951 667.55 841.561 670.33C840.171 673.11 840.321 675.13 840.321 678.06V687.65C840.321 687.65 844.191 682.39 850.691 683.94C857.191 685.49 858.631 692.3 858.541 696.1C858.371 703.56 854.231 706.55 854.231 706.55C854.231 706.55 868.361 698.69 870.901 697.36C873.431 696.03 872.481 693.69 874.451 692.8C876.421 691.91 875.971 694 877.171 693.88C878.371 693.75 881.291 692.17 882.111 694.77C882.931 697.37 879.961 701.8 877.361 703.2C874.761 704.59 856.391 717.27 856.391 717.27L858.521 721.14C858.521 721.14 866.811 722.38 875.351 722.38C883.891 722.38 896.391 724.85 901.091 725.35C905.791 725.84 907.771 720.4 911.981 720.77C916.191 721.14 913.711 724.36 912.721 727.7C911.731 731.04 907.721 736.71 903.761 736.71C899.801 736.71 889.411 735.72 889.411 735.72C889.411 735.72 894.461 743.74 896.941 746.91C899.411 750.08 900.901 749.58 904.361 749.48C907.821 749.38 910.791 750.96 907.631 752.65C904.461 754.33 901.191 756.71 898.321 757.9C895.451 759.09 892.481 757.8 890.201 754.43C887.921 751.06 876.931 741.86 876.931 741.86H850.991C843.571 741.86 831.491 742.55 830.501 728.79C829.501 715.02 829.721 718.93 829.031 706.52Z" fill="white"/>
<path d="M841.359 685.98V710.57" stroke="#4FB3F6" stroke-width="2.0833" stroke-miterlimit="10" stroke-linecap="round" stroke-linejoin="round"/>
<path fill-rule="evenodd" clip-rule="evenodd" d="M853.52 687.16C853.52 687.16 845.45 686.43 845.2 697.57C845.01 705.99 850.32 705.78 850.32 705.78C850.32 705.78 857.16 705.49 857.16 696.7C857.16 687.91 853.52 687.16 853.52 687.16Z" fill="#4FB3F6"/>
<path d="M858.5 702.55C856.56 705.79 854.61 709.2 847.75 710.47" stroke="#4FB3F6" stroke-width="2.0833" stroke-miterlimit="10" stroke-linecap="round" stroke-linejoin="round"/>
<path d="M849.152 711.11C849.152 711.11 849.182 718.97 851.492 721.17" stroke="#4FB3F6" stroke-width="2.0833" stroke-miterlimit="10" stroke-linecap="round" stroke-linejoin="round"/>
<path d="M851.492 728.34H872.322C879.582 728.34 886.862 730.27 891.322 736.87" stroke="#4FB3F6" stroke-width="2.0833" stroke-miterlimit="10" stroke-linecap="round" stroke-linejoin="round"/>
<path d="M313.039 157.83H337.679C354.509 157.83 364.279 171.44 364.279 193.2C364.279 210.55 379.649 224.46 394.429 224.46C409.209 224.46 425.549 214.73 425.549 196.34" stroke="#4FB3F6" stroke-width="2.0833" stroke-miterlimit="10" stroke-linecap="round" stroke-linejoin="round"/>
<path d="M297.109 123.29H272.609V174.67H297.109V123.29Z" fill="#D9F0FF"/>
<path d="M297.109 174.67H272.609V190.4H297.109V174.67Z" fill="white"/>
<path d="M297.109 190.4H272.609V206.13H297.109V190.4Z" fill="white"/>
<path fill-rule="evenodd" clip-rule="evenodd" d="M272.608 174.67H248.508L272.608 190.4V174.67Z" fill="#D9F0FF"/>
<path fill-rule="evenodd" clip-rule="evenodd" d="M297.109 174.67H321.199L297.109 190.4V174.67Z" fill="#D9F0FF"/>
<path fill-rule="evenodd" clip-rule="evenodd" d="M248.508 174.67V134.44L272.608 123.28V174.67H248.508Z" fill="white"/>
<path fill-rule="evenodd" clip-rule="evenodd" d="M321.199 174.67V134.44L297.109 123.28V174.67H321.199Z" fill="white"/>
<path d="M245.73 241.38L272.61 206.13" stroke="white" stroke-width="2.0833" stroke-miterlimit="10" stroke-linecap="round" stroke-linejoin="round"/>
<path d="M323.989 241.38L297.109 206.13" stroke="white" stroke-width="2.0833" stroke-miterlimit="10" stroke-linecap="round" stroke-linejoin="round"/>
<path fill-rule="evenodd" clip-rule="evenodd" d="M245.729 235.35C249.059 235.35 251.759 238.05 251.759 241.38C251.759 244.71 249.059 247.42 245.729 247.42C242.399 247.42 239.699 244.72 239.699 241.38C239.689 238.05 242.399 235.35 245.729 235.35Z" fill="white"/>
<path fill-rule="evenodd" clip-rule="evenodd" d="M323.991 235.35C327.321 235.35 330.021 238.05 330.021 241.38C330.021 244.71 327.321 247.42 323.991 247.42C320.661 247.42 317.961 244.72 317.961 241.38C317.961 238.05 320.661 235.35 323.991 235.35Z" fill="white"/>
<path fill-rule="evenodd" clip-rule="evenodd" d="M423.571 173.61C423.571 173.61 417.461 177.02 417.461 182.43V197.51C417.461 200.9 419.691 204.38 423.551 204.38H433.611V173.54L423.571 173.61Z" fill="#4FB3F6"/>
<path fill-rule="evenodd" clip-rule="evenodd" d="M414.578 154C415.038 159.25 416.748 171.04 426.178 175.02C435.608 179.01 433.608 181.73 433.608 187.17V214.36C433.608 219.43 430.348 219.98 426.908 222.88C423.458 225.78 420.998 227.5 419.058 228.85C417.128 230.2 417.508 231.27 418.578 234.17C419.648 237.07 422.638 244.32 424.768 243.74C426.898 243.16 426.418 236.97 428.828 235.52C431.248 234.07 437.918 227.6 439.758 226.53C438.018 230.01 436.958 234.65 436.278 237.36C435.598 240.07 437.348 241.04 438.598 241.91C439.858 242.78 442.658 245 445.168 246.55C447.678 248.1 448.748 246.55 447.588 242.3C446.428 238.05 445.848 233.02 448.268 230.7C450.688 228.38 451.558 226.06 453.008 223.74C454.458 221.42 455.528 217.65 455.528 213.59V191.36C455.528 191.36 464.708 189.04 468.098 188.56C471.478 188.08 472.738 186.63 475.638 183.73C478.538 180.83 482.308 176.48 482.208 172.13C482.108 167.78 480.278 166.04 478.628 166.04C476.988 166.04 476.598 169.71 476.598 169.71C476.598 169.71 474.758 168.74 474.668 170.19C474.568 171.64 474.858 174.83 472.438 176.48C470.018 178.12 468.088 179.76 468.088 179.76H458.618C458.618 179.76 465.188 177.06 465.188 168.26C465.188 159.46 461.138 155.72 455.808 154.43C451.108 153.3 444.308 154.33 440.148 162.45C438.498 165.67 439.178 169.51 439.178 169.51C439.178 169.51 431.828 169.51 428.448 164C425.068 158.49 425.448 158.4 425.448 156.85C425.448 155.3 426.868 152.53 425.658 151.9C424.458 151.27 423.248 152.76 422.458 152.06C421.668 151.36 420.308 147.31 417.288 148.01C414.278 148.67 414.338 151.31 414.578 154Z" fill="white"/>
<path fill-rule="evenodd" clip-rule="evenodd" d="M456.938 157.87C449.968 157.23 447.238 163.94 447.238 169.35C447.238 174.76 451.258 178.37 455.218 178.37C459.178 178.37 463.758 173.71 463.758 168.17C463.748 162.62 461.728 158.31 456.938 157.87Z" fill="#4FB3F6"/>
<path d="M450.199 183.74C450.199 183.74 455.909 182.69 460.599 179.74" stroke="#4FB3F6" stroke-width="2.0833" stroke-miterlimit="10" stroke-linecap="round" stroke-linejoin="round"/>
<path d="M455.848 183.07L456.418 192.06" stroke="#4FB3F6" stroke-width="2.0833" stroke-miterlimit="10" stroke-linecap="round" stroke-linejoin="round"/>
<path d="M446.228 207.5C446.228 207.5 445.328 218.47 444.448 221.07C443.698 223.27 442.128 226.25 436.918 230.14" stroke="#4FB3F6" stroke-width="2.0833" stroke-miterlimit="10" stroke-linecap="round" stroke-linejoin="round"/>
<path d="M431.848 180.08L434.268 182.53" stroke="#0089E3" stroke-width="2.0833" stroke-miterlimit="10" stroke-linecap="round" stroke-linejoin="round"/>
<path d="M437.891 168.69L438.901 172.35" stroke="#4FB3F6" stroke-width="2.0833" stroke-miterlimit="10" stroke-linecap="round" stroke-linejoin="round"/>
<path d="M2770.98 228.971C2815.98 183.976 2815.98 111.023 2770.98 66.0273C2725.99 21.0315 2653.03 21.0315 2608.04 66.0272C2563.04 111.023 2563.04 183.976 2608.04 228.971C2653.03 273.967 2725.99 273.967 2770.98 228.971Z" fill="#4FB3F6"/>
<path d="M2783.56 169.795C2795.8 117.933 2763.69 65.9631 2711.83 53.7171C2659.96 41.4711 2607.99 73.586 2595.75 125.448C2583.5 177.31 2615.62 229.279 2667.48 241.525C2719.34 253.771 2771.31 221.656 2783.56 169.795Z" fill="#BDC7FB"/>
<path fill-rule="evenodd" clip-rule="evenodd" d="M2654.1 57.7201C2654.1 57.7201 2648.57 85.1201 2646.27 95.3101C2643.97 105.49 2652.18 111.74 2653.83 117.65C2655.47 123.56 2655.47 126.85 2651.2 132.1C2646.93 137.36 2639.37 147.21 2640.03 161.33C2640.68 175.45 2648.9 196.8 2659.74 202.72C2670.58 208.63 2694.56 216.52 2706.38 195.5C2718.21 174.48 2718.21 156.64 2714.26 147.49C2724.44 146.89 2741.85 148.53 2750.06 136.04C2758.27 123.56 2772.71 98.59 2772.71 98.59C2772.71 98.59 2755.32 65.5701 2716.49 54.8301C2678.01 44.1701 2654.1 57.7201 2654.1 57.7201Z" fill="white"/>
<path fill-rule="evenodd" clip-rule="evenodd" d="M2646.15 139.04C2646.15 139.04 2669.2 126.44 2681.55 135.38C2693.9 144.31 2697 153.01 2697.27 159.85C2697.54 166.69 2698.89 188.2 2683.39 197.92C2667.89 207.64 2655.65 199.67 2655.65 199.67C2655.65 199.67 2642.9 189.6 2639.99 172.06C2637.08 154.51 2640.97 147.17 2646.15 139.04Z" fill="#0089E3"/>
<path d="M2661.05 100.43C2661.05 100.43 2672.3 71.8099 2679.08 51.1199" stroke="#4FB3F6" stroke-width="2.0833" stroke-miterlimit="10" stroke-linecap="round" stroke-linejoin="round"/>
<path d="M2725.92 120.57L2753.1 73.8398" stroke="#4FB3F6" stroke-width="2.0833" stroke-miterlimit="10" stroke-linecap="round" stroke-linejoin="round"/>
<path fill-rule="evenodd" clip-rule="evenodd" d="M2661.05 133.38C2661.05 133.38 2661.21 137.65 2657 140.38C2652.8 143.11 2648.17 146.9 2648.38 153.63C2648.59 160.36 2649.12 182.01 2661.05 189.37C2672.98 196.72 2681.07 197.25 2685.75 196.25C2693.69 192.02 2698.72 177.78 2698.43 162.25C2698.1 144.81 2687.92 135.3 2675.08 132.63C2668.94 131.66 2664.32 132.51 2661.05 133.38Z" fill="#D9F0FF"/>
<path fill-rule="evenodd" clip-rule="evenodd" d="M2655.15 152.6C2661.21 151.54 2666.81 153.95 2666.97 156.5C2667.13 159.06 2657.71 158.25 2655.42 158.93C2653.13 159.6 2651.92 159.2 2651.65 156.78C2651.38 154.35 2652.45 153.07 2655.15 152.6Z" fill="white"/>
<path fill-rule="evenodd" clip-rule="evenodd" d="M2665.07 171.37C2665.86 171.37 2666.5 172.02 2666.5 172.81C2666.5 173.6 2665.86 174.24 2665.07 174.24C2664.28 174.24 2663.63 173.6 2663.63 172.81C2663.63 172.01 2664.28 171.37 2665.07 171.37Z" fill="#0089E3"/>
<path fill-rule="evenodd" clip-rule="evenodd" d="M2653.88 171.37C2654.67 171.37 2655.32 172.02 2655.32 172.81C2655.32 173.6 2654.67 174.24 2653.88 174.24C2653.09 174.24 2652.45 173.6 2652.45 172.81C2652.44 172.01 2653.08 171.37 2653.88 171.37Z" fill="#0089E3"/>
<path d="M2658.25 171.37C2658.25 171.37 2655.72 168.97 2653.63 166.99C2653.14 166.52 2652.96 165.81 2653.18 165.17C2653.4 164.53 2653.96 164.07 2654.63 164C2656.41 163.8 2658.15 163.61 2658.15 163.61" stroke="#0089E3" stroke-width="2.0833" stroke-miterlimit="10" stroke-linecap="round" stroke-linejoin="round"/>
<path fill-rule="evenodd" clip-rule="evenodd" d="M2653.88 181.27H2673.41V156.18C2673.41 156.18 2675.72 167.49 2680.01 167.49C2684.3 167.49 2684.56 145.14 2690.94 141.32C2698.18 147.5 2705.32 173.1 2691.57 190.71C2688.5 194.65 2685.76 196.25 2685.76 196.25C2685.76 196.25 2663.39 200.88 2653.88 181.27Z" fill="#4FB3F6"/>
<path fill-rule="evenodd" clip-rule="evenodd" d="M2689.53 249.01C2691.79 249.01 2693.62 250.84 2693.62 253.1C2693.62 255.36 2691.79 257.19 2689.53 257.19C2687.27 257.19 2685.44 255.36 2685.44 253.1C2685.44 250.84 2687.27 249.01 2689.53 249.01Z" fill="#D9F0FF"/>
<path fill-rule="evenodd" clip-rule="evenodd" d="M2689.53 37.3999C2691.79 37.3999 2693.62 39.2299 2693.62 41.4899C2693.62 43.7499 2691.79 45.5799 2689.53 45.5799C2687.27 45.5799 2685.44 43.7499 2685.44 41.4899C2685.44 39.2299 2687.27 37.3999 2689.53 37.3999Z" fill="#D9F0FF"/>
<path fill-rule="evenodd" clip-rule="evenodd" d="M2587.82 147.3C2587.82 149.56 2585.99 151.39 2583.73 151.39C2581.47 151.39 2579.64 149.56 2579.64 147.3C2579.64 145.04 2581.47 143.21 2583.73 143.21C2585.99 143.2 2587.82 145.04 2587.82 147.3Z" fill="#D9F0FF"/>
<path d="M2795.34 151.39C2797.6 151.39 2799.43 149.559 2799.43 147.3C2799.43 145.041 2797.6 143.21 2795.34 143.21C2793.08 143.21 2791.25 145.041 2791.25 147.3C2791.25 149.559 2793.08 151.39 2795.34 151.39Z" fill="#D9F0FF"/>
<path fill-rule="evenodd" clip-rule="evenodd" d="M2601.45 96.44C2600.32 98.4 2597.82 99.07 2595.86 97.94C2593.91 96.81 2593.24 94.31 2594.36 92.35C2595.49 90.4 2597.99 89.73 2599.95 90.85C2601.91 91.97 2602.57 94.48 2601.45 96.44Z" fill="#D9F0FF"/>
<path fill-rule="evenodd" clip-rule="evenodd" d="M2784.7 202.24C2783.57 204.2 2781.07 204.87 2779.11 203.74C2777.16 202.61 2776.49 200.11 2777.61 198.15C2778.74 196.2 2781.24 195.52 2783.2 196.65C2785.16 197.78 2785.83 200.29 2784.7 202.24Z" fill="#D9F0FF"/>
<path fill-rule="evenodd" clip-rule="evenodd" d="M2638.68 59.21C2636.72 60.34 2634.22 59.67 2633.09 57.71C2631.96 55.75 2632.63 53.25 2634.59 52.12C2636.54 50.99 2639.05 51.66 2640.18 53.62C2641.3 55.57 2640.63 58.08 2638.68 59.21Z" fill="#D9F0FF"/>
<path fill-rule="evenodd" clip-rule="evenodd" d="M2744.48 242.47C2742.52 243.6 2740.02 242.93 2738.89 240.97C2737.76 239.01 2738.43 236.51 2740.39 235.38C2742.34 234.25 2744.85 234.92 2745.98 236.88C2747.11 238.83 2746.44 241.34 2744.48 242.47Z" fill="#D9F0FF"/>
<path fill-rule="evenodd" clip-rule="evenodd" d="M2740.39 59.21C2738.43 58.08 2737.76 55.58 2738.89 53.62C2740.02 51.66 2742.52 50.99 2744.48 52.12C2746.43 53.25 2747.1 55.75 2745.98 57.71C2744.85 59.67 2742.35 60.34 2740.39 59.21Z" fill="#D9F0FF"/>
<path fill-rule="evenodd" clip-rule="evenodd" d="M2634.59 242.47C2632.63 241.34 2631.96 238.84 2633.09 236.88C2634.22 234.92 2636.72 234.25 2638.68 235.38C2640.63 236.51 2641.3 239.01 2640.18 240.97C2639.05 242.93 2636.54 243.6 2634.59 242.47Z" fill="#D9F0FF"/>
<path fill-rule="evenodd" clip-rule="evenodd" d="M2777.62 96.44C2776.49 94.49 2777.16 91.98 2779.12 90.85C2781.07 89.72 2783.58 90.39 2784.71 92.35C2785.84 94.31 2785.17 96.81 2783.21 97.94C2781.25 99.07 2778.75 98.4 2777.62 96.44Z" fill="#D9F0FF"/>
<path fill-rule="evenodd" clip-rule="evenodd" d="M2594.36 202.24C2593.23 200.29 2593.9 197.78 2595.86 196.65C2597.81 195.52 2600.32 196.19 2601.45 198.15C2602.58 200.11 2601.91 202.61 2599.95 203.74C2598 204.87 2595.49 204.2 2594.36 202.24Z" fill="#D9F0FF"/>
<path fill-rule="evenodd" clip-rule="evenodd" d="M1106.28 531.32C1138.86 531.32 1165.31 557.77 1165.31 590.34C1165.31 622.92 1138.86 649.36 1106.28 649.36C1073.71 649.36 1047.26 622.91 1047.26 590.34C1047.26 557.77 1073.71 531.32 1106.28 531.32Z" fill="#FBBE2E"/>
<path fill-rule="evenodd" clip-rule="evenodd" d="M1131.77 564.86C1200.56 633.65 1244.98 700.91 1230.92 714.98C1216.86 729.05 1149.59 684.62 1080.8 615.83C1012.01 547.04 967.589 479.78 981.649 465.71C995.719 451.65 1062.98 496.07 1131.77 564.86Z" fill="#FBBE2E"/>
<path fill-rule="evenodd" clip-rule="evenodd" d="M1124.3 572.33C1172.93 620.96 1204.34 668.51 1194.39 678.46C1184.45 688.4 1136.89 657 1088.26 608.37C1039.63 559.74 1008.22 512.18 1018.17 502.24C1028.12 492.29 1075.67 523.7 1124.3 572.33Z" fill="white"/>
<path fill-rule="evenodd" clip-rule="evenodd" d="M1117.53 579.11C1147.87 609.45 1167.47 639.12 1161.27 645.33C1155.07 651.53 1125.39 631.94 1095.05 601.6C1064.71 571.26 1045.11 541.59 1051.32 535.38C1057.51 529.17 1087.18 548.76 1117.53 579.11Z" fill="#FBBE2E"/>
<path fill-rule="evenodd" clip-rule="evenodd" d="M1114.81 581.82C1137.82 604.83 1152.69 627.34 1147.98 632.04C1143.27 636.75 1120.77 621.88 1097.76 598.87C1074.75 575.86 1059.88 553.35 1064.59 548.65C1069.3 543.94 1091.8 558.81 1114.81 581.82Z" fill="#FBBE2E"/>
<path fill-rule="evenodd" clip-rule="evenodd" d="M1148.02 548.61C1171.05 571.64 1171.05 609.05 1148.02 632.08C1108.49 604.37 1078.68 572.06 1064.55 548.61C1087.58 525.58 1124.99 525.58 1148.02 548.61Z" fill="#FBBE2E"/>
<path fill-rule="evenodd" clip-rule="evenodd" d="M2299.09 618.71C2327.72 618.71 2350.97 641.96 2350.97 670.59C2350.97 699.22 2327.72 722.47 2299.09 722.47C2270.46 722.47 2247.21 699.22 2247.21 670.59C2247.21 641.96 2270.46 618.71 2299.09 618.71Z" fill="#FFE8E5"/>
<path d="M2277 640H2342.85" stroke="#FF341A" stroke-width="2.0833" stroke-miterlimit="10" stroke-linecap="round" stroke-linejoin="round"/>
<path d="M2247.21 664.72H2313.06" stroke="#FF341A" stroke-width="2.0833" stroke-miterlimit="10" stroke-linecap="round" stroke-linejoin="round"/>
<path d="M2263.42 651.67H2310.02" stroke="#FF341A" stroke-width="2.0833" stroke-miterlimit="10" stroke-linecap="round" stroke-linejoin="round"/>
<path d="M2288.71 700.12H2325.84" stroke="#FF341A" stroke-width="2.0833" stroke-miterlimit="10" stroke-linecap="round" stroke-linejoin="round"/>
<path d="M2283.81 670.43H2349.5" stroke="#FF341A" stroke-width="2.0833" stroke-miterlimit="10" stroke-linecap="round" stroke-linejoin="round"/>
<path d="M2263.42 680.71H2310.02" stroke="#FF341A" stroke-width="2.0833" stroke-miterlimit="10" stroke-linecap="round" stroke-linejoin="round"/>
<path fill-rule="evenodd" clip-rule="evenodd" d="M1560.49 664.91C1560.49 664.91 1555.54 667.25 1558.24 672.59C1560.05 676.17 1564.69 674.54 1566.94 675.44C1569.19 676.34 1573.24 687.28 1585.23 680.54V664.92H1560.49V664.91Z" fill="#D9F0FF"/>
<path fill-rule="evenodd" clip-rule="evenodd" d="M1733.46 589.86C1733.46 589.86 1738.41 592.2 1735.71 597.54C1733.9 601.12 1729.26 599.49 1727.01 600.39C1724.76 601.29 1720.71 612.23 1708.72 605.49V589.87H1733.46V589.86Z" fill="#D9F0FF"/>
<path fill-rule="evenodd" clip-rule="evenodd" d="M1635.23 539.34C1679.33 539.34 1715.13 575.14 1715.13 619.25C1715.13 663.35 1679.33 699.16 1635.23 699.16C1591.13 699.16 1555.32 663.36 1555.32 619.25C1555.32 575.14 1591.13 539.34 1635.23 539.34Z" fill="#D9F0FF"/>
<path fill-rule="evenodd" clip-rule="evenodd" d="M1578.96 562.53C1587.41 567.97 1592.7 571 1592.7 578.37V598.09C1592.7 602.72 1590.08 603.32 1583.75 606.74C1577.41 610.16 1569.57 610.36 1569.57 619.62C1569.57 628.88 1573.19 629.48 1576.21 629.48C1579.23 629.48 1592.31 627.07 1592.31 640.75C1592.31 654.43 1590.69 666.14 1595.97 674.38C1601.12 682.42 1598.92 686.66 1592.11 686.51C1569.99 672.29 1555.33 647.47 1555.33 619.25C1555.32 597.08 1564.37 577.01 1578.96 562.53Z" fill="#0089E3"/>
<path fill-rule="evenodd" clip-rule="evenodd" d="M1687.57 679.6C1685.43 675.83 1685.45 676.17 1687.11 670.41C1688.78 664.61 1691.36 659.85 1679.51 649.8C1667.66 639.75 1670.11 637.69 1670.11 622.94C1670.11 608.18 1688.53 613.49 1692.13 613.49C1695.73 613.49 1702.18 612.33 1702.18 605.76C1702.18 599.19 1691.49 600.22 1687.11 601.25C1682.73 602.28 1670.49 609.36 1670.49 597.51C1670.49 585.66 1684.53 585.15 1689.81 584.63C1695.09 584.11 1694.06 578.58 1689.55 577.16C1685.04 575.74 1676.67 573.68 1676.15 569.95C1675.64 566.22 1681.43 562.22 1688.65 564.54C1693.78 566.19 1695.95 569.35 1699.12 571.26C1709.17 584.63 1715.13 601.24 1715.13 619.23C1715.13 643.33 1704.45 664.94 1687.57 679.6Z" fill="#0089E3"/>
<path fill-rule="evenodd" clip-rule="evenodd" d="M1537.15 664.91H1622.81C1630.13 664.91 1629.09 658.35 1622.55 657.68C1617.45 657.16 1609.65 641.19 1598.86 641.19C1588.06 641.19 1584.61 648.24 1580.27 648.24C1575.92 648.24 1573.97 641.34 1563.92 641.34C1553.87 641.34 1548.34 654.56 1541.29 655.31C1534.24 656.06 1531.54 657.53 1531.54 660.38C1531.54 663.23 1537.15 664.91 1537.15 664.91Z" fill="white"/>
<path fill-rule="evenodd" clip-rule="evenodd" d="M1672.89 589.86H1754.45C1759.4 589.86 1760.15 581.46 1752.8 581.46C1750.06 581.46 1743.03 581.18 1739.17 578.81C1732.66 574.81 1728.65 567.81 1722.06 567.81C1711.56 567.81 1709.31 573.36 1705.27 573.36C1701.22 573.36 1699.72 569.61 1694.62 569.61C1689.52 569.61 1686.07 582.95 1680.07 582.95C1674.07 582.95 1670.02 584.15 1670.02 586.4C1670.04 588.66 1672.89 589.86 1672.89 589.86Z" fill="white"/>
<path fill-rule="evenodd" clip-rule="evenodd" d="M1238.42 0C1235.23 11.95 1233.51 24.51 1233.51 37.46C1233.51 117.47 1298.47 182.43 1378.48 182.43C1458.49 182.43 1523.45 117.47 1523.45 37.46C1523.45 24.51 1521.74 11.95 1518.54 0H1238.42V0Z" fill="#D9F0FF"/>
<path fill-rule="evenodd" clip-rule="evenodd" d="M1233.9 26.8501C1305.27 84.4101 1366.5 29.7901 1396.47 79.4601C1418.89 116.63 1359.82 159.56 1291.33 153.28C1247.41 118.2 1228.82 69.6301 1233.9 26.8501Z" fill="#4FB3F6"/>
<path fill-rule="evenodd" clip-rule="evenodd" d="M1441.71 138.02C1446.76 135.12 1452.07 134.85 1453.56 137.43C1455.04 140.01 1452.15 144.46 1447.09 147.37C1442.04 150.27 1436.73 150.54 1435.25 147.96C1433.77 145.38 1436.66 140.93 1441.71 138.02Z" fill="#4FB3F6"/>
<path fill-rule="evenodd" clip-rule="evenodd" d="M1432.91 0C1429.81 4.88 1428 10.66 1428 16.86C1428 34.22 1442.1 48.32 1459.46 48.32C1476.82 48.32 1490.92 34.22 1490.92 16.86C1490.92 10.66 1489.11 4.88 1486.01 0H1432.91Z" fill="#4FB3F6"/>
<path fill-rule="evenodd" clip-rule="evenodd" d="M1549.1 239.27L1304.9 282.79V539.07L1549.1 495.55V239.27Z" fill="black"/>
<path fill-rule="evenodd" clip-rule="evenodd" d="M1356.08 324.17C1356.08 324.17 1428.84 310.48 1448.11 307.94C1467.38 305.4 1486.9 319.09 1489.69 335.07C1492.48 351.04 1467.38 372.69 1467.38 372.69C1467.38 372.69 1497.29 376.4 1497.29 400.99C1497.29 425.58 1474.98 446.37 1450.14 452.96C1425.29 459.55 1355.32 470.71 1355.32 470.71V434.71L1369.52 431.41V355.61L1355.32 356.88L1356.08 324.17Z" fill="white"/>
<path fill-rule="evenodd" clip-rule="evenodd" d="M1417.47 346.1V364.58C1417.47 364.58 1440.52 360.22 1440.52 349.83C1440.53 339.45 1417.47 346.1 1417.47 346.1Z" fill="black"/>
<path fill-rule="evenodd" clip-rule="evenodd" d="M1417.47 397.11V419.85C1417.47 419.85 1440.52 418.6 1440.52 405.1C1440.53 391.61 1417.47 397.11 1417.47 397.11Z" fill="black"/>
<path d="M1806.27 262.6C1810.85 262.6 1814.57 258.884 1814.57 254.3C1814.57 249.716 1810.85 246 1806.27 246C1801.69 246 1797.97 249.716 1797.97 254.3C1797.97 258.884 1801.69 262.6 1806.27 262.6Z" fill="white"/>
<path d="M1987.3 110.83C1991.89 110.83 1995.6 107.114 1995.6 102.53C1995.6 97.946 1991.89 94.23 1987.3 94.23C1982.72 94.23 1979 97.946 1979 102.53C1979 107.114 1982.72 110.83 1987.3 110.83Z" fill="white"/>
<path fill-rule="evenodd" clip-rule="evenodd" d="M2168.34 676.11C2172.92 676.11 2176.64 679.83 2176.64 684.41C2176.64 688.99 2172.92 692.71 2168.34 692.71C2163.77 692.71 2160.04 688.99 2160.04 684.41C2160.05 679.83 2163.77 676.11 2168.34 676.11Z" fill="white"/>
<path fill-rule="evenodd" clip-rule="evenodd" d="M2581.99 412.78C2586.57 412.78 2590.29 416.5 2590.29 421.08C2590.29 425.66 2586.57 429.38 2581.99 429.38C2577.41 429.38 2573.69 425.66 2573.69 421.08C2573.69 416.5 2577.41 412.78 2581.99 412.78Z" fill="white"/>
<path fill-rule="evenodd" clip-rule="evenodd" d="M1517.71 693.4C1520.88 693.4 1523.46 695.98 1523.46 699.15C1523.46 702.32 1520.88 704.9 1517.71 704.9C1514.54 704.9 1511.96 702.32 1511.96 699.15C1511.97 695.98 1514.54 693.4 1517.71 693.4Z" fill="white"/>
<path fill-rule="evenodd" clip-rule="evenodd" d="M1173.81 428.21C1178.39 428.21 1182.11 431.93 1182.11 436.51C1182.11 441.09 1178.39 444.81 1173.81 444.81C1169.23 444.81 1165.51 441.09 1165.51 436.51C1165.52 431.92 1169.23 428.21 1173.81 428.21Z" fill="white"/>
<path fill-rule="evenodd" clip-rule="evenodd" d="M1320.11 700.68C1324.69 700.68 1328.41 704.4 1328.41 708.98C1328.41 713.56 1324.69 717.28 1320.11 717.28C1315.53 717.28 1311.81 713.56 1311.81 708.98C1311.81 704.4 1315.53 700.68 1320.11 700.68Z" fill="white"/>
<path d="M541.21 107.07C545.794 107.07 549.51 103.354 549.51 98.77C549.51 94.186 545.794 90.47 541.21 90.47C536.626 90.47 532.91 94.186 532.91 98.77C532.91 103.354 536.626 107.07 541.21 107.07Z" fill="white"/>
<path fill-rule="evenodd" clip-rule="evenodd" d="M203.472 419.63C208.052 419.63 211.772 423.35 211.772 427.93C211.772 432.51 208.052 436.23 203.472 436.23C198.892 436.23 195.172 432.51 195.172 427.93C195.172 423.35 198.902 419.63 203.472 419.63Z" fill="white"/>
<path fill-rule="evenodd" clip-rule="evenodd" d="M1222.5 397.7C1224.62 397.7 1226.34 399.42 1226.34 401.53C1226.34 403.65 1224.62 405.36 1222.5 405.36C1220.39 405.36 1218.67 403.64 1218.67 401.53C1218.66 399.42 1220.38 397.7 1222.5 397.7Z" fill="white"/>
<path fill-rule="evenodd" clip-rule="evenodd" d="M605.322 49.6799C607.442 49.6799 609.152 51.3999 609.152 53.5099C609.152 55.6299 607.432 57.3399 605.322 57.3399C603.202 57.3399 601.492 55.6199 601.492 53.5099C601.492 51.3999 603.202 49.6799 605.322 49.6799Z" fill="white"/>
<path d="M104.731 67.63C106.846 67.625 108.557 65.9063 108.552 63.791C108.547 61.6758 106.828 59.965 104.713 59.97C102.598 59.975 100.887 61.6938 100.892 63.809C100.897 65.9243 102.616 67.635 104.731 67.63Z" fill="white"/>
<path fill-rule="evenodd" clip-rule="evenodd" d="M109.873 179.97C111.993 179.97 113.703 181.69 113.703 183.81C113.703 185.92 111.983 187.64 109.873 187.64C107.753 187.64 106.043 185.92 106.043 183.81C106.033 181.69 107.753 179.97 109.873 179.97Z" fill="white"/>
<path fill-rule="evenodd" clip-rule="evenodd" d="M403.021 80.54C405.141 80.54 406.851 82.26 406.851 84.37C406.851 86.49 405.131 88.21 403.021 88.21C400.911 88.21 399.191 86.49 399.191 84.37C399.191 82.26 400.911 80.54 403.021 80.54Z" fill="white"/>
<path fill-rule="evenodd" clip-rule="evenodd" d="M487.033 450.84C489.153 450.84 490.863 452.56 490.863 454.67C490.863 456.79 489.143 458.5 487.033 458.5C484.913 458.5 483.203 456.78 483.203 454.67C483.203 452.56 484.913 450.84 487.033 450.84Z" fill="white"/>
<path d="M396.191 305.914C398.306 305.893 400.004 304.162 399.983 302.047C399.962 299.931 398.23 298.234 396.115 298.255C394 298.276 392.302 300.008 392.323 302.123C392.345 304.238 394.076 305.936 396.191 305.914Z" fill="white"/>
<path d="M332.732 569.94C334.848 569.94 336.562 568.225 336.562 566.11C336.562 563.995 334.848 562.28 332.732 562.28C330.617 562.28 328.902 563.995 328.902 566.11C328.902 568.225 330.617 569.94 332.732 569.94Z" fill="white"/>
<path fill-rule="evenodd" clip-rule="evenodd" d="M951.623 58.25C953.743 58.25 955.453 59.97 955.453 62.09C955.453 64.2 953.733 65.92 951.623 65.92C949.513 65.92 947.793 64.2 947.793 62.09C947.793 59.97 949.513 58.25 951.623 58.25Z" fill="white"/>
<path fill-rule="evenodd" clip-rule="evenodd" d="M706.471 512.56C708.581 512.56 710.301 514.28 710.301 516.39C710.301 518.51 708.581 520.22 706.471 520.22C704.351 520.22 702.641 518.5 702.641 516.39C702.641 514.28 704.351 512.56 706.471 512.56Z" fill="white"/>
<path fill-rule="evenodd" clip-rule="evenodd" d="M168.15 83.97C170.27 83.97 171.98 85.69 171.98 87.8C171.98 89.92 170.26 91.63 168.15 91.63C166.03 91.63 164.32 89.91 164.32 87.8C164.32 85.69 166.04 83.97 168.15 83.97Z" fill="white"/>
<path fill-rule="evenodd" clip-rule="evenodd" d="M1169.69 327.48C1171.81 327.48 1173.52 329.2 1173.52 331.31C1173.52 333.43 1171.8 335.14 1169.69 335.14C1167.57 335.14 1165.86 333.42 1165.86 331.31C1165.86 329.2 1167.57 327.48 1169.69 327.48Z" fill="white"/>
<path fill-rule="evenodd" clip-rule="evenodd" d="M1258.45 578.03C1260.57 578.03 1262.28 579.75 1262.28 581.86C1262.28 583.98 1260.56 585.69 1258.45 585.69C1256.33 585.69 1254.62 583.97 1254.62 581.86C1254.62 579.74 1256.33 578.03 1258.45 578.03Z" fill="white"/>
<path d="M927.01 483.45C929.125 483.45 930.84 481.735 930.84 479.62C930.84 477.505 929.125 475.79 927.01 475.79C924.894 475.79 923.18 477.505 923.18 479.62C923.18 481.735 924.894 483.45 927.01 483.45Z" fill="white"/>
<path d="M983.58 624.03C985.695 624.03 987.41 622.315 987.41 620.2C987.41 618.085 985.695 616.37 983.58 616.37C981.465 616.37 979.75 618.085 979.75 620.2C979.75 622.315 981.465 624.03 983.58 624.03Z" fill="white"/>
<path fill-rule="evenodd" clip-rule="evenodd" d="M819.002 537.5C821.122 537.5 822.832 539.22 822.832 541.33C822.832 543.45 821.112 545.16 819.002 545.16C816.892 545.16 815.172 543.44 815.172 541.33C815.172 539.22 816.892 537.5 819.002 537.5Z" fill="white"/>
<path fill-rule="evenodd" clip-rule="evenodd" d="M1069.3 756.94C1071.42 756.94 1073.13 758.66 1073.13 760.77C1073.13 762.88 1071.41 764.6 1069.3 764.6C1067.18 764.6 1065.47 762.88 1065.47 760.77C1065.47 758.66 1067.18 756.94 1069.3 756.94Z" fill="white"/>
<path fill-rule="evenodd" clip-rule="evenodd" d="M438.412 717.51C440.532 717.51 442.242 719.23 442.242 721.34C442.242 723.46 440.522 725.17 438.412 725.17C436.292 725.17 434.582 723.45 434.582 721.34C434.572 719.23 436.292 717.51 438.412 717.51Z" fill="white"/>
<path d="M469.271 701.17C471.387 701.17 473.101 699.455 473.101 697.34C473.101 695.225 471.387 693.51 469.271 693.51C467.156 693.51 465.441 695.225 465.441 697.34C465.441 699.455 467.156 701.17 469.271 701.17Z" fill="white"/>
<path fill-rule="evenodd" clip-rule="evenodd" d="M1419.03 640.37C1421.15 640.37 1422.86 642.09 1422.86 644.2C1422.86 646.32 1421.14 648.03 1419.03 648.03C1416.92 648.03 1415.2 646.31 1415.2 644.2C1415.2 642.08 1416.92 640.37 1419.03 640.37Z" fill="white"/>
<path fill-rule="evenodd" clip-rule="evenodd" d="M1544.18 162.05C1546.3 162.05 1548.01 163.77 1548.01 165.88C1548.01 168 1546.29 169.71 1544.18 169.71C1542.07 169.71 1540.35 167.99 1540.35 165.88C1540.35 163.77 1542.07 162.05 1544.18 162.05Z" fill="white"/>
<path fill-rule="evenodd" clip-rule="evenodd" d="M1597.33 189.48C1599.45 189.48 1601.16 191.2 1601.16 193.31C1601.16 195.43 1599.44 197.14 1597.33 197.14C1595.21 197.14 1593.5 195.42 1593.5 193.31C1593.5 191.2 1595.21 189.48 1597.33 189.48Z" fill="white"/>
<path fill-rule="evenodd" clip-rule="evenodd" d="M1648.76 90.05C1650.88 90.05 1652.59 91.77 1652.59 93.88C1652.59 95.99 1650.87 97.71 1648.76 97.71C1646.64 97.71 1644.93 95.99 1644.93 93.88C1644.93 91.77 1646.65 90.05 1648.76 90.05Z" fill="white"/>
<path fill-rule="evenodd" clip-rule="evenodd" d="M2067.53 62.6199C2069.64 62.6199 2071.36 64.3399 2071.36 66.4499C2071.36 68.5699 2069.64 70.2799 2067.53 70.2799C2065.41 70.2799 2063.69 68.5599 2063.69 66.4499C2063.69 64.3399 2065.41 62.6199 2067.53 62.6199Z" fill="white"/>
<path fill-rule="evenodd" clip-rule="evenodd" d="M2042.06 147.26C2044.17 147.26 2045.89 148.98 2045.89 151.09C2045.89 153.21 2044.17 154.92 2042.06 154.92C2039.94 154.92 2038.22 153.2 2038.22 151.09C2038.23 148.97 2039.95 147.26 2042.06 147.26Z" fill="white"/>
<path fill-rule="evenodd" clip-rule="evenodd" d="M1672.76 318.06C1674.88 318.06 1676.59 319.78 1676.59 321.89C1676.59 324.01 1674.87 325.72 1672.76 325.72C1670.64 325.72 1668.93 324 1668.93 321.89C1668.93 319.78 1670.65 318.06 1672.76 318.06Z" fill="white"/>
<path fill-rule="evenodd" clip-rule="evenodd" d="M1791.05 407.21C1793.17 407.21 1794.88 408.93 1794.88 411.04C1794.88 413.16 1793.16 414.87 1791.05 414.87C1788.93 414.87 1787.22 413.15 1787.22 411.04C1787.22 408.93 1788.94 407.21 1791.05 407.21Z" fill="white"/>
<path fill-rule="evenodd" clip-rule="evenodd" d="M1652.19 460.36C1654.31 460.36 1656.02 462.08 1656.02 464.19C1656.02 466.31 1654.3 468.02 1652.19 468.02C1650.07 468.02 1648.36 466.3 1648.36 464.19C1648.36 462.07 1650.08 460.36 1652.19 460.36Z" fill="white"/>
<path fill-rule="evenodd" clip-rule="evenodd" d="M2008.78 678.08C2010.89 678.08 2012.61 679.8 2012.61 681.91C2012.61 684.03 2010.89 685.74 2008.78 685.74C2006.66 685.74 2004.95 684.02 2004.95 681.91C2004.95 679.8 2006.67 678.08 2008.78 678.08Z" fill="white"/>
<path fill-rule="evenodd" clip-rule="evenodd" d="M2073.93 720.94C2076.05 720.94 2077.76 722.66 2077.76 724.77C2077.76 726.89 2076.04 728.6 2073.93 728.6C2071.82 728.6 2070.1 726.88 2070.1 724.77C2070.1 722.66 2071.81 720.94 2073.93 720.94Z" fill="white"/>
<path fill-rule="evenodd" clip-rule="evenodd" d="M2080.79 690.08C2082.9 690.08 2084.62 691.8 2084.62 693.91C2084.62 696.02 2082.9 697.74 2080.79 697.74C2078.67 697.74 2076.95 696.02 2076.95 693.91C2076.95 691.8 2078.67 690.08 2080.79 690.08Z" fill="white"/>
<path d="M2202.51 761.18C2204.63 761.18 2206.34 759.465 2206.34 757.35C2206.34 755.235 2204.63 753.52 2202.51 753.52C2200.4 753.52 2198.68 755.235 2198.68 757.35C2198.68 759.465 2200.4 761.18 2202.51 761.18Z" fill="white"/>
<path fill-rule="evenodd" clip-rule="evenodd" d="M2491.07 464.95C2493.19 464.95 2494.9 466.67 2494.9 468.78C2494.9 470.9 2493.18 472.61 2491.07 472.61C2488.96 472.61 2487.24 470.89 2487.24 468.78C2487.24 466.67 2488.95 464.95 2491.07 464.95Z" fill="white"/>
<path fill-rule="evenodd" clip-rule="evenodd" d="M2537.15 744.74C2539.27 744.74 2540.98 746.46 2540.98 748.57C2540.98 750.69 2539.26 752.4 2537.15 752.4C2535.03 752.4 2533.32 750.68 2533.32 748.57C2533.32 746.45 2535.04 744.74 2537.15 744.74Z" fill="white"/>
<path fill-rule="evenodd" clip-rule="evenodd" d="M2652.36 478.12C2654.48 478.12 2656.2 479.84 2656.2 481.95C2656.2 484.07 2654.48 485.78 2652.36 485.78C2650.25 485.78 2648.53 484.06 2648.53 481.95C2648.52 479.83 2650.25 478.12 2652.36 478.12Z" fill="white"/>
<path fill-rule="evenodd" clip-rule="evenodd" d="M2678.69 650.38C2680.81 650.38 2682.52 652.1 2682.52 654.21C2682.52 656.32 2680.8 658.04 2678.69 658.04C2676.58 658.04 2674.86 656.32 2674.86 654.21C2674.86 652.1 2676.57 650.38 2678.69 650.38Z" fill="white"/>
<path fill-rule="evenodd" clip-rule="evenodd" d="M2804.87 750.22C2806.99 750.22 2808.7 751.94 2808.7 754.05C2808.7 756.17 2806.98 757.88 2804.87 757.88C2802.76 757.88 2801.04 756.16 2801.04 754.05C2801.04 751.94 2802.75 750.22 2804.87 750.22Z" fill="white"/>
<path fill-rule="evenodd" clip-rule="evenodd" d="M2391.09 499.79C2393.21 499.79 2394.92 501.51 2394.92 503.62C2394.92 505.73 2393.2 507.45 2391.09 507.45C2388.98 507.45 2387.26 505.73 2387.26 503.62C2387.26 501.51 2388.97 499.79 2391.09 499.79Z" fill="white"/>
<path fill-rule="evenodd" clip-rule="evenodd" d="M2425.38 708.94C2427.5 708.94 2429.21 710.66 2429.21 712.77C2429.21 714.89 2427.49 716.6 2425.38 716.6C2423.27 716.6 2421.55 714.88 2421.55 712.77C2421.54 710.66 2423.26 708.94 2425.38 708.94Z" fill="white"/>
<path fill-rule="evenodd" clip-rule="evenodd" d="M756.323 119.77C760.623 119.77 764.103 123.25 764.103 127.55C764.103 131.84 760.613 135.33 756.323 135.33C752.033 135.33 748.543 131.84 748.543 127.55C748.543 123.25 752.033 119.77 756.323 119.77Z" fill="white"/>
<path fill-rule="evenodd" clip-rule="evenodd" d="M824.87 119.77C820.58 119.77 817.09 123.25 817.09 127.55C817.09 131.84 820.58 135.33 824.87 135.33C829.17 135.33 832.65 131.84 832.65 127.55C832.65 123.25 829.16 119.77 824.87 119.77Z" fill="white"/>
<path d="M947.03 135.33C951.327 135.33 954.81 131.847 954.81 127.55C954.81 123.253 951.327 119.77 947.03 119.77C942.733 119.77 939.25 123.253 939.25 127.55C939.25 131.847 942.733 135.33 947.03 135.33Z" fill="white"/>
<path fill-rule="evenodd" clip-rule="evenodd" d="M756.323 342.09C760.623 342.09 764.103 345.58 764.103 349.87C764.103 354.17 760.613 357.65 756.323 357.65C752.033 357.65 748.543 354.17 748.543 349.87C748.543 345.58 752.033 342.09 756.323 342.09Z" fill="white"/>
<path fill-rule="evenodd" clip-rule="evenodd" d="M824.87 342.09C820.58 342.09 817.09 345.58 817.09 349.87C817.09 354.17 820.58 357.65 824.87 357.65C829.17 357.65 832.65 354.17 832.65 349.87C832.65 345.58 829.16 342.09 824.87 342.09Z" fill="white"/>
<path d="M641.624 352.128C642.869 348.016 640.545 343.673 636.432 342.427C632.32 341.182 627.976 343.507 626.731 347.619C625.486 351.731 627.81 356.075 631.923 357.32C636.035 358.565 640.378 356.241 641.624 352.128Z" fill="white"/>
<path d="M947.03 357.65C951.327 357.65 954.81 354.167 954.81 349.87C954.81 345.573 951.327 342.09 947.03 342.09C942.733 342.09 939.25 345.573 939.25 349.87C939.25 354.167 942.733 357.65 947.03 357.65Z" fill="white"/>
<path d="M947.03 400C951.327 400 954.81 396.517 954.81 392.22C954.81 387.923 951.327 384.44 947.03 384.44C942.733 384.44 939.25 387.923 939.25 392.22C939.25 396.517 942.733 400 947.03 400Z" fill="white"/>
<path d="M641.959 392.267C641.999 387.97 638.548 384.455 634.251 384.416C629.954 384.376 626.439 387.828 626.399 392.124C626.36 396.421 629.811 399.936 634.108 399.976C638.405 400.015 641.92 396.564 641.959 392.267Z" fill="white"/>
<path d="M793.6 166.686C797.57 165.041 799.455 160.49 797.81 156.52C796.166 152.551 791.615 150.666 787.645 152.31C783.675 153.954 781.79 158.506 783.434 162.475C785.079 166.445 789.63 168.33 793.6 166.686Z" fill="white"/>
<path d="M790.713 400.018C795.01 399.977 798.46 396.46 798.419 392.164C798.378 387.867 794.862 384.417 790.565 384.458C786.268 384.499 782.818 388.015 782.859 392.312C782.9 396.609 786.417 400.059 790.713 400.018Z" fill="white"/>
<path d="M634.16 127.55H762.68C770.08 127.55 777.18 130.49 782.41 135.73C787.64 140.97 790.58 148.06 790.58 155.46C790.58 220.95 790.58 379.01 790.58 379.01V378.29C790.58 370.89 787.64 363.79 782.41 358.56C777.18 353.33 770.08 350.39 762.68 350.39C717.7 350.39 634.16 350.39 634.16 350.39V127.55Z" stroke="white" stroke-width="2.0833" stroke-miterlimit="10" stroke-linecap="round" stroke-linejoin="round"/>
<path d="M947.032 127.55H818.502C811.102 127.55 804.002 130.49 798.772 135.73C793.542 140.96 790.602 148.06 790.602 155.46C790.602 223.47 790.602 392.23 790.602 392.23V378.29C790.602 362.88 803.092 350.39 818.502 350.39H947.032V127.55Z" stroke="white" stroke-width="2.0833" stroke-miterlimit="10" stroke-linecap="round" stroke-linejoin="round"/>
<path fill-rule="evenodd" clip-rule="evenodd" d="M634.16 101.24C634.25 115.78 646.08 127.55 660.63 127.55C646.08 127.55 634.25 139.32 634.16 153.85V154.02C634.16 139.41 622.3 127.54 607.68 127.54C622.3 127.54 634.16 115.68 634.16 101.06V101.24Z" fill="white"/>
<path d="M634.16 350.37V392.22H947.03V349.87" stroke="white" stroke-width="2.0833" stroke-miterlimit="10" stroke-linecap="round" stroke-linejoin="round"/>
<path d="M2117.06 458.875C2117.19 452.288 2111.95 446.845 2105.37 446.719C2098.78 446.592 2093.34 451.83 2093.21 458.417C2093.08 465.005 2098.32 470.447 2104.91 470.574C2111.5 470.7 2116.94 465.463 2117.06 458.875Z" fill="white"/>
<path fill-rule="evenodd" clip-rule="evenodd" d="M674.692 650.67C681.272 650.67 686.622 656.01 686.622 662.6C686.622 669.18 681.272 674.53 674.692 674.53C668.112 674.53 662.762 669.19 662.762 662.6C662.762 656.02 668.112 650.67 674.692 650.67Z" fill="white"/>
<path fill-rule="evenodd" clip-rule="evenodd" d="M2114 399.01C2120.58 399.01 2125.93 404.36 2125.93 410.94C2125.93 417.52 2120.58 422.87 2114 422.87C2107.42 422.87 2102.07 417.52 2102.07 410.94C2102.07 404.36 2107.42 399.01 2114 399.01Z" fill="white"/>
<path fill-rule="evenodd" clip-rule="evenodd" d="M683.51 602.99C690.1 602.99 695.44 608.34 695.44 614.92C695.44 621.5 690.1 626.85 683.51 626.85C676.93 626.85 671.59 621.51 671.59 614.92C671.59 608.34 676.93 602.99 683.51 602.99Z" fill="white"/>
<path fill-rule="evenodd" clip-rule="evenodd" d="M2154.33 428.63C2160.91 428.63 2166.26 433.97 2166.26 440.56C2166.26 447.15 2160.91 452.49 2154.33 452.49C2147.75 452.49 2142.4 447.14 2142.4 440.56C2142.4 433.98 2147.75 428.63 2154.33 428.63Z" fill="white"/>
<path d="M723.84 656.47C730.429 656.47 735.77 651.129 735.77 644.54C735.77 637.951 730.429 632.61 723.84 632.61C717.251 632.61 711.91 637.951 711.91 644.54C711.91 651.129 717.251 656.47 723.84 656.47Z" fill="white"/>
<path fill-rule="evenodd" clip-rule="evenodd" d="M1945.03 560.83C1945.12 575.36 1956.95 587.14 1971.51 587.14C1956.95 587.14 1945.12 598.91 1945.03 613.45V613.62C1945.03 599.01 1933.17 587.14 1918.56 587.14C1933.17 587.14 1945.03 575.28 1945.03 560.66V560.83Z" fill="white"/>
<path fill-rule="evenodd" clip-rule="evenodd" d="M1976.28 228.31C1976.37 242.84 1988.2 254.62 2002.75 254.62C1988.2 254.62 1976.37 266.39 1976.28 280.92V281.09C1976.28 266.48 1964.41 254.62 1949.8 254.62C1964.41 254.62 1976.28 242.75 1976.28 228.14V228.31Z" fill="white"/>
<path fill-rule="evenodd" clip-rule="evenodd" d="M485.07 566.61C485.16 581.14 496.99 592.92 511.55 592.92C496.99 592.92 485.16 604.69 485.07 619.23V619.4C485.07 604.79 473.21 592.92 458.59 592.92C473.2 592.92 485.07 581.06 485.07 566.44V566.61Z" fill="white"/>
<path fill-rule="evenodd" clip-rule="evenodd" d="M130.441 287.66C130.531 302.19 142.361 313.96 156.921 313.96C142.361 313.96 130.541 325.73 130.441 340.27V340.44C130.441 325.82 118.581 313.96 103.961 313.96C118.571 313.96 130.441 302.1 130.441 287.49V287.66Z" fill="white"/>
<path fill-rule="evenodd" clip-rule="evenodd" d="M2759.73 493.61C2759.82 508.14 2771.65 519.92 2786.21 519.92C2771.65 519.92 2759.83 531.69 2759.73 546.23V546.4C2759.73 531.79 2747.87 519.92 2733.26 519.92C2747.87 519.92 2759.73 508.06 2759.73 493.44V493.61Z" fill="white"/>
<path d="M1920.97 429.68H1904.18V505.81C1904.18 505.81 1855.92 554.07 1846.41 563.58C1836.9 573.09 1841.04 587.13 1857.52 587.13H1937.8" stroke="white" stroke-width="2.0833" stroke-miterlimit="10" stroke-linecap="round" stroke-linejoin="round"/>
<path d="M1917.81 429.68H1934.6V505.81C1934.6 505.81 1982.86 554.07 1992.37 563.58C2001.87 573.09 1997.74 587.13 1981.26 587.13H1900.98" stroke="white" stroke-width="2.0833" stroke-miterlimit="10" stroke-linecap="round" stroke-linejoin="round"/>
<path fill-rule="evenodd" clip-rule="evenodd" d="M1858.11 581.9C1861 581.9 1863.34 584.25 1863.34 587.13C1863.34 590.02 1861 592.36 1858.11 592.36C1855.22 592.36 1852.88 590.01 1852.88 587.13C1852.88 584.25 1855.22 581.9 1858.11 581.9Z" fill="white"/>
<path fill-rule="evenodd" clip-rule="evenodd" d="M1853.5 551.21C1856.39 551.21 1858.73 553.55 1858.73 556.44C1858.73 559.33 1856.38 561.67 1853.5 561.67C1850.61 561.67 1848.27 559.33 1848.27 556.44C1848.26 553.55 1850.6 551.21 1853.5 551.21Z" fill="white"/>
<path fill-rule="evenodd" clip-rule="evenodd" d="M1984.34 551.21C1987.23 551.21 1989.57 553.55 1989.57 556.44C1989.57 559.33 1987.22 561.67 1984.34 561.67C1981.45 561.67 1979.11 559.33 1979.11 556.44C1979.1 553.55 1981.45 551.21 1984.34 551.21Z" fill="white"/>
<path fill-rule="evenodd" clip-rule="evenodd" d="M1904.07 500.44C1906.96 500.44 1909.3 502.79 1909.3 505.67C1909.3 508.56 1906.96 510.9 1904.07 510.9C1901.18 510.9 1898.84 508.55 1898.84 505.67C1898.83 502.79 1901.18 500.44 1904.07 500.44Z" fill="white"/>
<path fill-rule="evenodd" clip-rule="evenodd" d="M1904.07 424.45C1906.96 424.45 1909.3 426.8 1909.3 429.68C1909.3 432.57 1906.96 434.91 1904.07 434.91C1901.18 434.91 1898.84 432.56 1898.84 429.68C1898.83 426.79 1901.18 424.45 1904.07 424.45Z" fill="white"/>
<path fill-rule="evenodd" clip-rule="evenodd" d="M1934.52 500.44C1937.41 500.44 1939.75 502.79 1939.75 505.67C1939.75 508.56 1937.4 510.9 1934.52 510.9C1931.63 510.9 1929.29 508.55 1929.29 505.67C1929.28 502.79 1931.63 500.44 1934.52 500.44Z" fill="white"/>
<path fill-rule="evenodd" clip-rule="evenodd" d="M1934.52 424.45C1937.41 424.45 1939.75 426.8 1939.75 429.68C1939.75 432.57 1937.4 434.91 1934.52 434.91C1931.63 434.91 1929.29 432.56 1929.29 429.68C1929.28 426.79 1931.63 424.45 1934.52 424.45Z" fill="white"/>
<path fill-rule="evenodd" clip-rule="evenodd" d="M1985.72 581.9C1988.61 581.9 1990.95 584.25 1990.95 587.13C1990.95 590.02 1988.6 592.36 1985.72 592.36C1982.84 592.36 1980.49 590.01 1980.49 587.13C1980.49 584.25 1982.83 581.9 1985.72 581.9Z" fill="white"/>
<path d="M2114 410.94L2105.18 458.62L2154.33 440.56" stroke="white" stroke-width="2.0833" stroke-miterlimit="10" stroke-linecap="round" stroke-linejoin="round"/>
<path d="M683.511 614.92L674.691 662.6L723.841 644.54" stroke="white" stroke-width="2.0833" stroke-miterlimit="10" stroke-linecap="round" stroke-linejoin="round"/>
<path fill-rule="evenodd" clip-rule="evenodd" d="M2218.54 528.19C2224.95 528.19 2230.17 533.4 2230.17 539.82C2230.17 546.24 2224.96 551.45 2218.54 551.45C2212.12 551.45 2206.91 546.24 2206.91 539.82C2206.91 533.4 2212.12 528.19 2218.54 528.19Z" fill="white"/>
<path fill-rule="evenodd" clip-rule="evenodd" d="M2651.75 657.78C2658.17 657.78 2663.37 662.99 2663.37 669.41C2663.37 675.83 2658.16 681.04 2651.75 681.04C2645.34 681.04 2640.12 675.83 2640.12 669.41C2640.12 662.99 2645.33 657.78 2651.75 657.78Z" fill="white"/>
<path fill-rule="evenodd" clip-rule="evenodd" d="M1887.09 220.43C1871.72 214.63 1844.23 196.73 1817.97 170.48C1781.6 134.11 1761.4 95.27 1766.9 89.77C1772.41 84.26 1811.25 104.47 1847.62 140.83C1873.88 167.09 1891.77 194.58 1897.57 209.95L1887.09 220.43Z" fill="#BDC7FB"/>
<path fill-rule="evenodd" clip-rule="evenodd" d="M1892.37 231.7C1890.09 227.49 1888.32 223.69 1887.09 220.43L1897.58 209.95C1900.84 211.18 1904.63 212.95 1908.85 215.23L1892.37 231.7Z" fill="#BDC7FB"/>
<path fill-rule="evenodd" clip-rule="evenodd" d="M1887.09 220.43L1874.68 232.84L1870.9 212.38L1887.09 220.43Z" fill="#BDC7FB"/>
<path fill-rule="evenodd" clip-rule="evenodd" d="M1897.53 209.98L1909.94 197.58L1889.48 193.8L1897.53 209.98Z" fill="#BDC7FB"/>
<path fill-rule="evenodd" clip-rule="evenodd" d="M1870.85 166.88C1884.42 183.99 1893.7 199.68 1897.57 209.95L1887.08 220.43C1876.81 216.56 1861.13 207.28 1844.01 193.71L1870.85 166.88Z" fill="#FBBE2E"/>
<path d="M1812.63 142.85C1816.7 142.85 1819.99 139.555 1819.99 135.49C1819.99 131.425 1816.7 128.13 1812.63 128.13C1808.57 128.13 1805.27 131.425 1805.27 135.49C1805.27 139.555 1808.57 142.85 1812.63 142.85Z" fill="white"/>
<path d="M2140.09 114.01C2142.98 114.01 2145.32 111.668 2145.32 108.78C2145.32 105.892 2142.98 103.55 2140.09 103.55C2137.2 103.55 2134.86 105.892 2134.86 108.78C2134.86 111.668 2137.2 114.01 2140.09 114.01Z" fill="white"/>
<path fill-rule="evenodd" clip-rule="evenodd" d="M2218.18 103.55C2215.29 103.55 2212.95 105.89 2212.95 108.78C2212.95 111.67 2215.3 114.01 2218.18 114.01C2221.06 114.01 2223.41 111.66 2223.41 108.78C2223.42 105.89 2221.07 103.55 2218.18 103.55Z" fill="white"/>
<path fill-rule="evenodd" clip-rule="evenodd" d="M2137.84 315.86C2140.73 315.86 2143.07 313.52 2143.07 310.63C2143.07 307.74 2140.72 305.4 2137.84 305.4C2134.95 305.4 2132.61 307.75 2132.61 310.63C2132.61 313.52 2134.95 315.86 2137.84 315.86Z" fill="white"/>
<path d="M2220.43 315.86C2223.32 315.86 2225.66 313.519 2225.66 310.63C2225.66 307.742 2223.32 305.4 2220.43 305.4C2217.54 305.4 2215.2 307.742 2215.2 310.63C2215.2 313.519 2217.54 315.86 2220.43 315.86Z" fill="white"/>
<path fill-rule="evenodd" clip-rule="evenodd" d="M2161.9 125.35C2164.79 125.35 2167.13 127.7 2167.13 130.58C2167.13 133.47 2164.78 135.81 2161.9 135.81C2159.01 135.81 2156.66 133.47 2156.66 130.58C2156.66 127.7 2159.01 125.35 2161.9 125.35Z" fill="white"/>
<path fill-rule="evenodd" clip-rule="evenodd" d="M2196.38 125.35C2193.49 125.35 2191.14 127.7 2191.14 130.58C2191.14 133.47 2193.49 135.81 2196.38 135.81C2199.27 135.81 2201.61 133.47 2201.61 130.58C2201.61 127.7 2199.27 125.35 2196.38 125.35Z" fill="white"/>
<path fill-rule="evenodd" clip-rule="evenodd" d="M2161.9 291.77C2164.79 291.77 2167.13 289.42 2167.13 286.54C2167.13 283.65 2164.78 281.31 2161.9 281.31C2159.01 281.31 2156.66 283.66 2156.66 286.54C2156.66 289.43 2159.01 291.77 2161.9 291.77Z" fill="white"/>
<path fill-rule="evenodd" clip-rule="evenodd" d="M2196.38 291.77C2193.49 291.77 2191.14 289.42 2191.14 286.54C2191.14 283.65 2193.49 281.31 2196.38 281.31C2199.27 281.31 2201.61 283.66 2201.61 286.54C2201.61 289.43 2199.27 291.77 2196.38 291.77Z" fill="white"/>
<path d="M2187.43 108.78H2140.09L2161.9 130.59V286.58L2137.84 310.63H2179.27" stroke="white" stroke-width="2.0833" stroke-miterlimit="10" stroke-linecap="round" stroke-linejoin="round"/>
<path d="M2170.85 108.78H2218.18L2196.38 130.59V286.58L2220.43 310.63H2179.01" stroke="white" stroke-width="2.0833" stroke-miterlimit="10" stroke-linecap="round" stroke-linejoin="round"/>
<path d="M2161.9 130.59H2196.38" stroke="white" stroke-width="2.0833" stroke-miterlimit="10" stroke-linecap="round" stroke-linejoin="round"/>
<path d="M2161.9 286.54H2196.38" stroke="white" stroke-width="2.0833" stroke-miterlimit="10" stroke-linecap="round" stroke-linejoin="round"/>
<path d="M2174.1 130.59V286.54" stroke="white" stroke-width="2.0833" stroke-miterlimit="10" stroke-linecap="round" stroke-linejoin="round"/>
<path d="M2185.75 130.59V286.54" stroke="white" stroke-width="2.0833" stroke-miterlimit="10" stroke-linecap="round" stroke-linejoin="round"/>
<path d="M2331.79 91.8999H2298.61V125.08H2331.79V91.8999Z" fill="white"/>
<path d="M1044.45 200.51H1011.27V233.69H1044.45V200.51Z" fill="white"/>
<path d="M2364.98 125.08H2331.8V158.26H2364.98V125.08Z" fill="white"/>
<path d="M1077.63 233.7H1044.45V266.88H1077.63V233.7Z" fill="white"/>
<path d="M813.262 66.1799H780.082V99.3599H813.262V66.1799Z" fill="white"/>
<path d="M577.332 693.83H544.152V727.01H577.332V693.83Z" fill="white"/>
<path d="M1939.42 707.32H1906.24V740.5H1939.42V707.32Z" fill="white"/>
<path d="M1074.41 138.78C1078.44 138.78 1081.7 135.516 1081.7 131.49C1081.7 127.464 1078.44 124.2 1074.41 124.2C1070.38 124.2 1067.12 127.464 1067.12 131.49C1067.12 135.516 1070.38 138.78 1074.41 138.78Z" fill="white"/>
<path d="M1074.41 131.49L1128.38 77.52" stroke="white" stroke-width="2.0833" stroke-miterlimit="10" stroke-linecap="round" stroke-linejoin="round"/>
<path fill-rule="evenodd" clip-rule="evenodd" d="M493.641 339.05C502.331 331.55 514.671 331.59 521.191 339.14C527.711 346.69 525.951 358.91 517.261 366.41C508.571 373.91 496.221 373.87 489.711 366.32C483.181 358.76 484.951 346.55 493.641 339.05Z" fill="white"/>
<path fill-rule="evenodd" clip-rule="evenodd" d="M310.444 365.02C299.744 365.02 275.094 365.27 275.094 404.6C275.094 443.93 313.684 474.05 340.814 474.05C367.944 474.05 390.104 462.6 390.104 436.46C390.104 410.32 365.954 419.53 353.754 406.59C341.564 393.65 321.154 365.02 310.444 365.02Z" fill="#E3F7ED"/>
<path d="M311.284 410.072C316.846 407.768 319.487 401.391 317.184 395.83C314.88 390.268 308.503 387.627 302.942 389.931C297.38 392.234 294.739 398.611 297.043 404.173C299.346 409.734 305.723 412.375 311.284 410.072Z" fill="#9CE8C2"/>
<path fill-rule="evenodd" clip-rule="evenodd" d="M343.634 422.45C352.344 422.45 359.424 429.52 359.424 438.24C359.424 446.95 352.354 454.03 343.634 454.03C334.924 454.03 327.844 446.96 327.844 438.24C327.854 429.52 334.924 422.45 343.634 422.45Z" fill="#9CE8C2"/>
<path d="M276.702 389.1L268.012 386.03" stroke="#E3F7ED" stroke-width="2.0833" stroke-miterlimit="10" stroke-linecap="round" stroke-linejoin="round"/>
<path d="M283.92 375.26L278.5 368.66" stroke="#E3F7ED" stroke-width="2.0833" stroke-miterlimit="10" stroke-linecap="round" stroke-linejoin="round"/>
<path d="M293.75 367.08L292 360.21" stroke="#E3F7ED" stroke-width="2.0833" stroke-miterlimit="10" stroke-linecap="round" stroke-linejoin="round"/>
<path d="M309.5 367.08L310.6 357.42" stroke="#E3F7ED" stroke-width="2.0833" stroke-miterlimit="10" stroke-linecap="round" stroke-linejoin="round"/>
<path d="M324.822 363.65L319.262 369.41" stroke="#E3F7ED" stroke-width="2.0833" stroke-miterlimit="10" stroke-linecap="round" stroke-linejoin="round"/>
<path d="M336.344 373.42L329.094 379.33" stroke="#E3F7ED" stroke-width="2.0833" stroke-miterlimit="10" stroke-linecap="round" stroke-linejoin="round"/>
<path d="M347.462 385.12L338.742 390.89" stroke="#E3F7ED" stroke-width="2.0833" stroke-miterlimit="10" stroke-linecap="round" stroke-linejoin="round"/>
<path d="M380.473 409.52L372.953 416.59" stroke="#E3F7ED" stroke-width="2.0833" stroke-miterlimit="10" stroke-linecap="round" stroke-linejoin="round"/>
<path d="M396.34 421.15L386.75 425.94" stroke="#E3F7ED" stroke-width="2.0833" stroke-miterlimit="10" stroke-linecap="round" stroke-linejoin="round"/>
<path d="M399.063 440.29L389.043 439.64" stroke="#E3F7ED" stroke-width="2.0833" stroke-miterlimit="10" stroke-linecap="round" stroke-linejoin="round"/>
<path d="M394.38 454.97L386.32 451.72" stroke="#E3F7ED" stroke-width="2.0833" stroke-miterlimit="10" stroke-linecap="round" stroke-linejoin="round"/>
<path d="M386.332 468.57L378.602 462.48" stroke="#E3F7ED" stroke-width="2.0833" stroke-miterlimit="10" stroke-linecap="round" stroke-linejoin="round"/>
<path d="M369.802 477.98L365.332 469.55" stroke="#E3F7ED" stroke-width="2.0833" stroke-miterlimit="10" stroke-linecap="round" stroke-linejoin="round"/>
<path d="M342.941 473.35L341.941 482.61" stroke="#E3F7ED" stroke-width="2.0833" stroke-miterlimit="10" stroke-linecap="round" stroke-linejoin="round"/>
<path d="M326.951 470.31L320.441 479.49" stroke="#E3F7ED" stroke-width="2.0833" stroke-miterlimit="10" stroke-linecap="round" stroke-linejoin="round"/>
<path d="M313.033 464.33L304.062 472.49" stroke="#E3F7ED" stroke-width="2.0833" stroke-miterlimit="10" stroke-linecap="round" stroke-linejoin="round"/>
<path d="M303.024 456.93L293.184 464.33" stroke="#E3F7ED" stroke-width="2.0833" stroke-miterlimit="10" stroke-linecap="round" stroke-linejoin="round"/>
<path d="M293.121 447.03L280.961 453.46" stroke="#E3F7ED" stroke-width="2.0833" stroke-miterlimit="10" stroke-linecap="round" stroke-linejoin="round"/>
<path d="M286.163 437.24L274.293 441.93" stroke="#E3F7ED" stroke-width="2.0833" stroke-miterlimit="10" stroke-linecap="round" stroke-linejoin="round"/>
<path d="M280.18 425.93L267.73 429.89" stroke="#E3F7ED" stroke-width="2.0833" stroke-miterlimit="10" stroke-linecap="round" stroke-linejoin="round"/>
<path d="M275.942 413.1L263.922 414.3" stroke="#E3F7ED" stroke-width="2.0833" stroke-miterlimit="10" stroke-linecap="round" stroke-linejoin="round"/>
<path d="M275.83 399.61L265.48 400" stroke="#E3F7ED" stroke-width="2.0833" stroke-miterlimit="10" stroke-linecap="round" stroke-linejoin="round"/>
<path d="M355.132 395.31L347.852 401.63" stroke="#E3F7ED" stroke-width="2.0833" stroke-miterlimit="10" stroke-linecap="round" stroke-linejoin="round"/>
<path d="M366.301 403.8L358.871 411.69" stroke="#E3F7ED" stroke-width="2.0833" stroke-miterlimit="10" stroke-linecap="round" stroke-linejoin="round"/>
</g>
<defs>
<clipPath id="clip0_450:20500">
<rect width="2856" height="800" fill="white"/>
</clipPath>
</defs>
</svg>
