<svg width="1870" height="745" viewBox="0 0 1870 745" fill="none" xmlns="http://www.w3.org/2000/svg">
<g clip-path="url(#clip0_450:19788)">
<path d="M981 744.61C1471.98 744.61 1870 741.418 1870 737.48C1870 733.542 1471.98 730.35 981 730.35C490.019 730.35 92 733.542 92 737.48C92 741.418 490.019 744.61 981 744.61Z" fill="black"/>
<path d="M1709.64 613.28L1793.43 515.52" stroke="#FF341A" stroke-width="2.0833" stroke-miterlimit="10" stroke-linecap="round" stroke-linejoin="round"/>
<path d="M1709.64 684.85L1821.36 638.59" stroke="#FF341A" stroke-width="2.0833" stroke-miterlimit="10" stroke-linecap="round" stroke-linejoin="round"/>
<path d="M114.071 661.72L-0.279297 638.59" stroke="#FF341A" stroke-width="2.0833" stroke-miterlimit="10" stroke-linecap="round" stroke-linejoin="round"/>
<path d="M125.42 554.8L20.6699 464.89" stroke="#FF341A" stroke-width="2.0833" stroke-miterlimit="10" stroke-linecap="round" stroke-linejoin="round"/>
<path fill-rule="evenodd" clip-rule="evenodd" d="M294.14 308.06H243.49C219.61 308.06 207.68 330.49 201.53 340.26C195.38 350.03 189.95 369.2 198.63 383.31C207.31 397.42 213.7 409.91 222.96 404.17C232.22 398.43 246.48 381.76 246.48 381.76C246.48 381.76 250.56 402.14 263.15 417.14H314.27C314.27 417.14 337.05 389.36 342.8 360.65C360.58 360.65 380.58 345.83 384.66 342.31C397.07 342.31 422.63 341.01 440.41 330.09H461.52V307.12L294.14 308.06Z" fill="#00672E"/>
<path fill-rule="evenodd" clip-rule="evenodd" d="M263.151 417.13C263.151 424.14 224.23 483.83 224.23 524.71H347.951C347.951 484.56 314.271 435.44 314.271 417.13H263.151Z" fill="#FBBE2E"/>
<path fill-rule="evenodd" clip-rule="evenodd" d="M228.221 524.71C227.291 533.62 221.271 572.21 230.021 607.73C237.881 639.66 247.241 668.06 259.441 699.07C296.341 699.07 286.111 699.07 286.111 699.07V524.71H228.221Z" fill="#FFC7BF"/>
<path fill-rule="evenodd" clip-rule="evenodd" d="M343.979 524.71C344.899 533.62 348.899 567.51 342.729 603.57C336.869 637.86 324.699 668.07 312.499 699.08C275.599 699.08 286.089 699.08 286.089 699.08V524.71H343.979Z" fill="#FFC7BF"/>
<path fill-rule="evenodd" clip-rule="evenodd" d="M286.1 699.07H256.37C256.37 699.07 248.77 720.41 229.24 726.2C209.71 731.99 216.58 735.97 216.58 735.97H284.73L286.1 699.07Z" fill="#163BF3"/>
<path fill-rule="evenodd" clip-rule="evenodd" d="M312.499 699.07C310.879 703.85 308.819 710.56 315.409 715.88C321.989 721.2 329.629 725.93 329.629 735.96H284.709L286.079 699.06H312.499V699.07Z" fill="#163BF3"/>
<path fill-rule="evenodd" clip-rule="evenodd" d="M293.13 270.29C303.04 270.29 311.09 279.92 311.09 291.77C311.09 303.63 303.04 313.26 293.13 313.26C283.21 313.26 275.16 303.63 275.16 291.77C275.16 279.92 283.21 270.29 293.13 270.29Z" fill="#FFC7BF"/>
<path fill-rule="evenodd" clip-rule="evenodd" d="M293.13 222.6C303.04 222.6 311.09 232.22 311.09 244.08C311.09 255.94 303.04 265.57 293.13 265.57C283.21 265.57 275.16 255.94 275.16 244.08C275.16 232.22 283.21 222.6 293.13 222.6Z" fill="#8D1A00"/>
<path fill-rule="evenodd" clip-rule="evenodd" d="M275.599 287.06C275.599 287.06 272.519 282.43 269.489 284.55C266.449 286.68 270.949 296.3 275.599 296.5C275.319 293.12 275.599 287.06 275.599 287.06Z" fill="#FFC7BF"/>
<path fill-rule="evenodd" clip-rule="evenodd" d="M309.76 287.06C309.76 287.06 312.84 282.43 315.88 284.55C318.91 286.68 314.42 296.3 309.76 296.5C310.03 293.12 309.76 287.06 309.76 287.06Z" fill="#FFC7BF"/>
<path fill-rule="evenodd" clip-rule="evenodd" d="M301.61 263.03L299.07 271.5H287.18L284.65 263.03H301.61Z" fill="#C98600"/>
<path fill-rule="evenodd" clip-rule="evenodd" d="M275.43 288.03H310.82C310.82 288.03 308.8 270.29 293.13 270.29C277.46 270.29 275.43 288.03 275.43 288.03Z" fill="#8D1A00"/>
<path d="M290.83 299.32H294.91C294.91 299.32 293.13 296.09 293.13 288.03" stroke="#8D1A00" stroke-width="1.5" stroke-miterlimit="10" stroke-linecap="round" stroke-linejoin="round"/>
<path fill-rule="evenodd" clip-rule="evenodd" d="M281.83 308.06L293.65 355.44L304.28 308L281.83 308.06Z" fill="#FFC7BF"/>
<path d="M293.91 354.28V417.13" stroke="#60D399" stroke-width="2.0833" stroke-miterlimit="10" stroke-linecap="round" stroke-linejoin="round"/>
<path d="M246.49 381.75C243.79 372.24 242.93 345.97 242.93 345.97" stroke="#60D399" stroke-width="2.0833" stroke-miterlimit="10" stroke-linecap="round" stroke-linejoin="round"/>
<path fill-rule="evenodd" clip-rule="evenodd" d="M206.9 374.9C205.48 371.3 208.51 368.45 210.41 371.87C212.31 375.28 215.63 381.76 215.63 381.76C215.63 381.76 215.15 368.08 214.87 364.95C214.58 361.82 218.57 360.14 219.14 363.87C219.71 367.6 221.32 378.13 221.32 378.13C221.32 378.13 222.37 365 222.65 362.13C222.93 359.26 226.92 358.74 226.82 362.13C226.72 365.52 226.72 378.33 226.72 378.33C226.72 378.33 230.14 369.03 231.27 365.91C232.41 362.78 235.82 364.11 235.06 368.09C234.3 372.07 234.02 386.49 234.02 386.49C234.02 386.49 241.89 381.18 243.88 379.38C245.87 377.58 249.22 380.32 246.93 383.69C244.64 387.06 237.91 399.01 235.35 401.76C232.79 404.51 219.42 407.07 214.3 394.36C209.17 381.63 208.32 378.5 206.9 374.9Z" fill="#FFC7BF"/>
<path d="M342.801 360.64C344.341 354.98 345.521 345.98 345.521 345.98" stroke="#60D399" stroke-width="2.0833" stroke-miterlimit="10" stroke-linecap="round" stroke-linejoin="round"/>
<path d="M384.66 342.3C384.66 342.3 406.28 325.35 409.98 320.75" stroke="#60D399" stroke-width="2.0833" stroke-miterlimit="10" stroke-linecap="round" stroke-linejoin="round"/>
<path fill-rule="evenodd" clip-rule="evenodd" d="M461.52 307.11C470.86 307.11 496.94 307.9 501.53 325.08C492.64 325.08 461.52 330.07 461.52 330.07V307.11Z" fill="#FFC7BF"/>
<path d="M286.1 524.71V699.07" stroke="#8D1A00" stroke-width="1.815" stroke-miterlimit="10" stroke-linecap="round" stroke-linejoin="round"/>
<path fill-rule="evenodd" clip-rule="evenodd" d="M516.37 323.35C511.61 323.35 502.761 323.52 493.281 324.25C483.811 324.97 457.45 326.2 447.36 347.63C437.27 369.05 406.021 433.69 401.901 442.44C397.781 451.19 395.08 472.94 407.69 479.12C420.3 485.3 440.251 486.59 453.641 483.37C467.021 480.15 476.841 474.78 476.841 474.78H609.44V469.75C609.44 469.75 626.67 471.12 634.11 471.52C641.55 471.92 654.02 471.32 658.85 458.65C663.67 445.98 659.851 433.91 654.421 423.66C648.991 413.4 614.4 349.79 608.97 339.66C603.54 329.54 593.891 324.31 582.421 324.31H551.531C551.541 324.31 521.13 323.35 516.37 323.35Z" fill="#6D83F3"/>
<path fill-rule="evenodd" clip-rule="evenodd" d="M466.331 474.78L441.701 562.13L521.391 593.56L542.511 538V594.81H608.481V474.78H466.331Z" fill="#FF341A"/>
<path d="M480.281 378.42V438.76" stroke="#163BF3" stroke-width="2.0833" stroke-miterlimit="10" stroke-linecap="round" stroke-linejoin="round"/>
<path d="M445.34 438.76H514.22V460.38C514.22 460.38 489.49 470.32 476.84 474.78" stroke="#163BF3" stroke-width="2.0833" stroke-miterlimit="10" stroke-linecap="round" stroke-linejoin="round"/>
<path d="M639.661 438.76H577.311V462.41C577.311 462.41 594.06 468.45 609.44 469.75" stroke="#163BF3" stroke-width="2.0833" stroke-miterlimit="10" stroke-linecap="round" stroke-linejoin="round"/>
<path d="M580.27 383.61H510.67V437.76H580.27V383.61Z" fill="#FBBE2E"/>
<path fill-rule="evenodd" clip-rule="evenodd" d="M513.061 437.78H553.621C553.621 437.78 555.291 440.78 542.171 442.97C529.041 445.16 513.061 451.64 513.061 451.64V437.78Z" fill="#5B3100"/>
<path d="M595.16 438.76V378.42" stroke="#163BF3" stroke-width="2.0833" stroke-miterlimit="10" stroke-linecap="round" stroke-linejoin="round"/>
<path d="M584.67 364.33H506.27V383.6H584.67V364.33Z" fill="#FBBE2E"/>
<path d="M551.201 383.61H539.73V437.76H551.201V383.61Z" fill="#FF341A"/>
<path d="M551.201 364.33H539.73V383.6H551.201V364.33Z" fill="#FF341A"/>
<path fill-rule="evenodd" clip-rule="evenodd" d="M578.291 437.78H537.731C537.731 437.78 536.061 440.78 549.181 442.97C562.311 445.16 578.281 451.64 578.281 451.64V437.78H578.291Z" fill="#5B3100"/>
<path d="M580.27 383.61H510.67V389.11H580.27V383.61Z" fill="#FF341A"/>
<path d="M551.201 383.52H539.73V389.02H551.201V383.52Z" fill="#8D1A00"/>
<path d="M545.471 364.33C545.471 364.33 529.171 339.13 522.331 344.56C515.491 350 545.471 364.33 545.471 364.33Z" stroke="#FF341A" stroke-width="2.0833" stroke-miterlimit="10" stroke-linecap="round" stroke-linejoin="round"/>
<path d="M545.471 364.33C545.471 364.33 561.771 339.13 568.611 344.56C575.451 350 545.471 364.33 545.471 364.33Z" stroke="#FF341A" stroke-width="2.0833" stroke-miterlimit="10" stroke-linecap="round" stroke-linejoin="round"/>
<path d="M462.701 487.66H608.481" stroke="#8D1A00" stroke-width="2.0833" stroke-miterlimit="10" stroke-linecap="round" stroke-linejoin="round"/>
<path d="M511.33 537.75H567.14" stroke="#FF341A" stroke-width="2.0833" stroke-miterlimit="10" stroke-linecap="round" stroke-linejoin="round"/>
<path fill-rule="evenodd" clip-rule="evenodd" d="M445.34 563.57C445.34 563.57 431.03 612.86 426.76 623.67C422.49 634.48 424.75 639.51 429.02 649.06C433.29 658.61 456.67 703.61 456.67 703.61L500.16 688.02L490.11 641.77L514.42 590.81L445.34 563.57Z" fill="#5B3100"/>
<path fill-rule="evenodd" clip-rule="evenodd" d="M549.93 594.81C547.42 629.45 559.23 659.61 559.23 687.52H603.73V594.81H549.93Z" fill="#5B3100"/>
<path fill-rule="evenodd" clip-rule="evenodd" d="M430.02 735.97H517L500.049 687.52L456.669 703.61L462.7 717.52C462.7 717.52 455.16 725.98 448.62 727.49C442.09 729 430.02 730.62 430.02 735.97Z" fill="#133191"/>
<path fill-rule="evenodd" clip-rule="evenodd" d="M559.23 687.52C559.23 694.81 555.16 716.79 555.16 735.97H611.07L603.73 687.52H559.23Z" fill="#133191"/>
<path fill-rule="evenodd" clip-rule="evenodd" d="M521 300.17V315.36L534.05 328.41L546.81 315.65V300.4L521 300.17Z" fill="#5B3100"/>
<path fill-rule="evenodd" clip-rule="evenodd" d="M535.621 304.79L546.811 307.29V300.4L535.621 304.79Z" fill="#5B3100"/>
<path fill-rule="evenodd" clip-rule="evenodd" d="M534.051 263.31C545.501 263.31 554.791 272.6 554.791 284.05C554.791 295.5 545.491 304.79 534.051 304.79C522.601 304.79 513.311 295.49 513.311 284.05C513.311 272.6 522.601 263.31 534.051 263.31Z" fill="#5B3100"/>
<path fill-rule="evenodd" clip-rule="evenodd" d="M519.75 299.06C522.3 299.06 532.77 289.88 532.77 284.05C532.77 278.21 539.03 277.72 539.03 282.5C539.03 276.4 539.92 269.21 548.53 269.21C544.62 265.3 538.56 263.32 534.06 263.32C529.56 263.32 513.32 266.25 513.32 284.06C513.31 291.48 517.2 296.84 519.75 299.06Z" fill="black"/>
<path fill-rule="evenodd" clip-rule="evenodd" d="M553.369 280.182C554.069 281.832 556.649 285.232 558.769 286.012C560.889 286.792 560.369 288.642 558.969 288.642H553.179C553.179 288.642 552.669 278.532 553.369 280.182Z" fill="#5B3100"/>
<path fill-rule="evenodd" clip-rule="evenodd" d="M521.001 315.36L516.371 323.35L530.921 339.66L533.901 328.27L521.001 315.36Z" fill="#8D1A00"/>
<path fill-rule="evenodd" clip-rule="evenodd" d="M533.9 328.27L539.93 339.66L551.54 324.26L546.81 315.36L533.9 328.27Z" fill="#8D1A00"/>
<path d="M549.951 278.72V280.81" stroke="white" stroke-width="2.0833" stroke-miterlimit="10" stroke-linecap="round" stroke-linejoin="round"/>
<path fill-rule="evenodd" clip-rule="evenodd" d="M754.419 321.25L681.269 328.29L695.339 266.95H669.949C669.949 266.95 649.329 312.2 643.799 331.56C638.269 350.91 650.589 363.48 663.909 363.48H720.219L645.059 641.01H877.089L824.809 415.25C824.809 415.25 847.739 400.2 841.789 367.27C838.399 348.56 837.439 340.16 835.829 332.44C834.219 324.72 826.179 317.99 814.909 317.99H782.319L754.419 321.25Z" fill="#C98600"/>
<path fill-rule="evenodd" clip-rule="evenodd" d="M754.42 321.25L773.02 355.44L782.32 317.99L754.42 321.25Z" fill="#DFA98B"/>
<path fill-rule="evenodd" clip-rule="evenodd" d="M645.068 641.01L633.559 683.52C633.559 683.52 642.059 676.46 651.609 682.75C661.159 689.03 663.679 702.11 663.679 702.11L687.809 641.02H645.068V641.01Z" fill="#DFA98B"/>
<path fill-rule="evenodd" clip-rule="evenodd" d="M779.559 641.01L792.879 699.59H825.559V641.01H779.559Z" fill="#DFA98B"/>
<path fill-rule="evenodd" clip-rule="evenodd" d="M645.07 641.01L642.51 650.45L683.4 652.15L687.8 641.01H645.07Z" fill="black"/>
<path fill-rule="evenodd" clip-rule="evenodd" d="M779.559 641.01L782.089 652.15H825.559V641.01H779.559Z" fill="black"/>
<path fill-rule="evenodd" clip-rule="evenodd" d="M633.549 683.52C631.309 690.08 626.639 702.1 626.639 702.1C626.639 702.1 600.419 693.29 585.779 693.77C608.139 711.79 642.449 736.4 642.449 736.4C642.449 736.4 659.659 712.35 663.669 702.09C660.669 691.35 656.969 685.37 649.319 681.46C643.669 678.6 637.359 680.75 633.549 683.52Z" fill="#163BF3"/>
<path fill-rule="evenodd" clip-rule="evenodd" d="M585.78 693.78C582.48 694.82 584.44 701.53 592.99 708.26C601.54 714.99 630.79 732.76 635.03 735.27C639.58 737.96 641.3 738.3 642.98 735.68C643.95 734.16 642.62 732.3 639.38 729.44C629.19 720.47 604.81 704.42 600.82 700.99C595.57 696.47 589.08 692.74 585.78 693.78Z" fill="#0C114D"/>
<path d="M626.65 702.11L639.47 706.66" stroke="#0C114D" stroke-width="2.0833" stroke-miterlimit="10" stroke-linecap="round" stroke-linejoin="round"/>
<path fill-rule="evenodd" clip-rule="evenodd" d="M792.88 699.59C793.99 704.68 794.19 719.81 791.21 722.59C788.22 725.37 776.07 731.69 776.18 736.41H829.21C829.21 736.41 826.43 722.59 825.91 716.62C825.39 710.65 825.56 699.59 825.56 699.59H792.88Z" fill="#163BF3"/>
<path d="M806.99 719.1C806.99 719.1 793.63 721.32 790.09 723.51" stroke="#0C114D" stroke-width="2.0833" stroke-miterlimit="10" stroke-linecap="round" stroke-linejoin="round"/>
<path fill-rule="evenodd" clip-rule="evenodd" d="M675.939 266.95C675.939 266.95 672.719 263.25 673.359 257.46C674.009 251.67 674.65 244.85 670.27 240.09C665.89 235.33 663.189 232.37 664.869 230.31C666.539 228.25 668.439 229.68 669.629 231.21C668.279 229.72 663.86 223.47 665.77 221.76C667.68 220.05 672.36 221.96 674.54 224.59C673.16 223.27 675.259 216.94 680.009 220.97C684.75 224.99 697.67 239.16 697.67 239.16C697.67 239.16 702.81 231.06 704.79 228.42C706.77 225.79 712.37 225.19 711.05 232.11C709.73 239.03 701.179 260.25 695.339 266.96H675.939V266.95Z" fill="#DFA98B"/>
<path d="M669.629 231.21L678.359 241.36" stroke="#5B3100" stroke-width="2.0833" stroke-miterlimit="10" stroke-linecap="round" stroke-linejoin="round"/>
<path d="M674.27 224.14L683 234.29" stroke="#5B3100" stroke-width="2.0833" stroke-miterlimit="10" stroke-linecap="round" stroke-linejoin="round"/>
<path d="M697.669 239.15L692.219 246.73" stroke="#5B3100" stroke-width="2.0833" stroke-miterlimit="10" stroke-linecap="round" stroke-linejoin="round"/>
<path fill-rule="evenodd" clip-rule="evenodd" d="M719.419 324.62C719.419 324.62 709.669 315.76 711.249 305.3C712.839 294.84 718.309 289.7 718.309 289.7C718.309 289.7 713.639 277.79 719.109 270.39C724.579 262.99 737.609 266.95 737.609 266.95C737.609 266.95 751.039 243.38 777.029 249.31C791.829 252.69 795.209 266.95 795.209 266.95C795.209 266.95 814.839 274.89 816.129 290.18C817.419 305.47 807.759 317.99 807.759 317.99L719.419 324.62Z" fill="#8D1A00"/>
<path fill-rule="evenodd" clip-rule="evenodd" d="M744.369 280.69H795.689C795.689 280.69 783.949 266.96 769.789 266.96C755.629 266.95 744.369 280.69 744.369 280.69Z" fill="#8D1A00"/>
<path fill-rule="evenodd" clip-rule="evenodd" d="M750.11 280.69C750.11 280.69 745.83 290.75 745.83 298.9C745.83 307.05 747.75 319.7 767.09 321.04C786.44 322.37 791.44 303.51 791.71 298.07C792.12 289.84 786.85 280.68 786.85 280.68H750.11V280.69Z" fill="#DFA98B"/>
<path fill-rule="evenodd" clip-rule="evenodd" d="M746.729 291.44C746.729 291.44 743.509 283.88 738.239 286.49C732.969 289.1 740.24 304.3 746.17 304.22C746.1 298.54 746.729 291.44 746.729 291.44Z" fill="#DFA98B"/>
<path fill-rule="evenodd" clip-rule="evenodd" d="M790.969 290.85C790.969 290.85 795.049 283.73 799.979 286.94C804.909 290.15 796.259 304.3 790.379 303.52C791.129 297.89 790.969 290.85 790.969 290.85Z" fill="#DFA98B"/>
<path d="M771.53 285.94L775.07 297.17H767.33C767.33 297.17 769.8 302.94 774.08 303.55C769.88 307.09 765.84 307.88 760.24 303.55" stroke="#5B3100" stroke-width="2.0833" stroke-miterlimit="10" stroke-linecap="round" stroke-linejoin="round"/>
<path d="M759.25 285.94V288.03" stroke="#5B3100" stroke-width="2.0833" stroke-miterlimit="10" stroke-linecap="round" stroke-linejoin="round"/>
<path d="M780.42 285.94V288.03" stroke="#5B3100" stroke-width="2.0833" stroke-miterlimit="10" stroke-linecap="round" stroke-linejoin="round"/>
<path d="M681.269 328.29L678.549 340.13" stroke="#5B3100" stroke-width="2.0833" stroke-miterlimit="10" stroke-linecap="round" stroke-linejoin="round"/>
<path d="M720.23 363.49L724.021 349.48" stroke="#5B3100" stroke-width="2.0833" stroke-miterlimit="10" stroke-linecap="round" stroke-linejoin="round"/>
<path d="M809.869 344.76L819.639 391.72" stroke="#5B3100" stroke-width="2.0833" stroke-miterlimit="10" stroke-linecap="round" stroke-linejoin="round"/>
<path fill-rule="evenodd" clip-rule="evenodd" d="M1577.23 305.76C1577.23 305.76 1559.16 313.77 1549.77 319.72C1540.39 325.67 1523.69 336.88 1520.94 359.3C1518.19 381.72 1511.56 426.34 1511.56 426.34C1511.56 426.34 1506.07 461.12 1517.74 463.64C1529.41 466.16 1537.87 456.78 1540.39 450.37C1542.91 443.96 1548.62 424.06 1548.62 424.06C1548.62 424.06 1547.25 446.03 1557.55 449.69C1567.85 453.35 1586.15 453.12 1597.59 453.12C1609.03 453.12 1649.3 452.66 1655.25 442.82V408.5C1655.25 408.5 1664.4 425.43 1682.48 425.43C1700.56 425.43 1704.68 405.29 1706.96 393.4C1709.25 381.5 1720.23 315.97 1720.23 315.97H1695.29L1678.13 353.36C1678.13 353.36 1662.34 328.24 1640.61 315.97C1618.87 303.7 1607.66 304.16 1607.66 304.16L1577.23 305.76Z" fill="#FBBE2E"/>
<path d="M1548.62 424.05V349.92" stroke="#FF341A" stroke-width="2.0833" stroke-miterlimit="10" stroke-linecap="round" stroke-linejoin="round"/>
<path d="M1678.13 353.35C1678.13 353.35 1668.52 373.26 1668.98 381.95" stroke="#FF341A" stroke-width="2.0833" stroke-miterlimit="10" stroke-linecap="round" stroke-linejoin="round"/>
<path d="M1640.61 315.96C1634.89 319.94 1622.76 339.85 1631 359.99C1639.24 380.12 1655.25 408.5 1655.25 408.5" stroke="#FF341A" stroke-width="2.0833" stroke-miterlimit="10" stroke-linecap="round" stroke-linejoin="round"/>
<path fill-rule="evenodd" clip-rule="evenodd" d="M1512.29 421.41C1503.32 421.41 1486.78 421.26 1480.04 421.22C1473.3 421.18 1473.45 427.52 1478.87 427.52C1484.29 427.52 1497.62 431.91 1497.62 431.91V446.85C1497.62 450.95 1502.97 457.02 1511.94 457.02C1520.9 457.02 1532.47 449.2 1532.47 439.24C1532.47 429.28 1524.62 421.41 1512.29 421.41Z" fill="#FFC7BF"/>
<path d="M1512.32 421.22C1507.57 421.22 1506.89 425.02 1505.82 429.13C1504.85 432.83 1502.3 444.07 1506.55 443.77C1510.8 443.48 1514.02 434.98 1515.77 431.91" stroke="#FF341A" stroke-width="2.0833" stroke-miterlimit="10" stroke-linecap="round" stroke-linejoin="round"/>
<path fill-rule="evenodd" clip-rule="evenodd" d="M1557.38 449.62C1557.38 449.62 1506.69 671.07 1504.16 682.51C1501.64 693.95 1505.68 699.47 1515.76 699.47C1525.84 699.47 1537.74 702.44 1548.73 682.77C1559.71 663.09 1555.82 632.2 1563.15 619.62C1570.47 607.03 1589 574.32 1589 574.32V692.16C1589 700.86 1594.49 713.21 1603.65 713.21H1631.79C1631.79 713.21 1653.3 635.18 1651.7 615.74C1650.1 596.29 1642.55 584.16 1644.15 576.84C1645.75 569.52 1658.1 506.37 1658.1 494.93C1658.1 483.49 1654.53 443.8 1654.53 443.8L1557.38 449.62Z" fill="#4FB3F6"/>
<path fill-rule="evenodd" clip-rule="evenodd" d="M1532.46 698.32L1521.43 736.42H1469.26C1469.26 736.42 1468.34 729.44 1478.87 725.09C1489.4 720.74 1508.47 711.08 1510.26 698.75C1515.49 698.55 1532.46 698.32 1532.46 698.32Z" fill="#FF341A"/>
<path fill-rule="evenodd" clip-rule="evenodd" d="M1603.65 713.2C1603.65 713.2 1587.79 729.21 1587.1 736.42H1635.61C1638.61 735.92 1635.57 728.01 1631.32 722.43C1629.77 720.4 1631.79 713.2 1631.79 713.2H1603.65Z" fill="#FF341A"/>
<path d="M1589.01 574.31V487.61" stroke="#133191" stroke-width="2.0833" stroke-miterlimit="10" stroke-linecap="round" stroke-linejoin="round"/>
<path d="M1578.95 483.34C1578.95 483.34 1578.34 489.31 1589.01 493.88" stroke="#133191" stroke-width="2.0833" stroke-miterlimit="10" stroke-linecap="round" stroke-linejoin="round"/>
<path d="M1632.17 451.21V713.2" stroke="#133191" stroke-width="2.0833" stroke-miterlimit="10" stroke-linecap="round" stroke-linejoin="round"/>
<path fill-rule="evenodd" clip-rule="evenodd" d="M1695.3 315.96C1695.3 315.96 1691.52 308 1698.98 304.15H1675.99C1671.6 304.15 1670.43 298.4 1675.99 298.4C1681.56 298.4 1701.18 293.13 1708.94 293.13C1716.7 293.13 1724.76 297.32 1724.76 304.16C1724.76 311 1720.24 315.97 1720.24 315.97H1695.3V315.96Z" fill="#FFC7BF"/>
<path d="M1716.71 305.77C1716.71 305.77 1716.12 312.82 1713.78 315.96" stroke="#FF341A" stroke-width="2.0833" stroke-miterlimit="10" stroke-linecap="round" stroke-linejoin="round"/>
<path d="M1699.13 304.15C1699.13 304.15 1696.88 312.74 1704.01 310.87" stroke="#FF341A" stroke-width="2.0833" stroke-miterlimit="10" stroke-linecap="round" stroke-linejoin="round"/>
<path d="M1611.18 298.754C1617.38 290.81 1615.97 279.341 1608.02 273.139C1600.08 266.936 1588.61 268.348 1582.41 276.292C1576.2 284.237 1577.62 295.705 1585.56 301.908C1593.5 308.111 1604.97 306.699 1611.18 298.754Z" fill="#FFC7BF"/>
<path fill-rule="evenodd" clip-rule="evenodd" d="M1578.56 286.42C1575.03 290.4 1555.23 309.03 1569.76 320.16C1584.29 331.29 1602.64 309.39 1611.63 298.2C1614.87 293.69 1615.08 287.53 1615.08 287.53H1609.6C1609.6 287.53 1602.34 293.13 1592.61 293.13C1582.88 293.12 1579.16 292.74 1578.56 286.42Z" fill="#CF1D00"/>
<path d="M1589.78 279.32C1589.78 279.32 1588.44 282.47 1582.92 282.44C1585.08 284.01 1588.44 286.41 1588.44 286.41" stroke="#CF1D00" stroke-width="1.5" stroke-miterlimit="10" stroke-linecap="round" stroke-linejoin="round"/>
<path fill-rule="evenodd" clip-rule="evenodd" d="M1577.58 323.19C1577.58 323.19 1564.39 333.81 1570.76 337.64C1577.14 341.47 1584.41 324.44 1584.41 324.44C1584.41 324.44 1588.61 340.79 1596.82 337.71C1605.02 334.63 1591.91 318.16 1591.91 318.16L1577.58 323.19Z" fill="black"/>
<path fill-rule="evenodd" clip-rule="evenodd" d="M1373.64 293.88C1370.76 293.88 1335.81 300.78 1331.22 300.78H1276.4L1270.43 341.82C1270.43 341.82 1294.17 358.97 1318.88 353.84C1331.33 367.57 1344.5 367.02 1349.08 366.66C1349.26 375.63 1353.29 397.04 1354.02 403.82C1354.75 410.59 1359.33 415.72 1359.33 415.72C1359.33 415.72 1352.55 450.5 1339.56 473.38C1326.56 496.26 1324.15 523.93 1322.47 544.6C1320.79 565.27 1307.95 589.29 1300.13 602.14C1292.31 614.99 1292.31 651.6 1296.78 656.33H1490.63C1490.63 626.05 1478.9 608.17 1480.01 580.8C1481.13 553.43 1488.39 514.88 1482.24 490.86C1476.1 466.84 1457.32 434.88 1455.95 424.37C1454.57 413.86 1458.47 410.43 1458.47 410.43C1458.47 410.43 1491.19 409.06 1498.97 385.49C1506.75 361.92 1508.35 331.03 1488.44 312.96C1468.53 294.88 1459.61 296.26 1442.68 294.19C1425.75 292.13 1415.09 290.3 1415.09 290.3C1415.09 290.3 1376.51 293.88 1373.64 293.88Z" fill="#133191"/>
<path d="M1424.36 337.44C1424.36 337.44 1431.23 360.09 1459.37 367.19C1462.8 377.94 1463.03 401.06 1458.46 410.44" stroke="#163BF3" stroke-width="2.0833" stroke-miterlimit="10" stroke-linecap="round" stroke-linejoin="round"/>
<path d="M1349.08 366.66L1348.17 342.25" stroke="#163BF3" stroke-width="2.0833" stroke-miterlimit="10" stroke-linecap="round" stroke-linejoin="round"/>
<path fill-rule="evenodd" clip-rule="evenodd" d="M1313.89 656.33L1301.3 708.44H1330.58L1349.08 656.33H1313.89Z" fill="#DFA98B"/>
<path fill-rule="evenodd" clip-rule="evenodd" d="M1406.88 656.33L1422.11 708.44H1445.54L1453.01 656.33H1406.88Z" fill="#DFA98B"/>
<path fill-rule="evenodd" clip-rule="evenodd" d="M1313.89 656.33L1312.33 662.77L1346.23 664.35L1349.08 656.33H1313.89Z" fill="black"/>
<path fill-rule="evenodd" clip-rule="evenodd" d="M1406.88 656.33L1409.22 664.35H1451.86L1453.01 656.33H1406.88Z" fill="black"/>
<path fill-rule="evenodd" clip-rule="evenodd" d="M1301.3 708.44C1299.84 713.86 1293.69 722.5 1289 724.55C1284.31 726.6 1272.16 732.03 1272.16 736.42H1321.22L1330.59 708.44H1301.3Z" fill="#0089E3"/>
<path fill-rule="evenodd" clip-rule="evenodd" d="M1422.11 708.44C1423.28 712.54 1412.73 730.71 1414.35 736.42H1460.04C1460.04 736.42 1460.19 730.98 1453.01 724.54C1445.83 718.1 1444.66 711.81 1445.54 708.44H1422.11Z" fill="#0089E3"/>
<path fill-rule="evenodd" clip-rule="evenodd" d="M1388.3 258.61C1399.72 258.61 1408.98 267.88 1408.98 279.3C1408.98 290.72 1399.71 299.98 1388.3 299.98C1376.88 299.98 1367.62 290.71 1367.62 279.3C1367.62 267.88 1376.88 258.61 1388.3 258.61Z" fill="#DFA98B"/>
<path fill-rule="evenodd" clip-rule="evenodd" d="M1369.66 270.33H1391.55C1393.72 270.33 1399.27 274.04 1400.17 280.26C1400.17 274.11 1404.59 271.55 1407.67 272.01C1406.32 267.97 1399.76 258.61 1388.31 258.61C1374.6 258.61 1369.66 270.33 1369.66 270.33Z" fill="black"/>
<path fill-rule="evenodd" clip-rule="evenodd" d="M1388.3 258.61C1388.3 258.61 1381.26 252.35 1384.25 243.63C1387.25 234.91 1399.43 217.76 1411.71 220.38C1423.99 223.01 1433.08 248.59 1427.17 257.03C1421.27 265.47 1405.96 268.54 1405.96 268.54L1388.3 258.61Z" fill="black"/>
<path fill-rule="evenodd" clip-rule="evenodd" d="M1382.78 299.23C1382.78 299.23 1369.63 314.75 1376.93 317.29C1384.24 319.82 1390.63 299.85 1390.63 299.85L1382.78 299.23Z" fill="white"/>
<path fill-rule="evenodd" clip-rule="evenodd" d="M1390.63 299.85C1390.63 299.85 1394.74 319.45 1403.74 315.42C1412.74 311.39 1402.86 304.89 1407.66 299.24C1412.45 293.59 1415.08 290.31 1415.08 290.31L1408.98 283.56L1390.63 299.85Z" fill="white"/>
<path d="M1373.57 275.72V278.04" stroke="black" stroke-width="1.5" stroke-miterlimit="10" stroke-linecap="round" stroke-linejoin="round"/>
<path d="M1386.12 275.72V278.04" stroke="black" stroke-width="1.5" stroke-miterlimit="10" stroke-linecap="round" stroke-linejoin="round"/>
<path d="M1373.57 273.08H1378.89C1380.62 273.08 1382.62 274.96 1379.81 278.38C1377 281.8 1374.17 286.48 1374.17 286.48H1383.34" stroke="black" stroke-width="1.5" stroke-miterlimit="10" stroke-linecap="round" stroke-linejoin="round"/>
<path fill-rule="evenodd" clip-rule="evenodd" d="M1187.85 268.32C1200.88 268.32 1211.45 278.89 1211.45 291.92C1211.45 304.94 1200.88 315.52 1187.85 315.52C1174.83 315.52 1164.25 304.95 1164.25 291.92C1164.25 278.89 1174.83 268.32 1187.85 268.32Z" fill="#DFA98B"/>
<path fill-rule="evenodd" clip-rule="evenodd" d="M1171.72 274.7C1169.02 276.97 1161.9 277.94 1158.91 276.36C1155.92 274.78 1152.85 278.12 1155.39 279.96C1157.94 281.81 1165.21 285.23 1165.21 285.23C1165.21 285.23 1174.42 272.43 1171.72 274.7Z" fill="#DFA98B"/>
<path fill-rule="evenodd" clip-rule="evenodd" d="M1164.32 290.12C1168.4 290.12 1173.58 288.22 1175.69 286.11C1177.8 284 1183.25 286.37 1180.97 289.89C1178.68 293.4 1171.44 298.1 1165 297.81C1164.09 294.81 1164.16 292.75 1164.32 290.12Z" fill="white"/>
<path fill-rule="evenodd" clip-rule="evenodd" d="M1181.51 314.65L1188.98 337.78L1200.42 311.88L1181.51 314.65Z" fill="#DFA98B"/>
<path d="M1178.41 275.86C1178.41 275.86 1177.45 276.54 1176.55 277.77" stroke="#5B3100" stroke-width="2.0833" stroke-miterlimit="10" stroke-linecap="round" stroke-linejoin="round"/>
<path d="M1192.81 284.07C1192.81 284.07 1194.27 281.32 1197.48 282.1C1200.68 282.89 1200.74 287.05 1200.12 289.07C1199.5 291.09 1197.42 294.02 1194.16 293.51C1190.9 293 1191.12 290.25 1191.12 290.25" stroke="#5B3100" stroke-width="2.0833" stroke-miterlimit="10" stroke-linecap="round" stroke-linejoin="round"/>
<path fill-rule="evenodd" clip-rule="evenodd" d="M1181.51 314.65C1181.51 314.65 1142.86 329.96 1135.03 334.49C1127.2 339.02 1121.56 348.43 1121.23 358.9C1120.89 369.36 1159.52 424.37 1159.52 424.37H1250.77V372.52C1250.77 372.52 1298.29 299.04 1304.99 285.09C1311.69 271.15 1306.6 251.57 1296.95 244.33C1287.3 237.09 1270.94 246.48 1258.6 257.47C1246.27 268.46 1200.42 311.87 1200.42 311.87L1181.51 314.65Z" fill="#FBBE2E"/>
<path d="M1263.43 282.68C1263.43 282.68 1212.54 366.41 1207.12 375.74C1204.13 380.89 1206.85 385.11 1206.85 385.11C1206.85 385.11 1218.18 379.21 1230.29 379.96C1239.52 380.53 1241.9 386.18 1241.9 386.18L1250.76 372.51" stroke="#5B3100" stroke-width="2.0833" stroke-miterlimit="10" stroke-linecap="round" stroke-linejoin="round"/>
<path d="M1156.2 359.07L1149.99 399.08" stroke="#5B3100" stroke-width="2.0833" stroke-miterlimit="10" stroke-linecap="round" stroke-linejoin="round"/>
<path fill-rule="evenodd" clip-rule="evenodd" d="M1207.03 383.35C1206.29 386.8 1202.42 397.08 1202.6 400.86C1202.78 404.64 1204.36 406.48 1207 407.63C1208.05 410.53 1210.43 412.9 1213.94 412.55C1217.45 412.2 1220 406.49 1220 406.49C1220 406.49 1231.59 405.88 1234.75 405.35C1237.92 404.82 1239.76 399.81 1240.03 396.04C1240.29 392.26 1242.08 384.44 1242.08 384.44C1242.08 384.44 1239.83 377.47 1226.24 378.21C1214.99 378.8 1210.5 381.3 1207.03 383.35Z" fill="#DFA98B"/>
<path fill-rule="evenodd" clip-rule="evenodd" d="M1250.76 424.37C1250.76 424.37 1264.01 679.77 1263.42 693.71C1262.84 707.65 1256.04 712.66 1247.82 712.66H1202.4C1196.34 712.66 1190.26 703.36 1190.62 690.49C1190.97 677.62 1190.26 493.14 1190.26 493.14C1190.26 493.14 1144.5 682.27 1141.28 691.56C1138.06 700.86 1135.14 703.23 1126.21 703.23H1079.2C1076.42 703.23 1066.75 704.4 1073.78 677.6C1080.81 650.8 1144.09 424.36 1144.09 424.36H1250.76V424.37Z" fill="#014A82"/>
<path d="M1111.92 582.77H1127.65" stroke="#0C114D" stroke-width="2.0833" stroke-miterlimit="10" stroke-linecap="round" stroke-linejoin="round"/>
<path d="M1211.45 582.77H1227.18" stroke="#0C114D" stroke-width="2.0833" stroke-miterlimit="10" stroke-linecap="round" stroke-linejoin="round"/>
<path d="M1190.27 493.14V478.95" stroke="#0C114D" stroke-width="2.0833" stroke-miterlimit="10" stroke-linecap="round" stroke-linejoin="round"/>
<path d="M1236.82 435.95H1190.27V466.76H1236.82V435.95Z" fill="#FF341A"/>
<path d="M1203.61 404.81C1203.61 404.81 1195.69 409.47 1195.69 435.95" stroke="#FF341A" stroke-width="2.0833" stroke-miterlimit="10" stroke-linecap="round" stroke-linejoin="round"/>
<path d="M1227.88 405.99C1227.88 405.99 1232.12 413.45 1232.12 435.95" stroke="#FF341A" stroke-width="2.0833" stroke-miterlimit="10" stroke-linecap="round" stroke-linejoin="round"/>
<path fill-rule="evenodd" clip-rule="evenodd" d="M1080.09 703.24C1080.09 706.54 1075.88 716.6 1067.82 722.46C1059.77 728.32 1056.84 736.41 1056.84 736.41H1122.92C1122.92 736.41 1126.22 722.82 1127.13 718.06C1128.05 713.3 1131.19 702.86 1131.19 702.86C1131.19 702.86 1087.96 703.24 1080.09 703.24Z" fill="#163BF3"/>
<path fill-rule="evenodd" clip-rule="evenodd" d="M1204.75 712.66C1204.75 712.66 1198.71 726.49 1196.88 729.97C1195.05 733.45 1195.96 736.42 1198.89 736.42H1257.47C1257.47 736.42 1258.2 731.25 1253.99 727.78C1249.78 724.3 1247.9 716.6 1247.83 712.67H1204.75V712.66Z" fill="#163BF3"/>
<path fill-rule="evenodd" clip-rule="evenodd" d="M981.818 289.1L1000.31 263.35C1000.31 263.35 1007.71 267.53 1035.87 281.05C1064.02 294.56 1064.34 319.02 1066.92 328.99L982.649 378.09V379.04L981.828 378.56L981.009 379.04V378.09L896.729 328.99C899.309 319.01 899.629 294.56 927.779 281.05C955.939 267.53 963.339 263.35 963.339 263.35L981.818 289.1Z" fill="#6D83F3"/>
<path fill-rule="evenodd" clip-rule="evenodd" d="M963.329 263.35C963.329 263.35 961.819 289.1 981.819 289.1C1001.82 289.1 1000.31 263.35 1000.31 263.35H963.329Z" fill="black"/>
<path fill-rule="evenodd" clip-rule="evenodd" d="M892.719 347.69L896.719 328.98L934.049 337.03V348.64L892.719 347.69Z" fill="#5B3100"/>
<path fill-rule="evenodd" clip-rule="evenodd" d="M1069 347.58L1066.92 328.98L1029.59 337.03V350.73L1069 347.58Z" fill="#5B3100"/>
<path fill-rule="evenodd" clip-rule="evenodd" d="M963.299 263.36C963.299 263.36 956.919 295.26 966.319 297.82C975.709 300.37 981.819 289.1 981.819 289.1L963.299 263.36Z" fill="white"/>
<path fill-rule="evenodd" clip-rule="evenodd" d="M1000.34 263.36C1000.34 263.36 1006.72 295.26 997.318 297.82C987.928 300.37 981.818 289.1 981.818 289.1L1000.34 263.36Z" fill="white"/>
<path d="M934.049 337.03V316.42" stroke="#8D1A00" stroke-width="2.0833" stroke-miterlimit="10" stroke-linecap="round" stroke-linejoin="round"/>
<path d="M1029.55 337.03V316.42" stroke="#8D1A00" stroke-width="2.0833" stroke-miterlimit="10" stroke-linecap="round" stroke-linejoin="round"/>
<path fill-rule="evenodd" clip-rule="evenodd" d="M1002.45 318.77C1004.65 318.77 1006.43 320.55 1006.43 322.75C1006.43 324.95 1004.65 326.73 1002.45 326.73C1000.25 326.73 998.469 324.95 998.469 322.75C998.469 320.55 1000.25 318.77 1002.45 318.77Z" fill="#5B3100"/>
<path fill-rule="evenodd" clip-rule="evenodd" d="M982.63 707.14V736.42H913.45C913.45 736.42 912.5 733.06 920.67 729.02C928.84 724.98 948.79 717.07 951.95 707.14H982.63Z" fill="#FBBE2E"/>
<path fill-rule="evenodd" clip-rule="evenodd" d="M982.629 707.14V736.42H1051.81C1051.81 736.42 1052.76 733.06 1044.59 729.02C1036.42 724.98 1016.47 717.07 1013.31 707.14H982.629Z" fill="#FBBE2E"/>
<path fill-rule="evenodd" clip-rule="evenodd" d="M982.63 707.14V689.36H950.43L951.95 707.14H982.63Z" fill="#6D83F3"/>
<path fill-rule="evenodd" clip-rule="evenodd" d="M982.629 707.14V689.36H1014.84L1013.32 707.14H982.629Z" fill="#6D83F3"/>
<path fill-rule="evenodd" clip-rule="evenodd" d="M950.43 689.36C950.43 689.36 940.13 641.86 940.75 628.34C948.1 635.41 982.64 670.33 982.64 670.33V689.36H950.43Z" fill="#5B3100"/>
<path fill-rule="evenodd" clip-rule="evenodd" d="M1014.84 689.36C1014.84 689.36 1025.14 641.86 1024.52 628.34C1017.17 635.41 982.629 670.33 982.629 670.33V689.36H1014.84Z" fill="#5B3100"/>
<path fill-rule="evenodd" clip-rule="evenodd" d="M982.629 670.33C982.629 670.33 944.669 662.84 942.029 643.79C941.129 637.35 940.589 631.76 940.749 628.34C948.099 635.4 982.629 670.33 982.629 670.33Z" fill="black"/>
<path fill-rule="evenodd" clip-rule="evenodd" d="M982.629 670.33C982.629 670.33 1020.47 663.38 1023.16 644.37C1024.11 637.68 1024.68 631.86 1024.52 628.33C1017.17 635.4 982.629 670.33 982.629 670.33Z" fill="black"/>
<path fill-rule="evenodd" clip-rule="evenodd" d="M982.63 723.38C982.63 723.38 970.45 727.11 968.52 736.41H982.63V723.38Z" fill="#FF341A"/>
<path fill-rule="evenodd" clip-rule="evenodd" d="M982.629 723.38C982.629 723.38 994.809 727.11 996.739 736.41H982.629V723.38Z" fill="#FF341A"/>
<path d="M942.499 717.58C942.689 716.81 931.799 696.25 926.699 700.73C921.599 705.21 941.349 718.35 941.349 718.35H921.779" stroke="#FF341A" stroke-width="2.0833" stroke-miterlimit="10" stroke-linecap="round" stroke-linejoin="round"/>
<path d="M1022.77 717.58C1022.58 716.81 1033.47 696.25 1038.57 700.73C1043.67 705.21 1023.92 718.35 1023.92 718.35H1043.49" stroke="#FF341A" stroke-width="2.0833" stroke-miterlimit="10" stroke-linecap="round" stroke-linejoin="round"/>
<path fill-rule="evenodd" clip-rule="evenodd" d="M982.639 379.05C1001.49 358.01 1028.85 344.77 1059.29 344.77C1116.07 344.77 1162.17 390.87 1162.17 447.64C1162.17 473.5 1152.61 497.14 1136.84 515.22H1137.36L982.639 670.34L827.919 515.22H828.449C812.669 497.14 803.119 473.5 803.119 447.64C803.119 390.86 849.219 344.77 905.989 344.77C936.429 344.76 963.789 358 982.639 379.05Z" fill="#FF341A"/>
<path fill-rule="evenodd" clip-rule="evenodd" d="M865.078 353.23C865.078 353.23 860.938 350.81 852.498 354.23C844.048 357.65 836.988 364.81 833.198 368.24C829.408 371.67 827.018 382.79 828.088 389.55C829.158 396.3 831.548 400.26 833.858 398.78C836.168 397.3 836.078 382.88 836.168 379.17C836.418 385.51 839.548 398.04 843.498 396.39C847.448 394.74 848.198 387.82 847.118 378.51C849.178 385.27 853.448 384.91 855.268 384.36C858.568 383.37 857.738 378.92 856.418 372.34C855.118 365.74 856.108 357.44 865.078 353.23Z" fill="#5B3100"/>
<path fill-rule="evenodd" clip-rule="evenodd" d="M1100.34 353.23C1100.34 353.23 1104.48 350.81 1112.92 354.23C1121.37 357.65 1128.43 364.81 1132.22 368.24C1136.01 371.67 1138.4 382.79 1137.33 389.55C1136.26 396.3 1133.87 400.26 1131.56 398.78C1129.26 397.3 1129.34 382.88 1129.26 379.17C1129.01 385.51 1125.88 398.04 1121.93 396.39C1117.98 394.74 1117.23 387.82 1118.31 378.51C1116.25 385.27 1111.98 384.91 1110.16 384.36C1106.86 383.37 1107.69 378.92 1109.01 372.34C1110.31 365.74 1109.32 357.44 1100.34 353.23Z" fill="#5B3100"/>
<path fill-rule="evenodd" clip-rule="evenodd" d="M980.73 225.23C993.63 225.23 1004.1 235.71 1004.1 248.61C1004.1 261.51 993.63 271.98 980.73 271.98C967.83 271.98 957.35 261.51 957.35 248.61C957.36 235.7 967.83 225.23 980.73 225.23Z" fill="#5B3100"/>
<path fill-rule="evenodd" clip-rule="evenodd" d="M960.269 237.31C960.269 237.31 959.739 225.26 969.419 220.41C979.099 215.57 996.849 220.02 1001.21 237.31H960.269Z" fill="#FBBE2E"/>
<path fill-rule="evenodd" clip-rule="evenodd" d="M960.27 237.31H1001.2C1001.2 237.31 1017.39 228.55 1010.7 221.75C1004.01 214.96 974.6 215.5 960.27 237.31Z" fill="#FF341A"/>
<path fill-rule="evenodd" clip-rule="evenodd" d="M958.849 240.38C958.849 240.38 955.559 235.57 951.339 237.31C947.119 239.06 951.579 250.26 957.359 249.6C957.669 244.59 958.849 240.38 958.849 240.38Z" fill="#5B3100"/>
<path fill-rule="evenodd" clip-rule="evenodd" d="M1002.24 240.85C1002.24 240.85 1006 235.57 1010.22 237.31C1014.44 239.06 1009.24 250.67 1003.46 250.01C1003.15 245.01 1002.24 240.85 1002.24 240.85Z" fill="#5B3100"/>
<path d="M980.729 243.28C980.729 243.28 983.548 248.74 985.198 251.58H980.729L985.198 255.4C985.198 255.4 978.879 259.02 974.059 254.41" stroke="black" stroke-width="2.0833" stroke-miterlimit="10" stroke-linecap="round" stroke-linejoin="round"/>
<path d="M972.42 243.28V244.98" stroke="black" stroke-width="2.0833" stroke-miterlimit="10" stroke-linecap="round" stroke-linejoin="round"/>
<path d="M991.719 243.28V244.98" stroke="black" stroke-width="2.0833" stroke-miterlimit="10" stroke-linecap="round" stroke-linejoin="round"/>
<path fill-rule="evenodd" clip-rule="evenodd" d="M1075.05 380.77C1086.52 380.77 1095.83 390.08 1095.83 401.55C1095.83 413.02 1086.52 422.33 1075.05 422.33C1063.58 422.33 1054.27 413.02 1054.27 401.55C1054.27 390.08 1063.59 380.77 1075.05 380.77Z" fill="white"/>
<path fill-rule="evenodd" clip-rule="evenodd" d="M1117.07 434C1124.27 434 1130.11 439.84 1130.11 447.04C1130.11 454.24 1124.27 460.08 1117.07 460.08C1109.87 460.08 1104.03 454.24 1104.03 447.04C1104.03 439.84 1109.88 434 1117.07 434Z" fill="white"/>
<ellipse cx="287" cy="291" rx="1" ry="2" fill="black"/>
<ellipse cx="299" cy="291" rx="1" ry="2" fill="black"/>
<ellipse cx="1596.61" cy="280.798" rx="1" ry="1.5" transform="rotate(29.5172 1596.61 280.798)" fill="black"/>
<ellipse cx="1586.86" cy="276.938" rx="0.715453" ry="1.5" transform="rotate(29.5172 1586.86 276.938)" fill="black"/>
</g>
<defs>
<clipPath id="clip0_450:19788">
<rect width="1870" height="745" fill="white"/>
</clipPath>
</defs>
</svg>
