<svg width="839" height="946" viewBox="0 0 839 946" fill="none" xmlns="http://www.w3.org/2000/svg">
<path fill-rule="evenodd" clip-rule="evenodd" d="M142.607 332.659L258.248 495.94C258.872 496.812 259.244 497.841 259.321 498.912C259.399 499.983 259.18 501.054 258.688 502.009C258.196 502.963 257.451 503.762 256.534 504.319C255.618 504.876 254.565 505.168 253.493 505.163H31.7365C30.6679 505.16 29.6208 504.862 28.7095 504.303C27.7982 503.744 27.0576 502.945 26.5686 501.994C26.0796 501.042 25.8609 499.974 25.9365 498.907C26.012 497.839 26.3788 496.813 26.9969 495.94L142.607 332.659Z" fill="#B9E2FE"/>
<path fill-rule="evenodd" clip-rule="evenodd" d="M171.676 203.36C171.676 201.767 171.044 200.238 169.919 199.111C168.794 197.984 167.268 197.351 165.677 197.351H119.496C117.904 197.351 116.378 197.984 115.253 199.111C114.128 200.238 113.496 201.767 113.496 203.36C113.496 204.954 114.128 206.482 115.253 207.609C116.378 208.736 117.904 209.369 119.496 209.369H165.737C167.328 209.369 168.854 208.736 169.979 207.609C171.104 206.482 171.736 204.954 171.736 203.36H171.676Z" fill="#B9E2FE"/>
<path d="M163.006 203.36H122.225V369.134H163.006V203.36Z" fill="#B9E2FE"/>
<path fill-rule="evenodd" clip-rule="evenodd" d="M616.088 270.947H555.328L475.865 191.372V383.751H432.219V86.7852L616.088 270.947Z" fill="#60D399"/>
<path d="M309.829 88.3625H279.576V443.18H309.829V88.3625Z" fill="#FBBE2E"/>
<path d="M340.083 88.3625H309.83V392.224H340.083V88.3625Z" fill="#FFF3D6"/>
<path d="M279.561 88.3625H249.309V392.224H279.561V88.3625Z" fill="#FFF3D6"/>
<path fill-rule="evenodd" clip-rule="evenodd" d="M294.695 0L340.081 88.3626H249.309L294.695 0Z" fill="#FEDD8E"/>
<path fill-rule="evenodd" clip-rule="evenodd" d="M294.695 0L304.384 18.8683H285.006L294.695 0Z" fill="black"/>
<path d="M782.848 372.68C800.514 294.545 751.595 216.86 673.584 199.166C595.573 181.472 518.012 230.468 500.345 308.603C482.679 386.737 531.598 464.422 609.609 482.117C687.62 499.811 765.181 450.815 782.848 372.68Z" fill="#B9E2FE"/>
<mask id="mask0_450:22447" style="mask-type:alpha" maskUnits="userSpaceOnUse" x="496" y="195" width="291" height="291">
<path d="M782.848 372.68C800.514 294.545 751.595 216.86 673.584 199.166C595.573 181.472 518.012 230.468 500.345 308.603C482.679 386.737 531.598 464.422 609.609 482.117C687.62 499.811 765.181 450.815 782.848 372.68Z" fill="#B9E2FE"/>
</mask>
<g mask="url(#mask0_450:22447)">
<path fill-rule="evenodd" clip-rule="evenodd" d="M755.487 251.057C755.487 251.057 728.28 236.635 705.001 236.936C681.723 237.236 697.502 252.679 705.916 252.379C714.331 252.079 738.914 259.034 733.109 268.723C727.305 278.413 688.113 269.339 666.62 267.822C645.126 266.305 620.948 286.585 641.647 308.083C662.345 329.58 691.398 313.836 708.331 308.383C725.265 302.93 741.328 307.482 734.624 322.925C727.92 338.368 679.609 337.151 650.001 333.441C620.394 329.73 621.578 358.874 635.182 380.972C648.786 403.07 683.643 424.853 692.103 449.685C695.762 460.411 729.809 472.76 749.218 447.807C758.877 435.369 752.967 390.166 761.637 377.667C775.811 357.221 786.475 340.606 786.475 340.606C786.475 340.606 793.884 273.035 755.487 251.057Z" fill="#4FB3F6"/>
<path fill-rule="evenodd" clip-rule="evenodd" d="M523.247 257.171C523.247 257.171 559.933 297.191 554.744 326.185C549.554 355.178 529.246 374.542 504.003 385.929C469.911 355.929 496.159 264.833 523.247 257.171Z" fill="#4FB3F6"/>
<path fill-rule="evenodd" clip-rule="evenodd" d="M507.827 396.205C507.827 396.205 548.324 395.093 555.268 409.139C562.213 423.185 568.212 454.583 575.142 469.56C582.071 484.537 499.248 435.744 507.827 396.205Z" fill="#163BF3"/>
</g>
<path d="M496.818 340.681H786.474" stroke="black" stroke-width="0.76" stroke-linecap="round" stroke-linejoin="round"/>
<path d="M641.646 195.624C663.544 195.624 681.318 260.626 681.318 340.681C681.318 420.736 663.544 485.739 641.646 485.739C619.748 485.739 601.975 420.736 601.975 340.681C601.975 260.626 619.748 195.624 641.646 195.624Z" stroke="black" stroke-width="0.76" stroke-linecap="round" stroke-linejoin="round"/>
<path d="M641.647 485.739C701.057 485.739 749.218 420.794 749.218 340.681C749.218 260.568 701.057 195.624 641.647 195.624C582.237 195.624 534.076 260.568 534.076 340.681C534.076 420.794 582.237 485.739 641.647 485.739Z" stroke="black" stroke-width="0.76" stroke-linecap="round" stroke-linejoin="round"/>
<path d="M746.023 450.556H17.4434V946H746.023V450.556Z" fill="#163BF3"/>
<path d="M763.466 436.24H0V450.556H763.466V436.24Z" fill="#163BF3"/>
<path d="M746.023 450.556H17.4434V464.873H746.023V450.556Z" fill="black"/>
<path d="M839.001 436.24H763.467V450.556H839.001V436.24Z" fill="#4FB3F6"/>
<path d="M821.557 450.556H746.023V946H821.557V450.556Z" fill="#4FB3F6"/>
<path d="M821.557 450.556H746.023V464.873H821.557V450.556Z" fill="#163BF3"/>
<path d="M168.587 526.255H77.8594V562.609H168.587V526.255Z" stroke="#4FB3F6" stroke-width="2.11" stroke-linecap="round" stroke-linejoin="round"/>
<path d="M669.38 827.217H578.652V863.571H669.38V827.217Z" stroke="#4FB3F6" stroke-width="2.11" stroke-linecap="round" stroke-linejoin="round"/>
<path d="M77.8593 526.27H43.6172" stroke="#4FB3F6" stroke-width="2.11" stroke-linecap="round" stroke-linejoin="round"/>
<path d="M578.652 827.217H544.41" stroke="#4FB3F6" stroke-width="2.11" stroke-linecap="round" stroke-linejoin="round"/>
<path d="M202.828 562.609H168.586" stroke="#4FB3F6" stroke-width="2.11" stroke-linecap="round" stroke-linejoin="round"/>
<path d="M703.621 863.571H669.379" stroke="#4FB3F6" stroke-width="2.11" stroke-linecap="round" stroke-linejoin="round"/>
<path d="M123.23 489.916V526.27" stroke="#4FB3F6" stroke-width="2.11" stroke-linecap="round" stroke-linejoin="round"/>
<path d="M624.023 790.877V827.217" stroke="#4FB3F6" stroke-width="2.11" stroke-linecap="round" stroke-linejoin="round"/>
<path d="M123.23 562.609V598.964" stroke="#4FB3F6" stroke-width="2.11" stroke-linecap="round" stroke-linejoin="round"/>
<path d="M624.023 863.571V899.911" stroke="#4FB3F6" stroke-width="2.11" stroke-linecap="round" stroke-linejoin="round"/>
<path d="M631.087 331.277H566.877V436.24H631.087V331.277Z" fill="white"/>
<path fill-rule="evenodd" clip-rule="evenodd" d="M598.991 246.265L639.578 331.277H558.404L598.991 246.265Z" fill="#FF341A"/>
<path d="M566.877 383.751H392.172V436.24H566.877V383.751Z" fill="#FFC7BF"/>
<path fill-rule="evenodd" clip-rule="evenodd" d="M566.952 436.24H532.71C519.354 420.995 509.339 403.114 503.312 383.751H566.952V436.24Z" fill="white"/>
<path d="M392.173 178.874H327.963V436.24H392.173V178.874Z" fill="#FFC7BF"/>
<path d="M264.803 316.795H200.594V436.24H264.803V316.795Z" fill="#FFC7BF"/>
<path fill-rule="evenodd" clip-rule="evenodd" d="M360.074 93.8608L400.661 178.873H319.473L360.074 93.8608Z" fill="#FF341A"/>
<path fill-rule="evenodd" clip-rule="evenodd" d="M232.69 231.783L273.292 316.796H192.104L232.69 231.783Z" fill="#FF341A"/>
<path d="M327.977 351.287H264.803V436.24H327.977V351.287Z" fill="#FFC7BF"/>
<path d="M566.892 383.751H556.168V436.24H566.892V383.751Z" fill="#FFC7BF"/>
<path d="M279.576 351.287H264.803V436.24H279.576V351.287Z" fill="#FF341A"/>
<path d="M406.946 383.751H392.172V436.24H406.946V383.751Z" fill="#FF341A"/>
<path fill-rule="evenodd" clip-rule="evenodd" d="M605.799 355.539C605.799 354.248 605.287 353.01 604.376 352.097C603.465 351.184 602.228 350.671 600.94 350.671C599.651 350.671 598.415 351.184 597.503 352.097C596.592 353.01 596.08 354.248 596.08 355.539V373.235H605.799V355.539Z" fill="#FFC7BF"/>
<path fill-rule="evenodd" clip-rule="evenodd" d="M366.885 203.135C366.885 201.844 366.373 200.606 365.462 199.693C364.55 198.78 363.314 198.268 362.026 198.268C360.737 198.268 359.501 198.78 358.589 199.693C357.678 200.606 357.166 201.844 357.166 203.135V220.831H366.885V203.135Z" fill="#FF341A"/>
<path fill-rule="evenodd" clip-rule="evenodd" d="M239.5 341.012C239.5 339.721 238.988 338.483 238.077 337.57C237.166 336.657 235.93 336.145 234.641 336.145C233.352 336.145 232.116 336.657 231.205 337.57C230.293 338.483 229.781 339.721 229.781 341.012V358.708H239.5V341.012Z" fill="#FF341A"/>
<path d="M631.087 331.277H566.877V336.655H631.087V331.277Z" fill="#FFC7BF"/>
<path d="M392.173 178.874H327.963V184.252H392.173V178.874Z" fill="black"/>
<path d="M264.803 316.795H200.594V322.174H264.803V316.795Z" fill="black"/>
<path d="M392.173 351.287H327.963V436.24H392.173V351.287Z" fill="#FFE8E5"/>
<path d="M163.006 209.324H122.225V215.544H163.006V209.324Z" fill="black"/>
<path fill-rule="evenodd" clip-rule="evenodd" d="M344.146 535.224C355.069 527.27 368.227 522.986 381.732 522.986C395.238 522.986 408.396 527.27 419.319 535.224C427.367 541.082 437.059 544.237 447.007 544.237C460.513 544.239 473.672 548.523 484.598 556.476C495.524 564.429 503.655 575.642 507.827 588.509C510.916 597.976 516.91 606.225 524.956 612.079C535.883 620.028 544.017 631.239 548.19 644.104C552.364 656.969 552.363 670.827 548.189 683.691C545.114 693.167 545.114 703.375 548.189 712.85C552.366 725.714 552.368 739.573 548.194 752.439C544.02 765.304 535.885 776.515 524.956 784.463C516.909 790.326 510.919 798.586 507.842 808.063C503.667 820.938 495.526 832.156 484.588 840.107C473.65 848.059 460.477 852.334 446.962 852.32C437.014 852.321 427.322 855.476 419.274 861.333C408.351 869.286 395.193 873.57 381.688 873.57C368.182 873.57 355.024 869.286 344.101 861.333C336.053 855.476 326.361 852.321 316.413 852.32C302.906 852.322 289.745 848.041 278.816 840.091C267.888 832.141 259.753 820.929 255.578 808.063C252.51 798.585 246.525 790.323 238.479 784.463C227.555 776.511 219.424 765.3 215.253 752.435C211.082 739.57 211.085 725.713 215.261 712.85C218.336 703.375 218.336 693.167 215.261 683.691C211.087 670.828 211.086 656.972 215.256 644.108C219.427 631.244 227.556 620.032 238.479 612.079C246.526 606.223 252.516 597.967 255.593 588.494C259.77 575.619 267.911 564.4 278.848 556.446C289.785 548.493 302.957 544.213 316.473 544.222C326.421 544.222 336.114 541.067 344.161 535.209L344.146 535.224Z" fill="#B9E2FE"/>
<path d="M303.29 550.516C311.783 540 323.383 532.446 336.426 528.937C349.47 525.429 363.287 526.147 375.899 530.987V530.987C385.192 534.548 395.371 535.073 404.981 532.489V532.489C418.031 528.996 431.85 529.731 444.457 534.588C457.065 539.446 467.813 548.177 475.16 559.53C480.583 567.883 488.506 574.303 497.793 577.873V577.873C510.393 582.715 521.14 591.427 528.495 602.761C535.85 614.094 539.436 627.468 538.74 640.967V640.967C538.208 650.914 540.833 660.774 546.239 669.135V669.135C553.595 680.48 557.176 693.866 556.47 707.375C555.764 720.884 550.807 733.823 542.31 744.337V744.337C536.03 752.074 532.355 761.602 531.811 771.558C531.123 785.079 526.173 798.033 517.673 808.56C509.174 819.087 497.561 826.644 484.505 830.146C474.896 832.725 466.349 838.284 460.087 846.025C451.592 856.545 439.989 864.101 426.943 867.609C413.896 871.118 400.076 870.398 387.463 865.554V865.554C378.176 861.987 367.999 861.461 358.395 864.052V864.052C345.343 867.547 331.521 866.812 318.911 861.955C306.302 857.097 295.551 848.365 288.201 837.012V837.012C282.796 828.698 274.913 822.301 265.673 818.729V818.729C253.071 813.888 242.323 805.177 234.968 793.843C227.612 782.509 224.027 769.134 224.726 755.634V755.634C225.267 745.687 222.641 735.824 217.227 727.467V727.467C209.871 716.121 206.292 702.733 207 689.224C207.709 675.714 212.67 662.776 221.171 652.264C227.436 644.488 231.071 634.919 231.551 624.938V624.938C232.249 611.418 237.204 598.467 245.705 587.942C254.206 577.416 265.817 569.858 278.872 566.35V566.35C288.484 563.779 297.033 558.219 303.29 550.471V550.516Z" stroke="white" stroke-width="2.11" stroke-linecap="round" stroke-linejoin="round"/>
<path fill-rule="evenodd" clip-rule="evenodd" d="M332.432 664.853C332.432 664.853 306.934 723.441 296.255 745.629C285.575 767.818 318.678 783.681 334.036 763.131C348.96 743.151 361.949 720.932 361.949 720.932C361.949 720.932 378.928 803.556 383.832 827.082C388.992 851.734 392.412 865.539 395.831 879.045C398.981 891.558 423.444 896.501 423.984 876.461C424.524 856.421 412.675 727.512 412.285 711.603C412.089 701.758 413.342 691.938 416.005 682.459L332.432 664.853Z" fill="white"/>
<path d="M339.062 713.962L385.634 723.02" stroke="#163BF3" stroke-width="2.11" stroke-linecap="round" stroke-linejoin="round"/>
<path fill-rule="evenodd" clip-rule="evenodd" d="M301.971 768.403C309.755 776.891 321.934 782.239 325.969 785.244C337.038 793.401 349.562 775.239 342.947 767.382C336.333 759.525 317.329 741.333 317.329 741.333C317.329 741.333 292.326 757.888 301.971 768.403Z" fill="white"/>
<path d="M335.822 759.615L327.062 750.917" stroke="#163BF3" stroke-width="2.11" stroke-linecap="round" stroke-linejoin="round"/>
<path fill-rule="evenodd" clip-rule="evenodd" d="M339.346 760.772C331.142 756.851 327.047 766.225 321.738 776.981C316.428 787.738 305.764 811.834 316.848 817.062C327.932 822.289 338.296 793.446 341.206 787.452C344.116 781.458 348.96 765.369 339.346 760.772Z" fill="black"/>
<path fill-rule="evenodd" clip-rule="evenodd" d="M403.706 861.348C394.707 862.054 395.787 872.224 396.552 884.212C397.316 896.2 400.121 922.385 412.33 921.378C424.539 920.372 419.11 890.176 418.63 883.521C418.15 876.866 414.34 860.522 403.706 861.348Z" fill="black"/>
<path fill-rule="evenodd" clip-rule="evenodd" d="M331.472 664.718C336.812 651.829 353.655 626.485 384.253 631.849C415.3 637.302 420.25 662.84 416.02 682.46C390.087 699.916 326.088 677.607 331.472 664.718Z" fill="white"/>
<path d="M328.473 673.791C332.027 666.851 356.805 652.279 376.079 656.786C395.352 661.293 415.36 682.024 412.991 700.051" stroke="#B9E2FE" stroke-width="2.11" stroke-linecap="round" stroke-linejoin="round"/>
<path fill-rule="evenodd" clip-rule="evenodd" d="M470.616 640.396C465.856 640.396 461.289 642.285 457.916 645.65C454.543 649.014 452.637 653.58 452.618 658.348C452.586 653.588 450.676 649.034 447.304 645.679C443.932 642.324 439.372 640.441 434.619 640.441C439.393 640.441 443.971 638.542 447.346 635.161C450.721 631.781 452.618 627.195 452.618 622.414C452.63 627.188 454.531 631.761 457.905 635.132C461.279 638.503 465.85 640.396 470.616 640.396Z" fill="white"/>
<path fill-rule="evenodd" clip-rule="evenodd" d="M274.131 673.296C272.52 673.296 270.975 673.937 269.836 675.078C268.697 676.219 268.057 677.766 268.057 679.38C268.033 677.78 267.383 676.254 266.247 675.13C265.111 674.006 263.579 673.374 261.982 673.371C263.593 673.371 265.139 672.73 266.278 671.589C267.417 670.448 268.057 668.9 268.057 667.287C268.077 668.887 268.725 670.415 269.862 671.54C270.999 672.665 272.533 673.296 274.131 673.296Z" fill="white"/>
<path fill-rule="evenodd" clip-rule="evenodd" d="M364.005 587.968C361.017 587.968 358.152 589.156 356.04 591.272C353.927 593.388 352.741 596.257 352.741 599.25C352.729 596.265 351.537 593.407 349.426 591.301C347.314 589.195 344.456 588.013 341.477 588.013C344.465 588.009 347.33 586.817 349.442 584.699C351.554 582.58 352.741 579.709 352.741 576.716C352.753 579.702 353.944 582.561 356.055 584.67C358.165 586.778 361.024 587.964 364.005 587.968Z" fill="white"/>
<path fill-rule="evenodd" clip-rule="evenodd" d="M482.87 731.388C479.884 731.392 477.021 732.582 474.909 734.697C472.798 736.812 471.61 739.679 471.606 742.67C471.598 739.683 470.408 736.821 468.296 734.712C466.185 732.602 463.324 731.418 460.342 731.418C463.329 731.418 466.194 730.229 468.307 728.114C470.419 725.998 471.606 723.128 471.606 720.136C471.614 723.123 472.804 725.985 474.916 728.094C477.027 730.203 479.888 731.388 482.87 731.388Z" fill="white"/>
</svg>
