<svg width="2342" height="678" viewBox="0 0 2342 678" fill="none" xmlns="http://www.w3.org/2000/svg">
<g clip-path="url(#clip0_450:22625)">
<path d="M-44.3398 677.85H2469.38" stroke="#FFC7BF" stroke-width="2.0833" stroke-miterlimit="10" stroke-linecap="round" stroke-linejoin="round"/>
<path fill-rule="evenodd" clip-rule="evenodd" d="M1658.13 332.12H1909.33C1909.33 332.12 1903.41 299.98 1879.73 299.98C1856.05 299.98 1838.29 304.21 1819.68 304.21C1801.08 304.21 1805.31 277.14 1757.94 277.14C1710.57 277.15 1658.13 332.12 1658.13 332.12Z" fill="white"/>
<path fill-rule="evenodd" clip-rule="evenodd" d="M1385.73 119.61H1578.74C1578.74 119.61 1558.33 97.3001 1535.1 97.3001C1511.88 97.3001 1492.87 100.68 1478.93 100.68C1464.99 100.68 1454.01 82.1001 1428.25 82.1001C1402.5 82.1001 1372.35 103.06 1385.73 119.61Z" fill="white"/>
<path fill-rule="evenodd" clip-rule="evenodd" d="M401.091 278.9H594.101C594.101 278.9 573.681 256.59 550.461 256.59C527.231 256.59 508.231 259.97 494.291 259.97C480.351 259.97 469.371 241.39 443.611 241.39C417.851 241.39 387.711 262.36 401.091 278.9Z" fill="white"/>
<path fill-rule="evenodd" clip-rule="evenodd" d="M2338.67 403.61H2145.66C2145.66 403.61 2166.08 381.3 2189.31 381.3C2212.54 381.3 2231.54 384.68 2245.48 384.68C2259.42 384.68 2270.4 366.1 2296.16 366.1C2321.9 366.09 2352.05 387.06 2338.67 403.61Z" fill="white"/>
<path fill-rule="evenodd" clip-rule="evenodd" d="M921.72 124.67H995.67C995.67 124.67 979.86 107.12 970.36 107.52C960.86 107.92 957.29 100.39 942.25 100.39C927.2 100.4 921.72 124.67 921.72 124.67Z" fill="white"/>
<path fill-rule="evenodd" clip-rule="evenodd" d="M0.469727 455.22H251.66C251.66 455.22 245.74 423.08 222.06 423.08C198.38 423.08 180.62 427.31 162.01 427.31C143.4 427.31 147.63 400.25 100.27 400.25C52.9097 400.25 0.469727 455.22 0.469727 455.22Z" fill="white"/>
<path fill-rule="evenodd" clip-rule="evenodd" d="M1911.87 119.08C1939.77 119.08 1962.42 141.73 1962.42 169.63C1962.42 197.53 1939.77 220.18 1911.87 220.18C1883.97 220.18 1861.32 197.53 1861.32 169.63C1861.32 141.73 1883.97 119.08 1911.87 119.08Z" fill="white"/>
<path fill-rule="evenodd" clip-rule="evenodd" d="M1974.3 464.54C1993.06 464.54 2007.77 484.14 2018.12 509.43C2028.47 534.72 2068.93 533.1 2068.93 563.94C2034.23 598.64 1945.02 609.36 1945.02 609.36C1945.02 609.36 1955.54 464.54 1974.3 464.54Z" fill="#60D399"/>
<path fill-rule="evenodd" clip-rule="evenodd" d="M1637.76 384.85C1696.49 384.85 1744.18 432.54 1744.18 491.27C1744.18 550 1696.49 597.69 1637.76 597.69C1579.02 597.69 1531.34 550 1531.34 491.27C1531.34 432.54 1579.02 384.85 1637.76 384.85Z" fill="#FFE8E5"/>
<path d="M1843.43 497.51H1666.4V677.85H1843.43V497.51Z" fill="#FFC7BF"/>
<path d="M1843.44 497.51H1754.92V557.62H1843.44V497.51Z" fill="#FF341A"/>
<path d="M1754.92 497.51H1666.4V557.62H1754.92V497.51Z" fill="#FFC7BF"/>
<path d="M1843.44 617.73H1754.92V677.84H1843.44V617.73Z" fill="#FF341A"/>
<path d="M1754.92 617.73H1666.4V677.84H1754.92V617.73Z" fill="#FFC7BF"/>
<path d="M1843.44 557.62H1754.92V617.73H1843.44V557.62Z" fill="#FFC7BF"/>
<path d="M1754.92 557.62H1666.4V617.73H1754.92V557.62Z" fill="#FFE8E5"/>
<path d="M911.28 194.17H725.88V677.85H911.28V194.17Z" fill="#FFE8E5"/>
<path d="M1505.85 312.83H1469.24V410.16H1505.85V312.83Z" fill="#FF341A"/>
<path d="M1418.27 641.44C1427.99 641.44 1435.87 548.243 1435.87 433.28C1435.87 318.316 1427.99 225.12 1418.27 225.12C1408.55 225.12 1400.67 318.316 1400.67 433.28C1400.67 548.243 1408.55 641.44 1418.27 641.44Z" fill="#FFC7BF"/>
<path fill-rule="evenodd" clip-rule="evenodd" d="M1556.24 225.12C1546.53 225.12 1538.64 318.39 1538.64 433.28C1538.64 548.16 1546.53 641.44 1556.24 641.44C1565.96 641.44 1573.84 548.17 1573.84 433.28C1573.84 318.39 1565.95 225.12 1556.24 225.12Z" fill="#FFC7BF"/>
<path fill-rule="evenodd" clip-rule="evenodd" d="M1453.5 198.05C1463.22 198.05 1471.1 291.32 1471.1 406.21C1471.1 521.09 1463.21 614.37 1453.5 614.37C1443.79 614.37 1435.9 521.1 1435.9 406.21C1435.9 291.32 1443.79 198.05 1453.5 198.05Z" fill="#FFC7BF"/>
<path fill-rule="evenodd" clip-rule="evenodd" d="M1521 198.05C1511.29 198.05 1503.4 291.32 1503.4 406.21C1503.4 521.09 1511.29 614.37 1521 614.37C1530.72 614.37 1538.6 521.1 1538.6 406.21C1538.61 291.32 1530.72 198.05 1521 198.05Z" fill="#FFC7BF"/>
<path fill-rule="evenodd" clip-rule="evenodd" d="M1418.27 210.06C1424.38 210.06 1429.35 215.02 1429.35 221.14C1429.35 227.25 1424.39 232.21 1418.27 232.21C1412.16 232.21 1407.2 227.25 1407.2 221.14C1407.2 215.02 1412.16 210.06 1418.27 210.06Z" fill="#FF341A"/>
<path fill-rule="evenodd" clip-rule="evenodd" d="M1556.24 210.06C1550.13 210.06 1545.17 215.02 1545.17 221.14C1545.17 227.25 1550.13 232.21 1556.24 232.21C1562.35 232.21 1567.32 227.25 1567.32 221.14C1567.31 215.02 1562.35 210.06 1556.24 210.06Z" fill="#FF341A"/>
<path fill-rule="evenodd" clip-rule="evenodd" d="M1453.5 182.98C1459.61 182.98 1464.57 187.94 1464.57 194.06C1464.57 200.17 1459.61 205.13 1453.5 205.13C1447.39 205.13 1442.43 200.17 1442.43 194.06C1442.43 187.95 1447.4 182.98 1453.5 182.98Z" fill="#FF341A"/>
<path fill-rule="evenodd" clip-rule="evenodd" d="M1521 182.98C1514.89 182.98 1509.93 187.94 1509.93 194.06C1509.93 200.17 1514.89 205.13 1521 205.13C1527.11 205.13 1532.07 200.17 1532.07 194.06C1532.08 187.95 1527.12 182.98 1521 182.98Z" fill="#FF341A"/>
<path fill-rule="evenodd" clip-rule="evenodd" d="M1503.4 389.55C1503.4 431.09 1502.82 427.58 1502.82 427.58H1471.1V389.55C1471.1 348.01 1487.25 335.67 1487.25 335.67C1487.25 335.67 1503.4 348.01 1503.4 389.55Z" fill="#FFE8E5"/>
<path fill-rule="evenodd" clip-rule="evenodd" d="M1487.35 395.71L1584.92 482.93V580.65L1487.35 606.52L1389.78 580.65V482.93L1487.35 395.71Z" fill="#FF341A"/>
<path fill-rule="evenodd" clip-rule="evenodd" d="M1487.35 461.99L1584.92 549.21V646.93L1487.35 672.8L1389.78 646.93V549.21L1487.35 461.99Z" fill="#FFE8E5"/>
<path fill-rule="evenodd" clip-rule="evenodd" d="M1438.22 563.74V542.56C1438.22 534.95 1432.04 524.57 1420.62 538.06C1409.2 551.55 1369.41 624.91 1360.41 677.85H1408.85L1438.22 563.74Z" fill="#FFC7BF"/>
<path fill-rule="evenodd" clip-rule="evenodd" d="M1537.34 563.74V542.56C1537.34 534.95 1543.52 524.57 1554.94 538.06C1566.36 551.55 1606.15 624.91 1615.14 677.85H1566.7L1537.34 563.74Z" fill="#FFC7BF"/>
<path fill-rule="evenodd" clip-rule="evenodd" d="M1399.31 573.5C1399.31 573.5 1406.08 552.24 1395.01 548.78C1383.94 545.32 1368.02 573.35 1353.48 610.02C1338.95 646.7 1330.99 677.84 1330.99 677.84H1360.4L1399.31 573.5Z" fill="#FFE8E5"/>
<path fill-rule="evenodd" clip-rule="evenodd" d="M1576.25 573.5C1576.25 573.5 1569.48 552.24 1580.55 548.78C1591.62 545.32 1607.54 573.35 1622.07 610.02C1636.6 646.7 1644.56 677.84 1644.56 677.84H1615.15L1576.25 573.5Z" fill="#FFE8E5"/>
<path fill-rule="evenodd" clip-rule="evenodd" d="M1408.85 677.85C1408.85 677.85 1426.5 594.46 1439 561.65C1451.5 528.84 1477.02 487.89 1487.78 487.89H1487.91C1498.74 488.21 1524.12 528.97 1536.56 561.65C1549.06 594.46 1566.71 677.85 1566.71 677.85H1408.85Z" fill="#FF341A"/>
<path fill-rule="evenodd" clip-rule="evenodd" d="M1487.25 367.45C1490.56 367.45 1493.24 370.13 1493.24 373.44C1493.24 376.75 1490.56 379.43 1487.25 379.43C1483.95 379.43 1481.26 376.75 1481.26 373.44C1481.26 370.13 1483.95 367.45 1487.25 367.45Z" fill="white"/>
<path d="M1436.16 370.8L1470.85 353.23" stroke="#FFE8E5" stroke-width="2.0833" stroke-miterlimit="10" stroke-linecap="round" stroke-linejoin="round"/>
<path d="M1538.61 370.8L1503.91 353.23" stroke="#FFE8E5" stroke-width="2.0833" stroke-miterlimit="10" stroke-linecap="round" stroke-linejoin="round"/>
<path d="M1574.05 405L1539.36 387.43" stroke="#FFE8E5" stroke-width="2.0833" stroke-miterlimit="10" stroke-linecap="round" stroke-linejoin="round"/>
<path d="M1400.67 405L1435.37 387.43" stroke="#FFE8E5" stroke-width="2.0833" stroke-miterlimit="10" stroke-linecap="round" stroke-linejoin="round"/>
<path d="M1436.16 379.11L1470.85 361.53" stroke="#FFE8E5" stroke-width="2.0833" stroke-miterlimit="10" stroke-linecap="round" stroke-linejoin="round"/>
<path d="M1538.61 379.11L1503.91 361.53" stroke="#FFE8E5" stroke-width="2.0833" stroke-miterlimit="10" stroke-linecap="round" stroke-linejoin="round"/>
<path d="M1574.05 413.31L1539.36 395.74" stroke="#FFE8E5" stroke-width="2.0833" stroke-miterlimit="10" stroke-linecap="round" stroke-linejoin="round"/>
<path d="M1400.67 413.31L1435.37 395.74" stroke="#FFE8E5" stroke-width="2.0833" stroke-miterlimit="10" stroke-linecap="round" stroke-linejoin="round"/>
<path fill-rule="evenodd" clip-rule="evenodd" d="M1411.21 418.83C1411.21 418.3 1411 417.8 1410.63 417.42C1410.26 417.05 1409.75 416.84 1409.23 416.84C1408.71 416.84 1408.2 417.05 1407.83 417.42C1407.46 417.79 1407.25 418.3 1407.25 418.83C1407.25 424.56 1407.25 441.05 1407.25 446.78C1407.25 447.31 1407.46 447.81 1407.83 448.19C1408.2 448.56 1408.71 448.77 1409.23 448.77C1409.76 448.77 1410.26 448.56 1410.63 448.19C1411.01 447.82 1411.21 447.31 1411.21 446.78V418.83Z" fill="#FFE8E5"/>
<path fill-rule="evenodd" clip-rule="evenodd" d="M1563.28 418.83C1563.28 418.3 1563.49 417.8 1563.86 417.42C1564.23 417.05 1564.74 416.84 1565.26 416.84C1565.79 416.84 1566.29 417.05 1566.66 417.42C1567.04 417.79 1567.24 418.3 1567.24 418.83C1567.24 424.56 1567.24 441.05 1567.24 446.78C1567.24 447.31 1567.03 447.81 1566.66 448.19C1566.29 448.56 1565.78 448.77 1565.26 448.77C1564.73 448.77 1564.23 448.56 1563.86 448.19C1563.49 447.82 1563.28 447.31 1563.28 446.78C1563.28 441.05 1563.28 424.56 1563.28 418.83Z" fill="#FFE8E5"/>
<path fill-rule="evenodd" clip-rule="evenodd" d="M1446.45 386.91C1446.45 386.38 1446.24 385.88 1445.87 385.5C1445.49 385.13 1444.99 384.92 1444.46 384.92C1443.93 384.92 1443.43 385.13 1443.05 385.5C1442.68 385.87 1442.47 386.38 1442.47 386.91C1442.47 392.64 1442.47 409.13 1442.47 414.86C1442.47 415.39 1442.68 415.89 1443.05 416.27C1443.43 416.64 1443.93 416.85 1444.46 416.85C1444.99 416.85 1445.49 416.64 1445.87 416.27C1446.24 415.9 1446.45 415.39 1446.45 414.86C1446.45 409.13 1446.45 392.64 1446.45 386.91Z" fill="#FFE8E5"/>
<path fill-rule="evenodd" clip-rule="evenodd" d="M1528.03 386.91C1528.03 386.38 1528.24 385.88 1528.61 385.5C1528.99 385.13 1529.49 384.92 1530.02 384.92C1530.55 384.92 1531.05 385.13 1531.43 385.5C1531.8 385.87 1532.01 386.38 1532.01 386.91C1532.01 392.64 1532.01 409.13 1532.01 414.86C1532.01 415.39 1531.8 415.89 1531.43 416.27C1531.05 416.64 1530.55 416.85 1530.02 416.85C1529.49 416.85 1528.99 416.64 1528.61 416.27C1528.24 415.9 1528.03 415.39 1528.03 414.86C1528.03 409.13 1528.03 392.64 1528.03 386.91Z" fill="#FFE8E5"/>
<path fill-rule="evenodd" clip-rule="evenodd" d="M1420.26 412.15C1420.26 411.62 1420.05 411.12 1419.68 410.74C1419.31 410.37 1418.8 410.16 1418.28 410.16C1417.76 410.16 1417.25 410.37 1416.88 410.74C1416.5 411.11 1416.3 411.62 1416.3 412.15C1416.3 417.88 1416.3 434.37 1416.3 440.1C1416.3 440.63 1416.51 441.13 1416.88 441.51C1417.25 441.88 1417.76 442.09 1418.28 442.09C1418.81 442.09 1419.31 441.88 1419.68 441.51C1420.05 441.14 1420.26 440.63 1420.26 440.1C1420.26 434.37 1420.26 417.87 1420.26 412.15Z" fill="#FFE8E5"/>
<path fill-rule="evenodd" clip-rule="evenodd" d="M1554.22 412.15C1554.22 411.62 1554.43 411.12 1554.8 410.74C1555.18 410.37 1555.68 410.16 1556.2 410.16C1556.73 410.16 1557.23 410.37 1557.6 410.74C1557.97 411.11 1558.18 411.62 1558.18 412.15C1558.18 417.88 1558.18 434.37 1558.18 440.1C1558.18 440.63 1557.97 441.13 1557.6 441.51C1557.23 441.88 1556.72 442.09 1556.2 442.09C1555.67 442.09 1555.17 441.88 1554.8 441.51C1554.43 441.14 1554.22 440.63 1554.22 440.1C1554.22 434.37 1554.22 417.87 1554.22 412.15Z" fill="#FFE8E5"/>
<path fill-rule="evenodd" clip-rule="evenodd" d="M1455.51 380.22C1455.51 379.69 1455.3 379.19 1454.93 378.81C1454.55 378.44 1454.05 378.23 1453.52 378.23C1452.99 378.23 1452.49 378.44 1452.11 378.81C1451.74 379.18 1451.53 379.69 1451.53 380.22C1451.53 385.95 1451.53 402.44 1451.53 408.17C1451.53 408.7 1451.74 409.2 1452.11 409.58C1452.48 409.95 1452.99 410.16 1453.52 410.16C1454.05 410.16 1454.55 409.95 1454.93 409.58C1455.3 409.21 1455.51 408.7 1455.51 408.17C1455.51 402.44 1455.51 385.95 1455.51 380.22Z" fill="#FFE8E5"/>
<path fill-rule="evenodd" clip-rule="evenodd" d="M1518.98 380.22C1518.98 379.69 1519.19 379.19 1519.56 378.81C1519.93 378.44 1520.44 378.23 1520.96 378.23C1521.49 378.23 1521.99 378.44 1522.37 378.81C1522.74 379.18 1522.95 379.69 1522.95 380.22C1522.95 385.95 1522.95 402.44 1522.95 408.17C1522.95 408.7 1522.74 409.2 1522.37 409.58C1521.99 409.95 1521.49 410.16 1520.96 410.16C1520.43 410.16 1519.93 409.95 1519.56 409.58C1519.18 409.21 1518.98 408.7 1518.98 408.17C1518.98 402.44 1518.98 385.95 1518.98 380.22Z" fill="#FFE8E5"/>
<path fill-rule="evenodd" clip-rule="evenodd" d="M1429.29 407.1C1429.29 406.57 1429.08 406.07 1428.71 405.69C1428.33 405.32 1427.83 405.11 1427.3 405.11C1426.77 405.11 1426.27 405.32 1425.89 405.69C1425.52 406.06 1425.31 406.57 1425.31 407.1C1425.31 412.83 1425.31 429.32 1425.31 435.05C1425.31 435.58 1425.52 436.08 1425.89 436.46C1426.27 436.83 1426.77 437.04 1427.3 437.04C1427.83 437.04 1428.33 436.83 1428.71 436.46C1429.08 436.09 1429.29 435.58 1429.29 435.05V407.1Z" fill="#FFE8E5"/>
<path fill-rule="evenodd" clip-rule="evenodd" d="M1545.2 407.1C1545.2 406.57 1545.41 406.07 1545.78 405.69C1546.16 405.32 1546.66 405.11 1547.19 405.11C1547.72 405.11 1548.22 405.32 1548.6 405.69C1548.97 406.06 1549.18 406.57 1549.18 407.1C1549.18 412.83 1549.18 429.32 1549.18 435.05C1549.18 435.58 1548.97 436.08 1548.6 436.46C1548.22 436.83 1547.72 437.04 1547.19 437.04C1546.66 437.04 1546.16 436.83 1545.78 436.46C1545.41 436.09 1545.2 435.58 1545.2 435.05C1545.2 429.32 1545.2 412.83 1545.2 407.1Z" fill="#FFE8E5"/>
<path fill-rule="evenodd" clip-rule="evenodd" d="M1464.53 375.18C1464.53 374.65 1464.32 374.15 1463.95 373.77C1463.58 373.4 1463.08 373.19 1462.55 373.19C1462.03 373.19 1461.52 373.4 1461.15 373.77C1460.78 374.14 1460.57 374.65 1460.57 375.18C1460.57 380.91 1460.57 397.4 1460.57 403.13C1460.57 403.66 1460.78 404.16 1461.15 404.54C1461.53 404.91 1462.03 405.12 1462.55 405.12C1463.08 405.12 1463.58 404.91 1463.95 404.54C1464.33 404.17 1464.53 403.66 1464.53 403.13C1464.53 397.4 1464.53 380.9 1464.53 375.18Z" fill="#FFE8E5"/>
<path fill-rule="evenodd" clip-rule="evenodd" d="M1509.95 375.18C1509.95 374.65 1510.16 374.15 1510.53 373.77C1510.9 373.4 1511.41 373.19 1511.93 373.19C1512.46 373.19 1512.96 373.4 1513.33 373.77C1513.71 374.14 1513.91 374.65 1513.91 375.18C1513.91 380.91 1513.91 397.4 1513.91 403.13C1513.91 403.66 1513.7 404.16 1513.33 404.54C1512.96 404.91 1512.45 405.12 1511.93 405.12C1511.4 405.12 1510.9 404.91 1510.53 404.54C1510.15 404.17 1509.95 403.66 1509.95 403.13C1509.95 397.4 1509.95 380.9 1509.95 375.18Z" fill="#FFE8E5"/>
<path fill-rule="evenodd" clip-rule="evenodd" d="M1513.93 596.84C1494.22 583.04 1476.73 584.73 1460.72 596.84V677.84H1513.93V596.84Z" fill="#FFE8E5"/>
<path d="M1398.07 528.78V488.08" stroke="#FFC7BF" stroke-width="2.0833" stroke-miterlimit="10" stroke-linecap="round" stroke-linejoin="round"/>
<path d="M1576.63 528.78V488.08" stroke="#FFC7BF" stroke-width="2.0833" stroke-miterlimit="10" stroke-linecap="round" stroke-linejoin="round"/>
<path d="M1407.25 520.15V479.44" stroke="#FFC7BF" stroke-width="2.0833" stroke-miterlimit="10" stroke-linecap="round" stroke-linejoin="round"/>
<path d="M1567.45 520.15V479.44" stroke="#FFC7BF" stroke-width="2.0833" stroke-miterlimit="10" stroke-linecap="round" stroke-linejoin="round"/>
<path d="M1415.75 512.48V471.77" stroke="#FFC7BF" stroke-width="2.0833" stroke-miterlimit="10" stroke-linecap="round" stroke-linejoin="round"/>
<path d="M1558.95 512.48V471.77" stroke="#FFC7BF" stroke-width="2.0833" stroke-miterlimit="10" stroke-linecap="round" stroke-linejoin="round"/>
<path d="M1424.11 505.21V464.51" stroke="#FFC7BF" stroke-width="2.0833" stroke-miterlimit="10" stroke-linecap="round" stroke-linejoin="round"/>
<path d="M1550.6 505.21V464.51" stroke="#FFC7BF" stroke-width="2.0833" stroke-miterlimit="10" stroke-linecap="round" stroke-linejoin="round"/>
<path d="M1431.78 498.77V458.06" stroke="#FFC7BF" stroke-width="2.0833" stroke-miterlimit="10" stroke-linecap="round" stroke-linejoin="round"/>
<path d="M1542.92 498.77V458.06" stroke="#FFC7BF" stroke-width="2.0833" stroke-miterlimit="10" stroke-linecap="round" stroke-linejoin="round"/>
<path d="M1440.14 490.96V450.25" stroke="#FFC7BF" stroke-width="2.0833" stroke-miterlimit="10" stroke-linecap="round" stroke-linejoin="round"/>
<path d="M1534.56 490.96V450.25" stroke="#FFC7BF" stroke-width="2.0833" stroke-miterlimit="10" stroke-linecap="round" stroke-linejoin="round"/>
<path d="M1449.32 482.88V442.17" stroke="#FFC7BF" stroke-width="2.0833" stroke-miterlimit="10" stroke-linecap="round" stroke-linejoin="round"/>
<path d="M1525.38 482.88V442.17" stroke="#FFC7BF" stroke-width="2.0833" stroke-miterlimit="10" stroke-linecap="round" stroke-linejoin="round"/>
<path d="M1457.82 475.48V434.77" stroke="#FFC7BF" stroke-width="2.0833" stroke-miterlimit="10" stroke-linecap="round" stroke-linejoin="round"/>
<path d="M1516.88 475.48V434.77" stroke="#FFC7BF" stroke-width="2.0833" stroke-miterlimit="10" stroke-linecap="round" stroke-linejoin="round"/>
<path d="M1467 467.67V426.96" stroke="#FFC7BF" stroke-width="2.0833" stroke-miterlimit="10" stroke-linecap="round" stroke-linejoin="round"/>
<path d="M1507.7 467.67V426.96" stroke="#FFC7BF" stroke-width="2.0833" stroke-miterlimit="10" stroke-linecap="round" stroke-linejoin="round"/>
<path d="M1487.35 448.13V407.42" stroke="#FFC7BF" stroke-width="2.0833" stroke-miterlimit="10" stroke-linecap="round" stroke-linejoin="round"/>
<path d="M1487.35 448.13V407.42" stroke="#FFC7BF" stroke-width="2.0833" stroke-miterlimit="10" stroke-linecap="round" stroke-linejoin="round"/>
<path d="M1477.04 458.06V417.36" stroke="#FFC7BF" stroke-width="2.0833" stroke-miterlimit="10" stroke-linecap="round" stroke-linejoin="round"/>
<path d="M1497.66 458.06V417.36" stroke="#FFC7BF" stroke-width="2.0833" stroke-miterlimit="10" stroke-linecap="round" stroke-linejoin="round"/>
<path fill-rule="evenodd" clip-rule="evenodd" d="M1153.79 580.13C1153.79 508.44 1125.32 439.69 1074.62 389C1023.93 338.31 955.18 309.83 883.49 309.83V677.84H1153.79V580.13Z" fill="#FFC7BF"/>
<path fill-rule="evenodd" clip-rule="evenodd" d="M1131.92 576.15C1131.92 448.95 1032.38 344 905.36 337.28V657.74H1131.92V576.15Z" fill="#FFE8E5"/>
<path d="M933.681 338.78V657.74" stroke="#FFC7BF" stroke-width="2.0833" stroke-miterlimit="10" stroke-linecap="round" stroke-linejoin="round"/>
<path d="M1112.84 459.5H905.36" stroke="#FFC7BF" stroke-width="2.0833" stroke-miterlimit="10" stroke-linecap="round" stroke-linejoin="round"/>
<path d="M1046.96 380.23V657.74" stroke="#FFC7BF" stroke-width="2.0833" stroke-miterlimit="10" stroke-linecap="round" stroke-linejoin="round"/>
<path d="M1151.82 572.78H905.36" stroke="#FFC7BF" stroke-width="2.0833" stroke-miterlimit="10" stroke-linecap="round" stroke-linejoin="round"/>
<path d="M983.18 346.22H905.36" stroke="#FFC7BF" stroke-width="2.0833" stroke-miterlimit="10" stroke-linecap="round" stroke-linejoin="round"/>
<path d="M990.32 338.78V657.74" stroke="#FFC7BF" stroke-width="2.0833" stroke-miterlimit="10" stroke-linecap="round" stroke-linejoin="round"/>
<path d="M1133.69 516.14H905.36" stroke="#FFC7BF" stroke-width="2.0833" stroke-miterlimit="10" stroke-linecap="round" stroke-linejoin="round"/>
<path d="M1103.6 440.33V657.74" stroke="#FFC7BF" stroke-width="2.0833" stroke-miterlimit="10" stroke-linecap="round" stroke-linejoin="round"/>
<path d="M1151.82 629.42H905.36" stroke="#FFC7BF" stroke-width="2.0833" stroke-miterlimit="10" stroke-linecap="round" stroke-linejoin="round"/>
<path d="M1072.94 402.86H905.36" stroke="#FFC7BF" stroke-width="2.0833" stroke-miterlimit="10" stroke-linecap="round" stroke-linejoin="round"/>
<path d="M1131.92 497.32V657.74" stroke="#FFC7BF" stroke-width="2.0833" stroke-miterlimit="10" stroke-linecap="round" stroke-linejoin="round"/>
<path d="M1151.82 657.74H905.36" stroke="#FFC7BF" stroke-width="2.0833" stroke-miterlimit="10" stroke-linecap="round" stroke-linejoin="round"/>
<path d="M1091.98 431.18H905.36" stroke="#FFC7BF" stroke-width="2.0833" stroke-miterlimit="10" stroke-linecap="round" stroke-linejoin="round"/>
<path d="M905.36 338.78V657.74" stroke="#FFC7BF" stroke-width="2.0833" stroke-miterlimit="10" stroke-linecap="round" stroke-linejoin="round"/>
<path d="M1018.64 360.54V657.74" stroke="#FFC7BF" stroke-width="2.0833" stroke-miterlimit="10" stroke-linecap="round" stroke-linejoin="round"/>
<path d="M1141.46 544.46H905.36" stroke="#FFC7BF" stroke-width="2.0833" stroke-miterlimit="10" stroke-linecap="round" stroke-linejoin="round"/>
<path d="M962 338.78V657.74" stroke="#FFC7BF" stroke-width="2.0833" stroke-miterlimit="10" stroke-linecap="round" stroke-linejoin="round"/>
<path d="M1124.63 487.82H905.36" stroke="#FFC7BF" stroke-width="2.0833" stroke-miterlimit="10" stroke-linecap="round" stroke-linejoin="round"/>
<path d="M1075.28 400V657.74" stroke="#FFC7BF" stroke-width="2.0833" stroke-miterlimit="10" stroke-linecap="round" stroke-linejoin="round"/>
<path d="M1151.82 601.1H905.36" stroke="#FFC7BF" stroke-width="2.0833" stroke-miterlimit="10" stroke-linecap="round" stroke-linejoin="round"/>
<path d="M1040.3 374.54H905.36" stroke="#FFC7BF" stroke-width="2.0833" stroke-miterlimit="10" stroke-linecap="round" stroke-linejoin="round"/>
<path fill-rule="evenodd" clip-rule="evenodd" d="M854.38 585.56C868.77 589.37 924 591.84 939.88 541.08C955.75 490.33 906.87 473.19 888.46 448.43C870.05 423.67 860.53 394.33 815.45 396.62C770.37 398.91 733.55 480.81 764.02 527.15C794.49 573.5 839.98 581.75 854.38 585.56Z" fill="#60D399"/>
<path d="M836.061 444.1C836.061 444.1 825.341 521.16 860.271 563.19" stroke="#24A865" stroke-width="2.0833" stroke-miterlimit="10" stroke-linecap="round" stroke-linejoin="round"/>
<path d="M858.241 492.72C858.241 492.72 877.101 553.71 845.291 594.27C831.571 611.78 818.651 628.18 831.411 677.85" stroke="#24A865" stroke-width="2.0833" stroke-miterlimit="10" stroke-linecap="round" stroke-linejoin="round"/>
<path d="M797.93 455.77L835.68 496.12" stroke="#24A865" stroke-width="2.0833" stroke-miterlimit="10" stroke-linecap="round" stroke-linejoin="round"/>
<path d="M816.8 475.95H793.36" stroke="#24A865" stroke-width="2.0833" stroke-miterlimit="10" stroke-linecap="round" stroke-linejoin="round"/>
<path d="M691.54 531.52H614.04V677.85H691.54V531.52Z" fill="#FF341A"/>
<path d="M561.06 531.52H508.07V677.85H561.06V531.52Z" fill="#FF341A"/>
<path d="M797.52 531.52H744.53V677.85H797.52V531.52Z" fill="#FF341A"/>
<path d="M607.09 494.13H568V580.63H607.09V494.13Z" fill="#FF341A"/>
<path d="M737.58 494.13H698.49V580.63H737.58V494.13Z" fill="#FF341A"/>
<path d="M554.11 494.13H515.021V531.52H554.11V494.13Z" fill="#FFC7BF"/>
<path d="M790.561 494.13H751.471V531.52H790.561V494.13Z" fill="#FFC7BF"/>
<path fill-rule="evenodd" clip-rule="evenodd" d="M614.041 569.5L587.551 531.52L561.061 569.5V677.85H614.041V569.5Z" fill="#FFC7BF"/>
<path fill-rule="evenodd" clip-rule="evenodd" d="M671.531 601.21L652.791 574.34L634.051 601.21V677.85H671.531V601.21Z" fill="#FFC7BF"/>
<path d="M591.631 623.97H583.471V647.3H591.631V623.97Z" fill="#FF341A"/>
<path d="M538.641 623.97H530.48V647.3H538.641V623.97Z" fill="#FFC7BF"/>
<path d="M775.1 623.97H766.94V647.3H775.1V623.97Z" fill="#FFC7BF"/>
<path d="M538.641 582.6H530.48V605.93H538.641V582.6Z" fill="#FFC7BF"/>
<path d="M775.1 582.6H766.94V605.93H775.1V582.6Z" fill="#FFC7BF"/>
<path d="M591.631 582.6H583.471V605.93H591.631V582.6Z" fill="#FF341A"/>
<path fill-rule="evenodd" clip-rule="evenodd" d="M691.54 569.5L718.03 531.52L744.53 569.5V677.85H691.54V569.5Z" fill="#FFC7BF"/>
<path d="M691.54 456.73H614.04V531.52H691.54V456.73Z" fill="#FFC7BF"/>
<path fill-rule="evenodd" clip-rule="evenodd" d="M652.791 297.92L676.161 456.73H629.431L652.791 297.92Z" fill="#FF341A"/>
<path fill-rule="evenodd" clip-rule="evenodd" d="M534.56 414.8L554.11 494.13H515.021L534.56 414.8Z" fill="#FF341A"/>
<path fill-rule="evenodd" clip-rule="evenodd" d="M771.021 414.8L751.471 494.13H790.571L771.021 414.8Z" fill="#FF341A"/>
<path d="M722.11 623.97H713.95V647.3H722.11V623.97Z" fill="#FF341A"/>
<path d="M722.11 582.6H713.95V605.93H722.11V582.6Z" fill="#FF341A"/>
<path d="M637.86 474.11H629.7V514.13H637.86V474.11Z" fill="#FF341A"/>
<path d="M675.881 474.11H667.721V514.13H675.881V474.11Z" fill="#FF341A"/>
<path d="M656.87 474.11H648.71V514.13H656.87V474.11Z" fill="#FF341A"/>
<path fill-rule="evenodd" clip-rule="evenodd" d="M1321.2 482.08C1312.82 491.18 1273.56 507.85 1250.51 509.54C1266.85 481.74 1287.72 464.28 1287.72 464.28C1287.72 464.28 1248.69 472.45 1226.01 465.64C1238.26 448.4 1281.82 432.06 1281.82 432.06C1281.82 432.06 1244.16 428.43 1226.46 420.72C1251.42 408.01 1288.17 408.01 1288.17 408.01C1288.17 408.01 1273.88 387.59 1265.71 368.53C1280.01 372.61 1304.81 396.9 1304.81 396.9C1304.81 376.27 1321.3 351.28 1321.3 351.28L1321.35 351.36C1322.31 352.84 1337.79 376.91 1337.79 396.9C1337.79 396.9 1362.59 372.61 1376.89 368.53C1368.72 387.59 1354.43 408.01 1354.43 408.01C1354.43 408.01 1391.19 408.01 1416.15 420.72C1398.45 428.43 1360.79 432.06 1360.79 432.06C1360.79 432.06 1404.35 448.4 1416.61 465.64C1393.92 472.45 1354.89 464.28 1354.89 464.28C1354.89 464.28 1375.77 481.75 1392.1 509.54C1368.95 507.84 1329.48 491.05 1321.31 481.97L1321.2 482.08Z" fill="#60D399"/>
<path d="M1321.29 455.75H1312.84V677.85H1321.29V455.75Z" fill="#24A865"/>
<path fill-rule="evenodd" clip-rule="evenodd" d="M1645.49 558.8C1639.95 564.82 1613.99 575.84 1598.74 576.96C1609.54 558.58 1623.34 547.03 1623.34 547.03C1623.34 547.03 1597.54 552.43 1582.53 547.93C1590.63 536.53 1619.44 525.72 1619.44 525.72C1619.44 525.72 1594.54 523.32 1582.83 518.22C1599.33 509.82 1623.64 509.82 1623.64 509.82C1623.64 509.82 1614.19 496.32 1608.79 483.71C1618.24 486.41 1634.64 502.47 1634.64 502.47C1634.64 488.83 1645.55 472.3 1645.55 472.3L1645.58 472.35C1646.22 473.33 1656.46 489.25 1656.46 502.47C1656.46 502.47 1672.86 486.41 1682.31 483.71C1676.91 496.31 1667.46 509.82 1667.46 509.82C1667.46 509.82 1691.76 509.82 1708.27 518.22C1696.57 523.32 1671.66 525.72 1671.66 525.72C1671.66 525.72 1700.47 536.52 1708.57 547.93C1693.57 552.43 1667.76 547.03 1667.76 547.03C1667.76 547.03 1681.56 558.58 1692.36 576.96C1677.06 575.84 1650.95 564.73 1645.55 558.73L1645.49 558.8Z" fill="#60D399"/>
<path d="M1649.78 542.87H1641.33V677.84H1649.78V542.87Z" fill="#24A865"/>
<path d="M508.07 497.51H362.33V677.85H508.07V497.51Z" fill="#FFE8E5"/>
<path d="M404.07 497.51H362.33V677.85H404.07V497.51Z" fill="#FFC7BF"/>
<path d="M508.07 559H362.33V616.35H508.07V559Z" fill="#FFC7BF"/>
<path d="M404.07 559H362.33V616.35H404.07V559Z" fill="#FF341A"/>
<path d="M1219.5 540.88C1255.8 540.88 1285.22 437.435 1285.22 309.83C1285.22 182.225 1255.8 78.78 1219.5 78.78C1183.2 78.78 1153.78 182.225 1153.78 309.83C1153.78 437.435 1183.2 540.88 1219.5 540.88Z" fill="#FFC7BF"/>
<path d="M1285.22 309.83H1153.79V677.84H1285.22V309.83Z" fill="#FFC7BF"/>
<path fill-rule="evenodd" clip-rule="evenodd" d="M1153.79 677.85V559L1285.22 427.57V677.85H1153.79Z" fill="#FF341A"/>
<path d="M1285.14 276.89H1154.45V298.76H1285.14V276.89Z" fill="#FFE8E5"/>
<path d="M1223.69 348.35H1154.45V370.22H1223.69V348.35Z" fill="#FFE8E5"/>
<path d="M1285.14 400H1215.9V421.87H1285.14V400Z" fill="#FFE8E5"/>
<path d="M1250.27 471.97H1181.03V493.84H1250.27V471.97Z" fill="#FFE8E5"/>
<path d="M1284.89 595.54H1215.65V617.41H1284.89V595.54Z" fill="#FFC7BF"/>
<path d="M1206.25 642.79H1153.79V664.66H1206.25V642.79Z" fill="#FFC7BF"/>
<path fill-rule="evenodd" clip-rule="evenodd" d="M1219.5 493.84L1240.83 471.97H1250.27V493.84H1219.5Z" fill="#FFC7BF"/>
<path d="M1974.3 432.37H1843.43V677.84H1974.3V432.37Z" fill="#FFC7BF"/>
<path d="M1897.01 458.36H1864.1V491.27H1897.01V458.36Z" fill="#FFE8E5"/>
<path d="M1897.01 570.51H1864.1V603.42H1897.01V570.51Z" fill="#FFE8E5"/>
<path d="M1954.06 515.41H1921.15V548.32H1954.06V515.41Z" fill="#FFE8E5"/>
<path d="M1954.06 627.55H1921.15V660.46H1954.06V627.55Z" fill="#FFE8E5"/>
<path d="M2112.24 563.94H1974.3V677.85H2112.24V563.94Z" fill="#FFE8E5"/>
<path d="M2002.09 580.84H1987.07V595.86H2002.09V580.84Z" fill="#FFC7BF"/>
<path d="M2002.09 609.36H1987.07V624.38H2002.09V609.36Z" fill="#FFC7BF"/>
<path d="M2064.2 580.84H2049.18V595.86H2064.2V580.84Z" fill="#FFC7BF"/>
<path d="M2064.2 609.36H2049.18V624.38H2064.2V609.36Z" fill="#FFC7BF"/>
<path d="M2050.78 642.49H2035.76V677.84H2050.78V642.49Z" fill="#FFC7BF"/>
<path d="M2033.14 580.84H2018.12V595.86H2033.14V580.84Z" fill="#FFC7BF"/>
<path d="M2033.14 609.36H2018.12V624.38H2033.14V609.36Z" fill="#FFC7BF"/>
<path d="M2095.25 580.84H2080.23V595.86H2095.25V580.84Z" fill="#FFC7BF"/>
<path d="M2095.25 609.36H2080.23V624.38H2095.25V609.36Z" fill="#FFC7BF"/>
<path fill-rule="evenodd" clip-rule="evenodd" d="M1029.13 195.64C1043.16 195.64 1054.56 207.04 1054.56 221.07C1054.56 235.1 1043.17 246.5 1029.13 246.5C1015.09 246.5 1003.7 235.1 1003.7 221.07C1003.71 207.04 1015.1 195.64 1029.13 195.64Z" fill="#60D399"/>
<path d="M1029.13 195.64C1043.16 195.64 1054.56 207.04 1054.56 221.07C1054.56 235.1 1043.17 246.5 1029.13 246.5C1015.09 246.5 1003.7 235.1 1003.7 221.07C1003.71 207.04 1015.1 195.64 1029.13 195.64Z" stroke="#60D399" stroke-width="2.0833" stroke-miterlimit="10" stroke-linecap="round" stroke-linejoin="round"/>
<path d="M1007.07 233.71L1024.04 263.04" stroke="#60D399" stroke-width="2.0833" stroke-miterlimit="10" stroke-linecap="round" stroke-linejoin="round"/>
<path d="M1051.2 233.71L1034.23 263.04" stroke="#60D399" stroke-width="2.0833" stroke-miterlimit="10" stroke-linecap="round" stroke-linejoin="round"/>
<path fill-rule="evenodd" clip-rule="evenodd" d="M1038.95 254.88H1019.44L1024.32 263.04H1034.07L1038.95 254.88Z" fill="#FF341A"/>
<path d="M1038.95 254.88H1019.44L1024.32 263.04H1034.07L1038.95 254.88Z" stroke="#FF341A" stroke-width="2.0833" stroke-miterlimit="10" stroke-linecap="round" stroke-linejoin="round"/>
<path d="M1003.71 221.07H1054.56" stroke="#24A865" stroke-width="2.0833" stroke-miterlimit="10" stroke-linecap="round" stroke-linejoin="round"/>
</g>
<defs>
<clipPath id="clip0_450:22625">
<rect width="2342" height="678" fill="white"/>
</clipPath>
</defs>
</svg>
