<svg width="2403" height="736" viewBox="0 0 2403 736" fill="none" xmlns="http://www.w3.org/2000/svg">
<g clip-path="url(#clip0_450:22815)">
<path fill-rule="evenodd" clip-rule="evenodd" d="M1201.5 729.68C2345.59 729.68 2402.82 731.19 2402.82 733.06C2402.82 734.93 2347.71 736.44 1201.5 736.44C55.2899 736.44 0.169922 734.93 0.169922 733.06C0.169922 731.19 57.4199 729.68 1201.5 729.68Z" fill="black"/>
<path fill-rule="evenodd" clip-rule="evenodd" d="M1233.42 733.05H545.641V184.8C545.641 72.28 623.381 0 623.381 0H1233.42V733.05Z" fill="#FEDD8E"/>
<path fill-rule="evenodd" clip-rule="evenodd" d="M1169.59 733.05H1857.37V184.8C1857.37 72.28 1779.63 0 1779.63 0H1169.59V733.05Z" fill="#FEDD8E"/>
<path fill-rule="evenodd" clip-rule="evenodd" d="M1398.97 445.66C1398.97 393.29 1378.17 343.06 1341.13 306.03C1304.1 269 1253.87 248.19 1201.5 248.19C1149.13 248.19 1098.9 268.99 1061.87 306.03C1024.84 343.07 1004.03 393.29 1004.03 445.66V733.05H1398.97V445.66Z" fill="#133191"/>
<path fill-rule="evenodd" clip-rule="evenodd" d="M806.561 248.19C858.941 248.19 909.16 268.99 946.19 306.03C983.22 343.07 1004.03 393.29 1004.03 445.66V733.05H806.561V248.19Z" fill="#FF341A"/>
<path d="M806.56 248.19H792.58V733.05H806.56V248.19Z" fill="black"/>
<path fill-rule="evenodd" clip-rule="evenodd" d="M825.76 498.7C831.55 498.7 836.25 503.4 836.25 509.19C836.25 514.98 831.55 519.68 825.76 519.68C819.97 519.68 815.271 514.98 815.271 509.19C815.271 503.4 819.97 498.7 825.76 498.7Z" fill="#FFFAF0"/>
<path fill-rule="evenodd" clip-rule="evenodd" d="M1596.45 248.19C1544.08 248.19 1493.85 268.99 1456.82 306.03C1419.79 343.07 1398.98 393.29 1398.98 445.66V733.05H1596.45V248.19Z" fill="#FF341A"/>
<path d="M1610.43 248.19H1596.45V733.05H1610.43V248.19Z" fill="black"/>
<path fill-rule="evenodd" clip-rule="evenodd" d="M1573.07 498.7C1578.86 498.7 1583.56 503.4 1583.56 509.19C1583.56 514.98 1578.86 519.68 1573.07 519.68C1567.28 519.68 1562.58 514.98 1562.58 509.19C1562.58 503.4 1567.28 498.7 1573.07 498.7Z" fill="#FFFAF0"/>
<path fill-rule="evenodd" clip-rule="evenodd" d="M546.07 310.32C608.02 310.32 658.25 360.55 658.25 422.5C658.25 484.46 608.02 534.68 546.07 534.68V310.32Z" fill="#FF7968"/>
<path fill-rule="evenodd" clip-rule="evenodd" d="M1857.21 310.32C1795.25 310.32 1745.03 360.55 1745.03 422.5C1745.03 484.46 1795.25 534.68 1857.21 534.68V310.32Z" fill="#FF7968"/>
<path fill-rule="evenodd" clip-rule="evenodd" d="M1460.37 105.1C1476.38 105.1 1489.38 118.1 1489.38 134.11C1489.38 150.12 1476.38 163.11 1460.37 163.11C1444.36 163.11 1431.36 150.11 1431.36 134.11C1431.36 118.1 1444.36 105.1 1460.37 105.1Z" fill="#FFF3D6"/>
<path d="M1532.68 78.3936C1535.45 71.6991 1532.27 64.0241 1525.57 61.251C1518.88 58.478 1511.21 61.657 1508.43 68.3516C1505.66 75.0461 1508.84 82.7211 1515.53 85.4942C1522.23 88.2672 1529.9 85.0882 1532.68 78.3936Z" fill="#FFF3D6"/>
<path d="M985.131 194.27C992.377 194.27 998.251 188.396 998.251 181.15C998.251 173.904 992.377 168.03 985.131 168.03C977.885 168.03 972.011 173.904 972.011 181.15C972.011 188.396 977.885 194.27 985.131 194.27Z" fill="#FFF3D6"/>
<path d="M1542.25 139.361C1545.19 134.587 1543.72 128.326 1538.94 125.376C1534.17 122.426 1527.91 123.905 1524.96 128.678C1522.01 133.452 1523.49 139.713 1528.26 142.663C1533.03 145.613 1539.3 144.134 1542.25 139.361Z" fill="#FFF3D6"/>
<path d="M809.29 102.83C814.901 102.83 819.45 98.2812 819.45 92.67C819.45 87.0588 814.901 82.51 809.29 82.51C803.679 82.51 799.13 87.0588 799.13 92.67C799.13 98.2812 803.679 102.83 809.29 102.83Z" fill="#FFF3D6"/>
<path d="M273.15 293.6H248.32V733.05H273.15V293.6Z" fill="#FEDD8E"/>
<path d="M248.32 320.01H273.15C273.15 320.01 337.12 393.1 423.72 367.68C510.32 342.26 546.07 269.96 546.07 269.96" stroke="#935000" stroke-width="1.815" stroke-miterlimit="10" stroke-linecap="round" stroke-linejoin="round"/>
<path fill-rule="evenodd" clip-rule="evenodd" d="M306.96 347.96L303.41 397.52L346.81 366.81L306.96 347.96Z" fill="#935000"/>
<path fill-rule="evenodd" clip-rule="evenodd" d="M373.71 372.38L401.37 417.37L420.04 368.7L373.71 372.38Z" fill="#935000"/>
<path fill-rule="evenodd" clip-rule="evenodd" d="M457.561 354.36L499.321 384.18L500.421 325.64L457.561 354.36Z" fill="#935000"/>
<path d="M2154.96 293.6H2130.13V733.05H2154.96V293.6Z" fill="#FEDD8E"/>
<path d="M2154.96 320.01H2130.13C2130.13 320.01 2066.16 393.1 1979.56 367.68C1892.96 342.26 1857.21 269.96 1857.21 269.96" stroke="#935000" stroke-width="1.815" stroke-miterlimit="10" stroke-linecap="round" stroke-linejoin="round"/>
<path fill-rule="evenodd" clip-rule="evenodd" d="M2096.32 347.96L2099.87 397.52L2056.47 366.81L2096.32 347.96Z" fill="#935000"/>
<path fill-rule="evenodd" clip-rule="evenodd" d="M2029.57 372.38L2001.92 417.37L1983.24 368.7L2029.57 372.38Z" fill="#935000"/>
<path fill-rule="evenodd" clip-rule="evenodd" d="M1945.72 354.36L1903.96 384.18L1902.86 325.64L1945.72 354.36Z" fill="#935000"/>
<path d="M1224.07 538.11H1110.71V569.56H1224.07V538.11Z" fill="#FBBE2E"/>
<path d="M1110.71 538.11H997.35V569.56H1110.71V538.11Z" fill="#FBBE2E"/>
<path fill-rule="evenodd" clip-rule="evenodd" d="M1224.08 336.25H1133.39C1122.05 336.25 1110.72 345.02 1110.72 370.62V569.55C1110.72 569.55 1112.92 538.1 1130.83 538.1H1224.08V336.25Z" fill="#FEDD8E"/>
<path fill-rule="evenodd" clip-rule="evenodd" d="M997.35 336.25H1088.04C1099.38 336.25 1110.71 345.02 1110.71 370.62V569.55C1110.71 569.55 1108.52 538.1 1090.6 538.1H997.35V336.25Z" fill="#FFF3D6"/>
<path fill-rule="evenodd" clip-rule="evenodd" d="M1398.09 371.83H1340.22C1336.74 371.83 1333.91 374.66 1333.91 378.14C1333.91 381.62 1336.73 384.45 1340.22 384.45H1398.09V371.83Z" fill="#D9F0FF"/>
<path fill-rule="evenodd" clip-rule="evenodd" d="M1343.24 384.45C1343.24 384.45 1343.24 548.28 1343.24 602.54C1343.24 613.41 1338.37 623.7 1329.96 630.58C1310.28 646.62 1274.61 675.78 1264.26 684.76C1249.72 697.38 1242.32 720.99 1259.87 733.04H1398.1V384.44H1343.24V384.45Z" fill="#D9F0FF"/>
<path fill-rule="evenodd" clip-rule="evenodd" d="M1289.01 268.8C1289.01 268.8 1289.01 387.21 1289.01 420.15C1289.01 424.79 1292.77 428.56 1297.42 428.56C1312.65 428.56 1343.24 428.56 1343.24 428.56V443.3H1294.18C1282.88 443.3 1273.71 434.14 1273.71 422.83C1273.71 375.72 1273.71 263.65 1273.71 263.65L1289.01 268.8Z" fill="#163BF3"/>
<path d="M1398.09 384.45H1343.24V395.78H1398.09V384.45Z" fill="#163BF3"/>
<path fill-rule="evenodd" clip-rule="evenodd" d="M1134.45 668.35H1195.78C1195.78 668.35 1187.83 733.05 1163.98 733.05C1140.13 733.05 1134.45 668.35 1134.45 668.35Z" fill="#E3F7ED"/>
<path d="M1165.11 668.35V630.15" stroke="#E3F7ED" stroke-width="1.815" stroke-miterlimit="10" stroke-linecap="round" stroke-linejoin="round"/>
<path fill-rule="evenodd" clip-rule="evenodd" d="M1165.11 630.15C1165.11 623.24 1151.39 596.23 1143.49 605.7C1136.42 614.2 1165.11 624.58 1165.11 630.15Z" fill="#24A865"/>
<path fill-rule="evenodd" clip-rule="evenodd" d="M1165.11 630.15C1165.11 623.24 1178.83 596.23 1186.73 605.7C1193.8 614.2 1165.11 624.58 1165.11 630.15Z" fill="#24A865"/>
<path fill-rule="evenodd" clip-rule="evenodd" d="M1266.36 682.95V592.58C1266.36 592.58 1260.1 587.56 1252.61 581.64C1249.15 578.91 1246.46 572.95 1251.14 568.57C1254.89 565.05 1259.38 565.35 1264.04 570.2C1266.78 573.05 1270.21 576.73 1273.54 576.73C1276.87 576.73 1281 572.96 1283.51 569.63C1286.03 566.3 1292.77 564.78 1296.63 568.82C1300.49 572.86 1298.52 578.53 1295.64 580.86C1292.77 583.2 1281.89 590.66 1281.89 590.66V669.97L1266.36 682.95Z" fill="white"/>
<path d="M1273.71 540.51V494.23" stroke="#E3F7ED" stroke-width="1.815" stroke-miterlimit="10" stroke-linecap="round" stroke-linejoin="round"/>
<path d="M1264.26 534.54L1257.07 522.78" stroke="#E3F7ED" stroke-width="1.815" stroke-miterlimit="10" stroke-linecap="round" stroke-linejoin="round"/>
<path d="M1281.82 534.54L1289.01 522.78" stroke="#E3F7ED" stroke-width="1.815" stroke-miterlimit="10" stroke-linecap="round" stroke-linejoin="round"/>
<path fill-rule="evenodd" clip-rule="evenodd" d="M1182.56 289.52C1192.99 289.58 1201.44 298.04 1201.51 308.46V308.59C1201.51 298.06 1210.05 289.52 1220.58 289.52C1210.05 289.52 1201.51 280.98 1201.51 270.45V270.57C1201.44 281.04 1192.92 289.51 1182.44 289.51L1182.56 289.52Z" fill="white"/>
<path fill-rule="evenodd" clip-rule="evenodd" d="M927 456.4L987.44 438.86V449.57L921.92 482.18L911.96 458.13L927 456.4Z" fill="#FEDD8E"/>
<path fill-rule="evenodd" clip-rule="evenodd" d="M918.599 438.74C924.579 438.74 929.43 443.59 929.43 449.57C929.43 455.55 924.579 460.4 918.599 460.4C912.619 460.4 907.77 455.55 907.77 449.57C907.77 443.59 912.619 438.74 918.599 438.74Z" fill="#935000"/>
<path fill-rule="evenodd" clip-rule="evenodd" d="M928.3 444.76C928.3 444.76 924.3 446.98 920.57 446.8V456.22C920.57 456.22 917.9 450.62 915.06 450.62C912.22 450.62 912.33 458.39 912.33 458.39C912.33 458.39 904.68 453.39 909.21 444.18C899.43 448.57 893.3 449.01 889.12 443.15C884.95 437.29 886.28 428.93 891.43 423.78C896.58 418.63 907.16 417.56 911.69 422.54C916.22 427.52 916.19 439.01 916.19 439.01C916.19 439.01 925.1 437.21 928.3 444.76Z" fill="black"/>
<path fill-rule="evenodd" clip-rule="evenodd" d="M928.65 445.53C928.65 445.53 932.41 446.38 933.95 446.66C932.54 447.39 929.43 449.57 929.43 449.57L928.65 445.53Z" fill="#935000"/>
<path fill-rule="evenodd" clip-rule="evenodd" d="M911.38 456.4L907.45 463.67C911.64 466.78 916.63 469.36 922.32 471.48L927.36 462.78L911.38 456.4Z" fill="#0089E3"/>
<path fill-rule="evenodd" clip-rule="evenodd" d="M906.29 463.33C901.94 462.1 897.84 465.61 894.29 472.94C890.74 480.27 876.38 506.2 873.08 519.04C869.78 531.88 881.16 544.73 889.84 546.81V529.8C889.84 529.8 904.31 506.37 910.04 497.52C915.77 488.67 918.97 470.69 914.29 467.33C910.9 464.91 910.18 464.43 906.29 463.33Z" fill="#FEDD8E"/>
<path fill-rule="evenodd" clip-rule="evenodd" d="M921.62 471C921.62 471 931.1 476.43 931.3 493.78C931.5 511.14 931.3 549.67 931.3 549.67H889.84V529.37L914.29 467.34L921.62 471Z" fill="#FEDD8E"/>
<path fill-rule="evenodd" clip-rule="evenodd" d="M894.52 549.66C894.52 549.66 890.57 554.2 889.85 567.39C889.13 580.58 897.81 605.75 897.81 605.75V680.03H926.18V549.66H894.52Z" fill="#FBBE2E"/>
<path fill-rule="evenodd" clip-rule="evenodd" d="M987.439 438.86C989.399 438.24 999.37 436.33 1003 436.33H1010.37C1012.05 436.33 1012.05 438.86 1009.82 438.86C1007.59 438.86 1001.72 440.56 999.04 443.7C996.36 446.84 993.619 451.49 987.439 449.57V438.86Z" fill="#935000"/>
<path fill-rule="evenodd" clip-rule="evenodd" d="M905.49 680.04C905.49 680.04 900.07 684.09 897.94 685.78C895.81 687.47 888.7 692.53 893.94 698.66C899.18 704.79 919.98 732.07 919.98 732.07H941.04C945.52 732.07 932.12 720.05 923.91 711.99C921.13 709.26 921.32 706.65 921.32 705.06C921.32 701.18 921.59 687.36 921.59 680.04H905.49Z" fill="#E3F7ED"/>
<path d="M889.84 529.36C889.84 529.36 906.18 503.24 909.74 497.98C913.3 492.72 916.06 480.62 916.46 476.92" stroke="black" stroke-width="1.6667" stroke-miterlimit="10" stroke-linecap="round" stroke-linejoin="round"/>
<path d="M889.84 529.36V546.81" stroke="black" stroke-width="1.6667" stroke-miterlimit="10" stroke-linecap="round" stroke-linejoin="round"/>
<path fill-rule="evenodd" clip-rule="evenodd" d="M971.09 482.18H980.83C980.83 482.18 981.11 473.41 970.24 469.64C959.36 465.87 956.73 471.77 954.6 477.53C952.47 483.29 947.07 500.35 946.42 504.4C945.78 508.45 948.48 510.09 951.47 510.09H970.87L971.09 482.18Z" fill="black"/>
<path fill-rule="evenodd" clip-rule="evenodd" d="M970.97 497.44C970.97 497.44 979.12 495.73 981.54 487.42H984.59L980.82 482.19H971.08L970.97 497.44Z" fill="#FFC7BF"/>
<path fill-rule="evenodd" clip-rule="evenodd" d="M963.58 512.96C968.23 512.71 974.98 515.6 977.78 523.79C980.59 531.98 991.01 568.36 991.01 568.36L1014.61 568.64V592.66H984.59C977.95 592.66 969.2 586.69 966.01 571.69C962.82 556.69 956.68 530.21 955.54 525.49C954.41 520.78 954.49 513.45 963.58 512.96Z" fill="#6D83F3"/>
<path fill-rule="evenodd" clip-rule="evenodd" d="M974.9 495.82V505.77C974.9 505.77 1001.04 546.26 1004.51 568.52C1007.99 590.77 1016.82 709.51 1016.82 709.51H949.3C949.3 709.51 954.72 658.8 959.6 635.48C964.48 612.16 970.45 577.72 968.01 556.84C965.57 535.96 955.06 522.15 955.06 522.15C955.06 522.15 953.79 510.45 955.05 506.97C956.3 503.47 974.9 495.82 974.9 495.82Z" fill="#6D83F3"/>
<path d="M1004.03 568.36H980.83" stroke="black" stroke-width="1.815" stroke-miterlimit="10" stroke-linecap="round" stroke-linejoin="round"/>
<path fill-rule="evenodd" clip-rule="evenodd" d="M1014.61 568.64C1017.49 568.64 1026.14 571.6 1028.87 578.48C1031.6 585.36 1031.55 586.39 1031.83 588.32C1032.11 590.25 1029.73 590.94 1028.93 588.26C1028.13 585.59 1025.35 581.61 1025.35 581.61C1025.35 581.61 1020.06 592.66 1014.62 592.66C1008.34 592.66 1005.65 568.64 1014.61 568.64Z" fill="#FFC7BF"/>
<path fill-rule="evenodd" clip-rule="evenodd" d="M984.83 522.34L1000.69 488.21L1012.95 496.74L994.98 541.7L984.83 522.34Z" fill="#163BF3"/>
<path fill-rule="evenodd" clip-rule="evenodd" d="M1000.69 488.21C1001.86 486.03 1004.77 478.01 1014.61 476.87C1016.78 476.62 1018.47 478.53 1016.45 479.73C1014.62 480.82 1011.27 485.82 1011.27 485.82C1011.27 485.82 1015.4 490.68 1012.96 496.74C1010.48 494.91 1002.58 489.49 1000.69 488.21Z" fill="#0089E3"/>
<path fill-rule="evenodd" clip-rule="evenodd" d="M961.33 709.51C961.33 709.51 959.76 713.58 958.41 714.36C957.06 715.14 955 717.35 957.49 719.05C959.98 720.76 976.83 733.05 976.83 733.05H985.43V709.51H961.33Z" fill="#1C2126"/>
<path fill-rule="evenodd" clip-rule="evenodd" d="M982.16 709.51V730.64C982.16 730.64 981.59 733.06 987.92 733.06H1024.74C1024.74 733.06 1024.38 730.71 1018.69 729.15C1013 727.59 999.99 721.29 999.99 721.29L1000.68 709.52H982.16V709.51Z" fill="#46535F"/>
<path d="M968.18 578.78C968.18 578.78 972.44 592.66 984.83 592.66H1007.22" stroke="black" stroke-width="1.6667" stroke-miterlimit="10" stroke-linecap="round" stroke-linejoin="round"/>
<path fill-rule="evenodd" clip-rule="evenodd" d="M1060.67 462.58C1066.88 462.58 1071.92 467.62 1071.92 473.83C1071.92 480.04 1066.88 485.08 1060.67 485.08C1054.46 485.08 1049.42 480.04 1049.42 473.83C1049.43 467.62 1054.46 462.58 1060.67 462.58Z" fill="#935000"/>
<path fill-rule="evenodd" clip-rule="evenodd" d="M1049.81 470.9C1049.81 470.9 1045.66 470.1 1045.87 472.96C1046.07 475.81 1049.68 476.19 1049.68 476.19L1049.81 470.9Z" fill="#935000"/>
<path fill-rule="evenodd" clip-rule="evenodd" d="M1071.92 470.9C1071.92 470.9 1076.07 470.1 1075.86 472.96C1075.66 475.81 1072.05 476.19 1072.05 476.19L1071.92 470.9Z" fill="#935000"/>
<path fill-rule="evenodd" clip-rule="evenodd" d="M1039.46 562.88V702.19H1072.07V629.06L1093.36 700.03L1128.22 692.93L1097.09 588.03L1080.64 562.46L1039.46 562.88Z" fill="#FF341A"/>
<path fill-rule="evenodd" clip-rule="evenodd" d="M1060.67 485.07C1056.14 485.07 1046.57 486.07 1042.87 487.87C1039.17 489.67 1034.72 492.42 1033.49 501.42C1032.26 510.42 1032.35 534.78 1032.07 539.24C1031.79 543.7 1035.86 549.76 1039.46 551.56V562.46H1080.69V587.58C1080.69 590.04 1083.82 594.03 1088.94 594.03C1094.06 594.03 1097.09 591.47 1097.09 586.83V502.47C1097.09 495.36 1094.25 491.66 1089.22 489.48C1084.2 487.3 1065.2 485.07 1060.67 485.07Z" fill="#0089E3"/>
<path d="M1039.46 551.56V511.46" stroke="black" stroke-width="1.815" stroke-miterlimit="10" stroke-linecap="round" stroke-linejoin="round"/>
<path d="M1080.64 562.88V511.46" stroke="black" stroke-width="1.815" stroke-miterlimit="10" stroke-linecap="round" stroke-linejoin="round"/>
<path fill-rule="evenodd" clip-rule="evenodd" d="M1083.77 592.43C1083.77 592.43 1081.12 596.82 1083.01 601.07C1084.91 605.32 1081.87 606.23 1083.69 607.06C1085.51 607.89 1089.23 607.06 1093.17 604.63C1097.12 602.2 1097.76 596.04 1095.39 591.73C1093.46 594.23 1086.92 594.97 1083.77 592.43Z" fill="#935000"/>
<path d="M1049.88 588.03H1073.41" stroke="black" stroke-width="1.815" stroke-miterlimit="10" stroke-linecap="round" stroke-linejoin="round"/>
<path d="M1072.07 629.06L1059.76 588.03" stroke="black" stroke-width="1.815" stroke-miterlimit="10" stroke-linecap="round" stroke-linejoin="round"/>
<path d="M1065.92 702.19H1047.76V718.39H1065.92V702.19Z" fill="#E3F7ED"/>
<path fill-rule="evenodd" clip-rule="evenodd" d="M1047.76 718.39V733.05H1081.55L1065.92 718.39H1047.76Z" fill="#0089E3"/>
<path fill-rule="evenodd" clip-rule="evenodd" d="M1099.1 698.86L1103.95 716.69L1121.18 712.74L1118.01 695.01L1099.1 698.86Z" fill="#E3F7ED"/>
<path fill-rule="evenodd" clip-rule="evenodd" d="M1103.95 716.69V733.05H1145.82L1121.18 712.74L1103.95 716.69Z" fill="#0089E3"/>
<path fill-rule="evenodd" clip-rule="evenodd" d="M1396.97 459.74C1405.38 459.74 1412.2 466.57 1412.2 474.97C1412.2 483.38 1405.38 490.2 1396.97 490.2C1388.56 490.2 1381.74 483.37 1381.74 474.97C1381.74 466.57 1388.57 459.74 1396.97 459.74Z" fill="#FBBE2E"/>
<path d="M1396.32 479.54C1396.32 479.54 1395 482.86 1397.83 483.98C1400.05 484.86 1403.7 484.36 1405.74 481.57" stroke="#FBBE2E" stroke-width="1.815" stroke-miterlimit="10" stroke-linecap="round" stroke-linejoin="round"/>
<path d="M1399.99 480.35L1402.29 478.23" stroke="#FBBE2E" stroke-width="1.815" stroke-miterlimit="10" stroke-linecap="round" stroke-linejoin="round"/>
<path fill-rule="evenodd" clip-rule="evenodd" d="M1384.45 466.32H1375.66C1374.21 466.32 1375.18 468.56 1377.04 469.25C1378.9 469.94 1382.1 471.66 1382.1 471.66L1384.45 466.32Z" fill="#FBBE2E"/>
<path fill-rule="evenodd" clip-rule="evenodd" d="M1392.8 460.32L1403.4 469.8L1398.3 475.87C1398.3 475.87 1403.78 473.01 1405.55 475.59C1406.84 477.48 1406.03 479.72 1404.64 481.5C1403.21 483.32 1403.28 485.72 1405.09 487.86C1411.43 484.15 1414.75 476.74 1411.58 469.42C1405.61 455.68 1392.8 460.32 1392.8 460.32Z" fill="black"/>
<path fill-rule="evenodd" clip-rule="evenodd" d="M1381.74 473.84C1384.98 473.84 1390.62 470.21 1392.8 472.9C1394.98 475.59 1388.8 480.65 1382.71 480.33C1381.73 477.19 1381.62 475.71 1381.74 473.84Z" fill="white"/>
<path d="M1389.33 467L1390.5 465.76" stroke="black" stroke-width="1.815" stroke-miterlimit="10" stroke-linecap="round" stroke-linejoin="round"/>
<path fill-rule="evenodd" clip-rule="evenodd" d="M1396.04 490.18C1390.95 490.18 1370.59 490.33 1365.33 504.9C1360.06 519.47 1356.9 538.25 1356.9 538.25H1326.53C1326.53 538.25 1326.35 546.5 1321.79 548.78C1328.46 551.76 1360.58 564.58 1363.92 565.63C1367.25 566.68 1371.29 568.26 1374.8 565.1V576.68H1432.2V566.85C1432.2 566.85 1439.75 564.22 1438.87 552.63C1437.99 541.04 1434.31 512.26 1433.78 506.11C1433.25 499.97 1428.66 493.16 1421.38 492.35C1414.1 491.56 1401.12 490.18 1396.04 490.18Z" fill="#0089E3"/>
<path fill-rule="evenodd" clip-rule="evenodd" d="M1387.47 499.21L1395.31 538.07L1406.6 499.65L1396.04 490.18L1387.47 499.21Z" fill="white"/>
<path fill-rule="evenodd" clip-rule="evenodd" d="M1390.5 490.38C1390.5 490.38 1383.45 498.03 1386.47 499.18C1389.49 500.33 1396.04 490.18 1396.04 490.18C1396.04 490.18 1402.86 501.19 1407.68 499.46C1412.5 497.73 1404.3 490.65 1404.3 490.65L1390.5 490.38Z" fill="#E3F7ED"/>
<path fill-rule="evenodd" clip-rule="evenodd" d="M1326.53 538.25H1301.64C1297.15 538.25 1299.48 540.52 1302.9 541.6C1306.32 542.68 1321.79 548.78 1321.79 548.78C1321.79 548.78 1327.06 544.81 1326.53 538.25Z" fill="#FBBE2E"/>
<path fill-rule="evenodd" clip-rule="evenodd" d="M1320.52 538.25C1320.52 538.25 1317.37 534.5 1315.85 532.83C1314.54 531.39 1312.8 533.28 1313.38 534.32C1313.93 535.3 1315.62 538.25 1315.62 538.25H1320.52Z" fill="#FBBE2E"/>
<path d="M1363.61 538.25H1421" stroke="black" stroke-width="1.815" stroke-miterlimit="10" stroke-linecap="round" stroke-linejoin="round"/>
<path d="M1375.2 538.25V522.29" stroke="black" stroke-width="1.815" stroke-miterlimit="10" stroke-linecap="round" stroke-linejoin="round"/>
<path d="M1416.18 538.25V522.29" stroke="black" stroke-width="1.815" stroke-miterlimit="10" stroke-linecap="round" stroke-linejoin="round"/>
<path d="M1359.24 548.78C1359.24 548.78 1401.8 563.85 1411.87 566.94C1421.94 570.03 1428.81 568.79 1432.2 566.86" stroke="black" stroke-width="1.815" stroke-miterlimit="10" stroke-linecap="round" stroke-linejoin="round"/>
<path d="M1374.8 565.1V554.26" stroke="black" stroke-width="1.815" stroke-miterlimit="10" stroke-linecap="round" stroke-linejoin="round"/>
<path fill-rule="evenodd" clip-rule="evenodd" d="M1374.8 576.69V715.59H1398.09V718.57H1415.47C1415.47 718.57 1430.15 677.32 1432.2 645.02C1434.25 612.72 1432.2 576.68 1432.2 576.68H1374.8V576.69Z" fill="#24A865"/>
<path d="M1398.09 715.59V600.44" stroke="black" stroke-width="1.815" stroke-miterlimit="10" stroke-linecap="round" stroke-linejoin="round"/>
<path d="M1417.57 583.59L1424.42 600.44" stroke="black" stroke-width="1.815" stroke-miterlimit="10" stroke-linecap="round" stroke-linejoin="round"/>
<path fill-rule="evenodd" clip-rule="evenodd" d="M1376.93 715.59C1376.93 715.59 1376.48 719.55 1371.09 722.58C1365.7 725.61 1351.97 730.99 1351.86 733.06H1398.1V715.59H1376.93Z" fill="#0089E3"/>
<path fill-rule="evenodd" clip-rule="evenodd" d="M1398.09 718.57C1398.09 718.57 1388.92 730.6 1389.19 733.05H1420.99C1420.99 733.05 1422.24 731.46 1420.99 728.22C1419.74 724.98 1415.46 718.56 1415.46 718.56H1398.09V718.57Z" fill="#0089E3"/>
<path fill-rule="evenodd" clip-rule="evenodd" d="M1363.61 538.25H1361.6C1361.6 538.25 1355.92 532.64 1354.55 531.35C1353.18 530.06 1350.6 532.14 1351.96 533.65C1353.33 535.16 1354.26 538.25 1354.26 538.25H1337.65C1337.65 538.25 1335.29 541.42 1339.64 543.52C1343.98 545.62 1350.35 547.64 1353.11 548.31C1355.87 548.97 1359.78 549.45 1361.32 546.1C1362.88 542.74 1363.61 538.25 1363.61 538.25Z" fill="#FBBE2E"/>
<path fill-rule="evenodd" clip-rule="evenodd" d="M1279.86 34.55L1123.15 62.48V226.94L1279.86 199.02V34.55Z" fill="black"/>
<path fill-rule="evenodd" clip-rule="evenodd" d="M1155.99 89.0301C1155.99 89.0301 1202.69 80.2401 1215.05 78.6201C1227.42 76.9901 1239.94 85.7801 1241.73 96.0301C1243.52 106.28 1227.41 120.17 1227.41 120.17C1227.41 120.17 1246.61 122.55 1246.61 138.33C1246.61 154.11 1232.29 167.45 1216.35 171.68C1200.41 175.91 1155.5 183.07 1155.5 183.07V159.97L1164.61 157.85V109.2L1155.5 110.02L1155.99 89.0301Z" fill="white"/>
<path fill-rule="evenodd" clip-rule="evenodd" d="M1195.39 103.11V114.97C1195.39 114.97 1210.18 112.17 1210.18 105.51C1210.18 98.85 1195.39 103.11 1195.39 103.11Z" fill="black"/>
<path fill-rule="evenodd" clip-rule="evenodd" d="M1195.39 135.85V150.44C1195.39 150.44 1210.18 149.64 1210.18 140.98C1210.18 132.31 1195.39 135.85 1195.39 135.85Z" fill="black"/>
</g>
<defs>
<clipPath id="clip0_450:22815">
<rect width="2403" height="736" fill="white"/>
</clipPath>
</defs>
</svg>
