<svg width="2403" height="742" viewBox="0 0 2403 742" fill="none" xmlns="http://www.w3.org/2000/svg">
<g clip-path="url(#clip0_450:22942)">
<path fill-rule="evenodd" clip-rule="evenodd" d="M362.15 738.91C362.15 738.91 351.12 735.61 351.12 724.59C351.12 713.57 362.46 705.06 362.46 705.06V658.75H439.33V705.06C439.33 705.06 450.67 713.57 450.67 724.59C450.67 735.61 439.64 738.91 439.64 738.91H362.15Z" fill="#BDC7FB"/>
<path fill-rule="evenodd" clip-rule="evenodd" d="M398.97 658.75C398.97 658.75 380.32 602.65 390.65 600.38C400.98 598.11 405.02 658.75 405.02 658.75H398.97Z" fill="#4FB3F6"/>
<path fill-rule="evenodd" clip-rule="evenodd" d="M403 638.02C403 638.02 412.83 587.77 422.41 592.81C431.99 597.85 411.82 658.74 411.82 658.74H405.02L403 638.02Z" fill="#8D1A00"/>
<path fill-rule="evenodd" clip-rule="evenodd" d="M1729.28 576.15H1606.83V697.88C1606.83 708.79 1611.16 719.25 1618.88 726.96C1626.59 734.67 1637.05 739 1647.96 739H1688.16C1699.07 739 1709.53 734.67 1717.24 726.96C1724.95 719.25 1729.29 708.79 1729.29 697.88V576.15H1729.28Z" fill="#BDC7FB"/>
<path fill-rule="evenodd" clip-rule="evenodd" d="M1668.05 348.79C1678.4 348.79 1686.82 357.2 1686.82 367.56C1686.82 377.92 1678.41 386.33 1668.05 386.33C1657.69 386.33 1649.28 377.92 1649.28 367.56C1649.28 357.2 1657.7 348.79 1668.05 348.79Z" fill="#FF341A"/>
<path d="M1668.05 386.32V576.15" stroke="#4FB3F6" stroke-width="1.815" stroke-miterlimit="10" stroke-linecap="round" stroke-linejoin="round"/>
<path fill-rule="evenodd" clip-rule="evenodd" d="M1668.05 454.12C1668.05 437.42 1649.52 421.99 1638.49 412.22C1627.46 402.45 1606.04 408.75 1622.11 428.6C1638.18 448.45 1666.42 468.29 1668.05 486.57V454.12Z" fill="#4FB3F6"/>
<path fill-rule="evenodd" clip-rule="evenodd" d="M1668.05 454.12C1668.05 437.42 1686.58 421.99 1697.61 412.22C1708.63 402.45 1730.06 408.75 1713.99 428.6C1697.92 448.45 1669.68 468.29 1668.05 486.57V454.12Z" fill="#4FB3F6"/>
<path fill-rule="evenodd" clip-rule="evenodd" d="M1925.5 649.08C1950.31 649.08 1970.45 669.22 1970.45 694.04C1970.45 718.86 1950.31 739 1925.5 739C1900.69 739 1880.54 718.86 1880.54 694.04C1880.54 669.22 1900.68 649.08 1925.5 649.08Z" fill="#FEDD8E"/>
<path d="M1925.5 649.08V591.62" stroke="#FFC7BF" stroke-width="1.815" stroke-miterlimit="10" stroke-linecap="round" stroke-linejoin="round"/>
<path fill-rule="evenodd" clip-rule="evenodd" d="M1925.5 576.15C1929.77 576.15 1933.24 579.62 1933.24 583.89C1933.24 588.16 1929.77 591.63 1925.5 591.63C1921.23 591.63 1917.76 588.16 1917.76 583.89C1917.76 579.61 1921.22 576.15 1925.5 576.15Z" fill="#FF341A"/>
<path fill-rule="evenodd" clip-rule="evenodd" d="M1925.5 618.16C1919.13 610.74 1909.94 603.97 1907.52 607.68C1905.1 611.39 1920.95 625.38 1925.5 629.94V618.16Z" fill="#FFC7BF"/>
<path fill-rule="evenodd" clip-rule="evenodd" d="M871.56 475.19H730.04C730.04 475.19 730.04 632.71 730.04 704.27C730.04 713.46 733.69 722.27 740.18 728.76C746.68 735.26 755.49 738.91 764.68 738.91H836.92C846.11 738.91 854.92 735.26 861.42 728.76C867.92 722.26 871.57 713.45 871.57 704.27V475.19H871.56Z" fill="#BDC7FB"/>
<path d="M784.538 563.131C789.21 563.122 792.991 559.327 792.982 554.655C792.973 549.983 789.178 546.202 784.506 546.211C779.834 546.22 776.053 550.014 776.062 554.687C776.071 559.359 779.865 563.14 784.538 563.131Z" fill="white"/>
<path fill-rule="evenodd" clip-rule="evenodd" d="M849.72 583.58C854.39 583.58 858.17 587.37 858.17 592.04C858.17 596.71 854.38 600.5 849.72 600.5C845.05 600.5 841.26 596.71 841.26 592.04C841.26 587.37 845.05 583.58 849.72 583.58Z" fill="white"/>
<path fill-rule="evenodd" clip-rule="evenodd" d="M762.521 642.1C767.191 642.1 770.971 645.89 770.971 650.56C770.971 655.23 767.181 659.02 762.521 659.02C757.861 659.02 754.061 655.23 754.061 650.56C754.061 645.89 757.851 642.1 762.521 642.1Z" fill="white"/>
<path fill-rule="evenodd" clip-rule="evenodd" d="M765.11 475.19C765.11 475.19 715.89 393.97 730.04 385.97C744.19 377.97 786.03 475.19 786.03 475.19H765.11Z" fill="#4FB3F6"/>
<path fill-rule="evenodd" clip-rule="evenodd" d="M834.53 454.33C834.53 454.33 852.61 426.86 858.66 432.4C864.71 437.94 845.56 475.19 845.56 475.19H834.53V454.33Z" fill="#4FB3F6"/>
<path fill-rule="evenodd" clip-rule="evenodd" d="M754.97 492.64C757.98 492.64 760.42 495.08 760.42 498.09C760.42 501.1 757.98 503.54 754.97 503.54C751.97 503.54 749.521 501.1 749.521 498.09C749.521 495.08 751.97 492.64 754.97 492.64Z" fill="white"/>
<path fill-rule="evenodd" clip-rule="evenodd" d="M852.77 499.39C855.77 499.39 858.22 501.83 858.22 504.84C858.22 507.85 855.78 510.29 852.77 510.29C849.76 510.29 847.32 507.85 847.32 504.84C847.32 501.83 849.76 499.39 852.77 499.39Z" fill="white"/>
<path fill-rule="evenodd" clip-rule="evenodd" d="M748.61 581.05C751.61 581.05 754.06 583.49 754.06 586.5C754.06 589.51 751.62 591.95 748.61 591.95C745.6 591.95 743.16 589.51 743.16 586.5C743.16 583.49 745.6 581.05 748.61 581.05Z" fill="white"/>
<path fill-rule="evenodd" clip-rule="evenodd" d="M848 672.09C851 672.09 853.45 674.53 853.45 677.54C853.45 680.55 851.01 682.99 848 682.99C844.99 682.99 842.55 680.55 842.55 677.54C842.55 674.53 844.99 672.09 848 672.09Z" fill="white"/>
<path fill-rule="evenodd" clip-rule="evenodd" d="M768.89 698.73C771.89 698.73 774.34 701.17 774.34 704.18C774.34 707.19 771.9 709.63 768.89 709.63C765.88 709.63 763.44 707.19 763.44 704.18C763.44 701.17 765.88 698.73 768.89 698.73Z" fill="white"/>
<path fill-rule="evenodd" clip-rule="evenodd" d="M1450.74 739L1414.9 673.9L1438.14 625.06L1413.72 592.77L1432.23 534.88H1514.18L1532.69 592.77L1508.27 625.06L1531.51 673.9L1495.68 739H1450.74Z" fill="#FFC7BF"/>
<path fill-rule="evenodd" clip-rule="evenodd" d="M1469.25 534.88C1469.25 534.88 1446.8 521.88 1446.41 504.16C1446.01 486.44 1442.47 454.27 1452.31 453.42C1462.15 452.57 1483.03 519.12 1482.24 534.87H1469.25V534.88Z" fill="#9CE8C2"/>
<path fill-rule="evenodd" clip-rule="evenodd" d="M1477.24 507.39C1477.24 507.39 1485.1 471.03 1492.34 475.19C1499.57 479.35 1489.33 534.88 1489.33 534.88H1482.26L1477.24 507.39Z" fill="#24A865"/>
<path fill-rule="evenodd" clip-rule="evenodd" d="M1445.99 570.8C1450.66 570.8 1454.45 574.59 1454.45 579.26C1454.45 583.93 1450.66 587.72 1445.99 587.72C1441.32 587.72 1437.54 583.93 1437.54 579.26C1437.53 574.59 1441.32 570.8 1445.99 570.8Z" fill="white"/>
<path fill-rule="evenodd" clip-rule="evenodd" d="M1471.02 686.82C1475.69 686.82 1479.47 690.61 1479.47 695.28C1479.47 699.95 1475.68 703.74 1471.02 703.74C1466.35 703.74 1462.56 699.95 1462.56 695.28C1462.57 690.61 1466.36 686.82 1471.02 686.82Z" fill="white"/>
<path fill-rule="evenodd" clip-rule="evenodd" d="M1481.75 551.34C1484.76 551.34 1487.2 553.78 1487.2 556.79C1487.2 559.8 1484.76 562.24 1481.75 562.24C1478.75 562.24 1476.3 559.8 1476.3 556.79C1476.3 553.78 1478.74 551.34 1481.75 551.34Z" fill="white"/>
<path fill-rule="evenodd" clip-rule="evenodd" d="M1481.28 591.82C1484.28 591.82 1486.73 594.26 1486.73 597.27C1486.73 600.28 1484.29 602.72 1481.28 602.72C1478.27 602.72 1475.83 600.28 1475.83 597.27C1475.83 594.27 1478.27 591.82 1481.28 591.82Z" fill="white"/>
<path fill-rule="evenodd" clip-rule="evenodd" d="M1458.99 644.34C1461.99 644.34 1464.44 646.78 1464.44 649.79C1464.44 652.8 1462 655.24 1458.99 655.24C1455.98 655.24 1453.54 652.8 1453.54 649.79C1453.54 646.78 1455.98 644.34 1458.99 644.34Z" fill="white"/>
<path fill-rule="evenodd" clip-rule="evenodd" d="M602.69 568.05H701.43C701.43 568.05 699.58 630.81 697.12 647.43C694.66 664.04 658.35 738.92 624.51 738.92H602.69V568.05Z" fill="#FEDD8E"/>
<path fill-rule="evenodd" clip-rule="evenodd" d="M623.44 568.05H524.7C524.7 568.05 526.55 630.81 529.01 647.43C531.47 664.04 567.78 738.92 601.62 738.92H623.44V568.05Z" fill="#FEDD8E"/>
<path d="M613.061 568.05V289.6" stroke="#FF341A" stroke-width="1.815" stroke-miterlimit="10" stroke-linecap="round" stroke-linejoin="round"/>
<path fill-rule="evenodd" clip-rule="evenodd" d="M613.561 293.1C613.561 293.1 599.33 265.4 609.66 262.38C620 259.35 613.561 293.1 613.561 293.1Z" fill="#FF341A"/>
<path fill-rule="evenodd" clip-rule="evenodd" d="M613.06 428.82C613.06 419.92 636.38 368.76 644.44 372.79C652.51 376.82 625.29 417.4 621 432.27C616.71 447.14 613.05 461 613.05 461V428.82H613.06Z" fill="#FF341A"/>
<path d="M579.23 402.67H453V481.33H579.23V402.67Z" fill="#4FB3F6"/>
<path fill-rule="evenodd" clip-rule="evenodd" d="M453 395.92C456.72 395.92 459.75 398.94 459.75 402.67C459.75 406.39 456.72 409.42 453 409.42C449.28 409.42 446.25 406.4 446.25 402.67C446.25 398.94 449.27 395.92 453 395.92Z" fill="#4FB3F6"/>
<path fill-rule="evenodd" clip-rule="evenodd" d="M579.23 395.92C582.95 395.92 585.98 398.94 585.98 402.67C585.98 406.39 582.96 409.42 579.23 409.42C575.51 409.42 572.48 406.4 572.48 402.67C572.48 398.94 575.5 395.92 579.23 395.92Z" fill="#4FB3F6"/>
<path fill-rule="evenodd" clip-rule="evenodd" d="M579.23 474.58C582.95 474.58 585.98 477.6 585.98 481.33C585.98 485.05 582.96 488.08 579.23 488.08C575.51 488.08 572.48 485.06 572.48 481.33C572.48 477.6 575.5 474.58 579.23 474.58Z" fill="#4FB3F6"/>
<path fill-rule="evenodd" clip-rule="evenodd" d="M453 474.58C456.72 474.58 459.75 477.6 459.75 481.33C459.75 485.05 456.72 488.08 453 488.08C449.28 488.08 446.25 485.06 446.25 481.33C446.25 477.6 449.27 474.58 453 474.58Z" fill="#4FB3F6"/>
<path fill-rule="evenodd" clip-rule="evenodd" d="M476.66 416.22C481.76 408.73 492.34 396.37 502.86 396.77C513.38 397.17 514.77 402.92 510.6 407.69C506.43 412.45 498.49 426.55 495.71 430.91C492.93 435.28 493.33 444.6 497.1 450.16C500.87 455.72 515.96 481.32 515.96 481.32H533.23L547.92 550.59H490.76C490.76 550.59 479.25 497.4 480.24 483.11C474.49 467.23 471.11 455.52 468.93 451.95C466.74 448.38 467.93 429.03 476.66 416.22Z" fill="#FFC7BF"/>
<path fill-rule="evenodd" clip-rule="evenodd" d="M490.75 550.59H547.91C547.91 550.59 549 571.58 545.28 583.99C550.74 603.34 582.74 711.02 582.74 711.02C582.74 711.02 575.79 707.55 568.6 711.52C561.4 715.49 557.68 725.91 557.68 725.91C557.68 725.91 491.3 600.55 490.75 550.59Z" fill="#9CE8C2"/>
<path d="M545.29 583.99L539.44 563.68" stroke="#24A865" stroke-width="1.815" stroke-miterlimit="10" stroke-linecap="round" stroke-linejoin="round"/>
<path fill-rule="evenodd" clip-rule="evenodd" d="M499.94 594.48L467.98 709.52C467.98 709.52 471.36 722.67 484.26 721.92C491.21 709.76 520.771 648.61 520.771 648.61L499.94 594.48Z" fill="#24A865"/>
<path fill-rule="evenodd" clip-rule="evenodd" d="M561.79 734.83L557.21 724.98C557.21 724.98 560.3 715.58 569.2 711.2C576.48 707.62 582.75 711.01 582.75 711.01L596.29 705.86L561.79 734.83Z" fill="#8D1A00"/>
<path fill-rule="evenodd" clip-rule="evenodd" d="M569.62 723.41C575.34 719.09 595.92 700.93 601.63 706.64C607.35 712.36 583.93 727.92 578.85 730.91C575.02 733.16 564.24 740.11 561.8 734.83C559.85 730.63 563.9 727.73 569.62 723.41Z" fill="black"/>
<path fill-rule="evenodd" clip-rule="evenodd" d="M467.98 709.53C467.98 709.53 465.28 719.67 464.26 723.15C463.25 726.63 464.94 729.77 468.63 732.06C472.31 734.35 483.4 738.91 494.38 738.91C505.35 738.91 513.73 737.26 504.46 733.83C495.18 730.4 483.63 727.18 484.26 721.93C474.48 720.24 469.31 713.38 467.98 709.53Z" fill="#8D1A00"/>
<path fill-rule="evenodd" clip-rule="evenodd" d="M510.01 398.43C510.01 398.43 518.26 394.88 523.02 395.2C527.78 395.52 533.97 402.66 533.97 402.66H512.78L510.01 398.43Z" fill="#FEDD8E"/>
<path fill-rule="evenodd" clip-rule="evenodd" d="M785.971 553.66V481.32C785.971 471.16 796.721 387.03 797.991 380.42H809.421V461.8H817.051V380.55H826.771C826.771 380.55 834.511 445.06 834.511 465.3V558.19H798.661C795.501 558.19 789.381 556.23 785.971 553.66Z" fill="#B9E2FE"/>
<path fill-rule="evenodd" clip-rule="evenodd" d="M785.971 553.66V565.74H834.531V558.19L785.971 553.66Z" fill="#8D1A00"/>
<path fill-rule="evenodd" clip-rule="evenodd" d="M785.971 565.74C785.971 565.74 787.361 677.72 787.761 684.47C788.161 691.22 791.331 691.62 791.331 691.62H830.431C830.431 691.62 834.641 689.64 834.521 684.67C834.401 679.71 834.521 565.74 834.521 565.74H785.971Z" fill="#4FB3F6"/>
<path d="M819.521 583.45V691.62" stroke="black" stroke-width="1.815" stroke-miterlimit="10" stroke-linecap="round" stroke-linejoin="round"/>
<path fill-rule="evenodd" clip-rule="evenodd" d="M816.84 691.62H834.531C834.531 691.62 834.601 723.07 834.531 726.9C834.471 730.74 841.101 734.25 843.641 734.57C846.181 734.9 848.001 736.86 847.801 738.25H813.271L816.84 691.62Z" fill="#8D1A00"/>
<path fill-rule="evenodd" clip-rule="evenodd" d="M816.84 691.62H788.36V738.26H823.69C823.69 738.26 823.02 735.94 820.48 733.99C817.94 732.04 816.71 726.97 816.91 721.18C817.1 715.39 816.84 691.62 816.84 691.62Z" fill="#8D1A00"/>
<path fill-rule="evenodd" clip-rule="evenodd" d="M809.42 461.8C809.42 461.8 811.99 471.33 818.75 477.32C821.35 474.91 822.91 470.88 822.91 470.88V467.82H826.03C827.4 467.82 829.28 467.04 829.28 464.5C829.28 461.96 829.74 454.22 825.25 449.93C820.76 445.64 814.65 445.83 809.41 449.6V461.8H809.42Z" fill="#FFC7BF"/>
<path fill-rule="evenodd" clip-rule="evenodd" d="M816.19 369.57C816.19 371.12 814.88 380.55 818.81 380.55H824.69C829.89 380.55 829.83 369.51 829.75 366.91C822.22 367.9 816.19 367.85 816.19 369.57Z" fill="#FFC7BF"/>
<path d="M822.921 467.82H817.851" stroke="#FFC7BF" stroke-width="1.815" stroke-miterlimit="10" stroke-linecap="round" stroke-linejoin="round"/>
<path fill-rule="evenodd" clip-rule="evenodd" d="M785.971 509.25H797.351C801.881 509.25 806.581 505.69 806.581 498.33V462.03H809.481L813.531 470.98V493.88H822.911V470.87H826.771V497.94C826.771 501.75 828.921 507.98 834.511 510.01V558.18H801.111C791.651 558.18 785.961 553.65 785.961 553.65V509.25H785.971Z" fill="#4FB3F6"/>
<path fill-rule="evenodd" clip-rule="evenodd" d="M814.801 283.68C838.501 283.68 857.751 302.93 857.751 326.63C857.751 350.33 838.501 369.58 814.801 369.58C791.101 369.58 771.851 350.33 771.851 326.63C771.851 302.93 791.101 283.68 814.801 283.68Z" fill="#FEDD8E"/>
<path d="M813.78 259.74V241.52" stroke="#FEDD8E" stroke-width="1.815" stroke-miterlimit="10" stroke-linecap="round" stroke-linejoin="round"/>
<path d="M763.571 280.41L748.311 266.63" stroke="#FEDD8E" stroke-width="1.815" stroke-miterlimit="10" stroke-linecap="round" stroke-linejoin="round"/>
<path d="M857.591 286.81L873.831 273.52" stroke="#FEDD8E" stroke-width="1.815" stroke-miterlimit="10" stroke-linecap="round" stroke-linejoin="round"/>
<path d="M726.561 330.01H748.311" stroke="#FEDD8E" stroke-width="1.815" stroke-miterlimit="10" stroke-linecap="round" stroke-linejoin="round"/>
<path d="M870.721 330.01H892.471" stroke="#FEDD8E" stroke-width="1.815" stroke-miterlimit="10" stroke-linecap="round" stroke-linejoin="round"/>
<path d="M770.16 366.8L755.94 380.92" stroke="#FEDD8E" stroke-width="1.815" stroke-miterlimit="10" stroke-linecap="round" stroke-linejoin="round"/>
<path d="M859.881 366.8L877.271 384.2" stroke="#FEDD8E" stroke-width="1.815" stroke-miterlimit="10" stroke-linecap="round" stroke-linejoin="round"/>
<path fill-rule="evenodd" clip-rule="evenodd" d="M806.1 380.43H799.81C797.8 380.43 797.36 377.48 797.36 375.46V364.08C797.36 362.26 797.81 361.09 798.66 361.09C799.51 361.09 800.22 361.74 800.22 363.95C800.22 360.83 801.13 358.43 802.5 358.43C803.87 358.43 804 361.1 804 363.24C804 359.27 804.35 358.04 806.03 358.04C807.7 358.04 807.58 362.27 807.58 363.63V369.23H810.26V375.47C810.25 379.62 807.98 380.43 806.1 380.43Z" fill="#FFC7BF"/>
<path d="M816.841 691.62V725.64C816.841 728.89 823.691 735.68 823.691 738.91" stroke="black" stroke-width="1.6667" stroke-miterlimit="10" stroke-linecap="round" stroke-linejoin="round"/>
<path fill-rule="evenodd" clip-rule="evenodd" d="M848.001 672.09C851.001 672.09 853.451 674.53 853.451 677.54C853.451 680.55 851.011 682.99 848.001 682.99C844.991 682.99 842.551 680.55 842.551 677.54C842.551 674.53 844.991 672.09 848.001 672.09Z" fill="white"/>
<path fill-rule="evenodd" clip-rule="evenodd" d="M1001.17 456.65C1001.17 456.65 986.99 464.13 982.05 467.77C977.11 471.41 971.51 476.93 971.51 486.45V504.87C971.51 508.93 968.46 517.06 960.97 522.4C953.47 527.74 928.83 543.36 928.83 543.36L935.31 560.89C935.31 560.89 973.16 537.52 979.13 533.07C985.1 528.62 989.8 520.49 990.18 515.29C990.56 510.08 991.71 502.59 991.71 502.59C991.71 502.59 995.21 511.86 998.48 514.78V502.5H1073.39C1073.39 502.5 1074.2 475.73 1063.36 462.74C1056.37 454.37 1053.54 452.73 1052 451.59C1050.55 450.51 1043.63 446.17 1040.61 446.17H1033.83L1001.17 456.65Z" fill="#BDC7FB"/>
<path d="M991.71 502.58L994.59 483.27" stroke="black" stroke-width="1.815" stroke-miterlimit="10" stroke-linecap="round" stroke-linejoin="round"/>
<path d="M1036.76 469.86C1036.76 469.86 1049.46 486.12 1050.17 494.66" stroke="black" stroke-width="1.815" stroke-miterlimit="10" stroke-linecap="round" stroke-linejoin="round"/>
<path d="M1063.39 492.93C1063.39 492.93 1047.44 492.22 1043.47 502.59" stroke="black" stroke-width="1.815" stroke-miterlimit="10" stroke-linecap="round" stroke-linejoin="round"/>
<path fill-rule="evenodd" clip-rule="evenodd" d="M1019.38 560.89L982.369 709.7H1016.47L1043.47 620.75L1019.38 560.89Z" fill="#24A865"/>
<path fill-rule="evenodd" clip-rule="evenodd" d="M1016.47 709.7L1007.36 738.26H967.43C967.43 738.26 968.34 734.28 976.47 731.54C984.6 728.8 991.31 721.89 992.63 717.31C993.95 712.74 994.56 709.7 994.56 709.7H1016.47Z" fill="#FFC7BF"/>
<path fill-rule="evenodd" clip-rule="evenodd" d="M922.949 545.31C922.949 545.31 916.489 547.48 917.199 551.77C917.909 556.06 921.199 560.3 923.069 561.63C924.939 562.96 933.819 565.21 934.039 557.47C934.259 549.73 928.819 543.36 928.819 543.36L922.949 545.31Z" fill="white"/>
<path fill-rule="evenodd" clip-rule="evenodd" d="M949 679.3H900.93V715.14C900.93 721.27 903.36 727.15 907.7 731.49C912.04 735.83 917.92 738.26 924.05 738.26H925.87C932 738.26 937.88 735.82 942.22 731.49C946.55 727.15 948.99 721.27 948.99 715.14V679.3H949Z" fill="#4FB3F6"/>
<path d="M924.97 679.3V496.33" stroke="#FF341A" stroke-width="1.815" stroke-miterlimit="10" stroke-linecap="round" stroke-linejoin="round"/>
<path d="M937.01 489.01H912.93V496.33H937.01V489.01Z" fill="#FF341A"/>
<path fill-rule="evenodd" clip-rule="evenodd" d="M1010.22 436.07C1002.88 439.84 1002.48 449.76 1005.06 453.93C1007.64 458.1 1015.18 464.65 1022.72 461.27C1030.26 457.9 1031.65 449.16 1029.07 443.61C1026.5 438.05 1017.57 432.3 1010.22 436.07Z" fill="white"/>
<path fill-rule="evenodd" clip-rule="evenodd" d="M1005.46 452.76C1005.46 452.76 1001.64 454.91 1002.76 457.86C1003.88 460.81 1008.68 457.93 1008.68 457.93L1005.46 452.76Z" fill="#FF341A"/>
<path fill-rule="evenodd" clip-rule="evenodd" d="M1028.47 444.77C1028.47 444.77 1033.23 443.23 1034.14 446.18C1035.05 449.13 1030.21 450.73 1030.21 450.73L1028.47 444.77Z" fill="#FF341A"/>
<path fill-rule="evenodd" clip-rule="evenodd" d="M1008.61 458.02L1030.27 450.7C1030.27 450.7 1030.57 447.37 1028.52 442.58C1026.47 437.79 1017.29 432.83 1011.97 435.36C1006.65 437.89 1001.3 445.28 1004.23 452.1C1007.17 458.92 1008.61 458.02 1008.61 458.02Z" fill="#FF341A"/>
<path fill-rule="evenodd" clip-rule="evenodd" d="M1020.65 461.96C1020.65 461.96 1022.82 465.73 1024.04 465.22C1025.26 464.71 1024.66 460.21 1024.66 460.21L1020.65 461.96Z" fill="white"/>
<path fill-rule="evenodd" clip-rule="evenodd" d="M928.829 543.36C928.829 541.91 928.389 540.28 926.929 540.28C925.479 540.28 923.499 543.03 923.029 544.96C922.459 547.3 922.509 549.49 925.209 550.27C927.919 551.05 928.829 544.81 928.829 543.36Z" fill="white"/>
<path fill-rule="evenodd" clip-rule="evenodd" d="M1297.16 460.47C1297.16 460.47 1296.06 448.99 1303.99 444.31C1311.92 439.64 1324.92 438.72 1333.46 448.17C1342 457.62 1335.19 466.46 1335.19 466.46L1315.22 463.31L1297.16 460.47Z" fill="#FF341A"/>
<path fill-rule="evenodd" clip-rule="evenodd" d="M1315.08 463.3C1315.08 463.3 1318.01 458.95 1322.08 458.95C1326.14 458.95 1330.41 461.19 1335.19 466.47C1339.96 471.75 1357.44 497.46 1359.68 500.92C1361.91 504.37 1363.64 513.11 1360.08 515.86C1364.86 522.38 1370.68 531.65 1371.88 544.35C1373.08 557.05 1374.26 618.18 1374.26 618.18H1317.43V571.89C1317.43 566.94 1313.72 558.84 1312.13 557.36C1311.55 551.69 1297.11 502.5 1297.11 502.5C1297.11 502.5 1290.21 486.91 1294.53 478.78C1298.85 470.65 1301.4 469.36 1301.4 469.36L1315.08 463.3Z" fill="#FEDD8E"/>
<path d="M1305.02 470.74L1310.48 476.29" stroke="black" stroke-width="1.815" stroke-miterlimit="10" stroke-linecap="round" stroke-linejoin="round"/>
<path d="M1320.82 476.87L1333.68 492.24" stroke="black" stroke-width="1.815" stroke-miterlimit="10" stroke-linecap="round" stroke-linejoin="round"/>
<path fill-rule="evenodd" clip-rule="evenodd" d="M1306.19 452.68C1311.17 452.68 1315.22 456.73 1315.22 461.71C1315.22 466.69 1311.17 470.74 1306.19 470.74C1301.21 470.74 1297.16 466.69 1297.16 461.71C1297.16 456.72 1301.2 452.68 1306.19 452.68Z" fill="#8D1A00"/>
<path d="M1347.24 500.88C1347.24 500.88 1338.92 495.16 1333.68 492.24C1328.44 489.32 1320.62 488.35 1316.58 491.26" stroke="black" stroke-width="1.815" stroke-miterlimit="10" stroke-linecap="round" stroke-linejoin="round"/>
<path fill-rule="evenodd" clip-rule="evenodd" d="M1299.46 502.5C1299.46 501.11 1300.37 499.48 1303.04 498.64C1305.71 497.79 1316.12 490.47 1316.12 490.47C1316.12 490.47 1324.12 494.01 1322.98 502.51H1299.46V502.5Z" fill="#8D1A00"/>
<path d="M1331.68 511.35C1331.68 511.35 1341.08 517.7 1344.39 519.72C1347.71 521.74 1356.11 520.5 1360.08 515.86" stroke="black" stroke-width="1.815" stroke-miterlimit="10" stroke-linecap="round" stroke-linejoin="round"/>
<path fill-rule="evenodd" clip-rule="evenodd" d="M1372.72 618.18C1372.72 618.18 1367.48 705.5 1365.57 715.66H1347.47L1340.96 618.18H1372.72Z" fill="#8D1A00"/>
<path fill-rule="evenodd" clip-rule="evenodd" d="M1297.16 462.45C1297.16 462.45 1303.05 460.32 1305.02 457.29C1307.39 459.49 1310.12 462.45 1310.12 462.45C1310.12 462.45 1309.72 458.95 1310.82 458.15C1311.92 457.35 1314.73 458.78 1314.73 458.78C1314.73 458.78 1316.24 457.66 1315.85 454.66C1315.45 451.66 1307.56 448.9 1303.6 450.03C1299.63 451.17 1295.88 455.66 1297.16 462.45Z" fill="#FF341A"/>
<path fill-rule="evenodd" clip-rule="evenodd" d="M1322.07 618.18C1322.07 618.18 1329.53 708.83 1330.17 715.66H1347.48L1340.97 618.18H1322.07Z" fill="#8D1A00"/>
<path fill-rule="evenodd" clip-rule="evenodd" d="M1330.17 715.66C1330.6 718.71 1331.65 726.36 1327.59 728.96C1323.52 731.56 1316.45 734.04 1316.13 738.13H1346.7L1347.48 715.67C1347.48 715.66 1340.64 715.66 1330.17 715.66Z" fill="#FFC7BF"/>
<path fill-rule="evenodd" clip-rule="evenodd" d="M1364.72 715.66V738.12H1334.77C1334.77 738.12 1334.03 733.75 1339.11 731.41C1344.19 729.07 1348.01 723.88 1347.48 715.65C1350.29 715.66 1364.72 715.66 1364.72 715.66Z" fill="#FFC7BF"/>
<path d="M1334.74 738.13C1334.74 738.13 1335.81 733.41 1339.68 731.15C1343.55 728.89 1347.81 727.16 1347.48 715.67" stroke="#8D1A00" stroke-width="1.6667" stroke-miterlimit="10" stroke-linecap="round" stroke-linejoin="round"/>
<path d="M1340.97 618.18L1347.48 715.66" stroke="black" stroke-width="1.6667" stroke-miterlimit="10" stroke-linecap="round" stroke-linejoin="round"/>
<path fill-rule="evenodd" clip-rule="evenodd" d="M1305.48 341.72H1457.58L1421.55 305.69L1497.16 230.08L1574.84 307.75L1499.23 383.36L1473.24 357.37H1376.07L1365.73 408.17L1305.48 341.72Z" fill="#4FB3F6"/>
<path d="M1529.6 425.027C1536.1 424.777 1541.17 419.3 1540.92 412.793C1540.67 406.286 1535.2 401.214 1528.69 401.464C1522.18 401.714 1517.11 407.192 1517.36 413.698C1517.61 420.205 1523.09 425.278 1529.6 425.027Z" fill="#8D1A00"/>
<path fill-rule="evenodd" clip-rule="evenodd" d="M1541.3 512.28H1509.87L1492.34 658.16H1544.94C1544.94 658.16 1544.94 639.97 1542.29 621.77C1539.64 603.58 1543.61 572.48 1546.92 560.57C1550.23 548.66 1548.9 529.15 1541.3 512.28Z" fill="#4FB3F6"/>
<path fill-rule="evenodd" clip-rule="evenodd" d="M1509.87 512.28C1510.13 511.11 1509.96 498.72 1509.99 493.46C1510.03 488.2 1508.77 480.35 1506.6 475.88C1504.43 471.41 1504.3 449.59 1507.69 440.79H1512.29V417.21H1528.01C1528.01 417.21 1536.02 449.14 1538.39 457.44C1540.76 465.74 1540.59 469.3 1540.59 475.56V512.28H1509.87Z" fill="#FF341A"/>
<path fill-rule="evenodd" clip-rule="evenodd" d="M1496.89 658.16L1494.57 679.49H1512.77L1515.92 658.16H1496.89Z" fill="white"/>
<path fill-rule="evenodd" clip-rule="evenodd" d="M1512.77 679.49H1494.57L1489.42 726.72C1480.74 730.81 1475.63 734.91 1473.3 739H1503.98L1512.77 679.49Z" fill="#BDC7FB"/>
<path fill-rule="evenodd" clip-rule="evenodd" d="M1522.83 658.16L1526.37 680.84L1546.23 680.47L1543.65 658.16H1522.83Z" fill="white"/>
<path fill-rule="evenodd" clip-rule="evenodd" d="M1533.45 726.23L1526.37 680.84H1546.27L1552.97 739H1521.87C1524.98 732.63 1528.9 728.55 1533.45 726.23Z" fill="#BDC7FB"/>
<path d="M1520.48 438.74L1521.88 455" stroke="#8D1A00" stroke-width="1.815" stroke-miterlimit="10" stroke-linecap="round" stroke-linejoin="round"/>
<path d="M1511.39 440.78V446.87" stroke="#8D1A00" stroke-width="1.815" stroke-miterlimit="10" stroke-linecap="round" stroke-linejoin="round"/>
<path fill-rule="evenodd" clip-rule="evenodd" d="M1513.6 417.21C1513.6 407.94 1513.77 378.48 1514.45 367.13C1515.13 355.78 1517.99 347.09 1518.24 344.56C1518.49 342.02 1518.55 328.02 1523.51 328.02C1528.47 328.02 1527.6 333.28 1527.66 335.39C1527.72 337.49 1530.45 334.34 1531.69 335.64C1532.93 336.94 1527.04 342.14 1526.49 345.8C1525.94 349.45 1528.04 417.22 1528.04 417.22H1513.6V417.21Z" fill="#FFC7BF"/>
<path fill-rule="evenodd" clip-rule="evenodd" d="M1512.3 417.21C1507.33 417.21 1502.98 419.91 1502.11 425.06C1500.91 428.81 1500.57 430.94 1501.62 433.22C1502.74 435.65 1504.92 436.8 1507.63 437.29V440.79H1512.3V417.21Z" fill="#FFC7BF"/>
<path fill-rule="evenodd" clip-rule="evenodd" d="M1502.11 425.06L1498 429H1501.1L1502.11 425.06Z" fill="#FFC7BF"/>
<path fill-rule="evenodd" clip-rule="evenodd" d="M1508.13 374.01V417.91L1512.3 417.21H1513.6L1514.41 367.69L1508.13 374.01Z" fill="#FFC7BF"/>
<path fill-rule="evenodd" clip-rule="evenodd" d="M1497.16 230.08C1497.16 230.08 1506.98 220.26 1513.91 213.32C1517.63 209.61 1523.64 209.61 1527.36 213.32C1536.38 222.34 1552.3 238.26 1561.32 247.28C1565.03 251 1565.03 257.01 1561.32 260.73C1554.38 267.67 1544.56 277.49 1544.56 277.49L1537.92 270.84C1537.92 270.84 1547.65 261.11 1551.91 256.85C1552.99 255.77 1552.99 254.02 1551.91 252.94C1545.96 246.99 1528.1 229.13 1522.15 223.18C1521.07 222.1 1519.32 222.1 1518.24 223.18C1513.98 227.44 1504.25 237.17 1504.25 237.17L1497.16 230.08Z" fill="#BDC7FB"/>
<path d="M1376.07 357.37L1360.41 341.72" stroke="black" stroke-width="1.815" stroke-miterlimit="10" stroke-linecap="round" stroke-linejoin="round"/>
<path d="M1308.35 344.89C1308.35 344.89 1204.6 383.62 1204.6 502.5" stroke="#4FB3F6" stroke-width="1.815" stroke-miterlimit="10" stroke-linecap="round" stroke-linejoin="round"/>
<path d="M1319.57 357.25C1319.57 357.25 1246.23 390.17 1231.62 502.5" stroke="#4FB3F6" stroke-width="1.815" stroke-miterlimit="10" stroke-linecap="round" stroke-linejoin="round"/>
<path d="M1331.61 370.54C1331.61 370.54 1271.81 408.28 1262.36 502.5" stroke="#4FB3F6" stroke-width="1.815" stroke-miterlimit="10" stroke-linecap="round" stroke-linejoin="round"/>
<path d="M1346.03 386.45C1346.03 386.45 1299.79 423.1 1296.99 502.5" stroke="#4FB3F6" stroke-width="1.815" stroke-miterlimit="10" stroke-linecap="round" stroke-linejoin="round"/>
<path fill-rule="evenodd" clip-rule="evenodd" d="M1512.3 417.21C1505.73 417.21 1503.53 421.41 1503.53 421.41L1512.3 423.67V417.21Z" fill="#8D1A00"/>
<path fill-rule="evenodd" clip-rule="evenodd" d="M1784.09 404.98C1784.09 404.98 1774.74 387.83 1778.57 385.65C1782.4 383.47 1791.59 402.01 1794.37 408.17C1797.15 414.32 1803.57 432.23 1800.54 432.47C1797.51 432.71 1791.09 418.72 1791.09 418.72L1784.09 404.98Z" fill="#FFC7BF"/>
<path fill-rule="evenodd" clip-rule="evenodd" d="M1777.31 432.47C1777.31 432.47 1776.34 429.32 1772.71 427.15C1769.08 424.97 1765.45 421.71 1765.81 417.71C1766.17 413.72 1768.59 409.63 1773.07 408.17C1777.55 406.7 1782.75 405.37 1784.81 405.01C1786.86 404.65 1790.25 407.67 1790.73 410.33C1791.21 412.99 1792.06 418.8 1790.01 421.22C1787.95 423.64 1789.65 427.03 1789.65 427.03L1777.31 432.47Z" fill="#8D1A00"/>
<path fill-rule="evenodd" clip-rule="evenodd" d="M1791.9 402.99C1791.9 402.99 1803.21 399.63 1805.38 404.98C1807.56 410.33 1797.76 416.82 1797.76 416.82L1791.9 402.99Z" fill="#BDC7FB"/>
<path fill-rule="evenodd" clip-rule="evenodd" d="M1778.57 406.53C1778.57 406.53 1775.84 404.02 1774.88 402.86C1773.91 401.7 1774.42 405.82 1775.28 407.48C1776.13 409.15 1778.57 406.53 1778.57 406.53Z" fill="#8D1A00"/>
<path fill-rule="evenodd" clip-rule="evenodd" d="M1777.31 432.47C1774.51 434.86 1766.52 443.45 1763.01 459.78C1759.5 476.11 1746.68 527.28 1746.68 527.28H1798.79L1805.69 499.81C1805.69 499.81 1819.72 527.15 1822.14 530.3C1824.56 528.12 1833.03 525.22 1837.26 526.07C1837.26 520.87 1836.17 517 1833.75 511.67C1831.33 506.35 1811.25 454.33 1809.07 448.88C1806.9 443.44 1801.4 429.13 1796.1 428.05C1790.8 426.98 1789.47 427.09 1789.47 427.09C1789.47 427.09 1781.33 430.33 1777.31 432.47Z" fill="#B9E2FE"/>
<path d="M1805.7 499.82L1784.53 451.06" stroke="black" stroke-width="1.815" stroke-miterlimit="10" stroke-linecap="round" stroke-linejoin="round"/>
<path fill-rule="evenodd" clip-rule="evenodd" d="M1824.39 528.87C1824.39 528.87 1823.04 540.02 1825.75 541.56C1828.46 543.11 1830.59 540.11 1830.59 540.11C1830.59 540.11 1834.17 546.79 1839.2 545.14C1844.23 543.49 1846.36 538.66 1844.23 535.46C1842.1 532.26 1838.91 528.18 1837.26 526.06C1833.69 525.69 1824.39 528.87 1824.39 528.87Z" fill="#8D1A00"/>
<path fill-rule="evenodd" clip-rule="evenodd" d="M1759.41 475.44L1744.91 495.88C1744.91 495.88 1728.1 503.74 1720.11 509.31C1712.13 514.87 1703.66 523.59 1703.66 523.59L1715.76 532.91L1749.04 517.85L1759.41 475.44Z" fill="#4FB3F6"/>
<path fill-rule="evenodd" clip-rule="evenodd" d="M1746.68 527.29C1746.68 527.29 1739.99 564.92 1728.97 592.32C1717.94 619.73 1703.66 685.26 1703.66 685.26L1740.94 701.96C1740.94 701.96 1757.95 650.92 1762.68 638.64C1767.41 626.35 1798.68 539.45 1798.8 527.3H1746.68V527.29Z" fill="#FFC7BF"/>
<path fill-rule="evenodd" clip-rule="evenodd" d="M1769.07 621.2L1801.75 707.63L1834.56 698.81C1834.56 698.81 1812.77 594.6 1791.98 553.93C1788.83 563.34 1769.07 621.2 1769.07 621.2Z" fill="#FF341A"/>
<path fill-rule="evenodd" clip-rule="evenodd" d="M1710.37 688.26L1700.89 707.62C1700.89 707.62 1674.6 703.86 1667.34 701.95C1660.08 700.04 1657.66 705.84 1663.63 709.71C1669.6 713.58 1698.63 738.58 1698.63 738.58H1721.21L1738.21 700.72L1710.37 688.26Z" fill="black"/>
<path fill-rule="evenodd" clip-rule="evenodd" d="M1829.9 700.06C1829.9 700.06 1837.03 729.24 1836.23 738.59H1770.58C1770.58 738.59 1766.87 734.88 1776.23 731.01C1785.58 727.14 1807.04 718.91 1807.04 718.91L1805.65 706.57L1829.9 700.06Z" fill="black"/>
<path d="M1830.59 540.11C1827.49 540.98 1818.1 547.48 1817.79 562.86" stroke="#FFC7BF" stroke-width="1.815" stroke-miterlimit="10" stroke-linecap="round" stroke-linejoin="round"/>
<path d="M1845.06 539.15C1845.06 539.15 1857.74 543.22 1859.08 562.86" stroke="#FFC7BF" stroke-width="1.815" stroke-miterlimit="10" stroke-linecap="round" stroke-linejoin="round"/>
<path fill-rule="evenodd" clip-rule="evenodd" d="M1810.25 562.86H1866.1L1855.78 604.7H1822.23L1810.25 562.86Z" fill="#4FB3F6"/>
<path fill-rule="evenodd" clip-rule="evenodd" d="M1703.66 523.58C1702.46 524.81 1699.17 530.36 1703.66 534.85C1708.15 539.34 1713.79 534.58 1715.76 532.9C1717.73 531.22 1716.54 526.2 1714.43 524.41C1712.3 522.63 1704.85 522.36 1703.66 523.58Z" fill="#8D1A00"/>
<path fill-rule="evenodd" clip-rule="evenodd" d="M1150.42 138.22C1150.42 138.22 1132.28 116.46 1126.56 90.42C1124.02 78.36 1121.96 79.63 1118.94 79.63C1115.92 79.63 1112.12 85.35 1113.94 96.62C1115.76 107.89 1127.83 143.3 1134.18 155.21V199.19H1184.04V156.32C1184.04 156.32 1200.08 132.98 1201.82 115.52C1203.57 98.05 1203.52 87.55 1203.49 82.87C1203.45 78.2 1195.73 76.06 1194.11 84.39C1192.48 92.72 1190.14 127.68 1169.87 139.47C1158.95 139.47 1150.42 138.22 1150.42 138.22Z" fill="#FFC7BF"/>
<path fill-rule="evenodd" clip-rule="evenodd" d="M1156.27 144.92C1156.27 144.92 1156.57 162.75 1160.15 162.75C1163.73 162.75 1164.54 144.68 1164.54 144.68L1156.27 144.92Z" fill="white"/>
<path fill-rule="evenodd" clip-rule="evenodd" d="M1134.18 199.2L1132.1 210.56C1132.1 210.56 1124.64 207.54 1118.6 207.06C1112.57 206.58 1100.66 206.43 1096.85 216.43C1093.04 226.43 1102.09 241.36 1119.08 243.9C1138.93 243.9 1177.11 257.16 1177.11 257.16L1214.74 241.92C1214.74 241.92 1232.52 228.74 1225.54 214.29C1218.55 199.84 1207.39 204.17 1202.11 206.07C1196.84 207.97 1187.43 211.59 1187.43 211.59L1184.04 199.19H1134.18V199.2Z" fill="#4FB3F6"/>
<path d="M1169.82 232.62L1213.21 218.25" stroke="black" stroke-width="1.815" stroke-miterlimit="10" stroke-linecap="round" stroke-linejoin="round"/>
<path fill-rule="evenodd" clip-rule="evenodd" d="M1148.55 238.64C1148.55 238.64 1166.47 233.11 1169.38 231.79C1172.29 230.47 1176.18 235.19 1177.1 241.53C1178.1 248.47 1177.3 254.37 1172.06 255.48C1167.44 252.41 1162.89 248.97 1159.1 245.95C1153.5 241.49 1148.55 238.64 1148.55 238.64Z" fill="#8D1A00"/>
<path d="M1114.6 219.35L1163.94 247.38" stroke="black" stroke-width="1.815" stroke-miterlimit="10" stroke-linecap="round" stroke-linejoin="round"/>
<path d="M1161.58 205.35V222.92" stroke="black" stroke-width="1.815" stroke-miterlimit="10" stroke-linecap="round" stroke-linejoin="round"/>
<path d="M1144.24 214.52L1132.11 210.56" stroke="black" stroke-width="1.815" stroke-miterlimit="10" stroke-linecap="round" stroke-linejoin="round"/>
<path d="M1174.63 215.62L1186.76 211.66" stroke="black" stroke-width="1.815" stroke-miterlimit="10" stroke-linecap="round" stroke-linejoin="round"/>
<path fill-rule="evenodd" clip-rule="evenodd" d="M1161.58 200.4C1163.57 200.4 1165.19 202.02 1165.19 204.01C1165.19 206 1163.57 207.61 1161.58 207.61C1159.59 207.61 1157.97 205.99 1157.97 204.01C1157.97 202.01 1159.59 200.4 1161.58 200.4Z" fill="black"/>
<path fill-rule="evenodd" clip-rule="evenodd" d="M1115.89 81.57C1115.89 81.57 1111.02 77.28 1110.56 72.7C1110.1 68.12 1112.56 65.71 1115.01 65.79C1117.46 65.87 1120.76 73.11 1120.76 73.11C1120.76 73.11 1124.84 69.99 1126.54 71.49C1128.25 72.99 1122.96 80.64 1122.96 80.64L1115.89 81.57Z" fill="#8D1A00"/>
<path fill-rule="evenodd" clip-rule="evenodd" d="M1203.3 81.57C1203.3 81.57 1208.17 77.28 1208.62 72.7C1209.07 68.12 1206.62 65.71 1204.17 65.79C1201.72 65.87 1198.43 73.11 1198.43 73.11C1198.43 73.11 1194.35 69.99 1192.64 71.49C1190.94 72.99 1196.22 80.64 1196.22 80.64L1203.3 81.57Z" fill="#8D1A00"/>
<path d="M1168.38 141.174C1171.2 136.603 1169.79 130.607 1165.21 127.782C1160.64 124.957 1154.65 126.373 1151.82 130.944C1149 135.515 1150.41 141.51 1154.98 144.335C1159.56 147.16 1165.55 145.745 1168.38 141.174Z" fill="#8D1A00"/>
<path fill-rule="evenodd" clip-rule="evenodd" d="M1160.15 109.52C1164.77 109.52 1168.53 113.27 1168.53 117.89C1168.53 122.51 1164.78 126.26 1160.15 126.26C1155.53 126.26 1151.78 122.51 1151.78 117.89C1151.77 113.28 1155.53 109.52 1160.15 109.52Z" fill="black"/>
<path d="M1331.61 502.5H998.469V553.66H1331.61V502.5Z" fill="#FF341A"/>
<path fill-rule="evenodd" clip-rule="evenodd" d="M1313.62 553.66H1016.47C1016.47 553.66 1066.8 678.72 1084.6 722.97C1088.32 732.21 1097.28 738.26 1107.23 738.26H1222.84C1232.8 738.26 1241.76 732.21 1245.47 722.97C1263.29 678.72 1313.62 553.66 1313.62 553.66Z" fill="#FF341A"/>
<path fill-rule="evenodd" clip-rule="evenodd" d="M1165.05 589.07L1209.82 638.69H1120.27L1165.05 589.07Z" fill="#FFC7BF"/>
<path d="M1170.86 626.42H1159.23V681.47H1170.86V626.42Z" fill="#FFC7BF"/>
<path fill-rule="evenodd" clip-rule="evenodd" d="M1029.91 244.17H1144.78C1157.43 244.17 1192.31 246.9 1192.31 284.61C1192.31 322.32 1170.72 331.99 1159.36 331.99C1148 331.99 1119.96 335.96 1103.09 289.81C1086.22 243.67 1029.91 244.17 1029.91 244.17Z" fill="#24A865"/>
<path d="M1115.57 244.17C1129.84 244.17 1166.84 268.07 1171.13 329.06C1173.25 351.91 1165.02 370.83 1159.06 373.62" stroke="black" stroke-width="1.815" stroke-miterlimit="10" stroke-linecap="round" stroke-linejoin="round"/>
<path fill-rule="evenodd" clip-rule="evenodd" d="M1029.91 244.17C1008.82 244.17 982.279 261.29 982.279 282.13C982.279 302.97 1011.8 314.88 1025.7 315.87C1039.59 316.86 1065.64 318.85 1091.45 269.97C1078.53 252.18 1051 244.17 1029.91 244.17Z" fill="#9CE8C2"/>
<path fill-rule="evenodd" clip-rule="evenodd" d="M1294.62 240.45H1208.68C1196.87 240.45 1171.81 252.11 1165.86 284.86C1159.91 317.61 1175.33 328.53 1192.3 328.53C1209.28 328.53 1228.11 323.05 1243.51 291.31C1258.75 259.93 1275.15 240.45 1294.62 240.45Z" fill="#9CE8C2"/>
<path fill-rule="evenodd" clip-rule="evenodd" d="M1245.09 288.12C1245.09 288.12 1259.4 294.78 1269.07 307.68C1278.75 320.58 1315.47 329.02 1330.85 301.98C1346.23 274.93 1329.36 257.32 1321.67 250.13C1313.98 242.93 1300.83 240.45 1294.62 240.45C1262.12 240.45 1245.09 288.12 1245.09 288.12Z" fill="#24A865"/>
<path d="M1159.06 332.08V502.5" stroke="black" stroke-width="1.815" stroke-miterlimit="10" stroke-linecap="round" stroke-linejoin="round"/>
<path d="M1251.41 240.45C1239.94 240.45 1210.74 256.76 1192.31 328.53C1185.66 352.23 1174.64 390.06 1159.06 399.68" stroke="black" stroke-width="1.815" stroke-miterlimit="10" stroke-linecap="round" stroke-linejoin="round"/>
<path fill-rule="evenodd" clip-rule="evenodd" d="M1123.2 353.06C1111.89 350.68 1093.23 354.05 1095.81 361.99C1098.39 369.93 1112.09 361.59 1118.04 364.77C1123.99 367.95 1130.74 376.51 1136.69 373.62C1142.65 370.73 1134.52 355.44 1123.2 353.06Z" fill="#24A865"/>
<path d="M1124.9 353.52C1124.9 353.52 1140.27 359.82 1147.22 374.2C1154.17 388.58 1159.06 387.79 1159.06 387.79" stroke="black" stroke-width="1.815" stroke-miterlimit="10" stroke-linecap="round" stroke-linejoin="round"/>
<path fill-rule="evenodd" clip-rule="evenodd" d="M1159.06 482.47C1159.06 482.47 1171.7 437.81 1192.31 437.81C1212.92 437.81 1188.9 468.97 1182.75 476.51C1176.6 484.05 1160.99 499.93 1159.07 490.6C1159.06 481.28 1159.06 482.47 1159.06 482.47Z" fill="#24A865"/>
<path fill-rule="evenodd" clip-rule="evenodd" d="M1159.06 482.47C1159.06 482.47 1146.43 437.81 1125.82 437.81C1105.21 437.81 1129.23 468.97 1135.38 476.51C1141.53 484.05 1157.15 499.93 1159.06 490.6C1159.06 481.28 1159.06 482.47 1159.06 482.47Z" fill="#9CE8C2"/>
<path fill-rule="evenodd" clip-rule="evenodd" d="M1016.47 553.66H1313.62L1308.62 566.08H1021.47L1016.47 553.66Z" fill="black"/>
<path fill-rule="evenodd" clip-rule="evenodd" d="M1201.19 735.53C2345.27 735.53 2402.52 737.04 2402.52 738.91C2402.52 740.77 2347.41 742.29 1201.19 742.29C54.9694 742.29 -0.140625 740.78 -0.140625 738.91C-0.140625 737.05 57.0994 735.53 1201.19 735.53Z" fill="black"/>
</g>
<defs>
<clipPath id="clip0_450:22942">
<rect width="2403" height="742" fill="white"/>
</clipPath>
</defs>
</svg>
