<svg width="2856" height="800" viewBox="0 0 2856 800" fill="none" xmlns="http://www.w3.org/2000/svg">
<path fill-rule="evenodd" clip-rule="evenodd" d="M1212.29 597.86L1146.61 800H1200.7L1345.6 694.72L1379.81 800H1476.19L1510.4 694.72L1655.3 800H1709.39L1643.71 597.86H1910.35L1694.64 441.13L1910.35 284.41H1643.71L1726.11 30.82L1510.4 187.55L1449.46 0H1406.54L1345.6 187.55L1129.89 30.82L1212.29 284.41H945.65L1161.36 441.13L945.65 597.86H1212.29Z" fill="#FFFAF0"/>
<path d="M1428 613.16C1520.5 613.16 1595.49 538.172 1595.49 445.67C1595.49 353.168 1520.5 278.18 1428 278.18C1335.5 278.18 1260.51 353.168 1260.51 445.67C1260.51 538.172 1335.5 613.16 1428 613.16Z" fill="#FFC7BF"/>
<path d="M1327.28 464.08C1373.68 482.73 1412.61 511.81 1438.42 564.28C1449.35 457.79 1488.82 363.98 1562.85 297.58" stroke="#FF341A" stroke-width="43.0692" stroke-miterlimit="10" stroke-linecap="round" stroke-linejoin="round"/>
<path fill-rule="evenodd" clip-rule="evenodd" d="M1587.1 272.58L1634.9 62.55L1797.12 224.77L1587.1 272.58Z" fill="#FFC7BF"/>
<path fill-rule="evenodd" clip-rule="evenodd" d="M1587.1 272.58L1606.07 189.23L1670.45 253.6L1587.1 272.58Z" fill="#FF341A"/>
<path fill-rule="evenodd" clip-rule="evenodd" d="M1697.11 0L1634.78 62.33L1797.18 224.74L2021.92 0H1697.11Z" fill="#FBBE2E"/>
<path fill-rule="evenodd" clip-rule="evenodd" d="M1798.55 0L1685.5 113.05L1746.46 174.02L1920.48 0H1798.55Z" fill="#FF341A"/>
<path fill-rule="evenodd" clip-rule="evenodd" d="M1012.14 462.04L1126.85 644.36H897.44L1012.14 462.04Z" fill="#FFC7BF"/>
<path fill-rule="evenodd" clip-rule="evenodd" d="M1012.14 462.04L1057.67 534.4H966.62L1012.14 462.04Z" fill="#FF341A"/>
<path d="M1127.09 644.42H897.42V800H1127.09V644.42Z" fill="#FBBE2E"/>
<path d="M1051.27 644.42H973.25V800H1051.27V644.42Z" fill="#FF341A"/>
<path fill-rule="evenodd" clip-rule="evenodd" d="M2278.34 379.34L2205.75 516.87L2122.93 373.43L2278.34 379.34Z" fill="#FFFAF0"/>
<path fill-rule="evenodd" clip-rule="evenodd" d="M2278.34 379.34L2249.53 433.92L2216.66 376.99L2278.34 379.34Z" fill="#FF341A"/>
<path d="M2122.83 373.421L1792.3 564.256L1875.21 707.856L2205.74 517.022L2122.83 373.421Z" fill="#FBBE2E"/>
<path d="M2150.65 421.614L1820.13 612.449L1847.4 659.681L2177.92 468.846L2150.65 421.614Z" fill="#FF341A"/>
<path d="M1833.75 540.264L1792.29 564.199L1875.2 707.799L1916.66 683.864L1833.75 540.264Z" fill="#0C114D"/>
<path fill-rule="evenodd" clip-rule="evenodd" d="M1781.43 682.74C1800.4 715.59 1842.41 726.85 1875.26 707.88L1792.35 564.27C1776.57 573.38 1765.06 588.38 1760.35 605.98C1755.63 623.58 1758.1 642.33 1767.21 658.1C1771.91 666.25 1776.73 674.6 1781.43 682.74Z" fill="#FFC7BF"/>
<path fill-rule="evenodd" clip-rule="evenodd" d="M679.38 55.2999L736.04 162.67L800.69 50.6899L679.38 55.2999Z" fill="#FFFAF0"/>
<path fill-rule="evenodd" clip-rule="evenodd" d="M679.38 55.3L701.87 97.91L727.53 53.47L679.38 55.3Z" fill="#FF341A"/>
<path d="M800.731 50.7273L736.006 162.831L994.031 311.806L1058.76 199.702L800.731 50.7273Z" fill="#FBBE2E"/>
<path d="M779.003 88.339L757.718 125.205L1015.75 274.185L1037.04 237.319L779.003 88.339Z" fill="#FF341A"/>
<path d="M1026.42 181.036L961.692 293.139L994.055 311.824L1058.78 199.721L1026.42 181.036Z" fill="#0C114D"/>
<path fill-rule="evenodd" clip-rule="evenodd" d="M1067.3 292.16C1052.49 317.81 1019.7 326.59 994.05 311.79L1058.78 199.68C1084.43 214.48 1093.22 247.28 1078.41 272.93C1074.73 279.28 1070.96 285.8 1067.3 292.16Z" fill="#FFC7BF"/>
<path fill-rule="evenodd" clip-rule="evenodd" d="M463.03 166.65L344.66 193.59L436.09 285.02L463.03 166.65Z" fill="#FFFAF0"/>
<path fill-rule="evenodd" clip-rule="evenodd" d="M463.03 166.65L416.05 177.34L452.34 213.63L463.03 166.65Z" fill="#FF341A"/>
<path d="M344.534 193.521L133.846 404.209L225.38 495.743L436.068 285.055L344.534 193.521Z" fill="#FBBE2E"/>
<path d="M375.25 224.237L164.562 434.924L194.664 465.026L405.351 254.338L375.25 224.237Z" fill="#FF341A"/>
<path d="M160.269 377.781L133.845 404.205L225.379 495.739L251.803 469.315L160.269 377.781Z" fill="#0C114D"/>
<path fill-rule="evenodd" clip-rule="evenodd" d="M133.85 480.04C112.91 459.1 112.91 425.15 133.85 404.2L225.39 495.74C204.45 516.68 170.5 516.68 149.55 495.74C144.36 490.56 139.03 485.23 133.85 480.04Z" fill="#FFC7BF"/>
<path fill-rule="evenodd" clip-rule="evenodd" d="M2385.88 78.3201L2412.83 196.7L2504.26 105.27L2385.88 78.3201Z" fill="#FFFAF0"/>
<path d="M2504.28 105.315L2412.75 196.849L2623.43 407.53L2714.96 315.995L2504.28 105.315Z" fill="#FBBE2E"/>
<path d="M2473.56 136.024L2443.46 166.125L2654.14 376.813L2684.24 346.712L2473.56 136.024Z" fill="#FF341A"/>
<path d="M2688.59 289.634L2597.06 381.167L2623.48 407.592L2715.02 316.058L2688.59 289.634Z" fill="#0C114D"/>
<path fill-rule="evenodd" clip-rule="evenodd" d="M2699.28 407.51C2678.34 428.45 2644.38 428.45 2623.44 407.51L2714.97 315.97C2735.91 336.91 2735.91 370.87 2714.97 391.81C2709.8 396.99 2704.47 402.32 2699.28 407.51Z" fill="#FFC7BF"/>
<path fill-rule="evenodd" clip-rule="evenodd" d="M2385.88 78.3201L2396.58 125.3L2432.87 89.0101L2385.88 78.3201Z" fill="#FF341A"/>
<path fill-rule="evenodd" clip-rule="evenodd" d="M2470.67 448.86L2434.3 506.68H2507.05L2470.67 448.86Z" fill="#FFFAF0"/>
<path d="M2507.05 506.7H2434.22V674.34H2507.05V506.7Z" fill="#FBBE2E"/>
<path d="M2482.61 506.7H2458.66V674.34H2482.61V506.7Z" fill="#FF341A"/>
<path d="M2507.05 653.32H2434.22V674.35H2507.05V653.32Z" fill="#0C114D"/>
<path fill-rule="evenodd" clip-rule="evenodd" d="M2464.39 704.51C2447.73 704.51 2434.22 691 2434.22 674.34H2507.05C2507.05 691 2493.55 704.51 2476.88 704.51H2464.39Z" fill="#FFC7BF"/>
<path fill-rule="evenodd" clip-rule="evenodd" d="M2470.67 448.86L2456.24 471.81H2485.11L2470.67 448.86Z" fill="#FF341A"/>
<path fill-rule="evenodd" clip-rule="evenodd" d="M553.67 404.21L517.3 462.02H590.05L553.67 404.21Z" fill="#FFFAF0"/>
<path d="M590.05 462.04H517.22V629.68H590.05V462.04Z" fill="#FBBE2E"/>
<path d="M565.61 462.04H541.66V629.68H565.61V462.04Z" fill="#FF341A"/>
<path d="M590.05 608.66H517.22V629.69H590.05V608.66Z" fill="#0C114D"/>
<path fill-rule="evenodd" clip-rule="evenodd" d="M547.39 659.86C530.73 659.86 517.22 646.35 517.22 629.69H590.05C590.05 646.35 576.55 659.86 559.88 659.86H547.39Z" fill="#FFC7BF"/>
<path fill-rule="evenodd" clip-rule="evenodd" d="M553.67 404.21L539.24 427.15H568.11L553.67 404.21Z" fill="#FF341A"/>
</svg>
