<svg width="800" height="800" viewBox="0 0 800 800" fill="none" xmlns="http://www.w3.org/2000/svg">
<g clip-path="url(#clip0_459:18052)">
<path fill-rule="evenodd" clip-rule="evenodd" d="M400.036 0C479.158 1.2539e-06 556.504 23.4635 622.291 67.4231C688.078 111.383 739.351 173.864 769.627 246.965C799.903 320.066 807.821 400.504 792.379 478.105C776.938 555.706 738.831 626.986 682.878 682.929C626.925 738.872 555.639 776.966 478.035 792.393C400.431 807.821 319.995 799.888 246.899 769.6C173.804 739.311 111.331 688.027 67.3835 622.232C23.4356 556.437 -0.0140799 479.087 6.3425e-06 399.964C0.0566318 293.892 42.2236 192.182 117.235 117.184C192.246 42.1866 293.963 0.0377397 400.036 0V0Z" fill="#B9E2FE"/>
<path fill-rule="evenodd" clip-rule="evenodd" d="M345.34 393.911C356.154 393.911 366.726 397.117 375.72 403.124C384.713 409.131 391.723 417.669 395.865 427.659C400.007 437.649 401.094 448.643 398.99 459.251C396.885 469.859 391.683 479.605 384.041 487.258C376.398 494.91 366.659 500.125 356.054 502.243C345.449 504.362 334.453 503.289 324.458 499.16C314.462 495.031 305.915 488.031 299.896 479.046C293.878 470.061 290.658 459.493 290.644 448.678C290.634 441.489 292.042 434.369 294.787 427.725C297.531 421.081 301.559 415.043 306.638 409.956C311.718 404.87 317.751 400.834 324.392 398.081C331.033 395.328 338.151 393.911 345.34 393.911Z" fill="#FBBE2E"/>
<path d="M454.66 503.303C484.868 503.303 509.356 478.815 509.356 448.607C509.356 418.399 484.868 393.911 454.66 393.911C424.452 393.911 399.964 418.399 399.964 448.607C399.964 478.815 424.452 503.303 454.66 503.303Z" fill="#FBBE2E"/>
<path fill-rule="evenodd" clip-rule="evenodd" d="M60.3936 503.232V463.99L329.458 396.261L345.34 503.232H60.3936Z" fill="#8D1A00"/>
<path d="M400.036 463.99H60.3936V628.363H400.036V463.99Z" fill="#8D1A00"/>
<path d="M739.678 463.99H400.035V628.363H739.678V463.99Z" fill="#8D1A00"/>
<path fill-rule="evenodd" clip-rule="evenodd" d="M739.606 503.232V463.99L470.542 396.261L454.66 503.232H739.606Z" fill="#8D1A00"/>
<path d="M392.878 658.702H47.5384C43.5854 658.702 40.3809 661.906 40.3809 665.859C40.3809 669.812 43.5854 673.017 47.5384 673.017H392.878C396.831 673.017 400.035 669.812 400.035 665.859C400.035 661.906 396.831 658.702 392.878 658.702Z" fill="#FBBE2E"/>
<path d="M753 659H392C388.134 659 385 662.134 385 666C385 669.866 388.134 673 392 673H753C756.866 673 760 669.866 760 666C760 662.134 756.866 659 753 659Z" fill="#FBBE2E"/>
<path d="M417.057 673.088H382.943C378.97 673.088 375.75 676.293 375.75 680.246C375.75 684.199 378.97 687.403 382.943 687.403H417.057C421.029 687.403 424.25 684.199 424.25 680.246C424.25 676.293 421.029 673.088 417.057 673.088Z" fill="#FBBE2E"/>
<path fill-rule="evenodd" clip-rule="evenodd" d="M345.34 549.381C356.157 549.381 366.732 552.589 375.727 558.599C384.722 564.609 391.732 573.151 395.872 583.146C400.012 593.14 401.095 604.138 398.985 614.748C396.874 625.358 391.665 635.104 384.015 642.753C376.366 650.402 366.62 655.612 356.01 657.722C345.4 659.833 334.403 658.749 324.408 654.61C314.414 650.47 305.872 643.459 299.861 634.465C293.851 625.47 290.644 614.895 290.644 604.077C290.644 589.571 296.406 575.659 306.664 565.401C316.921 555.144 330.833 549.381 345.34 549.381Z" fill="black"/>
<path d="M454.66 658.773C484.868 658.773 509.356 634.285 509.356 604.077C509.356 573.869 484.868 549.381 454.66 549.381C424.452 549.381 399.964 573.869 399.964 604.077C399.964 634.285 424.452 658.773 454.66 658.773Z" fill="black"/>
<path fill-rule="evenodd" clip-rule="evenodd" d="M60.3936 658.773V619.46L329.458 551.731L345.34 658.773H60.3936Z" fill="black"/>
<path fill-rule="evenodd" clip-rule="evenodd" d="M739.606 658.773V619.46L470.542 551.731L454.66 658.773H739.606Z" fill="black"/>
<path fill-rule="evenodd" clip-rule="evenodd" d="M337.861 393.911H78.4116V551.518H361.791L337.861 393.911Z" fill="#163BF3"/>
<path fill-rule="evenodd" clip-rule="evenodd" d="M721.588 393.911H467.907L438.137 551.518H721.588V393.911Z" fill="#163BF3"/>
<path d="M502.021 604.077H300.044V658.773H502.021V604.077Z" fill="black"/>
<path fill-rule="evenodd" clip-rule="evenodd" d="M134.176 291.997V447.467L367.489 554.295C367.489 554.295 400.036 570.248 400.036 604.149V448.678C400.036 418.695 381.804 407.229 367.489 398.825C353.174 390.421 134.176 291.997 134.176 291.997Z" fill="white"/>
<path fill-rule="evenodd" clip-rule="evenodd" d="M665.468 291.997V447.467L432.155 554.295C432.155 554.295 399.608 570.248 399.608 604.149V448.678C399.608 418.695 417.84 407.229 432.155 398.825C446.47 390.421 665.468 291.997 665.468 291.997Z" fill="white"/>
<path d="M192.789 342.847L341.351 410.149" stroke="#FBBE2E" stroke-width="3" stroke-linecap="round" stroke-linejoin="round"/>
<path d="M606.855 342.847L458.292 410.149" stroke="#FBBE2E" stroke-width="3" stroke-linecap="round" stroke-linejoin="round"/>
<path d="M192.789 378.614L341.351 445.915" stroke="#FBBE2E" stroke-width="3" stroke-linecap="round" stroke-linejoin="round"/>
<path d="M606.855 379.614L458.292 446.915" stroke="#FBBE2E" stroke-width="3" stroke-linecap="round" stroke-linejoin="round"/>
<path d="M192.789 425.033L341.351 492.335" stroke="#FBBE2E" stroke-width="3" stroke-linecap="round" stroke-linejoin="round"/>
<path d="M606.855 425.033L458.292 492.335" stroke="#FBBE2E" stroke-width="3" stroke-linecap="round" stroke-linejoin="round"/>
<path d="M400.035 145.073V282.881" stroke="black" stroke-width="3" stroke-linecap="round" stroke-linejoin="round"/>
<path d="M275.189 213.941L312.579 270.275" stroke="black" stroke-width="3" stroke-linecap="round" stroke-linejoin="round"/>
<path d="M524.739 213.941L487.35 270.275" stroke="black" stroke-width="3" stroke-linecap="round" stroke-linejoin="round"/>
</g>
<defs>
<clipPath id="clip0_459:18052">
<rect width="800" height="800" fill="white"/>
</clipPath>
</defs>
</svg>
