<svg width="1396" height="841" viewBox="0 0 1396 841" fill="none" xmlns="http://www.w3.org/2000/svg">
<path fill-rule="evenodd" clip-rule="evenodd" d="M697.658 800.526C1362.1 800.526 1395.32 803.553 1395.32 807.243C1395.32 810.933 1363.32 813.96 697.658 813.96C32 813.96 0 811.078 0 807.243C0 803.409 33.2396 800.526 697.658 800.526Z" fill="black"/>
<path d="M540.241 784.016C571.224 753.033 571.224 702.8 540.241 671.817C509.258 640.834 459.025 640.834 428.042 671.817C397.059 702.8 397.059 753.033 428.042 784.016C459.025 814.999 509.258 814.999 540.241 784.016Z" fill="#9CE8C2"/>
<path fill-rule="evenodd" clip-rule="evenodd" d="M801.441 648.598C817.134 648.598 832.474 653.252 845.522 661.971C858.569 670.69 868.738 683.082 874.742 697.581C880.746 712.079 882.315 728.033 879.252 743.424C876.188 758.814 868.629 772.951 857.531 784.045C846.433 795.139 832.293 802.693 816.902 805.751C801.51 808.809 785.557 807.234 771.06 801.225C756.564 795.215 744.175 785.042 735.461 771.991C726.747 758.941 722.099 743.599 722.104 727.906C722.12 706.872 730.484 686.704 745.36 671.834C760.236 656.963 780.407 648.606 801.441 648.598Z" fill="#163BF3"/>
<path d="M785.284 587.933C795.602 545.349 769.445 502.463 726.861 492.145C684.276 481.827 641.39 507.984 631.072 550.568C620.754 593.153 646.911 636.039 689.496 646.357C732.08 656.675 774.966 630.518 785.284 587.933Z" fill="#9CE8C2"/>
<path d="M684.949 466.715C715.932 435.732 715.932 385.499 684.949 354.516C653.966 323.533 603.732 323.533 572.749 354.516C541.766 385.499 541.766 435.732 572.749 466.715C603.732 497.698 653.966 497.698 684.949 466.715Z" fill="#FBBE2E"/>
<path fill-rule="evenodd" clip-rule="evenodd" d="M572.771 466.573C587.646 481.448 607.821 489.805 628.858 489.805C649.894 489.805 670.069 481.448 684.944 466.573C699.819 451.698 708.176 431.523 708.176 410.487C708.176 389.45 699.819 369.275 684.944 354.4L628.843 410.501L572.771 466.573Z" fill="#FFF3D6"/>
<path fill-rule="evenodd" clip-rule="evenodd" d="M857.571 784.007C850.245 791.552 841.493 797.565 831.822 801.697C822.152 805.829 811.756 807.997 801.24 808.076C790.724 808.154 780.298 806.14 770.567 802.153C760.836 798.165 751.995 792.283 744.558 784.848C737.121 777.412 731.236 768.573 727.246 758.843C723.256 749.113 721.24 738.687 721.316 728.171C721.391 717.655 723.556 707.259 727.686 697.588C731.815 687.916 737.826 679.162 745.369 671.834L801.441 727.906L857.571 784.007Z" fill="#BDC7FB"/>
<path fill-rule="evenodd" clip-rule="evenodd" d="M652.108 625.362C667.06 639.88 687.125 647.931 707.965 647.776C728.805 647.621 748.747 639.272 763.481 624.534C778.216 609.796 786.56 589.851 786.71 569.011C786.859 548.171 778.803 528.109 764.281 513.16L708.209 569.261L652.108 625.362Z" fill="#24A865"/>
<path fill-rule="evenodd" clip-rule="evenodd" d="M540.252 784.007C532.887 791.373 524.143 797.215 514.519 801.201C504.896 805.187 494.582 807.239 484.166 807.239C473.749 807.239 463.435 805.187 453.812 801.201C444.189 797.215 435.445 791.373 428.079 784.007C420.714 776.642 414.871 767.898 410.885 758.275C406.899 748.651 404.847 738.337 404.847 727.921C404.847 717.505 406.899 707.19 410.885 697.567C414.871 687.944 420.714 679.2 428.079 671.834L484.151 727.906L540.252 784.007Z" fill="#24A865"/>
<path d="M259.182 381.821C269.21 339.168 242.762 296.461 200.108 286.433C157.454 276.405 114.747 302.853 104.72 345.507C94.6917 388.161 121.14 430.867 163.794 440.895C206.447 450.923 249.154 424.475 259.182 381.821Z" fill="#FBBE2E"/>
<path d="M779.867 103.931C786.878 60.553 757.396 19.7046 714.017 12.6939C670.639 5.68329 629.79 35.1652 622.78 78.5436C615.769 121.922 645.251 162.77 688.629 169.781C732.008 176.792 772.856 147.31 779.867 103.931Z" fill="#9CE8C2"/>
<path d="M722.105 648.598H563.459V807.243H722.105V648.598Z" fill="#FBBE2E"/>
<path d="M628.843 489.924H470.198V648.569H628.843V489.924Z" fill="#163BF3"/>
<path d="M866.825 331.279H708.18V489.924H866.825V331.279Z" fill="#9CE8C2"/>
<path d="M1259.65 477.874H1101V636.519H1259.65V477.874Z" fill="#163BF3"/>
<path fill-rule="evenodd" clip-rule="evenodd" d="M1101 477.874V636.519L1259.65 477.874H1101Z" fill="#BDC7FB"/>
<path d="M780.512 172.605H621.867V331.251H780.512V172.605Z" fill="#163BF3"/>
<path d="M1039.42 648.598H880.778V807.243H1039.42V648.598Z" fill="#9CE8C2"/>
<path d="M946.162 489.924H787.517V648.569H946.162V489.924Z" fill="#FBBE2E"/>
<path fill-rule="evenodd" clip-rule="evenodd" d="M127.712 421.485C127.117 420.913 126.4 420.483 125.616 420.227C124.831 419.971 123.999 419.896 123.181 420.007C122.363 420.118 121.581 420.412 120.893 420.868C120.205 421.323 119.629 421.928 119.207 422.638C117.132 425.694 117.276 429.586 121.86 433.622C126.443 437.658 133.391 444.98 139.705 448.036C146.018 451.092 154.984 452.476 157.492 448.036C160 443.597 156.598 438.955 153.196 437.571C143.723 433.944 135.061 428.477 127.712 421.485Z" fill="#FFC7BF"/>
<path fill-rule="evenodd" clip-rule="evenodd" d="M236.685 421.485C237.277 420.913 237.991 420.484 238.774 420.228C239.556 419.972 240.386 419.897 241.202 420.008C242.018 420.118 242.798 420.413 243.483 420.868C244.169 421.324 244.742 421.929 245.16 422.638C247.265 425.694 247.121 429.586 242.537 433.622C237.953 437.658 231.005 444.98 224.692 448.036C218.378 451.092 209.384 452.476 206.876 448.036C204.368 443.597 207.769 438.955 211.2 437.571C220.669 433.935 229.329 428.469 236.685 421.485Z" fill="#FFC7BF"/>
<path fill-rule="evenodd" clip-rule="evenodd" d="M136.476 446.104C136.476 446.104 110.357 474.933 102.63 482.948C94.9044 490.962 94.2701 501.859 102.63 509.672C110.991 517.485 142.991 552.05 142.991 552.05L160.807 535.532L121.629 492.519C121.629 492.519 145.758 463.69 149.247 459.712C150.255 458.477 150.954 457.019 151.285 455.46C151.616 453.9 151.57 452.284 151.149 450.746L136.476 446.104Z" fill="#163BF3"/>
<path fill-rule="evenodd" clip-rule="evenodd" d="M227.921 446.104C227.921 446.104 254.04 474.933 261.766 482.948C269.492 490.962 270.126 501.859 261.766 509.672C253.405 517.485 221.405 552.05 221.405 552.05L203.589 535.532L242.767 492.519C242.767 492.519 218.638 463.69 215.149 459.712C214.149 458.467 213.462 457.001 213.146 455.436C212.83 453.87 212.894 452.252 213.333 450.717L227.921 446.104Z" fill="#163BF3"/>
<path fill-rule="evenodd" clip-rule="evenodd" d="M207.51 531.265H156.858L142.934 552.05V609.651H221.463V552.05L207.51 531.265Z" fill="#163BF3"/>
<path fill-rule="evenodd" clip-rule="evenodd" d="M142.933 609.651C142.933 620.923 140.915 654.162 154.465 672.872C168.015 691.582 235.705 774.465 235.705 774.465L260.267 750.681L206.011 661.831C206.011 661.831 220.569 633.925 221.463 609.651H142.933Z" fill="#9CE8C2"/>
<path d="M206.011 661.831L193.182 640.786" stroke="#8D1A00" stroke-width="1.44" stroke-linecap="round" stroke-linejoin="round"/>
<path fill-rule="evenodd" clip-rule="evenodd" d="M166.919 689.218L155.013 778.732H184.101L197.593 727.56L166.919 689.218Z" fill="#8D1A00"/>
<path fill-rule="evenodd" clip-rule="evenodd" d="M155.013 778.732C155.013 778.732 149.247 798.912 149.247 807.243H204.685C204.685 807.243 199.323 797.153 195.027 794.789C190.732 792.425 183.496 784.642 184.043 778.732H155.013Z" fill="#163BF3"/>
<path fill-rule="evenodd" clip-rule="evenodd" d="M235.705 774.465L258.768 807.243C258.768 807.243 305.816 769.766 312.187 763.769C302.242 761.405 289.47 768.238 282.811 766.306C274.216 762.877 266.516 757.533 260.296 750.681C250.811 759.618 235.705 774.465 235.705 774.465Z" fill="#163BF3"/>
<path d="M156.857 531.265L166.313 541.672" stroke="#8D1A00" stroke-width="1.44" stroke-linecap="round" stroke-linejoin="round"/>
<path d="M221.463 552.051V543.863" stroke="#8D1A00" stroke-width="1.44" stroke-linecap="round" stroke-linejoin="round"/>
<path d="M186.465 533.341V609.651" stroke="#8D1A00" stroke-width="1.44" stroke-linecap="round" stroke-linejoin="round"/>
<path fill-rule="evenodd" clip-rule="evenodd" d="M1151.51 477.874C1151.51 477.874 1158.37 469.225 1166.47 469.225C1174.57 469.225 1177.23 472.973 1180.34 477.874C1183.45 482.775 1178.32 488.108 1172.47 488.108C1166.62 488.108 1159.24 477.874 1159.24 477.874H1151.51Z" fill="#8D1A00"/>
<path fill-rule="evenodd" clip-rule="evenodd" d="M1259.65 526.22H1300.47C1314.71 526.22 1324.19 529.708 1324.51 539.51C1324.83 549.312 1314.31 561.708 1314.31 561.708C1314.31 561.708 1292.86 634.76 1289.4 648.022C1285.94 661.283 1279.57 682.991 1286.86 705.218C1291.64 721.039 1294.92 737.273 1296.66 753.708H1160.88L1210.03 635.51H1259.65V526.22Z" fill="#9CE8C2"/>
<path fill-rule="evenodd" clip-rule="evenodd" d="M1237.02 623.171L1259.65 592.296C1263.25 606.941 1263.11 622.258 1259.24 636.836L1237.02 623.171Z" fill="#9CE8C2"/>
<path d="M1292.45 547.524L1259.65 592.296" stroke="#8D1A00" stroke-width="0.88" stroke-linecap="round" stroke-linejoin="round"/>
<path fill-rule="evenodd" clip-rule="evenodd" d="M1237.02 623.171L1219.46 636.663H1210.06C1210.06 636.663 1214.27 648.195 1225.63 648.195C1236.99 648.195 1251.92 644.793 1259.68 636.663C1250.36 631.128 1237.02 623.171 1237.02 623.171Z" fill="#8D1A00"/>
<path d="M1314.31 561.795L1259.65 636.346" stroke="#8D1A00" stroke-width="0.88" stroke-linecap="round" stroke-linejoin="round"/>
<path fill-rule="evenodd" clip-rule="evenodd" d="M1160.88 753.795L1147.88 785.074H1174.49L1187.23 753.795H1160.88Z" fill="#163BF3"/>
<path fill-rule="evenodd" clip-rule="evenodd" d="M1265.07 753.795L1276.05 791.647L1303.27 782.796L1296.66 753.795H1265.07Z" fill="#163BF3"/>
<path fill-rule="evenodd" clip-rule="evenodd" d="M1147.88 785.074C1147.88 785.074 1119.6 801.593 1119.37 805.485H1164.68L1174.4 785.074H1147.88Z" fill="#FBBE2E"/>
<path fill-rule="evenodd" clip-rule="evenodd" d="M1276.05 791.647L1256.36 807.243H1307.59C1307.59 807.243 1307.36 791.877 1303.26 782.796C1294.18 785.593 1276.05 791.647 1276.05 791.647Z" fill="#FBBE2E"/>
<path fill-rule="evenodd" clip-rule="evenodd" d="M1296.92 491.539C1300.34 491.539 1303.69 492.553 1306.53 494.454C1309.38 496.355 1311.59 499.056 1312.9 502.217C1314.21 505.377 1314.55 508.855 1313.89 512.211C1313.22 515.566 1311.57 518.648 1309.15 521.067C1306.73 523.486 1303.65 525.134 1300.3 525.801C1296.94 526.468 1293.46 526.126 1290.3 524.817C1287.14 523.508 1284.44 521.29 1282.54 518.446C1280.64 515.601 1279.63 512.257 1279.63 508.836C1279.63 504.249 1281.45 499.849 1284.69 496.605C1287.94 493.361 1292.34 491.539 1296.92 491.539Z" fill="#8D1A00"/>
<path fill-rule="evenodd" clip-rule="evenodd" d="M1320.74 465.016C1324.73 465.016 1328.63 466.2 1331.95 468.417C1335.27 470.635 1337.85 473.786 1339.38 477.474C1340.91 481.161 1341.31 485.219 1340.53 489.134C1339.75 493.048 1337.83 496.644 1335 499.466C1332.18 502.288 1328.59 504.21 1324.67 504.989C1320.76 505.768 1316.7 505.368 1313.01 503.841C1309.33 502.313 1306.17 499.727 1303.96 496.408C1301.74 493.089 1300.56 489.188 1300.56 485.197C1300.56 479.844 1302.68 474.712 1306.47 470.927C1310.25 467.142 1315.38 465.016 1320.74 465.016Z" fill="black"/>
<path d="M1280.49 503.33L1271.64 501.312" stroke="#8D1A00" stroke-width="1.44" stroke-linecap="round" stroke-linejoin="round"/>
<path fill-rule="evenodd" clip-rule="evenodd" d="M181.247 505.29C189.896 502.407 199.005 506.386 201.427 513.939C203.849 521.492 198.544 529.766 189.896 532.505C181.247 535.243 172.137 531.38 169.715 523.856C167.294 516.332 172.483 508.029 181.247 505.29Z" fill="#FFC7BF"/>
<path fill-rule="evenodd" clip-rule="evenodd" d="M195.373 506.587C195.373 506.587 200.476 505.521 201.369 505.29C202.955 504.858 205.031 506.559 202.955 507.856L199.351 510.047L195.373 506.587Z" fill="#FFC7BF"/>
<path fill-rule="evenodd" clip-rule="evenodd" d="M866.854 331.279V489.924L708.18 331.279H866.854Z" fill="#24A865"/>
<path fill-rule="evenodd" clip-rule="evenodd" d="M880.778 648.598V807.243L1039.45 648.598H880.778Z" fill="#24A865"/>
<path fill-rule="evenodd" clip-rule="evenodd" d="M787.517 489.924V648.598L946.191 489.924H787.517Z" fill="#FFF3D6"/>
<path fill-rule="evenodd" clip-rule="evenodd" d="M722.133 648.598V807.243L563.488 648.598H722.133Z" fill="#FFF3D6"/>
<path fill-rule="evenodd" clip-rule="evenodd" d="M628.843 489.924V648.598L470.198 489.924H628.843Z" fill="#BDC7FB"/>
<path fill-rule="evenodd" clip-rule="evenodd" d="M621.896 172.605V331.279L780.541 172.605H621.896Z" fill="#BDC7FB"/>
<path fill-rule="evenodd" clip-rule="evenodd" d="M645.132 149.456C660.018 164.331 680.204 172.683 701.249 172.675C722.293 172.667 742.473 164.299 757.348 149.413C772.223 134.526 780.575 114.34 780.567 93.2957C780.559 72.2511 772.191 52.0716 757.305 37.1965L701.233 93.2974L645.132 149.456Z" fill="#24A865"/>
<path fill-rule="evenodd" clip-rule="evenodd" d="M125.867 419.726C140.815 434.248 160.877 442.304 181.717 442.155C202.557 442.005 222.502 433.661 237.24 418.927C251.979 404.192 260.328 384.25 260.483 363.41C260.638 342.57 252.586 322.505 238.069 307.553L181.968 363.625L125.867 419.726Z" fill="#FFF3D6"/>
</svg>
