<svg width="1939" height="800" viewBox="0 0 1939 800" fill="none" xmlns="http://www.w3.org/2000/svg">
<g clip-path="url(#clip0_459:18142)">
<path fill-rule="evenodd" clip-rule="evenodd" d="M922.97 188.38C953.29 188.57 977.88 213.15 978.07 243.48V243.84C978.07 213.23 1002.92 188.37 1033.54 188.37C1002.93 188.37 978.07 163.52 978.07 132.9V133.26C977.88 163.71 953.1 188.37 922.61 188.37L922.97 188.38Z" fill="#BDC7FB"/>
<path fill-rule="evenodd" clip-rule="evenodd" d="M922.97 617.55C953.29 617.74 977.88 642.33 978.07 672.66V673.02C978.07 642.41 1002.92 617.55 1033.54 617.55C1002.93 617.55 978.07 592.7 978.07 562.08V562.44C977.88 592.89 953.1 617.55 922.61 617.55H922.97Z" fill="#BDC7FB"/>
<path fill-rule="evenodd" clip-rule="evenodd" d="M765.03 132.91C776.7 132.98 786.16 142.44 786.23 154.11V154.25C786.23 142.47 795.79 132.9 807.58 132.9C795.8 132.9 786.23 123.34 786.23 111.56V111.7C786.16 123.42 776.62 132.9 764.89 132.9L765.03 132.91Z" fill="#BDC7FB"/>
<path fill-rule="evenodd" clip-rule="evenodd" d="M1083.5 93.4799C1095.17 93.5499 1104.63 103.02 1104.71 114.69V114.83C1104.71 103.05 1114.27 93.4799 1126.05 93.4799C1114.27 93.4799 1104.71 83.9199 1104.71 72.1399V72.2799C1104.64 83.9999 1095.1 93.4799 1083.36 93.4799H1083.5Z" fill="#BDC7FB"/>
<path fill-rule="evenodd" clip-rule="evenodd" d="M1165.39 683.41C1177.06 683.48 1186.52 692.94 1186.59 704.62V704.76C1186.59 692.98 1196.16 683.42 1207.94 683.42C1196.16 683.42 1186.59 673.86 1186.59 662.08V662.22C1186.52 673.94 1176.98 683.43 1165.25 683.43L1165.39 683.41Z" fill="#BDC7FB"/>
<path fill-rule="evenodd" clip-rule="evenodd" d="M787.77 719.81C799.44 719.88 808.9 729.34 808.98 741.02V741.16C808.98 729.38 818.54 719.82 830.32 719.82C818.54 719.82 808.98 710.26 808.98 698.48V698.62C808.91 710.34 799.37 719.83 787.63 719.83L787.77 719.81Z" fill="#BDC7FB"/>
<path fill-rule="evenodd" clip-rule="evenodd" d="M517.83 551.47C529.5 551.54 538.96 561 539.03 572.68V572.82C539.03 561.04 548.59 551.48 560.38 551.48C548.6 551.48 539.03 541.92 539.03 530.14V530.28C538.95 542 529.42 551.49 517.69 551.49L517.83 551.47Z" fill="#BDC7FB"/>
<path fill-rule="evenodd" clip-rule="evenodd" d="M1370.12 267.88C1381.79 267.95 1391.25 277.41 1391.32 289.08V289.22C1391.32 277.44 1400.88 267.88 1412.67 267.88C1400.89 267.88 1391.32 258.31 1391.32 246.53V246.67C1391.25 258.39 1381.71 267.88 1369.98 267.88H1370.12Z" fill="#BDC7FB"/>
<path fill-rule="evenodd" clip-rule="evenodd" d="M1247.29 136.24C1228 136.24 1202.49 158.36 1205.05 201.72C1207.25 238.97 1209.07 242.24 1209.87 269.58C1210.67 296.91 1188.1 301.2 1176.57 301.2C1176.57 287.62 1168.75 280.99 1151.46 278.13C1134.18 275.27 1059.06 280.12 1042.68 309.64C1035.93 321.8 1042.68 332.49 1042.68 347.96C1042.68 353.61 1035.93 360.53 1035.93 366.58C1035.93 373.39 1042.68 379.37 1042.68 386.38C1042.68 392.61 1035.6 400.36 1035.6 406.5C1035.6 414.85 1042.68 421.5 1042.68 429.18C1042.68 436.22 1036.11 443.87 1036.11 449.89C1036.11 463.69 1041.74 468.49 1048.94 479.52C1067.39 507.79 1080.46 533.14 1114.22 533.14C1153.61 533.14 1260.92 515.05 1303.13 557.26C1335.68 524.7 1410.31 450.07 1410.31 450.07C1410.31 450.07 1376.27 437.04 1357.14 392.78C1329.13 327.98 1295.34 340.81 1275.39 291.21C1259.11 250.74 1258.92 212.98 1258.92 199.98C1258.92 180.09 1258.23 160.73 1258.23 146.94C1258.25 140.56 1253.32 136.24 1247.29 136.24Z" fill="#DFA98B"/>
<path d="M1176.58 301.2H1101.47" stroke="black" stroke-width="3.6304" stroke-miterlimit="10" stroke-linecap="round" stroke-linejoin="round"/>
<path fill-rule="evenodd" clip-rule="evenodd" d="M1410.33 450.07L1303.15 557.26C1303.15 557.26 1336.69 639.7 1351.77 676.77C1356.5 688.4 1363.84 698.79 1373.22 707.14C1397.29 728.58 1446.4 772.31 1477.5 800C1508.02 800 1903.35 800 1939.45 800C1854.99 734.71 1629.92 560.73 1585.78 526.61C1580.75 522.73 1575.25 519.51 1569.4 517.05C1534.81 502.49 1410.33 450.07 1410.33 450.07Z" fill="#FBBE2E"/>
<path d="M1144.71 301.2V289.92" stroke="black" stroke-width="3.6304" stroke-miterlimit="10" stroke-linecap="round" stroke-linejoin="round"/>
<path d="M1437.9 685.37C1447.18 685.37 1454.71 677.844 1454.71 668.56C1454.71 659.276 1447.18 651.75 1437.9 651.75C1428.62 651.75 1421.09 659.276 1421.09 668.56C1421.09 677.844 1428.62 685.37 1437.9 685.37Z" fill="#8D1A00"/>
<path fill-rule="evenodd" clip-rule="evenodd" d="M1729.1 710.47C1738.38 710.47 1745.91 718 1745.91 727.28C1745.91 736.56 1738.38 744.09 1729.1 744.09C1719.82 744.09 1712.29 736.56 1712.29 727.28C1712.29 718 1719.82 710.47 1729.1 710.47Z" fill="#8D1A00"/>
<path d="M1551.57 606.75C1560.85 606.75 1568.38 599.224 1568.38 589.94C1568.38 580.656 1560.85 573.13 1551.57 573.13C1542.29 573.13 1534.76 580.656 1534.76 589.94C1534.76 599.224 1542.29 606.75 1551.57 606.75Z" fill="#8D1A00"/>
<path fill-rule="evenodd" clip-rule="evenodd" d="M1581.88 710.47C1591.16 710.47 1598.69 718 1598.69 727.28C1598.69 736.56 1591.16 744.09 1581.88 744.09C1572.6 744.09 1565.07 736.56 1565.07 727.28C1565.07 718 1572.6 710.47 1581.88 710.47Z" fill="#8D1A00"/>
<path d="M1498.52 486.1L1339.06 645.55" stroke="black" stroke-width="1.6667" stroke-miterlimit="10" stroke-linecap="round" stroke-linejoin="round"/>
<path d="M1356.7 503.7L1421.59 563.03" stroke="black" stroke-width="1.6667" stroke-miterlimit="10" stroke-linecap="round" stroke-linejoin="round"/>
<path d="M1327.04 533.37L1374.68 609.94" stroke="black" stroke-width="1.6667" stroke-miterlimit="10" stroke-linecap="round" stroke-linejoin="round"/>
<path d="M1386.32 474.09L1467.5 517.11" stroke="black" stroke-width="1.6667" stroke-miterlimit="10" stroke-linecap="round" stroke-linejoin="round"/>
<path fill-rule="evenodd" clip-rule="evenodd" d="M712.71 668.56C732 668.56 757.51 646.44 754.95 603.08C752.75 565.83 750.93 562.55 750.13 535.22C749.33 507.89 771.9 503.6 783.43 503.6C783.43 517.18 791.25 523.81 808.54 526.67C825.82 529.53 900.94 524.68 917.32 495.16C924.07 483 917.32 472.31 917.32 456.84C917.32 451.19 924.07 444.27 924.07 438.21C924.07 431.4 917.32 425.42 917.32 418.42C917.32 412.19 924.4 404.44 924.4 398.3C924.4 389.95 917.32 383.3 917.32 375.62C917.32 368.58 923.89 360.93 923.89 354.91C923.89 341.11 918.26 336.31 911.06 325.28C892.61 297 879.54 271.66 845.78 271.66C806.39 271.66 699.08 289.75 656.87 247.54C624.32 280.1 549.69 354.73 549.69 354.73C549.69 354.73 583.73 367.76 602.87 412.02C630.88 476.82 664.67 463.99 684.62 513.59C700.9 554.06 701.09 591.82 701.09 604.82C701.09 624.71 701.78 644.07 701.78 657.86C701.75 664.23 706.68 668.56 712.71 668.56Z" fill="#DFA98B"/>
<path d="M783.42 503.6H858.53" stroke="black" stroke-width="3.6304" stroke-miterlimit="10" stroke-linecap="round" stroke-linejoin="round"/>
<path fill-rule="evenodd" clip-rule="evenodd" d="M549.67 354.72L656.85 247.53C656.85 247.53 623.31 165.09 608.23 128.02C603.5 116.39 596.16 106 586.78 97.65C561.28 74.93 507.64 27.16 477.13 0C440 0 67.9299 0 14.3599 0C93.3799 61.09 328.96 243.19 374.22 278.18C379.24 282.06 384.75 285.28 390.6 287.74C425.19 302.3 549.67 354.72 549.67 354.72Z" fill="#0089E3"/>
<path d="M815.29 503.6V514.88" stroke="black" stroke-width="3.6304" stroke-miterlimit="10" stroke-linecap="round" stroke-linejoin="round"/>
<path d="M448.56 77.4847C455.124 70.9201 455.124 60.2767 448.56 53.712C441.995 47.1474 431.352 47.1474 424.787 53.712C418.222 60.2767 418.222 70.9201 424.787 77.4847C431.352 84.0494 441.995 84.0494 448.56 77.4847Z" fill="black"/>
<path d="M491.21 205.77C500.494 205.77 508.02 198.244 508.02 188.96C508.02 179.676 500.494 172.15 491.21 172.15C481.926 172.15 474.4 179.676 474.4 188.96C474.4 198.244 481.926 205.77 491.21 205.77Z" fill="black"/>
<path d="M357.492 174.832C358.98 165.668 352.756 157.033 343.592 155.546C334.428 154.058 325.793 160.282 324.306 169.446C322.819 178.61 329.042 187.245 338.206 188.732C347.371 190.219 356.005 183.996 357.492 174.832Z" fill="black"/>
<path d="M254.189 51.4678C255.677 42.3037 249.453 33.669 240.289 32.1817C231.125 30.6944 222.49 36.9178 221.003 46.0819C219.516 55.246 225.739 63.8807 234.903 65.368C244.067 66.8553 252.702 60.632 254.189 51.4678Z" fill="black"/>
<path d="M460.5 319.85L619.95 160.39" stroke="black" stroke-width="1.6667" stroke-miterlimit="10" stroke-linecap="round" stroke-linejoin="round"/>
<path d="M602.32 302.24L537.42 242.92" stroke="black" stroke-width="1.6667" stroke-miterlimit="10" stroke-linecap="round" stroke-linejoin="round"/>
<path d="M631.98 272.58L584.34 196" stroke="black" stroke-width="1.6667" stroke-miterlimit="10" stroke-linecap="round" stroke-linejoin="round"/>
<path d="M572.7 331.86L491.51 288.83" stroke="black" stroke-width="1.6667" stroke-miterlimit="10" stroke-linecap="round" stroke-linejoin="round"/>
</g>
<defs>
<clipPath id="clip0_459:18142">
<rect width="1939" height="800" fill="white"/>
</clipPath>
</defs>
</svg>
