<svg width="2015" height="568" viewBox="0 0 2015 568" fill="none" xmlns="http://www.w3.org/2000/svg">
<g clip-path="url(#clip0_459:18432)">
<path d="M278.53 235.44H60" stroke="#FEDD8E" stroke-width="4.2492" stroke-miterlimit="10" stroke-linecap="round" stroke-linejoin="round"/>
<path d="M1719.94 235.44H1938.47" stroke="#FEDD8E" stroke-width="4.2492" stroke-miterlimit="10" stroke-linecap="round" stroke-linejoin="round"/>
<path d="M300.69 176.41L189.94 112.47" stroke="#FEDD8E" stroke-width="4.2492" stroke-miterlimit="10" stroke-linecap="round" stroke-linejoin="round"/>
<path d="M1697.78 176.41L1808.53 112.47" stroke="#FEDD8E" stroke-width="4.2492" stroke-miterlimit="10" stroke-linecap="round" stroke-linejoin="round"/>
<path d="M300.69 294.47L189.94 358.41" stroke="#FEDD8E" stroke-width="4.2492" stroke-miterlimit="10" stroke-linecap="round" stroke-linejoin="round"/>
<path d="M1697.78 294.47L1808.53 358.41" stroke="#FEDD8E" stroke-width="4.2492" stroke-miterlimit="10" stroke-linecap="round" stroke-linejoin="round"/>
<path fill-rule="evenodd" clip-rule="evenodd" d="M446.52 77.4C432.38 77.49 420.92 88.95 420.83 103.09V103.26C420.83 88.99 409.24 77.4 394.97 77.4C409.24 77.4 420.83 65.81 420.83 51.54V51.7101C420.92 65.9101 432.47 77.4 446.69 77.4H446.52Z" fill="#FEDD8E"/>
<path fill-rule="evenodd" clip-rule="evenodd" d="M378.89 419.53C364.75 419.62 353.29 431.08 353.2 445.22V445.39C353.2 431.12 341.61 419.53 327.34 419.53C341.61 419.53 353.2 407.94 353.2 393.67V393.84C353.29 408.03 364.84 419.53 379.06 419.53H378.89Z" fill="#FEDD8E"/>
<path fill-rule="evenodd" clip-rule="evenodd" d="M1882.7 339.89C1896.84 339.98 1908.3 351.44 1908.39 365.58V365.75C1908.39 351.48 1919.98 339.89 1934.25 339.89C1919.98 339.89 1908.39 328.3 1908.39 314.03V314.2C1908.3 328.39 1896.75 339.89 1882.53 339.89H1882.7Z" fill="#FEDD8E"/>
<path fill-rule="evenodd" clip-rule="evenodd" d="M1362.12 103.26C1376.26 103.35 1387.72 114.81 1387.81 128.95V129.12C1387.81 114.85 1399.4 103.26 1413.67 103.26C1399.4 103.26 1387.81 91.6701 1387.81 77.4001V77.5702C1387.72 91.7702 1376.17 103.26 1361.95 103.26H1362.12Z" fill="#FEDD8E"/>
<path fill-rule="evenodd" clip-rule="evenodd" d="M1239.36 441.03C1253.5 441.12 1264.96 452.58 1265.05 466.72V466.89C1265.05 452.62 1276.64 441.03 1290.91 441.03C1276.64 441.03 1265.05 429.44 1265.05 415.17V415.34C1264.96 429.53 1253.41 441.03 1239.19 441.03H1239.36Z" fill="#FEDD8E"/>
<path fill-rule="evenodd" clip-rule="evenodd" d="M51.68 129.12C37.54 129.21 26.08 140.67 25.99 154.81V154.98C25.99 140.71 14.4 129.12 0.130005 129.12C14.4 129.12 25.99 117.53 25.99 103.26V103.43C26.08 117.63 37.63 129.12 51.85 129.12H51.68Z" fill="#FEDD8E"/>
<path fill-rule="evenodd" clip-rule="evenodd" d="M1963.22 129.12C1977.36 129.21 1988.82 140.67 1988.91 154.81V154.98C1988.91 140.71 2000.5 129.12 2014.77 129.12C2000.5 129.12 1988.91 117.53 1988.91 103.26V103.43C1988.82 117.63 1977.27 129.12 1963.05 129.12H1963.22Z" fill="#FEDD8E"/>
<path fill-rule="evenodd" clip-rule="evenodd" d="M567.69 459.78C571.71 459.78 574.98 463.05 574.98 467.07C574.98 471.09 571.71 474.36 567.69 474.36C563.67 474.36 560.4 471.09 560.4 467.07C560.4 463.05 563.66 459.78 567.69 459.78Z" fill="#8D1A00"/>
<path fill-rule="evenodd" clip-rule="evenodd" d="M585.76 425.94L592.82 432.18L564.64 476.22L564.58 499.43H542.65C542.65 499.43 544.2 487.46 544.2 481.41C544.2 475.36 545.36 471.64 549.09 467.06C560.45 453.13 585.76 425.94 585.76 425.94Z" fill="#FF341A"/>
<path d="M564.63 476.23L560.4 482.85" stroke="black" stroke-width="1.815" stroke-miterlimit="10" stroke-linecap="round" stroke-linejoin="round"/>
<path fill-rule="evenodd" clip-rule="evenodd" d="M542.64 499.44C542.64 499.44 535.97 545.06 542.64 556.52H556.65C556.65 556.52 561.3 537.47 562.51 531.55C563.73 525.63 564.57 499.44 564.57 499.44H542.64Z" fill="#BDC7FB"/>
<path fill-rule="evenodd" clip-rule="evenodd" d="M542.64 556.52L541.79 567.53H566.17C566.17 567.53 565.78 566.05 562.52 564.32C559.26 562.59 556.46 557.69 556.66 556.51H542.64V556.52Z" fill="#24A865"/>
<path fill-rule="evenodd" clip-rule="evenodd" d="M586.5 426.59C586.5 426.59 589.9 422.91 591.81 420.53C593.72 418.16 593.06 414.07 591.35 411.57C589.64 409.07 589.94 404.78 592.82 403.33C594.58 405.5 607.1 412.33 607.1 412.33L592.82 432.17L586.5 426.59Z" fill="#8D1A00"/>
<path fill-rule="evenodd" clip-rule="evenodd" d="M704.47 452.01C700.69 452.01 687.02 453.9 677.63 460.33C668.24 466.75 661.65 473.34 665.6 479.93C669.55 486.52 680.76 486.27 680.76 486.27V497.14H725.57V485.94C725.57 485.94 736.69 483.72 739.49 478.53C742.29 473.34 736.53 463.37 728.29 459.5C720.05 455.63 708.25 452.01 704.47 452.01Z" fill="#24A865"/>
<path d="M828.45 413.23H820.17V439.55H828.45V413.23Z" fill="#163BF3"/>
<path d="M828.45 413.23H820.17V423.66H828.45V413.23Z" fill="black"/>
<path d="M704.19 409.92C685.89 409.92 671.03 424.78 671.03 443.08C671.03 461.38 685.89 476.23 704.19 476.23C710.72 476.23 716.81 474.34 721.95 471.07" stroke="#FBBE2E" stroke-width="9.6946" stroke-miterlimit="10" stroke-linecap="round" stroke-linejoin="round"/>
<path d="M719.01 472.73L839.54 404.42" stroke="#FBBE2E" stroke-width="9.6946" stroke-miterlimit="10" stroke-linecap="round" stroke-linejoin="round"/>
<path fill-rule="evenodd" clip-rule="evenodd" d="M707.27 422.4C712.23 422.4 716.27 418.37 716.27 413.41C716.27 408.45 712.24 404.42 707.27 404.42C702.31 404.42 698.28 408.45 698.28 413.41C698.28 418.38 702.3 422.4 707.27 422.4Z" fill="#FBBE2E"/>
<path d="M704.47 454.25C708.071 454.25 710.99 451.331 710.99 447.73C710.99 444.129 708.071 441.21 704.47 441.21C700.869 441.21 697.95 444.129 697.95 447.73C697.95 451.331 700.869 454.25 704.47 454.25Z" fill="#FF341A"/>
<path fill-rule="evenodd" clip-rule="evenodd" d="M680.76 497.15C680.76 497.15 688.76 543.8 695.52 556.52H709.24C709.24 556.52 722.96 525.61 725.57 497.15H680.76Z" fill="#4FB3F6"/>
<path d="M702.32 509.71V556.52" stroke="black" stroke-width="1.815" stroke-miterlimit="10" stroke-linecap="round" stroke-linejoin="round"/>
<path fill-rule="evenodd" clip-rule="evenodd" d="M695.52 556.52C695.52 556.52 694.42 560.57 691.62 561.31C688.82 562.05 682.4 565.18 682.81 567.65H702.32V556.52H695.52Z" fill="#FF341A"/>
<path fill-rule="evenodd" clip-rule="evenodd" d="M709.12 556.52C709.12 556.52 710.46 561.34 713.26 562.09C716.06 562.83 717.21 565.18 716.8 567.66H702.31V556.53H709.12V556.52Z" fill="#FF341A"/>
<path fill-rule="evenodd" clip-rule="evenodd" d="M680.76 486.27C683.79 486.27 692.22 483.86 692.22 483.86L691.89 470.61H677.71C677.72 470.62 677.73 486.27 680.76 486.27Z" fill="#24A865"/>
<path fill-rule="evenodd" clip-rule="evenodd" d="M725.57 485.94C719.45 487.13 714.11 483.86 714.11 483.86L714.44 470.61H732.59C732.58 470.62 728.55 485.37 725.57 485.94Z" fill="#24A865"/>
<path fill-rule="evenodd" clip-rule="evenodd" d="M692.23 483.86C692.23 483.86 697.9 485.44 700.53 483.2C703.16 480.96 703.11 474.93 700.53 473.05C698.09 471.27 694.28 470.66 691.93 472.19C689.59 473.72 687.08 479.84 692.23 483.86Z" fill="#FF341A"/>
<path fill-rule="evenodd" clip-rule="evenodd" d="M712.59 483.86C712.59 483.86 706.92 485.44 704.29 483.2C701.65 480.96 701.71 474.93 704.29 473.05C706.73 471.27 710.54 470.66 712.88 472.19C715.22 473.72 717.73 479.84 712.59 483.86Z" fill="#FF341A"/>
<path fill-rule="evenodd" clip-rule="evenodd" d="M699.94 452.41C699.94 452.41 694.09 459.76 697.31 461.29C700.53 462.82 704.47 453.64 704.47 453.64C704.47 453.64 708.42 462.98 710.99 461.29C713.55 459.6 708.96 452.45 708.96 452.45L699.94 452.41Z" fill="white"/>
<path fill-rule="evenodd" clip-rule="evenodd" d="M819.69 440.31C822.37 440.31 824.55 442.49 824.55 445.17C824.55 447.85 822.37 450.03 819.69 450.03C817.01 450.03 814.83 447.85 814.83 445.17C814.83 442.48 817.01 440.31 819.69 440.31Z" fill="#FFC7BF"/>
<path d="M822.35 449.13H816.67V453.85H822.35V449.13Z" fill="#FFC7BF"/>
<path fill-rule="evenodd" clip-rule="evenodd" d="M829.13 435.66C824.96 435.66 821.8 436.72 819.69 440.3C821.59 440.88 822.58 446.07 820.95 449.85C819.32 453.63 821.39 458.06 824.55 460.33C828.42 463.11 835.4 463.76 839.35 459.86C844.62 454.66 842.23 447.64 839.72 442.88C837.25 438.2 833.29 435.66 829.13 435.66Z" fill="#8D1A00"/>
<path fill-rule="evenodd" clip-rule="evenodd" d="M809.94 452.01C807.37 454.77 796.3 466.1 796.3 466.1L784.57 445.17L776.67 447.12C776.67 447.12 788.46 472.69 790.05 476.31C791.63 479.93 798.29 481.25 802.57 476.64C806.85 472.03 817.46 460.43 817.46 460.43C817.46 460.43 822.65 454.51 818.71 449.92C814.75 445.34 812.51 449.25 809.94 452.01Z" fill="#163BF3"/>
<path fill-rule="evenodd" clip-rule="evenodd" d="M808.5 470.19V484.48H826.67L827.76 461.93L817.95 449.13L808.5 470.19Z" fill="#163BF3"/>
<path fill-rule="evenodd" clip-rule="evenodd" d="M808.5 484.48C808.5 487.52 803.4 507.09 802.16 512.85H830.16C830.16 512.85 829.15 500.08 827.75 494.42C826.35 488.76 826.66 484.48 826.66 484.48H808.5Z" fill="#4FB3F6"/>
<path fill-rule="evenodd" clip-rule="evenodd" d="M802.17 512.86L790.22 558.06L802.17 559.09L816.17 512.86H802.17Z" fill="#163BF3"/>
<path fill-rule="evenodd" clip-rule="evenodd" d="M830.17 512.86C830.17 515.02 834.49 557.44 834.49 557.44H824.09L815.1 516.38L816.17 512.86H830.17Z" fill="#163BF3"/>
<path fill-rule="evenodd" clip-rule="evenodd" d="M790.22 558.06C789.32 560.03 783.63 564.35 780.41 564.78C777.19 565.2 777.56 566.99 777.94 567.63H799.18L802.17 559.1C802.17 559.09 793.5 558.3 790.22 558.06Z" fill="#24A865"/>
<path fill-rule="evenodd" clip-rule="evenodd" d="M834.5 557.44L835.93 567.62H817.8C817.8 567.62 818.96 564.88 820.75 564.35C822.54 563.82 824.77 560.96 824.1 557.44H834.5Z" fill="#24A865"/>
<path fill-rule="evenodd" clip-rule="evenodd" d="M776.66 447.12C775.71 444.82 774.91 442.67 777.7 440.7C780.48 438.72 782.13 433.53 786 432.63C789.87 431.72 791.45 440.42 784.56 445.17C780.02 446.34 778.05 446.76 776.66 447.12Z" fill="#FFC7BF"/>
<path d="M677.72 470.62H671.76" stroke="black" stroke-width="1.6667" stroke-miterlimit="10" stroke-linecap="round" stroke-linejoin="round"/>
<path d="M735.99 470.62H732.83" stroke="black" stroke-width="1.6667" stroke-miterlimit="10" stroke-linecap="round" stroke-linejoin="round"/>
<path d="M680.76 486.27C680.76 486.27 686.41 485.81 692.22 483.86" stroke="black" stroke-width="1.6667" stroke-miterlimit="10" stroke-linecap="round" stroke-linejoin="round"/>
<path d="M714.11 483.86C714.11 483.86 718.88 486.07 725.66 485.92" stroke="black" stroke-width="1.6667" stroke-miterlimit="10" stroke-linecap="round" stroke-linejoin="round"/>
<path d="M808.5 470.19L815.05 463.07" stroke="black" stroke-width="1.6667" stroke-miterlimit="10" stroke-linecap="round" stroke-linejoin="round"/>
<path fill-rule="evenodd" clip-rule="evenodd" d="M680.76 486.27V491.56L692.23 483.86L680.76 486.27Z" fill="black"/>
<path fill-rule="evenodd" clip-rule="evenodd" d="M714.11 483.86L725.66 491.56L725.57 485.94L714.11 483.86Z" fill="black"/>
<path fill-rule="evenodd" clip-rule="evenodd" d="M808.46 470.62L808.5 474.58L815.05 463.07L808.46 470.62Z" fill="black"/>
<path fill-rule="evenodd" clip-rule="evenodd" d="M815.1 516.38L816.17 512.86H830.17L815.93 520.14L815.1 516.38Z" fill="black"/>
<path fill-rule="evenodd" clip-rule="evenodd" d="M921.15 453.98L938.15 413.23H946.68L929.38 466.31L921.15 453.98Z" fill="#8D1A00"/>
<path fill-rule="evenodd" clip-rule="evenodd" d="M918.07 532.21C918.07 532.21 923.83 536.69 926.89 541.03C929.95 545.37 931.49 550.84 931.49 550.84L926.09 557.27L915.84 546.64C913.06 541.05 914.22 536.33 918.07 532.21Z" fill="#8D1A00"/>
<path fill-rule="evenodd" clip-rule="evenodd" d="M918.07 532.21C918.07 532.21 921.71 535.05 922.25 535.85C920.47 539.15 915.84 546.65 915.84 546.65C915.84 546.65 913.97 534.26 918.07 532.21Z" fill="black"/>
<path fill-rule="evenodd" clip-rule="evenodd" d="M921.15 440.91C925.69 440.91 929.37 444.59 929.37 449.13C929.37 453.67 925.69 457.35 921.15 457.35C916.61 457.35 912.93 453.67 912.93 449.13C912.93 444.59 916.62 440.91 921.15 440.91Z" fill="#FF341A"/>
<path fill-rule="evenodd" clip-rule="evenodd" d="M912.93 465.61C910.31 460.46 887.63 417.67 887.63 417.67L894.23 413.23C894.23 413.23 918.92 451.39 923.38 457.05C927.85 462.71 935.08 472.04 929.38 485.56C923.67 499.07 921.16 504.54 921.16 504.54H902.76C902.76 504.54 903.89 494.4 908.23 485.88C912.57 477.35 915.55 470.76 912.93 465.61Z" fill="#FBBE2E"/>
<path fill-rule="evenodd" clip-rule="evenodd" d="M902.75 504.54C902.75 504.54 899.37 525 902.75 559.88H914.98C914.98 559.88 915.78 539.74 917.88 532.82C919.97 525.9 924.43 512.28 921.16 504.53H902.75V504.54Z" fill="#FF341A"/>
<path fill-rule="evenodd" clip-rule="evenodd" d="M871.73 404.42C871.73 406.56 875.03 409.14 879.04 411.3C883.06 413.46 887.63 417.67 887.63 417.67L894.23 413.23L890.26 404.42H871.73Z" fill="#FF341A"/>
<path fill-rule="evenodd" clip-rule="evenodd" d="M938.15 413.23C938.15 413.23 935.47 404.42 939.28 404.42H956.68L946.68 413.23H938.15Z" fill="#FF341A"/>
<path fill-rule="evenodd" clip-rule="evenodd" d="M902.75 559.89C901.52 563.64 890.73 563.99 891.41 567.62H914.92V559.89H902.75Z" fill="#FBBE2E"/>
<path fill-rule="evenodd" clip-rule="evenodd" d="M931.48 550.85L939.38 557.28L930.84 567.62H920.04C920.04 567.62 919.91 564.47 922.32 563.75C924.73 563.03 927.22 560.44 926.08 557.28C928 554.86 931.48 550.85 931.48 550.85Z" fill="#FBBE2E"/>
<path d="M914.31 466.7L918.52 476.05" stroke="black" stroke-width="1.6667" stroke-miterlimit="10" stroke-linecap="round" stroke-linejoin="round"/>
<path fill-rule="evenodd" clip-rule="evenodd" d="M1008.27 414.98L1020.92 443.11H1033.59L1049.46 415.14L1056.86 417.39L1040.45 469.03H1017.93L1000.55 418.52L1008.27 414.98Z" fill="#4FB3F6"/>
<path fill-rule="evenodd" clip-rule="evenodd" d="M1017.93 469.03C1020.02 475.39 1016.6 491.67 1012.58 503.14C1008.56 514.6 1000.55 541.55 1000.55 541.55H1056.86C1056.86 541.55 1054.75 511.72 1051.99 502.54C1048.37 490.47 1038.15 475.55 1040.44 469.04H1017.93V469.03Z" fill="#24A865"/>
<path fill-rule="evenodd" clip-rule="evenodd" d="M1023.08 541.55L1013.93 567.62H1000.09C1000.09 567.62 998.69 565.33 1001.66 564.5C1004.62 563.68 1009.98 562.93 1011.13 557.33C1012.28 551.73 1013.68 541.54 1013.68 541.54H1023.08V541.55Z" fill="#FF341A"/>
<path fill-rule="evenodd" clip-rule="evenodd" d="M1036.18 541.55L1045.32 567.62H1059.16C1059.16 567.62 1060.56 565.33 1057.6 564.5C1054.63 563.68 1049.28 562.93 1048.13 557.33C1046.98 551.73 1045.58 541.54 1045.58 541.54H1036.18V541.55Z" fill="#FF341A"/>
<path fill-rule="evenodd" clip-rule="evenodd" d="M1008.27 414.98C1008.27 414.98 1008.65 404.42 1003.05 404.42H987.4C987.4 404.42 988.47 408.99 992.1 410.31C995.72 411.63 1000.55 418.52 1000.55 418.52L1008.27 414.98Z" fill="#8D1A00"/>
<path fill-rule="evenodd" clip-rule="evenodd" d="M1049.46 415.14C1049.46 415.14 1050.5 404.71 1053.46 404.42C1056.42 404.13 1070.02 404.42 1070.02 404.42C1070.02 404.42 1066.97 410.32 1063.1 411.47C1059.23 412.62 1056.86 417.39 1056.86 417.39L1049.46 415.14Z" fill="#8D1A00"/>
<path d="M1027.25 451.9C1030.94 451.9 1033.93 448.909 1033.93 445.22C1033.93 441.531 1030.94 438.54 1027.25 438.54C1023.56 438.54 1020.57 441.531 1020.57 445.22C1020.57 448.909 1023.56 451.9 1027.25 451.9Z" fill="#8D1A00"/>
<path fill-rule="evenodd" clip-rule="evenodd" d="M1021.4 442C1022.54 439.94 1024.73 438.54 1027.25 438.54C1029.77 438.54 1031.96 439.94 1033.1 442H1021.4Z" fill="black"/>
<path fill-rule="evenodd" clip-rule="evenodd" d="M1027.25 430.34C1029.51 430.34 1031.35 432.18 1031.35 434.44C1031.35 436.7 1029.51 438.54 1027.25 438.54C1024.99 438.54 1023.15 436.7 1023.15 434.44C1023.15 432.18 1024.99 430.34 1027.25 430.34Z" fill="black"/>
<path fill-rule="evenodd" clip-rule="evenodd" d="M1013.69 541.55H1023L1021.96 544.75H1013.23L1013.69 541.55Z" fill="black"/>
<path fill-rule="evenodd" clip-rule="evenodd" d="M1036.18 541.55H1045.57L1046.03 544.75H1037.3L1036.18 541.55Z" fill="black"/>
<path fill-rule="evenodd" clip-rule="evenodd" d="M1582.84 436.62C1586.87 436.62 1590.15 439.9 1590.15 443.93C1590.15 447.96 1586.88 451.24 1582.84 451.24C1578.8 451.24 1575.53 447.97 1575.53 443.93C1575.53 439.89 1578.8 436.62 1582.84 436.62Z" fill="#FEDD8E"/>
<path fill-rule="evenodd" clip-rule="evenodd" d="M1614.55 414.98C1614.55 414.98 1599.72 419.42 1594.09 420.93C1588.47 422.44 1584.48 428.01 1584.48 436.62V452.92C1584.48 452.92 1575.9 463.49 1575.53 473.79C1575.15 484.09 1575.53 493.01 1575.53 493.01H1596.57C1596.57 493.01 1602.47 474.61 1601.79 462.81C1601.1 451 1600.28 438.1 1600.28 438.1L1619.09 420.8L1614.55 414.98Z" fill="#4FB3F6"/>
<path d="M1590.15 446.33L1592.17 458.68" stroke="black" stroke-width="1.815" stroke-miterlimit="10" stroke-linecap="round" stroke-linejoin="round"/>
<path fill-rule="evenodd" clip-rule="evenodd" d="M1579.84 514.61C1579.84 514.61 1600.49 552.13 1603.51 555.42C1606.67 553.64 1610.51 551.44 1610.51 551.44C1610.51 551.44 1601.73 505.83 1595.91 496.66C1591.93 501.29 1590.5 503.88 1579.84 514.61Z" fill="#24A865"/>
<path fill-rule="evenodd" clip-rule="evenodd" d="M1579.84 514.61L1582.72 519.81L1599.06 504.06C1599.06 504.06 1597.4 499.31 1595.91 496.66C1591.84 500.01 1579.84 514.61 1579.84 514.61Z" fill="black"/>
<path d="M1575.36 443.93H1570.48" stroke="#FEDD8E" stroke-width="1.815" stroke-miterlimit="10" stroke-linecap="round" stroke-linejoin="round"/>
<path fill-rule="evenodd" clip-rule="evenodd" d="M1614.55 414.98C1614.55 414.98 1615.65 411.1 1619.08 409.98C1619.08 406.96 1619.14 405.55 1619.14 402.88C1619.14 400.21 1623.07 400.56 1623.35 403.72C1623.63 406.88 1626.09 413.77 1623.78 416.44C1621.46 419.11 1619.09 420.79 1619.09 420.79L1614.55 414.98Z" fill="#FEDD8E"/>
<path fill-rule="evenodd" clip-rule="evenodd" d="M1575.53 493L1515.12 529.21L1519.1 536.21C1519.1 536.21 1560.01 527.15 1572.92 519.05C1585.82 510.95 1595.49 504.56 1596.57 493H1575.53Z" fill="#9CE8C2"/>
<path fill-rule="evenodd" clip-rule="evenodd" d="M1515.12 529.22C1515.12 529.22 1506.37 520.13 1504.53 521.44C1502.68 522.76 1505.85 527.77 1507.61 530.67C1509.37 533.57 1513.06 540.07 1513.06 540.07L1519.11 536.22L1515.12 529.22Z" fill="#8D1A00"/>
<path fill-rule="evenodd" clip-rule="evenodd" d="M1603.51 555.42C1603.51 555.42 1594.41 564.17 1595.73 566.01C1597.05 567.86 1602.06 564.69 1604.96 562.93C1607.86 561.17 1614.36 557.48 1614.36 557.48L1610.51 551.43L1603.51 555.42Z" fill="#8D1A00"/>
<path fill-rule="evenodd" clip-rule="evenodd" d="M413.52 194.78C435.96 194.78 454.18 213 454.18 235.44C454.18 257.88 435.96 276.1 413.52 276.1C391.08 276.1 372.86 257.88 372.86 235.44C372.86 213 391.08 194.78 413.52 194.78Z" fill="#FEDD8E"/>
<path fill-rule="evenodd" clip-rule="evenodd" d="M1279.38 194.78C1301.82 194.78 1320.04 213 1320.04 235.44C1320.04 257.88 1301.82 276.1 1279.38 276.1C1256.94 276.1 1238.72 257.88 1238.72 235.44C1238.72 213 1256.95 194.78 1279.38 194.78Z" fill="#FEDD8E"/>
<path fill-rule="evenodd" clip-rule="evenodd" d="M1148.96 160.54C1148.96 152.61 1142.54 146.19 1134.61 146.19V324.95C1142.54 324.95 1148.96 318.53 1148.96 310.6C1148.96 277.1 1148.96 194.04 1148.96 160.54Z" fill="#FEDD8E"/>
<path fill-rule="evenodd" clip-rule="evenodd" d="M1553.72 110.05C1553.72 83.0402 1575.62 61.1501 1602.62 61.1501C1612.09 61.1501 1619.13 61.1501 1619.13 61.1501V410H1602.62C1575.61 410 1553.72 388.1 1553.72 361.09V110.05Z" fill="#FEDD8E"/>
<path fill-rule="evenodd" clip-rule="evenodd" d="M1238.72 235.57C1238.72 216.06 1222.9 200.24 1203.39 200.24H1148.96V270.9H1203.39C1222.91 270.9 1238.72 255.08 1238.72 235.57Z" fill="#FEDD8E"/>
<path fill-rule="evenodd" clip-rule="evenodd" d="M1486.93 200.24C1500.46 200.24 1511.43 189.27 1511.43 175.74V172.05C1511.43 166.57 1513.61 161.31 1517.48 157.44C1521.36 153.57 1526.61 151.39 1532.09 151.39H1533.05C1544.46 151.39 1553.71 160.64 1553.71 172.05V299.1C1553.71 310.51 1544.46 319.76 1533.05 319.76H1532.09C1526.61 319.76 1521.36 317.58 1517.48 313.71C1513.6 309.83 1511.43 304.58 1511.43 299.1V295.41C1511.43 281.88 1500.46 270.91 1486.93 270.91H1355.37C1346 270.91 1337.01 267.19 1330.39 260.56C1323.77 253.94 1320.04 244.95 1320.04 235.58C1320.04 226.21 1323.76 217.22 1330.39 210.6C1337.02 203.98 1346 200.25 1355.37 200.25H1486.93V200.24Z" fill="#FEDD8E"/>
<path fill-rule="evenodd" clip-rule="evenodd" d="M413.52 235.32L587.84 86.6902V383.96L413.52 235.32Z" fill="#FEDD8E"/>
<path fill-rule="evenodd" clip-rule="evenodd" d="M587.84 81.98C587.84 75.83 590.28 69.93 594.63 65.58C598.98 61.23 604.88 58.79 611.03 58.79V412.34C604.88 412.34 598.98 409.9 594.63 405.55C590.28 401.2 587.84 395.3 587.84 389.15C587.84 325.07 587.84 146.07 587.84 81.98Z" fill="#FEDD8E"/>
<path fill-rule="evenodd" clip-rule="evenodd" d="M1134.61 120.57C1134.61 107.6 1129.46 95.1602 1120.29 85.9902C1111.12 76.8202 1098.68 71.6702 1085.71 71.6702H611.03V404.42H1085.71C1098.68 404.42 1111.12 399.27 1120.29 390.1C1129.46 380.93 1134.61 368.49 1134.61 355.52V120.57Z" fill="#FEDD8E"/>
<path fill-rule="evenodd" clip-rule="evenodd" d="M1320.54 235.44V235.56C1320.54 258 1302.32 276.22 1279.88 276.22C1257.44 276.22 1239.22 258 1239.22 235.56V235.44H1320.54ZM1554.22 235.44V299.21C1554.22 310.62 1544.97 319.87 1533.56 319.87H1532.6C1527.12 319.87 1521.86 317.69 1517.99 313.82C1514.11 309.94 1511.94 304.69 1511.94 299.21V295.52C1511.94 281.99 1500.97 271.02 1487.44 271.02H1355.88C1346.51 271.02 1337.53 267.3 1330.9 260.67C1324.28 254.05 1320.55 245.06 1320.55 235.69V235.44H1554.22ZM1239.22 235.44V235.69C1239.22 255.21 1223.4 271.02 1203.89 271.02H1149.46V310.72C1149.46 318.65 1143.04 325.07 1135.11 325.07V235.44H1239.22ZM588.33 235.44V384.08L445 261.86C437.54 270.64 426.42 276.21 414.01 276.21C391.57 276.21 373.35 257.99 373.35 235.55V235.43H588.33V235.44ZM1619.63 235.44V410.11H1603.13C1576.12 410.11 1554.22 388.21 1554.22 361.2V235.44H1619.63ZM1135.1 235.44V355.63C1135.1 368.6 1129.95 381.04 1120.78 390.21C1111.61 399.38 1099.17 404.53 1086.2 404.53H611.53V412.45C605.38 412.45 599.48 410.01 595.13 405.66C590.78 401.31 588.34 395.41 588.34 389.26V235.44H1135.1Z" fill="#FBBE2E"/>
<path d="M704.19 66.1701C685.89 66.1701 671.03 51.3101 671.03 33.0201C671.03 14.7201 685.89 -0.139893 704.19 -0.139893C710.72 -0.139893 716.81 1.7601 721.95 5.0201" stroke="#FEDD8E" stroke-width="9.6946" stroke-miterlimit="10" stroke-linecap="round" stroke-linejoin="round"/>
<path d="M719.01 3.3501L839.54 71.6701" stroke="#FEDD8E" stroke-width="9.6946" stroke-miterlimit="10" stroke-linecap="round" stroke-linejoin="round"/>
<path fill-rule="evenodd" clip-rule="evenodd" d="M707.27 53.6802C712.23 53.6802 716.27 57.7102 716.27 62.6702C716.27 67.6302 712.24 71.6702 707.27 71.6702C702.31 71.6702 698.28 67.6402 698.28 62.6702C698.28 57.7102 702.3 53.6802 707.27 53.6802Z" fill="#FEDD8E"/>
<path fill-rule="evenodd" clip-rule="evenodd" d="M872.82 150.39L886.62 192.86L913.2 179.73L908.94 209.07H953.59L917.47 235.32L938.17 256.55L908.94 261.57L922.74 304.03L886.62 277.79L872.82 304.03L859.02 277.79L822.9 304.03L836.7 261.57L807.47 256.55L828.17 235.32L792.04 209.07H836.7L832.43 179.73L859.02 192.86L872.82 150.39Z" fill="white"/>
<path fill-rule="evenodd" clip-rule="evenodd" d="M917.47 235.32L938.17 256.55L908.94 261.57L922.74 304.03L886.62 277.79L872.82 304.03L859.02 277.79L822.9 304.03L836.7 261.57L807.47 256.55L828.17 235.32H917.47Z" fill="#FEDD8E"/>
<path fill-rule="evenodd" clip-rule="evenodd" d="M587.84 81.98C587.84 75.83 590.28 69.93 594.63 65.58C598.98 61.23 604.88 58.79 611.03 58.79V270.89C604.88 270.89 598.98 268.45 594.63 264.1C590.28 259.75 587.84 253.85 587.84 247.7C587.84 206.92 587.84 122.77 587.84 81.98Z" fill="#FEDD8E"/>
<path fill-rule="evenodd" clip-rule="evenodd" d="M1553.72 110.05C1553.72 97.0802 1558.87 84.6402 1568.05 75.4702C1577.22 66.3002 1589.66 61.1501 1602.63 61.1501C1612.35 61.1501 1619.63 61.1501 1619.63 61.1501V288.55C1619.63 288.55 1612.35 288.55 1602.63 288.55C1589.66 288.55 1577.22 283.4 1568.05 274.23C1558.87 265.06 1553.72 252.62 1553.72 239.65C1553.72 201.35 1553.72 148.34 1553.72 110.05Z" fill="#FEDD8E"/>
<path d="M611.02 71.6702V235.32" stroke="#FBBE2E" stroke-width="1.815" stroke-miterlimit="10" stroke-linecap="round" stroke-linejoin="round"/>
<path d="M1134.61 146.55V235.32" stroke="#FBBE2E" stroke-width="1.815" stroke-miterlimit="10" stroke-linecap="round" stroke-linejoin="round"/>
<path d="M1148.96 200.24V235.32" stroke="#FBBE2E" stroke-width="1.815" stroke-miterlimit="10" stroke-linecap="round" stroke-linejoin="round"/>
<path d="M1134.61 325.06V236.3" stroke="black" stroke-width="1.815" stroke-miterlimit="10" stroke-linecap="round" stroke-linejoin="round"/>
<path d="M1148.96 271.38V236.3" stroke="black" stroke-width="1.815" stroke-miterlimit="10" stroke-linecap="round" stroke-linejoin="round"/>
<path d="M1553.72 174.84V235.32" stroke="#FBBE2E" stroke-width="1.815" stroke-miterlimit="10" stroke-linecap="round" stroke-linejoin="round"/>
<path d="M1553.72 235.57V303.72" stroke="black" stroke-width="1.815" stroke-miterlimit="10" stroke-linecap="round" stroke-linejoin="round"/>
<path d="M587.84 86.6902V235.32" stroke="#FBBE2E" stroke-width="1.815" stroke-miterlimit="10" stroke-linecap="round" stroke-linejoin="round"/>
<path d="M611.02 399.1V235.44" stroke="black" stroke-width="1.815" stroke-miterlimit="10" stroke-linecap="round" stroke-linejoin="round"/>
<path d="M587.84 384.08V235.44" stroke="black" stroke-width="1.815" stroke-miterlimit="10" stroke-linecap="round" stroke-linejoin="round"/>
</g>
<defs>
<clipPath id="clip0_459:18432">
<rect width="2015" height="568" fill="white"/>
</clipPath>
</defs>
</svg>
