<svg width="2241" height="800" viewBox="0 0 2241 800" fill="none" xmlns="http://www.w3.org/2000/svg">
<g clip-path="url(#clip0_459:19192)">
<path opacity="0.4214" fill-rule="evenodd" clip-rule="evenodd" d="M256.46 88.29C283.41 88.29 305.29 110.17 305.29 137.12C305.29 164.07 283.41 185.95 256.46 185.95C229.51 185.95 207.63 164.07 207.63 137.12C207.62 110.17 229.51 88.29 256.46 88.29Z" fill="#BDC7FB"/>
<path opacity="0.4214" fill-rule="evenodd" clip-rule="evenodd" d="M176.88 369.25C193.85 369.25 207.62 383.02 207.62 400C207.62 416.97 193.85 430.75 176.88 430.75C159.91 430.75 146.13 416.97 146.13 400C146.14 383.03 159.91 369.25 176.88 369.25Z" fill="#4FB3F6"/>
<path opacity="0.4214" fill-rule="evenodd" clip-rule="evenodd" d="M1841.55 88.29C1824.58 88.29 1810.81 102.06 1810.81 119.04C1810.81 136.01 1824.58 149.79 1841.55 149.79C1858.52 149.79 1872.3 136.01 1872.3 119.04C1872.29 102.07 1858.52 88.29 1841.55 88.29Z" fill="#4FB3F6"/>
<path opacity="0.4214" fill-rule="evenodd" clip-rule="evenodd" d="M7.40991 164.8C24.3799 164.8 38.1599 178.58 38.1599 195.54C38.1599 212.51 24.3799 226.29 7.40991 226.29C-9.56009 226.29 -23.3401 212.52 -23.3401 195.54C-23.3301 178.57 -9.55009 164.8 7.40991 164.8Z" fill="#B9E2FE"/>
<path opacity="0.4214" d="M2106.01 141.542C2112.51 125.852 2105.06 107.863 2089.37 101.364C2073.68 94.8649 2055.69 102.316 2049.19 118.006C2042.69 133.696 2050.14 151.685 2065.83 158.184C2081.53 164.683 2099.51 157.233 2106.01 141.542Z" fill="#B9E2FE"/>
<path opacity="0.4214" d="M1963.12 365.316C1977.97 357.083 1983.34 338.368 1975.11 323.515C1966.87 308.662 1948.16 303.295 1933.31 311.528C1918.45 319.762 1913.09 338.477 1921.32 353.33C1929.55 368.183 1948.27 373.55 1963.12 365.316Z" fill="#B9E2FE"/>
<path fill-rule="evenodd" clip-rule="evenodd" d="M429.88 251.99C363.48 366.99 328.53 497.45 328.53 630.25H1085.04L429.88 251.99Z" fill="#E3F7ED"/>
<path fill-rule="evenodd" clip-rule="evenodd" d="M429.88 251.99L545.83 558.55L328.52 630.25H541.08L613.95 358.27L429.88 251.99Z" fill="#D9F0FF"/>
<path fill-rule="evenodd" clip-rule="evenodd" d="M613.95 358.27C566.21 440.96 541.07 534.76 541.07 630.25H1085.02L613.95 358.27Z" fill="#FFE8E5"/>
<path fill-rule="evenodd" clip-rule="evenodd" d="M736.86 429.23L613.95 358.27L696.21 528L545.83 558.55L682.99 630.25L736.86 429.23Z" fill="#BDC7FB"/>
<path fill-rule="evenodd" clip-rule="evenodd" d="M736.86 429.23C701.57 490.35 682.99 559.68 682.99 630.25H1085.03L736.86 429.23Z" fill="#FEDD8E"/>
<path fill-rule="evenodd" clip-rule="evenodd" d="M814.45 477.85L682.99 630.25H774.48L814.45 477.85Z" fill="#FFE8E5"/>
<path fill-rule="evenodd" clip-rule="evenodd" d="M816.09 474.97C788.83 522.18 774.48 575.73 774.48 630.25H1085.03L816.09 474.97Z" fill="#E3F7ED"/>
<path fill-rule="evenodd" clip-rule="evenodd" d="M897.65 522.06C878.66 554.95 868.66 592.27 868.66 630.25H1085.03L897.65 522.06Z" fill="#D9F0FF"/>
<path fill-rule="evenodd" clip-rule="evenodd" d="M946.41 550.21L884.06 548.44L931.73 584.2L871.25 596.9L924.96 630.25L946.41 550.21Z" fill="white"/>
<path fill-rule="evenodd" clip-rule="evenodd" d="M946.41 550.21C932.36 574.54 924.96 602.15 924.96 630.25H1085.03L946.41 550.21Z" fill="#BDC7FB"/>
<path fill-rule="evenodd" clip-rule="evenodd" d="M983.45 571.6L935.67 572.68L971.32 601.46L927.06 604.4L967.73 630.25L983.45 571.6Z" fill="white"/>
<path fill-rule="evenodd" clip-rule="evenodd" d="M983.45 571.6C973.15 589.43 967.74 609.66 967.74 630.25H1085.04L983.45 571.6Z" fill="#D9F0FF"/>
<path fill-rule="evenodd" clip-rule="evenodd" d="M1003.78 583.34C995.54 597.6 991.21 613.78 991.21 630.25H1085.03L1003.78 583.34Z" fill="#FFE8E5"/>
<path fill-rule="evenodd" clip-rule="evenodd" d="M1024.12 595.08C1017.94 605.77 1014.69 617.9 1014.69 630.25H1085.03L1024.12 595.08Z" fill="#E3F7ED"/>
<path fill-rule="evenodd" clip-rule="evenodd" d="M429.88 251.99C496.28 136.99 591.78 41.4901 706.78 -24.9099L1085.03 630.25L429.88 251.99Z" fill="#E3F7ED"/>
<path fill-rule="evenodd" clip-rule="evenodd" d="M429.88 251.99L753.34 199.12L706.78 -24.9099L813.06 159.17L613.95 358.27L429.88 251.99Z" fill="#D9F0FF"/>
<path fill-rule="evenodd" clip-rule="evenodd" d="M613.95 358.27C661.69 275.58 730.36 206.91 813.05 159.17L1085.02 630.25L613.95 358.27Z" fill="#FFE8E5"/>
<path fill-rule="evenodd" clip-rule="evenodd" d="M736.86 429.23L613.95 358.27L802.07 344.65L753.34 199.12L884.01 282.07L736.86 429.23Z" fill="#BDC7FB"/>
<path fill-rule="evenodd" clip-rule="evenodd" d="M736.86 429.23C772.14 368.11 822.9 317.36 884.01 282.07L1085.03 630.25L736.86 429.23Z" fill="#FEDD8E"/>
<path fill-rule="evenodd" clip-rule="evenodd" d="M816.09 474.97C843.34 427.76 882.55 388.56 929.76 361.3L1085.04 630.25L816.09 474.97Z" fill="#E3F7ED"/>
<path fill-rule="evenodd" clip-rule="evenodd" d="M897.65 522.06C916.64 489.17 943.95 461.85 976.85 442.86L1085.03 630.25L897.65 522.06Z" fill="#D9F0FF"/>
<path fill-rule="evenodd" clip-rule="evenodd" d="M946.41 550.21L913.7 497.1L968.51 520.5L949.27 461.77L1005 491.62L946.41 550.21Z" fill="white"/>
<path fill-rule="evenodd" clip-rule="evenodd" d="M946.41 550.21C960.46 525.88 980.67 505.67 1005 491.62L1085.03 630.25L946.41 550.21Z" fill="#BDC7FB"/>
<path fill-rule="evenodd" clip-rule="evenodd" d="M983.45 571.6L960.5 529.68L1003.25 546.16L983.67 506.36L1026.38 528.66L983.45 571.6Z" fill="white"/>
<path fill-rule="evenodd" clip-rule="evenodd" d="M983.45 571.6C993.75 553.77 1008.55 538.96 1026.39 528.66L1085.04 630.25L983.45 571.6Z" fill="#D9F0FF"/>
<path fill-rule="evenodd" clip-rule="evenodd" d="M1003.78 583.34C1012.01 569.08 1023.86 557.23 1038.12 549L1085.03 630.25L1003.78 583.34Z" fill="#FFE8E5"/>
<path fill-rule="evenodd" clip-rule="evenodd" d="M1024.12 595.08C1030.29 584.39 1039.17 575.51 1049.87 569.33L1085.04 630.25L1024.12 595.08Z" fill="#E3F7ED"/>
<path fill-rule="evenodd" clip-rule="evenodd" d="M1085.04 -126.26C952.24 -126.26 821.79 -91.31 706.78 -24.91L1085.03 630.25L1085.04 -126.26Z" fill="#E3F7ED"/>
<path fill-rule="evenodd" clip-rule="evenodd" d="M1085.04 -126.26L877.52 127.43L706.78 -24.91L813.06 159.17L1085.04 86.29V-126.26Z" fill="#D9F0FF"/>
<path fill-rule="evenodd" clip-rule="evenodd" d="M1085.04 86.29C989.55 86.29 895.75 111.42 813.06 159.16L1085.04 630.24V86.29Z" fill="#FFE8E5"/>
<path fill-rule="evenodd" clip-rule="evenodd" d="M1085.04 228.2V86.29L979.18 242.39L877.52 127.43L884.02 282.07L1085.04 228.2Z" fill="#BDC7FB"/>
<path fill-rule="evenodd" clip-rule="evenodd" d="M1085.04 228.2C1014.47 228.2 945.14 246.78 884.02 282.07L1085.04 630.25V228.2Z" fill="#FEDD8E"/>
<path fill-rule="evenodd" clip-rule="evenodd" d="M1085.04 319.7C1030.52 319.7 976.97 334.05 929.76 361.31L1085.04 630.25V319.7Z" fill="#E3F7ED"/>
<path fill-rule="evenodd" clip-rule="evenodd" d="M1085.04 413.87C1047.06 413.87 1009.74 423.87 976.85 442.86L1085.04 630.25V413.87Z" fill="#D9F0FF"/>
<path fill-rule="evenodd" clip-rule="evenodd" d="M1085.04 470.18L1055.4 415.29L1048.26 474.46L1007.02 428.43L1005 491.62L1085.04 470.18Z" fill="white"/>
<path fill-rule="evenodd" clip-rule="evenodd" d="M1085.04 470.18C1056.94 470.18 1029.34 477.58 1005 491.63L1085.04 630.26V470.18Z" fill="#BDC7FB"/>
<path fill-rule="evenodd" clip-rule="evenodd" d="M1085.04 512.94L1060.21 472.11L1053.1 517.37L1028.43 480.52L1026.38 528.66L1085.04 512.94Z" fill="white"/>
<path fill-rule="evenodd" clip-rule="evenodd" d="M1085.04 512.94C1064.45 512.94 1044.22 518.36 1026.39 528.66L1085.04 630.25V512.94Z" fill="#D9F0FF"/>
<path fill-rule="evenodd" clip-rule="evenodd" d="M1085.04 536.42C1068.57 536.42 1052.39 540.76 1038.13 548.99L1085.04 630.24V536.42Z" fill="#FFE8E5"/>
<path fill-rule="evenodd" clip-rule="evenodd" d="M1085.04 559.9C1072.69 559.9 1060.56 563.15 1049.87 569.32L1085.04 630.24V559.9Z" fill="#E3F7ED"/>
<path fill-rule="evenodd" clip-rule="evenodd" d="M1085.04 -126.26C1217.84 -126.26 1348.29 -91.31 1463.29 -24.91L1085.04 630.25V-126.26Z" fill="#E3F7ED"/>
<path fill-rule="evenodd" clip-rule="evenodd" d="M1085.04 -126.26L1292.55 127.43L1463.29 -24.91L1357.01 159.17L1085.04 86.29V-126.26Z" fill="#D9F0FF"/>
<path fill-rule="evenodd" clip-rule="evenodd" d="M1085.04 86.29C1180.52 86.29 1274.32 111.42 1357.02 159.16L1085.04 630.24V86.29Z" fill="#FFE8E5"/>
<path fill-rule="evenodd" clip-rule="evenodd" d="M1085.04 228.2V86.29L1190.9 242.39L1292.55 127.43L1286.06 282.07L1085.04 228.2Z" fill="#BDC7FB"/>
<path fill-rule="evenodd" clip-rule="evenodd" d="M1085.04 228.2C1155.61 228.2 1224.94 246.78 1286.06 282.07L1085.04 630.25V228.2Z" fill="#FEDD8E"/>
<path fill-rule="evenodd" clip-rule="evenodd" d="M1085.04 319.7C1139.55 319.7 1193.1 334.05 1240.32 361.3L1085.04 630.25V319.7Z" fill="#E3F7ED"/>
<path fill-rule="evenodd" clip-rule="evenodd" d="M1085.04 413.87C1123.02 413.87 1160.33 423.87 1193.22 442.86L1085.04 630.24V413.87Z" fill="#D9F0FF"/>
<path fill-rule="evenodd" clip-rule="evenodd" d="M1085.04 470.18L1114.68 415.29L1121.81 474.46L1163.05 428.43L1165.07 491.62L1085.04 470.18Z" fill="white"/>
<path fill-rule="evenodd" clip-rule="evenodd" d="M1085.04 470.18C1113.14 470.18 1140.74 477.58 1165.07 491.63L1085.04 630.26V470.18Z" fill="#BDC7FB"/>
<path fill-rule="evenodd" clip-rule="evenodd" d="M1085.04 512.94L1109.86 472.11L1116.97 517.37L1141.64 480.52L1143.69 528.66L1085.04 512.94Z" fill="white"/>
<path fill-rule="evenodd" clip-rule="evenodd" d="M1085.04 512.94C1105.63 512.94 1125.86 518.36 1143.69 528.66L1085.04 630.25V512.94Z" fill="#D9F0FF"/>
<path fill-rule="evenodd" clip-rule="evenodd" d="M1085.04 536.42C1101.51 536.42 1117.69 540.76 1131.95 548.99L1085.04 630.24V536.42Z" fill="#FFE8E5"/>
<path fill-rule="evenodd" clip-rule="evenodd" d="M1085.04 559.9C1097.39 559.9 1109.51 563.15 1120.21 569.32L1085.04 630.24V559.9Z" fill="#E3F7ED"/>
<path fill-rule="evenodd" clip-rule="evenodd" d="M1740.2 251.99C1673.8 136.99 1578.3 41.4901 1463.3 -24.9099L1085.04 630.25L1740.2 251.99Z" fill="#E3F7ED"/>
<path fill-rule="evenodd" clip-rule="evenodd" d="M1740.2 251.99L1416.73 199.12L1463.29 -24.9099L1357.01 159.17L1556.12 358.27L1740.2 251.99Z" fill="#D9F0FF"/>
<path fill-rule="evenodd" clip-rule="evenodd" d="M1556.12 358.27C1508.37 275.58 1439.71 206.91 1357.02 159.17L1085.04 630.25L1556.12 358.27Z" fill="#FFE8E5"/>
<path fill-rule="evenodd" clip-rule="evenodd" d="M1433.21 429.23L1556.12 358.27L1368 344.65L1416.73 199.12L1286.06 282.07L1433.21 429.23Z" fill="#BDC7FB"/>
<path fill-rule="evenodd" clip-rule="evenodd" d="M1433.21 429.23C1397.93 368.11 1347.17 317.36 1286.06 282.07L1085.04 630.25L1433.21 429.23Z" fill="#FEDD8E"/>
<path fill-rule="evenodd" clip-rule="evenodd" d="M1353.98 474.97C1326.73 427.76 1287.52 388.56 1240.31 361.3L1085.03 630.24L1353.98 474.97Z" fill="#E3F7ED"/>
<path fill-rule="evenodd" clip-rule="evenodd" d="M1272.42 522.06C1253.43 489.17 1226.12 461.85 1193.22 442.86L1085.04 630.25L1272.42 522.06Z" fill="#D9F0FF"/>
<path fill-rule="evenodd" clip-rule="evenodd" d="M1223.66 550.21L1256.38 497.1L1201.56 520.5L1220.8 461.77L1165.07 491.62L1223.66 550.21Z" fill="white"/>
<path fill-rule="evenodd" clip-rule="evenodd" d="M1223.66 550.21C1209.61 525.88 1189.4 505.67 1165.07 491.62L1085.04 630.25L1223.66 550.21Z" fill="#BDC7FB"/>
<path fill-rule="evenodd" clip-rule="evenodd" d="M1186.62 571.6L1209.57 529.68L1166.82 546.16L1186.4 506.36L1143.69 528.66L1186.62 571.6Z" fill="white"/>
<path fill-rule="evenodd" clip-rule="evenodd" d="M1186.62 571.6C1176.32 553.77 1161.52 538.96 1143.68 528.66L1085.03 630.25L1186.62 571.6Z" fill="#D9F0FF"/>
<path fill-rule="evenodd" clip-rule="evenodd" d="M1166.29 583.34C1158.06 569.08 1146.21 557.23 1131.95 549L1085.04 630.25L1166.29 583.34Z" fill="#FFE8E5"/>
<path fill-rule="evenodd" clip-rule="evenodd" d="M1145.95 595.08C1139.78 584.39 1130.9 575.51 1120.2 569.33L1085.03 630.25L1145.95 595.08Z" fill="#E3F7ED"/>
<path fill-rule="evenodd" clip-rule="evenodd" d="M1740.2 251.99C1806.6 366.99 1841.55 497.45 1841.55 630.25H1085.04L1740.2 251.99Z" fill="#E3F7ED"/>
<path fill-rule="evenodd" clip-rule="evenodd" d="M1740.2 251.99L1624.25 558.55L1841.55 630.25H1628.99L1556.12 358.27L1740.2 251.99Z" fill="#D9F0FF"/>
<path fill-rule="evenodd" clip-rule="evenodd" d="M1556.12 358.27C1603.86 440.96 1629 534.76 1629 630.25H1085.05L1556.12 358.27Z" fill="#FFE8E5"/>
<path fill-rule="evenodd" clip-rule="evenodd" d="M1433.21 429.23L1556.12 358.27L1473.86 528L1624.25 558.55L1487.08 630.25L1433.21 429.23Z" fill="#BDC7FB"/>
<path fill-rule="evenodd" clip-rule="evenodd" d="M1433.21 429.23C1468.5 490.35 1487.08 559.68 1487.08 630.25H1085.04L1433.21 429.23Z" fill="#FEDD8E"/>
<path fill-rule="evenodd" clip-rule="evenodd" d="M1355.62 477.85L1487.08 630.25H1395.59L1355.62 477.85Z" fill="#FFE8E5"/>
<path fill-rule="evenodd" clip-rule="evenodd" d="M1353.98 474.97C1381.24 522.18 1395.59 575.73 1395.59 630.25H1085.04L1353.98 474.97Z" fill="#E3F7ED"/>
<path fill-rule="evenodd" clip-rule="evenodd" d="M1272.42 522.06C1291.41 554.95 1301.41 592.27 1301.41 630.25H1085.04L1272.42 522.06Z" fill="#D9F0FF"/>
<path fill-rule="evenodd" clip-rule="evenodd" d="M1223.66 550.21L1286.01 548.44L1238.34 584.2L1298.82 596.91L1245.11 630.25L1223.66 550.21Z" fill="white"/>
<path fill-rule="evenodd" clip-rule="evenodd" d="M1223.66 550.21C1237.71 574.54 1245.11 602.15 1245.11 630.25H1085.04L1223.66 550.21Z" fill="#BDC7FB"/>
<path fill-rule="evenodd" clip-rule="evenodd" d="M1186.62 571.6L1234.4 572.68L1198.75 601.46L1243.01 604.4L1202.34 630.25L1186.62 571.6Z" fill="white"/>
<path fill-rule="evenodd" clip-rule="evenodd" d="M1186.62 571.6C1196.92 589.43 1202.34 609.66 1202.34 630.25H1085.04L1186.62 571.6Z" fill="#D9F0FF"/>
<path fill-rule="evenodd" clip-rule="evenodd" d="M1166.29 583.34C1174.53 597.6 1178.86 613.78 1178.86 630.25H1085.04L1166.29 583.34Z" fill="#FFE8E5"/>
<path fill-rule="evenodd" clip-rule="evenodd" d="M1145.95 595.08C1152.13 605.77 1155.38 617.9 1155.38 630.25H1085.04L1145.95 595.08Z" fill="#E3F7ED"/>
<path fill-rule="evenodd" clip-rule="evenodd" d="M1740.2 1008.5C1806.6 893.5 1841.55 763.04 1841.55 630.24H1085.04L1740.2 1008.5Z" fill="#E3F7ED"/>
<path fill-rule="evenodd" clip-rule="evenodd" d="M1740.2 1008.5L1624.25 701.94L1841.55 630.25H1628.99L1556.12 902.23L1740.2 1008.5Z" fill="#D9F0FF"/>
<path fill-rule="evenodd" clip-rule="evenodd" d="M1556.12 902.23C1603.86 819.54 1629 725.74 1629 630.25H1085.05L1556.12 902.23Z" fill="#FFE8E5"/>
<path fill-rule="evenodd" clip-rule="evenodd" d="M1433.21 831.27L1556.12 902.23L1473.86 732.5L1624.25 701.94L1487.08 630.25L1433.21 831.27Z" fill="#BDC7FB"/>
<path fill-rule="evenodd" clip-rule="evenodd" d="M1433.21 831.27C1468.5 770.15 1487.08 700.82 1487.08 630.25H1085.04L1433.21 831.27Z" fill="#FEDD8E"/>
<path fill-rule="evenodd" clip-rule="evenodd" d="M1355.62 782.65L1487.08 630.25H1395.59L1355.62 782.65Z" fill="#FFE8E5"/>
<path fill-rule="evenodd" clip-rule="evenodd" d="M1353.98 785.52C1381.24 738.31 1395.59 684.76 1395.59 630.24H1085.04L1353.98 785.52Z" fill="#E3F7ED"/>
<path fill-rule="evenodd" clip-rule="evenodd" d="M1272.42 738.44C1291.41 705.55 1301.41 668.23 1301.41 630.25H1085.04L1272.42 738.44Z" fill="#D9F0FF"/>
<path fill-rule="evenodd" clip-rule="evenodd" d="M1223.66 710.28L1286.01 712.06L1238.34 676.29L1298.82 663.59L1245.11 630.25L1223.66 710.28Z" fill="white"/>
<path fill-rule="evenodd" clip-rule="evenodd" d="M1223.66 710.28C1237.71 685.95 1245.11 658.34 1245.11 630.24H1085.04L1223.66 710.28Z" fill="#BDC7FB"/>
<path fill-rule="evenodd" clip-rule="evenodd" d="M1186.62 688.9L1234.4 687.82L1198.75 659.03L1243.01 656.09L1202.34 630.25L1186.62 688.9Z" fill="white"/>
<path fill-rule="evenodd" clip-rule="evenodd" d="M1186.62 688.9C1196.92 671.07 1202.34 650.84 1202.34 630.25H1085.04L1186.62 688.9Z" fill="#D9F0FF"/>
<path fill-rule="evenodd" clip-rule="evenodd" d="M1166.29 677.16C1174.53 662.9 1178.86 646.72 1178.86 630.25H1085.04L1166.29 677.16Z" fill="#FFE8E5"/>
<path fill-rule="evenodd" clip-rule="evenodd" d="M1145.95 665.42C1152.13 654.73 1155.38 642.6 1155.38 630.25H1085.04L1145.95 665.42Z" fill="#E3F7ED"/>
<path fill-rule="evenodd" clip-rule="evenodd" d="M1740.2 1008.5C1673.8 1123.5 1578.3 1219 1463.3 1285.4L1085.05 630.24L1740.2 1008.5Z" fill="#E3F7ED"/>
<path fill-rule="evenodd" clip-rule="evenodd" d="M1556.12 902.23C1508.38 984.92 1439.71 1053.59 1357.02 1101.33L1085.04 630.25L1556.12 902.23Z" fill="#FFE8E5"/>
<path fill-rule="evenodd" clip-rule="evenodd" d="M1433.21 831.27C1397.93 892.39 1347.17 943.14 1286.06 978.43L1085.04 630.25L1433.21 831.27Z" fill="#FEDD8E"/>
<path fill-rule="evenodd" clip-rule="evenodd" d="M1352.31 788.38L1286.06 978.43L1240.31 899.19L1352.31 788.38Z" fill="#FFE8E5"/>
<path fill-rule="evenodd" clip-rule="evenodd" d="M1353.98 785.52C1326.73 832.73 1287.52 871.93 1240.31 899.19L1085.03 630.24L1353.98 785.52Z" fill="#E3F7ED"/>
<path fill-rule="evenodd" clip-rule="evenodd" d="M1256.04 762.82L1353.98 785.52L1220.33 864.58L1220.8 798.72L1256.04 762.82Z" fill="#FEDD8E"/>
<path fill-rule="evenodd" clip-rule="evenodd" d="M1272.42 738.44C1253.43 771.33 1226.12 798.65 1193.22 817.64L1085.04 630.25L1272.42 738.44Z" fill="#D9F0FF"/>
<path fill-rule="evenodd" clip-rule="evenodd" d="M1223.66 710.28L1256.38 763.39L1201.56 739.99L1220.8 798.72L1165.07 768.88L1223.66 710.28Z" fill="white"/>
<path fill-rule="evenodd" clip-rule="evenodd" d="M1223.66 710.28C1209.61 734.61 1189.4 754.82 1165.07 768.87L1085.04 630.24L1223.66 710.28Z" fill="#BDC7FB"/>
<path fill-rule="evenodd" clip-rule="evenodd" d="M1186.62 688.9L1209.57 730.82L1166.82 714.34L1186.4 754.13L1143.69 731.84L1186.62 688.9Z" fill="white"/>
<path fill-rule="evenodd" clip-rule="evenodd" d="M1186.62 688.9C1176.32 706.73 1161.52 721.54 1143.68 731.84L1085.03 630.25L1186.62 688.9Z" fill="#D9F0FF"/>
<path fill-rule="evenodd" clip-rule="evenodd" d="M1166.29 677.16C1158.06 691.42 1146.22 703.27 1131.95 711.5L1085.04 630.25L1166.29 677.16Z" fill="#FFE8E5"/>
<path fill-rule="evenodd" clip-rule="evenodd" d="M1145.95 665.42C1139.78 676.11 1130.9 684.99 1120.2 691.17L1085.03 630.25L1145.95 665.42Z" fill="#E3F7ED"/>
<path fill-rule="evenodd" clip-rule="evenodd" d="M1085.04 1386.76C1217.83 1386.76 1348.29 1351.81 1463.29 1285.41L1085.04 630.25V1386.76Z" fill="#E3F7ED"/>
<path fill-rule="evenodd" clip-rule="evenodd" d="M1085.04 1174.2C1180.52 1174.2 1274.32 1149.07 1357.02 1101.32L1085.04 630.24V1174.2Z" fill="#FFE8E5"/>
<path fill-rule="evenodd" clip-rule="evenodd" d="M1085.04 1032.29C1155.61 1032.29 1224.94 1013.71 1286.06 978.43L1085.04 630.25V1032.29Z" fill="#FEDD8E"/>
<path fill-rule="evenodd" clip-rule="evenodd" d="M1085.04 940.8C1139.55 940.8 1193.1 926.45 1240.32 899.19L1085.04 630.24V940.8Z" fill="#E3F7ED"/>
<path fill-rule="evenodd" clip-rule="evenodd" d="M1085.04 846.62C1123.02 846.62 1160.33 836.62 1193.22 817.63L1085.04 630.25V846.62Z" fill="#D9F0FF"/>
<path fill-rule="evenodd" clip-rule="evenodd" d="M1085.04 790.32L1114.68 845.21L1121.81 786.04L1163.05 832.07L1165.07 768.87L1085.04 790.32Z" fill="white"/>
<path fill-rule="evenodd" clip-rule="evenodd" d="M1085.04 790.32C1113.14 790.32 1140.74 782.92 1165.07 768.87L1085.04 630.24V790.32Z" fill="#BDC7FB"/>
<path fill-rule="evenodd" clip-rule="evenodd" d="M1085.04 747.55L1109.86 788.38L1116.97 743.12L1141.64 779.98L1143.69 731.84L1085.04 747.55Z" fill="white"/>
<path fill-rule="evenodd" clip-rule="evenodd" d="M1085.04 747.55C1105.63 747.55 1125.86 742.13 1143.69 731.83L1085.04 630.24V747.55Z" fill="#D9F0FF"/>
<path fill-rule="evenodd" clip-rule="evenodd" d="M1085.03 724.07C1101.5 724.07 1117.68 719.73 1131.94 711.5L1085.03 630.25V724.07Z" fill="#FFE8E5"/>
<path fill-rule="evenodd" clip-rule="evenodd" d="M1085.04 700.59C1097.39 700.59 1109.51 697.34 1120.21 691.17L1085.04 630.25V700.59Z" fill="#E3F7ED"/>
<path fill-rule="evenodd" clip-rule="evenodd" d="M1085.03 1386.76C952.24 1386.76 821.78 1351.81 706.78 1285.41L1085.03 630.25V1386.76Z" fill="#E3F7ED"/>
<path fill-rule="evenodd" clip-rule="evenodd" d="M1085.03 1174.2C989.55 1174.2 895.75 1149.07 813.06 1101.32L1085.03 630.24V1174.2Z" fill="#FFE8E5"/>
<path fill-rule="evenodd" clip-rule="evenodd" d="M1085.04 1032.29C1014.47 1032.29 945.14 1013.71 884.02 978.43L1085.04 630.25V1032.29Z" fill="#FEDD8E"/>
<path fill-rule="evenodd" clip-rule="evenodd" d="M1085.04 940.8C1030.52 940.8 976.97 926.45 929.76 899.19L1085.04 630.24V940.8Z" fill="#E3F7ED"/>
<path fill-rule="evenodd" clip-rule="evenodd" d="M1085.04 846.62C1047.06 846.62 1009.74 836.62 976.85 817.63L1085.04 630.24V846.62Z" fill="#D9F0FF"/>
<path fill-rule="evenodd" clip-rule="evenodd" d="M1085.04 790.32L1055.4 845.21L1048.26 786.04L1007.02 832.07L1005 768.88L1085.04 790.32Z" fill="white"/>
<path fill-rule="evenodd" clip-rule="evenodd" d="M1085.03 790.32C1056.93 790.32 1029.33 782.92 1005 768.87L1085.03 630.24V790.32Z" fill="#BDC7FB"/>
<path fill-rule="evenodd" clip-rule="evenodd" d="M1085.03 747.55L1060.21 788.38L1053.1 743.12L1028.43 779.98L1026.38 731.84L1085.03 747.55Z" fill="white"/>
<path fill-rule="evenodd" clip-rule="evenodd" d="M1085.03 747.55C1064.44 747.55 1044.21 742.13 1026.38 731.83L1085.03 630.24V747.55Z" fill="#D9F0FF"/>
<path fill-rule="evenodd" clip-rule="evenodd" d="M1085.04 724.07C1068.57 724.07 1052.39 719.73 1038.13 711.5L1085.04 630.25V724.07Z" fill="#FFE8E5"/>
<path fill-rule="evenodd" clip-rule="evenodd" d="M1085.03 700.59C1072.68 700.59 1060.56 697.34 1049.86 691.17L1085.03 630.25V700.59Z" fill="#E3F7ED"/>
<path fill-rule="evenodd" clip-rule="evenodd" d="M429.88 1008.5C496.28 1123.5 591.78 1219 706.78 1285.4L1085.04 630.24L429.88 1008.5Z" fill="#E3F7ED"/>
<path fill-rule="evenodd" clip-rule="evenodd" d="M613.95 902.23C661.7 984.92 730.36 1053.59 813.05 1101.33L1085.03 630.25L613.95 902.23Z" fill="#FFE8E5"/>
<path fill-rule="evenodd" clip-rule="evenodd" d="M736.86 831.27C772.14 892.39 822.9 943.14 884.02 978.43L1085.04 630.25L736.86 831.27Z" fill="#FEDD8E"/>
<path fill-rule="evenodd" clip-rule="evenodd" d="M817.76 788.38L884.02 978.43L929.76 899.19L817.76 788.38Z" fill="#FFE8E5"/>
<path fill-rule="evenodd" clip-rule="evenodd" d="M816.09 785.52C843.34 832.73 882.55 871.93 929.76 899.19L1085.04 630.24L816.09 785.52Z" fill="#E3F7ED"/>
<path fill-rule="evenodd" clip-rule="evenodd" d="M914.03 762.82L816.09 785.52L949.74 864.58L949.27 798.72L914.03 762.82Z" fill="#FEDD8E"/>
<path fill-rule="evenodd" clip-rule="evenodd" d="M897.65 738.43C916.64 771.32 943.95 798.64 976.85 817.63L1085.04 630.24L897.65 738.43Z" fill="#D9F0FF"/>
<path fill-rule="evenodd" clip-rule="evenodd" d="M946.41 710.28L913.7 763.39L968.51 739.99L949.27 798.72L1005 768.87L946.41 710.28Z" fill="white"/>
<path fill-rule="evenodd" clip-rule="evenodd" d="M946.41 710.28C960.46 734.61 980.67 754.82 1005 768.87L1085.04 630.24L946.41 710.28Z" fill="#BDC7FB"/>
<path fill-rule="evenodd" clip-rule="evenodd" d="M983.45 688.9L960.5 730.82L1003.25 714.34L983.67 754.13L1026.38 731.84L983.45 688.9Z" fill="white"/>
<path fill-rule="evenodd" clip-rule="evenodd" d="M983.45 688.9C993.75 706.73 1008.55 721.54 1026.39 731.84L1085.04 630.25L983.45 688.9Z" fill="#D9F0FF"/>
<path fill-rule="evenodd" clip-rule="evenodd" d="M1003.78 677.16C1012.01 691.42 1023.86 703.27 1038.12 711.5L1085.03 630.25L1003.78 677.16Z" fill="#FFE8E5"/>
<path fill-rule="evenodd" clip-rule="evenodd" d="M1024.12 665.42C1030.29 676.11 1039.17 684.99 1049.87 691.17L1085.04 630.25L1024.12 665.42Z" fill="#E3F7ED"/>
<path fill-rule="evenodd" clip-rule="evenodd" d="M429.88 1008.5C363.48 893.5 328.53 763.04 328.53 630.24H1085.04L429.88 1008.5Z" fill="#E3F7ED"/>
<path fill-rule="evenodd" clip-rule="evenodd" d="M429.88 1008.5L545.83 701.94L328.52 630.25H541.08L613.95 902.23L429.88 1008.5Z" fill="#D9F0FF"/>
<path fill-rule="evenodd" clip-rule="evenodd" d="M613.95 902.23C566.21 819.54 541.07 725.74 541.07 630.25H1085.02L613.95 902.23Z" fill="#FFE8E5"/>
<path fill-rule="evenodd" clip-rule="evenodd" d="M736.86 831.27L613.95 902.23L696.21 732.5L545.83 701.94L682.99 630.25L736.86 831.27Z" fill="#BDC7FB"/>
<path fill-rule="evenodd" clip-rule="evenodd" d="M736.86 831.27C701.57 770.15 682.99 700.82 682.99 630.25H1085.03L736.86 831.27Z" fill="#FEDD8E"/>
<path fill-rule="evenodd" clip-rule="evenodd" d="M814.45 782.65L682.99 630.25H774.48L814.45 782.65Z" fill="#FFE8E5"/>
<path fill-rule="evenodd" clip-rule="evenodd" d="M816.09 785.52C788.83 738.31 774.48 684.76 774.48 630.24H1085.03L816.09 785.52Z" fill="#E3F7ED"/>
<path fill-rule="evenodd" clip-rule="evenodd" d="M897.65 738.43C878.66 705.54 868.66 668.22 868.66 630.24H1085.03L897.65 738.43Z" fill="#D9F0FF"/>
<path fill-rule="evenodd" clip-rule="evenodd" d="M946.41 710.28L884.06 712.06L931.73 676.29L871.25 663.59L924.96 630.25L946.41 710.28Z" fill="white"/>
<path fill-rule="evenodd" clip-rule="evenodd" d="M946.41 710.28C932.36 685.95 924.96 658.34 924.96 630.24H1085.03L946.41 710.28Z" fill="#BDC7FB"/>
<path fill-rule="evenodd" clip-rule="evenodd" d="M983.45 688.9L935.67 687.81L971.32 659.03L927.06 656.09L967.73 630.25L983.45 688.9Z" fill="white"/>
<path fill-rule="evenodd" clip-rule="evenodd" d="M983.45 688.9C973.15 671.07 967.74 650.84 967.74 630.25H1085.04L983.45 688.9Z" fill="#D9F0FF"/>
<path fill-rule="evenodd" clip-rule="evenodd" d="M1003.78 677.16C995.54 662.9 991.21 646.72 991.21 630.25H1085.03L1003.78 677.16Z" fill="#FFE8E5"/>
<path fill-rule="evenodd" clip-rule="evenodd" d="M1024.12 665.42C1017.94 654.73 1014.69 642.6 1014.69 630.25H1085.03L1024.12 665.42Z" fill="#E3F7ED"/>
<path d="M2262 691H0V800H2262V691Z" fill="white"/>
<path d="M-0.469971 690.78H2262.42" stroke="#4FB3F6" stroke-width="2.0833" stroke-miterlimit="10" stroke-linecap="round" stroke-linejoin="round"/>
<path d="M1086.42 752.93C1546.58 752.93 1919.61 749.738 1919.61 745.8C1919.61 741.862 1546.58 738.67 1086.42 738.67C626.262 738.67 253.23 741.862 253.23 745.8C253.23 749.738 626.262 752.93 1086.42 752.93Z" fill="#BDC7FB"/>
<path d="M1095.84 603.69H1107.83" stroke="#8D1A00" stroke-width="1.2708" stroke-miterlimit="10" stroke-linecap="round" stroke-linejoin="round"/>
<path d="M1109.63 582.5H1092.05" stroke="black" stroke-width="1.25" stroke-miterlimit="10" stroke-linecap="round" stroke-linejoin="round"/>
<path fill-rule="evenodd" clip-rule="evenodd" d="M809.72 264.71C819.45 264.71 827.35 272.61 827.35 282.34C827.35 292.07 819.45 299.97 809.72 299.97C799.99 299.97 792.09 292.07 792.09 282.34C792.08 272.61 799.98 264.71 809.72 264.71Z" fill="#FFC7BF"/>
<path fill-rule="evenodd" clip-rule="evenodd" d="M804.57 265.47C799.92 266.63 791.27 272.37 792.08 283.86C792.43 288.8 796.43 293.93 796.43 293.93C796.43 293.93 798.75 285.63 798.75 282.34C798.75 279.05 799.62 277.46 801.78 277.46C803.94 277.46 804.78 279.9 804.78 282.34H807.97L811.16 274.64H825.59C825.59 274.64 822.3 266.49 813.97 265.22C805.62 263.95 809.22 264.31 804.57 265.47Z" fill="#8D1A00"/>
<path fill-rule="evenodd" clip-rule="evenodd" d="M1606.2 483.47C1587.65 492.68 1574.14 499.99 1564 505.79C1553.85 511.59 1553.23 535.5 1558.76 546.01C1564.29 556.52 1575.98 598.36 1575.98 598.36C1613.73 598.36 1649.72 601.61 1684.02 585.83C1684.02 585.83 1660.14 531.31 1653.38 513.82C1646.61 496.33 1624.75 474.27 1606.2 483.47Z" fill="#FFC7BF"/>
<path fill-rule="evenodd" clip-rule="evenodd" d="M1625.65 483.56C1656.42 501 1683.87 515.38 1698.19 523.72C1712.51 532.07 1708.43 554.07 1690.91 554.07H1623.11C1623.1 554.08 1597.98 467.89 1625.65 483.56Z" fill="#FFC7BF"/>
<path fill-rule="evenodd" clip-rule="evenodd" d="M1573.17 500.38C1542.39 517.82 1514.95 532.2 1500.63 540.54C1486.31 548.89 1490.38 570.89 1507.91 570.89H1575.72C1575.72 570.9 1600.83 484.7 1573.17 500.38Z" fill="#FFC7BF"/>
<path fill-rule="evenodd" clip-rule="evenodd" d="M1583.3 468.39C1573.57 468.39 1565.67 476.29 1565.67 486.02C1565.67 495.75 1573.57 503.65 1583.3 503.65C1593.03 503.65 1600.93 495.75 1600.93 486.02C1600.93 476.29 1593.03 468.39 1583.3 468.39Z" fill="#8D1A00"/>
<path fill-rule="evenodd" clip-rule="evenodd" d="M1567.22 481.25C1565.28 483.74 1560.23 483.95 1560.23 486.86H1567.22C1567.22 486.85 1569.16 478.75 1567.22 481.25Z" fill="#8D1A00"/>
<path fill-rule="evenodd" clip-rule="evenodd" d="M1669.5 554.08H1634.2L1676.32 570.9L1669.5 554.08Z" fill="black"/>
<path fill-rule="evenodd" clip-rule="evenodd" d="M1567.85 570.9H1602.75L1572.44 585.58L1567.85 570.9Z" fill="black"/>
<path d="M1673.25 527.22L1628.38 538.23" stroke="black" stroke-width="1.25" stroke-miterlimit="10" stroke-linecap="round" stroke-linejoin="round"/>
<path d="M1657.97 530.97L1638.17 520.59" stroke="black" stroke-width="1.25" stroke-miterlimit="10" stroke-linecap="round" stroke-linejoin="round"/>
<path d="M1608.6 554.94L1530.02 543.2" stroke="black" stroke-width="1.25" stroke-miterlimit="10" stroke-linecap="round" stroke-linejoin="round"/>
<path d="M1574.09 537.3L1556.17 547.11" stroke="black" stroke-width="1.25" stroke-miterlimit="10" stroke-linecap="round" stroke-linejoin="round"/>
<path fill-rule="evenodd" clip-rule="evenodd" d="M1607.96 554.08C1614.05 554.08 1620.92 558.69 1620.92 564.85C1620.92 567.47 1620.77 573.63 1620.77 576.5C1620.77 577.74 1617.5 578.61 1617.5 576.6C1617.5 575.93 1616.59 567.71 1616.59 567.71C1616.59 567.71 1616.14 576.37 1615.98 578.13C1615.86 579.44 1613.39 579.22 1613.39 577.1C1613.39 576.58 1612.9 568.09 1612.9 568.09C1612.9 568.09 1610.52 575.69 1609.82 577.14C1609.42 577.98 1606.93 576.9 1607.52 575.38C1608.1 573.89 1609.45 567.86 1609.45 567.86C1609.45 567.86 1606.77 569.85 1606.53 569.99C1602.25 572.6 1598.14 569.87 1598.14 562.78C1598.15 555.68 1601.87 554.08 1607.96 554.08Z" fill="#8D1A00"/>
<path fill-rule="evenodd" clip-rule="evenodd" d="M1624.61 554.63C1619.38 554.63 1614.22 546.05 1614.22 546.05C1614.22 546.05 1609.31 545.98 1608.45 545.98C1607.29 545.98 1606.71 543.84 1608.64 543.84C1606.32 543.84 1606.2 541.17 1608.67 541.17C1611.14 541.17 1623.11 540.87 1623.11 540.87C1623.11 540.87 1619.32 536.09 1618.72 535.29C1617.66 533.88 1618.58 532.14 1620.93 533.58C1624.32 535.65 1628.32 538.22 1628.38 538.25C1632.06 539.96 1634.41 540.88 1634.41 545.96C1634.41 553.03 1630.7 554.63 1624.61 554.63Z" fill="#8D1A00"/>
<path fill-rule="evenodd" clip-rule="evenodd" d="M1679.24 706.07C1687.59 706.07 1689 718.06 1684.02 727.83C1679.04 737.61 1675.52 745.8 1664.65 745.8C1653.78 745.8 1655 712.35 1655 712.35C1655 712.35 1670.88 706.07 1679.24 706.07Z" fill="black"/>
<path fill-rule="evenodd" clip-rule="evenodd" d="M1629.44 723.59C1629.09 729.35 1631.13 735.01 1635.08 739.21C1639.04 743.42 1644.55 745.8 1650.33 745.8C1657.97 745.8 1664.65 745.8 1664.65 745.8C1664.65 745.8 1685.67 691.15 1691.69 666.77C1699.14 636.58 1699.49 621.55 1691.84 603.95L1684.06 584.84C1649.15 599.72 1617.78 598.35 1576.13 598.35L1577.88 603.95H1537.56C1518.33 603.95 1504.81 629.33 1521.28 649.4C1541.35 673.86 1563.5 704.37 1563.5 704.37L1603.74 704.8L1578.77 646.16C1578.77 646.16 1606.6 659.09 1633.22 659.09C1632.89 662.67 1630.82 699.1 1629.44 723.59Z" fill="#FBBE2E"/>
<path fill-rule="evenodd" clip-rule="evenodd" d="M1638.05 620.11L1620.93 658.27L1633.22 659.1L1638.05 620.11Z" fill="black"/>
<path d="M1578.78 646.17L1568.26 621.48" stroke="black" stroke-width="1.25" stroke-miterlimit="10" stroke-linecap="round" stroke-linejoin="round"/>
<path d="M1602.11 603.96H1578.15" stroke="black" stroke-width="1.25" stroke-miterlimit="10" stroke-linecap="round" stroke-linejoin="round"/>
<path fill-rule="evenodd" clip-rule="evenodd" d="M1603.74 704.81L1621.19 745.8H1550.17C1543.29 736.44 1581.67 729.27 1575.9 721.28C1568.36 710.84 1563.5 704.38 1563.5 704.38L1603.74 704.81Z" fill="#FF341A"/>
<path fill-rule="evenodd" clip-rule="evenodd" d="M1568.66 476.2H1583.3V495.19C1583.3 495.19 1584.78 486.02 1587.26 486.02C1589.73 486.02 1590.08 488.15 1590.08 490.2V517.62H1603.68C1603.68 517.62 1603.77 493.79 1603.77 484.68C1603.77 471.38 1594.52 466.43 1583.3 466.43C1573.41 466.44 1565.4 469.72 1568.66 476.2Z" fill="#DFA98B"/>
<path fill-rule="evenodd" clip-rule="evenodd" d="M1357.12 307.47C1338.9 307.47 1297.13 318.58 1285.73 321.69C1274.33 324.79 1260.59 335.78 1260.59 352.27V417.12H1213.81V446.8L1291.49 474.97V509.94H1357.13V307.47H1357.12Z" fill="#B9E2FE"/>
<path fill-rule="evenodd" clip-rule="evenodd" d="M1357.12 307.47C1375.34 307.47 1417.12 318.58 1428.52 321.69C1439.92 324.79 1453.66 335.78 1453.66 352.27V417.12H1500.45V446.8L1422.77 474.97V509.94H1357.13C1351 510.55 1347.96 370.11 1357.12 307.47Z" fill="#B9E2FE"/>
<path d="M1291.49 474.97V381.86" stroke="black" stroke-width="1.25" stroke-miterlimit="10" stroke-linecap="round" stroke-linejoin="round"/>
<path d="M1422.67 474.97V381.86" stroke="black" stroke-width="1.25" stroke-miterlimit="10" stroke-linecap="round" stroke-linejoin="round"/>
<path d="M1260.59 417.11H1275.57" stroke="black" stroke-width="1.25" stroke-miterlimit="10" stroke-linecap="round" stroke-linejoin="round"/>
<path d="M1453.56 417.11H1438.59" stroke="black" stroke-width="1.25" stroke-miterlimit="10" stroke-linecap="round" stroke-linejoin="round"/>
<path fill-rule="evenodd" clip-rule="evenodd" d="M1356.55 509.94V589H1311.95C1311.95 589 1291.48 544.47 1291.48 509.94C1333.51 509.94 1356.55 509.94 1356.55 509.94Z" fill="#FFC7BF"/>
<path fill-rule="evenodd" clip-rule="evenodd" d="M1356.55 509.94L1400.32 588.99H1444.92C1444.92 588.99 1445.38 540.71 1421.62 509.93C1379.6 509.94 1356.55 509.94 1356.55 509.94Z" fill="#FFC7BF"/>
<path fill-rule="evenodd" clip-rule="evenodd" d="M1400.74 589.34C1400.74 589.34 1391.34 610.55 1389 623.06C1386.65 635.57 1382.23 720.37 1382.23 720.37H1412.06L1444.93 589L1400.74 589.34Z" fill="#DFA98B"/>
<path fill-rule="evenodd" clip-rule="evenodd" d="M1311.95 589C1311.95 589 1306 617.74 1306.32 630.25C1306.63 642.76 1316.01 720.37 1316.01 720.37H1344.49C1344.49 720.37 1355.72 639.32 1356.04 626.81C1356.36 614.3 1356.56 588.99 1356.56 588.99H1311.95V589Z" fill="#DFA98B"/>
<path fill-rule="evenodd" clip-rule="evenodd" d="M1213.81 417.11C1207.01 417.01 1197.62 404.09 1193.86 404.6C1190.11 405.11 1197.79 415.02 1197.79 415.02H1169.44C1165.34 415.02 1165 419.12 1169.61 419.63C1174.22 420.14 1192.49 422.7 1192.49 422.7C1192.49 422.7 1176.44 424.46 1168.92 425.54C1161.52 426.6 1164.86 430.72 1169.24 430.92C1173.77 431.12 1193.52 430.92 1193.52 430.92C1193.52 430.92 1177.07 434.15 1172.69 435.33C1168.99 436.32 1170.49 441.09 1174.24 440.64C1178.35 440.14 1196.47 437.65 1196.47 437.65C1196.47 437.65 1183.8 442.45 1180.24 443.84C1176.7 445.22 1177.65 447.98 1181.47 447.37C1185.95 446.65 1213.82 446.8 1213.82 446.8C1223.76 446.8 1227 417.3 1213.81 417.11Z" fill="#DFA98B"/>
<path fill-rule="evenodd" clip-rule="evenodd" d="M1500.45 417.11C1507.25 417.1 1516.64 404.09 1520.39 404.6C1524.15 405.11 1516.46 415.02 1516.46 415.02H1544.81C1548.91 415.02 1549.25 419.12 1544.64 419.63C1540.03 420.14 1521.76 422.7 1521.76 422.7C1521.76 422.7 1537.81 424.46 1545.33 425.54C1552.74 426.6 1549.4 430.72 1545.01 430.92C1540.48 431.12 1520.73 430.92 1520.73 430.92C1520.73 430.92 1537.18 434.15 1541.57 435.33C1545.27 436.32 1543.77 441.09 1540.02 440.64C1535.91 440.14 1517.79 437.65 1517.79 437.65C1517.79 437.65 1530.46 442.45 1534.02 443.84C1537.56 445.22 1536.61 447.98 1532.79 447.37C1528.3 446.65 1500.44 446.8 1500.44 446.8C1489.49 446.8 1487.34 417.14 1500.45 417.11Z" fill="#DFA98B"/>
<path fill-rule="evenodd" clip-rule="evenodd" d="M1316.01 720.37C1310.26 729.97 1305.69 739.17 1308.86 745.8H1349.62C1354.48 740.91 1350.51 731.2 1344.48 720.37H1316.01Z" fill="#8D1A00"/>
<path fill-rule="evenodd" clip-rule="evenodd" d="M1382.23 720.37C1381.61 725.45 1373.87 737.62 1373.87 745.8H1449.46C1449.46 745.8 1450.22 741.45 1442.33 738.67C1434.43 735.89 1410.03 727.44 1412.07 720.37H1382.23Z" fill="#8D1A00"/>
<path fill-rule="evenodd" clip-rule="evenodd" d="M1343.28 305.21H1328.99C1328.99 305.21 1330.62 270.37 1357.12 270.37C1360.37 279.67 1357.46 293.52 1357.12 293.45L1343.28 305.21Z" fill="#8D1A00"/>
<path fill-rule="evenodd" clip-rule="evenodd" d="M1370.97 305.21H1385.26C1385.26 305.21 1383.63 270.37 1357.12 270.37V293.45L1370.97 305.21Z" fill="#8D1A00"/>
<path fill-rule="evenodd" clip-rule="evenodd" d="M1340.16 309.21C1340.16 315.71 1342.65 345.8 1357.13 345.8C1371.6 345.8 1372.95 309.03 1372.95 309.03L1357.13 307.48C1357.12 307.47 1347.85 308.16 1340.16 309.21Z" fill="#DFA98B"/>
<path fill-rule="evenodd" clip-rule="evenodd" d="M1346.97 308.51C1346.97 308.51 1349.59 318.37 1357.13 318.62C1364.87 318.87 1367.35 308.47 1367.35 308.47L1357.13 307.47L1346.97 308.51Z" fill="black"/>
<path d="M1373.94 300.38C1377.78 291.108 1373.38 280.479 1364.11 276.639C1354.84 272.798 1344.21 277.201 1340.37 286.472C1336.53 295.744 1340.93 306.373 1350.2 310.213C1359.47 314.054 1370.1 309.651 1373.94 300.38Z" fill="#DFA98B"/>
<path fill-rule="evenodd" clip-rule="evenodd" d="M1337.55 290.52C1339.17 290.52 1340.48 291.84 1340.48 293.46C1340.48 295.08 1339.16 296.39 1337.55 296.39C1335.93 296.39 1334.61 295.08 1334.61 293.46C1334.61 291.83 1335.93 290.52 1337.55 290.52Z" fill="#DFA98B"/>
<path fill-rule="evenodd" clip-rule="evenodd" d="M1377.33 290.52C1378.95 290.52 1380.27 291.84 1380.27 293.46C1380.27 295.08 1378.95 296.39 1377.33 296.39C1375.71 296.39 1374.4 295.08 1374.4 293.46C1374.4 291.83 1375.71 290.52 1377.33 290.52Z" fill="#DFA98B"/>
<path fill-rule="evenodd" clip-rule="evenodd" d="M1031.1 351.57H1207V376.47H1191.96C1191.96 376.47 1145.59 391.97 1127.23 391.97C1110.38 396 1086.66 406.94 1079.89 406.94V463.46H1026.48L1031.1 351.57Z" fill="#BDC7FB"/>
<path fill-rule="evenodd" clip-rule="evenodd" d="M1030.9 351.57H855V369.82L871.91 371.42C871.91 371.42 916.41 391.98 934.76 391.98C951.61 396.01 975.33 406.95 982.1 406.95V463.47H1035.52L1030.9 351.57Z" fill="#BDC7FB"/>
<path fill-rule="evenodd" clip-rule="evenodd" d="M1029.29 293.5C1043.96 293.5 1055.86 305.41 1055.86 320.07C1055.86 334.74 1043.96 346.65 1029.29 346.65C1014.62 346.65 1002.72 334.74 1002.72 320.07C1002.72 305.4 1014.62 293.5 1029.29 293.5Z" fill="#8D1A00"/>
<path fill-rule="evenodd" clip-rule="evenodd" d="M1028.85 319.7C1038.4 319.7 1046.15 331.36 1046.15 345.72C1046.15 360.08 1038.4 371.75 1028.85 371.75C1019.3 371.75 1011.54 360.09 1011.54 345.72C1011.54 331.35 1019.3 319.7 1028.85 319.7Z" fill="black"/>
<path fill-rule="evenodd" clip-rule="evenodd" d="M1028.85 315.05C1040 315.05 1049.05 325.72 1049.05 338.86C1049.05 352 1040 362.67 1028.85 362.67C1017.7 362.67 1008.65 352 1008.65 338.86C1008.65 325.72 1017.7 315.05 1028.85 315.05Z" fill="#DFA98B"/>
<path fill-rule="evenodd" clip-rule="evenodd" d="M982.11 463.46L908.27 725.14H945.27L1039.79 501.64L1045.8 463.46H982.11Z" fill="#FBBE2E"/>
<path fill-rule="evenodd" clip-rule="evenodd" d="M1079.84 463.46L1153.68 725.14H1116.68L1025.54 495.67L1033.22 463.46H1079.84Z" fill="#FBBE2E"/>
<path fill-rule="evenodd" clip-rule="evenodd" d="M855.01 351.57C853.73 350.29 846.22 348.42 840.62 346.63C835.06 344.86 834.58 348.27 837.17 349.88L844.51 352.87H830.48C827.74 352.87 827.05 355.02 828.98 356.96C832.17 360.15 838.61 366.81 843.06 367.16C849.33 367.66 852.88 362.04 855.01 362.04V351.57Z" fill="#DFA98B"/>
<path fill-rule="evenodd" clip-rule="evenodd" d="M1207 351.57C1208.28 350.29 1215.78 348.42 1221.39 346.63C1226.95 344.86 1227.43 348.27 1224.84 349.88L1217.5 352.87H1231.53C1234.27 352.87 1234.96 355.02 1233.03 356.96C1229.84 360.15 1223.41 366.81 1218.96 367.16C1212.69 367.66 1209.14 362.04 1207.01 362.04V351.57H1207Z" fill="#DFA98B"/>
<path fill-rule="evenodd" clip-rule="evenodd" d="M908.95 723.21C906.33 729.55 872.78 728.01 872.29 745.8H938.92L945.95 723.21H908.95Z" fill="#8D1A00"/>
<path fill-rule="evenodd" clip-rule="evenodd" d="M1153.24 723.21C1155.86 729.55 1189.41 728.01 1189.9 745.8H1123.28L1116.25 723.21H1153.24Z" fill="#8D1A00"/>
<path fill-rule="evenodd" clip-rule="evenodd" d="M1020.89 334.45C1021.75 334.45 1022.46 335.15 1022.46 336.01C1022.46 336.87 1021.76 337.58 1020.89 337.58C1020.03 337.58 1019.33 336.88 1019.33 336.01C1019.32 335.15 1020.03 334.45 1020.89 334.45Z" fill="#8D1A00"/>
<path fill-rule="evenodd" clip-rule="evenodd" d="M1037.28 334.45C1038.14 334.45 1038.84 335.15 1038.84 336.01C1038.84 336.87 1038.14 337.58 1037.28 337.58C1036.41 337.58 1035.71 336.88 1035.71 336.01C1035.71 335.15 1036.41 334.45 1037.28 334.45Z" fill="#8D1A00"/>
<path d="M1029.29 336.02L1025.92 345.73H1031.3L1026.79 350.24C1026.79 350.24 1028.7 352.06 1031.3 352.06C1033.9 352.06 1036.42 349.81 1036.42 349.81" stroke="#8D1A00" stroke-width="1.2708" stroke-miterlimit="10" stroke-linecap="round" stroke-linejoin="round"/>
<path d="M1017.17 332.08C1017.17 332.08 1018.58 330.26 1021.67 330.72" stroke="#8D1A00" stroke-width="1.2708" stroke-miterlimit="10" stroke-linecap="round" stroke-linejoin="round"/>
<path d="M1041.03 332.08C1041.03 332.08 1039.62 330.26 1036.53 330.72" stroke="#8D1A00" stroke-width="1.2708" stroke-miterlimit="10" stroke-linecap="round" stroke-linejoin="round"/>
<path d="M1047 312.94H1010.71V322.13H1047V312.94Z" fill="#8D1A00"/>
<path fill-rule="evenodd" clip-rule="evenodd" d="M982.11 406.95V395.59L969.09 403.45C969.09 403.45 977.92 406.95 982.11 406.95Z" fill="black"/>
<path fill-rule="evenodd" clip-rule="evenodd" d="M1079.68 406.95V395.59L1092.7 403.45C1092.7 403.45 1083.86 406.95 1079.68 406.95Z" fill="black"/>
<path d="M1015.53 504.7L1033.66 516.12L1049.05 505.8" stroke="black" stroke-width="1.2708" stroke-miterlimit="10" stroke-linecap="round" stroke-linejoin="round"/>
<path d="M955.25 603.69H967.25" stroke="black" stroke-width="1.2708" stroke-miterlimit="10" stroke-linecap="round" stroke-linejoin="round"/>
<path fill-rule="evenodd" clip-rule="evenodd" d="M1007.51 335.97C1009.34 335.97 1010.82 337.46 1010.82 339.28C1010.82 341.11 1009.34 342.59 1007.51 342.59C1005.68 342.59 1004.2 341.11 1004.2 339.28C1004.2 337.46 1005.68 335.97 1007.51 335.97Z" fill="#DFA98B"/>
<path fill-rule="evenodd" clip-rule="evenodd" d="M1050.12 335.97C1051.94 335.97 1053.43 337.46 1053.43 339.28C1053.43 341.11 1051.95 342.59 1050.12 342.59C1048.29 342.59 1046.81 341.11 1046.81 339.28C1046.8 337.46 1048.29 335.97 1050.12 335.97Z" fill="#DFA98B"/>
<path fill-rule="evenodd" clip-rule="evenodd" d="M982.11 463.46L980.08 470.66L1081.74 470.17L1079.84 463.46H982.11Z" fill="black"/>
<path fill-rule="evenodd" clip-rule="evenodd" d="M1171.24 520.06H1105.49C1091.26 520.06 1079.09 534.66 1066.12 565.65C1054.2 594.14 1076.77 621.34 1109.63 621.34V644.96H1171.24C1171.24 644.95 1197.14 520.06 1171.24 520.06Z" fill="#24A865"/>
<path fill-rule="evenodd" clip-rule="evenodd" d="M1163.32 520.06H1229.07C1243.3 520.06 1255.47 534.66 1268.44 565.65C1280.36 594.14 1257.79 621.34 1224.93 621.34V644.96H1163.32C1163.32 644.95 1137.42 520.06 1163.32 520.06Z" fill="#24A865"/>
<path fill-rule="evenodd" clip-rule="evenodd" d="M1154.46 520.06C1154.46 520.06 1139.89 537.06 1149.25 541.02C1158.61 544.98 1168.49 520.06 1168.49 520.06H1154.46Z" fill="white"/>
<path fill-rule="evenodd" clip-rule="evenodd" d="M1182.52 520.06C1182.52 520.06 1197.09 537.06 1187.72 541.02C1178.36 544.98 1168.49 520.06 1168.49 520.06H1182.52Z" fill="white"/>
<path fill-rule="evenodd" clip-rule="evenodd" d="M1109.63 644.95V745.8H1141.02L1167.38 644.95H1109.63Z" fill="#B9E2FE"/>
<path fill-rule="evenodd" clip-rule="evenodd" d="M1225.13 644.95V745.8H1193.74L1167.38 644.95H1225.13Z" fill="#B9E2FE"/>
<path fill-rule="evenodd" clip-rule="evenodd" d="M1168.49 475.14C1182.44 475.14 1193.77 486.47 1193.77 500.42C1193.77 514.37 1182.44 525.7 1168.49 525.7C1154.54 525.7 1143.21 514.37 1143.21 500.42C1143.21 486.46 1154.53 475.14 1168.49 475.14Z" fill="#FFC7BF"/>
<path fill-rule="evenodd" clip-rule="evenodd" d="M1140.97 745.8H1093.29L1109.63 731.6H1144.73L1140.97 745.8Z" fill="#4FB3F6"/>
<path fill-rule="evenodd" clip-rule="evenodd" d="M1193.67 745.8H1241.34L1225 731.6H1189.9L1193.67 745.8Z" fill="#4FB3F6"/>
<path d="M1109.63 621.33V549.38" stroke="black" stroke-width="1.25" stroke-miterlimit="10" stroke-linecap="round" stroke-linejoin="round"/>
<path d="M1224.61 621.33V549.38" stroke="black" stroke-width="1.25" stroke-miterlimit="10" stroke-linecap="round" stroke-linejoin="round"/>
<path d="M1242.2 582.5H1224.61" stroke="black" stroke-width="1.25" stroke-miterlimit="10" stroke-linecap="round" stroke-linejoin="round"/>
<path fill-rule="evenodd" clip-rule="evenodd" d="M1098.05 582.5H1109.63V570.51L1098.05 582.5Z" fill="black"/>
<path fill-rule="evenodd" clip-rule="evenodd" d="M1236.33 582.5H1224.75V570.51L1236.33 582.5Z" fill="black"/>
<path d="M1141.49 489.49C1147.69 489.49 1152.71 484.466 1152.71 478.27C1152.71 472.073 1147.69 467.05 1141.49 467.05C1135.29 467.05 1130.27 472.073 1130.27 478.27C1130.27 484.466 1135.29 489.49 1141.49 489.49Z" fill="#FF341A"/>
<path fill-rule="evenodd" clip-rule="evenodd" d="M1141.88 496.53C1144.03 496.53 1145.77 498.27 1145.77 500.42C1145.77 502.56 1144.03 504.31 1141.88 504.31C1139.73 504.31 1137.99 502.57 1137.99 500.42C1138 498.27 1139.74 496.53 1141.88 496.53Z" fill="#FFC7BF"/>
<path d="M1196.6 489.515C1202.79 489.235 1207.59 483.989 1207.3 477.798C1207.02 471.608 1201.78 466.817 1195.59 467.098C1189.4 467.379 1184.61 472.625 1184.89 478.815C1185.17 485.005 1190.41 489.796 1196.6 489.515Z" fill="#FF341A"/>
<path fill-rule="evenodd" clip-rule="evenodd" d="M1196.06 496.53C1198.21 496.53 1199.95 498.27 1199.95 500.42C1199.95 502.56 1198.21 504.31 1196.06 504.31C1193.91 504.31 1192.17 502.57 1192.17 500.42C1192.17 498.27 1193.91 496.53 1196.06 496.53Z" fill="#FFC7BF"/>
<path fill-rule="evenodd" clip-rule="evenodd" d="M1143.45 496.87C1143.45 496.87 1145.77 497.41 1145.77 500.42V505.39L1152.71 491.5H1168.49V475.14C1168.49 475.14 1148.91 473.6 1143.21 496.53" fill="#FF341A"/>
<path fill-rule="evenodd" clip-rule="evenodd" d="M1193.52 496.87C1193.52 496.87 1191.2 497.41 1191.2 500.42V505.39L1184.26 491.5H1168.49V475.14C1168.49 475.14 1188.07 473.6 1193.77 496.53" fill="#FF341A"/>
<path fill-rule="evenodd" clip-rule="evenodd" d="M816.97 297.62C816.97 297.62 918.56 225.29 934 214.3C942.37 222.67 946.38 226.68 946.38 226.68C946.38 226.68 867.73 309.58 858.53 319.25C849.33 328.92 858.53 385.64 858.53 385.64H761V373.15C761 373.15 746.91 372.77 736.83 372.77C725.41 372.77 719.33 364.06 723.16 356.06C728.01 345.91 742.51 319.75 748.33 309.91C753.08 301.89 760.12 297.61 766.23 297.61H816.97V297.62Z" fill="#4FB3F6"/>
<path fill-rule="evenodd" clip-rule="evenodd" d="M801.32 297.85C801.32 297.85 804.55 306.75 809.72 306.75C814.89 306.75 818.7 297.51 818.7 297.51L801.32 297.85Z" fill="black"/>
<path d="M760.99 353.32V319.82" stroke="black" stroke-width="1.25" stroke-miterlimit="10" stroke-linecap="round" stroke-linejoin="round"/>
<path fill-rule="evenodd" clip-rule="evenodd" d="M934 214.3C943.26 207.29 950.59 201.62 952.78 200.19C954.98 198.76 955.99 200.11 954.64 202.05C953.29 203.99 948.65 212.01 948.65 212.01C948.65 212.01 954.39 218 950.93 221.88C947.47 225.76 946.38 226.68 946.38 226.68C946.38 226.68 937.73 218.77 934 214.3Z" fill="#FFC7BF"/>
<path d="M740.76 351.08C740.76 351.08 781.2 355.48 785.48 356.22" stroke="black" stroke-width="1.25" stroke-miterlimit="10" stroke-linecap="round" stroke-linejoin="round"/>
<path d="M803.77 268.17C814.203 268.17 822.66 259.713 822.66 249.28C822.66 238.847 814.203 230.39 803.77 230.39C793.337 230.39 784.88 238.847 784.88 249.28C784.88 259.713 793.337 268.17 803.77 268.17Z" fill="#8D1A00"/>
<path fill-rule="evenodd" clip-rule="evenodd" d="M858.52 385.65L910.23 715.92H861.04L818 471V715.92H753.7L760.99 385.65H858.52Z" fill="#24A865"/>
<path fill-rule="evenodd" clip-rule="evenodd" d="M761 715.92C761 724.09 720.07 738.9 720.07 745.81H802.22V715.92H761Z" fill="#4FB3F6"/>
<path fill-rule="evenodd" clip-rule="evenodd" d="M905.45 715.92C905.45 724.09 916.89 738.9 916.89 745.81H864.23C856.98 739.99 865.22 733.27 864.23 715.92H905.45Z" fill="#4FB3F6"/>
<path d="M802.97 459.09L817.02 471.77L830.08 456.89" stroke="black" stroke-width="1.25" stroke-miterlimit="10" stroke-linecap="round" stroke-linejoin="round"/>
<path fill-rule="evenodd" clip-rule="evenodd" d="M769.94 547.82H787.96C787.96 547.82 779.89 563.26 769.94 547.82Z" fill="black"/>
<path fill-rule="evenodd" clip-rule="evenodd" d="M869.98 547.82H851.96C851.97 547.82 860.04 563.26 869.98 547.82Z" fill="black"/>
<path fill-rule="evenodd" clip-rule="evenodd" d="M760.99 373.16H788.53L760.99 385.65V373.16Z" fill="black"/>
<path fill-rule="evenodd" clip-rule="evenodd" d="M780.98 362.73C781.92 357.02 790.38 353.04 792.78 351.53C795.04 350.11 796.13 352.43 795.02 353.78C794.38 354.56 792.42 356.03 791.36 357.17C790.56 358.03 791.22 359.12 791.45 359.74C791.95 361.07 793.56 360.09 795.96 359.29C800.01 357.93 805.78 355.91 807.46 355.35C810.08 354.47 810.75 357.5 808.31 358.66C805.79 359.86 795.6 364.88 795.6 364.88C795.6 364.88 795.62 372.86 790.85 373.11C786.08 373.36 781.35 372.51 781.05 368.84C780.74 365.18 780.58 365.15 780.98 362.73Z" fill="#FFC7BF"/>
<path fill-rule="evenodd" clip-rule="evenodd" d="M822.33 279.25C824.27 281.74 829.32 281.95 829.32 284.86H822.33C822.33 284.86 820.39 276.76 822.33 279.25Z" fill="#FFC7BF"/>
<path fill-rule="evenodd" clip-rule="evenodd" d="M567.2 646.66C567.2 646.66 654.52 606.23 675.13 595.69C695.74 585.15 722.62 592 722.62 614.13V724.27H670.45V659.98L593.51 696.23L567.2 646.66Z" fill="#FF341A"/>
<path fill-rule="evenodd" clip-rule="evenodd" d="M567.2 646.66C567.2 646.66 605.12 629.1 636.88 614.11C631.3 640.07 621.5 683.04 621.5 683.04L593.5 696.23L567.2 646.66Z" fill="black"/>
<path fill-rule="evenodd" clip-rule="evenodd" d="M567.2 465.52C617.18 465.52 657.77 506.1 657.77 556.09C657.77 572.97 657.16 587.59 657.16 604.48C653.78 606.7 638.21 613.37 636.52 614.28C619.9 634.24 595.18 646.66 567.2 646.66C517.21 646.66 476.63 606.08 476.63 556.09C476.62 506.1 517.21 465.52 567.2 465.52Z" fill="#BDC7FB"/>
<path d="M581.71 511.23C591.889 511.23 600.14 500.539 600.14 487.35C600.14 474.161 591.889 463.47 581.71 463.47C571.531 463.47 563.28 474.161 563.28 487.35C563.28 500.539 571.531 511.23 581.71 511.23Z" fill="black"/>
<path d="M582.65 504.65C595.839 504.65 606.53 493.958 606.53 480.77C606.53 467.581 595.839 456.89 582.65 456.89C569.461 456.89 558.77 467.581 558.77 480.77C558.77 493.958 569.461 504.65 582.65 504.65Z" fill="#FEDD8E"/>
<path d="M628.83 516.41C635.99 533.5 630.93 535.98 630.93 546.25C630.93 569.97 656.43 587.61 636.72 614.11" stroke="black" stroke-width="1.25" stroke-miterlimit="10" stroke-linecap="round" stroke-linejoin="round"/>
<path fill-rule="evenodd" clip-rule="evenodd" d="M476.62 556.09V646.66H567.19C567.2 646.66 476.62 533.01 476.62 556.09Z" fill="#BDC7FB"/>
<path fill-rule="evenodd" clip-rule="evenodd" d="M476.62 646.66C476.62 664.81 479.96 704.33 514.22 704.33H476.62V745.8H605.12C634.11 745.8 641.35 728.7 641.35 713.55C641.35 698.4 632.78 689.93 605.78 672.14C578.77 654.35 567.19 646.65 567.19 646.65H476.62V646.66Z" fill="#C98600"/>
<path fill-rule="evenodd" clip-rule="evenodd" d="M670.44 724.28V745.8H745.65L722.61 724.28H670.44Z" fill="#8D1A00"/>
<path fill-rule="evenodd" clip-rule="evenodd" d="M476.62 704.33C471.19 704.33 470.76 693.67 463.6 687.34C453.06 695.77 398.25 745.8 398.25 745.8H476.62V704.33Z" fill="#FF341A"/>
<path d="M514.22 704.33H588.09" stroke="black" stroke-width="1.25" stroke-miterlimit="10" stroke-linecap="round" stroke-linejoin="round"/>
<path d="M670.44 659.98L681.04 642.53" stroke="black" stroke-width="1.25" stroke-miterlimit="10" stroke-linecap="round" stroke-linejoin="round"/>
<path fill-rule="evenodd" clip-rule="evenodd" d="M593.22 564.14L572.71 535C572.71 535 576.05 524.13 577.77 521.02C579.5 517.91 585.04 517.2 584.51 522.75C584.06 527.34 583.82 531.73 583.82 531.73C583.82 531.73 597.95 522.08 603.99 517.97C610.04 513.87 612.56 518.81 609.45 522.03C606.54 525.04 599.73 531.96 599.73 531.96C599.73 531.96 604.9 539.59 607.72 544.26C610.5 548.88 610.53 553.45 606.21 556.09C601.9 558.73 593.22 564.14 593.22 564.14Z" fill="#FEDD8E"/>
<path d="M572.71 535L514.22 574.37" stroke="black" stroke-width="1.25" stroke-miterlimit="10" stroke-linecap="round" stroke-linejoin="round"/>
<path d="M592.81 564.14L534.32 603.51" stroke="black" stroke-width="1.25" stroke-miterlimit="10" stroke-linecap="round" stroke-linejoin="round"/>
<path d="M502.71 507.88C502.71 507.88 483.15 556.13 476.63 576.74" stroke="black" stroke-width="1.25" stroke-miterlimit="10" stroke-linecap="round" stroke-linejoin="round"/>
<path d="M530.54 563.38L556.28 507.88" stroke="black" stroke-width="1.25" stroke-miterlimit="10" stroke-linecap="round" stroke-linejoin="round"/>
<path d="M534.32 603.51C534.32 603.51 490.65 638.58 476.63 615.72" stroke="black" stroke-width="1.25" stroke-miterlimit="10" stroke-linecap="round" stroke-linejoin="round"/>
<path fill-rule="evenodd" clip-rule="evenodd" d="M560.27 489.11C560.27 489.11 560.98 483.39 564.98 483.39C568.98 483.39 567.2 491.58 567.2 491.58L569.71 493.94L573.35 489.03H605.07C605.07 489.03 614.88 463.86 589.72 457.95C566.4 452.47 560.43 467 558.83 473.74C557.24 480.44 560.27 489.11 560.27 489.11Z" fill="#FF341A"/>
<path fill-rule="evenodd" clip-rule="evenodd" d="M590.25 499.34C589.8 502.31 590.4 506.62 588.17 507.21C585.94 507.8 585.65 501.71 585.65 501.71C585.65 501.71 590.7 496.37 590.25 499.34Z" fill="#FEDD8E"/>
</g>
<defs>
<clipPath id="clip0_459:19192">
<rect width="2241" height="800" fill="white"/>
</clipPath>
</defs>
</svg>
