<svg width="2653" height="652" viewBox="0 0 2653 652" fill="none" xmlns="http://www.w3.org/2000/svg">
<g clip-path="url(#clip0_459:20097)">
<path fill-rule="evenodd" clip-rule="evenodd" d="M0.300781 366.4H251.501C251.501 366.4 245.601 334.3 221.901 334.3C198.201 334.3 180.501 338.5 161.801 338.5C143.101 338.5 147.401 311.4 100.101 311.4C52.7008 311.4 0.300781 366.4 0.300781 366.4Z" fill="white"/>
<path fill-rule="evenodd" clip-rule="evenodd" d="M375.5 195.9H571.2C571.2 195.9 553.9 171.7 527 171.7C500.2 171.7 491.5 183.8 475 183.8C458.5 183.8 444.7 164.7 419.6 164.7C394.6 164.7 375.5 195.9 375.5 195.9Z" fill="white"/>
<path fill-rule="evenodd" clip-rule="evenodd" d="M1568.4 24.4001H1642.3C1642.3 24.4001 1626.5 6.8001 1617 7.2001C1607.5 7.6001 1603.9 0.100098 1588.9 0.100098C1573.9 0.100098 1568.4 24.4001 1568.4 24.4001Z" fill="white"/>
<path fill-rule="evenodd" clip-rule="evenodd" d="M2219.6 278H2432.2C2455.4 278 2454.4 244.2 2428.3 244.2C2402.2 244.2 2397.2 224 2354.8 227.8C2334.7 229.6 2321.3 251.8 2292.7 253.3C2233.7 256.5 2213.6 269.2 2219.6 278Z" fill="white"/>
<path fill-rule="evenodd" clip-rule="evenodd" d="M2460.2 84.9H2653.2C2653.2 84.9 2632.8 62.6 2609.6 62.6C2586.4 62.6 2567.4 66 2553.4 66C2539.4 66 2528.5 47.4 2502.7 47.4C2477 47.3 2446.8 68.3 2460.2 84.9Z" fill="white"/>
<path fill-rule="evenodd" clip-rule="evenodd" d="M982.201 71.6001H1175.2C1175.2 71.6001 1154.8 49.3001 1131.5 49.3001C1108.3 49.3001 1089.3 52.7001 1075.3 52.7001C1061.3 52.7001 1050.4 34.1001 1024.6 34.1001C999.001 34.1001 968.801 55.1001 982.201 71.6001Z" fill="white"/>
<path d="M98.6992 652H2612.4" stroke="#FFC7BF" stroke-width="2.0833" stroke-miterlimit="10" stroke-linecap="round" stroke-linejoin="round"/>
<path d="M1091.1 445.2H1180.8" stroke="#FFE8E5" stroke-width="2.0833" stroke-miterlimit="10" stroke-linecap="round" stroke-linejoin="round"/>
<path d="M1091.1 389.5H1180.8" stroke="#FFE8E5" stroke-width="2.0833" stroke-miterlimit="10" stroke-linecap="round" stroke-linejoin="round"/>
<path d="M1091.1 500.8H1180.8" stroke="#FFE8E5" stroke-width="2.0833" stroke-miterlimit="10" stroke-linecap="round" stroke-linejoin="round"/>
<path d="M1091.1 556.4H1180.8" stroke="#FFE8E5" stroke-width="2.0833" stroke-miterlimit="10" stroke-linecap="round" stroke-linejoin="round"/>
<path d="M1180.8 291.9H1091.1V646.1H1180.8V291.9Z" fill="#FFC7BF"/>
<path d="M1091.1 330.3H1180.8" stroke="#FFE8E5" stroke-width="2.0833" stroke-miterlimit="10" stroke-linecap="round" stroke-linejoin="round"/>
<path fill-rule="evenodd" clip-rule="evenodd" d="M1115.3 268.7C1115.3 264 1111.5 260.2 1106.8 260.2H1099.6C1094.9 260.2 1091.1 264 1091.1 268.7H1115.3Z" fill="#FFC7BF"/>
<path fill-rule="evenodd" clip-rule="evenodd" d="M1168.7 259.2C1168.7 250.6 1165.3 242.3 1159.2 236.2C1153.1 230.1 1144.9 226.7 1136.2 226.7H1135.7C1127.1 226.7 1118.8 230.1 1112.7 236.2C1106.6 242.3 1103.2 250.6 1103.2 259.2V260.2H1168.7V259.2Z" fill="#FF341A"/>
<path fill-rule="evenodd" clip-rule="evenodd" d="M1180.8 268.7C1180.8 264 1177 260.2 1172.3 260.2H1165.1C1160.4 260.2 1156.6 264 1156.6 268.7H1180.8Z" fill="#FFC7BF"/>
<path d="M1115.3 268.7H1091.1V291.9H1115.3V268.7Z" fill="#FFE8E5"/>
<path d="M1180.8 268.7H1156.6V291.9H1180.8V268.7Z" fill="#FFE8E5"/>
<path d="M1146.2 217.7H1125.8V228.5H1146.2V217.7Z" fill="#FFE8E5"/>
<path d="M1146.2 174.4H1125.8V192.6H1146.2V174.4Z" fill="#FFE8E5"/>
<path d="M1146.2 192.7H1125.8V217.8H1146.2V192.7Z" fill="#FFC7BF"/>
<path fill-rule="evenodd" clip-rule="evenodd" d="M1136 147.6C1136 147.6 1124.1 150.3 1122.8 163C1121.8 172.9 1125.8 174.4 1125.8 174.4H1136V147.6Z" fill="#FF341A"/>
<path fill-rule="evenodd" clip-rule="evenodd" d="M1136 147.6C1136 147.6 1147.9 150.3 1149.2 163C1150.2 172.9 1146.2 174.4 1146.2 174.4H1136V147.6Z" fill="#FF341A"/>
<path fill-rule="evenodd" clip-rule="evenodd" d="M1136 118C1138.1 118 1139.9 119.7 1139.9 121.9C1139.9 124.1 1138.2 125.8 1136 125.8C1133.8 125.8 1132.1 124.1 1132.1 121.9C1132.1 119.7 1133.8 118 1136 118Z" fill="#FF341A"/>
<path d="M1136 125.7V147.6" stroke="#FFC7BF" stroke-width="2.0833" stroke-miterlimit="10" stroke-linecap="round" stroke-linejoin="round"/>
<path fill-rule="evenodd" clip-rule="evenodd" d="M850.599 80.5L686.199 203.8V652H850.599V80.5Z" fill="#FFE8E5"/>
<path d="M686.199 203.8H850.599" stroke="#FFF1F0" stroke-width="2.0833" stroke-miterlimit="10" stroke-linecap="round" stroke-linejoin="round"/>
<path d="M686.199 246.2H850.599" stroke="#FFF1F0" stroke-width="2.0833" stroke-miterlimit="10" stroke-linecap="round" stroke-linejoin="round"/>
<path d="M749 285.4H850.6" stroke="#FFF1F0" stroke-width="2.0833" stroke-miterlimit="10" stroke-linecap="round" stroke-linejoin="round"/>
<path d="M686.199 320H787.799" stroke="#FFF1F0" stroke-width="2.0833" stroke-miterlimit="10" stroke-linecap="round" stroke-linejoin="round"/>
<path fill-rule="evenodd" clip-rule="evenodd" d="M1632.4 320.6C1657 320.6 1676.1 337 1690.5 365.1C1704.9 393.2 1738.5 392.8 1749 447.8C1761.5 512.9 1672.8 548.8 1672.8 548.8H1632.4V320.6Z" fill="#9CE8C2"/>
<path d="M1663.9 372C1663.9 372 1667.4 389.7 1667.4 402.3C1667.4 414.9 1642.6 463.2 1642.6 493.7" stroke="#24A865" stroke-width="2.0833" stroke-miterlimit="10" stroke-linecap="round" stroke-linejoin="round"/>
<path d="M1642.6 367.5C1642.6 367.5 1643.1 402.9 1663.6 417.2" stroke="#24A865" stroke-width="2.0833" stroke-miterlimit="10" stroke-linecap="round" stroke-linejoin="round"/>
<path d="M1704.4 412.3C1704.4 412.3 1683.2 437.7 1655 441.3" stroke="#24A865" stroke-width="2.0833" stroke-miterlimit="10" stroke-linecap="round" stroke-linejoin="round"/>
<path d="M1704.4 441.2C1704.4 441.2 1693.3 441.5 1683.9 429.9" stroke="#24A865" stroke-width="2.0833" stroke-miterlimit="10" stroke-linecap="round" stroke-linejoin="round"/>
<path fill-rule="evenodd" clip-rule="evenodd" d="M469.1 519.3C454.7 523.1 399.5 525.6 383.6 474.8C367.7 424 416.6 406.9 435 382.2C453.4 357.4 462.9 328.1 508 330.4C553.1 332.7 589.9 414.6 559.4 460.9C529 507.3 483.5 515.5 469.1 519.3Z" fill="#9CE8C2"/>
<path d="M488.5 376C488.5 376 494 428.5 483 455" stroke="#24A865" stroke-width="2.0833" stroke-miterlimit="10" stroke-linecap="round" stroke-linejoin="round"/>
<path d="M526.698 387.6L488.898 428" stroke="#24A865" stroke-width="2.0833" stroke-miterlimit="10" stroke-linecap="round" stroke-linejoin="round"/>
<path d="M507.801 407.8H531.201" stroke="#24A865" stroke-width="2.0833" stroke-miterlimit="10" stroke-linecap="round" stroke-linejoin="round"/>
<path fill-rule="evenodd" clip-rule="evenodd" d="M2362.4 519.3C2376.8 523.1 2432 525.6 2447.9 474.8C2463.8 424 2414.9 406.9 2396.5 382.2C2378.1 357.4 2368.6 328.1 2323.5 330.4C2278.4 332.7 2241.6 414.6 2272.1 460.9C2302.5 507.3 2348 515.5 2362.4 519.3Z" fill="#9CE8C2"/>
<path d="M2344.1 377.9C2344.1 377.9 2338.6 430.4 2349.6 456.9" stroke="#24A865" stroke-width="2.0833" stroke-miterlimit="10" stroke-linecap="round" stroke-linejoin="round"/>
<path d="M2306 389.5L2343.7 429.9" stroke="#24A865" stroke-width="2.0833" stroke-miterlimit="10" stroke-linecap="round" stroke-linejoin="round"/>
<path d="M2324.8 409.7H2301.4" stroke="#24A865" stroke-width="2.0833" stroke-miterlimit="10" stroke-linecap="round" stroke-linejoin="round"/>
<path d="M469.101 593H350.801V652H469.101V593Z" fill="#FFC7BF"/>
<path fill-rule="evenodd" clip-rule="evenodd" d="M410.001 566.8L469.101 593H350.801L410.001 566.8Z" fill="#FF341A"/>
<path d="M2456.9 548.9H2380.1V652H2456.9V548.9Z" fill="#FFE8E5"/>
<path d="M2380.2 463H2227.1V651.9H2380.2V463Z" fill="#FFC7BF"/>
<path d="M2380.1 463H2345.8V651.9H2380.1V463Z" fill="#FF341A"/>
<path d="M2363.7 452.7H2237.5V463.1H2363.7V452.7Z" fill="#FFE8E5"/>
<path d="M2227.1 525.7H2345.8" stroke="#FFE8E5" stroke-width="2.0833" stroke-miterlimit="10" stroke-linecap="round" stroke-linejoin="round"/>
<path d="M2227.1 589.6H2345.8" stroke="#FFE8E5" stroke-width="2.0833" stroke-miterlimit="10" stroke-linecap="round" stroke-linejoin="round"/>
<path d="M2380.1 525.7H2345.8" stroke="#FFC7BF" stroke-width="2.0833" stroke-miterlimit="10" stroke-linecap="round" stroke-linejoin="round"/>
<path d="M2380.1 589.6H2345.8" stroke="#FFC7BF" stroke-width="2.0833" stroke-miterlimit="10" stroke-linecap="round" stroke-linejoin="round"/>
<path d="M2314.4 546.3H2293V567.8H2314.4V546.3Z" fill="#FFE8E5"/>
<path d="M2314.4 482.7H2293V504.2H2314.4V482.7Z" fill="#FFE8E5"/>
<path d="M2272.3 546.3H2250.9V567.8H2272.3V546.3Z" fill="#FFE8E5"/>
<path d="M2272.3 482.7H2250.9V504.2H2272.3V482.7Z" fill="#FFE8E5"/>
<path d="M2356.5 546.3H2335.1V567.8H2356.5V546.3Z" fill="#FFE8E5"/>
<path d="M2356.5 482.7H2335.1V504.2H2356.5V482.7Z" fill="#FFE8E5"/>
<path d="M2356.5 546.3H2345.8V567.8H2356.5V546.3Z" fill="#FFC7BF"/>
<path d="M2356.5 482.7H2345.8V504.2H2356.5V482.7Z" fill="#FFC7BF"/>
<path d="M2062.5 205.4H1963.5V509.2H2062.5V205.4Z" fill="#FFE8E5"/>
<path d="M1988.9 219.4H1977.2V231.1H1988.9V219.4Z" fill="#FFF1F0"/>
<path d="M2052.1 274.3H2040.4V286H2052.1V274.3Z" fill="#FFF1F0"/>
<path d="M2024.7 302.2H2013V313.9H2024.7V302.2Z" fill="#FFF1F0"/>
<path d="M2024.7 219.4H2013V231.1H2024.7V219.4Z" fill="#FFF1F0"/>
<path d="M2024.7 248.9H2013V260.6H2024.7V248.9Z" fill="#FFF1F0"/>
<path d="M1988.9 357.3H1977.2V369H1988.9V357.3Z" fill="#FFF1F0"/>
<path d="M744.099 382H584.199V651.9H744.099V382Z" fill="#FFC7BF"/>
<path d="M744.099 451H584.199V541.4H744.099V451Z" fill="#FFE8E5"/>
<path d="M743.998 382H664.098V651.9H743.998V382Z" fill="#FF341A"/>
<path d="M743.998 451H664.098V541.4H743.998V451Z" fill="#FFC7BF"/>
<path d="M613.801 567.7H707.201" stroke="#FFF1F0" stroke-width="2.0833" stroke-miterlimit="10" stroke-linecap="round" stroke-linejoin="round"/>
<path d="M613.801 428.6H707.201" stroke="#FFF1F0" stroke-width="2.0833" stroke-miterlimit="10" stroke-linecap="round" stroke-linejoin="round"/>
<path d="M1830.6 330.4H1761.3V495.5H1830.6V330.4Z" fill="#FFC7BF"/>
<path fill-rule="evenodd" clip-rule="evenodd" d="M1830.7 351.4L1761.3 395.4V443L1830.7 399V351.4Z" fill="#FFE8E5"/>
<path d="M1430.1 111.6H1305.5V415.4H1430.1V111.6Z" fill="#FFE8E5"/>
<path d="M1385.4 132.2H1326.1V191.5H1385.4V132.2Z" fill="#FFF1F0"/>
<path d="M1415.1 274.3H1355.8V299.5H1415.1V274.3Z" fill="#FFF1F0"/>
<path d="M584.102 443.7H469.102V652H584.102V443.7Z" fill="#FFE8E5"/>
<path d="M584.203 443.7H526.703V537.4H584.203V443.7Z" fill="#FFC7BF"/>
<path d="M526.602 541.4H469.102V651.9H526.602V541.4Z" fill="#FFC7BF"/>
<path fill-rule="evenodd" clip-rule="evenodd" d="M584.203 508.8L526.703 476.2V508.8L584.203 541.4V508.8Z" fill="#FF341A"/>
<path fill-rule="evenodd" clip-rule="evenodd" d="M526.702 574L469.102 541.4V574L526.702 606.6V574Z" fill="#FF341A"/>
<path fill-rule="evenodd" clip-rule="evenodd" d="M584.203 606.6L526.703 574V606.6L584.203 639.2V606.6Z" fill="#FFC7BF"/>
<path fill-rule="evenodd" clip-rule="evenodd" d="M526.702 476.2L469.102 443.7V476.2L526.702 508.8V476.2Z" fill="#FFC7BF"/>
<path d="M1672.8 548.9H1632.4V652H1672.8V548.9Z" fill="#FFF1F0"/>
<path d="M2227.1 548.9H2186.7V652H2227.1V548.9Z" fill="#FFF1F0"/>
<path fill-rule="evenodd" clip-rule="evenodd" d="M1632.4 548.9V524.9H1652.6L1672.8 548.9H1632.4Z" fill="#FF341A"/>
<path fill-rule="evenodd" clip-rule="evenodd" d="M2227.1 548.9V524.9H2206.9L2186.7 548.9H2227.1Z" fill="#FF341A"/>
<path d="M1652.6 511.7H1632.4V524.9H1652.6V511.7Z" fill="#FFC7BF"/>
<path d="M2227.1 511.7H2206.9V524.9H2227.1V511.7Z" fill="#FFC7BF"/>
<path fill-rule="evenodd" clip-rule="evenodd" d="M1632.4 511.7V491.3C1643.6 491.3 1652.6 500.3 1652.6 511.5V511.7H1632.4Z" fill="#FF341A"/>
<path fill-rule="evenodd" clip-rule="evenodd" d="M2227.1 511.7V491.3C2216 491.3 2206.9 500.3 2206.9 511.5V511.7H2227.1Z" fill="#FF341A"/>
<path d="M1880.2 495.5H1672.8V652H1880.2V495.5Z" fill="#FFE8E5"/>
<path d="M2186.6 495.5H1979.2V652H2186.6V495.5Z" fill="#FFE8E5"/>
<path d="M1712.3 617.1C1712.3 607.9 1704.8 600.4 1695.6 600.4C1686.4 600.4 1678.9 607.9 1678.9 617.1V652H1712.2L1712.3 617.1Z" stroke="#FFC7BF" stroke-width="2.0833" stroke-miterlimit="10" stroke-linecap="round" stroke-linejoin="round"/>
<path d="M2147.2 617.1C2147.2 607.9 2154.7 600.4 2163.9 600.4C2173.1 600.4 2180.6 607.9 2180.6 617.1V652H2147.3L2147.2 617.1Z" stroke="#FFC7BF" stroke-width="2.0833" stroke-miterlimit="10" stroke-linecap="round" stroke-linejoin="round"/>
<path fill-rule="evenodd" clip-rule="evenodd" d="M1752.1 617.1C1752.1 607.9 1744.6 600.4 1735.4 600.4C1726.2 600.4 1718.7 607.9 1718.7 617.1V652H1752L1752.1 617.1Z" fill="#FFC7BF"/>
<path d="M1752.1 617.1C1752.1 607.9 1744.6 600.4 1735.4 600.4C1726.2 600.4 1718.7 607.9 1718.7 617.1V652H1752L1752.1 617.1Z" stroke="#FFC7BF" stroke-width="2.0833" stroke-miterlimit="10" stroke-linecap="round" stroke-linejoin="round"/>
<path fill-rule="evenodd" clip-rule="evenodd" d="M2107.4 617.1C2107.4 607.9 2114.9 600.4 2124.1 600.4C2133.3 600.4 2140.8 607.9 2140.8 617.1V652H2107.5L2107.4 617.1Z" fill="#FFC7BF"/>
<path d="M2107.4 617.1C2107.4 607.9 2114.9 600.4 2124.1 600.4C2133.3 600.4 2140.8 607.9 2140.8 617.1V652H2107.5L2107.4 617.1Z" stroke="#FFC7BF" stroke-width="2.0833" stroke-miterlimit="10" stroke-linecap="round" stroke-linejoin="round"/>
<path fill-rule="evenodd" clip-rule="evenodd" d="M2107.4 617.1C2107.4 607.9 2114.9 600.4 2124.1 600.4C2133.3 600.4 2140.8 607.9 2140.8 617.1V621.3L2107.5 636.8L2107.4 617.1Z" fill="#FF341A"/>
<path d="M2107.4 617.1C2107.4 607.9 2114.9 600.4 2124.1 600.4C2133.3 600.4 2140.8 607.9 2140.8 617.1V621.3L2107.5 636.8L2107.4 617.1Z" stroke="#FF341A" stroke-width="2.0833" stroke-miterlimit="10" stroke-linecap="round" stroke-linejoin="round"/>
<path d="M1791.9 617.1C1791.9 607.9 1784.4 600.4 1775.2 600.4C1766 600.4 1758.5 607.9 1758.5 617.1V652H1791.8L1791.9 617.1Z" stroke="#FFC7BF" stroke-width="2.0833" stroke-miterlimit="10" stroke-linecap="round" stroke-linejoin="round"/>
<path d="M2067.6 617.1C2067.6 607.9 2075.1 600.4 2084.3 600.4C2093.5 600.4 2101 607.9 2101 617.1V652H2067.7L2067.6 617.1Z" stroke="#FFC7BF" stroke-width="2.0833" stroke-miterlimit="10" stroke-linecap="round" stroke-linejoin="round"/>
<path fill-rule="evenodd" clip-rule="evenodd" d="M1831.7 617.1C1831.7 607.9 1824.2 600.4 1815 600.4C1805.8 600.4 1798.3 607.9 1798.3 617.1V652H1831.6L1831.7 617.1Z" fill="#FFC7BF"/>
<path d="M1831.7 617.1C1831.7 607.9 1824.2 600.4 1815 600.4C1805.8 600.4 1798.3 607.9 1798.3 617.1V652H1831.6L1831.7 617.1Z" stroke="#FFC7BF" stroke-width="2.0833" stroke-miterlimit="10" stroke-linecap="round" stroke-linejoin="round"/>
<path fill-rule="evenodd" clip-rule="evenodd" d="M2027.8 617.1C2027.8 607.9 2035.3 600.4 2044.5 600.4C2053.7 600.4 2061.2 607.9 2061.2 617.1V652H2027.9L2027.8 617.1Z" fill="#FFC7BF"/>
<path d="M2027.8 617.1C2027.8 607.9 2035.3 600.4 2044.5 600.4C2053.7 600.4 2061.2 607.9 2061.2 617.1V652H2027.9L2027.8 617.1Z" stroke="#FFC7BF" stroke-width="2.0833" stroke-miterlimit="10" stroke-linecap="round" stroke-linejoin="round"/>
<path d="M1871.5 617.1C1871.5 607.9 1864 600.4 1854.8 600.4C1845.6 600.4 1838.1 607.9 1838.1 617.1V652H1871.4L1871.5 617.1Z" stroke="#FFC7BF" stroke-width="2.0833" stroke-miterlimit="10" stroke-linecap="round" stroke-linejoin="round"/>
<path d="M1988 617.1C1988 607.9 1995.5 600.4 2004.7 600.4C2013.9 600.4 2021.4 607.9 2021.4 617.1V652H1988V617.1Z" stroke="#FFC7BF" stroke-width="2.0833" stroke-miterlimit="10" stroke-linecap="round" stroke-linejoin="round"/>
<path d="M1672.8 593.3H1880.2" stroke="#FFC7BF" stroke-width="2.0833" stroke-miterlimit="10" stroke-linecap="round" stroke-linejoin="round"/>
<path d="M2186.7 593.3H1979.2" stroke="#FFC7BF" stroke-width="2.0833" stroke-miterlimit="10" stroke-linecap="round" stroke-linejoin="round"/>
<path d="M1672.8 569H1880.2" stroke="#FFC7BF" stroke-width="2.0833" stroke-miterlimit="10" stroke-linecap="round" stroke-linejoin="round"/>
<path d="M2186.7 569H1979.2" stroke="#FFC7BF" stroke-width="2.0833" stroke-miterlimit="10" stroke-linecap="round" stroke-linejoin="round"/>
<path d="M1672.8 526.5H1880.2" stroke="#FFC7BF" stroke-width="2.0833" stroke-miterlimit="10" stroke-linecap="round" stroke-linejoin="round"/>
<path d="M2186.7 526.5H1979.2" stroke="#FFC7BF" stroke-width="2.0833" stroke-miterlimit="10" stroke-linecap="round" stroke-linejoin="round"/>
<path d="M1695.6 539.3V551" stroke="#FFC7BF" stroke-width="2.0833" stroke-miterlimit="10" stroke-linecap="round" stroke-linejoin="round"/>
<path d="M2163.9 539.3V551" stroke="#FFC7BF" stroke-width="2.0833" stroke-miterlimit="10" stroke-linecap="round" stroke-linejoin="round"/>
<path d="M1695.6 483.7V495.5" stroke="#FFC7BF" stroke-width="2.0833" stroke-miterlimit="10" stroke-linecap="round" stroke-linejoin="round"/>
<path d="M2163.9 483.7V495.5" stroke="#FFC7BF" stroke-width="2.0833" stroke-miterlimit="10" stroke-linecap="round" stroke-linejoin="round"/>
<path d="M1672.8 483.7V495.5" stroke="#FFC7BF" stroke-width="2.0833" stroke-miterlimit="10" stroke-linecap="round" stroke-linejoin="round"/>
<path d="M2186.7 483.7V495.5" stroke="#FFC7BF" stroke-width="2.0833" stroke-miterlimit="10" stroke-linecap="round" stroke-linejoin="round"/>
<path d="M1776.5 539.3V551" stroke="#FFC7BF" stroke-width="2.0833" stroke-miterlimit="10" stroke-linecap="round" stroke-linejoin="round"/>
<path d="M2083 539.3V551" stroke="#FFC7BF" stroke-width="2.0833" stroke-miterlimit="10" stroke-linecap="round" stroke-linejoin="round"/>
<path d="M1776.5 483.7V495.5" stroke="#FFC7BF" stroke-width="2.0833" stroke-miterlimit="10" stroke-linecap="round" stroke-linejoin="round"/>
<path d="M2083 483.7V495.5" stroke="#FFC7BF" stroke-width="2.0833" stroke-miterlimit="10" stroke-linecap="round" stroke-linejoin="round"/>
<path d="M1735.4 539.3V551" stroke="#FFC7BF" stroke-width="2.0833" stroke-miterlimit="10" stroke-linecap="round" stroke-linejoin="round"/>
<path d="M2124.1 539.3V551" stroke="#FFC7BF" stroke-width="2.0833" stroke-miterlimit="10" stroke-linecap="round" stroke-linejoin="round"/>
<path d="M1735.4 483.7V495.5" stroke="#FFC7BF" stroke-width="2.0833" stroke-miterlimit="10" stroke-linecap="round" stroke-linejoin="round"/>
<path d="M2124.1 483.7V495.5" stroke="#FFC7BF" stroke-width="2.0833" stroke-miterlimit="10" stroke-linecap="round" stroke-linejoin="round"/>
<path d="M1816.3 539.3V551" stroke="#FFC7BF" stroke-width="2.0833" stroke-miterlimit="10" stroke-linecap="round" stroke-linejoin="round"/>
<path d="M2043.1 539.3V551" stroke="#FFC7BF" stroke-width="2.0833" stroke-miterlimit="10" stroke-linecap="round" stroke-linejoin="round"/>
<path d="M1816.3 483.7V495.5" stroke="#FFC7BF" stroke-width="2.0833" stroke-miterlimit="10" stroke-linecap="round" stroke-linejoin="round"/>
<path d="M2043.1 483.7V495.5" stroke="#FFC7BF" stroke-width="2.0833" stroke-miterlimit="10" stroke-linecap="round" stroke-linejoin="round"/>
<path d="M1854.8 539.3V551" stroke="#FFC7BF" stroke-width="2.0833" stroke-miterlimit="10" stroke-linecap="round" stroke-linejoin="round"/>
<path d="M2004.6 539.3V551" stroke="#FFC7BF" stroke-width="2.0833" stroke-miterlimit="10" stroke-linecap="round" stroke-linejoin="round"/>
<path d="M1854.8 483.7V495.5" stroke="#FFC7BF" stroke-width="2.0833" stroke-miterlimit="10" stroke-linecap="round" stroke-linejoin="round"/>
<path d="M1929.7 413.2V424.9" stroke="#FFC7BF" stroke-width="2.0833" stroke-miterlimit="10" stroke-linecap="round" stroke-linejoin="round"/>
<path d="M2004.6 483.7V495.5" stroke="#FFC7BF" stroke-width="2.0833" stroke-miterlimit="10" stroke-linecap="round" stroke-linejoin="round"/>
<path d="M1672.8 477.4C1674.6 477.4 1676 478.8 1676 480.6C1676 482.4 1674.6 483.8 1672.8 483.8C1671 483.8 1669.6 482.4 1669.6 480.6C1669.6 478.8 1671 477.4 1672.8 477.4Z" stroke="#FFC7BF" stroke-width="2.0833" stroke-miterlimit="10" stroke-linecap="round" stroke-linejoin="round"/>
<path d="M2186.7 477.4C2184.9 477.4 2183.5 478.8 2183.5 480.6C2183.5 482.4 2184.9 483.8 2186.7 483.8C2188.5 483.8 2189.9 482.4 2189.9 480.6C2189.9 478.8 2188.4 477.4 2186.7 477.4Z" stroke="#FFC7BF" stroke-width="2.0833" stroke-miterlimit="10" stroke-linecap="round" stroke-linejoin="round"/>
<path d="M1695.6 477.4C1697.4 477.4 1698.8 478.8 1698.8 480.6C1698.8 482.4 1697.4 483.8 1695.6 483.8C1693.8 483.8 1692.4 482.4 1692.4 480.6C1692.4 478.8 1693.8 477.4 1695.6 477.4Z" stroke="#FFC7BF" stroke-width="2.0833" stroke-miterlimit="10" stroke-linecap="round" stroke-linejoin="round"/>
<path d="M2163.9 477.4C2162.1 477.4 2160.7 478.8 2160.7 480.6C2160.7 482.4 2162.1 483.8 2163.9 483.8C2165.7 483.8 2167.1 482.4 2167.1 480.6C2167.1 478.8 2165.6 477.4 2163.9 477.4Z" stroke="#FFC7BF" stroke-width="2.0833" stroke-miterlimit="10" stroke-linecap="round" stroke-linejoin="round"/>
<path d="M1735.4 477.4C1737.2 477.4 1738.6 478.8 1738.6 480.6C1738.6 482.4 1737.2 483.8 1735.4 483.8C1733.6 483.8 1732.2 482.4 1732.2 480.6C1732.2 478.8 1733.6 477.4 1735.4 477.4Z" stroke="#FFC7BF" stroke-width="2.0833" stroke-miterlimit="10" stroke-linecap="round" stroke-linejoin="round"/>
<path d="M2124.1 477.4C2122.3 477.4 2120.9 478.8 2120.9 480.6C2120.9 482.4 2122.3 483.8 2124.1 483.8C2125.9 483.8 2127.3 482.4 2127.3 480.6C2127.3 478.8 2125.8 477.4 2124.1 477.4Z" stroke="#FFC7BF" stroke-width="2.0833" stroke-miterlimit="10" stroke-linecap="round" stroke-linejoin="round"/>
<path d="M1776.5 477.4C1778.3 477.4 1779.7 478.8 1779.7 480.6C1779.7 482.4 1778.3 483.8 1776.5 483.8C1774.7 483.8 1773.3 482.4 1773.3 480.6C1773.3 478.8 1774.7 477.4 1776.5 477.4Z" stroke="#FFC7BF" stroke-width="2.0833" stroke-miterlimit="10" stroke-linecap="round" stroke-linejoin="round"/>
<path d="M2083 477.4C2081.2 477.4 2079.8 478.8 2079.8 480.6C2079.8 482.4 2081.2 483.8 2083 483.8C2084.8 483.8 2086.2 482.4 2086.2 480.6C2086.2 478.8 2084.7 477.4 2083 477.4Z" stroke="#FFC7BF" stroke-width="2.0833" stroke-miterlimit="10" stroke-linecap="round" stroke-linejoin="round"/>
<path d="M1816.3 477.4C1818.1 477.4 1819.5 478.8 1819.5 480.6C1819.5 482.4 1818.1 483.8 1816.3 483.8C1814.5 483.8 1813.1 482.4 1813.1 480.6C1813.1 478.8 1814.5 477.4 1816.3 477.4Z" stroke="#FFC7BF" stroke-width="2.0833" stroke-miterlimit="10" stroke-linecap="round" stroke-linejoin="round"/>
<path d="M2043.1 477.4C2041.3 477.4 2039.9 478.8 2039.9 480.6C2039.9 482.4 2041.3 483.8 2043.1 483.8C2044.9 483.8 2046.3 482.4 2046.3 480.6C2046.3 478.8 2044.9 477.4 2043.1 477.4Z" stroke="#FFC7BF" stroke-width="2.0833" stroke-miterlimit="10" stroke-linecap="round" stroke-linejoin="round"/>
<path d="M1854.8 477.4C1856.6 477.4 1858 478.8 1858 480.6C1858 482.4 1856.6 483.8 1854.8 483.8C1853 483.8 1851.6 482.4 1851.6 480.6C1851.6 478.8 1853.1 477.4 1854.8 477.4Z" stroke="#FFC7BF" stroke-width="2.0833" stroke-miterlimit="10" stroke-linecap="round" stroke-linejoin="round"/>
<path fill-rule="evenodd" clip-rule="evenodd" d="M1929.7 406.9C1931.5 406.9 1932.9 408.3 1932.9 410.1C1932.9 411.9 1931.5 413.3 1929.7 413.3C1927.9 413.3 1926.5 411.9 1926.5 410.1C1926.5 408.3 1928 406.9 1929.7 406.9Z" fill="#FFC7BF"/>
<path d="M2004.6 477.4C2002.8 477.4 2001.4 478.8 2001.4 480.6C2001.4 482.4 2002.8 483.8 2004.6 483.8C2006.4 483.8 2007.8 482.4 2007.8 480.6C2007.8 478.8 2006.4 477.4 2004.6 477.4Z" stroke="#FFC7BF" stroke-width="2.0833" stroke-miterlimit="10" stroke-linecap="round" stroke-linejoin="round"/>
<path d="M1979.3 463.8H1880.2V651.9H1979.3V463.8Z" fill="#FFC7BF"/>
<path d="M1943.6 450.9H1915.9V463.9H1943.6V450.9Z" fill="#FFC7BF"/>
<path fill-rule="evenodd" clip-rule="evenodd" d="M1929.7 424.1L1943.6 450.9H1915.9L1929.7 424.1Z" fill="#FF341A"/>
<path d="M1880.2 503.7H1979.2" stroke="#FFE8E5" stroke-width="2.0833" stroke-miterlimit="10" stroke-linecap="round" stroke-linejoin="round"/>
<path d="M1926.5 535.2V569.2" stroke="#FFF1F0" stroke-width="2.0833" stroke-miterlimit="10" stroke-linecap="round" stroke-linejoin="round"/>
<path d="M1914.4 535.2V569.2" stroke="#FFF1F0" stroke-width="2.0833" stroke-miterlimit="10" stroke-linecap="round" stroke-linejoin="round"/>
<path d="M1938.7 535.2V569.2" stroke="#FFF1F0" stroke-width="2.0833" stroke-miterlimit="10" stroke-linecap="round" stroke-linejoin="round"/>
<path fill-rule="evenodd" clip-rule="evenodd" d="M1943.2 611.3C1943.2 606.9 1941.4 602.6 1938.3 599.5C1935.2 596.4 1930.9 594.6 1926.5 594.6C1922.1 594.6 1917.8 596.4 1914.7 599.5C1911.6 602.6 1909.8 606.9 1909.8 611.3C1909.8 628.2 1909.8 652 1909.8 652H1943.1L1943.2 611.3Z" fill="#FFF1F0"/>
<path fill-rule="evenodd" clip-rule="evenodd" d="M2027.8 617.1C2027.8 607.9 2035.3 600.4 2044.5 600.4C2053.7 600.4 2061.2 607.9 2061.2 617.1V621.3L2027.9 636.8L2027.8 617.1Z" fill="#FF341A"/>
<path d="M2027.8 617.1C2027.8 607.9 2035.3 600.4 2044.5 600.4C2053.7 600.4 2061.2 607.9 2061.2 617.1V621.3L2027.9 636.8L2027.8 617.1Z" stroke="#FF341A" stroke-width="2.0833" stroke-miterlimit="10" stroke-linecap="round" stroke-linejoin="round"/>
<path fill-rule="evenodd" clip-rule="evenodd" d="M1798.3 617.1C1798.3 607.9 1805.8 600.4 1815 600.4C1824.2 600.4 1831.7 607.9 1831.7 617.1V621.3L1798.4 636.8L1798.3 617.1Z" fill="#FF341A"/>
<path d="M1798.3 617.1C1798.3 607.9 1805.8 600.4 1815 600.4C1824.2 600.4 1831.7 607.9 1831.7 617.1V621.3L1798.4 636.8L1798.3 617.1Z" stroke="#FF341A" stroke-width="2.0833" stroke-miterlimit="10" stroke-linecap="round" stroke-linejoin="round"/>
<path fill-rule="evenodd" clip-rule="evenodd" d="M1718.7 617.1C1718.7 607.9 1726.2 600.4 1735.4 600.4C1744.6 600.4 1752.1 607.9 1752.1 617.1V621.3L1718.8 636.8L1718.7 617.1Z" fill="#FF341A"/>
<path d="M1718.7 617.1C1718.7 607.9 1726.2 600.4 1735.4 600.4C1744.6 600.4 1752.1 607.9 1752.1 617.1V621.3L1718.8 636.8L1718.7 617.1Z" stroke="#FF341A" stroke-width="2.0833" stroke-miterlimit="10" stroke-linecap="round" stroke-linejoin="round"/>
<path fill-rule="evenodd" clip-rule="evenodd" d="M1678.9 617.1C1678.9 607.9 1686.4 600.4 1695.6 600.4C1704.8 600.4 1712.3 607.9 1712.3 617.1V621.3L1679 636.8L1678.9 617.1Z" fill="#FFC7BF"/>
<path d="M1678.9 617.1C1678.9 607.9 1686.4 600.4 1695.6 600.4C1704.8 600.4 1712.3 607.9 1712.3 617.1V621.3L1679 636.8L1678.9 617.1Z" stroke="#FFC7BF" stroke-width="2.0833" stroke-miterlimit="10" stroke-linecap="round" stroke-linejoin="round"/>
<path fill-rule="evenodd" clip-rule="evenodd" d="M1758.5 617.1C1758.5 607.9 1766 600.4 1775.2 600.4C1784.4 600.4 1791.9 607.9 1791.9 617.1V621.3L1758.6 636.8L1758.5 617.1Z" fill="#FFC7BF"/>
<path d="M1758.5 617.1C1758.5 607.9 1766 600.4 1775.2 600.4C1784.4 600.4 1791.9 607.9 1791.9 617.1V621.3L1758.6 636.8L1758.5 617.1Z" stroke="#FFC7BF" stroke-width="2.0833" stroke-miterlimit="10" stroke-linecap="round" stroke-linejoin="round"/>
<path fill-rule="evenodd" clip-rule="evenodd" d="M1838.2 617.1C1838.2 607.9 1845.7 600.4 1854.9 600.4C1864.1 600.4 1871.6 607.9 1871.6 617.1V621.3L1838.3 636.8L1838.2 617.1Z" fill="#FFC7BF"/>
<path d="M1838.2 617.1C1838.2 607.9 1845.7 600.4 1854.9 600.4C1864.1 600.4 1871.6 607.9 1871.6 617.1V621.3L1838.3 636.8L1838.2 617.1Z" stroke="#FFC7BF" stroke-width="2.0833" stroke-miterlimit="10" stroke-linecap="round" stroke-linejoin="round"/>
<path fill-rule="evenodd" clip-rule="evenodd" d="M1988 617.1C1988 607.9 1995.5 600.4 2004.7 600.4C2013.9 600.4 2021.4 607.9 2021.4 617.1V621.3L1988.1 636.8L1988 617.1Z" fill="#FFC7BF"/>
<path d="M1988 617.1C1988 607.9 1995.5 600.4 2004.7 600.4C2013.9 600.4 2021.4 607.9 2021.4 617.1V621.3L1988.1 636.8L1988 617.1Z" stroke="#FFC7BF" stroke-width="2.0833" stroke-miterlimit="10" stroke-linecap="round" stroke-linejoin="round"/>
<path fill-rule="evenodd" clip-rule="evenodd" d="M2067.6 617.1C2067.6 607.9 2075.1 600.4 2084.3 600.4C2093.5 600.4 2101 607.9 2101 617.1V621.3L2067.7 636.8L2067.6 617.1Z" fill="#FFC7BF"/>
<path d="M2067.6 617.1C2067.6 607.9 2075.1 600.4 2084.3 600.4C2093.5 600.4 2101 607.9 2101 617.1V621.3L2067.7 636.8L2067.6 617.1Z" stroke="#FFC7BF" stroke-width="2.0833" stroke-miterlimit="10" stroke-linecap="round" stroke-linejoin="round"/>
<path fill-rule="evenodd" clip-rule="evenodd" d="M2147.2 617.1C2147.2 607.9 2154.7 600.4 2163.9 600.4C2173.1 600.4 2180.6 607.9 2180.6 617.1V621.3L2147.3 636.8L2147.2 617.1Z" fill="#FFC7BF"/>
<path d="M2147.2 617.1C2147.2 607.9 2154.7 600.4 2163.9 600.4C2173.1 600.4 2180.6 607.9 2180.6 617.1V621.3L2147.3 636.8L2147.2 617.1Z" stroke="#FFC7BF" stroke-width="2.0833" stroke-miterlimit="10" stroke-linecap="round" stroke-linejoin="round"/>
<path fill-rule="evenodd" clip-rule="evenodd" d="M827.202 478.5C802.902 475.9 800.902 509.6 787.102 517C773.302 524.4 736.102 537.4 736.102 572.8C736.102 597.5 754.102 631.3 801.402 629.2C837.002 627.6 850.502 611 850.502 611V494.5C850.602 494.5 843.902 480.3 827.202 478.5Z" fill="#9CE8C2"/>
<path d="M825.402 510.1C825.402 510.1 825.402 588.9 800.902 629.3" stroke="#24A865" stroke-width="2.0833" stroke-miterlimit="10" stroke-linecap="round" stroke-linejoin="round"/>
<path d="M800.902 517.7C800.902 517.7 803.402 553.5 818.402 579.4" stroke="#24A865" stroke-width="2.0833" stroke-miterlimit="10" stroke-linecap="round" stroke-linejoin="round"/>
<path d="M783.203 538.7C783.203 538.7 791.503 550.3 807.303 552" stroke="#24A865" stroke-width="2.0833" stroke-miterlimit="10" stroke-linecap="round" stroke-linejoin="round"/>
<path d="M841.903 576.3C841.903 576.3 828.003 592.2 815.703 591.3" stroke="#24A865" stroke-width="2.0833" stroke-miterlimit="10" stroke-linecap="round" stroke-linejoin="round"/>
<path d="M761.402 561.5C761.402 561.5 776.702 607.6 811.702 605.3" stroke="#24A865" stroke-width="2.0833" stroke-miterlimit="10" stroke-linecap="round" stroke-linejoin="round"/>
<path d="M779.503 564C779.503 564 777.203 585.3 783.203 595" stroke="#24A865" stroke-width="2.0833" stroke-miterlimit="10" stroke-linecap="round" stroke-linejoin="round"/>
<path d="M1632.4 287.5H1505.1V652H1632.4V287.5Z" fill="#FFC7BF"/>
<path d="M1568.1 590.9H1605" stroke="#FFF1F0" stroke-width="2.0833" stroke-miterlimit="10" stroke-linecap="round" stroke-linejoin="round"/>
<path d="M1526.6 325.3H1563.5" stroke="#FFF1F0" stroke-width="2.0833" stroke-miterlimit="10" stroke-linecap="round" stroke-linejoin="round"/>
<path d="M1579.4 605.6H1616.3" stroke="#FFF1F0" stroke-width="2.0833" stroke-miterlimit="10" stroke-linecap="round" stroke-linejoin="round"/>
<path d="M1537.9 340H1574.8" stroke="#FFF1F0" stroke-width="2.0833" stroke-miterlimit="10" stroke-linecap="round" stroke-linejoin="round"/>
<path d="M1594.8 590.9V605.6" stroke="#FFF1F0" stroke-width="2.0833" stroke-miterlimit="10" stroke-linecap="round" stroke-linejoin="round"/>
<path d="M1553.4 325.3V340" stroke="#FFF1F0" stroke-width="2.0833" stroke-miterlimit="10" stroke-linecap="round" stroke-linejoin="round"/>
<path fill-rule="evenodd" clip-rule="evenodd" d="M1568.8 248L1642.3 287.5H1495.2L1568.8 248Z" fill="#FF341A"/>
<path d="M1505.1 404.7H1026.5V651.9H1505.1V404.7Z" fill="#FFE8E5"/>
<path d="M1026.5 494.5H1505.1" stroke="#FFC7BF" stroke-width="2.0833" stroke-miterlimit="10" stroke-linecap="round" stroke-linejoin="round"/>
<path d="M1026.5 563.5H1505.1" stroke="#FFC7BF" stroke-width="2.0833" stroke-miterlimit="10" stroke-linecap="round" stroke-linejoin="round"/>
<path d="M1086.8 444.5H1068.9V475.7H1086.8V444.5Z" fill="#FFC7BF"/>
<path d="M1086.8 513H1068.9V544.2H1086.8V513Z" fill="#FFC7BF"/>
<path d="M1086.8 582.9H1068.9V614.1H1086.8V582.9Z" fill="#FFC7BF"/>
<path d="M1212.1 444.5H1194.2V475.7H1212.1V444.5Z" fill="#FFC7BF"/>
<path d="M1212.1 513H1194.2V544.2H1212.1V513Z" fill="#FFC7BF"/>
<path d="M1212.1 582.9H1194.2V614.1H1212.1V582.9Z" fill="#FFC7BF"/>
<path d="M1337.4 444.5H1319.5V475.7H1337.4V444.5Z" fill="#FFC7BF"/>
<path d="M1337.4 513H1319.5V544.2H1337.4V513Z" fill="#FFC7BF"/>
<path d="M1337.4 582.9H1319.5V614.1H1337.4V582.9Z" fill="#FFC7BF"/>
<path d="M1149.5 444.5H1131.6V475.7H1149.5V444.5Z" fill="#FFC7BF"/>
<path d="M1149.5 513H1131.6V544.2H1149.5V513Z" fill="#FFC7BF"/>
<path d="M1149.5 582.9H1131.6V614.1H1149.5V582.9Z" fill="#FFC7BF"/>
<path d="M1274.7 444.5H1256.8V475.7H1274.7V444.5Z" fill="#FFC7BF"/>
<path d="M1274.7 513H1256.8V544.2H1274.7V513Z" fill="#FFC7BF"/>
<path d="M1274.7 582.9H1256.8V614.1H1274.7V582.9Z" fill="#FFC7BF"/>
<path d="M1400 444.5H1382.1V475.7H1400V444.5Z" fill="#FFC7BF"/>
<path d="M1400 513H1382.1V544.2H1400V513Z" fill="#FFC7BF"/>
<path d="M1400 582.9H1382.1V614.1H1400V582.9Z" fill="#FFC7BF"/>
<path d="M1462.7 444.5H1444.8V475.7H1462.7V444.5Z" fill="#FFC7BF"/>
<path d="M1536.3 369H1527.9V383.6H1536.3V369Z" fill="#FFE8E5"/>
<path d="M1536.3 421.2H1527.9V435.8H1536.3V421.2Z" fill="#FFE8E5"/>
<path d="M1536.3 471.6H1527.9V486.2H1536.3V471.6Z" fill="#FFE8E5"/>
<path d="M1536.3 518.8H1527.9V533.4H1536.3V518.8Z" fill="#FFE8E5"/>
<path d="M1573 369H1564.6V383.6H1573V369Z" fill="#FFE8E5"/>
<path d="M1573 421.2H1564.6V435.8H1573V421.2Z" fill="#FFE8E5"/>
<path d="M1573 471.6H1564.6V486.2H1573V471.6Z" fill="#FFE8E5"/>
<path d="M1573 518.8H1564.6V533.4H1573V518.8Z" fill="#FFE8E5"/>
<path d="M1608.1 369H1599.7V383.6H1608.1V369Z" fill="#FFE8E5"/>
<path d="M1608.1 421.2H1599.7V435.8H1608.1V421.2Z" fill="#FFE8E5"/>
<path d="M1608.1 471.6H1599.7V486.2H1608.1V471.6Z" fill="#FFE8E5"/>
<path d="M1608.1 518.8H1599.7V533.4H1608.1V518.8Z" fill="#FFE8E5"/>
<path d="M1462.7 513H1444.8V544.2H1462.7V513Z" fill="#FFC7BF"/>
<path d="M1462.7 582.9H1444.8V614.1H1462.7V582.9Z" fill="#FFC7BF"/>
<path d="M1505.1 375.7H1026.5V404.8H1505.1V375.7Z" fill="#FF341A"/>
<path d="M1026.5 421.7H1505.1" stroke="#FFC7BF" stroke-width="2.0833" stroke-miterlimit="10" stroke-linecap="round" stroke-linejoin="round"/>
<path fill-rule="evenodd" clip-rule="evenodd" d="M1013.1 337.1H834.699V377C838.899 377 842.999 378.7 845.899 381.6C848.899 384.6 850.599 388.6 850.599 392.8C850.599 451.4 850.599 651.8 850.599 651.8H1012.3L1013.1 337.1Z" fill="#FFC7BF"/>
<path fill-rule="evenodd" clip-rule="evenodd" d="M864 337.1H1042.4V377C1038.2 377 1034.2 378.7 1031.2 381.6C1028.2 384.6 1026.5 388.6 1026.5 392.8C1026.5 451.4 1026.5 651.8 1026.5 651.8H864.8L864 337.1Z" fill="#FFC7BF"/>
<path d="M850.598 389.8H1026.5" stroke="#FFF1F0" stroke-width="2.0833" stroke-miterlimit="10" stroke-linecap="round" stroke-linejoin="round"/>
<path fill-rule="evenodd" clip-rule="evenodd" d="M954.5 443C954.5 438.8 952.8 434.7 949.8 431.7C946.8 428.7 942.8 427 938.5 427C934.3 427 930.2 428.7 927.2 431.7C924.2 434.7 922.5 438.8 922.5 443V473.6H954.4V443H954.5Z" fill="#FF341A"/>
<path fill-rule="evenodd" clip-rule="evenodd" d="M980.598 577.5C950.898 568 921.698 568.4 892.898 577.5V652H980.598V577.5Z" fill="#FFE8E5"/>
<path fill-rule="evenodd" clip-rule="evenodd" d="M936.899 583.6C968.299 599.7 971.299 652 971.299 652H902.199C902.199 652 905.199 599.5 936.699 583.5L936.899 583.6Z" fill="#FF341A"/>
<path fill-rule="evenodd" clip-rule="evenodd" d="M938.499 280L1042.4 337.1H834.699L938.499 280Z" fill="#FF341A"/>
<path fill-rule="evenodd" clip-rule="evenodd" d="M962.898 270.5C962.898 268 961.898 265.6 960.098 263.8C958.298 262 955.898 261 953.398 261H923.598C921.098 261 918.698 262 916.898 263.8C915.098 265.6 914.098 268 914.098 270.5C914.098 273 915.098 275.4 916.898 277.2C918.698 279 921.098 280 923.598 280H953.398C955.898 280 958.298 279 960.098 277.2C961.898 275.5 962.898 273 962.898 270.5Z" fill="#FFC7BF"/>
<path d="M936.699 261.1V214.5" stroke="#FFC7BF" stroke-width="2.0833" stroke-miterlimit="10" stroke-linecap="round" stroke-linejoin="round"/>
<path fill-rule="evenodd" clip-rule="evenodd" d="M936.698 206.2C941.298 206.2 944.998 209.9 944.998 214.5C944.998 219.1 941.298 222.8 936.698 222.8C932.098 222.8 928.398 219.1 928.398 214.5C928.398 209.9 932.098 206.2 936.698 206.2Z" fill="#FFC7BF"/>
<path d="M883.199 505.7H920.199" stroke="#FFF1F0" stroke-width="2.0833" stroke-miterlimit="10" stroke-linecap="round" stroke-linejoin="round"/>
<path d="M894.598 520.3H931.498" stroke="#FFF1F0" stroke-width="2.0833" stroke-miterlimit="10" stroke-linecap="round" stroke-linejoin="round"/>
<path d="M910 505.7V520.3" stroke="#FFF1F0" stroke-width="2.0833" stroke-miterlimit="10" stroke-linecap="round" stroke-linejoin="round"/>
<path d="M1867.82 147.456C1893.75 121.525 1893.75 79.4832 1867.82 53.5527C1841.88 27.6221 1799.84 27.6221 1773.91 53.5527C1747.98 79.4833 1747.98 121.525 1773.91 147.456C1799.84 173.386 1841.88 173.386 1867.82 147.456Z" fill="#FFC7BF"/>
<path d="M1867.82 147.456C1893.75 121.525 1893.75 79.4832 1867.82 53.5527C1841.88 27.6221 1799.84 27.6221 1773.91 53.5527C1747.98 79.4833 1747.98 121.525 1773.91 147.456C1799.84 173.386 1841.88 173.386 1867.82 147.456Z" stroke="#FFC7BF" stroke-width="2.0833" stroke-miterlimit="10.0001" stroke-linecap="round" stroke-linejoin="round"/>
<path fill-rule="evenodd" clip-rule="evenodd" d="M1820.8 34.1001C1833.7 34.1001 1844.1 63.9001 1844.1 100.5C1844.1 137.1 1833.7 166.9 1820.8 166.9C1807.9 166.9 1797.5 137.1 1797.5 100.5C1797.6 63.9001 1808 34.1001 1820.8 34.1001Z" fill="#FF341A"/>
<path d="M1820.8 34.1001C1833.7 34.1001 1844.1 63.9001 1844.1 100.5C1844.1 137.1 1833.7 166.9 1820.8 166.9C1807.9 166.9 1797.5 137.1 1797.5 100.5C1797.6 63.9001 1808 34.1001 1820.8 34.1001Z" stroke="#FF341A" stroke-width="2.0833" stroke-miterlimit="10" stroke-linecap="round" stroke-linejoin="round"/>
<path d="M1763.2 133.6L1807.5 210.2" stroke="#FFC7BF" stroke-width="2.0833" stroke-miterlimit="10" stroke-linecap="round" stroke-linejoin="round"/>
<path d="M1878.5 133.6L1834.2 210.2" stroke="#FFC7BF" stroke-width="2.0833" stroke-miterlimit="10" stroke-linecap="round" stroke-linejoin="round"/>
<path fill-rule="evenodd" clip-rule="evenodd" d="M1846.5 188.9H1795.5L1808.3 210.2H1833.8L1846.5 188.9Z" fill="#FF341A"/>
<path d="M1846.5 188.9H1795.5L1808.3 210.2H1833.8L1846.5 188.9Z" stroke="#FF341A" stroke-width="2.0833" stroke-miterlimit="10" stroke-linecap="round" stroke-linejoin="round"/>
<path d="M1754.4 100.5H1887.2" stroke="#FFF1F0" stroke-width="2.0833" stroke-miterlimit="10" stroke-linecap="round" stroke-linejoin="round"/>
<path d="M1797.6 100.5H1844.2" stroke="#FFC7BF" stroke-width="2.0833" stroke-miterlimit="10" stroke-linecap="round" stroke-linejoin="round"/>
<path fill-rule="evenodd" clip-rule="evenodd" d="M1574.6 106.8C1588.6 106.8 1600 118.2 1600 132.2C1600 146.2 1588.6 157.6 1574.6 157.6C1560.6 157.6 1549.2 146.2 1549.2 132.2C1549.2 118.2 1560.6 106.8 1574.6 106.8Z" fill="#9CE8C2"/>
<path d="M1574.6 106.8C1588.6 106.8 1600 118.2 1600 132.2C1600 146.2 1588.6 157.6 1574.6 157.6C1560.6 157.6 1549.2 146.2 1549.2 132.2C1549.2 118.2 1560.6 106.8 1574.6 106.8Z" stroke="#9CE8C2" stroke-width="2.0833" stroke-miterlimit="10" stroke-linecap="round" stroke-linejoin="round"/>
<path d="M1552.5 144.9L1569.5 174.2" stroke="#9CE8C2" stroke-width="2.0833" stroke-miterlimit="10" stroke-linecap="round" stroke-linejoin="round"/>
<path d="M1596.6 144.9L1579.7 174.2" stroke="#9CE8C2" stroke-width="2.0833" stroke-miterlimit="10" stroke-linecap="round" stroke-linejoin="round"/>
<path fill-rule="evenodd" clip-rule="evenodd" d="M1584.4 166H1564.9L1569.8 174.2H1579.5L1584.4 166Z" fill="#FF341A"/>
<path d="M1584.4 166H1564.9L1569.8 174.2H1579.5L1584.4 166Z" stroke="#FF341A" stroke-width="2.0833" stroke-miterlimit="10" stroke-linecap="round" stroke-linejoin="round"/>
<path d="M1549.2 132.2H1600" stroke="#24A865" stroke-width="2.0833" stroke-miterlimit="10" stroke-linecap="round" stroke-linejoin="round"/>
<path fill-rule="evenodd" clip-rule="evenodd" d="M1297.3 458.8C1302.3 455.7 1308.6 448.1 1320.1 448.8C1331.6 449.5 1334 455.4 1334 455.4C1334 455.4 1348.6 437.3 1366.2 443.9C1383.8 450.5 1394.4 445.2 1400.1 439.8C1393.8 448.1 1387.2 455.4 1381.1 459C1395.2 455.6 1410.3 451.9 1410.3 451.9C1410.3 451.9 1395 467.5 1381.3 470.4C1396.4 473.6 1400.3 476.7 1400.3 476.7C1400.3 476.7 1375.4 485 1358.9 475.7C1342.3 466.4 1336 483 1323.6 482.5C1311.2 482 1311.2 468 1301.3 469.3C1291.4 470.6 1285.8 479.1 1285.8 479.1L1281.9 465.9C1281.8 466.2 1292.3 462 1297.3 458.8Z" fill="#FF341A"/>
<path fill-rule="evenodd" clip-rule="evenodd" d="M1208.4 587.6C1205.1 562.1 1203.9 553.8 1232.2 539.6C1260.5 525.5 1269 492.7 1268.7 477.1C1268.4 461.5 1279.5 455.5 1286.9 455.5C1294.3 455.5 1297.3 458.8 1297.3 458.8L1286 467.6L1301.2 469.5C1301.2 469.5 1300 480.9 1293.6 484.7C1287.2 488.5 1282 514.2 1279.5 521.4C1276.9 528.5 1273.6 547.6 1267.4 553.5C1261.2 559.5 1282.8 612.5 1288.8 619.7H1279.5C1279.5 619.7 1255.5 573 1253.4 557.8C1246 560.7 1228.2 564.7 1221.7 589.9C1215.2 615.1 1210 619.7 1196.2 619.7H1170.3C1170.2 619.8 1212.4 618.4 1208.4 587.6Z" fill="#9CE8C2"/>
<path fill-rule="evenodd" clip-rule="evenodd" d="M1246.7 560.4L1251.7 619.8H1240.5L1235.7 566.7C1235.6 561.6 1237.5 558.2 1246.7 560.4Z" fill="#9CE8C2"/>
<path fill-rule="evenodd" clip-rule="evenodd" d="M1273.6 519.8C1273.6 519.8 1292 529.3 1296.9 532C1301.8 534.7 1302.5 541.4 1293.6 537.7C1284.7 534 1270.8 527 1270.8 527L1273.6 519.8Z" fill="#9CE8C2"/>
<path d="M1301.1 619.8H1170.2V652H1301.1V619.8Z" fill="#FFC7BF"/>
</g>
<defs>
<clipPath id="clip0_459:20097">
<rect width="2653" height="652" fill="white"/>
</clipPath>
</defs>
</svg>
