<svg width="1912" height="777" viewBox="0 0 1912 777" fill="none" xmlns="http://www.w3.org/2000/svg">
<g clip-path="url(#clip0_459:20642)">
<path fill-rule="evenodd" clip-rule="evenodd" d="M461.13 770.05L11.3498 629.06L372.65 586.29L-0.450195 208.77L498.88 309.05L354.55 53.93L620.69 202.57L614.5 29.95L820.95 173.38L956 29.95L1091.05 173.38L1297.5 29.95L1319.62 154.21L1557.45 53.93L1411.94 290.17L1912.45 208.77L1539.35 586.29L1900.65 629.06L1450.87 770.05H461.13Z" fill="white"/>
<path d="M989.42 776.87C1449.58 776.87 1822.61 773.678 1822.61 769.74C1822.61 765.802 1449.58 762.61 989.42 762.61C529.262 762.61 156.23 765.802 156.23 769.74C156.23 773.678 529.262 776.87 989.42 776.87Z" fill="black"/>
<path d="M346.021 97.2002C346.021 97.2002 391.82 123.64 428.25 144.67C452.56 158.71 460.89 189.79 446.85 214.1C432.82 238.41 441.151 269.5 465.451 283.53C487.731 296.39 510.12 309.32 510.12 309.32" stroke="#FF341A" stroke-width="40.5529" stroke-miterlimit="10" stroke-linecap="round" stroke-linejoin="round"/>
<path d="M1556.29 97.2002C1556.29 97.2002 1510.49 123.64 1474.06 144.67C1449.75 158.71 1441.42 189.79 1455.46 214.1C1469.5 238.41 1461.17 269.5 1436.86 283.53C1414.58 296.39 1392.19 309.32 1392.19 309.32" stroke="#FF341A" stroke-width="40.5529" stroke-miterlimit="10" stroke-linecap="round" stroke-linejoin="round"/>
<path d="M285.23 400H184.03" stroke="#FF341A" stroke-width="40.5529" stroke-miterlimit="10" stroke-linecap="round" stroke-linejoin="round"/>
<path d="M1617.08 400H1718.28" stroke="#FF341A" stroke-width="40.5529" stroke-miterlimit="10" stroke-linecap="round" stroke-linejoin="round"/>
<path d="M320.29 277.96L295.13 264.6" stroke="#FF341A" stroke-width="40.5529" stroke-miterlimit="10" stroke-linecap="round" stroke-linejoin="round"/>
<path d="M722.18 115.89L714.8 88.3701" stroke="#FF341A" stroke-width="40.5529" stroke-miterlimit="10" stroke-linecap="round" stroke-linejoin="round"/>
<path d="M1182.82 115.89L1190.19 88.3701" stroke="#FF341A" stroke-width="40.5529" stroke-miterlimit="10" stroke-linecap="round" stroke-linejoin="round"/>
<path d="M1582.03 277.96L1607.19 264.6" stroke="#FF341A" stroke-width="40.5529" stroke-miterlimit="10" stroke-linecap="round" stroke-linejoin="round"/>
<path fill-rule="evenodd" clip-rule="evenodd" d="M576.61 345.81C576.7 360.34 588.53 372.11 603.08 372.11C588.53 372.11 576.7 383.88 576.61 398.42V398.59C576.61 383.98 564.74 372.11 550.13 372.11C564.74 372.11 576.61 360.25 576.61 345.64V345.81Z" fill="#4FB3F6"/>
<path fill-rule="evenodd" clip-rule="evenodd" d="M1469.83 504.91C1469.74 519.44 1457.91 531.22 1443.36 531.22C1457.91 531.22 1469.74 542.99 1469.83 557.53V557.7C1469.83 543.09 1481.7 531.22 1496.31 531.22C1481.7 531.22 1469.83 519.36 1469.83 504.74V504.91Z" fill="#4FB3F6"/>
<path d="M440.521 357.2L458.961 406.09" stroke="#4FB3F6" stroke-width="2.0833" stroke-miterlimit="10" stroke-linejoin="round"/>
<path d="M1493.78 350.58L1475.34 399.48" stroke="#4FB3F6" stroke-width="2.0833" stroke-miterlimit="10" stroke-linejoin="round"/>
<path d="M422.09 438.15L378.01 415.11" stroke="#4FB3F6" stroke-width="2.0833" stroke-miterlimit="10" stroke-linejoin="round"/>
<path d="M1512.21 431.53L1556.29 408.5" stroke="#4FB3F6" stroke-width="2.0833" stroke-miterlimit="10" stroke-linejoin="round"/>
<path fill-rule="evenodd" clip-rule="evenodd" d="M519 498.05C519 498.05 532.38 484.24 554.08 484.24H697.24L645.92 633.18L632.88 636.5L519 498.05Z" fill="#FF341A"/>
<path fill-rule="evenodd" clip-rule="evenodd" d="M556.43 610.89H457.93C448.54 610.89 436.69 621.55 442.61 638.1C448.54 654.65 465.16 691.45 465.16 691.45H526.34L520.91 670.7H548.33C548.33 670.7 575.5 738.13 579.7 750.48C583.9 762.83 591.8 769.75 611.81 769.75H667.13L665.16 722.08H631.47L613.04 667.5C613.04 667.5 634.28 661.58 640.21 643.67C646.14 625.76 641 610.87 631.46 601.03H579.94L556.43 610.89Z" fill="#FFF3D6"/>
<path fill-rule="evenodd" clip-rule="evenodd" d="M529.57 607.38L450.5 540.17L432.32 559.03L481.4 610.89L529.57 607.38Z" fill="#24A865"/>
<path fill-rule="evenodd" clip-rule="evenodd" d="M526.35 691.44L544.46 769.74H478.26L492.86 757.26L465.17 691.44H526.35Z" fill="#FF341A"/>
<path fill-rule="evenodd" clip-rule="evenodd" d="M484.8 610.74C479.41 604.44 460.15 603.72 459.41 610.88H466.46C466.97 616.14 477.22 633.61 484.01 632.93C490.79 632.26 492.26 610.74 484.8 610.74Z" fill="#FEDD8E"/>
<path fill-rule="evenodd" clip-rule="evenodd" d="M518.78 498.29C518.78 498.29 510.68 476.87 493.31 476.87C475.94 476.87 467.84 494.24 467.84 494.24H478.26V537.37H510.97L518.78 498.29Z" fill="#8D1A00"/>
<path fill-rule="evenodd" clip-rule="evenodd" d="M467.84 494.24C466.53 497.27 458.62 515.92 478.26 523.95V494.24H467.84Z" fill="#FEDD8E"/>
<path fill-rule="evenodd" clip-rule="evenodd" d="M506.17 507.12C498.26 516.5 495.56 533.67 507.52 548.92C519.48 564.16 551.51 607.39 551.51 607.39H489.38C489.38 607.39 480.5 608.93 481.47 624.18C482.43 639.42 489.38 643.67 500.19 643.67H584.51C598.98 643.67 613.26 626.11 598.02 601.03H631.46C631.46 601.03 608.85 566.31 594.98 548.82C581.11 531.33 553.29 505.53 534.38 500.28C518.98 495.99 514.09 497.74 506.17 507.12Z" fill="#9CE8C2"/>
<path d="M540.25 517.04L598.03 601.01" stroke="#24A865" stroke-width="2.0833" stroke-miterlimit="10" stroke-linecap="round" stroke-linejoin="round"/>
<path fill-rule="evenodd" clip-rule="evenodd" d="M417.99 491.28C415.74 493.08 416.87 496.58 419.12 500.53C421.37 504.48 427.69 524.21 427.69 524.21C427.69 524.21 405.81 510.34 401.19 507.97C396.57 505.6 394.31 509.66 397.81 512.48C401.31 515.3 421.49 534.35 421.49 534.35C421.49 534.35 417.09 536.27 417.99 539.09C415.62 539.99 414.72 543.94 415.96 545.86C417.2 547.78 434.1 566.27 442.62 555.89C451.14 545.52 451.27 541.04 448.67 532.68C446.07 524.32 444.27 517.78 439.64 517.55C435.02 517.32 433.92 521.05 433.92 521.05C433.92 521.05 425.32 500.98 423.74 496.92C422.17 492.86 420.25 489.47 417.99 491.28Z" fill="#FEDD8E"/>
<path fill-rule="evenodd" clip-rule="evenodd" d="M548.33 670.7C548.33 670.7 598.38 671.31 613.04 667.49C616.21 675.93 621.99 694 621.99 694H557.67L548.33 670.7Z" fill="black"/>
<path d="M520.92 670.73H501.48" stroke="#FEDD8E" stroke-width="2.0833" stroke-miterlimit="10" stroke-linecap="round" stroke-linejoin="round"/>
<path d="M433.92 521.05C433.46 523.95 431.94 533.71 435.09 535.03C438.24 536.35 440.17 531.88 440.88 527.92" stroke="#8D1A00" stroke-width="2.0833" stroke-miterlimit="10" stroke-linecap="round" stroke-linejoin="round"/>
<path d="M421.49 534.35C421.49 534.35 430.72 539.7 429.3 541.53C427.87 543.36 418 539.08 418 539.08C418 539.08 428.8 545.18 427.27 547.52C425.74 549.86 418.22 546.4 418.22 546.4" stroke="#8D1A00" stroke-width="2.0833" stroke-miterlimit="10" stroke-linecap="round" stroke-linejoin="round"/>
<path fill-rule="evenodd" clip-rule="evenodd" d="M469.42 498.21C470.2 498.21 470.83 498.84 470.83 499.62C470.83 500.4 470.2 501.03 469.42 501.03C468.64 501.03 468.01 500.4 468.01 499.62C468 498.84 468.63 498.21 469.42 498.21Z" fill="#5B3100"/>
<path fill-rule="evenodd" clip-rule="evenodd" d="M466 499.62C465.32 501.81 462.82 502.92 461.71 503.21C460.6 503.5 460.44 505.39 461.59 505.39H465.17C465.17 505.39 466.68 497.43 466 499.62Z" fill="#FEDD8E"/>
<path fill-rule="evenodd" clip-rule="evenodd" d="M1373.78 697.9H1438.14L1423.77 740.39L1450.64 762.57H1351.29L1373.78 697.9Z" fill="#FF341A"/>
<path fill-rule="evenodd" clip-rule="evenodd" d="M1382.83 495.77L1388.91 543.76H1361.23L1367.61 501.05L1382.83 495.77Z" fill="#FBBE2E"/>
<path fill-rule="evenodd" clip-rule="evenodd" d="M1263.67 587.73L1341.39 587.93L1360.62 610.92H1429.71C1446.26 610.92 1460.63 616.83 1454.08 643.46C1447.52 670.09 1437.83 697.89 1437.83 697.89H1373.78L1382.53 673.83H1334.11C1334.11 673.83 1362.23 712.26 1369.73 723.5C1377.23 734.75 1383.79 769.42 1358.79 769.42H1292.87L1270.78 640.34L1263.67 587.73Z" fill="#FFF3D6"/>
<path fill-rule="evenodd" clip-rule="evenodd" d="M1257.99 555.14C1262.29 541.47 1272.87 521.93 1291.61 498.5C1310.36 475.07 1379.08 398.14 1379.08 398.14L1410.71 413.37L1329.87 521.15H1356.82L1360.77 511.96H1371.17C1376.17 511.96 1376.97 520.56 1375.17 527.16C1373.37 533.76 1368.77 541.56 1368.77 541.56L1369.21 610.94L1337.78 609.94C1337.78 609.94 1337.18 598.34 1341.38 587.95H1263.7C1263.71 587.94 1260.36 572.44 1257.99 555.14Z" fill="#9CE8C2"/>
<path fill-rule="evenodd" clip-rule="evenodd" d="M1352.39 491.14H1382.83C1382.83 499.45 1382.49 514.8 1359.63 514.64C1358.36 517.52 1356.83 521.15 1356.83 521.15H1329.88L1352.39 491.14Z" fill="#FFE8E5"/>
<path d="M1371.7 498.26L1373.58 503.69H1368.2L1372.71 508.2C1372.71 508.2 1370.8 510.02 1368.2 510.02C1365.6 510.02 1363.08 507.77 1363.08 507.77" stroke="#5B3100" stroke-width="1.2708" stroke-miterlimit="10" stroke-linecap="round" stroke-linejoin="round"/>
<path fill-rule="evenodd" clip-rule="evenodd" d="M1362.56 477.58C1362.56 477.58 1382.83 474.67 1382.83 491.14H1352.39L1362.56 477.58Z" fill="#FBBE2E"/>
<path fill-rule="evenodd" clip-rule="evenodd" d="M1379.09 398.14C1389.35 387.36 1397.73 372.41 1410.72 374.87C1423.71 377.32 1429.29 385.58 1425.27 391.38C1421.25 397.18 1415.9 404.1 1411.21 404.32C1406.52 405.88 1405.13 410.68 1405.13 410.68C1405.13 410.68 1388.08 402.79 1379.09 398.14Z" fill="#FFE8E5"/>
<path d="M1330.92 521.63L1324.55 531.77" stroke="black" stroke-width="2.0833" stroke-miterlimit="10" stroke-linecap="round" stroke-linejoin="round"/>
<path d="M1368.78 541.55C1359.91 554.15 1351.06 566.53 1341.39 587.94" stroke="black" stroke-width="2.0833" stroke-miterlimit="10" stroke-linecap="round" stroke-linejoin="round"/>
<path d="M1324.21 609.11H1336.91" stroke="black" stroke-width="2.0833" stroke-miterlimit="10" stroke-linecap="round" stroke-linejoin="round"/>
<path fill-rule="evenodd" clip-rule="evenodd" d="M1388.16 657.72L1382.26 673.93H1375.28L1388.16 657.72Z" fill="black"/>
<path d="M1394.7 398.27C1394.7 398.27 1400.55 405.25 1413 403.55" stroke="black" stroke-width="2.0833" stroke-miterlimit="10" stroke-linecap="round" stroke-linejoin="round"/>
<path fill-rule="evenodd" clip-rule="evenodd" d="M1359.62 514.64H1344.29L1356.83 521.15L1359.62 514.64Z" fill="black"/>
<path fill-rule="evenodd" clip-rule="evenodd" d="M1362.6 496.78C1363.38 496.78 1364.01 497.41 1364.01 498.19C1364.01 498.97 1363.38 499.6 1362.6 499.6C1361.82 499.6 1361.19 498.97 1361.19 498.19C1361.19 497.41 1361.82 496.78 1362.6 496.78Z" fill="#5B3100"/>
<path fill-rule="evenodd" clip-rule="evenodd" d="M1377.36 496.78C1378.14 496.78 1378.77 497.41 1378.77 498.19C1378.77 498.97 1378.14 499.6 1377.36 499.6C1376.58 499.6 1375.95 498.97 1375.95 498.19C1375.95 497.41 1376.58 496.78 1377.36 496.78Z" fill="#5B3100"/>
<path fill-rule="evenodd" clip-rule="evenodd" d="M1334.11 673.85L1304.44 633.02C1304.44 633.02 1316.01 642.4 1324.9 649.6C1331.39 654.86 1339.49 657.73 1347.84 657.73H1388.16L1382.3 673.86H1334.11V673.85Z" fill="black"/>
<path fill-rule="evenodd" clip-rule="evenodd" d="M1074.94 349.07C1074.94 349.07 1084.9 315.59 1091.68 296.86C1098.46 278.13 1111.61 267.36 1126.36 262.59C1141.11 257.81 1156.25 250.63 1156.25 250.63C1156.25 250.63 1167.49 265.97 1175.33 265.97C1183.16 265.97 1187.25 247.68 1187.25 247.68C1187.25 247.68 1200.64 252.41 1206.03 252.41H1273.53L1256.8 205.23C1256.8 205.23 1264.96 207.68 1273.94 204.01C1282.92 200.34 1285.37 195.44 1285.37 195.44C1285.37 195.44 1310.1 254.62 1318.84 268.91C1327.57 283.19 1319.69 296.32 1303.32 297.99C1286.09 299.75 1235.6 306.45 1219.01 308.09C1217.2 316.49 1208.81 336.08 1208.57 348.91C1208.34 361.74 1208.34 371.06 1208.34 371.06H1124.85C1124.85 371.06 1115.05 405.11 1113.89 412.57C1112.72 420.03 1105.73 451.52 1105.73 451.52L1067.48 371.53L1074.94 349.07Z" fill="#D9F0FF"/>
<path fill-rule="evenodd" clip-rule="evenodd" d="M1124.84 371.05V412.33H1210.25L1208.33 371.05H1124.84Z" fill="#FBBE2E"/>
<path fill-rule="evenodd" clip-rule="evenodd" d="M1170.14 376.15C1178.72 376.15 1185.68 383.12 1185.68 391.69C1185.68 400.27 1178.72 407.23 1170.14 407.23C1161.56 407.23 1154.6 400.27 1154.6 391.69C1154.6 383.12 1161.56 376.15 1170.14 376.15Z" fill="#FF341A"/>
<path fill-rule="evenodd" clip-rule="evenodd" d="M1148.56 222.1C1148.56 228.88 1157.08 237.93 1157.08 242.27V249.92L1173.25 275.66C1173.25 275.66 1187.24 252.23 1187.24 247.68V242.31C1187.24 240.4 1192.19 236.13 1192.19 223.42C1192.19 210.71 1148.56 215.31 1148.56 222.1Z" fill="#8D1A00"/>
<path fill-rule="evenodd" clip-rule="evenodd" d="M1148.56 222.1C1148.56 222.1 1145.32 218.92 1143.16 221.72C1141 224.52 1144.19 232.61 1152.1 231.84C1150.47 227.44 1148.56 222.1 1148.56 222.1Z" fill="#8D1A00"/>
<path fill-rule="evenodd" clip-rule="evenodd" d="M1191.31 220.56C1191.31 220.56 1194.35 216.81 1197.21 217.83C1200.07 218.85 1197.15 230.48 1191.52 230.93C1192.32 225.78 1191.31 220.56 1191.31 220.56Z" fill="#8D1A00"/>
<path fill-rule="evenodd" clip-rule="evenodd" d="M1210.25 412.33C1226.2 412.33 1237.21 453.25 1250.73 516.4C1255.94 540.75 1270.78 629.58 1270.78 629.58H1219.08C1219.08 629.58 1215.19 622.97 1207.03 596.93C1198.87 570.89 1170.13 469.82 1170.13 469.82L1145.22 632.69H1094.69C1094.69 632.69 1103.64 541.77 1104.27 508.6C1104.95 472.09 1098.46 434.45 1124.83 412.32" fill="#D9F0FF"/>
<path fill-rule="evenodd" clip-rule="evenodd" d="M1094.7 632.7H1145.23L1119.5 769.45H1045L1082.38 744.56L1094.7 632.7Z" fill="#B9E2FE"/>
<path fill-rule="evenodd" clip-rule="evenodd" d="M1219.08 629.59L1250.37 769.45H1339.12L1303.49 743.53L1270.78 629.59H1219.08Z" fill="#B9E2FE"/>
<path fill-rule="evenodd" clip-rule="evenodd" d="M1170.38 203.52C1162.94 203.52 1145.14 204.58 1147.3 221.16C1148.89 222.73 1149.02 223.36 1149.02 223.36H1191.68L1192.19 219.64C1192.19 219.65 1194.04 203.52 1170.38 203.52Z" fill="#5B3100"/>
<path d="M1164.38 203.52C1173.53 203.52 1180.95 196.101 1180.95 186.95C1180.95 177.799 1173.53 170.38 1164.38 170.38C1155.23 170.38 1147.81 177.799 1147.81 186.95C1147.81 196.101 1155.23 203.52 1164.38 203.52Z" fill="#5B3100"/>
<path fill-rule="evenodd" clip-rule="evenodd" d="M1256.79 205.23C1252 204.28 1248.16 196.53 1246.92 192.18C1245.68 187.83 1246.42 185.47 1249.4 184.98C1252.38 184.48 1254.02 183.91 1254.02 183.91C1254.02 183.91 1252.75 173.5 1259.27 172.23C1265.79 170.96 1279.78 172.55 1282.8 173.9C1285.82 175.25 1287.65 178.12 1287.17 181.85C1286.69 185.59 1285.36 195.45 1285.36 195.45C1285.36 195.45 1276.68 209.18 1256.79 205.23Z" fill="#8D1A00"/>
<path d="M1139.86 326.31H1198.3" stroke="#4FB3F6" stroke-width="2.0833" stroke-miterlimit="10" stroke-linecap="round" stroke-linejoin="round"/>
<path d="M1150.29 448.64L1170.66 469.36L1190.58 448.64" stroke="black" stroke-width="2.0833" stroke-miterlimit="10" stroke-linecap="round" stroke-linejoin="round"/>
<path d="M1124.57 295.88V371.32" stroke="black" stroke-width="2.0833" stroke-miterlimit="10" stroke-linecap="round" stroke-linejoin="round"/>
<path d="M1274.05 251.95L1278.02 264.59" stroke="black" stroke-width="2.0833" stroke-miterlimit="10" stroke-linecap="round" stroke-linejoin="round"/>
<path d="M1165.29 247.45L1177.75 246.59" stroke="#8D1A00" stroke-width="2.0833" stroke-miterlimit="10" stroke-linecap="round" stroke-linejoin="round"/>
<path d="M1165.29 231.1C1165.29 231.1 1170.55 233.3 1175.45 231.59" stroke="#8D1A00" stroke-width="2.0833" stroke-miterlimit="10" stroke-linecap="round" stroke-linejoin="round"/>
<path d="M1254.02 183.91C1254.02 183.91 1255.76 189.85 1256.29 191.66C1256.82 193.46 1258.7 194.71 1262.96 194.71H1278.52" stroke="#5B3100" stroke-width="2.0833" stroke-miterlimit="10" stroke-linecap="round" stroke-linejoin="round"/>
<path d="M1161.87 226.43H1161.87L1161.87 226.423C1161.86 225.928 1162.26 225.52 1162.78 225.52C1163.28 225.52 1163.69 225.926 1163.69 226.43C1163.69 226.934 1163.28 227.34 1162.78 227.34C1162.28 227.34 1161.87 226.934 1161.87 226.43Z" fill="black" stroke="black"/>
<path d="M1179.03 225.52C1179.53 225.52 1179.94 225.926 1179.94 226.43C1179.94 226.934 1179.53 227.34 1179.03 227.34C1178.53 227.34 1178.12 226.934 1178.12 226.43C1178.12 225.926 1178.53 225.52 1179.03 225.52Z" fill="black" stroke="black"/>
<path d="M1170.38 226.08L1167.02 235.79H1172.39L1167.88 240.3C1167.88 240.3 1169.79 242.12 1172.39 242.12C1174.99 242.12 1177.51 239.87 1177.51 239.87" stroke="black" stroke-width="1.2708" stroke-miterlimit="10" stroke-linecap="round" stroke-linejoin="round"/>
<path fill-rule="evenodd" clip-rule="evenodd" d="M1161.96 247.2C1161.96 247.2 1167.74 251.27 1173.06 251.27C1178.37 251.27 1182.91 246.66 1182.91 246.66C1182.91 246.66 1177.36 257.68 1173.06 257.68C1168.76 257.67 1161.96 247.2 1161.96 247.2Z" fill="black"/>
<path fill-rule="evenodd" clip-rule="evenodd" d="M1219.09 287.34L1245.17 305.04L1219 308.09C1219 308.08 1222.33 295.16 1219.09 287.34Z" fill="black"/>
<path fill-rule="evenodd" clip-rule="evenodd" d="M808.68 273H945.6L911.4 302.75L835.22 320.11L808.68 273Z" fill="#FFE8E5"/>
<path fill-rule="evenodd" clip-rule="evenodd" d="M784.1 269.7C768.63 269.7 745.96 272.46 738.78 292.92C731.59 313.37 645.92 623.44 645.92 623.44L955.99 626.76C955.99 626.76 868.59 403.65 835.21 320.11C828.51 303.34 823.99 292.19 822.79 289.61C820.07 283.76 813.45 273.01 823.25 273.01C812.13 270.31 795.35 269.7 784.1 269.7Z" fill="#B9E2FE"/>
<path fill-rule="evenodd" clip-rule="evenodd" d="M741.32 287.4C732.02 296.48 690.99 339.63 690.99 339.63C690.99 339.63 688.46 312.78 688.46 308.33C688.46 303.88 692.64 297.01 692.64 293.5C692.64 290 686.98 282.72 686.98 282.72C686.98 282.72 687.92 261.29 687.92 256.84C687.92 252.39 684.28 251.72 683.2 255.76C682.12 259.81 678.22 276.65 678.22 276.65C678.22 276.65 665.69 278.94 661.51 280.96C657.33 282.98 656.93 288.64 657.47 292.55C658.01 296.46 664.21 301.58 664.21 304.54C664.21 307.51 662.3 360.86 661.92 372.05C661.54 383.25 661.65 398.06 673.64 401.16C685.63 404.26 700.99 397.39 705.85 392.4C710.7 387.41 712.08 385.66 712.08 385.66C712.08 385.66 736.34 300.42 741.32 287.4Z" fill="#FFE8E5"/>
<path fill-rule="evenodd" clip-rule="evenodd" d="M757.89 237.48L754.29 258.41H814.23C814.23 258.41 818.13 215.63 781.85 215.63C745.58 215.64 757.89 237.48 757.89 237.48Z" fill="#FF341A"/>
<path fill-rule="evenodd" clip-rule="evenodd" d="M770.45 270.6C770.45 270.6 770.21 260.82 770.21 258.91C770.21 256.99 769.33 254.79 765.5 253.1C761.67 251.4 757.11 247.83 757.7 238.12C758.29 228.4 762.12 218.54 779.63 218.54C797.14 218.54 802.15 230.02 802.15 237.24V270.68L770.45 270.6Z" fill="#FFE8E5"/>
<path d="M766.63 234.24L763.939 242H768.24L764.64 245.6C764.64 245.6 766.16 247.05 768.24 247.05C770.32 247.05 772.329 245.25 772.329 245.25" stroke="#5B3100" stroke-width="1.2708" stroke-miterlimit="10" stroke-linecap="round" stroke-linejoin="round"/>
<path fill-rule="evenodd" clip-rule="evenodd" d="M685.92 623.87L675.91 656.26H720.98L732.29 624.37L685.92 623.87Z" fill="#FFE8E5"/>
<path fill-rule="evenodd" clip-rule="evenodd" d="M685.92 623.87L684.24 629.31L720.98 656.26L732.29 624.37L685.92 623.87Z" fill="black"/>
<path fill-rule="evenodd" clip-rule="evenodd" d="M856.04 625.69L861.24 656.26H817.95L811.22 625.21L856.04 625.69Z" fill="#FFE8E5"/>
<path fill-rule="evenodd" clip-rule="evenodd" d="M856.04 625.69L857.13 632.08L816.72 650.62L811.22 625.21L856.04 625.69Z" fill="black"/>
<path fill-rule="evenodd" clip-rule="evenodd" d="M720.98 656.26H675.91L650.84 737.42L615.01 769.74H680.72L720.98 656.26Z" fill="#B9E2FE"/>
<path fill-rule="evenodd" clip-rule="evenodd" d="M817.95 656.26H861.29L876.37 737.42L908.22 769.74H842.51L817.95 656.26Z" fill="#B9E2FE"/>
<path fill-rule="evenodd" clip-rule="evenodd" d="M770.45 270.6C770.45 277.72 772.01 300.77 779.9 300.77C787.79 300.77 802.15 270.67 802.15 270.67C802.15 270.67 770.45 263.48 770.45 270.6Z" fill="#FFE8E5"/>
<path fill-rule="evenodd" clip-rule="evenodd" d="M757.9 235.77C757.79 233.52 758.35 231.51 759.36 229.64H800.41C801.88 231.66 802.41 233.68 802.13 235.7L757.9 235.77Z" fill="#FEDD8E"/>
<path fill-rule="evenodd" clip-rule="evenodd" d="M804.05 228.81C805.59 228.81 806.85 230.06 806.85 231.61C806.85 233.15 805.6 234.41 804.05 234.41C802.5 234.41 801.25 233.16 801.25 231.61C801.25 230.06 802.5 228.81 804.05 228.81Z" fill="#FEDD8E"/>
<path fill-rule="evenodd" clip-rule="evenodd" d="M762.88 230.63C764.03 230.63 764.96 231.56 764.96 232.71C764.96 233.85 764.03 234.78 762.88 234.78C761.74 234.78 760.81 233.85 760.81 232.71C760.8 231.56 761.73 230.63 762.88 230.63Z" fill="white"/>
<path fill-rule="evenodd" clip-rule="evenodd" d="M776.39 230.63C777.53 230.63 778.459 231.56 778.459 232.71C778.459 233.85 777.53 234.78 776.39 234.78C775.24 234.78 774.31 233.85 774.31 232.71C774.32 231.56 775.25 230.63 776.39 230.63Z" fill="white"/>
<path fill-rule="evenodd" clip-rule="evenodd" d="M760.8 226.73H784.32L786.79 229.64H800.42C800.42 229.64 799.28 222.01 794.47 219.8C789.66 217.59 777.18 215.72 769.64 218.54C762.09 221.36 760.8 226.73 760.8 226.73Z" fill="#FF341A"/>
<path d="M757.64 363.23H802.21" stroke="#4FB3F6" stroke-width="2.0833" stroke-miterlimit="10" stroke-linecap="round" stroke-linejoin="round"/>
<path d="M690.99 339.63L693.15 363.23" stroke="#FF341A" stroke-width="2.0833" stroke-miterlimit="10" stroke-linecap="round" stroke-linejoin="round"/>
<path d="M686.98 282.73C686.98 282.73 683.53 279.88 680.58 282.15C677.62 284.41 679.1 287.1 680.93 289.1C682.76 291.1 684.06 292.67 684.06 292.67" stroke="#FF341A" stroke-width="2.0833" stroke-miterlimit="10" stroke-linecap="round" stroke-linejoin="round"/>
<path d="M661.45 297.36H673.27C676.84 297.36 678.22 294.49 676.31 290.06C674.4 285.62 674.48 282.32 677.36 279.01" stroke="#FF341A" stroke-width="2.0833" stroke-miterlimit="10" stroke-linecap="round" stroke-linejoin="round"/>
<path d="M841.96 303.93C841.96 303.93 839.28 306.08 834.78 319.01" stroke="#FF341A" stroke-width="2.0833" stroke-miterlimit="10" stroke-linecap="round" stroke-linejoin="round"/>
<path fill-rule="evenodd" clip-rule="evenodd" d="M767.33 254.09H786.96C786.96 254.09 780.93 262.6 776.16 262.6C771.39 262.6 770.26 262.53 770.26 262.53C770.26 262.53 770.2 260.56 770.2 258.79C770.2 257.02 768.71 255.15 767.33 254.09Z" fill="black"/>
<path fill-rule="evenodd" clip-rule="evenodd" d="M872.72 402.6L800.12 596.21C800.12 596.21 827.53 581.11 837.62 581.11C847.72 581.11 857.09 594.45 867.54 594.45C877.99 594.45 893.49 577.51 907.91 577.51C922.33 577.51 932.06 594.45 947.56 594.45C963.06 594.45 983.61 578.23 995.14 578.23C1006.68 578.23 1023.98 589.04 1039.48 589.04C1054.98 589.04 1067.95 571.02 1081.29 571.02C1094.63 571.02 1102.92 581.11 1118.78 581.11H1169.6L1080.21 390.07L980.72 287.7L949.2 297.38L872.72 402.6Z" fill="#FF341A"/>
<path fill-rule="evenodd" clip-rule="evenodd" d="M901.79 383.35C907.03 389.87 937.86 419.76 938.44 432.89C939.02 446.02 933.26 483.85 930.69 486.37C928.12 488.9 924.25 492.32 920.67 489.05C917.09 485.77 931.24 468.5 917.84 453.45C904.44 438.41 882.69 422.68 870.25 408.2C857.82 393.72 896.56 376.82 901.79 383.35Z" fill="#FBBE2E"/>
<path fill-rule="evenodd" clip-rule="evenodd" d="M1048.25 381.74C1048.25 381.74 1037.2 408.96 1034.87 415.2C1032.54 421.43 1054.16 476.69 1054.16 476.69C1054.16 476.69 1059.49 468.8 1056.81 461.35C1054.13 453.9 1052.04 441.99 1058 431.12C1063.96 420.25 1074.7 399.2 1074.7 399.2C1074.7 399.2 1067.69 378.24 1048.25 381.74Z" fill="#FBBE2E"/>
<path fill-rule="evenodd" clip-rule="evenodd" d="M935.86 276.86C927.95 274.84 914.59 261.07 920.04 239.66C925.49 218.25 936.4 219.88 950.72 215.52C965.04 211.16 974.44 198.2 990.13 198.2C1005.81 198.2 1019.5 209.92 1019.5 220.7C1019.5 231.47 1011.9 235.79 1011.9 235.79H976.55L966.49 267.55C966.49 267.55 943.77 278.88 935.86 276.86Z" fill="#5B3100"/>
<path fill-rule="evenodd" clip-rule="evenodd" d="M935.86 276.86C927.95 274.84 914.59 261.07 920.04 239.66C925.49 218.25 936.4 219.88 950.72 215.52C965.04 211.16 974.44 198.2 990.13 198.2C1005.81 198.2 1019.5 209.92 1019.5 220.7C1019.5 231.47 1011.9 235.79 1011.9 235.79H976.55L966.49 267.55C966.49 267.55 943.77 278.88 935.86 276.86Z" fill="black"/>
<path fill-rule="evenodd" clip-rule="evenodd" d="M963.56 264.76C963.79 267.28 944.1 274.11 938.65 274.62C933.01 275.14 926.16 281.65 918.77 291.87C911.38 302.1 886.03 333.42 878.15 341.94C870.27 350.46 859.19 364.74 855.57 376.03C851.95 387.32 853.44 390.09 857.06 393.71C860.68 397.33 870.27 408.2 870.27 408.2C870.27 408.2 870.27 399.04 880.92 391.37C891.57 383.7 901.74 383.28 901.74 383.28L896.94 377.19L933.97 331.72C933.97 331.72 944.84 356.86 945.05 371.56C945.26 386.26 941 418.43 939.08 428.23C937.16 438.03 931.2 471.05 930.35 490.66C929.5 510.26 926.3 592.5 926.52 599.11C926.73 605.71 915.65 626.17 913.52 640.87C911.39 655.57 913.1 739.3 913.1 739.3H942.93C942.93 739.3 962.41 646.56 965.69 634.35C968.96 622.13 980.31 571.52 981.83 563.88C983.36 556.24 996.23 483.16 996.23 483.16C996.23 483.16 993.5 556.88 1011.92 606.48C1016.27 618.19 1006.37 649.19 1009.27 661.84C1012.16 674.49 1040.31 740.6 1040.31 740.6L1069.54 741.47C1069.54 741.47 1062.34 641.33 1061.69 629.33C1061.04 617.33 1057.33 594.42 1057.33 584.61C1057.33 574.8 1058.37 500.67 1054 474.22C1049.63 447.77 1037.36 419.4 1037.36 419.4C1037.36 419.4 1019.44 367.07 1019.52 357.26C1019.63 343.18 1022.69 334.11 1022.69 334.11L1049.13 379.55L1048.2 381.92C1048.2 381.92 1065.45 379.86 1074.72 397.86C1082.08 389.95 1093.54 379.04 1082.63 361.32C1071.72 343.59 1040.63 294.24 1036 286.87C1031.36 279.51 1023.67 270.69 1011.92 270.69C1000.18 270.69 996.91 267.72 996.91 267.72L963.56 264.76Z" fill="#FFF3D6"/>
<path fill-rule="evenodd" clip-rule="evenodd" d="M963.56 264.76C963.56 264.76 967.16 252.98 966.96 248.98C964.16 244.59 961.17 227.61 970.56 227.61C979.95 227.61 976.55 235.8 976.55 235.8H1011.9C1011.9 235.8 1011.88 244.38 1011.86 250.76C1011.84 257.14 1008.59 260.91 1002.29 260.91C995.99 260.91 996.89 260.91 996.89 260.91V267.7C996.89 267.7 992.01 271.37 980.64 271.37C969.26 271.36 963.56 264.76 963.56 264.76Z" fill="#FF341A"/>
<path fill-rule="evenodd" clip-rule="evenodd" d="M1011.9 236.85C1012.2 240.04 1015.87 242.25 1017.84 242.9C1019.81 243.55 1020.29 246.09 1017.84 246.09H1009.25C1009.25 246.1 1011.6 233.66 1011.9 236.85Z" fill="#FF341A"/>
<path fill-rule="evenodd" clip-rule="evenodd" d="M942.93 401.13L1031.37 401.38L1037.67 420.18C1021.5 443.26 996.17 484.36 996.17 484.36C996.17 484.36 952.96 433.23 940.5 419.63C942.15 407.93 942.93 401.13 942.93 401.13Z" fill="#FBBE2E"/>
<path fill-rule="evenodd" clip-rule="evenodd" d="M942.91 739.29H913.08C913.08 746.52 899.67 758.57 899.67 770.36H956C956 760.98 943.3 749.74 942.91 739.29Z" fill="#FBBE2E"/>
<path fill-rule="evenodd" clip-rule="evenodd" d="M1070.25 739.29H1040.42C1040.42 746.52 1034 758.88 1037.67 770.36H1127.72C1127.72 760.98 1070.63 749.74 1070.25 739.29Z" fill="#FBBE2E"/>
<path d="M897.43 376.58L890.88 368.65" stroke="#FBBE2E" stroke-width="2.0833" stroke-miterlimit="10" stroke-linecap="round" stroke-linejoin="round"/>
<path fill-rule="evenodd" clip-rule="evenodd" d="M933.96 333.07C938.35 322.42 943.4 309.75 944.63 304.67C945.86 299.59 940.51 349.43 940.51 349.43C940.51 349.43 936.7 337.89 933.96 333.07Z" fill="black"/>
<path d="M1049.1 379.53H1065.98" stroke="#FBBE2E" stroke-width="2.0833" stroke-miterlimit="10" stroke-linecap="round" stroke-linejoin="round"/>
<path d="M1004.32 311.61H978.95C975.11 311.61 972 314.72 972 318.56C972 322.4 975.11 325.51 978.95 325.51C983.91 325.51 990.6 325.51 995.83 325.51C998.03 325.51 1000.13 326.39 1001.69 327.94C1003.24 329.49 1004.11 331.6 1004.11 333.8C1004.11 336 1003.24 338.1 1001.69 339.66C1000.14 341.21 998.03 342.09 995.83 342.09H970.29" stroke="#FBBE2E" stroke-width="2.0833" stroke-miterlimit="10" stroke-linecap="round" stroke-linejoin="round"/>
<path fill-rule="evenodd" clip-rule="evenodd" d="M1006.83 237.03C1007.61 237.03 1008.24 237.66 1008.24 238.44C1008.24 239.22 1007.61 239.85 1006.83 239.85C1006.05 239.85 1005.42 239.22 1005.42 238.44C1005.42 237.66 1006.05 237.03 1006.83 237.03Z" fill="#5B3100"/>
<path d="M1007.24 249.52C1007.24 249.52 1009.13 251.02 1011.86 251.02" stroke="#5B3100" stroke-width="2.0833" stroke-miterlimit="10" stroke-linejoin="round"/>
<path fill-rule="evenodd" clip-rule="evenodd" d="M996.89 260.9H987.73L996.89 265.16V260.9Z" fill="black"/>
<path fill-rule="evenodd" clip-rule="evenodd" d="M1022.66 334.1C1024.14 328.24 1027.62 314.22 1027.96 307.67C1035.23 330.61 1033.54 352.8 1033.54 352.8C1033.54 352.8 1025.95 340.17 1022.66 334.1Z" fill="black"/>
</g>
<defs>
<clipPath id="clip0_459:20642">
<rect width="1912" height="777" fill="white"/>
</clipPath>
</defs>
</svg>
