<svg width="1255" height="835" viewBox="0 0 1255 835" fill="none" xmlns="http://www.w3.org/2000/svg">
<path fill-rule="evenodd" clip-rule="evenodd" d="M1034.73 0C1164.45 0 1243.31 89.3578 1252.66 176.527C1262.01 263.696 1227.27 352.842 1167.2 374.66C1107.14 396.479 1061.39 405.411 1026.44 521.742C991.49 638.073 907.725 666.494 907.725 666.494L698.929 670.519V673.273L627.085 671.896L555.241 673.273V670.519L346.48 666.494C346.48 666.494 262.609 638.25 227.727 521.742C192.846 405.235 146.995 396.479 86.9663 374.66C26.9375 352.842 -7.83833 263.872 1.50811 176.527C10.8546 89.1813 89.6821 0 219.439 0H1034.73Z" fill="#0C114D"/>
<path fill-rule="evenodd" clip-rule="evenodd" d="M888.89 571.311C888.88 566.149 886.825 561.201 883.175 557.553C879.525 553.906 874.578 551.858 869.421 551.858H383.194C378.04 551.858 373.097 553.907 369.453 557.556C365.808 561.204 363.761 566.152 363.761 571.311V721.994H888.89V571.311Z" fill="#B9E2FE"/>
<path fill-rule="evenodd" clip-rule="evenodd" d="M523.604 551.858C513.905 551.858 505.299 565.274 500.503 581.762C495.706 598.249 480.505 684.924 480.505 684.924L707.359 722.171H779.626C779.626 722.171 743.863 584.48 741.429 573.006C740.392 567.29 737.441 562.099 733.062 558.287C728.684 554.475 723.138 552.27 717.34 552.034L523.604 551.858Z" fill="#0089E3"/>
<path fill-rule="evenodd" clip-rule="evenodd" d="M723.759 721.994C723.759 721.994 730.813 689.125 744.321 666.106C757.829 643.087 767.775 637.862 773.595 637.509C777.078 633.281 781.465 629.89 786.433 627.588L786.927 640.404L798.777 636.061L793.698 651.066C793.698 651.066 797.225 666.424 792.958 670.272C788.69 674.12 776.734 674.332 776.734 674.332V682.805L790.559 700.176C794.086 704.695 795.603 707.237 794.651 712.991H807.771C810.875 712.991 817.188 704.801 826.711 704.801C836.233 704.801 840.819 717.016 835.281 721.888L723.759 721.994Z" fill="white"/>
<path d="M741.745 693.962C741.745 693.962 735.326 713.45 734.938 721.994" stroke="#5B3100" stroke-width="0.44" stroke-linecap="round" stroke-linejoin="round"/>
<path d="M754.268 693.962C754.268 693.962 759.699 717.157 760.44 721.994" stroke="#5B3100" stroke-width="0.44" stroke-linecap="round" stroke-linejoin="round"/>
<path d="M794.651 713.168C794.13 716.577 792.537 719.731 790.102 722.171" stroke="#5B3100" stroke-width="0.44" stroke-linecap="round" stroke-linejoin="round"/>
<path d="M774.087 721.994C774.087 721.994 768.867 698.693 767.033 693.962" stroke="#5B3100" stroke-width="0.44" stroke-linecap="round" stroke-linejoin="round"/>
<path d="M776.733 674.791C776.733 674.791 765.94 675.038 762.625 665.929" stroke="#5B3100" stroke-width="0.44" stroke-linecap="round" stroke-linejoin="round"/>
<path d="M771.371 665.223L778.143 662.258L780.753 668.718" stroke="#C98600" stroke-width="0.89" stroke-linecap="round" stroke-linejoin="round"/>
<path fill-rule="evenodd" clip-rule="evenodd" d="M903.422 743.283C903.422 737.665 901.192 732.277 897.224 728.304C893.255 724.332 887.873 722.1 882.26 722.1H370.499C364.886 722.1 359.504 724.332 355.535 728.304C351.566 732.277 349.337 737.665 349.337 743.283C349.337 748.901 351.566 754.289 355.535 758.262C359.504 762.235 364.886 764.467 370.499 764.467H882.119C887.732 764.467 893.114 762.235 897.083 758.262C901.051 754.289 903.281 748.901 903.281 743.283H903.422Z" fill="#163BF3"/>
<path fill-rule="evenodd" clip-rule="evenodd" d="M432.291 764.608L397.762 833.206H410.177L458.143 764.608H432.291Z" fill="#163BF3"/>
<path fill-rule="evenodd" clip-rule="evenodd" d="M352.934 601.956C351.518 598.609 349.146 595.754 346.115 593.751C343.085 591.747 339.531 590.684 335.899 590.694H330.715C328.44 590.692 326.2 591.256 324.196 592.333C322.192 593.411 320.486 594.97 319.231 596.869C317.977 598.769 317.212 600.95 317.007 603.218C316.801 605.486 317.16 607.77 318.053 609.865L365.702 721.994H403.934L352.934 601.956Z" fill="#163BF3"/>
<path fill-rule="evenodd" clip-rule="evenodd" d="M341.402 664.306L318.265 609.865C317.372 607.77 317.013 605.486 317.218 603.218C317.424 600.95 318.188 598.769 319.443 596.869C320.698 594.97 322.404 593.411 324.408 592.333C326.412 591.256 328.652 590.692 330.927 590.694H336.146C339.778 590.684 343.332 591.747 346.362 593.751C349.393 595.754 351.765 598.609 353.182 601.956L363.763 626.882V652.902C363.758 654.713 363.394 656.504 362.69 658.172C361.986 659.84 360.957 661.351 359.663 662.617C358.37 663.882 356.837 664.877 355.155 665.543C353.473 666.208 351.675 666.532 349.866 666.494H346.727C346.727 666.494 344.752 665.788 341.402 664.306Z" fill="#B9E2FE"/>
<path fill-rule="evenodd" clip-rule="evenodd" d="M899.683 601.956C901.11 598.609 903.489 595.756 906.525 593.753C909.561 591.75 913.118 590.686 916.754 590.694H921.938C924.21 590.701 926.445 591.27 928.444 592.35C930.444 593.43 932.145 594.988 933.398 596.885C934.651 598.782 935.416 600.959 935.626 603.224C935.836 605.488 935.483 607.769 934.6 609.865L886.951 721.994H848.719L899.683 601.956Z" fill="#163BF3"/>
<path fill-rule="evenodd" clip-rule="evenodd" d="M911.251 665.011L934.387 610.782C935.278 608.685 935.636 606.4 935.43 604.131C935.224 601.862 934.46 599.679 933.207 597.777C931.953 595.875 930.248 594.314 928.245 593.232C926.242 592.15 924.002 591.581 921.726 591.576H916.541C912.902 591.576 909.344 592.647 906.309 594.656C903.274 596.665 900.896 599.522 899.471 602.874L888.89 627.588V653.608C888.899 655.416 889.265 657.204 889.968 658.869C890.671 660.535 891.696 662.044 892.985 663.311C894.273 664.578 895.8 665.577 897.476 666.251C899.152 666.924 900.945 667.259 902.751 667.235H905.96C905.96 667.235 907.865 666.529 911.251 665.011Z" fill="#B9E2FE"/>
<path fill-rule="evenodd" clip-rule="evenodd" d="M814.153 764.608L848.682 833.206H836.267L788.301 764.608H814.153Z" fill="#163BF3"/>
<path d="M324.332 833.206H895.734" stroke="#163BF3" stroke-width="0.89" stroke-linecap="round" stroke-linejoin="round"/>
<path fill-rule="evenodd" clip-rule="evenodd" d="M653.007 514.646C658.263 514.646 663.305 516.736 667.022 520.457C670.74 524.178 672.828 529.225 672.828 534.487C672.828 539.75 670.74 544.796 667.022 548.517C663.305 552.238 658.263 554.329 653.007 554.329C650.212 554.322 647.449 553.733 644.894 552.599C649.762 550.092 654.1 544.232 650.255 540.983C646.411 537.735 640.874 545.573 636.571 545.573C634.562 542.588 633.402 539.112 633.215 535.518C633.028 531.924 633.822 528.346 635.51 525.169C637.199 521.991 639.719 519.333 642.801 517.48C645.883 515.626 649.411 514.646 653.007 514.646Z" fill="#DFA98B"/>
<path d="M664.611 519.589C674.682 519.589 682.846 511.416 682.846 501.336C682.846 491.255 674.682 483.083 664.611 483.083C654.541 483.083 646.377 491.255 646.377 501.336C646.377 511.416 654.541 519.589 664.611 519.589Z" fill="#6D83F3"/>
<path fill-rule="evenodd" clip-rule="evenodd" d="M636.573 523.402H650.293C651.866 523.468 653.381 524.01 654.64 524.955C655.899 525.901 656.843 527.205 657.347 528.698C657.841 531.628 658.687 536.924 658.687 536.924C658.687 536.924 661.65 531.946 664.471 531.946C667.293 531.946 667.716 535.9 667.716 537.665C667.716 539.43 667.716 543.773 669.832 544.726C673.112 538.583 676.287 523.543 660.944 516.482C646.519 509.456 636.573 523.402 636.573 523.402Z" fill="#6D83F3"/>
<path fill-rule="evenodd" clip-rule="evenodd" d="M633.504 530.993C631.971 533.576 629.748 535.679 627.085 537.065C625.287 537.842 625.181 540.596 627.579 540.596H634.139C634.139 540.596 634.104 529.051 633.504 530.993Z" fill="#DFA98B"/>
<path fill-rule="evenodd" clip-rule="evenodd" d="M641.792 564.603C641.792 564.603 630.294 568.133 625.744 569.616C621.194 571.099 611.037 576.359 610.331 588.01C609.626 599.661 607.862 621.021 607.862 621.021L638.335 662.469H674.31C674.31 662.469 701.997 674.226 711.52 678.886C721.042 683.546 732.223 684.394 738.113 678.886C744.003 673.379 745.59 660.633 742.169 646.617C738.748 632.601 730.001 608.452 726.932 597.19C723.864 585.927 717.374 575.194 699.457 570.711C681.54 566.227 670.924 563.049 670.924 563.049L641.792 564.603Z" fill="#CF1D00"/>
<path d="M655.195 563.826L655.477 631.507" stroke="#5B3100" stroke-width="0.44" stroke-linecap="round" stroke-linejoin="round"/>
<path fill-rule="evenodd" clip-rule="evenodd" d="M532.457 648.03C532.457 648.03 483.82 681.676 476.695 686.442C463.857 694.986 467.949 721.288 482.797 721.994H560.637L580.529 672.849V648.136H532.457" fill="#4FB3F6"/>
<path d="M498.385 688.772H544.165" stroke="#014A82" stroke-width="0.44" stroke-linecap="round" stroke-linejoin="round"/>
<path d="M545.754 684.924C545.754 684.924 537.713 669.107 546.53 661.022C550.497 657.594 555.52 655.633 560.758 655.466C565.996 655.299 571.133 656.936 575.31 660.104" stroke="#014A82" stroke-width="0.44" stroke-linecap="round" stroke-linejoin="round"/>
<path d="M695.683 603.191L713.106 643.192L679.882 628.152" stroke="#5B3100" stroke-width="0.44" stroke-linecap="round" stroke-linejoin="round"/>
<path fill-rule="evenodd" clip-rule="evenodd" d="M649.199 553.94C649.199 553.94 634.738 572.405 639.217 574.241C643.696 576.077 655.194 563.649 655.194 563.649C655.194 563.649 669.302 577.136 673.535 573.641C677.767 570.145 663.236 551.292 663.236 551.292L649.199 553.94Z" fill="white"/>
<path d="M674.488 663.352L664.365 657.421" stroke="#5B3100" stroke-width="0.4" stroke-linecap="round" stroke-linejoin="round"/>
<path fill-rule="evenodd" clip-rule="evenodd" d="M576.648 670.025C567.196 665.965 548.044 673.555 544.905 687.678C543.332 694.329 544.026 701.317 546.876 707.528C549.727 713.74 554.57 718.82 560.636 721.959H602.712L588.992 804.962H635.442L655.722 722.206H708.627C718.255 722.206 728.589 702.329 716.845 681.04C703.013 673.996 688.774 667.783 674.204 662.434H601.196C601.196 662.434 583.032 672.849 576.648 670.025Z" fill="#002238"/>
<path d="M602.715 721.994C604.267 714.615 609.769 679.169 633.011 679.169H676.852" stroke="#163BF3" stroke-width="0.44" stroke-linecap="round" stroke-linejoin="round"/>
<path fill-rule="evenodd" clip-rule="evenodd" d="M635.444 804.961H588.994C588.994 804.961 580.459 819.331 572.064 823.85C563.67 828.369 559.614 832.959 559.614 834.441H630.929C630.929 834.441 635.55 828.687 635.444 804.961Z" fill="#133191"/>
<path fill-rule="evenodd" clip-rule="evenodd" d="M542.225 538.265C545.43 537.092 548.892 536.805 552.247 537.433C555.601 538.062 558.725 539.582 561.29 541.836C563.855 544.089 565.767 546.993 566.825 550.241C567.883 553.489 568.047 556.962 567.302 560.296C565.115 559.625 560.248 556.377 558.484 559.943C557.215 562.767 561.165 565.062 564.339 567.004C562.633 569.447 560.377 571.454 557.752 572.863C555.128 574.272 552.209 575.042 549.231 575.112C546.254 575.182 543.302 574.55 540.615 573.266C537.927 571.983 535.579 570.084 533.76 567.723C531.941 565.362 530.703 562.607 530.146 559.678C529.588 556.75 529.728 553.731 530.552 550.867C531.376 548.002 532.862 545.372 534.89 543.189C536.918 541.006 539.431 539.331 542.225 538.3V538.265Z" fill="#DFA98B"/>
<path fill-rule="evenodd" clip-rule="evenodd" d="M535.068 568.204C535.068 568.204 518.244 574.03 525.404 595.354C531.826 588.879 537.723 581.901 543.039 574.489L535.068 568.204Z" fill="#5B3100"/>
<path fill-rule="evenodd" clip-rule="evenodd" d="M543.285 574.277V563.897C543.285 562.016 543.797 560.171 544.767 558.56C545.736 556.948 547.126 555.632 548.787 554.753C553.125 551.575 563.636 544.161 563.636 544.161C561.998 541.783 559.763 539.879 557.157 538.639C554.55 537.4 551.664 536.869 548.787 537.1C546.208 537.044 543.643 537.505 541.244 538.456C538.846 539.407 536.662 540.83 534.821 542.64C532.98 544.449 531.52 546.61 530.526 548.993C529.533 551.377 529.026 553.935 529.036 556.518C529.036 567.533 538.488 572.476 543.285 574.277Z" fill="#5B3100"/>
<path fill-rule="evenodd" clip-rule="evenodd" d="M566.739 549.916C567.339 551.646 571.43 553.447 573.229 553.447C575.028 553.447 575.098 556.977 573.229 556.977H567.727C567.211 554.653 566.881 552.292 566.739 549.916Z" fill="#DFA98B"/>
<path fill-rule="evenodd" clip-rule="evenodd" d="M518.347 595.354C516.337 604.003 511.717 627.658 510.341 631.824C508.966 635.99 508.472 648.029 526.248 648.029H580.528L599.785 606.545C599.785 606.545 594.565 590.27 592.061 583.668C589.557 577.066 578.517 572.829 571.146 572.829H537.816C526.6 572.829 520.569 585.609 518.347 595.354Z" fill="#FFF3D6"/>
<path fill-rule="evenodd" clip-rule="evenodd" d="M541.204 572.829C541.204 572.829 544.167 588.116 551.785 588.116C559.403 588.116 558.416 572.829 558.416 572.829H541.204Z" fill="#DFA98B"/>
<path d="M539.158 607.322L535.384 625.257H566.703" stroke="#5B3100" stroke-width="0.44" stroke-linecap="round" stroke-linejoin="round"/>
<path fill-rule="evenodd" clip-rule="evenodd" d="M566.701 624.48C556.121 624.48 555.662 648.029 566.172 648.029H580.527V624.48H566.701Z" fill="#DFA98B"/>
<path d="M578.87 596.378L584.407 613.077" stroke="#5B3100" stroke-width="0.44" stroke-linecap="round" stroke-linejoin="round"/>
<path fill-rule="evenodd" clip-rule="evenodd" d="M639.781 615.16C639.781 612.876 638.875 610.685 637.261 609.069C635.647 607.453 633.458 606.546 631.175 606.546H589.134C586.857 606.564 584.679 607.478 583.069 609.089C581.459 610.701 580.547 612.881 580.528 615.16V670.519C580.528 672.814 591.109 679.169 593.402 679.169H631.175C633.465 679.164 635.66 678.25 637.277 676.627C638.876 674.996 639.775 672.804 639.781 670.519V615.16Z" fill="#687B8C"/>
<path fill-rule="evenodd" clip-rule="evenodd" d="M610.155 631.966C611.565 631.931 612.952 632.319 614.139 633.082C615.326 633.844 616.257 634.945 616.812 636.242C617.368 637.539 617.523 638.973 617.256 640.359C616.99 641.745 616.314 643.019 615.317 644.017C614.32 645.015 613.047 645.691 611.663 645.958C610.278 646.225 608.846 646.07 607.55 645.514C606.254 644.958 605.154 644.026 604.393 642.838C603.631 641.65 603.243 640.261 603.278 638.85C603.322 637.038 604.061 635.313 605.341 634.032C606.622 632.75 608.345 632.01 610.155 631.966Z" fill="#C3D1DE"/>
<path fill-rule="evenodd" clip-rule="evenodd" d="M574.992 669.46C574.992 669.46 574.075 650.924 580.529 648.947V658.868C580.529 658.868 588.571 654.596 592.733 652.937C596.895 651.277 603.525 651.242 605.818 655.797C608.11 660.351 607.193 669.495 602.714 672.567C598.235 675.638 593.403 679.169 593.403 679.169H592.272L574.992 669.46Z" fill="#DFA98B"/>
<path d="M613.893 691.565L576.648 671.299" stroke="#163BF3" stroke-width="0.44" stroke-linecap="round" stroke-linejoin="round"/>
<path fill-rule="evenodd" clip-rule="evenodd" d="M433.031 623.845C434.002 623.845 434.951 624.134 435.758 624.675C436.565 625.215 437.193 625.984 437.563 626.883C437.933 627.782 438.028 628.77 437.836 629.723C437.644 630.676 437.174 631.55 436.484 632.235C435.795 632.92 434.918 633.385 433.965 633.57C433.012 633.755 432.025 633.653 431.13 633.276C430.235 632.899 429.472 632.265 428.937 631.453C428.403 630.642 428.121 629.689 428.128 628.717C428.128 628.074 428.255 627.438 428.502 626.845C428.749 626.251 429.11 625.713 429.566 625.26C430.022 624.807 430.563 624.449 431.157 624.206C431.752 623.963 432.388 623.84 433.031 623.845Z" fill="#163BF3"/>
<path fill-rule="evenodd" clip-rule="evenodd" d="M819.62 623.846C820.591 623.846 821.541 624.134 822.348 624.675C823.155 625.216 823.783 625.985 824.153 626.883C824.523 627.782 824.618 628.771 824.426 629.724C824.234 630.677 823.764 631.551 823.074 632.236C822.385 632.921 821.508 633.385 820.555 633.571C819.602 633.756 818.615 633.654 817.72 633.277C816.825 632.9 816.061 632.266 815.527 631.454C814.992 630.642 814.711 629.69 814.718 628.718C814.727 627.422 815.248 626.183 816.166 625.271C817.085 624.358 818.326 623.846 819.62 623.846Z" fill="#163BF3"/>
<path fill-rule="evenodd" clip-rule="evenodd" d="M219.439 0C219.439 0 325.566 336.636 630.083 336.636C934.601 336.636 630.083 0 630.083 0H219.439Z" fill="#0089E3"/>
<path fill-rule="evenodd" clip-rule="evenodd" d="M1038.33 0C1038.33 0 932.201 336.636 627.719 336.636C323.237 336.636 627.719 0 627.719 0H1038.33Z" fill="#0089E3"/>
<path fill-rule="evenodd" clip-rule="evenodd" d="M541.203 58.8188C556.55 58.8188 571.552 63.3742 584.312 71.9089C597.072 80.4436 607.017 92.5742 612.89 106.767C618.763 120.96 620.3 136.577 617.306 151.644C614.312 166.71 606.922 180.55 596.07 191.413C585.218 202.275 571.393 209.673 556.341 212.67C541.29 215.667 525.688 214.129 511.51 208.25C497.332 202.371 485.213 192.416 476.687 179.643C468.161 166.87 463.61 151.853 463.61 136.491C463.61 115.891 471.785 96.1347 486.337 81.5684C500.888 67.0021 520.624 58.8188 541.203 58.8188Z" fill="#B9E2FE"/>
<mask id="mask0_463:22214" style="mask-type:alpha" maskUnits="userSpaceOnUse" x="458" y="76" width="170" height="131">
<path fill-rule="evenodd" clip-rule="evenodd" d="M492.424 76.1541C507.308 76.1541 516.266 100.444 516.266 112.271C516.266 124.099 492.424 128.759 492.424 141.681C492.424 154.603 513.586 153.049 513.586 168.301C513.586 183.553 499.69 204.771 499.69 204.771C499.69 204.771 458.283 178.257 458.283 136.244C458.283 94.2304 477.505 76.1541 492.424 76.1541Z" fill="#B9E2FE"/>
<path fill-rule="evenodd" clip-rule="evenodd" d="M602.077 88.2636C602.077 88.2636 567.125 82.403 562.822 93.5241C558.519 104.645 568.571 113.225 581.092 113.966C593.613 114.707 599.714 118.626 599.714 123.64C599.714 128.653 590.015 130.701 576.789 130.701C563.563 130.701 546.351 142.175 554.216 160.816C562.082 179.457 574.426 206.254 574.426 206.254C574.426 206.254 627.083 190.684 627.083 136.138C627.083 81.5909 602.077 88.2636 602.077 88.2636Z" fill="#B9E2FE"/>
</mask>
<g mask="url(#mask0_463:22214)">
<path fill-rule="evenodd" clip-rule="evenodd" d="M541.201 58.8188C556.547 58.8188 571.549 63.3742 584.309 71.9089C597.069 80.4436 607.014 92.5742 612.887 106.767C618.76 120.96 620.297 136.577 617.303 151.644C614.309 166.71 606.919 180.55 596.067 191.413C585.216 202.275 571.39 209.673 556.338 212.67C541.287 215.667 525.685 214.129 511.507 208.25C497.329 202.371 485.21 192.416 476.684 179.643C468.158 166.87 463.607 151.853 463.607 136.491C463.607 115.891 471.782 96.1347 486.334 81.5684C500.885 67.0021 520.622 58.8188 541.201 58.8188Z" fill="#163BF3"/>
</g>
<path fill-rule="evenodd" clip-rule="evenodd" d="M205.825 215.363C200.082 215.363 194.469 217.068 189.695 220.262C184.92 223.456 181.2 227.996 179.004 233.308C176.808 238.619 176.235 244.463 177.358 250.1C178.481 255.738 181.249 260.915 185.312 264.977C189.375 269.039 194.551 271.804 200.184 272.921C205.816 274.038 211.654 273.458 216.957 271.253C222.261 269.049 226.792 265.319 229.977 260.536C233.162 255.753 234.859 250.132 234.852 244.384C234.852 240.569 234.101 236.793 232.641 233.27C231.182 229.746 229.044 226.545 226.348 223.85C223.652 221.155 220.452 219.018 216.93 217.562C213.409 216.105 209.635 215.358 205.825 215.363Z" fill="#4FB3F6"/>
<path d="M216.229 233.863C180.219 197.71 146.184 172.996 140.365 178.892C134.545 184.788 159.163 218.893 195.279 254.975C231.395 291.057 265.607 315.806 271.32 309.981C277.034 304.156 252.522 270.051 216.229 233.863Z" stroke="#B9E2FE" stroke-width="0.89" stroke-linecap="round" stroke-linejoin="round"/>
<path d="M213.548 272.416C213.548 272.416 184.945 245.372 177.891 236.758" stroke="#4FB3F6" stroke-width="0.89" stroke-linecap="round" stroke-linejoin="round"/>
<path fill-rule="evenodd" clip-rule="evenodd" d="M358.93 371.412C362.887 371.405 366.757 372.573 370.05 374.768C373.343 376.964 375.912 380.088 377.431 383.745C378.95 387.402 379.351 391.428 378.584 395.314C377.816 399.199 375.914 402.769 373.119 405.572C370.323 408.376 366.76 410.286 362.88 411.061C359 411.836 354.977 411.442 351.321 409.928C347.665 408.414 344.539 405.848 342.34 402.555C340.142 399.262 338.968 395.391 338.968 391.43C338.968 386.127 341.07 381.041 344.813 377.288C348.555 373.534 353.633 371.421 358.93 371.412Z" fill="#4FB3F6"/>
<path fill-rule="evenodd" clip-rule="evenodd" d="M1077.79 167.136C1081.75 167.136 1085.62 168.311 1088.91 170.512C1092.2 172.713 1094.76 175.842 1096.27 179.501C1097.79 183.161 1098.18 187.188 1097.4 191.072C1096.63 194.956 1094.72 198.523 1091.92 201.321C1089.12 204.119 1085.56 206.023 1081.67 206.792C1077.79 207.56 1073.77 207.159 1070.12 205.638C1066.46 204.118 1063.34 201.546 1061.15 198.25C1058.96 194.953 1057.79 191.079 1057.8 187.119C1057.81 181.816 1059.92 176.733 1063.67 172.986C1067.41 169.24 1072.5 167.136 1077.79 167.136Z" fill="#4FB3F6"/>
<path d="M880.488 111.771C888.248 93.0182 879.351 71.5189 860.617 63.7512C841.884 55.9835 820.406 64.8888 812.646 83.6417C804.886 102.395 813.783 123.894 832.517 131.662C851.25 139.429 872.728 130.524 880.488 111.771Z" fill="#B9E2FE"/>
<path fill-rule="evenodd" clip-rule="evenodd" d="M380.974 94.8301C384.931 94.8231 388.801 95.9912 392.094 98.1866C395.387 100.382 397.956 103.506 399.475 107.163C400.994 110.82 401.395 114.846 400.627 118.732C399.86 122.617 397.958 126.188 395.163 128.991C392.367 131.794 388.804 133.704 384.924 134.479C381.044 135.254 377.021 134.86 373.365 133.346C369.709 131.832 366.583 129.266 364.384 125.973C362.185 122.681 361.012 118.809 361.012 114.848C361.012 109.545 363.114 104.459 366.856 100.706C370.599 96.9526 375.677 94.8395 380.974 94.8301Z" fill="#163BF3"/>
<path d="M380.974 94.8301C384.931 94.8231 388.801 95.9912 392.094 98.1866C395.387 100.382 397.956 103.506 399.475 107.163C400.994 110.82 401.395 114.846 400.627 118.732C399.86 122.617 397.958 126.188 395.163 128.991C392.367 131.794 388.804 133.704 384.924 134.479C381.044 135.254 377.021 134.86 373.365 133.346C369.709 131.832 366.583 129.266 364.384 125.973C362.185 122.681 361.012 118.809 361.012 114.848C361.012 109.545 363.114 104.459 366.856 100.706C370.599 96.9526 375.677 94.8395 380.974 94.8301V94.8301Z" stroke="#163BF3" stroke-width="0.89" stroke-linecap="round" stroke-linejoin="round"/>
<path d="M583.984 395.173H518.982V427.689H583.984V395.173Z" fill="#B9E2FE"/>
<path d="M535.242 411.449H518.982V427.724H535.242V411.449Z" fill="#163BF3"/>
<path d="M551.466 395.173H535.207V411.448H551.466V395.173Z" fill="#163BF3"/>
<path d="M567.726 411.449H551.467V427.724H567.726V411.449Z" fill="#163BF3"/>
<path d="M583.985 395.173H567.726V411.448H583.985V395.173Z" fill="#163BF3"/>
<path d="M692.722 395.173H627.72V427.689H692.722V395.173Z" fill="#B9E2FE"/>
<path d="M643.979 411.449H627.72V427.724H643.979V411.449Z" fill="#163BF3"/>
<path d="M660.204 395.173H643.944V411.448H660.204V395.173Z" fill="#163BF3"/>
<path d="M676.462 411.449H660.203V427.724H676.462V411.449Z" fill="#163BF3"/>
<path d="M692.722 395.173H676.463V411.448H692.722V395.173Z" fill="#163BF3"/>
<path fill-rule="evenodd" clip-rule="evenodd" d="M605.852 395.173C609.068 395.173 612.211 396.127 614.885 397.916C617.559 399.704 619.643 402.246 620.874 405.22C622.104 408.194 622.426 411.466 621.799 414.624C621.172 417.781 619.623 420.681 617.349 422.957C615.075 425.233 612.178 426.783 609.024 427.411C605.87 428.039 602.601 427.717 599.63 426.485C596.659 425.253 594.12 423.167 592.333 420.491C590.546 417.814 589.593 414.667 589.593 411.448C589.588 409.31 590.006 407.191 590.821 405.214C591.636 403.238 592.834 401.442 594.345 399.929C595.855 398.417 597.65 397.218 599.624 396.402C601.599 395.586 603.716 395.168 605.852 395.173Z" fill="#163BF3"/>
<path fill-rule="evenodd" clip-rule="evenodd" d="M605.853 404.67C607.192 404.67 608.501 405.068 609.615 405.813C610.729 406.557 611.597 407.616 612.109 408.855C612.622 410.093 612.756 411.456 612.494 412.771C612.233 414.086 611.588 415.294 610.641 416.242C609.694 417.19 608.488 417.836 607.174 418.097C605.86 418.359 604.499 418.224 603.261 417.711C602.024 417.198 600.966 416.33 600.222 415.215C599.478 414.1 599.081 412.789 599.081 411.449C599.081 409.651 599.794 407.927 601.064 406.656C602.334 405.384 604.057 404.67 605.853 404.67Z" fill="#B9E2FE"/>
<path d="M519.76 411.449H692.687" stroke="#B9E2FE" stroke-width="0.44" stroke-linecap="round" stroke-linejoin="round"/>
<path fill-rule="evenodd" clip-rule="evenodd" d="M306.203 485.555C307.026 485.555 307.831 485.799 308.515 486.257C309.2 486.714 309.733 487.365 310.048 488.126C310.363 488.888 310.445 489.725 310.285 490.533C310.124 491.342 309.728 492.084 309.146 492.666C308.564 493.249 307.822 493.646 307.015 493.807C306.208 493.967 305.371 493.885 304.61 493.57C303.85 493.254 303.2 492.72 302.743 492.035C302.285 491.35 302.041 490.545 302.041 489.721C302.036 489.172 302.141 488.628 302.348 488.121C302.556 487.613 302.862 487.152 303.25 486.764C303.637 486.376 304.098 486.07 304.605 485.862C305.112 485.654 305.655 485.55 306.203 485.555Z" fill="white"/>
<path fill-rule="evenodd" clip-rule="evenodd" d="M454.476 404.67C455.301 404.67 456.107 404.915 456.792 405.375C457.477 405.834 458.011 406.487 458.325 407.25C458.639 408.013 458.719 408.853 458.555 409.662C458.392 410.471 457.992 411.213 457.407 411.795C456.821 412.376 456.076 412.77 455.266 412.926C454.457 413.083 453.619 412.996 452.859 412.675C452.099 412.354 451.452 411.815 450.999 411.125C450.546 410.435 450.308 409.626 450.315 408.801C450.324 407.702 450.767 406.652 451.546 405.878C452.325 405.104 453.379 404.67 454.476 404.67Z" fill="white"/>
<path d="M463.329 441.564C464.517 441.564 465.481 440.6 465.481 439.41C465.481 438.221 464.517 437.257 463.329 437.257C462.141 437.257 461.178 438.221 461.178 439.41C461.178 440.6 462.141 441.564 463.329 441.564Z" fill="white"/>
<path fill-rule="evenodd" clip-rule="evenodd" d="M944.264 466.031C944.692 466.024 945.113 466.145 945.472 466.379C945.831 466.613 946.113 466.949 946.28 467.344C946.447 467.739 946.493 468.174 946.411 468.595C946.329 469.016 946.123 469.403 945.82 469.707C945.517 470.01 945.131 470.216 944.71 470.298C944.289 470.38 943.854 470.334 943.459 470.167C943.065 469.999 942.729 469.718 942.496 469.358C942.262 468.999 942.141 468.578 942.148 468.149C942.148 467.587 942.371 467.048 942.768 466.651C943.164 466.254 943.703 466.031 944.264 466.031Z" fill="white"/>
<path fill-rule="evenodd" clip-rule="evenodd" d="M1004.61 176.28C1004.89 176.28 1005.17 176.335 1005.43 176.443C1005.69 176.552 1005.93 176.71 1006.13 176.91C1006.33 177.11 1006.49 177.348 1006.6 177.609C1006.71 177.87 1006.76 178.15 1006.76 178.433C1006.76 178.859 1006.63 179.276 1006.4 179.63C1006.16 179.984 1005.83 180.26 1005.43 180.423C1005.04 180.586 1004.61 180.629 1004.19 180.545C1003.77 180.462 1003.39 180.257 1003.09 179.956C1002.79 179.655 1002.58 179.271 1002.5 178.853C1002.42 178.436 1002.46 178.003 1002.62 177.609C1002.78 177.215 1003.06 176.879 1003.41 176.642C1003.77 176.406 1004.18 176.28 1004.61 176.28Z" fill="white"/>
<path fill-rule="evenodd" clip-rule="evenodd" d="M1193.65 184.294C1194.08 184.294 1194.5 184.421 1194.85 184.66C1195.21 184.898 1195.48 185.236 1195.65 185.632C1195.81 186.027 1195.85 186.462 1195.76 186.881C1195.68 187.3 1195.47 187.683 1195.16 187.983C1194.86 188.283 1194.47 188.485 1194.05 188.564C1193.63 188.643 1193.2 188.595 1192.81 188.427C1192.41 188.259 1192.08 187.977 1191.85 187.618C1191.62 187.26 1191.5 186.84 1191.5 186.412C1191.5 186.131 1191.56 185.853 1191.67 185.593C1191.78 185.334 1191.94 185.099 1192.14 184.902C1192.34 184.705 1192.57 184.549 1192.83 184.445C1193.09 184.341 1193.37 184.289 1193.65 184.294Z" fill="white"/>
<path fill-rule="evenodd" clip-rule="evenodd" d="M1142.16 280.219C1142.73 280.219 1143.28 280.445 1143.68 280.849C1144.09 281.253 1144.31 281.801 1144.31 282.372C1144.35 282.676 1144.33 282.984 1144.24 283.277C1144.15 283.569 1144 283.84 1143.8 284.07C1143.59 284.299 1143.34 284.483 1143.07 284.61C1142.79 284.736 1142.49 284.801 1142.18 284.801C1141.87 284.801 1141.57 284.736 1141.29 284.61C1141.01 284.483 1140.77 284.299 1140.56 284.07C1140.36 283.84 1140.21 283.569 1140.12 283.277C1140.03 282.984 1140.01 282.676 1140.05 282.372C1140.04 282.091 1140.09 281.812 1140.2 281.551C1140.3 281.29 1140.46 281.052 1140.65 280.851C1140.85 280.651 1141.09 280.492 1141.34 280.383C1141.6 280.274 1141.88 280.218 1142.16 280.219Z" fill="white"/>
<path fill-rule="evenodd" clip-rule="evenodd" d="M273.402 372.613C273.828 372.613 274.244 372.739 274.598 372.976C274.952 373.212 275.227 373.549 275.39 373.942C275.553 374.336 275.595 374.769 275.512 375.187C275.429 375.604 275.225 375.988 274.924 376.289C274.623 376.59 274.239 376.796 273.822 376.879C273.405 376.962 272.972 376.919 272.579 376.756C272.186 376.593 271.85 376.317 271.614 375.963C271.377 375.609 271.251 375.192 271.251 374.766C271.251 374.195 271.478 373.647 271.881 373.244C272.285 372.84 272.832 372.613 273.402 372.613Z" fill="white"/>
<path d="M245.01 369.788C246.198 369.788 247.161 368.824 247.161 367.634C247.161 366.445 246.198 365.48 245.01 365.48C243.822 365.48 242.858 366.445 242.858 367.634C242.858 368.824 243.822 369.788 245.01 369.788Z" fill="white"/>
<path fill-rule="evenodd" clip-rule="evenodd" d="M256.542 429.454C257.113 429.454 257.66 429.681 258.063 430.085C258.467 430.489 258.694 431.037 258.694 431.608C258.694 432.179 258.467 432.727 258.063 433.131C257.66 433.535 257.113 433.762 256.542 433.762C255.971 433.762 255.424 433.535 255.021 433.131C254.617 432.727 254.391 432.179 254.391 431.608C254.391 431.037 254.617 430.489 255.021 430.085C255.424 429.681 255.971 429.454 256.542 429.454Z" fill="white"/>
<path fill-rule="evenodd" clip-rule="evenodd" d="M82.6293 152.307C83.0548 152.307 83.4708 152.434 83.8246 152.67C84.1784 152.907 84.4541 153.243 84.617 153.637C84.7798 154.03 84.8224 154.463 84.7394 154.881C84.6564 155.299 84.4515 155.683 84.1506 155.984C83.8497 156.285 83.4664 156.49 83.049 156.573C82.6317 156.656 82.1991 156.614 81.806 156.451C81.4128 156.288 81.0768 156.012 80.8404 155.658C80.604 155.303 80.4778 154.887 80.4778 154.461C80.4731 154.177 80.5255 153.895 80.6319 153.631C80.7383 153.368 80.8966 153.129 81.0974 152.928C81.2981 152.727 81.5372 152.568 81.8003 152.462C82.0635 152.355 82.3454 152.303 82.6293 152.307Z" fill="white"/>
<path fill-rule="evenodd" clip-rule="evenodd" d="M1012.62 142.527C1012.9 142.527 1013.18 142.583 1013.43 142.692C1013.69 142.801 1013.93 142.96 1014.13 143.16C1014.32 143.361 1014.48 143.598 1014.58 143.86C1014.69 144.121 1014.74 144.4 1014.73 144.681C1014.73 145.108 1014.61 145.526 1014.37 145.881C1014.13 146.236 1013.79 146.512 1013.4 146.674C1013 146.836 1012.57 146.876 1012.15 146.79C1011.73 146.704 1011.35 146.496 1011.05 146.191C1010.75 145.886 1010.55 145.499 1010.47 145.079C1010.39 144.659 1010.44 144.225 1010.6 143.832C1010.77 143.439 1011.05 143.105 1011.41 142.873C1011.77 142.641 1012.19 142.52 1012.62 142.527Z" fill="white"/>
<path fill-rule="evenodd" clip-rule="evenodd" d="M775.675 381.474C776.245 381.474 776.793 381.701 777.196 382.105C777.6 382.509 777.826 383.057 777.826 383.628C777.826 384.199 777.6 384.747 777.196 385.151C776.793 385.554 776.245 385.781 775.675 385.781C775.104 385.781 774.557 385.554 774.154 385.151C773.75 384.747 773.523 384.199 773.523 383.628C773.523 383.057 773.75 382.509 774.154 382.105C774.557 381.701 775.104 381.474 775.675 381.474Z" fill="white"/>
<path fill-rule="evenodd" clip-rule="evenodd" d="M920.88 481.495C921.306 481.495 921.721 481.621 922.075 481.858C922.429 482.094 922.705 482.431 922.868 482.824C923.031 483.218 923.073 483.651 922.99 484.068C922.907 484.486 922.702 484.87 922.401 485.171C922.1 485.472 921.717 485.677 921.3 485.76C920.882 485.844 920.45 485.801 920.057 485.638C919.663 485.475 919.328 485.199 919.091 484.845C918.855 484.491 918.729 484.074 918.729 483.648C918.729 483.077 918.955 482.529 919.359 482.125C919.762 481.722 920.309 481.495 920.88 481.495Z" fill="white"/>
<path d="M199.872 112.309C199.877 110.009 198.019 108.139 195.72 108.133C193.422 108.128 191.554 109.988 191.548 112.289C191.543 114.59 193.401 116.46 195.7 116.465C197.998 116.471 199.866 114.61 199.872 112.309Z" fill="white"/>
<path d="M102.174 282.396C102.401 280.106 100.73 278.066 98.4425 277.84C96.1552 277.613 94.1175 279.286 93.8912 281.575C93.6649 283.865 95.3357 285.905 97.623 286.131C99.9104 286.358 101.948 284.685 102.174 282.396Z" fill="white"/>
<path d="M953.788 535.97C956.086 535.97 957.95 534.105 957.95 531.804C957.95 529.503 956.086 527.638 953.788 527.638C951.489 527.638 949.626 529.503 949.626 531.804C949.626 534.105 951.489 535.97 953.788 535.97Z" fill="white"/>
<path fill-rule="evenodd" clip-rule="evenodd" d="M991.065 235.381C991.888 235.381 992.693 235.625 993.377 236.083C994.062 236.541 994.595 237.191 994.91 237.953C995.225 238.714 995.308 239.551 995.147 240.36C994.986 241.168 994.59 241.91 994.008 242.493C993.426 243.075 992.684 243.472 991.877 243.633C991.07 243.794 990.233 243.711 989.473 243.396C988.712 243.08 988.062 242.546 987.605 241.861C987.148 241.176 986.903 240.371 986.903 239.547C986.899 238.998 987.003 238.455 987.211 237.947C987.418 237.439 987.724 236.978 988.112 236.59C988.499 236.203 988.96 235.896 989.467 235.688C989.974 235.481 990.517 235.376 991.065 235.381Z" fill="white"/>
<path fill-rule="evenodd" clip-rule="evenodd" d="M1106.43 93.2765C1107.26 93.2765 1108.07 93.5218 1108.75 93.9811C1109.44 94.4405 1109.97 95.0932 1110.28 95.8565C1110.6 96.6198 1110.68 97.4593 1110.51 98.2684C1110.35 99.0775 1109.95 99.8197 1109.36 100.401C1108.78 100.982 1108.03 101.376 1107.22 101.533C1106.41 101.69 1105.58 101.602 1104.82 101.281C1104.06 100.96 1103.41 100.421 1102.96 99.7313C1102.5 99.0416 1102.27 98.2327 1102.27 97.4072C1102.27 96.8618 1102.38 96.3218 1102.59 95.8183C1102.8 95.3148 1103.11 94.8579 1103.49 94.4738C1103.88 94.0898 1104.34 93.7863 1104.84 93.5808C1105.35 93.3753 1105.89 93.2719 1106.43 93.2765Z" fill="white"/>
<path fill-rule="evenodd" clip-rule="evenodd" d="M554.466 478.776C555.289 478.776 556.093 479.02 556.778 479.478C557.462 479.936 557.996 480.587 558.311 481.348C558.626 482.109 558.708 482.947 558.548 483.755C558.387 484.563 557.991 485.305 557.409 485.888C556.827 486.471 556.085 486.867 555.278 487.028C554.47 487.189 553.634 487.106 552.873 486.791C552.113 486.476 551.463 485.942 551.005 485.257C550.548 484.571 550.304 483.766 550.304 482.942C550.299 482.394 550.404 481.85 550.611 481.342C550.819 480.835 551.125 480.374 551.512 479.986C551.9 479.598 552.36 479.291 552.867 479.084C553.375 478.876 553.918 478.771 554.466 478.776Z" fill="white"/>
<path d="M794.723 197.92L766.122 226.559L917.555 378.093L946.156 349.454L794.723 197.92Z" fill="#163BF3"/>
<path fill-rule="evenodd" clip-rule="evenodd" d="M856.195 259.424C846.24 268.998 834.806 276.902 822.336 282.831L917.564 378.156L946.309 349.523L856.195 259.424Z" fill="#4FB3F6"/>
<path d="M873.941 334.496L859.673 348.774L892.612 381.758L906.88 367.48L873.941 334.496Z" fill="#B9E2FE"/>
<path d="M916.844 291.614L902.579 305.894L935.524 338.872L949.789 324.592L916.844 291.614Z" fill="#B9E2FE"/>
<path fill-rule="evenodd" clip-rule="evenodd" d="M960.454 363.786L931.85 392.454L924.726 370.988L939.045 356.69L960.454 363.786Z" fill="#B9E2FE"/>
<path fill-rule="evenodd" clip-rule="evenodd" d="M794.651 197.957L766.048 226.59L738.29 186.695C736.914 184.67 736.281 182.229 736.499 179.79C736.718 177.35 737.775 175.061 739.489 173.314L741.394 171.372C743.144 169.661 745.432 168.61 747.87 168.397C750.307 168.185 752.742 168.824 754.761 170.207L794.651 197.957Z" fill="#B9E2FE"/>
<path fill-rule="evenodd" clip-rule="evenodd" d="M815.072 246.89C816.183 245.783 817.597 245.031 819.136 244.727C820.674 244.424 822.268 244.584 823.715 245.186C825.163 245.789 826.4 246.807 827.27 248.112C828.14 249.418 828.605 250.952 828.605 252.521C828.605 254.091 828.14 255.625 827.27 256.93C826.4 258.236 825.163 259.254 823.715 259.857C822.268 260.459 820.674 260.619 819.136 260.315C817.597 260.012 816.183 259.26 815.072 258.153C813.584 256.657 812.748 254.632 812.748 252.521C812.748 250.41 813.584 248.386 815.072 246.89Z" fill="#4FB3F6"/>
<path fill-rule="evenodd" clip-rule="evenodd" d="M844.029 457.698C836.654 457.754 829.599 460.724 824.401 465.961C819.202 471.197 816.281 478.278 816.271 485.66C816.262 478.247 813.316 471.14 808.08 465.899C802.843 460.657 795.743 457.708 788.338 457.698C795.74 457.698 802.84 454.757 808.077 449.521C813.315 444.285 816.262 437.182 816.271 429.772C816.336 437.148 819.307 444.201 824.538 449.397C829.768 454.593 836.836 457.513 844.205 457.522L844.029 457.698Z" fill="white"/>
<path fill-rule="evenodd" clip-rule="evenodd" d="M372.79 294.482C368.67 294.537 364.737 296.212 361.84 299.145C358.944 302.078 357.315 306.033 357.306 310.157C357.306 306 355.656 302.013 352.72 299.073C349.783 296.133 345.8 294.482 341.646 294.482C345.781 294.482 349.749 292.845 352.682 289.928C355.616 287.011 357.278 283.051 357.306 278.912C357.334 283.051 358.996 287.011 361.93 289.928C364.864 292.845 368.831 294.482 372.966 294.482H372.79Z" fill="white"/>
<path fill-rule="evenodd" clip-rule="evenodd" d="M1069.75 302.849C1065.62 302.877 1061.66 304.541 1058.75 307.478C1055.83 310.414 1054.2 314.386 1054.2 318.525C1054.2 314.367 1052.55 310.38 1049.61 307.44C1046.68 304.501 1042.69 302.849 1038.54 302.849C1042.69 302.849 1046.68 301.198 1049.61 298.258C1052.55 295.318 1054.2 291.331 1054.2 287.174C1054.23 291.313 1055.89 295.273 1058.82 298.19C1061.76 301.106 1065.72 302.743 1069.86 302.743L1069.75 302.849Z" fill="white"/>
<path fill-rule="evenodd" clip-rule="evenodd" d="M778.145 659.645C778.837 659.645 779.501 659.921 779.991 660.411C780.48 660.9 780.755 661.565 780.755 662.258C780.755 662.951 780.48 663.615 779.991 664.105C779.501 664.595 778.837 664.87 778.145 664.87C777.453 664.87 776.789 664.595 776.3 664.105C775.81 663.615 775.535 662.951 775.535 662.258C775.535 661.565 775.81 660.9 776.3 660.411C776.789 659.921 777.453 659.645 778.145 659.645Z" fill="#5B3100"/>
<path fill-rule="evenodd" clip-rule="evenodd" d="M773.03 653.149C773.422 653.149 773.799 653.305 774.077 653.583C774.355 653.861 774.511 654.238 774.511 654.632C774.511 655.025 774.355 655.402 774.077 655.68C773.799 655.958 773.422 656.115 773.03 656.115C772.637 656.115 772.26 655.958 771.982 655.68C771.704 655.402 771.548 655.025 771.548 654.632C771.543 654.436 771.578 654.241 771.651 654.059C771.724 653.876 771.833 653.711 771.971 653.572C772.11 653.434 772.275 653.325 772.457 653.252C772.639 653.179 772.834 653.144 773.03 653.149Z" fill="#5B3100"/>
<path fill-rule="evenodd" clip-rule="evenodd" d="M786.116 658.127C786.409 658.127 786.695 658.214 786.939 658.377C787.183 658.54 787.372 658.771 787.485 659.042C787.597 659.313 787.626 659.611 787.569 659.899C787.512 660.186 787.371 660.451 787.163 660.658C786.956 660.865 786.692 661.007 786.405 661.064C786.118 661.121 785.82 661.092 785.549 660.98C785.279 660.867 785.047 660.677 784.884 660.433C784.722 660.189 784.635 659.903 784.635 659.61C784.635 659.216 784.791 658.839 785.069 658.561C785.346 658.283 785.723 658.127 786.116 658.127Z" fill="#5B3100"/>
<path d="M535.384 625.258H530.341" stroke="#5B3100" stroke-width="0.44" stroke-linecap="round" stroke-linejoin="round"/>
<path fill-rule="evenodd" clip-rule="evenodd" d="M680.059 627.375H646.13C645.166 627.375 644.242 627.759 643.561 628.441C642.88 629.123 642.497 630.047 642.497 631.012C642.497 631.976 642.88 632.901 643.561 633.583C644.242 634.265 645.166 634.648 646.13 634.648H654.947C654.947 634.648 652.866 653.254 663.482 657.809C674.733 662.575 687.113 630.941 680.059 627.375Z" fill="#DFA98B"/>
</svg>
