<svg width="2201" height="636" viewBox="0 0 2201 636" fill="none" xmlns="http://www.w3.org/2000/svg">
<g clip-path="url(#clip0_459:21325)">
<path fill-rule="evenodd" clip-rule="evenodd" d="M1878.7 122.76H1952.65C1952.65 122.76 1936.84 105.21 1927.34 105.61C1917.84 106.01 1914.27 98.48 1899.23 98.48C1884.18 98.48 1878.7 122.76 1878.7 122.76Z" fill="white"/>
<path fill-rule="evenodd" clip-rule="evenodd" d="M588.609 106.47H662.559C662.559 106.47 646.749 88.9199 637.249 89.3199C627.749 89.7199 624.179 82.1899 609.139 82.1899C594.089 82.1899 588.609 106.47 588.609 106.47Z" fill="white"/>
<path fill-rule="evenodd" clip-rule="evenodd" d="M1716.75 323H1844.8C1858.77 323 1858.19 289.17 1842.47 289.17C1826.76 289.17 1823.77 268.92 1798.24 272.74C1786.11 274.56 1778.06 296.7 1760.87 298.25C1725.26 301.46 1713.18 314.2 1716.75 323Z" fill="white"/>
<path fill-rule="evenodd" clip-rule="evenodd" d="M99.1179 235.88H311.768C334.968 235.88 333.998 202.05 307.898 202.05C281.798 202.05 276.828 181.8 234.438 185.62C214.288 187.44 200.928 209.58 172.388 211.13C113.248 214.34 93.1779 227.08 99.1179 235.88Z" fill="white"/>
<path fill-rule="evenodd" clip-rule="evenodd" d="M2008.41 413.47H2201.42C2201.42 413.47 2181 391.16 2157.78 391.16C2134.55 391.16 2115.55 394.54 2101.61 394.54C2087.67 394.54 2076.69 375.96 2050.93 375.96C2025.17 375.96 1995.02 396.93 2008.41 413.47Z" fill="white"/>
<path fill-rule="evenodd" clip-rule="evenodd" d="M3.25863 432.23H196.269C196.269 432.23 175.849 409.92 152.629 409.92C129.399 409.92 110.399 413.3 96.4586 413.3C82.5186 413.3 71.5386 394.72 45.7786 394.72C20.0186 394.71 -10.1214 415.68 3.25863 432.23Z" fill="white"/>
<path fill-rule="evenodd" clip-rule="evenodd" d="M1327.99 72.5H1521C1521 72.5 1500.58 50.19 1477.36 50.19C1454.13 50.19 1435.13 53.57 1421.19 53.57C1407.26 53.57 1396.28 34.99 1370.52 34.99C1344.75 34.98 1314.61 55.95 1327.99 72.5Z" fill="white"/>
<path d="M128.758 636.47H889.868" stroke="#FFC7BF" stroke-width="3" stroke-miterlimit="10" stroke-linecap="round" stroke-linejoin="round"/>
<path d="M1280.22 636.47H2041.32" stroke="#B9E2FE" stroke-width="3" stroke-miterlimit="10" stroke-linecap="round" stroke-linejoin="round"/>
<path fill-rule="evenodd" clip-rule="evenodd" d="M1053.64 85.77C1228.84 85.77 1416.38 226.47 1468.2 460.88C1177.02 586.71 569.98 548.68 569.98 548.68C569.98 548.68 651.41 85.77 1053.64 85.77Z" fill="#60D399"/>
<path fill-rule="evenodd" clip-rule="evenodd" d="M1089.33 173.88C1089.33 173.88 1091.01 170.45 1096.05 170.45C1101.1 170.45 1106.27 173.56 1105.72 180C1110.56 182.95 1113.22 194.53 1107.02 195.28C1100.83 196.04 1094.31 183.55 1094.31 183.55L1089.33 173.88Z" fill="#FF341A"/>
<path fill-rule="evenodd" clip-rule="evenodd" d="M1093.76 172.63C1098.42 172.63 1102.21 176.42 1102.21 181.08C1102.21 185.74 1098.42 189.53 1093.76 189.53C1089.1 189.53 1085.31 185.75 1085.31 181.08C1085.31 176.41 1089.1 172.63 1093.76 172.63Z" fill="#FEDD8E"/>
<path fill-rule="evenodd" clip-rule="evenodd" d="M1099.09 187.85C1095.89 188.77 1093.79 192.59 1090.46 198.5C1084.46 209.15 1098.72 216.08 1095.04 237.4C1102.97 239.47 1111.24 239.88 1120.11 237.4C1119.43 222.15 1112.11 200.34 1107.32 191.8C1105.18 188.01 1102.4 186.9 1099.09 187.85Z" fill="#0089E3"/>
<path fill-rule="evenodd" clip-rule="evenodd" d="M1098.44 228.75C1098.44 228.75 1108.2 229.05 1110.16 229.05C1112.12 229.05 1114.4 227.59 1114.02 224.11C1113.64 220.63 1108.78 200.19 1108.78 200.19L1098.44 228.75Z" fill="black"/>
<path fill-rule="evenodd" clip-rule="evenodd" d="M1087.84 225.9C1090.28 225.9 1092.26 227.88 1092.26 230.32C1092.26 232.76 1090.28 234.74 1087.84 234.74C1085.4 234.74 1083.42 232.76 1083.42 230.32C1083.42 227.88 1085.4 225.9 1087.84 225.9Z" fill="white"/>
<path fill-rule="evenodd" clip-rule="evenodd" d="M1120.1 237.41C1121.01 246.33 1120.82 289.4 1120.82 289.4H1072.2C1079.69 273.45 1086.53 257.85 1095.04 237.41H1120.1Z" fill="#0089E3"/>
<path fill-rule="evenodd" clip-rule="evenodd" d="M1099.39 187.8C1093.31 188.63 1091.7 195.29 1094.35 202.92C1095.34 205.76 1100.59 218.27 1100.59 218.27L1088.27 221.95L1088.92 230.17C1088.92 230.17 1096.97 229.02 1109.34 227.08C1113.17 226.48 1113.19 223.13 1112.01 217.06C1110.62 209.91 1109.56 203.68 1108.98 201.1C1107.23 193.21 1105.47 186.98 1099.39 187.8Z" fill="#163BF3"/>
<path fill-rule="evenodd" clip-rule="evenodd" d="M1086.62 176.56C1085.89 177.59 1083.99 177.76 1082.86 177.92C1081.72 178.08 1081.62 178.84 1082.54 179.16C1083.46 179.49 1085.39 179.99 1085.39 179.99C1085.39 179.99 1087.35 175.53 1086.62 176.56Z" fill="#FEDD8E"/>
<path fill-rule="evenodd" clip-rule="evenodd" d="M1089.33 173.88L1093.23 176.41V181.08H1093.76C1093.76 181.08 1093.7 179.13 1095.23 179.13C1096.76 179.13 1097.04 180.43 1097.04 181.08C1097.04 181.73 1097.34 185.51 1099.99 186.79C1103.19 186.79 1103.75 184.97 1103.75 184.97L1102.5 176.73C1100.35 174.07 1097.58 172.11 1093.77 171.3L1089.33 173.88Z" fill="#FF341A"/>
<path fill-rule="evenodd" clip-rule="evenodd" d="M1088.27 221.95C1085.26 222.89 1082.59 224.52 1082.1 227.4C1081.61 230.28 1082.1 232.67 1083.24 232.78C1084.38 232.89 1083.72 230.44 1085.36 230.17C1086.99 229.9 1088.89 229.69 1088.89 229.69C1088.89 229.69 1088.27 223.35 1088.27 221.95Z" fill="#FEDD8E"/>
<path fill-rule="evenodd" clip-rule="evenodd" d="M1072.2 289.4L1063.33 310L1075.82 313.25L1088.72 289.4H1072.2Z" fill="#163BF3"/>
<path fill-rule="evenodd" clip-rule="evenodd" d="M1120.82 289.4L1120.83 327.27L1109.15 324.09L1105.67 289.4H1120.82Z" fill="#163BF3"/>
<path fill-rule="evenodd" clip-rule="evenodd" d="M1072.2 289.4L1070.56 293.2H1086.66L1088.72 289.4H1072.2Z" fill="black"/>
<path fill-rule="evenodd" clip-rule="evenodd" d="M1105.67 289.4L1106.05 293.2H1120.83V289.4H1105.67Z" fill="black"/>
<path fill-rule="evenodd" clip-rule="evenodd" d="M548.83 176.81C542.35 176.81 537.08 182.08 537.08 188.56C537.08 195.05 542.35 200.31 548.83 200.31C555.32 200.31 560.58 195.05 560.58 188.56C560.59 182.07 555.32 176.81 548.83 176.81Z" fill="#FF341A"/>
<path fill-rule="evenodd" clip-rule="evenodd" d="M558.771 182.28C559.791 183.72 562.42 183.94 564 184.17C565.58 184.4 565.73 185.45 564.45 185.9C563.18 186.35 560.49 187.05 560.49 187.05C560.49 187.05 557.751 180.85 558.771 182.28Z" fill="#FF341A"/>
<path d="M584.479 222.27C588.274 222.27 591.349 219.194 591.349 215.4C591.349 211.606 588.274 208.53 584.479 208.53C580.685 208.53 577.609 211.606 577.609 215.4C577.609 219.194 580.685 222.27 584.479 222.27Z" fill="white"/>
<path fill-rule="evenodd" clip-rule="evenodd" d="M554.609 178.32L548.829 184.62C548.829 184.62 547.689 183.03 545.679 183.84C543.659 184.64 544.129 186.53 545.139 187.67C546.149 188.81 547.819 193.63 543.219 198.88C537.549 195.46 534.799 188.7 539.169 181.87C545.059 172.67 554.609 178.32 554.609 178.32Z" fill="#8D1A00"/>
<path fill-rule="evenodd" clip-rule="evenodd" d="M548.831 200.31C560.021 203.44 565.301 253.46 565.301 253.46H521.141C521.141 241.29 528.041 232.89 530.081 218.29C532.151 203.62 536.651 196.91 548.831 200.31Z" fill="#0089E3"/>
<path fill-rule="evenodd" clip-rule="evenodd" d="M537.061 213.27C537.061 213.27 546.491 241.85 548.161 245.64C549.821 249.44 556.001 248.25 557.421 247.3C558.851 246.35 560.461 243.42 560.461 243.42L537.061 213.27Z" fill="black"/>
<path fill-rule="evenodd" clip-rule="evenodd" d="M546.56 303.38L528.85 378.19L509.57 377.99L521.15 259.73L546.56 303.38Z" fill="#163BF3"/>
<path fill-rule="evenodd" clip-rule="evenodd" d="M546.56 303.38L536.28 346.8L523.09 271.73L546.56 303.38Z" fill="black"/>
<path fill-rule="evenodd" clip-rule="evenodd" d="M521.15 253.46C521.15 258.9 517.15 268.04 519.12 274.81C520.79 280.54 527.81 283.54 534.01 291.85C541.5 301.89 563.2 378.19 563.2 378.19H582.74L565.32 267.35V253.46H521.15Z" fill="#24A865"/>
<path fill-rule="evenodd" clip-rule="evenodd" d="M545.96 199.75C541.14 199.75 534.29 203.28 537.08 213.35C539.88 223.43 546.98 235.18 548.83 239.59C550.68 244 556.14 246.39 563.75 241.83C571.36 237.28 584.48 228.88 584.48 228.88L580.39 220.8L559.71 226.56C559.71 226.56 554.36 212.09 553.31 208C552.26 203.9 550.78 199.75 545.96 199.75Z" fill="#163BF3"/>
<path fill-rule="evenodd" clip-rule="evenodd" d="M580.391 220.8C580.701 219.9 581.701 218.35 583.491 218.18C585.281 218.01 585.831 215.8 586.891 215.74C587.961 215.67 587.511 217.22 587.101 217.91C586.691 218.6 585.481 224.52 582.691 225.36C581.491 223.02 580.971 221.98 580.391 220.8Z" fill="#FF341A"/>
<path fill-rule="evenodd" clip-rule="evenodd" d="M585.999 221L590.379 218.9C590.379 218.9 590.419 221.18 589.359 222.01C588.289 222.84 586.569 226.3 582.889 226.45C582.169 224.43 581.459 222.94 581.459 222.94L585.999 221Z" fill="#FF341A"/>
<path fill-rule="evenodd" clip-rule="evenodd" d="M560.589 188.56C558.609 188.56 557.139 186.47 555.379 187.46C553.619 188.45 557.399 192.28 559.999 192.23C560.449 190.93 560.629 189.91 560.589 188.56Z" fill="white"/>
<path fill-rule="evenodd" clip-rule="evenodd" d="M563.199 378.19L570.679 404.23L608.279 416.12C608.279 416.12 587.989 397.71 585.939 391.36C583.889 385.01 582.739 378.19 582.739 378.19H563.199Z" fill="#0089E3"/>
<path fill-rule="evenodd" clip-rule="evenodd" d="M509.08 378.19L505.34 403.36H540.84C540.84 403.36 525.28 397.72 526.03 391.36C526.78 385.01 528.63 378.19 528.63 378.19H509.08Z" fill="#60D399"/>
<path fill-rule="evenodd" clip-rule="evenodd" d="M778.789 491.84C778.789 491.84 810.819 261.49 1035.36 303.92C1201.71 335.36 1263.53 428.66 1331.75 428.66C1399.97 428.66 1509.89 304.76 1699.41 518.32C1618.55 599.22 1466.94 596.69 1466.94 596.69C1210.15 613.14 953.749 628.84 778.789 491.84Z" fill="#FEDD8E"/>
<path fill-rule="evenodd" clip-rule="evenodd" d="M1488.93 284.1C1493.6 284.1 1497.38 287.89 1497.38 292.55C1497.38 297.22 1493.6 301 1488.93 301C1484.27 301 1480.48 297.22 1480.48 292.55C1480.48 287.89 1484.27 284.1 1488.93 284.1Z" fill="white"/>
<path fill-rule="evenodd" clip-rule="evenodd" d="M1514.32 285.62C1518.98 285.62 1522.77 289.41 1522.77 294.07C1522.77 298.73 1518.98 302.52 1514.32 302.52C1509.66 302.52 1505.87 298.73 1505.87 294.07C1505.87 289.41 1509.65 285.62 1514.32 285.62Z" fill="white"/>
<path fill-rule="evenodd" clip-rule="evenodd" d="M1503.2 275.9C1507.87 275.9 1511.65 279.69 1511.65 284.35C1511.65 289.01 1507.87 292.8 1503.2 292.8C1498.54 292.8 1494.75 289.01 1494.75 284.35C1494.75 279.69 1498.54 275.9 1503.2 275.9Z" fill="white"/>
<path fill-rule="evenodd" clip-rule="evenodd" d="M1502.79 282.72L1513.13 290.23L1509.18 302.39H1496.4L1492.45 290.23L1502.79 282.72Z" fill="#FBBE2E"/>
<path fill-rule="evenodd" clip-rule="evenodd" d="M1482.49 297.5H1522.12C1522.12 297.5 1525.77 311.51 1530.75 325.76C1535.73 340 1527.1 360.9 1509.17 361.85C1491.24 362.8 1476.97 337.16 1476.97 337.16L1482.49 297.5Z" fill="#B9E2FE"/>
<path fill-rule="evenodd" clip-rule="evenodd" d="M1443.47 278.31C1443.47 278.31 1445.17 274.89 1451.66 274.73C1458.15 274.57 1464.25 275.93 1470.66 283.95C1476.51 282.91 1487.07 286.35 1485.52 299.46C1473.54 305.43 1452.79 294.85 1452.79 294.85L1443.47 278.31Z" fill="#5B3100"/>
<path fill-rule="evenodd" clip-rule="evenodd" d="M1462.03 361.87H1507.15C1507.15 361.87 1519.31 375.21 1521.67 383.45C1524.02 391.69 1520.88 402.28 1526.77 415.23C1532.66 428.18 1571.89 523.13 1571.89 523.13L1548.35 532.55L1489.18 413.27L1436.13 534.12L1412.59 524.7L1465.56 379.92L1462.03 361.87Z" fill="#B9E2FE"/>
<path fill-rule="evenodd" clip-rule="evenodd" d="M1507.16 361.87C1501.26 346.54 1489.2 310.12 1486.19 300.83C1483.18 291.54 1479.16 289.28 1470.87 289.28C1462.58 289.28 1445.26 296.81 1450.03 313.39C1454.8 329.96 1462.03 361.87 1462.03 361.87H1507.16Z" fill="#163BF3"/>
<path fill-rule="evenodd" clip-rule="evenodd" d="M1507.16 361.87C1501.26 346.54 1489.2 310.12 1486.19 300.83C1483.18 291.54 1463.06 308.32 1463.06 308.32L1470.81 328.7L1465.86 346.17C1465.86 346.17 1468.17 354.18 1479.84 358.8C1486.58 361.47 1502.7 361.87 1507.16 361.87Z" fill="black"/>
<path fill-rule="evenodd" clip-rule="evenodd" d="M1470.9 290.92C1463.66 292.47 1458.51 301.52 1464 310.02C1469.48 318.52 1478.18 332.79 1478.18 332.79L1456.87 321L1447 335.26C1447 335.26 1467.02 346.78 1475.25 351.72C1483.48 356.66 1506.52 348.65 1498.84 330.6C1491.66 313.74 1489.63 307.9 1486.14 300.7C1482.63 293.45 1477.72 289.45 1470.9 290.92Z" fill="#0089E3"/>
<path d="M1478.18 332.78L1487.15 337.74" stroke="#163BF3" stroke-width="2.0833" stroke-miterlimit="10" stroke-linecap="round" stroke-linejoin="round"/>
<path fill-rule="evenodd" clip-rule="evenodd" d="M1449.12 276.87C1455.6 276.87 1460.87 282.14 1460.87 288.62C1460.87 295.1 1455.6 300.37 1449.12 300.37C1442.63 300.37 1437.37 295.1 1437.37 288.62C1437.36 282.13 1442.63 276.87 1449.12 276.87Z" fill="#8D1A00"/>
<path fill-rule="evenodd" clip-rule="evenodd" d="M1439.18 282.34C1438.16 283.78 1435.53 284.01 1433.95 284.23C1432.37 284.46 1432.22 285.5 1433.5 285.96C1434.78 286.41 1437.46 287.11 1437.46 287.11C1437.46 287.11 1440.2 280.9 1439.18 282.34Z" fill="#8D1A00"/>
<path fill-rule="evenodd" clip-rule="evenodd" d="M1443.47 278.31C1443.47 278.31 1449.12 280.13 1449.12 286.06C1449.12 282.23 1451.01 282.86 1451.54 282.86C1452.08 282.86 1453.93 283.93 1453.93 286.71C1453.93 289.49 1455.68 292.91 1459.55 294.02C1463.67 291.77 1469.9 289.28 1469.9 289.28L1456.87 276.86C1451.74 275.35 1447.17 275.55 1443.47 278.31Z" fill="#5B3100"/>
<path fill-rule="evenodd" clip-rule="evenodd" d="M1441.77 282.12C1442.11 282.12 1442.39 282.4 1442.39 282.74C1442.39 283.08 1442.11 283.36 1441.77 283.36C1441.42 283.36 1441.15 283.08 1441.15 282.74C1441.14 282.4 1441.42 282.12 1441.77 282.12Z" fill="#5B3100"/>
<path fill-rule="evenodd" clip-rule="evenodd" d="M1437.4 289.62C1438.31 289.62 1440.8 286.81 1442.38 287.91C1443.96 289.01 1440.18 291.97 1437.85 292C1437.54 290.84 1437.41 290.27 1437.4 289.62Z" fill="#D9F0FF"/>
<path fill-rule="evenodd" clip-rule="evenodd" d="M1518.08 178.8C1536.29 187.45 1546.44 211.05 1564.58 219.83C1582.73 228.62 1613.24 212.23 1634.22 221.59C1626.57 237.46 1609.84 281.98 1609.56 281.98C1593.4 273.75 1554.17 281.92 1540.1 275.68C1526.03 269.44 1508.46 240.87 1491.19 232.38C1496.32 221.62 1512.31 190.75 1518.08 178.8Z" fill="#00672E"/>
<path d="M1406.98 400.2L1518.08 178.8" stroke="#0089E3" stroke-width="2.0833" stroke-miterlimit="10" stroke-linecap="round" stroke-linejoin="round"/>
<path fill-rule="evenodd" clip-rule="evenodd" d="M1568.97 516.06L1544.79 525.36C1544.79 525.36 1527.13 543.76 1525.56 546.11C1547.4 544.3 1583.13 540.15 1581.34 533.59C1579.55 527.03 1572.68 524.34 1568.97 516.06Z" fill="#163BF3"/>
<path fill-rule="evenodd" clip-rule="evenodd" d="M1442.44 519.79L1418.77 509.26C1418.77 509.26 1393.27 509.78 1390.49 510.33C1407.22 524.49 1435.42 546.82 1438.79 540.92C1442.16 535.03 1439.22 528.27 1442.44 519.79Z" fill="#163BF3"/>
<path fill-rule="evenodd" clip-rule="evenodd" d="M1456.87 320.99C1452.95 319 1447.48 315.39 1446.64 316.8C1445.8 318.21 1447.29 320.01 1447.29 320.01C1447.29 320.01 1445.13 319.9 1443.46 320.01C1441.8 320.12 1440.88 320.79 1440.05 322.54C1439.22 324.29 1435.55 330.11 1438.47 331.28C1441.38 332.45 1447 335.25 1447 335.25C1447 335.25 1455.22 324.47 1456.87 320.99Z" fill="#8D1A00"/>
<path d="M1450.05 314.38L1447.42 319.61" stroke="#0089E3" stroke-width="2.0833" stroke-miterlimit="10" stroke-linecap="round" stroke-linejoin="round"/>
<path fill-rule="evenodd" clip-rule="evenodd" d="M1489.18 413.27L1480.28 395.32L1481.88 429.9L1489.18 413.27Z" fill="black"/>
<path fill-rule="evenodd" clip-rule="evenodd" d="M906.74 636.47H1860.63C1860.63 636.47 1791.14 501.31 1709.02 501.31C1626.89 501.31 1586.47 546.79 1509.4 546.79C1432.33 546.79 1365.37 460.88 1257.98 460.88C1150.58 460.88 906.74 636.47 906.74 636.47Z" fill="#4FB3F6"/>
<path fill-rule="evenodd" clip-rule="evenodd" d="M277.371 636.47C277.371 636.47 340.541 400.2 544.271 400.2C748.001 400.2 793.801 515.7 868.021 515.7C942.251 515.7 1153.87 479.3 1280.22 636.48H277.371V636.47Z" fill="#FFC7BF"/>
<path d="M1297.17 295.71V378.07" stroke="#0089E3" stroke-width="2.0833" stroke-miterlimit="10" stroke-linecap="round" stroke-linejoin="round"/>
<path d="M673.27 530.66V577.16" stroke="#0089E3" stroke-width="2.0833" stroke-miterlimit="10" stroke-linecap="round" stroke-linejoin="round"/>
<path d="M778.791 280.23V326.73" stroke="#0089E3" stroke-width="2.0833" stroke-miterlimit="10" stroke-linecap="round" stroke-linejoin="round"/>
<path d="M1204.18 189.61V236.1" stroke="#0089E3" stroke-width="2.0833" stroke-miterlimit="10" stroke-linecap="round" stroke-linejoin="round"/>
<path d="M811.061 122.35V168.85" stroke="#0089E3" stroke-width="2.0833" stroke-miterlimit="10" stroke-linecap="round" stroke-linejoin="round"/>
<path d="M1298.48 164.49V202.47" stroke="#0089E3" stroke-width="2.0833" stroke-miterlimit="10" stroke-linecap="round" stroke-linejoin="round"/>
<path d="M939.641 197.27V243.76" stroke="#0089E3" stroke-width="2.0833" stroke-miterlimit="10" stroke-linecap="round" stroke-linejoin="round"/>
<path d="M438.15 507.58V554.07" stroke="#0089E3" stroke-width="2.0833" stroke-miterlimit="10" stroke-linecap="round" stroke-linejoin="round"/>
<path d="M1296.77 538.92V585.41" stroke="#0089E3" stroke-width="2.0833" stroke-miterlimit="10" stroke-linecap="round" stroke-linejoin="round"/>
<path fill-rule="evenodd" clip-rule="evenodd" d="M939.64 166.33L963.7 183.81L954.51 212.1H924.77L915.58 183.81L939.64 166.33Z" fill="#FBBE2E"/>
<path fill-rule="evenodd" clip-rule="evenodd" d="M438.15 476.64L462.21 494.12L453.02 522.41H423.28L414.08 494.12L438.15 476.64Z" fill="#FBBE2E"/>
<path fill-rule="evenodd" clip-rule="evenodd" d="M1296.77 507.98L1320.83 525.47L1311.64 553.75H1281.9L1272.7 525.47L1296.77 507.98Z" fill="#FBBE2E"/>
<path fill-rule="evenodd" clip-rule="evenodd" d="M1297.17 261.78C1319.48 261.78 1337.59 279.89 1337.59 302.2C1337.59 324.51 1319.48 342.62 1297.17 342.62C1274.86 342.62 1256.75 324.51 1256.75 302.2C1256.75 279.89 1274.86 261.78 1297.17 261.78Z" fill="white"/>
<path fill-rule="evenodd" clip-rule="evenodd" d="M673.269 511.5C685.869 511.5 696.089 521.73 696.089 534.32C696.089 546.91 685.869 557.14 673.269 557.14C660.669 557.14 650.439 546.91 650.439 534.32C650.439 521.73 660.669 511.5 673.269 511.5Z" fill="white"/>
<path fill-rule="evenodd" clip-rule="evenodd" d="M778.791 261.08C791.391 261.08 801.611 271.31 801.611 283.9C801.611 296.5 791.391 306.72 778.791 306.72C766.191 306.72 755.971 296.49 755.971 283.9C755.971 271.3 766.201 261.08 778.791 261.08Z" fill="white"/>
<path fill-rule="evenodd" clip-rule="evenodd" d="M1204.18 170.45C1216.78 170.45 1227 180.68 1227 193.28C1227 205.88 1216.78 216.1 1204.18 216.1C1191.58 216.1 1181.36 205.87 1181.36 193.28C1181.35 180.67 1191.58 170.45 1204.18 170.45Z" fill="white"/>
<path fill-rule="evenodd" clip-rule="evenodd" d="M811.061 103.19C823.661 103.19 833.88 113.42 833.88 126.01C833.88 138.61 823.661 148.83 811.061 148.83C798.461 148.83 788.23 138.6 788.23 126.01C788.23 113.42 798.461 103.19 811.061 103.19Z" fill="white"/>
<path fill-rule="evenodd" clip-rule="evenodd" d="M1298.48 148.84C1308.77 148.84 1317.12 157.19 1317.12 167.49C1317.12 177.78 1308.77 186.13 1298.48 186.13C1288.19 186.13 1279.83 177.78 1279.83 167.49C1279.84 157.19 1288.19 148.84 1298.48 148.84Z" fill="white"/>
<path d="M635.41 368.25V423.55" stroke="#0089E3" stroke-width="2.0833" stroke-miterlimit="10" stroke-linecap="round" stroke-linejoin="round"/>
<path d="M1053.84 396.99V469.62" stroke="#0089E3" stroke-width="2.0833" stroke-miterlimit="10" stroke-linecap="round" stroke-linejoin="round"/>
<path d="M1048.29 40.1099V122.46" stroke="#0089E3" stroke-width="2.0833" stroke-miterlimit="10" stroke-linecap="round" stroke-linejoin="round"/>
<path fill-rule="evenodd" clip-rule="evenodd" d="M635.409 332.44C650.389 332.44 662.56 344.6 662.56 359.58C662.56 374.56 650.399 386.72 635.409 386.72C620.429 386.72 608.27 374.56 608.27 359.58C608.27 344.61 620.429 332.44 635.409 332.44Z" fill="white"/>
<path d="M1053.84 438C1073.53 438 1089.49 422.039 1089.49 402.35C1089.49 382.661 1073.53 366.7 1053.84 366.7C1034.15 366.7 1018.19 382.661 1018.19 402.35C1018.19 422.039 1034.15 438 1053.84 438Z" fill="white"/>
<path fill-rule="evenodd" clip-rule="evenodd" d="M1048.29 0.439941C1070.6 0.439941 1088.72 18.5499 1088.72 40.8599C1088.72 63.1699 1070.6 81.2899 1048.29 81.2899C1025.98 81.2899 1007.87 63.1799 1007.87 40.8599C1007.87 18.5499 1025.98 0.439941 1048.29 0.439941Z" fill="white"/>
<path fill-rule="evenodd" clip-rule="evenodd" d="M941.319 367.68C944.629 369.25 946.47 373.54 949.77 375.13C953.07 376.73 958.61 373.75 962.42 375.45C959.95 376.54 953.77 380.17 953.77 380.17C953.77 380.17 957.969 386.42 957.939 386.42C954.999 384.93 947.879 386.41 945.319 385.28C942.759 384.15 939.569 378.96 936.439 377.42C937.359 375.46 940.269 369.85 941.319 367.68Z" fill="#60D399"/>
<path d="M921.129 407.89L941.319 367.68" stroke="#0089E3" stroke-width="2.0833" stroke-miterlimit="10" stroke-linecap="round" stroke-linejoin="round"/>
<path fill-rule="evenodd" clip-rule="evenodd" d="M901.439 345.29C893.159 345.29 886.439 352.01 886.439 360.29C886.439 368.57 893.159 375.29 901.439 375.29C909.719 375.29 916.439 368.57 916.439 360.29C916.429 352.01 909.719 345.29 901.439 345.29Z" fill="#DFA98B"/>
<path fill-rule="evenodd" clip-rule="evenodd" d="M914.12 352.27C915.42 354.11 918.78 354.39 920.79 354.68C922.81 354.97 923 356.31 921.37 356.89C919.74 357.47 916.31 358.36 916.31 358.36C916.31 358.36 912.81 350.44 914.12 352.27Z" fill="#DFA98B"/>
<path fill-rule="evenodd" clip-rule="evenodd" d="M908.809 347.22L901.429 355.27C901.429 355.27 899.979 353.25 897.399 354.27C894.829 355.3 895.429 357.7 896.719 359.16C897.999 360.62 900.139 366.77 894.269 373.47C887.029 369.11 881.939 360.71 887.509 352C895.029 340.24 908.809 347.22 908.809 347.22Z" fill="#8D1A00"/>
<path fill-rule="evenodd" clip-rule="evenodd" d="M879.97 355.18C885.7 355.18 890.36 359.83 890.36 365.57C890.36 371.3 885.71 375.96 879.97 375.96C874.24 375.96 869.58 371.31 869.58 365.57C869.59 359.83 874.24 355.18 879.97 355.18Z" fill="#8D1A00"/>
<path fill-rule="evenodd" clip-rule="evenodd" d="M901.441 375.28C906.061 376.75 913.641 379.67 917.931 391.84C927.811 419.89 941.491 460 941.491 460H885.121C874.881 445.14 887.851 421.4 883.991 402.98C879.731 382.63 886.051 370.39 901.441 375.28Z" fill="#0089E3"/>
<path fill-rule="evenodd" clip-rule="evenodd" d="M905.43 391.17C903.68 395.81 900.16 405.22 896.75 412.61C894.08 418.4 913.44 418.03 914.96 422.41C899.68 441.3 881.01 449.95 881.1 444.07C881.17 439.93 881.74 435.58 882.42 431.17C883.89 421.59 885.83 411.69 884 402.98C879.73 382.63 911.1 376.06 905.43 391.17Z" fill="black"/>
<path fill-rule="evenodd" clip-rule="evenodd" d="M998.029 580.72L1022.19 604.88L1053.85 573.22C1053.85 573.22 1032.95 580.91 1027.17 575.14C1021.39 569.37 1015.39 563.36 1015.39 563.36L998.029 580.72Z" fill="#163BF3"/>
<path fill-rule="evenodd" clip-rule="evenodd" d="M904.65 510.72L999.51 579.22L1014.2 564.52L941.48 460.01L904.65 510.72Z" fill="#CF1D00"/>
<path fill-rule="evenodd" clip-rule="evenodd" d="M885.119 460.01C877.149 463.8 880.829 476.75 880.829 496.1C880.829 512.09 880.829 602.3 880.829 602.3H905.759C905.759 602.3 935.529 501.44 941.479 477.72C942.919 471.99 944.499 467.41 941.479 460H885.119V460.01Z" fill="#FF7968"/>
<path fill-rule="evenodd" clip-rule="evenodd" d="M880.83 602.3V636.46H925.6C925.6 636.46 901.5 627.21 902.45 619.1C903.4 610.99 905.76 602.29 905.76 602.29H880.83V602.3Z" fill="#60D399"/>
<path fill-rule="evenodd" clip-rule="evenodd" d="M927.629 527.32L936.549 495.96L950.349 543.72L927.629 527.32Z" fill="black"/>
<path fill-rule="evenodd" clip-rule="evenodd" d="M897.24 374.51C904.48 376.06 909.63 385.1 904.14 393.61C898.65 402.11 889.96 416.38 889.96 416.38L911.27 404.59L921.15 418.85C921.15 418.85 901.12 430.37 892.9 435.31C884.67 440.25 861.63 432.24 869.31 414.19C876.49 397.33 878.52 391.49 882.01 384.29C885.51 377.04 890.42 373.04 897.24 374.51Z" fill="#B9E2FE"/>
<path d="M893.239 413.29L881.969 420.06" stroke="black" stroke-width="2.0833" stroke-miterlimit="10" stroke-linecap="round" stroke-linejoin="round"/>
<path fill-rule="evenodd" clip-rule="evenodd" d="M911.27 404.57C915.2 402.58 922.739 397.62 923.589 399.04C924.429 400.46 922.93 402.26 922.93 402.26C922.93 402.26 932 397.87 934.28 397C935.01 396.73 936.879 397.52 935.359 398.89C933.469 400.59 931.439 401.95 929.319 403.68C930.149 405.43 932.209 411.71 929.449 414.02C927.049 416.03 921.15 418.83 921.15 418.83C921.15 418.83 912.92 408.06 911.27 404.57Z" fill="#DFA98B"/>
</g>
<defs>
<clipPath id="clip0_459:21325">
<rect width="2201" height="636" fill="white"/>
</clipPath>
</defs>
</svg>
