<svg width="878" height="777" viewBox="0 0 878 777" fill="none" xmlns="http://www.w3.org/2000/svg">
<g clip-path="url(#clip0_463:17921)">
<path fill-rule="evenodd" clip-rule="evenodd" d="M556.115 443.078C547.425 445.994 521.637 459.739 517.9 476.231C490.258 598.212 542.4 608.899 542.4 608.899L657.81 549.445C657.81 549.445 686.471 583.093 697.228 592.096C707.985 601.099 743.568 612.438 747.87 569.447C752.173 526.456 746.696 498.441 742.591 486.508C738.486 474.575 736.137 464.807 736.731 459.513C737.063 455.555 738.36 451.739 740.511 448.4C742.209 445.697 739.01 438.222 736.505 440.558C737 437.727 733.207 432.574 730.291 434.683C730.504 431.47 723.993 426.77 720.681 429.021C720.186 423.359 718.077 400.186 717.581 397.086C717.086 393.985 712.67 390.376 711.58 397.68C710.49 404.984 706.867 432.73 706.867 432.73C706.867 432.73 698.955 435.236 696.45 436.977C693.945 438.718 692.204 442.384 694.058 447.594C695.912 452.803 702.961 464.312 702.961 464.312V507.473C702.961 507.473 662.396 465.855 640.769 450.595C621.577 438.038 625.596 440.247 621.35 438.392C617.104 436.538 597.289 431.654 580.955 435.703C572.522 437.611 564.224 440.075 556.115 443.078Z" fill="#DFA98B"/>
<path fill-rule="evenodd" clip-rule="evenodd" d="M580.955 435.703C580.955 435.703 559.441 441.365 556.115 443.078C555.917 449.335 547.524 519.732 530.511 541.645C530.511 568.541 530.511 615.595 530.511 615.595H657.81V549.459C657.81 549.459 636.791 495.667 636.791 447.99C631.2 442.396 624.122 438.524 616.396 436.835C616.396 436.835 623.09 519.293 603.049 520.539C576.058 522.209 580.955 448.471 580.955 435.703Z" fill="#163BF3"/>
<path fill-rule="evenodd" clip-rule="evenodd" d="M533.342 708.826H580.163L589.32 672.799L594.925 708.231H657.23V615.539L530.497 615.609L533.342 708.826Z" fill="#FF7968"/>
<path fill-rule="evenodd" clip-rule="evenodd" d="M612.334 754.506C612.334 745.277 606.517 718.636 606.517 708.288H636.339L636.225 752.256C636.225 752.256 612.334 763.694 612.334 754.506Z" fill="#DFA98B"/>
<path fill-rule="evenodd" clip-rule="evenodd" d="M562.513 754.506C562.513 745.277 568.33 718.636 568.33 708.288H538.508L538.621 752.256C538.621 752.256 562.513 763.694 562.513 754.506Z" fill="#DFA98B"/>
<path fill-rule="evenodd" clip-rule="evenodd" d="M337.539 387.12L304.249 690.678H345.352L392.469 387.12H337.539Z" fill="#FFC7BF"/>
<path fill-rule="evenodd" clip-rule="evenodd" d="M508.134 387.12L541.423 690.678H500.321L453.203 387.12H508.134Z" fill="#FFC7BF"/>
<path fill-rule="evenodd" clip-rule="evenodd" d="M612.334 754.506V775.556H660.344L640.627 756.658C640.627 756.658 651.639 743.621 646.289 739.77C640.939 735.92 636.197 752.255 636.197 752.255L612.334 754.506Z" fill="#FF341A"/>
<path fill-rule="evenodd" clip-rule="evenodd" d="M562.512 754.506V775.556H514.503L534.219 756.658C534.219 756.658 523.207 743.621 528.558 739.77C533.908 735.92 538.649 752.255 538.649 752.255L562.512 754.506Z" fill="#FF341A"/>
<path fill-rule="evenodd" clip-rule="evenodd" d="M580.955 435.703H610.777C610.777 435.703 609.744 452.407 600.516 453.525C591.287 454.643 584.168 445.81 580.955 435.703Z" fill="#935000"/>
<path fill-rule="evenodd" clip-rule="evenodd" d="M595.873 389.555C600.912 389.555 605.838 391.049 610.027 393.849C614.217 396.649 617.482 400.628 619.411 405.284C621.339 409.94 621.843 415.063 620.86 420.006C619.877 424.949 617.451 429.489 613.888 433.053C610.325 436.616 605.785 439.043 600.843 440.026C595.901 441.009 590.779 440.505 586.124 438.576C581.468 436.648 577.489 433.382 574.69 429.191C571.891 425.001 570.396 420.075 570.396 415.035C570.396 408.277 573.081 401.796 577.858 397.018C582.636 392.239 589.116 389.555 595.873 389.555Z" fill="#DFA98B"/>
<path d="M702.961 507.458L701.305 550.577" stroke="#935000" stroke-width="1.67" stroke-linecap="round" stroke-linejoin="round"/>
<path d="M706.867 433.367C706.867 433.367 716.69 429.899 717.794 431.824C718.898 433.749 706.98 442.71 705.211 444.267" stroke="#935000" stroke-width="1.67" stroke-linecap="round" stroke-linejoin="round"/>
<path d="M716.917 438.831C714.539 441.054 709.132 447.65 711.538 449.873C713.944 452.095 719.719 446.39 721.573 444.21C723.427 442.03 728.919 436.708 728.919 436.708" stroke="#935000" stroke-width="1.67" stroke-linecap="round" stroke-linejoin="round"/>
<path d="M723.455 442.229C723.455 442.229 722.04 447.126 720.907 450.396C719.775 453.666 722.096 455.974 725.649 452.718C729.201 449.462 734.764 443.559 734.764 443.559" stroke="#935000" stroke-width="1.67" stroke-linecap="round" stroke-linejoin="round"/>
<path d="M731.749 446.688C731.749 446.688 729.343 454.714 728.31 457.304C727.277 459.895 730.971 461.226 733.419 457.828C734.662 456.039 736.018 454.332 737.482 452.718" stroke="#935000" stroke-width="1.67" stroke-linecap="round" stroke-linejoin="round"/>
<path fill-rule="evenodd" clip-rule="evenodd" d="M304.971 685.737L295.672 749.453L257.188 775.089L333.377 775.499L344.601 685.737H304.971Z" fill="#0089E3"/>
<path fill-rule="evenodd" clip-rule="evenodd" d="M539.598 680.811L549.619 749.453L588.103 775.089L511.913 775.499L498.552 680.811H539.598Z" fill="#0089E3"/>
<path fill-rule="evenodd" clip-rule="evenodd" d="M146.053 483.507C139.556 480.478 123.761 479.6 117.406 462.273C111.051 444.947 114.886 440.516 115.651 438.01C116.536 435.981 117.99 434.251 119.835 433.028C121.681 431.805 123.84 431.141 126.054 431.116C131.46 431.385 136.844 431.99 142.175 432.928V420.811C142.175 420.811 146.746 425.171 149.365 427.181C153.116 429.841 156.313 433.207 158.777 437.09C162.202 442.427 169.916 458.253 169.916 458.253C169.916 458.253 152.535 486.551 146.053 483.507Z" fill="#163BF3"/>
<path d="M126.577 441.153C126.577 441.153 140.901 441.563 144.184 442.059C144.965 442.176 145.762 442.106 146.509 441.852C147.256 441.598 147.932 441.17 148.479 440.601C149.026 440.033 149.43 439.342 149.655 438.586C149.881 437.829 149.922 437.03 149.775 436.255C149.28 433.424 145.741 432.008 142.175 431.781" stroke="#0C114D" stroke-width="1.67" stroke-linecap="round" stroke-linejoin="round"/>
<path d="M128.53 452.265C128.53 452.265 141.679 451.005 145.09 450.849C148.501 450.694 149.775 448.33 149.563 446.518C149.478 445.355 148.97 444.264 148.136 443.45C147.301 442.637 146.198 442.157 145.034 442.101" stroke="#0C114D" stroke-width="1.67" stroke-linecap="round" stroke-linejoin="round"/>
<path d="M130.215 460.858C130.215 460.858 142.231 458.692 145.657 457.913C149.082 457.135 150.978 455.195 150.554 453.44C150.129 451.685 147.482 450.312 147.482 450.312" stroke="#0C114D" stroke-width="1.67" stroke-linecap="round" stroke-linejoin="round"/>
<path d="M132.932 469.238C132.932 469.238 141.042 467.072 144.608 465.883C148.175 464.694 148.94 463.052 148.855 461.48C148.772 460.579 148.375 459.735 147.734 459.095C147.092 458.456 146.246 458.063 145.344 457.984" stroke="#0C114D" stroke-width="1.67" stroke-linecap="round" stroke-linejoin="round"/>
<path fill-rule="evenodd" clip-rule="evenodd" d="M392.455 19.889C392.455 19.889 398.117 0.0708008 420.324 0.0708008C442.531 0.0708008 461.511 13.6887 466.055 28.3825C483.039 25.3531 501.227 41.6324 500.094 60.5446C498.962 79.4568 501.991 94.5752 515.196 106.296C528.402 118.017 420.366 106.296 420.366 106.296L392.455 19.889Z" fill="#FF341A"/>
<path fill-rule="evenodd" clip-rule="evenodd" d="M420.692 18.4026C426.913 18.3918 433.007 20.1638 438.252 23.5089C443.497 26.8541 447.674 31.6322 450.288 37.2778C452.903 42.9233 453.845 49.1999 453.004 55.3644C452.162 61.5289 449.573 67.3232 445.541 72.0615C441.51 76.7997 436.205 80.2835 430.255 82.1003C424.306 83.9172 417.96 83.991 411.97 82.3131C405.98 80.6352 400.596 77.2759 396.455 72.6327C392.314 67.9896 389.59 62.2571 388.606 56.1138C390.021 55.2645 391.635 54.0046 391.621 52.5465C391.621 51.6264 390.064 51.3291 388.195 50.9186C388.207 42.3007 391.634 34.0388 397.725 27.9437C403.817 21.8487 412.076 18.4176 420.692 18.4026Z" fill="#FFC7BF"/>
<path fill-rule="evenodd" clip-rule="evenodd" d="M403.212 18.0204L455.397 70.1989V26.3158L425.999 5.77563L403.212 18.0204Z" fill="#FF341A"/>
<path fill-rule="evenodd" clip-rule="evenodd" d="M394.804 92.4378C382.151 92.4378 349.739 91.7158 333.943 91.7158C318.148 91.7158 301.885 93.5136 289.996 119.093C278.107 144.673 250.365 231.505 243.161 247.345C235.957 263.186 232.716 286.628 251.809 292.021C270.902 297.414 279.182 277.256 285.665 266.087C292.147 254.919 322.465 191.146 322.465 191.146C322.465 191.146 325.706 235.822 346.965 249.511H420.805L437.789 92.6218C437.789 92.6218 407.458 92.4378 394.804 92.4378Z" fill="#FFC7BF"/>
<path fill-rule="evenodd" clip-rule="evenodd" d="M446.594 92.4378C459.247 92.4378 491.659 91.7158 507.455 91.7158C523.25 91.7158 539.513 93.5136 551.402 119.093C563.291 144.673 591.033 231.505 598.223 247.345C605.413 263.186 608.683 286.628 589.589 292.021C570.496 297.414 562.258 277.256 555.776 266.13C549.293 255.003 518.976 191.189 518.976 191.189C518.976 191.189 515.735 235.865 494.49 249.553H420.692V92.551C420.692 92.551 433.94 92.4378 446.594 92.4378Z" fill="#FFC7BF"/>
<path fill-rule="evenodd" clip-rule="evenodd" d="M322.352 191.104L339.945 154.299C339.945 154.299 333.986 198.635 324.276 204.863C322.946 197.998 322.352 191.104 322.352 191.104Z" fill="#163BF3"/>
<path fill-rule="evenodd" clip-rule="evenodd" d="M519.032 191.104L501.453 154.299C501.453 154.299 507.398 198.635 517.121 204.863C518.438 197.998 519.032 191.104 519.032 191.104Z" fill="#163BF3"/>
<path fill-rule="evenodd" clip-rule="evenodd" d="M451.505 92.4094C466.253 92.282 493.457 91.7158 507.554 91.7158C523.406 91.7158 539.612 93.5136 551.502 119.093C555.932 128.634 562.57 146.697 569.533 166.416C557.701 175.688 536.47 192.123 523.831 201.112C520.929 195.053 519.075 191.203 519.075 191.203C519.075 191.203 515.834 235.879 494.589 249.568H346.852C325.537 235.822 322.352 191.104 322.352 191.104L317.611 201.013C304.971 192.024 283.727 175.533 271.908 166.317C278.872 146.598 285.51 128.535 289.94 118.994C301.829 93.4145 318.035 91.6167 333.887 91.6167C348.041 91.6167 375.188 92.1829 389.936 92.3103C390.109 100.356 393.426 108.014 399.176 113.644C404.927 119.273 412.653 122.425 420.7 122.425C428.746 122.425 436.472 119.273 442.223 113.644C447.973 108.014 451.29 100.356 451.463 92.3103L451.505 92.4094Z" fill="#0089E3"/>
<path fill-rule="evenodd" clip-rule="evenodd" d="M253.352 292.927C244.195 292.927 233.028 277.596 230.112 248.874C227.196 220.152 225.13 139.69 225.13 139.69C234.386 133.065 243.445 125.987 258.462 139.152C258.462 139.152 268.186 193.893 270.592 203.32C275.588 222.898 284.604 235.044 282.934 245.038C281.264 255.032 262.524 292.927 253.352 292.927Z" fill="#FFC7BF"/>
<path fill-rule="evenodd" clip-rule="evenodd" d="M588.117 292.927C597.275 292.927 608.442 277.596 611.358 248.874C614.273 220.152 616.297 139.69 616.297 139.69C605.201 130.871 594.104 135.443 582.994 139.152C582.994 139.152 573.298 193.893 570.892 203.32C565.896 222.898 556.894 235.044 558.55 245.038C560.206 255.032 578.96 292.927 588.117 292.927Z" fill="#FFC7BF"/>
<path d="M266.459 182.016L274.442 227.683" stroke="#FF341A" stroke-width="1.67" stroke-linecap="round" stroke-linejoin="round"/>
<path d="M575.025 182.016L567.042 227.683" stroke="#FF341A" stroke-width="1.67" stroke-linecap="round" stroke-linejoin="round"/>
<path d="M492.593 249.511H346.852V261.189H492.593V249.511Z" fill="#60D399"/>
<path fill-rule="evenodd" clip-rule="evenodd" d="M258.462 139.152C258.462 139.152 256.608 103.989 234.953 103.989H178.097C169.902 103.989 172.011 111.661 180.475 113.77C188.939 115.88 219.596 120.848 225.144 139.69C233.084 139.69 258.462 139.152 258.462 139.152Z" fill="#FFC7BF"/>
<path fill-rule="evenodd" clip-rule="evenodd" d="M582.993 139.152C582.993 139.152 584.847 103.989 606.517 103.989H663.358C671.553 103.989 669.444 111.661 660.98 113.77C652.516 115.88 621.859 120.848 616.297 139.69C608.371 139.69 582.993 139.152 582.993 139.152Z" fill="#FFC7BF"/>
<path fill-rule="evenodd" clip-rule="evenodd" d="M347.361 261.189L325.479 387.12H471.73L441.526 261.189H347.361Z" fill="#9CE8C2"/>
<path fill-rule="evenodd" clip-rule="evenodd" d="M494.023 261.189L515.905 387.12H337.539L420.692 261.189H494.023Z" fill="#9CE8C2"/>
<path fill-rule="evenodd" clip-rule="evenodd" d="M632.97 32.8557C640.005 32.8557 646.881 34.9421 652.731 38.851C658.58 42.7598 663.139 48.3157 665.831 54.8159C668.523 61.3161 669.227 68.4688 667.855 75.3694C666.482 82.27 663.095 88.6086 658.12 93.5837C653.146 98.5588 646.808 101.947 639.909 103.319C633.009 104.692 625.858 103.988 619.358 101.295C612.859 98.6026 607.304 94.043 603.396 88.193C599.487 82.3429 597.401 75.4651 597.401 68.4293C597.405 58.9958 601.154 49.9497 607.823 43.2791C614.493 36.6086 623.538 32.8595 632.97 32.8557Z" fill="#FBBE2E"/>
<path fill-rule="evenodd" clip-rule="evenodd" d="M208.612 47.2664L248.356 94.9432C249.031 95.7481 249.462 96.7292 249.597 97.771C249.733 98.8127 249.568 99.8715 249.121 100.822C248.675 101.773 247.966 102.577 247.078 103.138C246.19 103.699 245.16 103.994 244.11 103.989H173.086C172.038 103.988 171.012 103.69 170.128 103.127C169.243 102.565 168.537 101.763 168.092 100.814C167.646 99.8655 167.48 98.8096 167.613 97.77C167.745 96.7303 168.171 95.7499 168.84 94.9432L208.612 47.2664Z" fill="#163BF3"/>
<path fill-rule="evenodd" clip-rule="evenodd" d="M192.873 381.642C185.159 383.17 171.147 384.317 161.31 410.067C151.473 435.816 161.31 453.468 161.31 453.468L139.811 509.894H265.524L301.8 420.797L334.227 417.3L337.538 387.12H325.536L329.004 367.203C329.004 367.203 253.536 372.143 246.799 372.143H235.603C236.367 371.619 204.026 379.447 192.873 381.642Z" fill="#FBBE2E"/>
<path fill-rule="evenodd" clip-rule="evenodd" d="M210.679 378.442C210.679 378.442 197.346 394.792 209.433 396.845C221.521 398.898 245.158 372.129 245.158 372.129L210.679 378.442Z" fill="#FF341A"/>
<path fill-rule="evenodd" clip-rule="evenodd" d="M223.629 326.816C229.105 326.816 234.457 328.44 239.01 331.482C243.563 334.525 247.111 338.849 249.206 343.909C251.302 348.968 251.85 354.535 250.782 359.907C249.714 365.278 247.077 370.211 243.205 374.084C239.333 377.956 234.4 380.593 229.03 381.662C223.66 382.73 218.093 382.182 213.035 380.086C207.976 377.99 203.652 374.441 200.61 369.888C197.568 365.334 195.944 359.981 195.944 354.505C195.944 347.161 198.861 340.118 204.053 334.926C209.245 329.733 216.287 326.816 223.629 326.816Z" fill="#163BF3"/>
<path fill-rule="evenodd" clip-rule="evenodd" d="M203.403 354.505H309.344C322.083 354.505 334.524 346.761 334.524 329.888C334.524 313.014 323.399 303.699 308.24 308.031C291.058 312.929 245.723 354.505 203.403 354.505Z" fill="#0089E3"/>
<path fill-rule="evenodd" clip-rule="evenodd" d="M251.314 354.505C251.314 322.498 238.929 296.466 223.629 296.466C208.329 296.466 195.944 322.428 195.944 354.505H251.314Z" fill="#0C114D"/>
<path fill-rule="evenodd" clip-rule="evenodd" d="M211.854 302.029C202.456 311.301 247.932 322.696 242.525 312.122C237.571 302.454 230.933 296.551 223.63 296.551C219.384 296.536 215.435 298.504 211.854 302.029Z" fill="#163BF3"/>
<path fill-rule="evenodd" clip-rule="evenodd" d="M218.18 4.74212C218.185 4.48025 218.138 4.21999 218.041 3.97681C217.943 3.73362 217.798 3.51248 217.614 3.32653C217.428 3.14082 217.207 2.99387 216.964 2.89423C216.721 2.79459 216.461 2.74426 216.198 2.74614H200.983C200.463 2.74985 199.964 2.95835 199.596 3.32656C199.228 3.69476 199.02 4.1931 199.016 4.71381C199.012 4.97391 199.06 5.23215 199.158 5.47338C199.255 5.7146 199.4 5.93395 199.583 6.11855C199.766 6.30315 199.984 6.44929 200.225 6.54838C200.465 6.64748 200.723 6.69754 200.983 6.69563H216.213C216.474 6.70016 216.734 6.65242 216.977 6.55519C217.22 6.45796 217.442 6.3132 217.628 6.12939C217.812 5.94345 217.958 5.7223 218.055 5.47912C218.152 5.23593 218.2 4.97567 218.194 4.71381L218.18 4.74212Z" fill="#163BF3"/>
<path fill-rule="evenodd" clip-rule="evenodd" d="M642.58 4.74212C642.585 4.21421 642.381 3.70573 642.014 3.32653C641.828 3.14082 641.608 2.99387 641.365 2.89423C641.122 2.79459 640.861 2.74426 640.599 2.74614H625.355C624.834 2.74985 624.336 2.95835 623.968 3.32656C623.6 3.69476 623.391 4.1931 623.388 4.71381C623.388 4.97154 623.439 5.22673 623.538 5.46467C623.637 5.7026 623.782 5.91859 623.965 6.10017C624.148 6.28176 624.365 6.42536 624.603 6.52269C624.842 6.62003 625.097 6.66918 625.355 6.66731H640.585C640.846 6.67185 641.106 6.6241 641.349 6.52687C641.592 6.42965 641.813 6.28489 642 6.10108C642.367 5.72188 642.57 5.2134 642.566 4.6855L642.58 4.74212Z" fill="#FBBE2E"/>
<path d="M215.322 4.74219H201.89V59.2563H215.322V4.74219Z" fill="#163BF3"/>
<path d="M639.679 4.74219H626.247V41.0661H639.679V4.74219Z" fill="#FBBE2E"/>
<path fill-rule="evenodd" clip-rule="evenodd" d="M241.109 354.505H135.168C122.43 354.505 110.003 346.761 110.003 329.888C110.003 313.014 121.114 303.699 136.286 308.031C153.469 312.929 198.789 354.505 241.109 354.505Z" fill="#0089E3"/>
<path fill-rule="evenodd" clip-rule="evenodd" d="M440.705 361.767C436.275 360.507 428.122 354.363 431.392 342.515C434.661 330.666 462.53 346.195 462.53 346.195C462.53 346.195 454.151 365.575 440.705 361.767Z" fill="#0C114D"/>
<path fill-rule="evenodd" clip-rule="evenodd" d="M354.495 671.143C354.495 706.9 371.833 750.599 371.833 750.599H392.809C392.809 750.599 419.871 669.062 413.078 623.083C394.154 623.083 354.495 635.385 354.495 671.143Z" fill="#60D399"/>
<path fill-rule="evenodd" clip-rule="evenodd" d="M414.182 619.205C414.182 619.205 435.936 714.445 468.872 750.599C478.85 746.551 494.504 737.647 494.504 737.647C494.504 737.647 486.677 681.788 482.898 669.118C479.119 656.449 414.182 581.437 414.182 581.437C414.182 581.437 412.356 612.736 414.182 619.205Z" fill="#60D399"/>
<path d="M390.729 750.599H374.565V760.169H390.729V750.599Z" fill="#9CE8C2"/>
<path fill-rule="evenodd" clip-rule="evenodd" d="M470.259 750.033L477.605 762.66L494.504 754.223L491.56 739.303L470.259 750.033Z" fill="#9CE8C2"/>
<path fill-rule="evenodd" clip-rule="evenodd" d="M374.565 760.169C374.565 764.415 362.69 772.456 362.69 775.499H402.052L390.729 760.169C390.729 760.169 374.565 755.922 374.565 760.169Z" fill="#FBBE2E"/>
<path fill-rule="evenodd" clip-rule="evenodd" d="M477.605 762.66C476.189 765.279 472.764 770.672 475.665 775.5H528.7C528.7 775.5 520.689 768.068 514.334 766.879C507.979 765.69 501.227 754.422 494.32 753.289C488.376 756.998 478.977 760.027 477.605 762.66Z" fill="#FBBE2E"/>
<path fill-rule="evenodd" clip-rule="evenodd" d="M453.702 327.244C439.279 321.298 430.5 318.5 430.5 318.5C430.5 318.5 423.936 338.752 435.344 345.929C446.752 353.106 455.584 357.82 455.584 357.82L464.275 341.895C464.275 341.895 468.195 333.203 453.702 327.244Z" fill="#FFE8E5"/>
<path fill-rule="evenodd" clip-rule="evenodd" d="M379.321 398.968C371.239 401.998 360.383 406.046 352.811 409.061C345.239 412.076 337.157 416.889 330.335 430.522C323.513 444.154 301.051 483.054 294.951 492.637C288.85 502.221 285.864 534.553 313.124 534.553H347.461V670.449H403.765C411.271 642.87 415.172 614.435 415.371 585.854C415.371 601 433.303 660.88 442.135 668.425H486.819L463.847 546.217V440.884C463.847 440.884 526.704 397.85 543.377 386.922C560.05 375.993 552.209 346.945 533.271 342.911C514.334 338.877 453.756 325.74 453.756 325.74C453.756 325.74 459.559 331.572 458.794 344.426C457.945 358.723 447.174 363.21 440.72 361.767L481.525 373.205L442.135 386.922C442.135 386.922 387.332 395.939 379.321 398.968Z" fill="#24A865"/>
<path fill-rule="evenodd" clip-rule="evenodd" d="M379.25 398.968L395.159 366.396L413.346 392.98V434.06L379.25 398.968Z" fill="#60D399"/>
<path fill-rule="evenodd" clip-rule="evenodd" d="M413.347 434.061V391.876L427.67 359.105L433.657 388.337L413.347 434.061Z" fill="#60D399"/>
<path d="M336.689 492.326L358.203 460.674" stroke="#60D399" stroke-width="1.67" stroke-linecap="round" stroke-linejoin="round"/>
<path d="M463.833 440.884V428.2" stroke="#0C114D" stroke-width="1.67" stroke-linecap="round" stroke-linejoin="round"/>
<path d="M413.347 434.061V582.923" stroke="#60D399" stroke-width="1.67" stroke-linecap="round" stroke-linejoin="round"/>
<path d="M481.511 373.205L504.864 378.909" stroke="#0C114D" stroke-width="1.67" stroke-linecap="round" stroke-linejoin="round"/>
<path d="M347.446 561.166H376.292C376.292 561.166 374.579 614.548 347.446 614.548" stroke="#60D399" stroke-width="1.67" stroke-linecap="round" stroke-linejoin="round"/>
<path d="M464.866 547.675H436.021C436.021 547.675 447.018 601.057 474.151 601.057" stroke="#60D399" stroke-width="1.67" stroke-linecap="round" stroke-linejoin="round"/>
<path fill-rule="evenodd" clip-rule="evenodd" d="M409.808 337.574C415.309 337.571 420.688 339.2 425.263 342.255C429.839 345.31 433.406 349.653 435.513 354.736C437.62 359.818 438.173 365.412 437.101 370.808C436.03 376.205 433.382 381.163 429.493 385.054C425.604 388.946 420.648 391.597 415.253 392.671C409.858 393.746 404.265 393.196 399.182 391.091C394.099 388.986 389.755 385.42 386.698 380.846C383.641 376.271 382.01 370.893 382.01 365.39C382.017 358.018 384.948 350.949 390.159 345.735C395.37 340.52 402.436 337.585 409.808 337.574Z" fill="#FFE8E5"/>
<path fill-rule="evenodd" clip-rule="evenodd" d="M347.446 534.553H373.178L347.446 551.214V534.553Z" fill="#0C114D"/>
<path fill-rule="evenodd" clip-rule="evenodd" d="M386.751 498.073C392.583 498.073 407.218 484.852 413.346 479.897C419.475 474.943 423.254 472.819 424.754 475.169C426.254 477.519 414.295 488.277 412.242 490.741V528.452H386.765C386.765 528.452 386.397 502.532 386.751 498.073Z" fill="#FFE8E5"/>
<path d="M313.732 492.326H386.752" stroke="#60D399" stroke-width="1.67" stroke-linecap="round" stroke-linejoin="round"/>
<path d="M161.311 453.468L170.072 430.663" stroke="#FF341A" stroke-width="1.67" stroke-linecap="round" stroke-linejoin="round"/>
<path fill-rule="evenodd" clip-rule="evenodd" d="M301.801 420.797L272.97 426.218L291.695 445.499L301.801 420.797Z" fill="#FF341A"/>
<path d="M142.16 386.143H120.788V432.914H142.16V386.143Z" fill="#FF341A"/>
<path fill-rule="evenodd" clip-rule="evenodd" d="M131.488 369.666L142.174 386.143H120.788L131.488 369.666Z" fill="#FBBE2E"/>
<path fill-rule="evenodd" clip-rule="evenodd" d="M254.768 748.264C254.768 748.264 259.127 738.567 269.842 742.148C280.556 745.73 317.413 775.089 317.413 775.089H252.518L254.768 748.264Z" fill="#FBBE2E"/>
<path fill-rule="evenodd" clip-rule="evenodd" d="M139.811 509.894L131.488 529.315L52.5387 531.297C37.5498 531.679 -7.86957 535.544 9.10078 586.42C26.0711 637.296 56.9405 716.923 56.9405 716.923H99.9254L85.3754 612.651L158.564 626.807C158.564 626.807 144.368 693.806 139.811 717.489C135.253 741.172 144.467 775.089 170.836 775.089H257.174C257.174 775.089 266.374 758.371 254.782 748.292C243.19 738.213 221.28 727.256 221.28 727.256C221.28 727.256 241.095 673.238 248.483 658.473C255.871 643.709 272.545 605.261 272.162 585.882C271.78 566.503 262.255 533.874 263.486 523.724C264.718 513.574 265.51 509.894 265.51 509.894H139.811Z" fill="#FF341A"/>
<path d="M158.564 626.764L171.161 567.14" stroke="#0C114D" stroke-width="1.67" stroke-linecap="round" stroke-linejoin="round"/>
<path d="M176.45 515.004C176.45 517.542 174.393 519.6 171.855 519.6C169.317 519.6 167.26 517.542 167.26 515.004C167.26 512.465 169.317 510.407 171.855 510.407C174.393 510.407 176.45 512.465 176.45 515.004Z" fill="#5B3100" stroke="#5B3100"/>
<path fill-rule="evenodd" clip-rule="evenodd" d="M99.9251 716.923L108.035 775.089H-0.000417634C-0.000417634 775.089 -1.27425 763.764 20.2819 758.668C41.8381 753.572 65.673 741.978 56.926 716.923H99.9251Z" fill="#FBBE2E"/>
<path d="M221.294 727.256L214.302 746.013" stroke="#0C114D" stroke-width="1.67" stroke-linecap="round" stroke-linejoin="round"/>
<path d="M85.3753 612.651L83.9033 602.062" stroke="#0C114D" stroke-width="1.67" stroke-linecap="round" stroke-linejoin="round"/>
<path d="M131.488 529.315H146.604" stroke="#0C114D" stroke-width="1.67" stroke-linecap="round" stroke-linejoin="round"/>
<path d="M153.355 561.704L166.561 585.047" stroke="#0C114D" stroke-width="1.67" stroke-linecap="round" stroke-linejoin="round"/>
<path fill-rule="evenodd" clip-rule="evenodd" d="M305.693 680.811L304.249 690.678H345.352L346.753 680.811H305.693Z" fill="#163BF3"/>
<path fill-rule="evenodd" clip-rule="evenodd" d="M498.552 680.811L499.939 690.678H541.041L539.598 680.811H498.552Z" fill="#163BF3"/>
<path fill-rule="evenodd" clip-rule="evenodd" d="M363.752 347.115C365.132 347.113 366.483 347.52 367.632 348.285C368.782 349.05 369.678 350.139 370.208 351.414C370.739 352.689 370.879 354.092 370.611 355.447C370.344 356.802 369.68 358.047 368.705 359.024C367.73 360.001 366.486 360.668 365.132 360.938C363.778 361.208 362.375 361.071 361.099 360.543C359.823 360.015 358.732 359.121 357.965 357.973C357.198 356.825 356.788 355.475 356.788 354.094C356.788 352.246 357.521 350.473 358.827 349.165C360.132 347.856 361.904 347.119 363.752 347.115Z" fill="white"/>
<path d="M135.14 520.793H263.868" stroke="#5B3100" stroke-width="1.67" stroke-linecap="round" stroke-linejoin="round"/>
<path fill-rule="evenodd" clip-rule="evenodd" d="M717.878 210.37C735.777 210.37 753.274 215.678 768.157 225.624C783.039 235.57 794.639 249.706 801.488 266.245C808.338 282.784 810.13 300.983 806.638 318.54C803.146 336.098 794.527 352.226 781.871 364.884C769.214 377.543 753.089 386.163 735.534 389.656C717.978 393.148 699.782 391.356 683.246 384.505C666.709 377.654 652.575 366.053 642.631 351.168C632.687 336.284 627.379 318.784 627.379 300.882C627.401 276.884 636.943 253.875 653.91 236.905C670.877 219.936 693.883 210.392 717.878 210.37Z" fill="#B9E2FE"/>
<path d="M627.379 300.882H808.363" stroke="#0C114D" stroke-width="0.76" stroke-linecap="round" stroke-linejoin="round"/>
<path d="M717.878 210.37C731.551 210.37 742.662 250.926 742.662 300.882C742.662 350.838 731.551 391.381 717.878 391.381C704.206 391.381 693.081 350.838 693.081 300.882C693.081 250.926 704.192 210.37 717.878 210.37Z" stroke="#0C114D" stroke-width="0.76" stroke-linecap="round" stroke-linejoin="round"/>
<path d="M717.878 210.37C754.961 210.37 785.08 250.926 785.08 300.882C785.08 350.838 754.961 391.381 717.878 391.381C680.795 391.381 650.662 350.838 650.662 300.882C650.662 250.926 680.795 210.37 717.878 210.37Z" stroke="#0C114D" stroke-width="0.76" stroke-linecap="round" stroke-linejoin="round"/>
<path d="M578.69 659.719L589.32 672.799L601.62 662.21" stroke="#CF1D00" stroke-width="0.76" stroke-linecap="round" stroke-linejoin="round"/>
<path d="M398.98 38.8013C398.98 38.8013 392.611 43.5859 393.007 56.9207" stroke="#FF341A" stroke-width="0.76" stroke-linecap="round" stroke-linejoin="round"/>
<path fill-rule="evenodd" clip-rule="evenodd" d="M394.267 38.8013C394.267 38.8013 382.363 40.5141 377.523 40.5991C372.682 40.684 371.79 41.7457 376.985 44.0389C382.179 46.3322 390.53 48.9652 390.53 48.9652C390.53 48.9652 394.196 42.8357 394.267 38.8013Z" fill="#FFC7BF"/>
<path fill-rule="evenodd" clip-rule="evenodd" d="M203.39 355.17C203.39 355.17 197.841 359.049 193.907 361.753C189.972 364.456 188.542 366.183 194.218 366.396C199.894 366.608 204.267 366.467 204.267 366.467C204.267 366.467 204.805 358.95 203.39 355.17Z" fill="#163BF3"/>
<path fill-rule="evenodd" clip-rule="evenodd" d="M726.767 665.027C728.499 665.025 730.193 665.535 731.635 666.495C733.077 667.455 734.202 668.821 734.868 670.42C735.534 672.019 735.712 673.78 735.377 675.48C735.043 677.18 734.213 678.743 732.991 679.971C731.769 681.199 730.211 682.037 728.513 682.379C726.815 682.722 725.053 682.553 723.451 681.895C721.849 681.236 720.478 680.118 719.511 678.68C718.544 677.242 718.025 675.551 718.02 673.818C718.014 672.666 718.236 671.524 718.673 670.457C719.11 669.391 719.754 668.422 720.567 667.605C721.379 666.788 722.345 666.14 723.409 665.697C724.474 665.255 725.614 665.027 726.767 665.027Z" fill="#FFC7BF"/>
<path fill-rule="evenodd" clip-rule="evenodd" d="M686.457 665.027H706.499C708.919 665.027 710.207 667.335 707.306 670.166C704.404 672.997 695.431 681.151 695.431 681.151H700.116L696.959 692.546C696.959 692.546 691.227 692.221 685.976 692.221C680.725 692.221 675.063 683.416 681.73 679.48C688.396 675.545 692.473 673.096 693.69 672.403C693.994 672.276 694.256 672.066 694.446 671.797C694.636 671.527 694.745 671.21 694.761 670.88C694.778 670.551 694.7 670.224 694.538 669.938C694.376 669.651 694.136 669.416 693.845 669.26C692.289 668.623 686.457 666.514 686.457 665.027Z" fill="#FFC7BF"/>
<path fill-rule="evenodd" clip-rule="evenodd" d="M765.874 665.027H745.903C743.482 665.027 742.18 667.335 745.096 670.166C748.012 672.997 756.971 681.151 756.971 681.151H752.286L755.428 692.546C755.428 692.546 761.175 692.221 766.426 692.221C771.677 692.221 777.324 683.416 770.672 679.48C764.019 675.545 759.929 673.096 758.712 672.403C758.407 672.276 758.145 672.066 757.956 671.797C757.766 671.527 757.656 671.21 757.64 670.88C757.624 670.551 757.701 670.224 757.863 669.938C758.026 669.651 758.266 669.416 758.556 669.26C760.056 668.623 765.803 666.514 765.874 665.027Z" fill="#FFC7BF"/>
<path d="M695.36 681.151H688.227" stroke="#FF341A" stroke-width="0.76" stroke-linecap="round" stroke-linejoin="round"/>
<path d="M764.232 681.151H757.099" stroke="#FF341A" stroke-width="0.76" stroke-linecap="round" stroke-linejoin="round"/>
<path fill-rule="evenodd" clip-rule="evenodd" d="M700.045 681.151H752.23L755.372 692.546H744.544V716.116H708.721V692.546H696.889L700.045 681.151Z" fill="#163BF3"/>
<path fill-rule="evenodd" clip-rule="evenodd" d="M710.943 716.116L695.671 776.08H710.702L706.527 771.437L723.936 737.434L746.596 775.726L754.112 773.093L740.751 728.729L739.675 716.116H710.943Z" fill="#FF341A"/>
<path d="M723.937 737.434L728.763 728.021" stroke="#0C114D" stroke-width="0.76" stroke-linecap="round" stroke-linejoin="round"/>
<path fill-rule="evenodd" clip-rule="evenodd" d="M746.597 775.74C746.597 775.74 755.952 762.731 760.213 764.415C764.473 766.1 755.372 776.037 755.372 776.037L746.597 775.74Z" fill="#0C114D"/>
<path d="M787.883 632.95H649.742V659.195H787.883V632.95Z" fill="#FFF3D6"/>
<path d="M786.284 625.801H649.742V632.964H786.284V625.801Z" fill="#0089E3"/>
<path fill-rule="evenodd" clip-rule="evenodd" d="M810.147 665.027C814.429 652.302 814.429 638.526 810.147 625.801H787.897C793.015 638.376 793.015 652.453 787.897 665.027H810.147Z" fill="#B9E2FE"/>
<path fill-rule="evenodd" clip-rule="evenodd" d="M789.865 665.027C794.154 652.304 794.154 638.525 789.865 625.801H782.703C787.836 638.373 787.836 652.456 782.703 665.027H789.865Z" fill="#0089E3"/>
<path d="M786.284 657.865H649.742V665.027H786.284V657.865Z" fill="#0089E3"/>
<path d="M16.7441 775.5H876.5" stroke="#0C114D" stroke-width="2.11" stroke-linecap="round" stroke-linejoin="round"/>
<path d="M145.529 236.827L188.387 273.094" stroke="#FBBE2E" stroke-width="0.76" stroke-linecap="round" stroke-linejoin="round"/>
<path d="M188.387 234.024L198.592 266.087" stroke="#FBBE2E" stroke-width="0.76" stroke-linecap="round" stroke-linejoin="round"/>
<path d="M184.749 287.703L145.529 279.252" stroke="#FBBE2E" stroke-width="0.76" stroke-linecap="round" stroke-linejoin="round"/>
<path fill-rule="evenodd" clip-rule="evenodd" d="M454.109 329.038L402.702 358.766C402.702 358.766 361.911 313.311 375.074 305.766C404.344 288.864 428.731 323.39 444.739 322.116C460.747 320.842 475.028 316.949 454.109 329.038Z" fill="#24A865"/>
<path fill-rule="evenodd" clip-rule="evenodd" d="M353.519 387.12L404.925 357.393C404.925 357.393 388.21 298.122 375.075 305.766C343.625 323.942 362.676 359.714 353.575 372.936C344.474 386.157 332.614 399.195 353.519 387.12Z" fill="#24A865"/>
<path d="M398.372 351.15C403.406 351.15 407.487 347.068 407.487 342.033C407.487 336.999 403.406 332.917 398.372 332.917C393.338 332.917 389.257 336.999 389.257 342.033C389.257 347.068 393.338 351.15 398.372 351.15Z" fill="#60D399"/>
<path fill-rule="evenodd" clip-rule="evenodd" d="M351.891 85.1191V91.8715H356.009C356.009 91.8715 355.599 90.2436 354.721 90.2436C353.882 90.367 353.072 90.6403 352.329 91.0504L352.796 85.473L351.891 85.1191Z" fill="#FBBE2E"/>
<path fill-rule="evenodd" clip-rule="evenodd" d="M477.321 146.272H451.505V172.475C451.505 174.171 451.839 175.851 452.489 177.418C453.138 178.986 454.09 180.41 455.291 181.609C456.491 182.808 457.915 183.758 459.483 184.406C461.051 185.054 462.731 185.387 464.427 185.385C467.851 185.385 471.134 184.025 473.555 181.604C475.976 179.182 477.336 175.899 477.336 172.475L477.321 146.272Z" fill="#163BF3"/>
<path fill-rule="evenodd" clip-rule="evenodd" d="M438.512 78.027C438.512 81.3819 441.045 92.4093 451.462 92.4093C435.893 101.285 389.752 100.775 389.936 92.4093C389.936 92.4093 406.807 89.9745 406.807 80.2353C406.807 70.4961 438.512 74.6862 438.512 78.027Z" fill="#FFC7BF"/>
<path fill-rule="evenodd" clip-rule="evenodd" d="M405.165 85.0908L419.036 83.3071L406.807 80.0796C406.835 81.8866 406.257 83.6509 405.165 85.0908Z" fill="#FF341A"/>
<path fill-rule="evenodd" clip-rule="evenodd" d="M349.385 68.217C350.242 68.1119 351.047 67.748 351.691 67.1739C352.336 66.5998 352.791 65.8427 352.994 65.0037C353.097 64.5596 353.269 64.1345 353.504 63.7438C353.829 63.1796 354.262 62.685 354.779 62.2882C355.295 61.8915 355.885 61.6003 356.513 61.4314C357.142 61.2625 357.798 61.2191 358.444 61.3038C359.09 61.3884 359.712 61.5994 360.276 61.9248C360.841 62.2501 361.335 62.6833 361.732 63.1998C362.128 63.7163 362.42 64.3058 362.588 64.9348C362.757 65.5638 362.801 66.2199 362.716 66.8656C362.631 67.5114 362.42 68.1341 362.095 68.6983C361.747 69.3211 361.263 69.858 360.68 70.2696C359.998 70.7681 359.48 71.4586 359.193 72.253C358.905 73.0473 358.861 73.9092 359.066 74.7287C359.521 76.4237 359.462 78.2153 358.899 79.8771C358.335 81.539 357.292 82.9965 355.901 84.0655C354.509 85.1345 352.832 85.767 351.082 85.883C349.331 85.9991 347.585 85.5936 346.065 84.7176C344.544 83.8417 343.318 82.5347 342.54 80.9617C341.762 79.3888 341.468 77.6206 341.694 75.8805C341.921 74.1404 342.658 72.5065 343.813 71.1853C344.968 69.8641 346.488 68.9149 348.182 68.4577C348.577 68.3503 348.979 68.2699 349.385 68.217Z" fill="#FF341A"/>
<path fill-rule="evenodd" clip-rule="evenodd" d="M361.855 65.2583H367.743L361.374 68.5849C359.152 69.6466 357.892 65.4848 361.855 65.2583Z" fill="#FBBE2E"/>
<path fill-rule="evenodd" clip-rule="evenodd" d="M351.013 72.7186C351.013 72.7186 347.531 63.2625 339.69 63.2625C331.849 63.2625 327.291 65.1593 327.291 68.7549C327.291 72.3505 332.754 72.7186 337.637 72.7186H351.013Z" fill="#FBBE2E"/>
<path fill-rule="evenodd" clip-rule="evenodd" d="M346.838 85.1191V91.8715H351.013C351.013 91.8715 350.617 90.2436 349.725 90.2436C348.886 90.367 348.076 90.6403 347.333 91.0504L347.815 85.473L346.838 85.1191Z" fill="#FBBE2E"/>
<path d="M202.073 359.969C202.63 362.516 203.712 364.92 205.25 367.026C206.787 369.132 208.747 370.894 211.004 372.199" stroke="#0C114D" stroke-width="1.7" stroke-linecap="round" stroke-linejoin="round"/>
<path d="M420.692 357.831L427.613 368.363H420.692L423.933 373.261C423.933 373.261 415.951 374.606 417.154 377.621C418.357 380.636 423.551 380.028 423.551 380.028" stroke="#FFC7BF" stroke-width="1.7" stroke-linecap="round" stroke-linejoin="round"/>
<path d="M611.754 414.766L612.476 427.351L606.489 423.897L606.828 429.743C606.828 429.743 599.242 426.912 598.789 430.139C598.336 433.367 603.12 435.419 603.12 435.419" stroke="#935000" stroke-width="1.7" stroke-linecap="round" stroke-linejoin="round"/>
<path d="M509.323 584.509H522.331" stroke="#FF341A" stroke-width="1.7" stroke-linecap="round" stroke-linejoin="round"/>
<path d="M323.64 584.509H336.647" stroke="#FF341A" stroke-width="1.7" stroke-linecap="round" stroke-linejoin="round"/>
</g>
<defs>
<clipPath id="clip0_463:17921">
<rect width="878" height="777" fill="white"/>
</clipPath>
</defs>
</svg>
