<svg width="800" height="800" viewBox="0 0 800 800" fill="none" xmlns="http://www.w3.org/2000/svg">
<g clip-path="url(#clip0_459:21444)">
<path d="M682.453 682.453C838.648 526.257 838.648 273.013 682.453 116.817C526.257 -39.3783 273.013 -39.3783 116.818 116.817C-39.3783 273.013 -39.3783 526.257 116.818 682.453C273.013 838.648 526.257 838.648 682.453 682.453Z" fill="#B9E2FE"/>
<path fill-rule="evenodd" clip-rule="evenodd" d="M399.964 88.24L447.396 138.093C452.769 143.65 459.57 147.618 467.053 149.559C474.499 151.696 482.396 151.696 489.842 149.559L555.862 130.117L572.029 196.991C573.831 204.515 577.689 211.39 583.172 216.848C588.656 222.306 595.548 226.132 603.08 227.9L669.955 244.067L650.512 310.086C648.375 317.533 648.375 325.43 650.512 332.876C652.493 340.374 656.511 347.177 662.121 352.533L711.974 399.893L662.121 447.325C656.511 452.68 652.493 459.483 650.512 466.981C648.375 474.428 648.375 482.325 650.512 489.771L669.955 555.791L603.08 571.958C595.53 573.736 588.625 577.584 583.14 583.069C577.655 588.554 573.808 595.459 572.029 603.009L555.862 669.883L489.842 650.441C482.396 648.304 474.499 648.304 467.053 650.441C459.555 652.422 452.751 656.44 447.396 662.049L399.964 711.902L352.604 662.049C347.249 656.44 340.446 652.422 332.948 650.441C325.501 648.304 317.604 648.304 310.158 650.441L244.138 669.883L227.9 603.08C226.121 595.53 222.273 588.625 216.789 583.14C211.304 577.655 204.399 573.808 196.849 572.029L129.974 555.862L149.559 489.842C151.697 482.396 151.697 474.499 149.559 467.052C147.578 459.555 143.56 452.751 137.951 447.396L88.0977 399.964L137.951 352.604C143.56 347.249 147.578 340.445 149.559 332.948C151.697 325.501 151.697 317.604 149.559 310.158L130.117 244.138L196.92 227.9C204.448 226.115 211.332 222.273 216.802 216.802C222.273 211.331 226.115 204.448 227.9 196.92L244.067 130.045L310.158 149.559C317.604 151.696 325.501 151.696 332.948 149.559C340.446 147.578 347.249 143.56 352.604 137.951L399.964 88.24Z" fill="white"/>
<path fill-rule="evenodd" clip-rule="evenodd" d="M272.484 443.408C272.484 443.408 335.157 372.189 348.19 313.79C361.223 255.39 377.39 214.084 377.39 180.041C377.39 145.998 401.177 156.752 401.177 180.041V464.916C401.177 483.362 388.998 519.256 368.131 536.135C347.264 553.013 304.39 548.384 304.39 548.384L272.484 443.408Z" fill="#8D1A00"/>
<path fill-rule="evenodd" clip-rule="evenodd" d="M401.176 253.966C401.176 235.948 405.947 212.446 414.28 212.446C422.613 212.446 432.939 225.55 432.939 248.411C435.16 281.37 441.451 313.927 451.67 345.34C459.219 364.711 475.172 397.258 482.792 413.211C498.532 429.805 587.342 494.187 587.342 494.187V631.212C587.342 631.212 513.915 573.097 497.321 560.634C482.695 549.761 465.047 543.713 446.827 543.328C432.583 543.328 401.176 531.221 401.176 469.189V253.966Z" fill="#8D1A00"/>
<mask id="mask0_459:21444" style="mask-type:alpha" maskUnits="userSpaceOnUse" x="0" y="0" width="800" height="800">
<path d="M682.798 682.782C838.994 526.586 838.994 273.343 682.798 117.147C526.603 -39.049 273.359 -39.049 117.163 117.147C-39.0326 273.343 -39.0326 526.586 117.163 682.782C273.359 838.978 526.603 838.978 682.798 682.782Z" fill="#B9E2FE"/>
</mask>
<g mask="url(#mask0_459:21444)">
<path fill-rule="evenodd" clip-rule="evenodd" d="M497.748 560.705L545.963 463.42L746.301 612.267L689.469 711.76L497.748 560.705Z" fill="#FBBE2E"/>
<path fill-rule="evenodd" clip-rule="evenodd" d="M314.502 565.904L264.791 421.829L38.6719 594.32L134.96 723.867L314.502 565.904Z" fill="#163BF3"/>
</g>
<path d="M347.121 444.191C347.121 444.191 368.487 369.056 370.908 354.1C373.33 339.144 381.377 320.484 390.208 320.484C399.04 320.484 401.176 331.381 401.176 331.381" stroke="black" stroke-width="3" stroke-linecap="round" stroke-linejoin="round"/>
<path d="M431.444 452.168V358.942C431.444 346.194 428.31 326.965 417.2 323.333C406.09 319.701 401.461 331.594 401.461 331.594" stroke="black" stroke-width="3" stroke-linecap="round" stroke-linejoin="round"/>
<path d="M401.176 249.337V481.439" stroke="black" stroke-width="3" stroke-linecap="round" stroke-linejoin="round"/>
<path d="M400.393 106.97V48.1438" stroke="black" stroke-width="3" stroke-linecap="round" stroke-linejoin="round"/>
<path d="M408.654 575.02V633.847" stroke="black" stroke-width="3" stroke-linecap="round" stroke-linejoin="round"/>
<path d="M382.802 106.97L373.33 77.5571" stroke="black" stroke-width="3" stroke-linecap="round" stroke-linejoin="round"/>
<path d="M391.063 575.02L381.662 604.433" stroke="black" stroke-width="3" stroke-linecap="round" stroke-linejoin="round"/>
<path d="M417.199 106.97L426.6 77.5571" stroke="black" stroke-width="3" stroke-linecap="round" stroke-linejoin="round"/>
<path d="M425.461 575.02L434.933 604.433" stroke="black" stroke-width="3" stroke-linecap="round" stroke-linejoin="round"/>
<path fill-rule="evenodd" clip-rule="evenodd" d="M272.484 443.408L308.663 548.883C308.663 548.883 338.575 550.592 350.469 544.894C331.097 519.897 272.484 443.408 272.484 443.408Z" fill="black"/>
<path fill-rule="evenodd" clip-rule="evenodd" d="M545.75 463.42L476.383 548.883C483.949 551.962 491.121 555.931 497.748 560.705C502.449 551.518 545.75 463.42 545.75 463.42Z" fill="black"/>
</g>
<defs>
<clipPath id="clip0_459:21444">
<rect width="800" height="800" fill="white"/>
</clipPath>
</defs>
</svg>
