<svg width="1906" height="578" viewBox="0 0 1906 578" fill="none" xmlns="http://www.w3.org/2000/svg">
<g clip-path="url(#clip0_459:23267)">
<path fill-rule="evenodd" clip-rule="evenodd" d="M1478.75 566.4C1574.3 566.4 1579.08 569.1 1579.08 572.42C1579.08 575.74 1574.48 578.44 1478.75 578.44C1383.02 578.44 1378.42 575.74 1378.42 572.42C1378.42 569.1 1383.2 566.4 1478.75 566.4Z" fill="black"/>
<path fill-rule="evenodd" clip-rule="evenodd" d="M420.359 566.4C515.909 566.4 520.689 569.1 520.689 572.42C520.689 575.74 516.089 578.44 420.359 578.44C324.629 578.44 320.029 575.74 320.029 572.42C320.029 569.1 324.809 566.4 420.359 566.4Z" fill="black"/>
<path d="M790.429 539.8C886.289 539.8 963.999 537.105 963.999 533.78C963.999 530.455 886.289 527.76 790.429 527.76C694.569 527.76 616.859 530.455 616.859 533.78C616.859 537.105 694.569 539.8 790.429 539.8Z" fill="black"/>
<path d="M1096.35 539.8C1192.22 539.8 1269.93 537.105 1269.93 533.78C1269.93 530.455 1192.22 527.76 1096.35 527.76C1000.48 527.76 922.77 530.455 922.77 533.78C922.77 537.105 1000.48 539.8 1096.35 539.8Z" fill="black"/>
<path fill-rule="evenodd" clip-rule="evenodd" d="M963.998 566.4C1409.32 566.4 1431.6 569.1 1431.6 572.42C1431.6 575.74 1410.15 578.44 963.998 578.44C517.848 578.44 496.398 575.74 496.398 572.42C496.398 569.1 518.678 566.4 963.998 566.4Z" fill="black"/>
<path fill-rule="evenodd" clip-rule="evenodd" d="M539.96 55.25C570.29 55.44 594.88 80.02 595.07 110.35V110.71C595.07 80.1 619.92 55.24 650.54 55.24C619.93 55.24 595.07 30.39 595.07 -0.219971V0.14003C594.87 30.59 570.1 55.24 539.6 55.24L539.96 55.25Z" fill="white"/>
<path fill-rule="evenodd" clip-rule="evenodd" d="M1345.94 55.25C1315.61 55.44 1291.03 80.02 1290.84 110.35V110.71C1290.84 80.1 1265.99 55.24 1235.38 55.24C1265.99 55.24 1290.84 30.39 1290.84 -0.219971V0.14003C1291.03 30.59 1315.81 55.24 1346.3 55.24L1345.94 55.25Z" fill="white"/>
<path fill-rule="evenodd" clip-rule="evenodd" d="M162.489 215.33C192.819 215.52 217.399 240.11 217.589 270.43V270.79C217.589 240.18 242.439 215.33 273.059 215.33C242.449 215.33 217.589 190.48 217.589 159.86V160.22C217.399 190.67 192.619 215.33 162.129 215.33H162.489Z" fill="white"/>
<path fill-rule="evenodd" clip-rule="evenodd" d="M1723.42 215.33C1693.09 215.52 1668.5 240.11 1668.31 270.43V270.79C1668.31 240.18 1643.46 215.33 1612.84 215.33C1643.45 215.33 1668.31 190.48 1668.31 159.86V160.22C1668.5 190.67 1693.28 215.33 1723.78 215.33H1723.42Z" fill="white"/>
<path d="M306.6 5.78003C306.6 5.78003 415.38 9.63003 476.02 103" stroke="black" stroke-width="1.6667" stroke-miterlimit="10" stroke-linecap="round" stroke-linejoin="round"/>
<path d="M1599.12 5.78003C1599.12 5.78003 1490.34 9.63003 1429.7 103" stroke="black" stroke-width="1.6667" stroke-miterlimit="10" stroke-linecap="round" stroke-linejoin="round"/>
<path d="M-0.150391 322.16L216.44 386.33" stroke="black" stroke-width="1.6667" stroke-miterlimit="10" stroke-linecap="round" stroke-linejoin="round"/>
<path d="M1905.87 322.16L1689.28 386.33" stroke="black" stroke-width="1.6667" stroke-miterlimit="10" stroke-linecap="round" stroke-linejoin="round"/>
<path d="M141.039 398.34L216.439 402.45" stroke="black" stroke-width="1.6667" stroke-miterlimit="10" stroke-linecap="round" stroke-linejoin="round"/>
<path d="M1764.68 398.34L1689.28 402.45" stroke="black" stroke-width="1.6667" stroke-miterlimit="10" stroke-linecap="round" stroke-linejoin="round"/>
<path fill-rule="evenodd" clip-rule="evenodd" d="M1104.77 295.56C1099.68 284.24 1094.97 277.11 1095.84 271.02C1101.78 267.69 1120.32 259.43 1120.32 259.43L1138.28 295.79C1138.28 295.79 1112.18 295.56 1104.77 295.56Z" fill="#24A865"/>
<path fill-rule="evenodd" clip-rule="evenodd" d="M1120.32 259.43C1120.32 259.43 1121.67 253.8 1120.46 250.65C1119.25 247.5 1115.08 248.42 1115.08 248.42V227.2C1115.08 224.23 1112.02 222.19 1111.28 227.11C1110.54 232.02 1109.16 244.54 1109.16 244.54C1109.16 244.54 1104.24 248.9 1101.55 251.21C1098.86 253.53 1097.38 256.54 1098.58 259.44C1099.79 262.34 1102.98 267.42 1102.98 267.42L1120.32 259.43Z" fill="#5B3100"/>
<path fill-rule="evenodd" clip-rule="evenodd" d="M1142.36 295.79C1142.36 295.79 1150.87 264.72 1153.41 257.65C1155.94 250.59 1160.11 242.44 1165.54 238.64C1170.97 234.84 1182.57 226.87 1182.57 226.87L1184.2 220.17H1225.67C1225.67 220.17 1229.47 227.41 1235.27 230.49C1241.07 233.57 1258.45 238.6 1261.89 245.77C1265.33 252.94 1266.06 257.23 1263.52 267.41C1261.12 277.05 1255.37 295.79 1255.37 295.79H1142.36Z" fill="#24A865"/>
<path d="M1218.84 254.02L1206.02 295.79" stroke="black" stroke-width="1.6667" stroke-miterlimit="10" stroke-linecap="round" stroke-linejoin="round"/>
<path d="M1182.56 226.88L1179.25 240.48" stroke="black" stroke-width="1.6667" stroke-miterlimit="10" stroke-linecap="round" stroke-linejoin="round"/>
<path fill-rule="evenodd" clip-rule="evenodd" d="M1184.19 220.17C1185.33 216.34 1185.72 212.19 1185.72 212.19H1174.34C1170.88 212.19 1167.52 208.33 1171.18 201.51C1174.84 194.68 1185.32 175.89 1198.47 170.85C1211.62 165.81 1231.6 171.44 1233.97 182.22C1236.34 193 1227.14 206.45 1226.65 211.1C1226.15 215.75 1225.64 220.17 1225.64 220.17H1184.19Z" fill="#5B3100"/>
<path fill-rule="evenodd" clip-rule="evenodd" d="M1186.05 179.86C1184.23 181.44 1178.53 182.27 1176.38 182.33C1174.23 182.39 1172.52 184.29 1174.8 185.5C1177.08 186.7 1179.26 188.27 1179.26 188.27C1179.26 188.27 1187.88 178.27 1186.05 179.86Z" fill="#5B3100"/>
<path d="M1200.87 191.19C1200.87 191.19 1198.86 195.62 1201.98 197.2C1205.11 198.78 1210.61 195.74 1213.21 192.83" stroke="black" stroke-width="1.6667" stroke-miterlimit="10" stroke-linecap="round" stroke-linejoin="round"/>
<path d="M1206.72 190.3L1211.69 185.5" stroke="black" stroke-width="1.6667" stroke-miterlimit="10" stroke-linecap="round" stroke-linejoin="round"/>
<path fill-rule="evenodd" clip-rule="evenodd" d="M1194.56 172.79L1207.96 180.69L1206.06 182.71L1207.39 183.98C1207.39 183.98 1215.18 177.19 1218.43 180.2C1220.63 182.24 1219.71 185.63 1217.53 190.02C1216.02 193.07 1212.96 198.41 1215.93 202.53C1218.91 206.64 1226.64 211.25 1226.64 211.25C1226.64 211.25 1234.54 195.39 1236.62 191.2C1238.7 187.01 1240.48 174.42 1225.84 169C1207.75 162.28 1194.56 172.79 1194.56 172.79Z" fill="black"/>
<path fill-rule="evenodd" clip-rule="evenodd" d="M1086.78 356.15L1063.84 474.46L1107.3 475.67L1128.43 392.37H1229.83C1235.87 392.37 1252.46 379.69 1252.46 351.93C1218.96 351.92 1086.78 356.15 1086.78 356.15Z" fill="#FBBE2E"/>
<path fill-rule="evenodd" clip-rule="evenodd" d="M1063.84 356.53C1063.84 356.53 1054.24 374.06 1078.23 401.75C1082.67 378.98 1086.78 357.67 1086.78 357.67L1063.84 356.53Z" fill="#C98600"/>
<path fill-rule="evenodd" clip-rule="evenodd" d="M1114.57 446.99L1134.1 480.79L1166.45 452.3L1142.31 392.37H1128.43L1114.57 446.99Z" fill="#C98600"/>
<path d="M1128.43 392.37H1114.57" stroke="black" stroke-width="1.6667" stroke-miterlimit="10" stroke-linecap="round" stroke-linejoin="round"/>
<path fill-rule="evenodd" clip-rule="evenodd" d="M1166.45 452.3L1195.65 500.22L1158.15 530.85H1110.2C1110.2 530.85 1115.45 521.23 1125.03 519.07C1134.61 516.91 1143.26 498.83 1143.26 498.83L1134.09 480.79L1166.45 452.3Z" fill="#0089E3"/>
<path d="M1254.67 392.06H1152.93V405.97H1254.67V392.06Z" fill="#CF1D00"/>
<path fill-rule="evenodd" clip-rule="evenodd" d="M1229.6 533.78H1172.75C1172.75 533.78 1187.05 517.57 1202.05 517.57C1217.04 517.57 1229.6 533.78 1229.6 533.78Z" fill="#FBBE2E"/>
<path d="M1201.17 525.68V405.97" stroke="#FBBE2E" stroke-width="1.6667" stroke-miterlimit="10" stroke-linecap="round" stroke-linejoin="round"/>
<path d="M1201.17 425.58V405.97" stroke="black" stroke-width="1.6667" stroke-miterlimit="10" stroke-linecap="round" stroke-linejoin="round"/>
<path fill-rule="evenodd" clip-rule="evenodd" d="M1176.92 191.71C1176.92 191.71 1180.01 194.99 1185.54 193.55C1188.9 192.67 1188.33 196.92 1185.13 197.84C1181.06 199.02 1176.88 198.08 1173.96 196.54C1174.91 194.56 1176.92 191.71 1176.92 191.71Z" fill="white"/>
<path d="M1190.52 180.28L1189.22 182.19" stroke="black" stroke-width="1.6667" stroke-miterlimit="10" stroke-linecap="round" stroke-linejoin="round"/>
<path fill-rule="evenodd" clip-rule="evenodd" d="M1063.84 474.46C1061.97 483.61 1057.94 507.2 1048.29 517.59C1038.63 527.97 1035.49 530.87 1035.49 530.87H1095.85V513.83L1107.3 475.67C1107.3 475.66 1077.76 474.46 1063.84 474.46Z" fill="#B9E2FE"/>
<path d="M954.281 535.91C1009.69 535.91 1054.61 533.215 1054.61 529.89C1054.61 526.565 1009.69 523.87 954.281 523.87C898.871 523.87 853.951 526.565 853.951 529.89C853.951 533.215 898.871 535.91 954.281 535.91Z" fill="black"/>
<path fill-rule="evenodd" clip-rule="evenodd" d="M894.801 98.5201C894.801 98.5201 896.891 43.9801 913.561 25.2201C930.231 6.46011 945.521 3.86011 957.511 3.86011V94.2801L894.801 98.5201Z" fill="#CF1D00"/>
<path fill-rule="evenodd" clip-rule="evenodd" d="M1020.2 98.5201C1020.2 98.5201 1018.12 43.9801 1001.44 25.2201C984.76 6.46011 969.48 3.86011 957.49 3.86011V94.2801L1020.2 98.5201Z" fill="#CF1D00"/>
<path fill-rule="evenodd" clip-rule="evenodd" d="M906.671 74.23C906.671 74.23 910.191 141.76 911.271 156.73C911.661 162.06 915.331 170.66 914.271 179.53C912.361 195.59 902.881 212.53 886.521 212.53C861.121 212.53 860.68 181.48 861.99 158.03C863.29 134.58 869.37 76.61 869.37 76.61L906.671 74.23Z" fill="#0089E3"/>
<path fill-rule="evenodd" clip-rule="evenodd" d="M888.021 73.0801C898.311 72.4501 906.671 72.96 906.671 74.23C906.671 75.51 898.311 77.0601 888.021 77.6901C877.731 78.3301 869.371 77.81 869.371 76.54C869.381 75.27 877.731 73.7201 888.021 73.0801Z" fill="black"/>
<path fill-rule="evenodd" clip-rule="evenodd" d="M944.931 78.9202C944.931 78.9202 918.211 89.3201 913.071 91.2601C907.931 93.2101 904.591 100.71 902.651 105.85C900.701 110.99 897.121 120.18 897.121 120.18V179.55H988.841V168.03C988.841 163.34 995.551 161.6 997.291 155C997.291 160.91 996.241 177.23 1010.84 182.97C1025.43 188.7 1036.72 182.45 1045.58 172.2C1054.44 161.95 1087.44 121.66 1094.22 113.15C1100.99 104.64 1102.9 84.2202 1109.16 76.6302C1103.6 70.7802 1089.19 59.6602 1089.19 59.6602L1030.65 119.23C1030.65 119.23 1017.62 103.08 1012.24 95.9602C1006.85 88.8402 1002.17 86.7602 994.871 85.3602C987.571 83.9702 970.391 78.9402 970.391 78.9402H944.931V78.9202Z" fill="#0089E3"/>
<path fill-rule="evenodd" clip-rule="evenodd" d="M901.81 76.09C901.81 76.09 905.71 66.12 906.67 61.68C907.63 57.23 910.27 50.28 902.49 50.28H831.76C826.48 50.28 826.06 53.75 832.04 54.59C838.01 55.42 874.28 61.95 877.89 62.23C881.5 62.51 882.34 66.54 881.22 69.45C880.11 72.37 879.7 77.96 879.7 77.96C879.7 77.96 891.27 78.55 901.81 76.09Z" fill="#5B3100"/>
<path fill-rule="evenodd" clip-rule="evenodd" d="M1089.18 59.6401C1089.18 56.6401 1088.87 52.2901 1093.04 49.3201C1097.21 46.3601 1100.45 43.6701 1102.02 45.4301C1103.59 47.1901 1102.02 51.0801 1100.35 52.7501C1107.57 52.7501 1132.03 52.6501 1136.66 52.6501C1141.29 52.6501 1142.13 56.2601 1137.59 57.1001C1133.05 57.9301 1128.97 59.0401 1124.16 63.0201C1119.34 67.0001 1109.09 76.5301 1109.09 76.5301C1109.09 76.5301 1092.33 62.1701 1089.18 59.6401Z" fill="#5B3100"/>
<path fill-rule="evenodd" clip-rule="evenodd" d="M988.851 179.54C988.851 185.12 1005.71 212.87 1005.71 235.06V319.8H902.211V246.42C902.211 229.33 914.271 206.13 914.271 179.53H988.851V179.54Z" fill="#6D83F3"/>
<path fill-rule="evenodd" clip-rule="evenodd" d="M902.221 319.8C902.221 329.87 915.161 414.81 915.161 414.81H954.281L948.821 319.8H902.221Z" fill="#5B3100"/>
<path fill-rule="evenodd" clip-rule="evenodd" d="M1005.71 319.8C1005.71 329.87 992.77 414.81 992.77 414.81H954.27L959.719 319.8H1005.71Z" fill="#5B3100"/>
<path fill-rule="evenodd" clip-rule="evenodd" d="M915.15 414.81H953.97L954.27 464.46H919.72L915.15 414.81Z" fill="#FFF3D6"/>
<path fill-rule="evenodd" clip-rule="evenodd" d="M993.091 414.81H954.271L953.971 464.46H988.511L993.091 414.81Z" fill="#FFF3D6"/>
<path fill-rule="evenodd" clip-rule="evenodd" d="M919.72 464.46C920.4 477.94 923.87 504.9 915.15 510.78C906.43 516.66 889.76 522.05 889.76 529.9H953.96V464.47H919.72V464.46Z" fill="#CF1D00"/>
<path fill-rule="evenodd" clip-rule="evenodd" d="M988.201 464.46C987.531 477.94 984.051 504.9 992.771 510.78C1001.49 516.66 1018.16 522.05 1018.16 529.9H953.961V464.47H988.201V464.46Z" fill="#CF1D00"/>
<path d="M907.88 95.5701C907.88 95.5701 906.91 146.38 906.23 172.32" stroke="black" stroke-width="1.6667" stroke-miterlimit="10" stroke-linecap="round" stroke-linejoin="round"/>
<path d="M990.131 113.21C990.131 113.21 1001.38 125.24 997.301 154.99" stroke="black" stroke-width="1.6667" stroke-miterlimit="10" stroke-linecap="round" stroke-linejoin="round"/>
<path d="M1030.65 119.21L1041.85 134.1" stroke="black" stroke-width="1.6667" stroke-miterlimit="10" stroke-linecap="round" stroke-linejoin="round"/>
<path fill-rule="evenodd" clip-rule="evenodd" d="M944.931 78.9202C944.931 78.9202 940.861 91.5402 948.141 104.71C952.461 100.18 957.501 94.2802 957.501 94.2802L944.931 78.9202Z" fill="white"/>
<path fill-rule="evenodd" clip-rule="evenodd" d="M970.23 78.9202C970.23 78.9202 974.29 91.5402 967.02 104.71C962.7 100.18 957.66 94.2802 957.66 94.2802L970.23 78.9202Z" fill="white"/>
<path d="M957.5 69.3401C971.025 69.3401 981.99 58.3756 981.99 44.8501C981.99 31.3247 971.025 20.3601 957.5 20.3601C943.974 20.3601 933.01 31.3247 933.01 44.8501C933.01 58.3756 943.974 69.3401 957.5 69.3401Z" fill="#5B3100"/>
<path fill-rule="evenodd" clip-rule="evenodd" d="M944.93 65.8702V78.9202L957.5 94.2802L970.38 78.9202V65.6802L944.93 65.8702Z" fill="#5B3100"/>
<path d="M914.471 179.54V133.94" stroke="black" stroke-width="1.6667" stroke-miterlimit="10" stroke-linecap="round" stroke-linejoin="round"/>
<path fill-rule="evenodd" clip-rule="evenodd" d="M929.99 33.8601H988.85C988.85 33.8601 965.77 3.86011 957.5 3.86011C949.23 3.86011 929.99 33.8601 929.99 33.8601Z" fill="#CF1D00"/>
<path d="M953.91 40.8701C953.91 43.6979 951.618 45.9901 948.79 45.9901C945.963 45.9901 943.67 43.6978 943.67 40.8701C943.67 38.0425 945.963 35.7501 948.79 35.7501C951.618 35.7501 953.91 38.0424 953.91 40.8701Z" fill="#FFE8E5" stroke="#0089E3" stroke-width="1.7"/>
<path d="M966.21 35.7401C969.039 35.7401 971.331 38.0377 971.331 40.8701C971.331 43.6997 969.032 45.9901 966.21 45.9901C963.379 45.9901 961.081 43.6905 961.08 40.8714C961.09 38.0371 963.383 35.7401 966.21 35.7401Z" fill="#FFE8E5" stroke="#0089E3" stroke-width="1.7"/>
<path fill-rule="evenodd" clip-rule="evenodd" d="M957.361 55.71C955.311 55.71 951.481 53.8 950.411 53.34C949.341 52.88 947.041 54.11 948.651 56.02C950.251 57.93 954.221 60.53 957.361 60.53C960.511 60.53 959.421 55.71 957.361 55.71Z" fill="#FFE8E5"/>
<path fill-rule="evenodd" clip-rule="evenodd" d="M957.641 55.71C959.701 55.71 963.521 53.8 964.591 53.34C965.661 52.88 967.961 54.11 966.351 56.02C964.741 57.93 960.781 60.53 957.641 60.53C954.491 60.53 955.581 55.71 957.641 55.71Z" fill="#FFE8E5"/>
<path d="M933.76 38.8201H942.81" stroke="#0089E3" stroke-width="1.7" stroke-miterlimit="10" stroke-linecap="round" stroke-linejoin="round"/>
<path d="M972.1 38.8201H981.15" stroke="#0089E3" stroke-width="1.7" stroke-miterlimit="10" stroke-linecap="round" stroke-linejoin="round"/>
<path d="M954.75 38.8202C956.59 37.0902 958.42 37.1202 960.26 38.8202" stroke="#0089E3" stroke-width="1.7" stroke-miterlimit="10" stroke-linecap="round" stroke-linejoin="round"/>
<path d="M933.76 161.07H976.62" stroke="black" stroke-width="1.6667" stroke-miterlimit="10" stroke-linecap="round" stroke-linejoin="round"/>
<path fill-rule="evenodd" clip-rule="evenodd" d="M667.38 202.23C667.05 204.64 666.93 210.96 664.79 212.5C655.61 219.13 635.24 225.85 637.18 243.3C639.57 264.81 648.35 298.27 648.35 298.27H751.92C751.92 298.27 736.24 246.85 733.69 237.73C731.14 228.61 724.87 220.39 714.79 217.03C704.97 213.76 695.5 210.93 695.5 210.93C695.5 210.93 675.89 202.23 667.38 202.23Z" fill="#B9E2FE"/>
<path fill-rule="evenodd" clip-rule="evenodd" d="M670.671 188.48C665.721 177.99 673.211 154.57 691.581 154.57C709.951 154.57 714.731 171.15 716.521 181.46C718.321 191.76 716.971 189.97 710.841 193.11C704.721 196.25 697.251 198.19 697.251 198.19C697.251 198.19 676.941 201.77 670.671 188.48Z" fill="#FFC7BF"/>
<path fill-rule="evenodd" clip-rule="evenodd" d="M670.001 186.76L667.381 202.23L695.011 214.47L697.251 198.19L670.001 186.76Z" fill="#0089E3"/>
<path d="M668.57 250.25L678.82 298.27" stroke="black" stroke-width="1.6667" stroke-miterlimit="10" stroke-linecap="round" stroke-linejoin="round"/>
<path d="M694.15 214.16L714.9 298.27" stroke="black" stroke-width="1.6667" stroke-miterlimit="10" stroke-linecap="round" stroke-linejoin="round"/>
<path fill-rule="evenodd" clip-rule="evenodd" d="M706.381 159.74C707.981 160.86 712.482 160.26 714.892 159.55C717.302 158.83 718.021 161.1 715.991 162.3C713.961 163.5 709.542 165.77 709.542 165.77C709.542 165.77 704.781 158.61 706.381 159.74Z" fill="#FFC7BF"/>
<path fill-rule="evenodd" clip-rule="evenodd" d="M667.38 351.87C667.38 359.33 664.13 392.07 694.15 392.07H757.55L785.1 497.75H871.65C871.65 497.75 845.4 373.27 839.88 355.77C834.37 338.26 828.21 328.54 804.55 328.54H669.17C669.18 328.53 667.38 344.41 667.38 351.87Z" fill="#CF1D00"/>
<path d="M757.551 392.06H783.161" stroke="black" stroke-width="1.6667" stroke-miterlimit="10" stroke-linecap="round" stroke-linejoin="round"/>
<path d="M811.041 363.21L837.621 497.74" stroke="black" stroke-width="1.6667" stroke-miterlimit="10" stroke-linecap="round" stroke-linejoin="round"/>
<path fill-rule="evenodd" clip-rule="evenodd" d="M823.131 497.74C824.621 503.55 832.691 536.8 832.691 536.8H901.311C905.881 536.8 904.281 530.21 897.811 527.67C891.331 525.12 875.011 515.2 871.861 497.75H823.131V497.74Z" fill="black"/>
<path fill-rule="evenodd" clip-rule="evenodd" d="M788.9 497.74C790.39 503.55 798.46 536.8 798.46 536.8H867.08C871.65 536.8 870.05 530.21 863.58 527.67C857.1 525.12 840.78 515.2 837.63 497.75H788.9V497.74Z" fill="#0089E3"/>
<path d="M739.091 392.06H632.121V405.97H739.091V392.06Z" fill="#FBBE2E"/>
<path fill-rule="evenodd" clip-rule="evenodd" d="M657.182 533.78H714.032C714.032 533.78 699.732 517.57 684.742 517.57C669.742 517.57 657.182 533.78 657.182 533.78Z" fill="#FBBE2E"/>
<path d="M685.602 525.68V405.97" stroke="#FBBE2E" stroke-width="1.6667" stroke-miterlimit="10" stroke-linecap="round" stroke-linejoin="round"/>
<path d="M685.602 425.58V405.97" stroke="black" stroke-width="1.6667" stroke-miterlimit="10" stroke-linecap="round" stroke-linejoin="round"/>
<path fill-rule="evenodd" clip-rule="evenodd" d="M712.931 168.95C712.931 168.95 706.921 170.94 703.451 171.07C699.981 171.21 700.391 175.49 703.721 175.42C707.051 175.35 711.751 175.34 714.871 174.26C714.601 172.16 712.931 168.95 712.931 168.95Z" fill="white"/>
<path d="M690.382 169C690.382 169 688.642 166.75 686.182 167.69C683.712 168.64 683.212 172.81 685.532 176.59C687.852 180.38 690.532 181.9 692.562 180.67C694.592 179.44 693.222 175.3 693.222 175.3" stroke="#CF1D00" stroke-width="1.6667" stroke-miterlimit="10" stroke-linecap="round" stroke-linejoin="round"/>
<path d="M687.641 171.51L690.281 176.6" stroke="#CF1D00" stroke-width="1.6667" stroke-miterlimit="10" stroke-linecap="round" stroke-linejoin="round"/>
<path d="M700.721 161.09L701.721 163.17" stroke="#CF1D00" stroke-width="1.6667" stroke-miterlimit="10" stroke-linecap="round" stroke-linejoin="round"/>
<path d="M963.201 369.3C1243.15 369.3 1470.1 359.003 1470.1 346.3C1470.1 333.597 1243.15 323.3 963.201 323.3C683.248 323.3 456.301 333.597 456.301 346.3C456.301 359.003 683.248 369.3 963.201 369.3Z" fill="#0089E3"/>
<path d="M1470.1 314H456.301V346.3H1470.1V314Z" fill="#0089E3"/>
<path d="M963.201 337C1243.15 337 1470.1 326.703 1470.1 314C1470.1 301.297 1243.15 291 963.201 291C683.248 291 456.301 301.297 456.301 314C456.301 326.703 683.248 337 963.201 337Z" fill="#FFC7BF"/>
<path fill-rule="evenodd" clip-rule="evenodd" d="M630.151 363.63C630.151 363.63 533.271 544.4 523.831 561.3C520.681 566.94 516.511 572.4 523.831 572.4C531.151 572.4 538.891 565.28 543.571 559.17C548.251 553.06 676.281 365.26 676.281 365.26L630.151 363.63Z" fill="#0089E3"/>
<path fill-rule="evenodd" clip-rule="evenodd" d="M1269.5 363.63C1269.5 363.63 1366.38 544.4 1375.82 561.3C1378.97 566.94 1383.14 572.4 1375.82 572.4C1368.5 572.4 1360.76 565.28 1356.08 559.17C1351.4 553.06 1223.37 365.26 1223.37 365.26L1269.5 363.63Z" fill="#0089E3"/>
<path fill-rule="evenodd" clip-rule="evenodd" d="M1231.87 377.72C1226.53 369.89 1223.37 365.26 1223.37 365.26L1269.5 363.64C1269.5 363.64 1272.32 368.91 1277.05 377.72H1231.87Z" fill="black"/>
<path fill-rule="evenodd" clip-rule="evenodd" d="M622.602 377.72C627.332 368.9 630.152 363.64 630.152 363.64L676.282 365.26C676.282 365.26 673.122 369.89 667.782 377.72H622.602Z" fill="black"/>
<path fill-rule="evenodd" clip-rule="evenodd" d="M1461.94 199.99C1465.93 204.28 1470.25 213.74 1480.52 219.49C1490.78 225.25 1508.79 228.22 1506.35 243.98C1503.92 259.73 1488.58 258.32 1488.58 258.32L1461.26 250.62C1461.25 250.62 1457.94 195.7 1461.94 199.99Z" fill="#5B3100"/>
<path fill-rule="evenodd" clip-rule="evenodd" d="M1461.25 250.62L1447.8 260.12C1447.8 260.12 1446.22 267.6 1446.09 273.29C1445.96 278.98 1457.15 317.55 1463.85 329.55C1470.55 341.55 1481.1 364.21 1481.1 364.21L1531.06 363.44C1531.06 363.44 1501.96 276.91 1493.72 263.77C1485.48 250.63 1461.25 250.62 1461.25 250.62Z" fill="#B9E2FE"/>
<path fill-rule="evenodd" clip-rule="evenodd" d="M1401.67 373.39C1386.77 376.47 1366.46 379.94 1362.72 406.78C1360.28 424.31 1364.33 435.52 1377.85 456.45C1391.37 477.37 1419.38 513.43 1419.38 513.43H1463.41C1463.41 513.43 1452.29 456.48 1444 446.18C1435.7 435.88 1425.5 431.02 1425.5 431.02H1509.52C1528.84 431.02 1550.36 407.08 1536.22 378.49C1495.36 372.43 1463.41 364.21 1463.41 364.21C1463.41 364.21 1420.13 369.58 1401.67 373.39Z" fill="#24A865"/>
<path fill-rule="evenodd" clip-rule="evenodd" d="M1419.37 513.43C1419.37 513.43 1429.35 528.24 1432.89 534.03C1436.43 539.82 1422.59 550.45 1412.29 552.7C1401.99 554.95 1383.96 570.41 1401.34 570.41H1479.56L1463.39 513.43H1419.37Z" fill="#CF1D00"/>
<path fill-rule="evenodd" clip-rule="evenodd" d="M1470.19 355.73C1470.19 355.73 1461.62 358.4 1459.94 364.65C1458.26 370.89 1462.71 377.05 1468.77 376.94C1473.1 367.45 1470.19 355.73 1470.19 355.73Z" fill="#FFC7BF"/>
<path fill-rule="evenodd" clip-rule="evenodd" d="M1474.6 350.59C1474.6 350.59 1466.07 356.96 1466.97 369.3C1467.91 382.05 1475.78 386.26 1488.57 386.26H1525.05C1533.03 386.26 1547.45 369 1538.96 349.95C1530.46 330.89 1496.26 268.67 1496.26 268.67L1474.6 350.59Z" fill="#B9E2FE"/>
<path d="M1456.64 276.81L1484.63 344.02" stroke="black" stroke-width="1.6667" stroke-miterlimit="10" stroke-linecap="round" stroke-linejoin="round"/>
<path d="M1474.6 350.59C1474.6 350.59 1477.16 348.15 1484.62 344.03C1492.09 339.91 1507.54 337.59 1516.3 347.64" stroke="black" stroke-width="1.6667" stroke-miterlimit="10" stroke-linecap="round" stroke-linejoin="round"/>
<path fill-rule="evenodd" clip-rule="evenodd" d="M1429.05 197.96C1423.25 203.06 1413.75 220.29 1414.1 234C1414.38 245.02 1423.6 244.2 1429.93 244.2H1438.9L1447.8 260.11L1461.25 250.61L1455.89 210.59C1455.9 210.6 1434.85 192.87 1429.05 197.96Z" fill="#FFC7BF"/>
<path fill-rule="evenodd" clip-rule="evenodd" d="M1426.84 200.29C1426.84 200.29 1430.39 215.72 1446.09 221.57C1449.28 233.18 1450.28 248.72 1461.25 250.62C1466.02 234.53 1468.46 206.08 1461.25 199.24C1454.05 192.4 1435.18 188.73 1426.84 200.29Z" fill="#5B3100"/>
<path d="M1580.03 431.63H1473.06V445.54H1580.03V431.63Z" fill="#FBBE2E"/>
<path fill-rule="evenodd" clip-rule="evenodd" d="M1498.13 573.35H1554.98C1554.98 573.35 1540.68 557.14 1525.69 557.14C1510.69 557.14 1498.13 573.35 1498.13 573.35Z" fill="#FBBE2E"/>
<path d="M1526.55 565.25V445.54" stroke="#FBBE2E" stroke-width="1.6667" stroke-miterlimit="10" stroke-linecap="round" stroke-linejoin="round"/>
<path d="M1526.55 465.15V445.54" stroke="black" stroke-width="1.6667" stroke-miterlimit="10" stroke-linecap="round" stroke-linejoin="round"/>
<path d="M1424.8 211.28L1423.5 213.2" stroke="#5B3100" stroke-width="1.6667" stroke-miterlimit="10" stroke-linecap="round" stroke-linejoin="round"/>
<path fill-rule="evenodd" clip-rule="evenodd" d="M1447.8 260.12C1438.8 267.76 1418.52 287.03 1401.21 288.27C1383.91 289.51 1346.41 295.69 1339.4 299.4C1344.96 305.99 1354.44 318.97 1354.44 318.97C1354.44 318.97 1368.85 318.32 1381.64 317.73C1394.42 317.15 1423.47 315.26 1432.12 311.96C1440.77 308.66 1456.64 302.48 1456.64 302.48C1456.64 302.48 1454.55 254.39 1447.8 260.12Z" fill="#B9E2FE"/>
<path fill-rule="evenodd" clip-rule="evenodd" d="M1339.41 299.39C1333.6 301.92 1321.45 315.64 1313.91 318.96C1306.37 322.28 1301.76 322.84 1301.76 324.53C1301.76 326.22 1305.36 325.77 1309.75 325.77C1314.14 325.77 1335.32 318.91 1339.41 317.33C1343.51 315.75 1344.18 316.43 1343.28 318.96C1342.38 321.49 1342.38 324.42 1345.19 324.42C1348 324.42 1354.45 318.96 1354.45 318.96C1354.45 318.96 1344.09 305.42 1339.41 299.39Z" fill="#FFE8E5"/>
<path d="M1425.49 431.01H1412.03" stroke="black" stroke-width="1.6667" stroke-miterlimit="10" stroke-linecap="round" stroke-linejoin="round"/>
<path fill-rule="evenodd" clip-rule="evenodd" d="M1420.58 210.05C1419.63 211.78 1415.21 215.06 1409.98 214.59C1408.07 214.41 1407.57 217 1409.45 217.5C1412.12 218.21 1416.6 219.47 1416.6 219.47C1416.6 219.47 1420.12 214.67 1420.58 210.05Z" fill="#FFC7BF"/>
<path fill-rule="evenodd" clip-rule="evenodd" d="M1415.04 225.18C1417.18 225.95 1420.34 226.61 1423.11 225.11C1425.88 223.61 1427.46 226.11 1425.38 227.61C1423.3 229.11 1418.59 230.23 1414.33 229.42C1414.49 227.65 1414.71 226.35 1415.04 225.18Z" fill="white"/>
<path d="M1453.83 303.58L1446.31 278.84" stroke="black" stroke-width="1.6667" stroke-miterlimit="10" stroke-linecap="round" stroke-linejoin="round"/>
<path d="M435.71 431.63H328.74V445.54H435.71V431.63Z" fill="#FBBE2E"/>
<path fill-rule="evenodd" clip-rule="evenodd" d="M353.801 573.35H410.651C410.651 573.35 396.351 557.14 381.361 557.14C366.361 557.14 353.801 573.35 353.801 573.35Z" fill="#FBBE2E"/>
<path d="M382.221 565.25V445.54" stroke="#FBBE2E" stroke-width="1.6667" stroke-miterlimit="10" stroke-linecap="round" stroke-linejoin="round"/>
<path d="M382.221 465.15V445.54" stroke="black" stroke-width="1.6667" stroke-miterlimit="10" stroke-linecap="round" stroke-linejoin="round"/>
<path fill-rule="evenodd" clip-rule="evenodd" d="M446.25 238.7C446.25 238.7 452.04 228.93 454.45 226.03C456.87 223.13 451.93 214.72 454.25 207.76C456.57 200.79 475.41 183.6 483.78 185.62C492.16 187.65 509.94 197.89 508.78 214.72C507.62 231.54 504.04 238.02 502.59 240.92C501.14 243.82 494.37 245.47 490.5 243.92C486.63 242.37 483.15 241.4 483.15 241.4L473.5 256L446.25 238.7Z" fill="#8D1A00"/>
<path fill-rule="evenodd" clip-rule="evenodd" d="M508.65 216.55C508.47 219.44 511.59 222.93 514.61 223.67C517.63 224.41 517.48 226.69 515.4 226.69H507.32C507.32 226.7 506.75 218.54 508.65 216.55Z" fill="#8D1A00"/>
<path fill-rule="evenodd" clip-rule="evenodd" d="M439.391 164.22C454.901 164.22 467.501 176.81 467.501 192.32C467.501 207.83 454.901 220.42 439.391 220.42C423.881 220.42 411.291 207.83 411.291 192.32C411.281 176.81 423.881 164.22 439.391 164.22Z" fill="black"/>
<path fill-rule="evenodd" clip-rule="evenodd" d="M454.26 207.75C453.64 210.22 453.73 218.37 454.97 221.63C463.22 220.03 480.24 218.69 483.23 213.95C486.22 209.2 486.33 208.01 489 207.83C491.68 207.66 491.79 214.01 490.75 216.56C493.53 211.16 502.47 197.31 502.47 197.31C502.47 197.31 494.84 186.08 483.81 185.46C475.08 184.96 459.48 186.87 454.26 207.75Z" fill="black"/>
<path fill-rule="evenodd" clip-rule="evenodd" d="M446.25 238.7L473.5 256L468.9 265.32C468.9 265.32 468.9 276.2 464.47 285.26C460.04 294.32 453.66 305.4 453.66 305.4C453.66 305.4 477.77 299.36 489.65 296.54C501.53 293.72 504.55 300.77 504.75 307.01C504.95 313.25 502.94 317.89 496.09 321.92C489.24 325.95 450.56 355.56 444.32 358.38C438.07 361.2 429.01 367.04 424.98 366.44C423.97 370.47 420.95 379.13 420.95 379.13H356.5C356.5 369.66 366.17 363.62 368.18 356.57C370.2 349.52 375.63 302.59 390.74 284.86C405.85 267.13 436.08 242.89 446.25 238.7Z" fill="#6D83F3"/>
<path d="M453.65 305.4L438.65 332.17" stroke="black" stroke-width="1.6667" stroke-miterlimit="10" stroke-linecap="round" stroke-linejoin="round"/>
<path d="M423.17 268.74C423.17 268.74 405.24 330.38 400.61 345.89C395.98 361.4 410.08 370.46 424.99 366.44" stroke="black" stroke-width="1.6667" stroke-miterlimit="10" stroke-linecap="round" stroke-linejoin="round"/>
<path d="M468.901 265.32C468.341 261.13 462.411 254.81 455.451 251.72" stroke="black" stroke-width="1.6667" stroke-miterlimit="10" stroke-linecap="round" stroke-linejoin="round"/>
<path fill-rule="evenodd" clip-rule="evenodd" d="M356.501 379.12C354.601 386.85 339.291 431.76 370.311 431.76H478.261L446.041 545.77H488.641C488.641 545.77 528.821 447.07 533.451 435.59C538.081 424.11 532.421 397.6 511.501 393.89C492.161 390.47 420.961 379.12 420.961 379.12H356.501Z" fill="#CF1D00"/>
<path d="M478.109 431.77H488.489" stroke="black" stroke-width="1.6667" stroke-miterlimit="10" stroke-linecap="round" stroke-linejoin="round"/>
<path fill-rule="evenodd" clip-rule="evenodd" d="M500.98 297.85C507.13 297.85 521.79 302.89 527.43 307.08C533.07 311.27 536.13 313.2 540 313.2C543.87 313.2 543.87 317.07 540 317.07H501.9C501.9 317.08 494.84 297.85 500.98 297.85Z" fill="#8D1A00"/>
<path fill-rule="evenodd" clip-rule="evenodd" d="M446.04 545.77C444.21 551.69 432.38 564.53 439.68 568.81H516.8C516.8 564.54 514.74 564.28 507.26 561.7C499.79 559.12 484.31 556.01 488.63 545.77H446.04Z" fill="#FBBE2E"/>
<path fill-rule="evenodd" clip-rule="evenodd" d="M506.34 231.3C506.34 231.3 500.42 229.06 497.64 226.99C494.86 224.91 492.48 228.5 495.11 230.54C497.74 232.59 501.41 235.53 504.51 236.66C505.62 234.85 506.34 231.3 506.34 231.3Z" fill="white"/>
<path d="M506.34 215.12V216.55" stroke="black" stroke-width="1.6667" stroke-miterlimit="10" stroke-linecap="round" stroke-linejoin="round"/>
</g>
<defs>
<clipPath id="clip0_459:23267">
<rect width="1906" height="578" fill="white"/>
</clipPath>
</defs>
</svg>
