<svg width="1871" height="632" viewBox="0 0 1871 632" fill="none" xmlns="http://www.w3.org/2000/svg">
<g clip-path="url(#clip0_459:22469)">
<path fill-rule="evenodd" clip-rule="evenodd" d="M1075.22 146.38H1268.23C1268.23 146.38 1247.81 124.07 1224.59 124.07C1201.36 124.07 1182.36 127.45 1168.42 127.45C1154.48 127.45 1143.5 108.87 1117.74 108.87C1091.98 108.86 1061.84 129.83 1075.22 146.38Z" fill="white"/>
<path fill-rule="evenodd" clip-rule="evenodd" d="M232.582 205.65H483.772C483.772 205.65 477.852 173.51 454.172 173.51C430.492 173.51 412.732 177.74 394.122 177.74C375.512 177.74 379.742 150.68 332.382 150.68C285.022 150.68 232.582 205.65 232.582 205.65Z" fill="white"/>
<path fill-rule="evenodd" clip-rule="evenodd" d="M641.352 86.1301H715.302C715.302 86.1301 699.492 68.5801 689.982 68.9801C680.482 69.3801 676.922 61.8501 661.872 61.8501C646.822 61.8501 641.352 86.1301 641.352 86.1301Z" fill="white"/>
<path fill-rule="evenodd" clip-rule="evenodd" d="M1534.15 298.7H1608.1C1608.1 298.7 1592.29 281.16 1582.78 281.55C1573.28 281.95 1569.72 274.42 1554.67 274.42C1539.62 274.42 1534.15 298.7 1534.15 298.7Z" fill="white"/>
<path d="M-355.34 631.85H2158.38" stroke="#FFC7BF" stroke-width="2.0833" stroke-miterlimit="10" stroke-linecap="round" stroke-linejoin="round"/>
<path fill-rule="evenodd" clip-rule="evenodd" d="M1242.47 -14.3604L1245.4 132.75H1239.55L1242.47 -14.3604Z" fill="#FF341A"/>
<path d="M1303.68 395.03H1181.27V632.43H1303.68V395.03Z" fill="#FFC7BF"/>
<path fill-rule="evenodd" clip-rule="evenodd" d="M1256.67 166.32C1256.67 145.83 1250.31 129.22 1242.47 129.22C1234.62 129.22 1228.27 145.83 1228.27 166.32V330.85H1256.68V166.32H1256.67Z" fill="#FFC7BF"/>
<path fill-rule="evenodd" clip-rule="evenodd" d="M1263.7 187.69C1263.7 167.2 1254.2 150.59 1242.47 150.59C1230.75 150.59 1221.24 167.2 1221.24 187.69V352.22H1263.7V187.69Z" fill="#FFE8E5"/>
<path fill-rule="evenodd" clip-rule="evenodd" d="M1242.48 162.22L1244.7 171.87H1240.26L1242.48 162.22Z" fill="#FF341A"/>
<path fill-rule="evenodd" clip-rule="evenodd" d="M1231.42 164.84L1237.88 172.35L1233.96 174.41L1231.42 164.84Z" fill="#FF341A"/>
<path fill-rule="evenodd" clip-rule="evenodd" d="M1224.35 173.55L1231.97 175.99L1229.5 179.68L1224.35 173.55Z" fill="#FF341A"/>
<path fill-rule="evenodd" clip-rule="evenodd" d="M1260.59 173.55L1252.97 175.99L1255.45 179.68L1260.59 173.55Z" fill="#FF341A"/>
<path fill-rule="evenodd" clip-rule="evenodd" d="M1253.53 164.84L1247.07 172.35L1251 174.41L1253.53 164.84Z" fill="#FF341A"/>
<path fill-rule="evenodd" clip-rule="evenodd" d="M1272.48 208.84C1272.48 188.35 1259.04 171.74 1242.47 171.74C1225.89 171.74 1212.46 188.35 1212.46 208.84V373.37H1272.49V208.84H1272.48Z" fill="#FFC7BF"/>
<path fill-rule="evenodd" clip-rule="evenodd" d="M1242.48 179.8L1245.55 193.17H1239.4L1242.48 179.8Z" fill="#FF341A"/>
<path fill-rule="evenodd" clip-rule="evenodd" d="M1227.17 183.43L1236.12 193.83L1230.68 196.7L1227.17 183.43Z" fill="#FF341A"/>
<path fill-rule="evenodd" clip-rule="evenodd" d="M1217.38 195.5L1227.92 198.88L1224.5 203.98L1217.38 195.5Z" fill="#FF341A"/>
<path fill-rule="evenodd" clip-rule="evenodd" d="M1267.57 195.5L1257.02 198.88L1260.45 203.98L1267.57 195.5Z" fill="#FF341A"/>
<path fill-rule="evenodd" clip-rule="evenodd" d="M1257.79 183.43L1248.84 193.83L1254.28 196.7L1257.79 183.43Z" fill="#FF341A"/>
<path fill-rule="evenodd" clip-rule="evenodd" d="M1279.57 230.49C1279.57 210 1262.96 193.39 1242.47 193.39C1221.98 193.39 1205.37 210 1205.37 230.49V395.02H1279.58V230.49H1279.57Z" fill="#FFE8E5"/>
<path fill-rule="evenodd" clip-rule="evenodd" d="M1242.48 200.439L1246.2 216.599H1238.76L1242.48 200.439Z" fill="#FF341A"/>
<path fill-rule="evenodd" clip-rule="evenodd" d="M1223.97 204.82L1234.79 217.4L1228.21 220.86L1223.97 204.82Z" fill="#FF341A"/>
<path fill-rule="evenodd" clip-rule="evenodd" d="M1212.12 219.419L1224.88 223.499L1220.73 229.679L1212.12 219.419Z" fill="#FF341A"/>
<path fill-rule="evenodd" clip-rule="evenodd" d="M1272.82 219.419L1260.06 223.499L1264.21 229.679L1272.82 219.419Z" fill="#FF341A"/>
<path fill-rule="evenodd" clip-rule="evenodd" d="M1261 204.82L1250.17 217.4L1256.76 220.86L1261 204.82Z" fill="#FF341A"/>
<path fill-rule="evenodd" clip-rule="evenodd" d="M1285.98 259.77C1285.98 235.74 1266.5 216.27 1242.47 216.27C1218.44 216.27 1198.96 235.75 1198.96 259.77V395.03H1285.98V259.77Z" fill="#FFC7BF"/>
<path fill-rule="evenodd" clip-rule="evenodd" d="M1242.48 222.07L1246.82 240.93H1238.15L1242.48 222.07Z" fill="#FF341A"/>
<path fill-rule="evenodd" clip-rule="evenodd" d="M1220.89 227.189L1233.51 241.859L1225.84 245.899L1220.89 227.189Z" fill="#FF341A"/>
<path fill-rule="evenodd" clip-rule="evenodd" d="M1207.07 244.209L1221.95 248.969L1217.12 256.179L1207.07 244.209Z" fill="#FF341A"/>
<path fill-rule="evenodd" clip-rule="evenodd" d="M1277.87 244.209L1262.99 248.969L1267.82 256.179L1277.87 244.209Z" fill="#FF341A"/>
<path fill-rule="evenodd" clip-rule="evenodd" d="M1264.08 227.189L1251.46 241.859L1259.13 245.899L1264.08 227.189Z" fill="#FF341A"/>
<path fill-rule="evenodd" clip-rule="evenodd" d="M1288.65 287.139C1288.65 261.639 1267.98 240.959 1242.48 240.959C1216.98 240.959 1196.31 261.639 1196.31 287.139V395.029H1288.66V287.139H1288.65Z" fill="#FFE8E5"/>
<path fill-rule="evenodd" clip-rule="evenodd" d="M1274.33 299.73C1274.33 291.28 1270.97 283.18 1265 277.21C1259.03 271.24 1250.93 267.88 1242.47 267.88C1234.02 267.88 1225.92 271.24 1219.95 277.21C1213.97 283.19 1210.62 291.29 1210.62 299.73V395.03H1274.33V299.73Z" fill="#FFC7BF"/>
<path d="M1210.62 395.03H1181.27V438.91H1210.62V395.03Z" fill="#FF341A"/>
<path d="M1303.32 395.03H1273.97V438.91H1303.32V395.03Z" fill="#FF341A"/>
<path fill-rule="evenodd" clip-rule="evenodd" d="M1242.47 246.2L1247.46 267.88H1237.48L1242.47 246.2Z" fill="#FF341A"/>
<path fill-rule="evenodd" clip-rule="evenodd" d="M1217.65 252.08L1232.15 268.94L1223.33 273.58L1217.65 252.08Z" fill="#FF341A"/>
<path fill-rule="evenodd" clip-rule="evenodd" d="M1201.76 271.649L1218.86 277.119L1213.3 285.399L1201.76 271.649Z" fill="#FF341A"/>
<path fill-rule="evenodd" clip-rule="evenodd" d="M1283.15 271.649L1266.05 277.119L1271.6 285.399L1283.15 271.649Z" fill="#FF341A"/>
<path fill-rule="evenodd" clip-rule="evenodd" d="M1267.3 252.08L1252.79 268.94L1261.61 273.58L1267.3 252.08Z" fill="#FF341A"/>
<path d="M1241.52 293.149H1235.22V301.409H1241.52V293.149Z" fill="#FFE8E5"/>
<path d="M1249.72 293.149H1243.42V301.409H1249.72V293.149Z" fill="#FFE8E5"/>
<path d="M1265.44 293.149H1259.14V301.409H1265.44V293.149Z" fill="#FFE8E5"/>
<path d="M1225.8 293.149H1219.5V301.409H1225.8V293.149Z" fill="#FFE8E5"/>
<path d="M1241.52 327.06H1235.22V335.32H1241.52V327.06Z" fill="#FFE8E5"/>
<path d="M1249.72 327.06H1243.42V335.32H1249.72V327.06Z" fill="#FFE8E5"/>
<path d="M1265.44 327.06H1259.14V335.32H1265.44V327.06Z" fill="#FFE8E5"/>
<path d="M1225.8 327.06H1219.5V335.32H1225.8V327.06Z" fill="#FFE8E5"/>
<path d="M1241.52 360.97H1235.22V369.23H1241.52V360.97Z" fill="#FFE8E5"/>
<path d="M1249.72 360.97H1243.42V369.23H1249.72V360.97Z" fill="#FFE8E5"/>
<path d="M1265.44 360.97H1259.14V369.23H1265.44V360.97Z" fill="#FFE8E5"/>
<path d="M1225.8 360.97H1219.5V369.23H1225.8V360.97Z" fill="#FFE8E5"/>
<path d="M1241.52 310.1H1235.22V318.36H1241.52V310.1Z" fill="#FFE8E5"/>
<path d="M1249.72 310.1H1243.42V318.36H1249.72V310.1Z" fill="#FFE8E5"/>
<path d="M1265.44 310.1H1259.14V318.36H1265.44V310.1Z" fill="#FFE8E5"/>
<path d="M1225.8 310.1H1219.5V318.36H1225.8V310.1Z" fill="#FFE8E5"/>
<path d="M1241.52 344.01H1235.22V352.27H1241.52V344.01Z" fill="#FFE8E5"/>
<path d="M1249.72 344.01H1243.42V352.27H1249.72V344.01Z" fill="#FFE8E5"/>
<path d="M1265.44 344.01H1259.14V352.27H1265.44V344.01Z" fill="#FFE8E5"/>
<path d="M1225.8 344.01H1219.5V352.27H1225.8V344.01Z" fill="#FFE8E5"/>
<path d="M1241.52 377.92H1235.22V386.18H1241.52V377.92Z" fill="#FFE8E5"/>
<path d="M1249.72 377.92H1243.42V386.18H1249.72V377.92Z" fill="#FFE8E5"/>
<path d="M1265.44 377.92H1259.14V386.18H1265.44V377.92Z" fill="#FFE8E5"/>
<path d="M1225.8 377.92H1219.5V386.18H1225.8V377.92Z" fill="#FFE8E5"/>
<path d="M1241.52 411.18H1235.22V419.44H1241.52V411.18Z" fill="#FFE8E5"/>
<path d="M1249.72 411.18H1243.42V419.44H1249.72V411.18Z" fill="#FFE8E5"/>
<path d="M1265.44 411.18H1259.14V419.44H1265.44V411.18Z" fill="#FFE8E5"/>
<path d="M1225.8 411.18H1219.5V419.44H1225.8V411.18Z" fill="#FFE8E5"/>
<path d="M1241.52 484.459H1235.22V492.719H1241.52V484.459Z" fill="#FFE8E5"/>
<path d="M1249.72 484.459H1243.42V492.719H1249.72V484.459Z" fill="#FFE8E5"/>
<path d="M1265.44 484.459H1259.14V492.719H1265.44V484.459Z" fill="#FFE8E5"/>
<path d="M1225.8 484.459H1219.5V492.719H1225.8V484.459Z" fill="#FFE8E5"/>
<path d="M1241.52 557.729H1235.22V565.99H1241.52V557.729Z" fill="#FFE8E5"/>
<path d="M1249.72 557.729H1243.42V565.99H1249.72V557.729Z" fill="#FFE8E5"/>
<path d="M1265.44 557.729H1259.14V565.99H1265.44V557.729Z" fill="#FFE8E5"/>
<path d="M1225.8 557.729H1219.5V565.99H1225.8V557.729Z" fill="#FFE8E5"/>
<path d="M1241.52 447.82H1235.22V456.08H1241.52V447.82Z" fill="#FFE8E5"/>
<path d="M1249.72 447.82H1243.42V456.08H1249.72V447.82Z" fill="#FFE8E5"/>
<path d="M1265.44 447.82H1259.14V456.08H1265.44V447.82Z" fill="#FFE8E5"/>
<path d="M1225.8 447.82H1219.5V456.08H1225.8V447.82Z" fill="#FFE8E5"/>
<path d="M1241.52 521.1H1235.22V529.36H1241.52V521.1Z" fill="#FFE8E5"/>
<path d="M1249.72 521.1H1243.42V529.36H1249.72V521.1Z" fill="#FFE8E5"/>
<path d="M1265.44 521.1H1259.14V529.36H1265.44V521.1Z" fill="#FFE8E5"/>
<path d="M1225.8 521.1H1219.5V529.36H1225.8V521.1Z" fill="#FFE8E5"/>
<path d="M1241.52 594.37H1235.22V602.63H1241.52V594.37Z" fill="#FFE8E5"/>
<path d="M1249.72 594.37H1243.42V602.63H1249.72V594.37Z" fill="#FFE8E5"/>
<path d="M1265.44 594.37H1259.14V602.63H1265.44V594.37Z" fill="#FFE8E5"/>
<path d="M1225.8 594.37H1219.5V602.63H1225.8V594.37Z" fill="#FFE8E5"/>
<path d="M1241.52 429.5H1235.22V437.76H1241.52V429.5Z" fill="#FFE8E5"/>
<path d="M1249.72 429.5H1243.42V437.76H1249.72V429.5Z" fill="#FFE8E5"/>
<path d="M1265.44 429.5H1259.14V437.76H1265.44V429.5Z" fill="#FFE8E5"/>
<path d="M1225.8 429.5H1219.5V437.76H1225.8V429.5Z" fill="#FFE8E5"/>
<path d="M1241.52 502.78H1235.22V511.04H1241.52V502.78Z" fill="#FFE8E5"/>
<path d="M1249.72 502.78H1243.42V511.04H1249.72V502.78Z" fill="#FFE8E5"/>
<path d="M1265.44 502.78H1259.14V511.04H1265.44V502.78Z" fill="#FFE8E5"/>
<path d="M1225.8 502.78H1219.5V511.04H1225.8V502.78Z" fill="#FFE8E5"/>
<path d="M1241.52 576.05H1235.22V584.31H1241.52V576.05Z" fill="#FFE8E5"/>
<path d="M1249.72 576.05H1243.42V584.31H1249.72V576.05Z" fill="#FFE8E5"/>
<path d="M1265.44 576.05H1259.14V584.31H1265.44V576.05Z" fill="#FFE8E5"/>
<path d="M1225.8 576.05H1219.5V584.31H1225.8V576.05Z" fill="#FFE8E5"/>
<path d="M1241.52 466.14H1235.22V474.4H1241.52V466.14Z" fill="#FFE8E5"/>
<path d="M1249.72 466.14H1243.42V474.4H1249.72V466.14Z" fill="#FFE8E5"/>
<path d="M1265.44 466.14H1259.14V474.4H1265.44V466.14Z" fill="#FFE8E5"/>
<path d="M1225.8 466.14H1219.5V474.4H1225.8V466.14Z" fill="#FFE8E5"/>
<path d="M1241.52 539.419H1235.22V547.679H1241.52V539.419Z" fill="#FFE8E5"/>
<path d="M1249.72 539.419H1243.42V547.679H1249.72V539.419Z" fill="#FFE8E5"/>
<path d="M1265.44 539.419H1259.14V547.679H1265.44V539.419Z" fill="#FFE8E5"/>
<path d="M1225.8 539.419H1219.5V547.679H1225.8V539.419Z" fill="#FFE8E5"/>
<path d="M1241.52 612.689H1235.22V620.949H1241.52V612.689Z" fill="#FFE8E5"/>
<path d="M1249.72 612.689H1243.42V620.949H1249.72V612.689Z" fill="#FFE8E5"/>
<path d="M1265.44 612.689H1259.14V620.949H1265.44V612.689Z" fill="#FFE8E5"/>
<path d="M1225.8 612.689H1219.5V620.949H1225.8V612.689Z" fill="#FFE8E5"/>
<path d="M1273.97 395.03H1210.62V400.54H1273.97V395.03Z" fill="#FFE8E5"/>
<path d="M1210.62 395.03H1196.3V400.54H1210.62V395.03Z" fill="#FFC7BF"/>
<path d="M1288.29 395.03H1273.97V400.54H1288.29V395.03Z" fill="#FFC7BF"/>
<path d="M1201.27 447.82H1194.97V456.08H1201.27V447.82Z" fill="#FFE8E5"/>
<path d="M1289.97 447.82H1283.67V456.08H1289.97V447.82Z" fill="#FFE8E5"/>
<path d="M1201.27 466.14H1194.97V474.4H1201.27V466.14Z" fill="#FFE8E5"/>
<path d="M1289.97 466.14H1283.67V474.4H1289.97V466.14Z" fill="#FFE8E5"/>
<path d="M1201.27 484.459H1194.97V492.719H1201.27V484.459Z" fill="#FFE8E5"/>
<path d="M1289.97 484.459H1283.67V492.719H1289.97V484.459Z" fill="#FFE8E5"/>
<path d="M1201.27 502.78H1194.97V511.04H1201.27V502.78Z" fill="#FFE8E5"/>
<path d="M1289.97 502.78H1283.67V511.04H1289.97V502.78Z" fill="#FFE8E5"/>
<path d="M1201.27 521.1H1194.97V529.36H1201.27V521.1Z" fill="#FFE8E5"/>
<path d="M1289.97 521.1H1283.67V529.36H1289.97V521.1Z" fill="#FFE8E5"/>
<path d="M1201.27 539.419H1194.97V547.679H1201.27V539.419Z" fill="#FFE8E5"/>
<path d="M1289.97 539.419H1283.67V547.679H1289.97V539.419Z" fill="#FFE8E5"/>
<path d="M1201.27 557.729H1194.97V565.99H1201.27V557.729Z" fill="#FFE8E5"/>
<path d="M1289.97 557.729H1283.67V565.99H1289.97V557.729Z" fill="#FFE8E5"/>
<path d="M1201.27 576.05H1194.97V584.31H1201.27V576.05Z" fill="#FFE8E5"/>
<path d="M1289.97 576.05H1283.67V584.31H1289.97V576.05Z" fill="#FFE8E5"/>
<path d="M1201.27 594.37H1194.97V602.63H1201.27V594.37Z" fill="#FFE8E5"/>
<path d="M1289.97 594.37H1283.67V602.63H1289.97V594.37Z" fill="#FFE8E5"/>
<path d="M1201.27 612.689H1194.97V620.949H1201.27V612.689Z" fill="#FFE8E5"/>
<path d="M1289.97 612.689H1283.67V620.949H1289.97V612.689Z" fill="#FFE8E5"/>
<path fill-rule="evenodd" clip-rule="evenodd" d="M769.03 322.859C825.94 322.859 872.15 369.069 872.15 425.979C872.15 482.889 825.95 529.099 769.03 529.099C712.11 529.099 665.91 482.889 665.91 425.979C665.91 369.069 712.11 322.859 769.03 322.859Z" fill="#9CE8C2"/>
<path d="M780.029 512.149H729.359V631.079H780.029V512.149Z" fill="#FFE8E5"/>
<path fill-rule="evenodd" clip-rule="evenodd" d="M81.361 491.13C74.551 478.15 81.881 455.11 100.211 445.68C118.541 436.25 161.491 456.68 184.541 449.87C207.591 443.06 212.821 404.82 250.011 390.16C287.201 375.49 337.481 416.35 337.481 416.35V588.3H84.501C84.501 588.3 88.171 504.11 81.361 491.13Z" fill="#9CE8C2"/>
<path fill-rule="evenodd" clip-rule="evenodd" d="M1636.12 491.13C1642.93 478.15 1635.6 455.11 1617.26 445.68C1598.93 436.25 1555.98 456.68 1532.93 449.87C1509.88 443.06 1504.65 404.82 1467.46 390.16C1430.27 375.5 1380 416.35 1380 416.35V588.3H1632.98C1632.98 588.3 1629.31 504.11 1636.12 491.13Z" fill="#9CE8C2"/>
<path d="M1455.31 262.68H1367.57V632.43H1455.31V262.68Z" fill="#FFE8E5"/>
<path d="M1367.01 262.68H1328.23V632.43H1367.01V262.68Z" fill="#FFC7BF"/>
<path d="M1456.55 292.09H1442.17V336.71H1456.55V292.09Z" fill="#FFC7BF"/>
<path d="M1367 292.09H1346.46V336.71H1367V292.09Z" fill="#FFC7BF"/>
<path d="M1462.5 292.09H1448.12V336.71H1462.5V292.09Z" fill="#FFE8E5"/>
<path d="M1358.5 292.09H1337.96V336.71H1358.5V292.09Z" fill="#FF341A"/>
<path d="M1462.89 336.72H1435.82V381.34H1462.89V336.72Z" fill="#FFC7BF"/>
<path d="M1376.07 336.72H1337.39V381.34H1376.07V336.72Z" fill="#FFC7BF"/>
<path d="M1468.85 336.72H1441.78V381.34H1468.85V336.72Z" fill="#FFE8E5"/>
<path d="M1367.57 336.72H1328.89V381.34H1367.57V336.72Z" fill="#FF341A"/>
<path d="M1473.37 381.34H1425.35V425.96H1473.37V381.34Z" fill="#FFC7BF"/>
<path d="M1391.03 381.34H1322.43V425.96H1391.03V381.34Z" fill="#FFC7BF"/>
<path d="M1479.32 381.34H1431.3V425.96H1479.32V381.34Z" fill="#FFE8E5"/>
<path d="M1382.53 381.34H1313.93V425.96H1382.53V381.34Z" fill="#FF341A"/>
<path d="M1478.76 425.97H1419.96V632.43H1478.76V425.97Z" fill="#FFC7BF"/>
<path d="M1398.74 425.97H1314.72V632.43H1398.74V425.97Z" fill="#FFC7BF"/>
<path d="M1484.71 425.97H1425.91V632.43H1484.71V425.97Z" fill="#FFE8E5"/>
<path d="M1390.24 425.97H1308.78V632.43H1390.24V425.97Z" fill="#FF341A"/>
<path d="M1337.59 437.32H1333.25V617.01H1337.59V437.32Z" fill="#FFC7BF"/>
<path d="M1337.59 391.33H1333.25V415.99H1337.59V391.33Z" fill="#FFC7BF"/>
<path d="M1444.67 391.33H1440.33V415.99H1444.67V391.33Z" fill="#FFC7BF"/>
<path d="M1350.67 437.32H1346.33V617.01H1350.67V437.32Z" fill="#FFC7BF"/>
<path d="M1350.67 391.33H1346.33V415.99H1350.67V391.33Z" fill="#FFC7BF"/>
<path d="M1457.75 391.33H1453.41V415.99H1457.75V391.33Z" fill="#FFC7BF"/>
<path d="M1363.21 437.32H1358.87V617.01H1363.21V437.32Z" fill="#FFC7BF"/>
<path d="M1363.21 391.33H1358.87V415.99H1363.21V391.33Z" fill="#FFC7BF"/>
<path d="M1470.29 391.33H1465.95V415.99H1470.29V391.33Z" fill="#FFC7BF"/>
<path d="M1444.4 437.32H1440.06V617.01H1444.4V437.32Z" fill="#FFC7BF"/>
<path d="M1457.48 437.32H1453.14V617.01H1457.48V437.32Z" fill="#FFC7BF"/>
<path d="M1470.01 437.32H1465.67V617.01H1470.01V437.32Z" fill="#FFC7BF"/>
<path d="M843.201 448.859H755.461V631.759H843.201V448.859Z" fill="#FFE8E5"/>
<path d="M1250.86 461.859H1154.02V631.759H1250.86V461.859Z" fill="#FFE8E5"/>
<path d="M1014.08 437.32H915.32V631.76H1014.08V437.32Z" fill="#FFE8E5"/>
<path d="M577.452 448.859H445.652V631.759H577.452V448.859Z" fill="#FFE8E5"/>
<path d="M864.219 105.609H830.52V631.759H864.219V105.609Z" fill="#FFC7BF"/>
<path d="M926.951 105.609H864.211V631.759H926.951V105.609Z" fill="#FFE8E5"/>
<path fill-rule="evenodd" clip-rule="evenodd" d="M830.52 440.709L864.209 105.609L895.579 631.759H830.52V440.709Z" fill="#FF341A"/>
<path fill-rule="evenodd" clip-rule="evenodd" d="M895.578 631.759L926.948 105.609V631.759H895.578Z" fill="#FFC7BF"/>
<path d="M911.259 94.0596H847.359V105.61H911.259V94.0596Z" fill="#FFC7BF"/>
<path fill-rule="evenodd" clip-rule="evenodd" d="M878.07 -0.330566L882.901 94.0594H873.23L878.07 -0.330566Z" fill="#FFC7BF"/>
<path d="M786.473 594.33C802.086 594.33 814.743 581.673 814.743 566.06C814.743 550.446 802.086 537.79 786.473 537.79C770.86 537.79 758.203 550.446 758.203 566.06C758.203 581.673 770.86 594.33 786.473 594.33Z" fill="#9CE8C2"/>
<path d="M786.473 558.28V631.07" stroke="#24A865" stroke-width="2.0833" stroke-miterlimit="10" stroke-linecap="round" stroke-linejoin="round"/>
<path d="M410.309 319.38H308.039V475.57H410.309V319.38Z" fill="#FF341A"/>
<path d="M472.192 319.38H369.922V475.57H472.192V319.38Z" fill="#FFC7BF"/>
<path d="M421.061 475.57H293.801V631.76H421.061V475.57Z" fill="#FF341A"/>
<path d="M484.69 475.57H357.43V631.76H484.69V475.57Z" fill="#FFC7BF"/>
<path d="M384.372 475.57H375.902V631.76H384.372V475.57Z" fill="#FFE8E5"/>
<path d="M305.559 475.57H300.879V631.76H305.559V475.57Z" fill="#FFC7BF"/>
<path d="M425.411 475.57H416.941V631.76H425.411V475.57Z" fill="#FFE8E5"/>
<path d="M328.231 475.57H323.551V631.76H328.231V475.57Z" fill="#FFC7BF"/>
<path d="M466.443 475.57H457.973V631.76H466.443V475.57Z" fill="#FFE8E5"/>
<path d="M350.91 475.57H346.23V631.76H350.91V475.57Z" fill="#FFC7BF"/>
<path d="M404.892 475.57H396.422V631.76H404.892V475.57Z" fill="#FFE8E5"/>
<path d="M316.891 475.57H312.211V631.76H316.891V475.57Z" fill="#FFC7BF"/>
<path d="M445.931 475.57H437.461V631.76H445.931V475.57Z" fill="#FFE8E5"/>
<path d="M339.571 475.57H334.891V631.76H339.571V475.57Z" fill="#FFC7BF"/>
<path fill-rule="evenodd" clip-rule="evenodd" d="M421.059 319.38H308.039L333.609 297.59H395.489L421.059 319.38Z" fill="#FFC7BF"/>
<path fill-rule="evenodd" clip-rule="evenodd" d="M472.192 319.38H369.922L395.492 297.59H446.622L472.192 319.38Z" fill="#FFE8E5"/>
<path d="M393.281 319.38H384.371V475.57H393.281V319.38Z" fill="#FFE8E5"/>
<path d="M319.842 319.38H314.402V475.57H319.842V319.38Z" fill="#FFC7BF"/>
<path d="M414.769 319.38H405.859V475.57H414.769V319.38Z" fill="#FFE8E5"/>
<path d="M332.94 319.38H327.5V475.57H332.94V319.38Z" fill="#FFC7BF"/>
<path d="M436.262 319.38H427.352V475.57H436.262V319.38Z" fill="#FFE8E5"/>
<path d="M346.049 319.38H340.609V475.57H346.049V319.38Z" fill="#FFC7BF"/>
<path d="M457.742 319.38H448.832V475.57H457.742V319.38Z" fill="#FFE8E5"/>
<path d="M359.163 319.38H353.723V475.57H359.163V319.38Z" fill="#FFC7BF"/>
<path fill-rule="evenodd" clip-rule="evenodd" d="M499.88 487.64C523.87 487.64 543.35 507.12 543.35 531.11C543.35 555.1 523.87 574.58 499.88 574.58C475.89 574.58 456.41 555.1 456.41 531.11C456.41 507.12 475.89 487.64 499.88 487.64Z" fill="#9CE8C2"/>
<path d="M499.879 519.14V631.07" stroke="#24A865" stroke-width="2.0833" stroke-miterlimit="10" stroke-linecap="round" stroke-linejoin="round"/>
<path d="M1306.22 574.58C1330.23 574.58 1349.69 555.117 1349.69 531.11C1349.69 507.102 1330.23 487.64 1306.22 487.64C1282.21 487.64 1262.75 507.102 1262.75 531.11C1262.75 555.117 1282.21 574.58 1306.22 574.58Z" fill="#9CE8C2"/>
<path d="M1306.22 519.14V631.07" stroke="#24A865" stroke-width="2.0833" stroke-miterlimit="10" stroke-linecap="round" stroke-linejoin="round"/>
<path d="M109.553 491.13H15.793V631.76H109.553V491.13Z" fill="#FFC7BF"/>
<path d="M49.6312 491.13H0.28125V631.76H49.6312V491.13Z" fill="#FF341A"/>
<path d="M38.3098 539.74H11.5898V583.15H38.3098V539.74Z" fill="#FFC7BF"/>
<path d="M95.302 539.74H68.582V583.15H95.302V539.74Z" fill="#FFE8E5"/>
<path d="M320.342 512.399H226.582V631.759H320.342V512.399Z" fill="#FFC7BF"/>
<path d="M226.571 512.399H192.031V631.759H226.571V512.399Z" fill="#FF341A"/>
<path d="M247.602 523.199H238.312V533.129H247.602V523.199Z" fill="#FFE8E5"/>
<path d="M247.602 541.729H238.312V551.659H247.602V541.729Z" fill="#FFE8E5"/>
<path d="M247.602 560.54H238.312V570.47H247.602V560.54Z" fill="#FFE8E5"/>
<path d="M247.602 581.6H238.312V591.53H247.602V581.6Z" fill="#FFE8E5"/>
<path d="M247.602 601.739H238.312V611.669H247.602V601.739Z" fill="#FFE8E5"/>
<path d="M288.271 523.199H278.98V533.129H288.271V523.199Z" fill="#FFE8E5"/>
<path d="M288.271 541.729H278.98V551.659H288.271V541.729Z" fill="#FFE8E5"/>
<path d="M288.271 560.54H278.98V570.47H288.271V560.54Z" fill="#FFE8E5"/>
<path d="M288.271 581.6H278.98V591.53H288.271V581.6Z" fill="#FFE8E5"/>
<path d="M288.271 601.739H278.98V611.669H288.271V601.739Z" fill="#FFE8E5"/>
<path d="M267.942 523.199H258.652V533.129H267.942V523.199Z" fill="#FFE8E5"/>
<path d="M267.942 541.729H258.652V551.659H267.942V541.729Z" fill="#FFE8E5"/>
<path d="M267.942 560.54H258.652V570.47H267.942V560.54Z" fill="#FFE8E5"/>
<path d="M267.942 581.6H258.652V591.53H267.942V581.6Z" fill="#FFE8E5"/>
<path d="M267.942 601.739H258.652V611.669H267.942V601.739Z" fill="#FFE8E5"/>
<path d="M308.61 523.199H299.32V533.129H308.61V523.199Z" fill="#FFE8E5"/>
<path d="M308.61 541.729H299.32V551.659H308.61V541.729Z" fill="#FFE8E5"/>
<path d="M308.61 560.54H299.32V570.47H308.61V560.54Z" fill="#FFE8E5"/>
<path d="M308.61 581.6H299.32V591.53H308.61V581.6Z" fill="#FFE8E5"/>
<path d="M308.61 601.739H299.32V611.669H308.61V601.739Z" fill="#FFE8E5"/>
<path d="M218.823 544.83H125.062V631.76H218.823V544.83Z" fill="#FFC7BF"/>
<path d="M170.891 481.54H137.051V522.5H170.891V481.54Z" fill="#FFC7BF"/>
<path d="M125.061 544.83H109.551V631.76H125.061V544.83Z" fill="#FF341A"/>
<path d="M146.712 558.18H137.422V575.11H146.712V558.18Z" fill="#FFE8E5"/>
<path d="M146.712 587.5H137.422V604.43H146.712V587.5Z" fill="#FFE8E5"/>
<path d="M187.38 558.18H178.09V575.11H187.38V558.18Z" fill="#FFE8E5"/>
<path d="M187.38 587.5H178.09V604.43H187.38V587.5Z" fill="#FFE8E5"/>
<path d="M167.04 558.18H157.75V575.11H167.04V558.18Z" fill="#FFE8E5"/>
<path d="M167.04 587.5H157.75V604.43H167.04V587.5Z" fill="#FFE8E5"/>
<path d="M207.712 558.18H198.422V575.11H207.712V558.18Z" fill="#FFE8E5"/>
<path d="M207.712 587.5H198.422V604.43H207.712V587.5Z" fill="#FFE8E5"/>
<path fill-rule="evenodd" clip-rule="evenodd" d="M153.971 465.959L170.881 481.539H137.051L153.971 465.959Z" fill="#FF341A"/>
<path d="M137.051 544.83L153.971 522.5L170.881 544.83" stroke="#FF341A" stroke-width="2.0833" stroke-miterlimit="10" stroke-linecap="round" stroke-linejoin="round"/>
<path fill-rule="evenodd" clip-rule="evenodd" d="M274.56 572.08C284.43 572.08 292.43 580.09 292.43 589.96C292.43 599.83 284.42 607.84 274.56 607.84C264.7 607.84 256.68 599.83 256.68 589.96C256.68 580.09 264.7 572.08 274.56 572.08Z" fill="#9CE8C2"/>
<path d="M274.559 585.04V631.07" stroke="#24A865" stroke-width="2.0833" stroke-miterlimit="10" stroke-linecap="round" stroke-linejoin="round"/>
<path fill-rule="evenodd" clip-rule="evenodd" d="M1852.68 572.08C1862.55 572.08 1870.56 580.09 1870.56 589.96C1870.56 599.83 1862.55 607.84 1852.68 607.84C1842.81 607.84 1834.8 599.83 1834.8 589.96C1834.8 580.09 1842.82 572.08 1852.68 572.08Z" fill="#9CE8C2"/>
<path d="M1852.68 585.04V631.07" stroke="#24A865" stroke-width="2.0833" stroke-miterlimit="10" stroke-linecap="round" stroke-linejoin="round"/>
<path d="M711.343 195.18H638.383V631.08H711.343V195.18Z" fill="#FF341A"/>
<path d="M729.352 195.18H711.332V631.08H729.352V195.18Z" fill="#FFC7BF"/>
<path d="M701.821 158.68H648.211V195.18H701.821V158.68Z" fill="#FFC7BF"/>
<path d="M719.624 158.68H701.824V195.18H719.624V158.68Z" fill="#FFE8E5"/>
<path fill-rule="evenodd" clip-rule="evenodd" d="M648.211 158.67L687.111 99.8398L701.821 158.67H648.211Z" fill="#FFE8E5"/>
<path fill-rule="evenodd" clip-rule="evenodd" d="M701.823 158.67L687.113 99.8398L719.623 158.67H701.823Z" fill="white"/>
<path d="M654.974 210.31H650.094V235.05H654.974V210.31Z" fill="#FFC7BF"/>
<path d="M654.974 248.85H650.094V273.59H654.974V248.85Z" fill="#FFC7BF"/>
<path d="M654.974 285.93H650.094V310.67H654.974V285.93Z" fill="#FFC7BF"/>
<path d="M654.974 322.59H650.094V347.33H654.974V322.59Z" fill="#FFC7BF"/>
<path d="M654.974 361.01H650.094V385.75H654.974V361.01Z" fill="#FFC7BF"/>
<path d="M654.974 400.81H650.094V425.55H654.974V400.81Z" fill="#FFC7BF"/>
<path d="M654.974 439.7H650.094V464.44H654.974V439.7Z" fill="#FFC7BF"/>
<path d="M654.974 478.58H650.094V503.32H654.974V478.58Z" fill="#FFC7BF"/>
<path d="M654.974 516.53H650.094V541.27H654.974V516.53Z" fill="#FFC7BF"/>
<path d="M670.032 210.31H665.152V235.05H670.032V210.31Z" fill="#FFC7BF"/>
<path d="M670.032 248.85H665.152V273.59H670.032V248.85Z" fill="#FFC7BF"/>
<path d="M670.032 285.93H665.152V310.67H670.032V285.93Z" fill="#FFC7BF"/>
<path d="M670.032 322.59H665.152V347.33H670.032V322.59Z" fill="#FFC7BF"/>
<path d="M670.032 361.01H665.152V385.75H670.032V361.01Z" fill="#FFC7BF"/>
<path d="M670.032 400.81H665.152V425.55H670.032V400.81Z" fill="#FFC7BF"/>
<path d="M670.032 439.7H665.152V464.44H670.032V439.7Z" fill="#FFC7BF"/>
<path d="M670.032 478.58H665.152V503.32H670.032V478.58Z" fill="#FFC7BF"/>
<path d="M670.032 516.53H665.152V541.27H670.032V516.53Z" fill="#FFC7BF"/>
<path d="M685.103 210.31H680.223V235.05H685.103V210.31Z" fill="#FFC7BF"/>
<path d="M685.103 248.85H680.223V273.59H685.103V248.85Z" fill="#FFC7BF"/>
<path d="M685.103 285.93H680.223V310.67H685.103V285.93Z" fill="#FFC7BF"/>
<path d="M685.103 322.59H680.223V347.33H685.103V322.59Z" fill="#FFC7BF"/>
<path d="M685.103 361.01H680.223V385.75H685.103V361.01Z" fill="#FFC7BF"/>
<path d="M685.103 400.81H680.223V425.55H685.103V400.81Z" fill="#FFC7BF"/>
<path d="M685.103 439.7H680.223V464.44H685.103V439.7Z" fill="#FFC7BF"/>
<path d="M685.103 478.58H680.223V503.32H685.103V478.58Z" fill="#FFC7BF"/>
<path d="M685.103 516.53H680.223V541.27H685.103V516.53Z" fill="#FFC7BF"/>
<path d="M700.173 210.31H695.293V235.05H700.173V210.31Z" fill="#FFC7BF"/>
<path d="M700.173 248.85H695.293V273.59H700.173V248.85Z" fill="#FFC7BF"/>
<path d="M700.173 285.93H695.293V310.67H700.173V285.93Z" fill="#FFC7BF"/>
<path d="M700.173 322.59H695.293V347.33H700.173V322.59Z" fill="#FFC7BF"/>
<path d="M700.173 361.01H695.293V385.75H700.173V361.01Z" fill="#FFC7BF"/>
<path d="M700.173 400.81H695.293V425.55H700.173V400.81Z" fill="#FFC7BF"/>
<path d="M700.173 439.7H695.293V464.44H700.173V439.7Z" fill="#FFC7BF"/>
<path d="M700.173 478.58H695.293V503.32H700.173V478.58Z" fill="#FFC7BF"/>
<path d="M700.173 516.53H695.293V541.27H700.173V516.53Z" fill="#FFC7BF"/>
<path d="M643.571 346.04H556.801V631.08H643.571V346.04Z" fill="#FFC7BF"/>
<path d="M643.58 346.04H612.98V631.08H643.58V346.04Z" fill="#FFE8E5"/>
<path d="M630.591 324.53H576.051V346.04H630.591V324.53Z" fill="#FFE8E5"/>
<path d="M612.971 374.45H556.801V392.59H612.971V374.45Z" fill="#FF341A"/>
<path d="M612.971 451.1H556.801V469.24H612.971V451.1Z" fill="#FF341A"/>
<path d="M612.971 529.08H556.801V547.23H612.971V529.08Z" fill="#FF341A"/>
<path d="M612.971 412.59H556.801V430.73H612.971V412.59Z" fill="#FF341A"/>
<path d="M612.971 489.24H556.801V507.39H612.971V489.24Z" fill="#FF341A"/>
<path d="M612.971 567.22H556.801V585.37H612.971V567.22Z" fill="#FF341A"/>
<path d="M643.58 374.45H612.98V392.59H643.58V374.45Z" fill="#FFC7BF"/>
<path d="M643.58 451.1H612.98V469.24H643.58V451.1Z" fill="#FFC7BF"/>
<path d="M643.58 529.08H612.98V547.23H643.58V529.08Z" fill="#FFC7BF"/>
<path d="M643.58 412.59H612.98V430.73H643.58V412.59Z" fill="#FFC7BF"/>
<path d="M643.58 489.24H612.98V507.39H643.58V489.24Z" fill="#FFC7BF"/>
<path d="M643.58 567.22H612.98V585.37H643.58V567.22Z" fill="#FFC7BF"/>
<path d="M989.793 264.87H956.633V631.76H989.793V264.87Z" fill="#FF341A"/>
<path d="M986.971 246.08H952.531V264.86H986.971V246.08Z" fill="#FFC7BF"/>
<path d="M1168.33 264.87H989.781V631.76H1168.33V264.87Z" fill="#FFC7BF"/>
<path d="M1013.91 281.76H1003.54V292.13H1013.91V281.76Z" fill="#FFE8E5"/>
<path d="M1060.61 281.76H1050.24V292.13H1060.61V281.76Z" fill="#FFE8E5"/>
<path d="M1107.32 281.76H1096.95V292.13H1107.32V281.76Z" fill="#FFE8E5"/>
<path d="M1037.26 281.76H1026.89V292.13H1037.26V281.76Z" fill="#FFE8E5"/>
<path d="M1083.96 281.76H1073.59V292.13H1083.96V281.76Z" fill="#FFE8E5"/>
<path d="M1130.67 281.76H1120.3V292.13H1130.67V281.76Z" fill="#FFE8E5"/>
<path d="M1154.02 281.76H1143.65V292.13H1154.02V281.76Z" fill="#FFE8E5"/>
<path d="M1013.91 363.1H1003.54V373.47H1013.91V363.1Z" fill="#FFE8E5"/>
<path d="M1060.61 363.1H1050.24V373.47H1060.61V363.1Z" fill="#FFE8E5"/>
<path d="M1107.32 363.1H1096.95V373.47H1107.32V363.1Z" fill="#FFE8E5"/>
<path d="M1037.26 363.1H1026.89V373.47H1037.26V363.1Z" fill="#FFE8E5"/>
<path d="M1083.96 363.1H1073.59V373.47H1083.96V363.1Z" fill="#FFE8E5"/>
<path d="M1130.67 363.1H1120.3V373.47H1130.67V363.1Z" fill="#FFE8E5"/>
<path d="M1154.02 363.1H1143.65V373.47H1154.02V363.1Z" fill="#FFE8E5"/>
<path d="M1013.91 444.43H1003.54V454.8H1013.91V444.43Z" fill="#FFE8E5"/>
<path d="M1060.61 444.43H1050.24V454.8H1060.61V444.43Z" fill="#FFE8E5"/>
<path d="M1107.32 444.43H1096.95V454.8H1107.32V444.43Z" fill="#FFE8E5"/>
<path d="M1037.26 444.43H1026.89V454.8H1037.26V444.43Z" fill="#FFE8E5"/>
<path d="M1083.96 444.43H1073.59V454.8H1083.96V444.43Z" fill="#FFE8E5"/>
<path d="M1130.67 444.43H1120.3V454.8H1130.67V444.43Z" fill="#FFE8E5"/>
<path d="M1154.02 444.43H1143.65V454.8H1154.02V444.43Z" fill="#FFE8E5"/>
<path d="M1013.91 322.43H1003.54V332.8H1013.91V322.43Z" fill="#FFE8E5"/>
<path d="M1060.61 322.43H1050.24V332.8H1060.61V322.43Z" fill="#FFE8E5"/>
<path d="M1107.32 322.43H1096.95V332.8H1107.32V322.43Z" fill="#FFE8E5"/>
<path d="M1037.26 322.43H1026.89V332.8H1037.26V322.43Z" fill="#FFE8E5"/>
<path d="M1083.96 322.43H1073.59V332.8H1083.96V322.43Z" fill="#FFE8E5"/>
<path d="M1130.67 322.43H1120.3V332.8H1130.67V322.43Z" fill="#FFE8E5"/>
<path d="M1154.02 322.43H1143.65V332.8H1154.02V322.43Z" fill="#FFE8E5"/>
<path d="M1013.91 403.76H1003.54V414.13H1013.91V403.76Z" fill="#FFE8E5"/>
<path d="M1060.61 403.76H1050.24V414.13H1060.61V403.76Z" fill="#FFE8E5"/>
<path d="M1107.32 403.76H1096.95V414.13H1107.32V403.76Z" fill="#FFE8E5"/>
<path d="M1037.26 403.76H1026.89V414.13H1037.26V403.76Z" fill="#FFE8E5"/>
<path d="M1083.96 403.76H1073.59V414.13H1083.96V403.76Z" fill="#FFE8E5"/>
<path d="M1130.67 403.76H1120.3V414.13H1130.67V403.76Z" fill="#FFE8E5"/>
<path d="M1154.02 403.76H1143.65V414.13H1154.02V403.76Z" fill="#FFE8E5"/>
<path d="M1013.91 485.1H1003.54V495.47H1013.91V485.1Z" fill="#FFE8E5"/>
<path d="M1060.61 485.1H1050.24V495.47H1060.61V485.1Z" fill="#FFE8E5"/>
<path d="M1107.32 485.1H1096.95V495.47H1107.32V485.1Z" fill="#FFE8E5"/>
<path d="M1037.26 485.1H1026.89V495.47H1037.26V485.1Z" fill="#FFE8E5"/>
<path d="M1083.96 485.1H1073.59V495.47H1083.96V485.1Z" fill="#FFE8E5"/>
<path d="M1130.67 485.1H1120.3V495.47H1130.67V485.1Z" fill="#FFE8E5"/>
<path d="M1154.02 485.1H1143.65V495.47H1154.02V485.1Z" fill="#FFE8E5"/>
<path d="M1013.91 302.1H1003.54V312.47H1013.91V302.1Z" fill="#FFE8E5"/>
<path d="M1060.61 302.1H1050.24V312.47H1060.61V302.1Z" fill="#FFE8E5"/>
<path d="M1107.32 302.1H1096.95V312.47H1107.32V302.1Z" fill="#FFE8E5"/>
<path d="M1037.26 302.1H1026.89V312.47H1037.26V302.1Z" fill="#FFE8E5"/>
<path d="M1083.96 302.1H1073.59V312.47H1083.96V302.1Z" fill="#FFE8E5"/>
<path d="M1130.67 302.1H1120.3V312.47H1130.67V302.1Z" fill="#FFE8E5"/>
<path d="M1154.02 302.1H1143.65V312.47H1154.02V302.1Z" fill="#FFE8E5"/>
<path d="M1013.91 383.43H1003.54V393.8H1013.91V383.43Z" fill="#FFE8E5"/>
<path d="M1060.61 383.43H1050.24V393.8H1060.61V383.43Z" fill="#FFE8E5"/>
<path d="M1107.32 383.43H1096.95V393.8H1107.32V383.43Z" fill="#FFE8E5"/>
<path d="M1037.26 383.43H1026.89V393.8H1037.26V383.43Z" fill="#FFE8E5"/>
<path d="M1083.96 383.43H1073.59V393.8H1083.96V383.43Z" fill="#FFE8E5"/>
<path d="M1130.67 383.43H1120.3V393.8H1130.67V383.43Z" fill="#FFE8E5"/>
<path d="M1154.02 383.43H1143.65V393.8H1154.02V383.43Z" fill="#FFE8E5"/>
<path d="M1013.91 464.76H1003.54V475.13H1013.91V464.76Z" fill="#FFE8E5"/>
<path d="M1060.61 464.76H1050.24V475.13H1060.61V464.76Z" fill="#FFE8E5"/>
<path d="M1107.32 464.76H1096.95V475.13H1107.32V464.76Z" fill="#FFE8E5"/>
<path d="M1037.26 464.76H1026.89V475.13H1037.26V464.76Z" fill="#FFE8E5"/>
<path d="M1083.96 464.76H1073.59V475.13H1083.96V464.76Z" fill="#FFE8E5"/>
<path d="M1130.67 464.76H1120.3V475.13H1130.67V464.76Z" fill="#FFE8E5"/>
<path d="M1154.02 464.76H1143.65V475.13H1154.02V464.76Z" fill="#FFE8E5"/>
<path d="M1013.91 342.77H1003.54V353.14H1013.91V342.77Z" fill="#FFE8E5"/>
<path d="M1060.61 342.77H1050.24V353.14H1060.61V342.77Z" fill="#FFE8E5"/>
<path d="M1107.32 342.77H1096.95V353.14H1107.32V342.77Z" fill="#FFE8E5"/>
<path d="M1037.26 342.77H1026.89V353.14H1037.26V342.77Z" fill="#FFE8E5"/>
<path d="M1083.96 342.77H1073.59V353.14H1083.96V342.77Z" fill="#FFE8E5"/>
<path d="M1130.67 342.77H1120.3V353.14H1130.67V342.77Z" fill="#FFE8E5"/>
<path d="M1154.02 342.77H1143.65V353.14H1154.02V342.77Z" fill="#FFE8E5"/>
<path d="M1013.91 424.1H1003.54V434.47H1013.91V424.1Z" fill="#FFE8E5"/>
<path d="M1060.61 424.1H1050.24V434.47H1060.61V424.1Z" fill="#FFE8E5"/>
<path d="M1107.32 424.1H1096.95V434.47H1107.32V424.1Z" fill="#FFE8E5"/>
<path d="M1037.26 424.1H1026.89V434.47H1037.26V424.1Z" fill="#FFE8E5"/>
<path d="M1083.96 424.1H1073.59V434.47H1083.96V424.1Z" fill="#FFE8E5"/>
<path d="M1130.67 424.1H1120.3V434.47H1130.67V424.1Z" fill="#FFE8E5"/>
<path d="M1154.02 424.1H1143.65V434.47H1154.02V424.1Z" fill="#FFE8E5"/>
<path d="M1013.91 505.43H1003.54V515.8H1013.91V505.43Z" fill="#FFE8E5"/>
<path d="M1060.61 505.43H1050.24V515.8H1060.61V505.43Z" fill="#FFE8E5"/>
<path d="M1107.32 505.43H1096.95V515.8H1107.32V505.43Z" fill="#FFE8E5"/>
<path d="M1037.26 505.43H1026.89V515.8H1037.26V505.43Z" fill="#FFE8E5"/>
<path d="M1083.96 505.43H1073.59V515.8H1083.96V505.43Z" fill="#FFE8E5"/>
<path d="M1130.67 505.43H1120.3V515.8H1130.67V505.43Z" fill="#FFE8E5"/>
<path d="M1154.02 505.43H1143.65V515.8H1154.02V505.43Z" fill="#FFE8E5"/>
<path d="M1172.43 246.08H986.961V264.86H1172.43V246.08Z" fill="#FFE8E5"/>
<path d="M1214.07 478.2H1041V507.06H1214.07V478.2Z" fill="#FFC7BF"/>
<path d="M1041 478.2H1010.32V507.06H1041V478.2Z" fill="#FF341A"/>
<path d="M1227.97 507.07H1034.77V631.76H1227.97V507.07Z" fill="#FFC7BF"/>
<path d="M1034.77 507.07H1001.21V631.76H1034.77V507.07Z" fill="#FF341A"/>
<path d="M1066.5 523.56H1056.13V533.93H1066.5V523.56Z" fill="#FFE8E5"/>
<path d="M1113.2 523.56H1102.83V533.93H1113.2V523.56Z" fill="#FFE8E5"/>
<path d="M1159.9 523.56H1149.53V533.93H1159.9V523.56Z" fill="#FFE8E5"/>
<path d="M1089.85 523.56H1079.48V533.93H1089.85V523.56Z" fill="#FFE8E5"/>
<path d="M1136.55 523.56H1126.18V533.93H1136.55V523.56Z" fill="#FFE8E5"/>
<path d="M1183.26 523.56H1172.89V533.93H1183.26V523.56Z" fill="#FFE8E5"/>
<path d="M1206.61 523.56H1196.24V533.93H1206.61V523.56Z" fill="#FFE8E5"/>
<path d="M1066.5 604.899H1056.13V615.269H1066.5V604.899Z" fill="#FFE8E5"/>
<path d="M1113.2 604.899H1102.83V615.269H1113.2V604.899Z" fill="#FFE8E5"/>
<path d="M1159.9 604.899H1149.53V615.269H1159.9V604.899Z" fill="#FFE8E5"/>
<path d="M1089.85 604.899H1079.48V615.269H1089.85V604.899Z" fill="#FFE8E5"/>
<path d="M1136.55 604.899H1126.18V615.269H1136.55V604.899Z" fill="#FFE8E5"/>
<path d="M1183.26 604.899H1172.89V615.269H1183.26V604.899Z" fill="#FFE8E5"/>
<path d="M1206.61 604.899H1196.24V615.269H1206.61V604.899Z" fill="#FFE8E5"/>
<path d="M1066.5 564.229H1056.13V574.599H1066.5V564.229Z" fill="#FFE8E5"/>
<path d="M1113.2 564.229H1102.83V574.599H1113.2V564.229Z" fill="#FFE8E5"/>
<path d="M1159.9 564.229H1149.53V574.599H1159.9V564.229Z" fill="#FFE8E5"/>
<path d="M1089.85 564.229H1079.48V574.599H1089.85V564.229Z" fill="#FFE8E5"/>
<path d="M1136.55 564.229H1126.18V574.599H1136.55V564.229Z" fill="#FFE8E5"/>
<path d="M1183.26 564.229H1172.89V574.599H1183.26V564.229Z" fill="#FFE8E5"/>
<path d="M1206.61 564.229H1196.24V574.599H1206.61V564.229Z" fill="#FFE8E5"/>
<path d="M1066.5 543.899H1056.13V554.269H1066.5V543.899Z" fill="#FFE8E5"/>
<path d="M1113.2 543.899H1102.83V554.269H1113.2V543.899Z" fill="#FFE8E5"/>
<path d="M1159.9 543.899H1149.53V554.269H1159.9V543.899Z" fill="#FFE8E5"/>
<path d="M1089.85 543.899H1079.48V554.269H1089.85V543.899Z" fill="#FFE8E5"/>
<path d="M1136.55 543.899H1126.18V554.269H1136.55V543.899Z" fill="#FFE8E5"/>
<path d="M1183.26 543.899H1172.89V554.269H1183.26V543.899Z" fill="#FFE8E5"/>
<path d="M1206.61 543.899H1196.24V554.269H1206.61V543.899Z" fill="#FFE8E5"/>
<path d="M1066.5 584.56H1056.13V594.93H1066.5V584.56Z" fill="#FFE8E5"/>
<path d="M1113.2 584.56H1102.83V594.93H1113.2V584.56Z" fill="#FFE8E5"/>
<path d="M1159.9 584.56H1149.53V594.93H1159.9V584.56Z" fill="#FFE8E5"/>
<path d="M1089.85 584.56H1079.48V594.93H1089.85V584.56Z" fill="#FFE8E5"/>
<path d="M1136.55 584.56H1126.18V594.93H1136.55V584.56Z" fill="#FFE8E5"/>
<path d="M1183.26 584.56H1172.89V594.93H1183.26V584.56Z" fill="#FFE8E5"/>
<path d="M1206.61 584.56H1196.24V594.93H1206.61V584.56Z" fill="#FFE8E5"/>
<path d="M1593.98 491.13H1500.22V631.76H1593.98V491.13Z" fill="#FFC7BF"/>
<path d="M1534.06 491.13H1484.71V631.76H1534.06V491.13Z" fill="#FF341A"/>
<path fill-rule="evenodd" clip-rule="evenodd" d="M1563.01 503.09C1570.71 503.09 1576.97 509.34 1576.97 517.05C1576.97 524.75 1570.72 531.01 1563.01 531.01C1555.31 531.01 1549.06 524.76 1549.06 517.05C1549.05 509.35 1555.31 503.09 1563.01 503.09Z" fill="#FFE8E5"/>
<path d="M1555.98 558.44H1547.1V590.53H1555.98V558.44Z" fill="#FFE8E5"/>
<path d="M1576.97 558.44H1568.09V590.53H1576.97V558.44Z" fill="#FFE8E5"/>
<path d="M1703.26 544.83H1609.5V631.76H1703.26V544.83Z" fill="#FFC7BF"/>
<path d="M1655.32 481.54H1621.48V522.5H1655.32V481.54Z" fill="#FFC7BF"/>
<path d="M1609.5 544.83H1593.99V631.76H1609.5V544.83Z" fill="#FF341A"/>
<path fill-rule="evenodd" clip-rule="evenodd" d="M1638.4 465.959L1655.32 481.539H1621.48L1638.4 465.959Z" fill="#FF341A"/>
<path d="M1621.48 544.83L1638.4 522.5L1655.32 544.83" stroke="#FF341A" stroke-width="2.0833" stroke-miterlimit="10" stroke-linecap="round" stroke-linejoin="round"/>
<path d="M1629.9 559.069H1622.31V574.489H1629.9V559.069Z" fill="#FFE8E5"/>
<path d="M1629.9 585.689H1622.31V601.109H1629.9V585.689Z" fill="#FFE8E5"/>
<path d="M1667.6 559.069H1660.01V574.489H1667.6V559.069Z" fill="#FFE8E5"/>
<path d="M1667.6 585.689H1660.01V601.109H1667.6V585.689Z" fill="#FFE8E5"/>
<path d="M1648.75 559.069H1641.16V574.489H1648.75V559.069Z" fill="#FFE8E5"/>
<path d="M1648.75 585.689H1641.16V601.109H1648.75V585.689Z" fill="#FFE8E5"/>
<path d="M1686.45 559.069H1678.86V574.489H1686.45V559.069Z" fill="#FFE8E5"/>
<path d="M1686.45 585.689H1678.86V601.109H1686.45V585.689Z" fill="#FFE8E5"/>
<path fill-rule="evenodd" clip-rule="evenodd" d="M1765.97 283.979C1771.61 283.979 1776.18 286.119 1776.18 288.749C1776.18 291.379 1771.61 293.519 1765.97 293.519C1760.33 293.519 1755.75 291.379 1755.75 288.749C1755.76 286.119 1760.33 283.979 1765.97 283.979Z" fill="#FFC7BF"/>
<path d="M1743.85 288.75H1788.1" stroke="#FFC7BF" stroke-width="1.815" stroke-miterlimit="10" stroke-linecap="round" stroke-linejoin="round"/>
<path d="M1765.97 283.98V270.39" stroke="#FFC7BF" stroke-width="1.815" stroke-miterlimit="10" stroke-linecap="round" stroke-linejoin="round"/>
<path d="M1758.85 285.29L1750.55 275.94" stroke="#FFC7BF" stroke-width="1.815" stroke-miterlimit="10" stroke-linecap="round" stroke-linejoin="round"/>
<path d="M1773.1 285.29L1781.4 275.94" stroke="#FFC7BF" stroke-width="1.815" stroke-miterlimit="10" stroke-linecap="round" stroke-linejoin="round"/>
<path d="M1736.61 214.31H1713.78V222.54H1736.61V214.31Z" fill="#FFC7BF"/>
<path fill-rule="evenodd" clip-rule="evenodd" d="M1731.57 195.22C1731.57 195.22 1723.37 199.6 1719.82 204.1C1716.68 208.09 1719.44 214.32 1722.8 214.32C1727.17 214.32 1729.42 213.43 1731.57 210.67C1734.45 206.96 1735.28 198.87 1735.28 198.87L1731.46 199.94L1731.57 195.22Z" fill="#FF341A"/>
<path d="M1727.94 222.55H1722.45V256.26H1727.94V222.55Z" fill="#FF341A"/>
<path fill-rule="evenodd" clip-rule="evenodd" d="M1733.96 246.37C1733.96 243.56 1731.19 234.29 1727.94 231.31C1724.69 228.33 1725.26 231.93 1725.2 233.22C1725.14 234.51 1727.94 237.38 1727.94 237.38V256.25H1724.8L1730.75 296.3C1730.75 296.3 1724.45 304.88 1725.2 314.3C1725.95 323.73 1730.23 321.5 1730.23 321.5C1730.23 321.5 1730.9 328.53 1735.28 331.45C1739.66 334.36 1732.1 343.62 1735.28 346.54C1738.46 349.46 1739.83 352.37 1739.83 352.37C1739.83 352.37 1728.34 373.46 1730.91 379.98C1733.48 386.5 1736.6 385.81 1736.6 385.81C1736.6 385.81 1732.52 405.02 1736.6 413.08V496.59C1736.6 496.59 1731.59 501.22 1730.39 504.48H1804.3C1804.3 504.48 1802.24 501.39 1800.35 498.99V475.5C1800.35 475.5 1803.61 471.38 1803.61 464.87V449.78C1803.61 449.78 1806.7 443.61 1806.7 434.69C1806.7 425.77 1802.07 388.56 1802.07 388.56L1806.25 389.87L1815.44 374.64C1815.44 374.64 1817.64 376.7 1821.89 373.27C1826.14 369.84 1828.8 360.16 1825.21 357.44C1827.94 353.03 1829.71 349.81 1829.71 349.81L1814.07 340.34L1807.78 350.49C1807.78 350.49 1800.49 347.06 1797.61 338.96C1794.73 330.86 1792.4 322.5 1785.4 319.34C1778.4 316.18 1774.43 313.85 1774.43 313.85L1771.68 306.51L1758.03 304.47L1754.26 308.26L1748.09 299.59C1748.09 299.59 1747.54 290.21 1742.74 287.83C1741.23 278.87 1735.77 262.41 1735.27 257.74C1734.79 253.1 1733.96 249.18 1733.96 246.37Z" fill="#FFC7BF"/>
<path fill-rule="evenodd" clip-rule="evenodd" d="M1758.04 304.49L1755.76 306.78C1755.76 306.78 1759.54 318.12 1764.45 317.7C1769.37 317.28 1772.34 308.27 1772.34 308.27L1771.69 306.52L1758.04 304.49Z" fill="#FF341A"/>
<path fill-rule="evenodd" clip-rule="evenodd" d="M1803.62 464.88C1803.62 458.36 1739.83 352.39 1739.83 352.39C1739.83 352.39 1728.34 373.48 1730.91 380C1733.48 386.52 1736.6 385.83 1736.6 385.83C1736.6 385.83 1732.52 405.04 1736.6 413.1V496.61C1736.6 496.61 1731.59 501.24 1730.39 504.5H1804.3C1804.3 504.5 1802.24 501.41 1800.35 499.01V475.52C1800.37 475.51 1803.62 471.39 1803.62 464.88Z" fill="#FF341A"/>
<path d="M1730.75 296.31L1732.18 305.98" stroke="#FF341A" stroke-width="1.815" stroke-miterlimit="10" stroke-linecap="round" stroke-linejoin="round"/>
<path d="M1802.08 388.57L1799.06 359.18" stroke="#FF341A" stroke-width="1.815" stroke-miterlimit="10" stroke-linecap="round" stroke-linejoin="round"/>
<path fill-rule="evenodd" clip-rule="evenodd" d="M1765.97 287.85C1771.61 287.85 1776.18 292.43 1776.18 298.07C1776.18 303.71 1771.61 308.28 1765.97 308.28C1760.33 308.28 1755.75 303.71 1755.75 298.07C1755.75 292.43 1760.33 287.85 1765.97 287.85Z" fill="#FFC7BF"/>
<path d="M1807.78 350.52L1799.54 363.82" stroke="#FF341A" stroke-width="1.815" stroke-miterlimit="10" stroke-linecap="round" stroke-linejoin="round"/>
<path d="M1826.02 358.32C1824.33 356.08 1820.47 354.4 1819.34 355.59C1818.22 356.78 1819.48 358.34 1820.68 359.18C1818.78 357.84 1816.68 357.78 1815.9 359.18C1815.13 360.58 1815.9 362.43 1817.52 363.82C1814.99 362.05 1813.19 362.85 1812.6 364.51C1812.17 365.73 1813.16 367.53 1815.2 368.79C1812.74 367.74 1811.22 369.46 1811.13 370.3C1810.81 373.16 1813.88 373.67 1815.45 374.64" stroke="#FF341A" stroke-width="1.815" stroke-miterlimit="10" stroke-linecap="round" stroke-linejoin="round"/>
<path d="M1742.75 287.85C1742.75 287.85 1740.3 296.86 1736.61 301.66" stroke="#FF341A" stroke-width="1.815" stroke-miterlimit="10" stroke-linecap="round" stroke-linejoin="round"/>
<path fill-rule="evenodd" clip-rule="evenodd" d="M1722.45 248.11C1722.45 248.11 1719.31 242.54 1719.31 239.93C1719.31 237.32 1720.43 234.76 1722.45 234.85C1724.48 234.94 1725.03 239.88 1724.8 240.96C1724.57 242.04 1722.45 245.1 1722.45 245.1V248.11Z" fill="#FFC7BF"/>
<path d="M1810.9 504.49H1723.82V512.72H1810.9V504.49Z" fill="#FFC7BF"/>
<path d="M1810.9 515.89H1723.82V528.51H1810.9V515.89Z" fill="#FFC7BF"/>
<path d="M1816.72 533.66H1717.98V631.85H1816.72V533.66Z" fill="#FFC7BF"/>
<path d="M1813.86 512.72H1720.85V515.9H1813.86V512.72Z" fill="#FFC7BF"/>
<path d="M1810.9 515.89H1723.82V519.07H1810.9V515.89Z" fill="#FF341A"/>
<path d="M1816.72 533.66H1717.98V536.84H1816.72V533.66Z" fill="#FF341A"/>
<path d="M1822.55 528.51H1712.17V533.66H1822.55V528.51Z" fill="#FFC7BF"/>
</g>
<defs>
<clipPath id="clip0_459:22469">
<rect width="1871" height="632" fill="white"/>
</clipPath>
</defs>
</svg>
