<svg width="876" height="800" viewBox="0 0 876 800" fill="none" xmlns="http://www.w3.org/2000/svg">
<path d="M439.72 723.22C638.594 721.484 798.406 558.883 796.67 360.039C794.935 161.195 632.309 1.40688 433.435 3.14217C234.561 4.87745 74.7487 167.479 76.4843 366.323C78.2198 565.167 240.846 724.955 439.72 723.22Z" fill="#B9E2FE"/>
<path fill-rule="evenodd" clip-rule="evenodd" d="M217.782 460.436L386.777 662.673H0L168.994 460.436H217.782Z" fill="#1C2126"/>
<path fill-rule="evenodd" clip-rule="evenodd" d="M691.62 460.436L860.615 662.673H473.838L642.832 460.436H691.62Z" fill="#1C2126"/>
<path d="M220.796 286.724H165.918C160.253 286.724 155.66 291.315 155.66 296.98V297.044C155.66 302.708 160.253 307.3 165.918 307.3H220.796C226.461 307.3 231.054 302.708 231.054 297.044V296.98C231.054 291.315 226.461 286.724 220.796 286.724Z" fill="white"/>
<path d="M217.718 307.3H168.994V460.5H217.718V307.3Z" fill="white"/>
<path d="M217.718 307.3H168.994V325.889H217.718V307.3Z" fill="#FBBE2E"/>
<path fill-rule="evenodd" clip-rule="evenodd" d="M517.755 476.718L787.274 799.207H76.4844L346.003 476.718H517.755Z" fill="#60D399"/>
<path d="M865.482 285.713C871.209 219.333 822.032 160.88 755.642 155.155C689.253 149.429 630.791 198.599 625.064 264.978C619.338 331.358 668.515 389.811 734.904 395.536C801.294 401.262 859.756 352.092 865.482 285.713Z" fill="#163BF3"/>
<mask id="mask0_472:18416" style="mask-type:alpha" maskUnits="userSpaceOnUse" x="624" y="154" width="242" height="242">
<path d="M865.482 285.713C871.209 219.333 822.032 160.88 755.642 155.155C689.253 149.429 630.791 198.599 625.064 264.978C619.338 331.358 668.515 389.811 734.904 395.536C801.294 401.262 859.756 352.092 865.482 285.713Z" fill="#4FB3F6"/>
</mask>
<g mask="url(#mask0_472:18416)">
<path fill-rule="evenodd" clip-rule="evenodd" d="M657.916 190.207C673.623 190.207 699.972 204.886 699.972 230.142C699.972 255.397 658.429 249.372 658.429 275.974C658.429 302.575 697.344 296.357 697.857 319.498C698.37 342.638 691.958 368.535 674.649 375.586C638.042 357.381 609 319.69 609 275.974C609 232.257 642.209 190.207 657.916 190.207Z" fill="#60D399"/>
</g>
<path fill-rule="evenodd" clip-rule="evenodd" d="M785.67 215.188C785.67 215.188 746.627 220.636 749.256 246.404C751.884 272.173 773.49 272.045 796.313 267.622C819.136 263.199 781.119 302.108 780.157 321.851C779.195 341.594 787.401 351.978 799.967 363.58C812.533 375.182 826.573 233.969 826.573 233.969L785.67 215.188Z" fill="#60D399"/>
<path fill-rule="evenodd" clip-rule="evenodd" d="M387.096 427.552C387.096 427.552 355.041 465.564 338.052 486.268C321.062 506.973 357.733 495.819 370.556 495.819C383.378 495.819 378.185 525.947 396.2 525.947C414.215 525.947 417.676 497.422 431.781 497.422V427.552H387.096Z" fill="white"/>
<path fill-rule="evenodd" clip-rule="evenodd" d="M476.658 427.552C476.658 427.552 508.713 465.564 525.703 486.268C542.692 506.973 506.021 495.819 493.199 495.819C480.377 495.819 485.57 525.947 467.555 525.947C449.54 525.947 446.014 497.422 431.909 497.422C414.728 477.102 405.496 427.552 405.496 427.552H476.658Z" fill="white"/>
<path fill-rule="evenodd" clip-rule="evenodd" d="M431.846 286.147H386.584C386.584 286.147 394.662 379.413 405.817 405.694H431.461C434.795 365.824 441.911 326.017 431.846 286.147Z" fill="#FBBE2E"/>
<path fill-rule="evenodd" clip-rule="evenodd" d="M431.846 286.147H477.172C477.172 286.147 469.094 379.413 457.939 405.694H431.846V286.147Z" fill="#FBBE2E"/>
<path d="M431.846 321.082V405.694" stroke="#935000" stroke-width="0.44" stroke-linecap="round" stroke-linejoin="round"/>
<path fill-rule="evenodd" clip-rule="evenodd" d="M405.881 405.694L409.215 417.297H431.845V405.694H405.881Z" fill="white"/>
<path fill-rule="evenodd" clip-rule="evenodd" d="M457.874 405.694L454.477 417.297H431.846V405.694H457.874Z" fill="white"/>
<path fill-rule="evenodd" clip-rule="evenodd" d="M409.215 417.296C409.984 419.412 396.393 422.553 396.393 427.552H431.589V417.296H409.215Z" fill="#1C2126"/>
<path fill-rule="evenodd" clip-rule="evenodd" d="M454.733 417.296C453.964 419.412 467.556 422.553 467.556 427.552H432.295V417.296H454.733Z" fill="#1C2126"/>
<path fill-rule="evenodd" clip-rule="evenodd" d="M386.585 286.147C384.918 269.481 380.494 239.353 380.494 239.353L315.871 170.638L328.693 154.741L432.039 213.329V286.147H386.585Z" fill="#163BF3"/>
<path fill-rule="evenodd" clip-rule="evenodd" d="M477.173 286.147C478.84 269.481 483.584 239.353 483.584 239.353L547.886 170.638L535.064 154.741L431.847 213.329C427.166 237.376 427.166 262.1 431.847 286.147H477.173Z" fill="#163BF3"/>
<path d="M349.849 286.147H296.445" stroke="#1C2126" stroke-width="0.44" stroke-linecap="round" stroke-linejoin="round"/>
<path d="M558.015 286.147H504.611" stroke="#1C2126" stroke-width="0.44" stroke-linecap="round" stroke-linejoin="round"/>
<path d="M364.146 322.299L334.783 346.85" stroke="#1C2126" stroke-width="0.44" stroke-linecap="round" stroke-linejoin="round"/>
<path d="M495.188 322.299L524.55 346.85" stroke="#1C2126" stroke-width="0.44" stroke-linecap="round" stroke-linejoin="round"/>
<path fill-rule="evenodd" clip-rule="evenodd" d="M328.5 154.741C323.884 152.433 315.358 148.331 312.858 147.049C310.357 145.767 307.985 148.844 310.485 150.446C312.986 152.049 312.858 156.856 307.793 156.856H293.368C285.547 156.856 286.188 170.894 295.42 170.894C304.651 170.894 315.871 170.894 315.871 170.894L328.5 154.741Z" fill="#935000"/>
<path fill-rule="evenodd" clip-rule="evenodd" d="M535.32 154.741C539.872 152.433 548.142 148.331 550.899 147.049C553.656 145.767 555.771 148.844 553.271 150.446C550.771 152.049 550.899 156.856 555.964 156.856H570.132C577.954 156.856 577.377 170.894 568.145 170.894C558.913 170.894 547.629 170.894 547.629 170.894L535.32 154.741Z" fill="#935000"/>
<path fill-rule="evenodd" clip-rule="evenodd" d="M431.847 169.868C435.21 169.856 438.501 170.841 441.303 172.7C444.105 174.559 446.293 177.207 447.589 180.31C448.884 183.413 449.23 186.83 448.582 190.129C447.933 193.429 446.32 196.461 443.947 198.843C441.574 201.225 438.546 202.85 435.249 203.51C431.952 204.171 428.533 203.838 425.424 202.555C422.316 201.271 419.659 199.094 417.79 196.299C415.92 193.504 414.922 190.217 414.922 186.855C414.922 182.361 416.703 178.05 419.875 174.866C423.047 171.682 427.352 169.885 431.847 169.868Z" fill="#935000"/>
<path fill-rule="evenodd" clip-rule="evenodd" d="M431.333 166.279C431.381 166.183 431.454 166.103 431.544 166.046C431.635 165.99 431.739 165.959 431.846 165.959C431.964 165.947 432.082 165.971 432.185 166.028C432.288 166.085 432.371 166.173 432.423 166.279L434.026 170.061H429.73L431.333 166.279Z" fill="#935000"/>
<path fill-rule="evenodd" clip-rule="evenodd" d="M414.537 180.702C415.133 180.702 415.715 180.878 416.211 181.209C416.706 181.54 417.092 182.011 417.32 182.561C417.549 183.112 417.608 183.718 417.492 184.302C417.376 184.887 417.089 185.423 416.667 185.845C416.246 186.266 415.709 186.553 415.124 186.669C414.54 186.785 413.934 186.726 413.384 186.498C412.833 186.27 412.362 185.884 412.031 185.388C411.7 184.893 411.523 184.31 411.523 183.714C411.523 182.915 411.841 182.149 412.406 181.584C412.971 181.019 413.737 180.702 414.537 180.702Z" fill="#935000"/>
<path fill-rule="evenodd" clip-rule="evenodd" d="M449.22 180.702C449.816 180.702 450.399 180.878 450.894 181.209C451.39 181.54 451.776 182.011 452.004 182.561C452.232 183.112 452.292 183.718 452.175 184.302C452.059 184.887 451.772 185.423 451.351 185.845C450.929 186.266 450.393 186.553 449.808 186.669C449.224 186.785 448.618 186.726 448.067 186.498C447.517 186.27 447.046 185.884 446.715 185.388C446.384 184.893 446.207 184.31 446.207 183.714C446.207 182.915 446.524 182.149 447.09 181.584C447.655 181.019 448.421 180.702 449.22 180.702Z" fill="#935000"/>
<path fill-rule="evenodd" clip-rule="evenodd" d="M431.847 213.329L421.461 207.432C421.461 207.432 422.294 225.123 431.847 225.123C433.321 219.418 433.257 213.329 431.847 213.329Z" fill="white"/>
<path fill-rule="evenodd" clip-rule="evenodd" d="M431.846 213.329L442.296 207.432C442.296 207.432 441.462 225.123 431.846 225.123V213.329Z" fill="white"/>
<path d="M382.738 239.353L379.725 218.264" stroke="#935000" stroke-width="0.44" stroke-linecap="round" stroke-linejoin="round"/>
<path d="M480.955 239.353L483.968 218.264" stroke="#935000" stroke-width="0.44" stroke-linecap="round" stroke-linejoin="round"/>
<path fill-rule="evenodd" clip-rule="evenodd" d="M216.179 231.661C218.715 231.661 221.194 232.413 223.303 233.822C225.412 235.23 227.055 237.233 228.025 239.575C228.996 241.918 229.25 244.495 228.755 246.982C228.26 249.469 227.039 251.753 225.246 253.546C223.453 255.339 221.168 256.56 218.681 257.055C216.194 257.55 213.616 257.296 211.273 256.325C208.93 255.355 206.927 253.712 205.518 251.604C204.109 249.495 203.357 247.017 203.357 244.481C203.357 241.081 204.708 237.82 207.113 235.416C209.517 233.012 212.779 231.661 216.179 231.661Z" fill="white"/>
<path fill-rule="evenodd" clip-rule="evenodd" d="M181.753 257.173C183.173 257.173 184.561 257.594 185.742 258.383C186.923 259.172 187.843 260.293 188.386 261.605C188.93 262.917 189.072 264.361 188.795 265.753C188.518 267.146 187.834 268.425 186.83 269.429C185.826 270.433 184.546 271.117 183.153 271.394C181.761 271.671 180.317 271.529 179.005 270.985C177.693 270.442 176.571 269.522 175.782 268.341C174.993 267.161 174.572 265.773 174.572 264.353C174.572 263.41 174.758 262.476 175.119 261.605C175.48 260.734 176.009 259.943 176.675 259.276C177.342 258.609 178.134 258.081 179.005 257.72C179.876 257.359 180.81 257.173 181.753 257.173Z" fill="white"/>
<path d="M197.166 216.513C207.892 216.298 216.413 207.429 216.198 196.705C215.982 185.98 207.112 177.461 196.386 177.676C185.66 177.891 177.139 186.76 177.355 197.484C177.57 208.209 186.44 216.728 197.166 216.513Z" fill="white"/>
<path fill-rule="evenodd" clip-rule="evenodd" d="M423.512 201.534V208.585L431.846 213.329L440.18 208.585V201.534H423.512Z" fill="#935000"/>
</svg>
