<svg width="1286" height="834" viewBox="0 0 1286 834" fill="none" xmlns="http://www.w3.org/2000/svg">
<g clip-path="url(#clip0_463:21669)">
<path d="M913.019 819.868C1054.55 819.868 1169.29 818.225 1169.29 816.197C1169.29 814.17 1054.55 812.527 913.019 812.527C771.484 812.527 656.748 814.17 656.748 816.197C656.748 818.225 771.484 819.868 913.019 819.868Z" fill="black"/>
<path fill-rule="evenodd" clip-rule="evenodd" d="M1286 730.55H0C0 730.55 25.784 650.062 100.364 617.231C174.944 584.399 239.577 448.302 319.681 448.302C399.784 448.302 465.131 378.683 465.131 378.683C465.131 378.683 541.26 288.101 621.343 290.303C701.427 292.506 768.424 344.628 768.424 344.628L918.909 392.59C918.909 392.59 1000.77 362.736 1062.2 414.308C1123.63 465.88 1109.34 531.726 1154.33 567.943C1199.31 604.159 1286 653.978 1286 730.55Z" fill="#FBBE2E"/>
<path d="M475.51 608.101C492.001 608.009 505.295 594.559 505.203 578.06C505.111 561.561 491.668 548.261 475.176 548.353C458.685 548.445 445.391 561.895 445.483 578.394C445.575 594.893 459.019 608.193 475.51 608.101Z" fill="white"/>
<path d="M929.915 580.668C946.407 580.668 959.776 567.293 959.776 550.793C959.776 534.294 946.407 520.919 929.915 520.919C913.424 520.919 900.055 534.294 900.055 550.793C900.055 567.293 913.424 580.668 929.915 580.668Z" fill="white"/>
<path fill-rule="evenodd" clip-rule="evenodd" d="M719.139 483.968C728.462 483.964 737.575 486.726 745.328 491.905C753.081 497.084 759.124 504.447 762.693 513.063C766.263 521.679 767.198 531.16 765.38 540.308C763.562 549.455 759.074 557.858 752.482 564.453C745.89 571.047 737.492 575.538 728.348 577.357C719.205 579.175 709.728 578.24 701.117 574.669C692.505 571.098 685.145 565.052 679.969 557.295C674.792 549.539 672.031 540.421 672.035 531.094C672.046 518.599 677.012 506.619 685.844 497.783C694.675 488.947 706.65 483.979 719.139 483.968Z" fill="white"/>
<path fill-rule="evenodd" clip-rule="evenodd" d="M184.625 638.276C188.106 638.259 191.513 639.278 194.415 641.203C197.316 643.127 199.581 645.87 200.921 649.084C202.262 652.298 202.618 655.838 201.944 659.255C201.271 662.672 199.598 665.812 197.137 668.276C194.677 670.74 191.541 672.417 188.127 673.095C184.712 673.773 181.174 673.421 177.959 672.084C174.745 670.746 172.001 668.484 170.074 665.583C168.147 662.683 167.125 659.275 167.137 655.792C167.153 651.155 169 646.712 172.276 643.431C175.551 640.15 179.99 638.297 184.625 638.276Z" fill="white"/>
<path fill-rule="evenodd" clip-rule="evenodd" d="M1026.51 447.854C1028.82 447.854 1031.08 448.539 1033 449.823C1034.92 451.107 1036.42 452.932 1037.3 455.067C1038.18 457.202 1038.41 459.551 1037.96 461.818C1037.51 464.084 1036.4 466.166 1034.77 467.801C1033.13 469.435 1031.05 470.548 1028.79 470.998C1026.52 471.449 1024.17 471.218 1022.04 470.334C1019.91 469.449 1018.08 467.951 1016.8 466.03C1015.52 464.108 1014.83 461.849 1014.83 459.538C1014.83 456.439 1016.06 453.467 1018.25 451.276C1020.44 449.085 1023.41 447.854 1026.51 447.854Z" fill="white"/>
<path fill-rule="evenodd" clip-rule="evenodd" d="M1176.2 652.061C1178.51 652.061 1180.77 652.746 1182.69 654.03C1184.61 655.314 1186.1 657.139 1186.99 659.274C1187.87 661.409 1188.1 663.758 1187.65 666.025C1187.2 668.292 1186.09 670.374 1184.46 672.008C1182.82 673.642 1180.74 674.755 1178.48 675.206C1176.21 675.657 1173.86 675.425 1171.73 674.541C1169.6 673.656 1167.77 672.159 1166.49 670.237C1165.2 668.316 1164.52 666.057 1164.52 663.745C1164.52 660.646 1165.75 657.674 1167.94 655.483C1170.13 653.292 1173.1 652.061 1176.2 652.061Z" fill="white"/>
<path fill-rule="evenodd" clip-rule="evenodd" d="M603.529 638.276C607.004 638.276 610.401 639.307 613.29 641.238C616.179 643.17 618.431 645.915 619.761 649.127C621.091 652.339 621.439 655.873 620.761 659.283C620.083 662.693 618.41 665.825 615.953 668.283C613.495 670.742 610.365 672.416 606.956 673.094C603.548 673.772 600.016 673.424 596.805 672.094C593.595 670.763 590.851 668.51 588.92 665.62C586.989 662.729 585.959 659.33 585.959 655.854C585.959 651.192 587.81 646.721 591.105 643.424C594.4 640.128 598.869 638.276 603.529 638.276Z" fill="white"/>
<path d="M586.507 401.466C586.604 391.769 578.825 383.83 569.133 383.733C559.441 383.636 551.505 391.418 551.408 401.115C551.311 410.812 559.09 418.751 568.782 418.848C578.474 418.945 586.41 411.163 586.507 401.466Z" fill="white"/>
<path fill-rule="evenodd" clip-rule="evenodd" d="M694.66 125.228C684.864 125.293 675.491 129.232 668.587 136.185C661.683 143.138 657.808 152.541 657.808 162.342C657.803 152.497 653.89 143.057 646.93 136.098C639.97 129.138 630.532 125.228 620.691 125.228C630.534 125.223 639.971 121.309 646.931 114.346C653.891 107.383 657.803 97.9412 657.808 88.0942V88.3389C657.873 98.1415 661.809 107.521 668.758 114.432C675.708 121.342 685.106 125.223 694.904 125.228H694.66Z" fill="#4FB3F6"/>
<path fill-rule="evenodd" clip-rule="evenodd" d="M319.682 488.964V262.244C319.682 205.798 355.066 139.279 425.855 128.022V200.17C425.855 200.17 386.822 216.484 386.822 267.79V314.917L417.396 329.375L428.688 345.097C428.688 345.097 452.841 363.715 458.039 366.978C459.99 368.313 461.636 370.046 462.869 372.064C464.103 374.081 464.895 376.337 465.193 378.683C469.738 383.883 511.36 431.173 511.36 431.173L596.335 394.303V447.323C587.448 450.586 554.489 480.726 536.512 485.497C518.534 490.269 497.051 489.188 483.823 475.097C470.594 461.006 461.402 453.013 461.402 453.013V446.589L319.682 488.964Z" fill="#133191"/>
<path fill-rule="evenodd" clip-rule="evenodd" d="M425.854 128.022C437.105 126.309 466.924 123.332 466.924 123.332V189.749C466.924 189.749 439.163 193.094 425.854 200.17V128.022Z" fill="#B9E2FE"/>
<path fill-rule="evenodd" clip-rule="evenodd" d="M466.926 123.332H557.669C563.784 123.332 565.659 133.63 557.669 133.63H526.035C523.263 133.63 518.942 136.974 518.942 136.974C520.095 137.482 521.047 138.358 521.648 139.465C522.249 140.573 522.466 141.848 522.265 143.092C521.883 146.149 520.379 148.954 518.045 150.963C518.045 150.963 521.938 151.963 521.714 154.634C521.49 157.305 518.168 159.956 518.168 159.956C518.692 160.443 519.079 161.059 519.29 161.743C519.501 162.426 519.529 163.154 519.37 163.851C518.82 166.176 514.641 169.602 511.849 170.336C510.137 173.069 499.008 180.736 482.05 180.736H466.926V123.332Z" fill="#5B3100"/>
<path fill-rule="evenodd" clip-rule="evenodd" d="M809.72 122.353H743.66C739.217 122.353 737.851 129.858 743.66 129.858H766.693C768.581 130.243 770.349 131.075 771.85 132.284C770.988 132.646 770.277 133.294 769.835 134.118C769.393 134.942 769.248 135.893 769.424 136.811C769.688 139.059 770.787 141.126 772.502 142.603C772.502 142.603 769.669 143.337 769.832 145.274C770.25 146.813 771.159 148.174 772.42 149.149C772.044 149.507 771.766 149.955 771.613 150.452C771.459 150.948 771.436 151.475 771.544 151.983C772.097 153.097 772.867 154.09 773.808 154.902C774.75 155.715 775.844 156.331 777.027 156.714C778.25 158.753 786.362 164.28 798.714 164.28H809.72V122.353Z" fill="#5B3100"/>
<path d="M480.215 129.817C480.215 129.817 487.145 130.388 490.406 133.569C493.667 136.75 499.701 143.153 503.859 146.62C508.017 150.087 518.493 146.069 515.008 138.463C513.493 134.835 511.672 131.342 509.566 128.022" stroke="black" stroke-width="0.44" stroke-linecap="round" stroke-linejoin="round"/>
<path d="M800.038 127.145C800.038 127.145 795.003 127.553 792.68 129.878C790.356 132.203 785.913 136.832 782.876 139.36C779.839 141.889 772.215 138.973 774.722 133.365C775.8 130.749 777.103 128.231 778.616 125.84" stroke="black" stroke-width="0.44" stroke-linecap="round" stroke-linejoin="round"/>
<path d="M500.699 143.867C500.699 143.867 493.26 144.01 493.26 148.863C493.26 152.615 496.215 153.492 500.659 153.492C505.102 153.492 513.337 153.778 518.045 151.086" stroke="black" stroke-width="0.44" stroke-linecap="round" stroke-linejoin="round"/>
<path d="M785.117 137.362C785.117 137.362 790.579 137.362 790.559 140.971C790.559 143.724 788.398 144.356 785.158 144.356C781.917 144.356 775.924 144.581 772.5 142.603" stroke="black" stroke-width="0.44" stroke-linecap="round" stroke-linejoin="round"/>
<path d="M497.927 153.309C497.927 153.309 493.219 154.675 493.219 158.733C493.219 160.996 493.912 163.178 497.927 163.178H507.527C511.296 163.074 514.975 162 518.208 160.058" stroke="black" stroke-width="0.44" stroke-linecap="round" stroke-linejoin="round"/>
<path d="M787.155 144.234C787.155 144.234 790.579 145.233 790.579 148.19C790.579 149.842 790.07 151.433 787.155 151.433H780.184C777.47 151.339 774.825 150.552 772.5 149.149" stroke="black" stroke-width="0.44" stroke-linecap="round" stroke-linejoin="round"/>
<path d="M496.439 163.138C495.722 163.59 495.138 164.225 494.747 164.977C494.357 165.73 494.174 166.573 494.217 167.42C494.376 168.672 495.011 169.814 495.991 170.608C496.971 171.402 498.219 171.787 499.476 171.682C503.641 171.89 507.814 171.456 511.848 170.397" stroke="black" stroke-width="0.44" stroke-linecap="round" stroke-linejoin="round"/>
<path d="M788.236 151.432C788.756 151.759 789.179 152.218 789.463 152.763C789.746 153.308 789.878 153.919 789.846 154.532C789.738 155.445 789.281 156.28 788.57 156.862C787.859 157.444 786.95 157.727 786.035 157.652C783.001 157.795 779.964 157.479 777.025 156.714" stroke="black" stroke-width="0.44" stroke-linecap="round" stroke-linejoin="round"/>
<path d="M1102.33 644.924H760.68V816.198H1102.33V644.924Z" fill="#133191"/>
<path d="M1047.46 682.547H724.439V816.198H1047.46V682.547Z" fill="#24A865"/>
<path d="M996.14 727.104H690.727V816.198H996.14V727.104Z" fill="#133191"/>
<path d="M1015.77 727.104H996.139V816.198H1015.77V727.104Z" fill="#0C114D"/>
<path d="M1067.09 682.547H1047.46V816.198H1067.09V682.547Z" fill="#0C114D"/>
<path d="M1121.94 644.924H1102.31V816.198H1121.94V644.924Z" fill="#0C114D"/>
<path fill-rule="evenodd" clip-rule="evenodd" d="M319.681 324.542C319.681 324.542 307.717 313.632 290.371 330.965C273.025 348.299 273.087 362.961 272.027 378.173C270.967 393.386 284.256 395.446 290.106 393.794C288.251 403.46 283.319 424.382 294.631 429.378C305.943 434.374 319.64 427.115 319.64 427.115L319.681 324.542Z" fill="black"/>
<path fill-rule="evenodd" clip-rule="evenodd" d="M386.82 282.106C386.82 282.106 401.414 267.831 415.723 271.257C430.031 274.683 434.964 279.149 439.407 285.062C443.851 290.976 454.694 306.78 446.297 316.161C437.899 325.541 432.029 332.943 432.029 338.694C424.63 333.27 387.187 315.223 387.187 315.223L386.82 282.106Z" fill="#5B3100"/>
<path fill-rule="evenodd" clip-rule="evenodd" d="M390.734 308.493L383.172 323.074L403.554 353.988L416.864 329.823L421.98 354.987L432.009 338.694L390.734 308.493Z" fill="#B9E2FE"/>
<path fill-rule="evenodd" clip-rule="evenodd" d="M387.27 315.223C387.27 315.223 403.74 314.672 405.187 308.493C405.777 306.712 405.899 304.808 405.542 302.966C405.185 301.123 404.361 299.403 403.148 297.971C401.701 295.605 400.784 291.649 404.066 289.161C407.347 286.674 412.749 288.631 415.256 293.362C415.256 287.836 413.054 280.413 427.18 275.009C416.173 269.096 408.326 269.565 397.849 274.275C387.372 278.986 386.781 282.065 386.781 282.065V314.876L387.27 315.223Z" fill="black"/>
<path fill-rule="evenodd" clip-rule="evenodd" d="M432.111 277.721C435.006 279.76 441.304 277.884 444.565 276.09C447.826 274.295 450.537 277.864 448.132 280.27C445.727 282.677 440.835 286.898 440.835 286.898C440.835 286.898 431.011 283.982 432.111 277.721Z" fill="#5B3100"/>
<path d="M430.582 294.321C432.899 295.424 435.429 296.008 437.996 296.033C440.562 296.057 443.103 295.522 445.441 294.463" stroke="black" stroke-width="0.44" stroke-linecap="round" stroke-linejoin="round"/>
<path d="M404.859 300.764C406.51 303.354 411.259 307.718 414.5 304.7" stroke="black" stroke-width="0.44" stroke-linecap="round" stroke-linejoin="round"/>
<path d="M407.02 292.954C407.02 292.954 407.835 299.072 412.299 299.317" stroke="black" stroke-width="0.44" stroke-linecap="round" stroke-linejoin="round"/>
<path d="M412.299 338.103V461.231" stroke="#0C114D" stroke-width="1.11" stroke-linecap="round" stroke-linejoin="round"/>
<path d="M461.441 446.508V400.177" stroke="#0C114D" stroke-width="1.11" stroke-linecap="round" stroke-linejoin="round"/>
<path fill-rule="evenodd" clip-rule="evenodd" d="M256.454 754.511C256.454 754.511 240.311 789.953 236.071 797.518C231.832 805.084 239.394 819.583 237.274 825.619H106.193C106.193 825.619 112.532 817.462 135.198 810.814C148.953 806.716 162.36 801.527 175.29 795.296L192.636 754.511H256.454Z" fill="#133191"/>
<path d="M511.297 431.173L503.287 434.639" stroke="#5B3100" stroke-width="1.11" stroke-linecap="round" stroke-linejoin="round"/>
<path fill-rule="evenodd" clip-rule="evenodd" d="M596.273 394.304L623.362 382.558V432.906L596.273 447.425V394.304Z" fill="#B9E2FE"/>
<path fill-rule="evenodd" clip-rule="evenodd" d="M623.361 387.452C627.907 387.452 642.888 374.91 644.865 358.413C646.557 344.302 647.331 334.493 647.841 329.864C648.35 325.235 656.809 324.012 656.809 329.864V421.751C656.809 427.216 653.038 431.397 646.149 433.008C639.26 434.619 623.361 425.136 623.361 425.136V387.452Z" fill="#5B3100"/>
<path d="M642.053 401.074C642.053 401.074 648.555 382.354 648.942 374.034C649.329 365.714 649.982 354.539 653.997 354.539C655.831 354.539 656.851 357.394 656.851 357.394" stroke="black" stroke-width="0.44" stroke-linecap="round" stroke-linejoin="round"/>
<path fill-rule="evenodd" clip-rule="evenodd" d="M319.682 488.964L192.637 754.511H256.455L386.536 541.821L402.639 668.884C402.639 668.884 393.263 708.649 404.677 745.539H461.361V446.589L319.682 488.964Z" fill="#24A865"/>
<path d="M355.086 525.017L386.536 541.821L422.328 518.166" stroke="#5B3100" stroke-width="1.11" stroke-linecap="round" stroke-linejoin="round"/>
<path fill-rule="evenodd" clip-rule="evenodd" d="M319.68 488.964L314.951 498.854L461.441 454.868V446.508L319.68 488.964Z" fill="#0C114D"/>
<path fill-rule="evenodd" clip-rule="evenodd" d="M183.953 774.985H246.956L256.454 754.409H192.636L183.953 774.985Z" fill="#5B3100"/>
<path d="M156.946 774.903V803.228C156.946 803.228 143.331 753.675 133.445 763.117C123.56 772.558 156.946 803.31 156.946 803.31" stroke="#5B3100" stroke-width="0.44" stroke-linecap="round" stroke-linejoin="round"/>
<path fill-rule="evenodd" clip-rule="evenodd" d="M308.612 826.679C552.674 826.679 564.883 828.311 564.883 830.35C564.883 832.389 553.122 834.041 308.612 834.041C64.1026 834.041 52.3418 832.409 52.3418 830.391C52.3418 828.372 64.551 826.679 308.612 826.679Z" fill="black"/>
<path d="M237.294 825.517H106.193V830.35H237.294V825.517Z" fill="#5B3100"/>
<path fill-rule="evenodd" clip-rule="evenodd" d="M404.758 745.539L407.836 769.785H461.442V745.539H404.758Z" fill="#5B3100"/>
<path fill-rule="evenodd" clip-rule="evenodd" d="M407.836 769.785C407.836 769.785 408.162 814.383 413.115 825.517H481.173C481.173 825.517 468.943 806.124 465.091 802.413C463.306 791.608 462.088 780.717 461.442 769.785H407.836Z" fill="#133191"/>
<path d="M481.173 825.517H413.115V830.35H481.173V825.517Z" fill="#5B3100"/>
<path d="M483.598 804.064H444.504C444.504 804.064 484.617 780.409 478.522 773.476C472.428 766.542 444.504 803.901 444.504 803.901" stroke="#5B3100" stroke-width="0.44" stroke-linecap="round" stroke-linejoin="round"/>
<path fill-rule="evenodd" clip-rule="evenodd" d="M681.41 392.672L809.515 321.952C814.229 310.758 821.999 301.118 831.936 294.137C847.753 283.574 873.109 264.344 873.109 264.344V221.255C873.109 208.143 859.371 179.003 835.951 173.497V123.862C869.216 123.862 919.051 175.026 919.051 216.953V392.57L810.412 360.942V370.832C810.412 370.832 781.04 388.329 771.155 391.958C761.269 395.588 734.201 423.322 719.016 426.951C703.831 430.581 681.41 431.254 681.41 431.254V392.672Z" fill="#24A865"/>
<path d="M810.412 360.881V329.171" stroke="#002E13" stroke-width="1.11" stroke-linecap="round" stroke-linejoin="round"/>
<path d="M873.027 264.344L887.112 253.74" stroke="#002E13" stroke-width="1.11" stroke-linecap="round" stroke-linejoin="round"/>
<path fill-rule="evenodd" clip-rule="evenodd" d="M681.412 395.833C676.331 387.442 672.939 378.139 671.424 368.446C669.549 353.723 668.245 340.611 663.271 340.611C658.298 340.611 656.871 346.096 656.871 350.134V413.207C656.871 418.407 660.438 430.173 669.468 430.173C671.97 430.245 674.438 429.585 676.571 428.274C678.703 426.962 680.407 425.057 681.473 422.791L681.412 395.833Z" fill="#5B3100"/>
<path fill-rule="evenodd" clip-rule="evenodd" d="M810.412 360.942V474.69H867.646V443.082L891.759 471.916C891.759 471.916 903.989 455.929 914.934 450.28C925.88 444.631 943.47 443.082 943.47 443.082L918.888 392.57L810.412 360.942Z" fill="#133191"/>
<path fill-rule="evenodd" clip-rule="evenodd" d="M810.412 474.628V597.858H849.954C849.954 597.858 857.007 554.301 855.478 539.965C858.941 518.361 861.125 496.572 862.021 474.71L810.412 474.628Z" fill="#5B3100"/>
<path fill-rule="evenodd" clip-rule="evenodd" d="M891.76 471.916C891.76 471.916 911.857 513.068 928.958 526.384C933.483 548.02 945.04 574.53 972.944 597.858H1014.93C1014.93 597.858 985.52 535.948 981.239 524.63C976.959 513.312 971.191 511.803 971.191 511.803C971.191 511.803 966.156 495.714 964.403 489.678C962.65 483.642 943.552 443.082 943.552 443.082C943.552 443.082 907.842 442.857 891.76 471.916Z" fill="#5B3100"/>
<path fill-rule="evenodd" clip-rule="evenodd" d="M810.412 597.858C810.412 605.832 812.98 624.164 800.221 631.893C792.903 635.768 790.029 637.848 790.029 640.274H850.199V597.858H810.412Z" fill="#24A865"/>
<path d="M850.138 640.274H789.969V644.924H850.138V640.274Z" fill="#5B3100"/>
<path fill-rule="evenodd" clip-rule="evenodd" d="M972.943 597.858C972.943 597.858 982.258 614.662 986.09 620.84C986.974 622.573 987.419 624.496 987.387 626.441C987.355 628.385 986.847 630.293 985.907 631.995C985.132 633.626 984.745 638.521 985.907 640.274H1063.77C1063.77 640.274 1061.4 633.769 1048.91 628.957C1036.41 624.144 1018.64 605.2 1014.85 597.858H972.943Z" fill="#24A865"/>
<path d="M1063.85 640.274H985.988V644.924H1063.85V640.274Z" fill="#5B3100"/>
<path d="M867.646 443.082L842.678 413.187" stroke="#5B3100" stroke-width="1.11" stroke-linecap="round" stroke-linejoin="round"/>
<path d="M857.701 431.173C850.648 422.689 859.433 409.169 867.648 402.44" stroke="#5B3100" stroke-width="1.11" stroke-linecap="round" stroke-linejoin="round"/>
<path fill-rule="evenodd" clip-rule="evenodd" d="M827.82 285.001C827.82 282.962 825.619 280.046 821.909 277.517C818.199 274.989 809.781 268.973 810.678 260.041C811.175 253.842 813.176 247.857 816.508 242.606C812.879 240.832 812.186 240.281 810.719 239.486C809.251 238.691 808.885 235.142 812.533 234.836C816.181 234.531 823.438 233.348 823.438 233.348L833.629 227.393C833.629 227.393 849.935 232.185 855.173 238.058C860.412 243.931 873.029 258.777 873.029 258.777V264.344L865.303 270.135C865.303 270.135 827.82 287.122 827.82 285.001Z" fill="#5B3100"/>
<path fill-rule="evenodd" clip-rule="evenodd" d="M873.028 264.344L833.648 227.393C833.648 227.393 848.833 218.462 865.323 232.797C868.753 236.134 871.392 240.196 873.048 244.686L873.028 264.344Z" fill="#133191"/>
<path fill-rule="evenodd" clip-rule="evenodd" d="M828.9 230.146C828.9 230.146 802.239 206.41 807.009 202.433C811.778 198.457 836.319 222.581 839.01 225.395C840.365 226.771 841.4 228.429 842.041 230.252C842.683 232.074 842.914 234.016 842.719 235.938C840.946 234.327 835.341 228.78 833.832 227.455C832.128 228.237 830.48 229.136 828.9 230.146Z" fill="black"/>
<path fill-rule="evenodd" clip-rule="evenodd" d="M830.551 295.034L825.395 286.796L858.394 262.162L865.304 270.135L830.551 295.034Z" fill="#133191"/>
<path fill-rule="evenodd" clip-rule="evenodd" d="M243.287 648.594C267.114 648.594 296.486 625.918 308.919 600.448C321.352 574.978 361.323 484.927 361.323 484.927L314.952 498.854C314.952 498.854 255.619 623.818 243.287 648.594Z" fill="#9CE8C2"/>
<path fill-rule="evenodd" clip-rule="evenodd" d="M813.265 248.948C815.14 250.987 821.541 255.596 825.393 254.128C831.365 251.864 834.096 257.839 829.469 260.245C824.843 262.652 816.384 261.734 811.125 256.921C811.659 254.219 812.374 251.555 813.265 248.948Z" fill="white"/>
<path fill-rule="evenodd" clip-rule="evenodd" d="M845.98 238.976L840.049 247.133L844.472 251.211C844.472 251.211 850.587 243.401 853.705 246.195C849.955 242.667 845.98 238.976 845.98 238.976Z" fill="black"/>
<path fill-rule="evenodd" clip-rule="evenodd" d="M856.62 248.948C857.863 250.314 857.211 255.759 854.908 258.023C852.604 260.286 848.793 264.487 849.71 268.647C854.948 271.176 865.303 270.136 865.303 270.136L873.028 264.344C873.028 264.344 859.494 251.783 856.62 248.948Z" fill="black"/>
<path fill-rule="evenodd" clip-rule="evenodd" d="M835.87 123.862L809.719 122.353V167.563C809.719 167.563 827.717 170.785 835.87 173.497V123.862Z" fill="#133191"/>
<path fill-rule="evenodd" clip-rule="evenodd" d="M698.165 383.435L681.41 392.672V431.173L698.165 430.072V383.435Z" fill="#B9E2FE"/>
<path d="M652.365 222.622V264.854" stroke="#4FB3F6" stroke-width="1.45" stroke-linecap="round" stroke-linejoin="round"/>
<path d="M652.365 1.46826V43.7209" stroke="#4FB3F6" stroke-width="1.45" stroke-linecap="round" stroke-linejoin="round"/>
<path d="M715.572 196.418L745.433 226.292" stroke="#4FB3F6" stroke-width="1.45" stroke-linecap="round" stroke-linejoin="round"/>
<path d="M559.299 40.0503L589.159 69.9249" stroke="#4FB3F6" stroke-width="1.45" stroke-linecap="round" stroke-linejoin="round"/>
<path d="M589.159 196.418L559.299 226.292" stroke="#4FB3F6" stroke-width="1.45" stroke-linecap="round" stroke-linejoin="round"/>
<path d="M745.433 40.0503L715.572 69.9249" stroke="#4FB3F6" stroke-width="1.45" stroke-linecap="round" stroke-linejoin="round"/>
<path d="M656.809 366.325C656.809 366.325 657.889 359.045 661.334 359.045C664.778 359.045 664.676 364.959 664.513 368.405C664.35 371.852 665.227 388.104 665.777 392.876" stroke="black" stroke-width="0.44" stroke-linecap="round" stroke-linejoin="round"/>
<path d="M656.809 350.134V417.204" stroke="black" stroke-width="0.44" stroke-linecap="round" stroke-linejoin="round"/>
<path d="M854.602 258.981C853.053 260.429 848.039 262.121 845.186 259.735" stroke="black" stroke-width="0.44" stroke-linecap="round" stroke-linejoin="round"/>
<path d="M853.094 249.682C853.535 250.421 853.731 251.28 853.655 252.138C853.578 252.995 853.232 253.805 852.666 254.454C852.116 255.184 851.342 255.715 850.463 255.965C849.584 256.215 848.647 256.171 847.795 255.841" stroke="black" stroke-width="0.44" stroke-linecap="round" stroke-linejoin="round"/>
<path fill-rule="evenodd" clip-rule="evenodd" d="M829.572 233.898C830.004 233.898 830.419 234.07 830.725 234.376C831.031 234.682 831.203 235.097 831.203 235.53C831.203 235.962 831.031 236.377 830.725 236.683C830.419 236.989 830.004 237.161 829.572 237.161C829.14 237.161 828.725 236.989 828.419 236.683C828.113 236.377 827.941 235.962 827.941 235.53C827.941 235.097 828.113 234.682 828.419 234.376C828.725 234.07 829.14 233.898 829.572 233.898Z" fill="black"/>
<path fill-rule="evenodd" clip-rule="evenodd" d="M425.365 278.231C425.797 278.231 426.212 278.403 426.518 278.709C426.824 279.015 426.996 279.43 426.996 279.863C426.996 280.295 426.824 280.71 426.518 281.016C426.212 281.322 425.797 281.494 425.365 281.494C425.151 281.494 424.939 281.452 424.741 281.37C424.543 281.288 424.363 281.168 424.212 281.016C424.061 280.865 423.94 280.685 423.859 280.487C423.777 280.289 423.734 280.077 423.734 279.863C423.734 279.648 423.777 279.436 423.859 279.238C423.94 279.04 424.061 278.861 424.212 278.709C424.363 278.558 424.543 278.437 424.741 278.355C424.939 278.273 425.151 278.231 425.365 278.231Z" fill="black"/>
<path d="M343.713 316.65L368.987 354.987" stroke="#0C114D" stroke-width="0.97" stroke-linecap="round" stroke-linejoin="round"/>
<path fill-rule="evenodd" clip-rule="evenodd" d="M918.97 366.203C918.97 366.203 893.369 347.34 893.369 320.463V216.463C893.369 199.884 904.518 187.221 911.836 187.302C917.523 198.171 918.97 208.633 918.97 232.165V366.203Z" fill="#9CE8C2"/>
</g>
<defs>
<clipPath id="clip0_463:21669">
<rect width="1286" height="834" fill="white"/>
</clipPath>
</defs>
</svg>
