<svg width="1586" height="697" viewBox="0 0 1586 697" fill="none" xmlns="http://www.w3.org/2000/svg">
<g clip-path="url(#clip0_463:20932)">
<path d="M793 696.8C1106.09 696.8 1359.9 693.621 1359.9 689.7C1359.9 685.779 1106.09 682.6 793 682.6C479.909 682.6 226.1 685.779 226.1 689.7C226.1 693.621 479.909 696.8 793 696.8Z" fill="black"/>
<path d="M1559.3 501.8H1532.8V525.45H1559.3V501.8Z" fill="#8D1A00"/>
<path fill-rule="evenodd" clip-rule="evenodd" d="M1284.9 163.1H1532.8V547.5C1532.8 554.829 1535.7 561.86 1540.88 567.052C1546.05 572.244 1553.07 575.174 1560.4 575.2H1284.9V163.1Z" fill="#FFFAF0"/>
<path fill-rule="evenodd" clip-rule="evenodd" d="M1560.4 575.2C1567.11 575.2 1573.55 572.534 1578.29 567.79C1583.03 563.045 1585.7 556.61 1585.7 549.9V528.3C1585.92 524.69 1585.4 521.072 1584.17 517.67C1582.95 514.268 1581.03 511.154 1578.55 508.519C1576.08 505.884 1573.09 503.784 1569.77 502.349C1566.45 500.913 1562.87 500.173 1559.25 500.173C1555.63 500.173 1552.05 500.913 1548.73 502.349C1545.41 503.784 1542.42 505.884 1539.95 508.519C1537.47 511.154 1535.55 514.268 1534.33 517.67C1533.1 521.072 1532.58 524.69 1532.8 528.3V547.5C1532.8 554.829 1535.7 561.86 1540.88 567.052C1546.05 572.243 1553.07 575.173 1560.4 575.2Z" fill="#CF1D00"/>
<path d="M1489.4 218.2H1406.1V322.38H1489.4V218.2Z" stroke="#CF1D00" stroke-width="2.08" stroke-linecap="round" stroke-linejoin="round"/>
<path fill-rule="evenodd" clip-rule="evenodd" d="M1440.2 279.5C1440.2 279.5 1406.1 285 1406.1 297.2V322.4H1489.4V295.4C1489.4 288.3 1455.9 279.6 1455.9 279.6L1440.2 279.5Z" fill="#BDC7FB"/>
<path d="M1319.8 531.2H1493.9" stroke="#CF1D00" stroke-width="2.08" stroke-linecap="round" stroke-linejoin="round"/>
<path d="M1319.8 484.2H1493.9" stroke="#CF1D00" stroke-width="2.08" stroke-linecap="round" stroke-linejoin="round"/>
<path d="M1319.8 446.6H1493.9" stroke="#CF1D00" stroke-width="2.08" stroke-linecap="round" stroke-linejoin="round"/>
<path d="M1319.8 408.7H1375.9" stroke="#CF1D00" stroke-width="2.08" stroke-linecap="round" stroke-linejoin="round"/>
<path d="M1319.8 385.1H1375.9" stroke="#CF1D00" stroke-width="2.08" stroke-linecap="round" stroke-linejoin="round"/>
<path d="M1319.8 358H1375.9" stroke="#CF1D00" stroke-width="2.08" stroke-linecap="round" stroke-linejoin="round"/>
<path d="M1319.8 305.1H1353.7" stroke="#CF1D00" stroke-width="2.08" stroke-linecap="round" stroke-linejoin="round"/>
<path d="M1319.8 279.7H1353.7" stroke="#CF1D00" stroke-width="2.08" stroke-linecap="round" stroke-linejoin="round"/>
<path d="M1319.8 251.4H1353.7" stroke="#CF1D00" stroke-width="2.08" stroke-linecap="round" stroke-linejoin="round"/>
<path d="M1319.8 218.2H1353.7" stroke="#CF1D00" stroke-width="2.08" stroke-linecap="round" stroke-linejoin="round"/>
<path d="M1411.1 408.7H1493.9" stroke="#CF1D00" stroke-width="2.08" stroke-linecap="round" stroke-linejoin="round"/>
<path d="M1411.1 382.4H1493.9" stroke="#CF1D00" stroke-width="2.08" stroke-linecap="round" stroke-linejoin="round"/>
<path d="M1411.1 355.3H1493.9" stroke="#CF1D00" stroke-width="2.08" stroke-linecap="round" stroke-linejoin="round"/>
<path fill-rule="evenodd" clip-rule="evenodd" d="M1449.6 247.6C1444.3 247.6 1435.8 249.2 1435.8 259.6C1435.8 270 1438.4 284 1448.1 284.9C1457.8 285.8 1461.3 264.4 1461.1 259.6C1460.9 254.8 1459.7 247.6 1449.6 247.6Z" fill="#CF1D00"/>
<path fill-rule="evenodd" clip-rule="evenodd" d="M1435.8 260.1C1435.8 260.1 1433 258 1431.2 259.3C1429.4 260.6 1432.3 268 1436.4 268.3C1436.2 264.4 1435.8 260.1 1435.8 260.1Z" fill="#CF1D00"/>
<path fill-rule="evenodd" clip-rule="evenodd" d="M1461 260.1C1461 260.1 1463.8 258 1465.6 259.3C1467.4 260.6 1464.2 268 1460 268.3C1460.3 264.4 1461 260.1 1461 260.1Z" fill="#CF1D00"/>
<path fill-rule="evenodd" clip-rule="evenodd" d="M1444.2 248.3C1444.2 248.3 1442.6 241.7 1446.4 239.4C1450.2 237.1 1456.2 236 1458.7 238.7C1461.2 241.4 1456 247.4 1452.9 247.9C1450 247.554 1447.06 247.69 1444.2 248.3Z" fill="#FBBE2E"/>
<path d="M1443 261.7V263.6" stroke="#5B3100" stroke-width="2.08" stroke-linecap="round" stroke-linejoin="round"/>
<path d="M1453.8 261.7V263.6" stroke="#5B3100" stroke-width="2.08" stroke-linecap="round" stroke-linejoin="round"/>
<path d="M1449.1 268.2H1447.2" stroke="#5B3100" stroke-width="2.08" stroke-linecap="round" stroke-linejoin="round"/>
<path d="M1443 272.7C1443 272.7 1448.3 276.1 1453.8 272.7" stroke="#5B3100" stroke-width="2.08" stroke-linecap="round" stroke-linejoin="round"/>
<path fill-rule="evenodd" clip-rule="evenodd" d="M1440.7 280.3L1448.2 293.4L1455.2 280.8C1455.5 279.8 1448.9 289.3 1440.7 280.3Z" fill="white"/>
<path fill-rule="evenodd" clip-rule="evenodd" d="M362.9 303.1H36.2999C31.5687 303.087 26.8814 304.009 22.5078 305.813C18.1341 307.618 14.1602 310.269 10.8147 313.615C7.46911 316.96 4.81788 320.934 3.01338 325.308C1.20889 329.681 0.286747 334.369 0.299944 339.1V545.7C0.286747 550.431 1.20889 555.119 3.01338 559.492C4.81788 563.866 7.46911 567.84 10.8147 571.185C14.1602 574.531 18.1341 577.182 22.5078 578.987C26.8814 580.791 31.5687 581.713 36.2999 581.7H362.9V303.1Z" fill="#4FB3F6"/>
<path fill-rule="evenodd" clip-rule="evenodd" d="M127.4 368.4C142.06 368.4 156.39 372.748 168.578 380.895C180.766 389.042 190.263 400.62 195.869 414.166C201.474 427.712 202.936 442.616 200.069 456.993C197.201 471.37 190.134 484.573 179.761 494.932C169.388 505.291 156.175 512.34 141.795 515.188C127.414 518.036 112.512 516.554 98.9737 510.931C85.4355 505.307 73.8695 495.794 65.7393 483.595C57.6091 471.396 53.2801 457.06 53.2999 442.4C53.2999 432.674 55.2172 423.043 58.9423 414.058C62.6674 405.074 68.1272 396.912 75.0093 390.039C81.8915 383.166 90.061 377.717 99.0506 374.004C108.04 370.291 117.674 368.387 127.4 368.4Z" fill="#BDC7FB"/>
<path d="M362.9 442.4H248.8V547.77H362.9V442.4Z" fill="#8D1A00"/>
<path fill-rule="evenodd" clip-rule="evenodd" d="M362.9 344.3H261.6C258.187 344.333 254.923 345.696 252.5 348.1C250.115 350.527 248.785 353.797 248.8 357.2V385.7C248.785 389.103 250.115 392.373 252.5 394.8C254.923 397.204 258.187 398.567 261.6 398.6H362.9V344.3Z" fill="#8D1A00"/>
<path fill-rule="evenodd" clip-rule="evenodd" d="M298.3 482.3C301.695 482.3 304.95 483.649 307.351 486.049C309.751 488.45 311.1 491.705 311.1 495.1C311.1 498.495 309.751 501.751 307.351 504.151C304.95 506.551 301.695 507.9 298.3 507.9C294.905 507.9 291.649 506.551 289.249 504.151C286.849 501.751 285.5 498.495 285.5 495.1C285.5 491.705 286.849 488.45 289.249 486.049C291.649 483.649 294.905 482.3 298.3 482.3Z" fill="#CF1D00"/>
<path fill-rule="evenodd" clip-rule="evenodd" d="M362.9 482.3H347.4C344.005 482.3 340.749 483.649 338.349 486.049C335.948 488.45 334.6 491.705 334.6 495.1C334.6 498.495 335.948 501.751 338.349 504.151C340.749 506.551 344.005 507.9 347.4 507.9H362.9V482.3Z" fill="white"/>
<path d="M268.3 371.4H362.9" stroke="#CF1D00" stroke-width="2.08" stroke-linecap="round" stroke-linejoin="round"/>
<path fill-rule="evenodd" clip-rule="evenodd" d="M362.9 265.1L139.9 52.8L134.7 58.2L362.9 275.7V265.1Z" fill="#BDC7FB"/>
<path fill-rule="evenodd" clip-rule="evenodd" d="M137 49.3999C137.612 49.9648 138.042 50.6989 138.236 51.5089C138.43 52.319 138.378 53.1683 138.088 53.949C137.798 54.7297 137.282 55.4065 136.607 55.8935C135.931 56.3804 135.126 56.6555 134.293 56.6837C133.461 56.7119 132.639 56.492 131.932 56.0519C131.225 55.6119 130.665 54.9715 130.322 54.2122C129.98 53.453 129.871 52.6091 130.01 51.7878C130.148 50.9665 130.528 50.205 131.1 49.5999C131.469 49.1905 131.916 48.8596 132.416 48.627C132.915 48.3944 133.457 48.2649 134.007 48.2463C134.558 48.2276 135.107 48.3201 135.621 48.5183C136.135 48.7165 136.604 49.0164 137 49.3999Z" fill="#BDC7FB"/>
<path fill-rule="evenodd" clip-rule="evenodd" d="M88.9005 258.1C76.2273 255.51 64.9668 248.308 57.302 237.888C49.6372 227.469 46.114 214.574 47.4154 201.705C48.7167 188.835 54.7499 176.908 64.3455 168.233C73.941 159.559 86.4154 154.757 99.3505 154.757C112.286 154.757 124.76 159.559 134.356 168.233C143.951 176.908 149.984 188.835 151.286 201.705C152.587 214.574 149.064 227.469 141.399 237.888C133.734 248.308 122.474 255.51 109.8 258.1L99.4005 284.9L88.9005 258.1Z" fill="white"/>
<path fill-rule="evenodd" clip-rule="evenodd" d="M63.2998 244.6C63.2998 244.6 64.5998 232.5 73.9998 230.2C83.3998 227.9 88.8998 224.6 89.5998 219.9H108.1C108.1 223.6 127.1 227.7 131.3 229.1C135.5 230.5 139.1 235.4 140.2 239.4C135.5 244 128.4 253.8 109.8 258.1C105.1 270.5 99.3998 284.9 99.3998 284.9L88.8998 258.1C88.8998 258.1 73.0998 254.4 63.2998 244.6Z" fill="#CF1D00"/>
<path fill-rule="evenodd" clip-rule="evenodd" d="M113.6 195.1C113.6 191.325 112.107 187.703 109.447 185.024C106.786 182.345 103.175 180.826 99.3996 180.8C97.5264 180.8 95.6716 181.171 93.9422 181.89C92.2129 182.61 90.643 183.665 89.3231 184.994C88.0032 186.324 86.9593 187.901 86.2516 189.635C85.5439 191.37 85.1864 193.227 85.1996 195.1V210.9C85.1996 214.666 86.6956 218.278 89.3586 220.941C92.0216 223.604 95.6335 225.1 99.3996 225.1C103.166 225.1 106.777 223.604 109.44 220.941C112.103 218.278 113.6 214.666 113.6 210.9V195.1Z" fill="#CF1D00"/>
<path fill-rule="evenodd" clip-rule="evenodd" d="M103.5 173.3C103.489 172.341 103.134 171.419 102.5 170.7C102.158 170.364 101.751 170.102 101.304 169.93C100.856 169.758 100.379 169.68 99.8999 169.7C99.4378 169.693 98.9789 169.778 98.5498 169.95C98.1207 170.121 97.7299 170.376 97.3999 170.7C97.0508 171.037 96.7734 171.441 96.5844 171.888C96.3953 172.334 96.2985 172.815 96.2998 173.3V177.3C96.3239 178.245 96.719 179.143 97.3999 179.8C97.7299 180.123 98.1207 180.378 98.5498 180.55C98.9789 180.722 99.4378 180.806 99.8999 180.8C100.379 180.82 100.856 180.742 101.304 180.57C101.751 180.398 102.158 180.136 102.5 179.8C103.119 179.112 103.474 178.225 103.5 177.3V173.3Z" fill="#CF1D00"/>
<path fill-rule="evenodd" clip-rule="evenodd" d="M85.2001 197.2C85.2001 197.2 82.3001 193.5 80.2001 196.4C78.1001 199.3 84.1001 206.2 85.2001 206.2C87.4001 202.3 86.9001 197.2 85.2001 197.2Z" fill="#CF1D00"/>
<path fill-rule="evenodd" clip-rule="evenodd" d="M113.6 197.2C113.6 197.2 116.5 193.5 118.6 196.4C120.7 199.3 114.6 206.2 113.6 206.2C110.3 202.8 111.2 197.5 113.6 197.2Z" fill="#CF1D00"/>
<path d="M1284.9 -0.199951H362.9V606.44H1284.9V-0.199951Z" fill="#CF1D00"/>
<path fill-rule="evenodd" clip-rule="evenodd" d="M1250.4 62.0999C1250.41 58.406 1249.7 54.7459 1248.29 51.3306C1246.88 47.9152 1244.81 44.8121 1242.2 42.1999C1236.9 36.9615 1229.75 34.0165 1222.3 33.9999H425.501C421.807 33.9867 418.147 34.7045 414.732 36.112C411.316 37.5195 408.213 39.5888 405.601 42.2008C402.989 44.8127 400.92 47.9157 399.513 51.3309C398.105 54.7461 397.387 58.4061 397.401 62.0999V497.5C397.417 504.952 400.362 512.099 405.601 517.4C408.213 520.012 411.316 522.081 414.731 523.488C418.146 524.896 421.807 525.613 425.501 525.6H1222.3C1225.99 525.613 1229.65 524.895 1233.07 523.488C1236.48 522.08 1239.59 520.011 1242.2 517.399C1244.81 514.787 1246.88 511.684 1248.29 508.269C1249.7 504.854 1250.41 501.194 1250.4 497.5V62.0999Z" fill="#FFFAF0"/>
<path d="M1200.9 551.7H975.4V581H1200.9V551.7Z" fill="#FBBE2E"/>
<path d="M1250.4 551.7H1200.9V581H1250.4V551.7Z" fill="#4FB3F6"/>
<path fill-rule="evenodd" clip-rule="evenodd" d="M550.6 434.5H397.4V497.9C397.4 501.546 398.12 505.156 399.518 508.523C400.917 511.891 402.966 514.949 405.549 517.522C408.132 520.096 411.197 522.134 414.569 523.52C417.942 524.906 421.554 525.613 425.2 525.6H550.6V434.5Z" fill="#BDC7FB"/>
<path fill-rule="evenodd" clip-rule="evenodd" d="M550.6 434.5H1250.4V497.9C1250.4 501.538 1249.68 505.14 1248.29 508.5C1246.9 511.861 1244.86 514.915 1242.29 517.487C1239.71 520.059 1236.66 522.099 1233.3 523.491C1229.94 524.884 1226.34 525.6 1222.7 525.6H550.6V434.5Z" fill="#FBBE2E"/>
<path d="M471.1 81.8H397.4V434.23H471.1V81.8Z" fill="#4FB3F6"/>
<path fill-rule="evenodd" clip-rule="evenodd" d="M578.2 606.4H554.3L485.7 689.7H509.6L578.2 606.4Z" fill="#8D1A00"/>
<path fill-rule="evenodd" clip-rule="evenodd" d="M1069.1 606.4H1092.9L1161.5 689.7H1137.6L1069.1 606.4Z" fill="#8D1A00"/>
<path fill-rule="evenodd" clip-rule="evenodd" d="M578.2 606.4H554.3L542.3 620.9H566.2L578.2 606.4Z" fill="black"/>
<path fill-rule="evenodd" clip-rule="evenodd" d="M1069.1 606.4H1092.9L1104.9 620.9H1081L1069.1 606.4Z" fill="black"/>
<path d="M941.5 320H888.4V434.28H941.5V320Z" fill="#BDC7FB"/>
<path d="M994.6 371.4H941.5V434.24H994.6V371.4Z" fill="#4FB3F6"/>
<path fill-rule="evenodd" clip-rule="evenodd" d="M556.1 267.9C559.9 238.5 570.6 145.1 624.3 145.1C678 145.1 688.7 269.2 688.7 269.2C688.7 269.2 584.9 267.9 556.1 267.9Z" fill="#5B3100"/>
<path fill-rule="evenodd" clip-rule="evenodd" d="M610.2 255.1C610.2 255.1 576.1 262.5 557.9 267.5C539.7 272.5 523.3 282.5 515.4 299.6C507.5 316.7 479.6 370.4 474 383.8C468.4 397.2 468.3 434.5 501.3 434.5H754.2C766.3 434.5 778.8 420 788 404.6C797.2 389.2 828.4 330.3 828.4 330.3L793.8 282.5L748.8 348.4C748.8 348.4 741.7 319.6 738.8 306.7C735.9 293.8 724.6 280.8 704.6 274.2C684.6 267.6 637.5 254.2 637.5 254.2L610.2 255.1Z" fill="#CF1D00"/>
<path fill-rule="evenodd" clip-rule="evenodd" d="M793.8 282.5C799.5 274.2 808 262.5 815.7 265.9C821.5 257.4 844.1 231.6 848.1 226.4C852.1 221.2 863.1 223.5 858.5 232C853.9 240.5 835.3 268.3 835.3 268.3C835.3 268.3 844.9 261.7 847.9 267.2C850.9 272.7 846.7 283.6 846.7 283.6C847.994 283.553 849.274 283.877 850.39 284.532C851.505 285.187 852.411 286.148 853 287.3C855.4 291.3 853.5 301.3 853.5 301.3C853.5 301.3 859 324.4 850.7 327.2C842.4 330 843 317.8 843 317.8C843 317.8 833.8 328.1 828.4 330.3C823 332.5 806.3 333.1 798 320.5C789.7 307.9 788.1 290.8 793.8 282.5Z" fill="#FFC7BF"/>
<path fill-rule="evenodd" clip-rule="evenodd" d="M610.2 255.1C610.2 255.1 585.1 297.5 597 301C608.9 304.5 623.9 266.5 623.9 266.5C623.9 266.5 644 299.8 651.5 296.5C659 293.2 640 254.7 640 254.7L610.2 255.1Z" fill="white"/>
<path fill-rule="evenodd" clip-rule="evenodd" d="M582.3 191.4H667C667 191.4 641 158.8 622.4 158.8C603.8 158.8 582.3 191.4 582.3 191.4Z" fill="#5B3100"/>
<path fill-rule="evenodd" clip-rule="evenodd" d="M588 191.4V216.2C588 223.4 592.9 258 624.6 258C656.3 258 662.3 225.5 662.3 216.4V191.4H588Z" fill="#FFC7BF"/>
<path fill-rule="evenodd" clip-rule="evenodd" d="M588 207.1C588 207.1 578.4 207.2 579.5 217.6C579.757 220.522 580.945 223.284 582.889 225.48C584.833 227.676 587.431 229.191 590.3 229.8L588 207.1Z" fill="#FFC7BF"/>
<path fill-rule="evenodd" clip-rule="evenodd" d="M662.4 207.1C662.4 207.1 672 207.2 671 217.6C670 228 660.1 229.8 660.1 229.8L662.4 207.1Z" fill="#FFC7BF"/>
<path d="M609.3 216.2C613.774 216.2 617.4 212.574 617.4 208.1C617.4 203.626 613.774 200 609.3 200C604.827 200 601.2 203.626 601.2 208.1C601.2 212.574 604.827 216.2 609.3 216.2Z" fill="white"/>
<path d="M641 216.2C645.474 216.2 649.1 212.574 649.1 208.1C649.1 203.626 645.474 200 641 200C636.527 200 632.9 203.626 632.9 208.1C632.9 212.574 636.527 216.2 641 216.2Z" fill="white"/>
<path d="M588 204.4H602.1" stroke="#CF1D00" stroke-width="2.08" stroke-linecap="round" stroke-linejoin="round"/>
<path d="M617.3 208.1H633" stroke="#CF1D00" stroke-width="2.08" stroke-linecap="round" stroke-linejoin="round"/>
<path d="M648.2 204.4H662.3" stroke="#CF1D00" stroke-width="2.08" stroke-linecap="round" stroke-linejoin="round"/>
<path d="M620.7 227.5H629.6" stroke="black" stroke-width="2.08" stroke-linecap="round" stroke-linejoin="round"/>
<path fill-rule="evenodd" clip-rule="evenodd" d="M608.1 234.3C606.9 236.9 608.7 238.4 611.6 240.9C614.5 243.4 618.399 245.1 625.199 245.1C631.999 245.1 635.2 242.1 637.6 240.3C640 238.5 640.5 235.1 639.5 234.1C638.5 233.1 636.4 232.5 634 233.7C631.6 234.9 627.399 238.2 625.199 238.2C622.999 238.2 618.499 235.6 615.199 233.6C611.899 231.6 609.2 231.9 608.1 234.3Z" fill="white"/>
<path d="M551.7 330.3V381.5" stroke="#8D1A00" stroke-width="2.08" stroke-linecap="round" stroke-linejoin="round"/>
<path d="M501.6 381.5H585.1C596.5 381.5 607.7 394 607.7 404.9C607.7 415.8 603.3 434.3 588 434.3" stroke="#8D1A00" stroke-width="2.08" stroke-linecap="round" stroke-linejoin="round"/>
<path fill-rule="evenodd" clip-rule="evenodd" d="M602.8 391.6C612.8 391.6 625.9 394.1 633.6 403.9C639.8 411.8 641.5 414.7 644.1 418.2C649.3 418.4 658.7 423.7 656 434.3H589.1C602.7 434.3 614.2 409.1 602.8 391.6Z" fill="#FFC7BF"/>
<path d="M693.9 321.7V413.5C693.9 420.9 701.3 434.3 714.9 434.3" stroke="#8D1A00" stroke-width="2.08" stroke-linecap="round" stroke-linejoin="round"/>
<path d="M748.8 348.4L730.3 375.5" stroke="#8D1A00" stroke-width="2.08" stroke-linecap="round" stroke-linejoin="round"/>
<path d="M815.7 265.9C819.7 269.1 827.4 286.1 828.4 293.9C829.4 301.7 819.1 303 817.2 298.4C815.3 293.8 808.8 283 808.8 283" stroke="black" stroke-width="1.81" stroke-linecap="round" stroke-linejoin="round"/>
<path d="M836.8 273.8C836.8 273.8 834.7 284.3 833.7 288.5C832.7 292.7 832.9 298.4 836.1 299.2C839.3 300 842.4 298.3 845 290.7C845.734 288.377 846.302 286.004 846.7 283.6" stroke="black" stroke-width="1.81" stroke-linecap="round" stroke-linejoin="round"/>
<path d="M841.8 297C841.8 297 835.8 311 839.9 312.6C844 314.2 852.5 306.2 853.5 301.3" stroke="black" stroke-width="1.81" stroke-linecap="round" stroke-linejoin="round"/>
<path d="M1210.6 81.8H941.4V265.83H1210.6V81.8Z" fill="#FFC7BF"/>
<path d="M1102.4 208.6H1050.9V265.84H1102.4V208.6Z" fill="#FBBE2E"/>
<path d="M1070.1 230L1076.6 237.3L1082.9 229.2" stroke="#5B3100" stroke-width="2.08" stroke-linecap="round" stroke-linejoin="round"/>
<path d="M1076.6 237.3V265.9" stroke="#5B3100" stroke-width="2.08" stroke-linecap="round" stroke-linejoin="round"/>
<path fill-rule="evenodd" clip-rule="evenodd" d="M1019.8 148.6H1034.3V182.6C1034.3 182.6 1046.3 164.7 1048.7 160.3C1051.1 155.9 1058.1 152.9 1061.6 152.9H1096.8C1101.8 152.9 1108.9 155.8 1111.7 162.6C1114.5 169.4 1120 187.2 1119.8 200.4C1119.6 213.6 1117.1 237.3 1117.1 237.3H1102.4V208.6H1050.9V198.8C1050.9 198.8 1044.4 210.3 1040 216.1C1035.6 221.9 1019.1 223.6 1019.1 208.6C1019.1 193.6 1019.8 148.6 1019.8 148.6Z" fill="#BDC7FB"/>
<path d="M1050.9 198.8V180.6" stroke="#5B3100" stroke-width="2.08" stroke-linecap="round" stroke-linejoin="round"/>
<path d="M1034.4 199.8V181.6" stroke="#5B3100" stroke-width="2.08" stroke-linecap="round" stroke-linejoin="round"/>
<path d="M1102.4 208.6V180.6" stroke="#5B3100" stroke-width="2.08" stroke-linecap="round" stroke-linejoin="round"/>
<path fill-rule="evenodd" clip-rule="evenodd" d="M1034.4 148.6C1042.6 140.9 1042.8 139 1041.8 137.5C1040.8 136 1038.7 136.4 1036.7 138.3C1034.7 140.2 1031.2 141.9 1031.5 136.9C1032.2 126.6 1030.9 125 1029.1 125C1027.3 125 1026.4 128.3 1026.1 136.6C1026 139.8 1023.5 139.3 1022.1 136.3C1018.7 128.8 1016.8 126.8 1015 127.5C1013.2 128.2 1013.6 130.6 1017.7 139C1019 141.6 1016.2 142 1014.3 141.1C1012.4 140.2 1008.1 139.1 1007.1 141C1006.1 142.9 1006.9 143.9 1010.3 145.3C1013.7 146.7 1019.8 148.6 1019.8 148.6H1034.4Z" fill="#CF1D00"/>
<path fill-rule="evenodd" clip-rule="evenodd" d="M1073.4 156.4L1080.9 169.5L1087.9 156.8C1087.9 156.8 1081 167.1 1073.4 156.4Z" fill="white"/>
<path fill-rule="evenodd" clip-rule="evenodd" d="M1102.4 253.3C1102.4 253.3 1115.8 251.9 1117.1 237.3H1102.4V253.3Z" fill="#CF1D00"/>
<path fill-rule="evenodd" clip-rule="evenodd" d="M1082.3 123.6C1077 123.6 1068.5 125.2 1068.5 135.6C1068.5 146 1071 160.6 1080.7 161.4C1090.4 162.2 1094 140.5 1093.9 135.6C1093.8 130.7 1092.4 123.6 1082.3 123.6Z" fill="#CF1D00"/>
<path fill-rule="evenodd" clip-rule="evenodd" d="M1068.5 136.1C1068.5 136.1 1065.7 134.1 1063.9 135.3C1062.1 136.5 1065 144.1 1069.2 144.4C1068.9 140.5 1068.5 136.1 1068.5 136.1Z" fill="#CF1D00"/>
<path fill-rule="evenodd" clip-rule="evenodd" d="M1093.7 136.1C1093.7 136.1 1096.5 134.1 1098.3 135.3C1100.1 136.5 1096.8 144.4 1092.6 144.7C1092.9 140.8 1093.7 136.1 1093.7 136.1Z" fill="#CF1D00"/>
<path fill-rule="evenodd" clip-rule="evenodd" d="M1076.9 124.3C1076.9 124.3 1075.4 117.7 1079.1 115.4C1082.8 113.1 1088.9 112 1091.4 114.7C1093.9 117.4 1088.7 123.4 1085.6 124C1082.6 122.7 1076.9 124.3 1076.9 124.3Z" fill="#FBBE2E"/>
<path d="M1075.7 137.7V139.6" stroke="#5B3100" stroke-width="2.08" stroke-linecap="round" stroke-linejoin="round"/>
<path d="M1086.5 137.7V139.6" stroke="#5B3100" stroke-width="2.08" stroke-linecap="round" stroke-linejoin="round"/>
<path d="M1081.9 144.3H1079.9" stroke="#5B3100" stroke-width="2.08" stroke-linecap="round" stroke-linejoin="round"/>
<path d="M1075.7 148.7C1075.7 148.7 1081 152.1 1086.5 148.7" stroke="#5B3100" stroke-width="2.08" stroke-linecap="round" stroke-linejoin="round"/>
<path fill-rule="evenodd" clip-rule="evenodd" d="M973 192.4L979.4 202.6L973 212.7L966.7 202.6L973 192.4Z" fill="white"/>
<path fill-rule="evenodd" clip-rule="evenodd" d="M1150 123.8L1156.4 134L1150 144.1L1143.6 134L1150 123.8Z" fill="white"/>
<path d="M979.4 109.9L999.7 129.7" stroke="#CF1D00" stroke-width="2.08" stroke-linecap="round" stroke-linejoin="round"/>
<path d="M995.8 186.9L1005 183.5" stroke="#CF1D00" stroke-width="2.08" stroke-linecap="round" stroke-linejoin="round"/>
<path d="M1007.8 248L1019.7 238" stroke="#CF1D00" stroke-width="2.08" stroke-linecap="round" stroke-linejoin="round"/>
<path d="M1152.5 243L1136.7 227.2" stroke="#CF1D00" stroke-width="2.08" stroke-linecap="round" stroke-linejoin="round"/>
<path d="M1171.1 183.5H1139.5" stroke="#CF1D00" stroke-width="2.08" stroke-linecap="round" stroke-linejoin="round"/>
<path d="M1127.8 109.9L1113.9 122.2" stroke="#CF1D00" stroke-width="2.08" stroke-linecap="round" stroke-linejoin="round"/>
</g>
<defs>
<clipPath id="clip0_463:20932">
<rect width="1586" height="697" fill="white"/>
</clipPath>
</defs>
</svg>
