<svg width="2087" height="718" viewBox="0 0 2087 718" fill="none" xmlns="http://www.w3.org/2000/svg">
<g clip-path="url(#clip0_463:21040)">
<path fill-rule="evenodd" clip-rule="evenodd" d="M1090 718.41L1453.64 2.21997H1051.5H1021.59H643.51L1007.15 718.41H1090Z" fill="#FEDD8E"/>
<path fill-rule="evenodd" clip-rule="evenodd" d="M1048.59 718.41H215.76C198.11 718.41 217.41 716.49 228.23 716.22C239.42 715.94 1048.59 705.62 1048.59 705.62V718.41Z" fill="black"/>
<path fill-rule="evenodd" clip-rule="evenodd" d="M1048.59 718.41H1881.42C1899.07 718.41 1879.77 716.49 1868.95 716.22C1857.76 715.94 1048.59 705.62 1048.59 705.62V718.41Z" fill="black"/>
<path fill-rule="evenodd" clip-rule="evenodd" d="M1048.58 45.6499L1151.97 192.88H945.18L1048.58 45.6499Z" fill="white"/>
<path d="M1420.29 2.21997L1100.32 119.26" stroke="white" stroke-width="1.8072" stroke-miterlimit="10" stroke-linecap="round" stroke-linejoin="round"/>
<path fill-rule="evenodd" clip-rule="evenodd" d="M995.45 121.52L994.69 122.65L706.18 0H722.65L995.45 121.52Z" fill="#FEDD8E"/>
<path fill-rule="evenodd" clip-rule="evenodd" d="M994.699 122.65L993.949 123.78L689.709 0H706.179L994.699 122.65Z" fill="#60D399"/>
<path fill-rule="evenodd" clip-rule="evenodd" d="M997.019 119.29L996.269 120.42L739.119 0H755.589L997.019 119.29Z" fill="#FF341A"/>
<path fill-rule="evenodd" clip-rule="evenodd" d="M993.869 123.76L993.119 124.89L673.239 0H689.709L993.869 123.76Z" fill="#0089E3"/>
<path fill-rule="evenodd" clip-rule="evenodd" d="M993.089 124.88L992.329 126L656.77 0H673.24L993.089 124.88Z" fill="#163BF3"/>
<path fill-rule="evenodd" clip-rule="evenodd" d="M996.229 120.4L995.469 121.53L722.649 0H739.119L996.229 120.4Z" fill="#FBBE2E"/>
<path fill-rule="evenodd" clip-rule="evenodd" d="M1100.32 119.26H996.919L992.149 126L1100.32 119.26Z" fill="#FEDD8E"/>
<path d="M1187.66 481.09H1194.5" stroke="#8D1A00" stroke-width="1.8072" stroke-miterlimit="10" stroke-linecap="round" stroke-linejoin="round"/>
<path d="M1296.93 142.17L1078.38 711.39" stroke="black" stroke-width="1.8072" stroke-miterlimit="10" stroke-linecap="round" stroke-linejoin="round"/>
<path fill-rule="evenodd" clip-rule="evenodd" d="M1447.9 123.46L1453.9 108.58C1462.02 88.2101 1500.98 102.53 1523.65 125.08C1545.85 147.16 1572.99 195.71 1598.89 206.04C1615.94 212.84 1640.96 209.14 1645.88 197.04L1640.1 212.02C1635.18 224.12 1610.16 227.81 1593.11 221.01C1567.21 210.68 1540.62 161.55 1517.87 140.05C1495.45 118.88 1456.73 101.34 1447.9 123.46Z" fill="black"/>
<path fill-rule="evenodd" clip-rule="evenodd" d="M1426.55 179.03L1432.3 164.06C1440.42 143.69 1479.7 158.15 1502.38 180.7C1524.57 202.78 1551.72 251.33 1577.62 261.66C1594.67 268.46 1619.69 264.77 1624.61 252.67L1618.83 267.64C1613.91 279.74 1588.88 283.43 1571.84 276.63C1545.94 266.3 1519.36 217.17 1496.6 195.67C1474.17 174.51 1435.37 156.92 1426.55 179.03Z" fill="#FEDD8E"/>
<path fill-rule="evenodd" clip-rule="evenodd" d="M1437.32 151.74L1443.07 136.77C1451.19 116.4 1490.48 130.86 1513.15 153.41C1535.34 175.49 1562.49 224.04 1588.39 234.37C1605.44 241.17 1630.46 237.48 1635.38 225.38L1629.6 240.35C1624.68 252.45 1599.66 256.14 1582.61 249.34C1556.71 239.01 1530.13 189.88 1507.37 168.38C1484.94 147.21 1446.15 129.62 1437.32 151.74Z" fill="#FF341A"/>
<path fill-rule="evenodd" clip-rule="evenodd" d="M1416.04 207.36L1421.79 192.39C1429.91 172.02 1469.19 186.48 1491.86 209.03C1514.06 231.11 1541.2 279.66 1567.1 289.99C1584.15 296.79 1609.17 293.1 1614.09 281L1608.31 295.97C1603.39 308.07 1578.37 311.76 1561.32 304.96C1535.42 294.64 1508.83 245.5 1486.08 224.01C1463.66 202.84 1424.86 185.25 1416.04 207.36Z" fill="#0089E3"/>
<path fill-rule="evenodd" clip-rule="evenodd" d="M1442.49 137.52L1448.33 122.33C1456.45 101.96 1495.5 116.4 1518.17 138.95C1540.36 161.03 1567.51 209.58 1593.41 219.9C1610.46 226.7 1635.48 223.01 1640.4 210.91L1634.62 225.88C1629.7 237.98 1604.67 241.67 1587.63 234.88C1561.73 224.55 1535.14 175.42 1512.39 153.92C1489.97 132.76 1451.32 115.41 1442.49 137.52Z" fill="#8D1A00"/>
<path fill-rule="evenodd" clip-rule="evenodd" d="M1421.06 192.91L1426.81 177.94C1434.93 157.57 1474.21 172.03 1496.89 194.58C1519.08 216.66 1546.23 265.21 1572.13 275.54C1589.18 282.34 1614.2 278.64 1619.12 266.54L1613.34 281.52C1608.42 293.62 1583.39 297.31 1566.35 290.51C1540.45 280.18 1513.87 231.05 1491.11 209.55C1468.69 188.38 1429.89 170.8 1421.06 192.91Z" fill="#60D399"/>
<path fill-rule="evenodd" clip-rule="evenodd" d="M1431.83 165.62L1437.58 150.65C1445.7 130.28 1484.98 144.74 1507.65 167.29C1529.85 189.37 1556.99 237.92 1582.89 248.25C1599.94 255.05 1624.96 251.35 1629.88 239.25L1624.1 254.23C1619.18 266.33 1594.16 270.02 1577.11 263.22C1551.21 252.89 1524.63 203.76 1501.87 182.26C1479.46 161.09 1440.66 143.5 1431.83 165.62Z" fill="#FBBE2E"/>
<path fill-rule="evenodd" clip-rule="evenodd" d="M1410.55 221.25L1416.3 206.28C1424.42 185.91 1463.7 200.37 1486.38 222.92C1508.57 245 1535.72 293.55 1561.62 303.88C1578.67 310.68 1603.69 306.99 1608.61 294.89L1602.83 309.86C1597.91 321.96 1572.88 325.65 1555.84 318.85C1529.94 308.52 1503.35 259.39 1480.6 237.89C1458.17 216.72 1419.38 199.13 1410.55 221.25Z" fill="#163BF3"/>
<path fill-rule="evenodd" clip-rule="evenodd" d="M1490.23 230.7C1495.29 217.68 1498.51 194.88 1483.94 170.61C1469.37 146.34 1446.9 127.08 1453.34 109.28C1443.21 135.69 1409.59 222.98 1409.59 222.98C1409.59 222.98 1475 269.91 1490.23 230.7Z" fill="#8D1A00"/>
<path fill-rule="evenodd" clip-rule="evenodd" d="M1292.17 157.07L1297.92 142.1C1297.92 142.1 1345.24 137.25 1367.99 158.74C1390.75 180.23 1417.33 229.37 1443.23 239.7C1460.28 246.5 1485.3 242.81 1490.22 230.71L1484.44 245.68C1479.52 257.78 1454.5 261.47 1437.45 254.67C1411.55 244.35 1384.97 195.21 1362.21 173.72C1339.79 152.54 1293.55 156.93 1292.17 157.07Z" fill="black"/>
<path fill-rule="evenodd" clip-rule="evenodd" d="M1269.3 216.52L1275.05 201.55C1275.05 201.55 1322.37 196.7 1345.12 218.19C1367.88 239.68 1394.46 288.82 1420.36 299.15C1437.41 305.95 1462.43 302.25 1467.35 290.15L1461.57 305.13C1456.65 317.23 1431.63 320.92 1414.58 314.12C1388.68 303.79 1362.09 254.66 1339.34 233.16C1316.92 211.99 1270.67 216.38 1269.3 216.52Z" fill="#FEDD8E"/>
<path fill-rule="evenodd" clip-rule="evenodd" d="M1280.78 186.69L1286.53 171.72C1286.53 171.72 1333.85 166.87 1356.61 188.36C1379.37 209.85 1405.95 258.99 1431.85 269.32C1448.9 276.12 1473.92 272.43 1478.84 260.33L1473.06 275.3C1468.14 287.4 1443.12 291.09 1426.07 284.29C1400.17 273.96 1373.59 224.83 1350.83 203.33C1328.4 182.16 1282.15 186.55 1280.78 186.69Z" fill="#FF341A"/>
<path fill-rule="evenodd" clip-rule="evenodd" d="M1257.9 246.13L1263.65 231.16C1263.65 231.16 1310.97 226.31 1333.73 247.8C1356.49 269.29 1383.07 318.43 1408.97 328.76C1426.02 335.56 1451.04 331.87 1455.96 319.77L1450.18 334.74C1445.26 346.84 1420.23 350.53 1403.19 343.74C1377.29 333.41 1350.71 284.28 1327.95 262.78C1305.52 241.61 1259.27 246 1257.9 246.13Z" fill="#0089E3"/>
<path fill-rule="evenodd" clip-rule="evenodd" d="M1286.43 171.95L1292.18 156.98C1292.18 156.98 1339.5 152.13 1362.26 173.62C1385.02 195.11 1411.6 244.25 1437.5 254.58C1454.55 261.38 1479.57 257.69 1484.49 245.59L1478.71 260.56C1473.79 272.66 1448.76 276.35 1431.72 269.55C1405.82 259.22 1379.24 210.09 1356.48 188.59C1334.06 167.43 1287.81 171.82 1286.43 171.95Z" fill="#8D1A00"/>
<path fill-rule="evenodd" clip-rule="evenodd" d="M1263.56 231.4L1269.31 216.43C1269.31 216.43 1316.63 211.58 1339.39 233.07C1362.15 254.56 1388.73 303.7 1414.63 314.03C1431.68 320.83 1456.7 317.14 1461.62 305.04L1455.84 320.01C1450.92 332.11 1425.89 335.8 1408.85 329.01C1382.95 318.68 1356.37 269.55 1333.61 248.05C1311.18 226.88 1264.93 231.26 1263.56 231.4Z" fill="#60D399"/>
<path fill-rule="evenodd" clip-rule="evenodd" d="M1275.03 201.57L1280.78 186.6C1280.78 186.6 1328.1 181.75 1350.86 203.24C1373.62 224.73 1400.2 273.87 1426.1 284.2C1443.15 291 1468.17 287.3 1473.09 275.2L1467.31 290.18C1462.39 302.28 1437.36 305.97 1420.32 299.17C1394.42 288.84 1367.83 239.71 1345.08 218.21C1322.66 197.04 1276.41 201.44 1275.03 201.57Z" fill="#FBBE2E"/>
<path fill-rule="evenodd" clip-rule="evenodd" d="M1252.16 261.02L1257.91 246.05C1257.91 246.05 1305.23 241.2 1327.98 262.69C1350.74 284.18 1377.32 333.32 1403.22 343.65C1420.27 350.45 1445.29 346.76 1450.21 334.66L1444.43 349.63C1439.51 361.73 1414.49 365.42 1397.44 358.62C1371.54 348.3 1344.96 299.16 1322.2 277.66C1299.78 256.49 1253.53 260.88 1252.16 261.02Z" fill="#163BF3"/>
<path d="M1452.99 107.62C1451.24 111.79 1450.43 127.84 1464.59 143.06" stroke="#FFFAF0" stroke-width="1.8072" stroke-miterlimit="10" stroke-linecap="round" stroke-linejoin="round"/>
<path fill-rule="evenodd" clip-rule="evenodd" d="M1162.81 482.53C1164.35 483.06 1167.54 487.45 1165.64 493.39C1163.73 499.34 1160.23 504.32 1154.45 504.32C1148.67 504.32 1149.21 496.66 1151.19 492.43C1153.17 488.19 1157.77 480.77 1162.81 482.53Z" fill="#FF341A"/>
<path fill-rule="evenodd" clip-rule="evenodd" d="M1533.15 617.01C1530.32 606.64 1531.47 595.19 1537.26 585.16C1548.78 565.21 1574.33 558.36 1594.28 569.88C1609 578.38 1616.59 594.52 1614.92 610.42C1627.85 601.03 1645.62 599.53 1660.35 608.03C1680.31 619.55 1687.15 645.1 1675.63 665.05C1669.84 675.08 1660.5 681.8 1650.1 684.54L1556 712.49L1533.15 617.01Z" fill="#FF341A"/>
<path fill-rule="evenodd" clip-rule="evenodd" d="M1420.76 512.56V558.65C1420.76 567.06 1422.93 574.59 1431.19 578.36C1439.45 582.13 1446.41 574.74 1450.76 571.69C1455.11 568.65 1467.4 557.92 1467.4 557.92V580.38H1517.14V541.1L1594.52 434.77C1594.52 434.77 1592.64 428.39 1588.87 425.49C1585.1 422.59 1578.72 423.32 1578.72 423.32L1502.5 522.84H1481.77C1475.83 522.84 1468.71 522.12 1462.85 528.78C1456.99 535.45 1444.23 547.04 1444.23 547.04L1438.72 510.23L1420.76 512.56Z" fill="#60D399"/>
<path fill-rule="evenodd" clip-rule="evenodd" d="M1581.36 439.92C1577.68 438.26 1574.7 433.18 1574.79 430.54C1574.88 427.9 1575.14 420.76 1575.28 419.51C1575.42 418.27 1578.53 417.09 1578.8 419.57C1579.07 422.05 1579.93 425.63 1579.93 425.63C1579.93 425.63 1586.19 409.61 1587.15 407.31C1588.11 405.01 1590.96 406.12 1590.07 408.53C1589.18 410.95 1585.73 422.9 1585.73 422.9C1585.73 422.9 1592.06 410.68 1593.18 408.67C1594.31 406.66 1597.13 407.52 1596.03 409.97C1594.93 412.43 1589.88 424.65 1589.88 424.65C1589.88 424.65 1598.68 412.9 1599.58 411.76C1600.48 410.62 1603.95 411.41 1602.11 413.86C1600.27 416.32 1594.65 425.83 1594.65 425.83C1594.65 425.83 1602.49 421.44 1604 420.37C1605.52 419.3 1607.97 421.14 1605.12 423.52C1602.27 425.9 1593.25 435.9 1591.54 437.42C1589.84 438.95 1585.05 441.58 1581.36 439.92Z" fill="#8D1A00"/>
<path fill-rule="evenodd" clip-rule="evenodd" d="M1429.96 517.6C1433.95 516.95 1438.14 512.81 1438.73 510.24C1439.33 507.67 1440.92 500.7 1441.11 499.46C1441.3 498.23 1438.6 496.28 1437.69 498.61C1436.79 500.94 1435.03 504.17 1435.03 504.17C1435.03 504.17 1433.13 487.07 1432.8 484.6C1432.47 482.13 1429.43 482.46 1429.66 485.03C1429.9 487.59 1430.14 500.04 1430.14 500.04C1430.14 500.04 1427.19 486.6 1426.63 484.37C1426.06 482.14 1423.12 482.23 1423.54 484.89C1423.97 487.55 1425.68 500.66 1425.68 500.66C1425.68 500.66 1420.22 487.03 1419.65 485.7C1419.08 484.37 1415.52 484.23 1416.66 487.08C1417.8 489.93 1420.77 500.57 1420.77 500.57C1420.77 500.57 1414.34 494.3 1413.15 492.88C1411.96 491.46 1409.11 492.6 1411.25 495.63C1413.39 498.67 1419.51 510.66 1420.77 512.57C1422.02 514.47 1425.98 518.25 1429.96 517.6Z" fill="#8D1A00"/>
<path d="M1444.24 547.05L1445.96 558.51" stroke="#8D1A00" stroke-width="1.8072" stroke-miterlimit="10" stroke-linecap="round" stroke-linejoin="round"/>
<path d="M1467.4 558.51V548.65" stroke="#8D1A00" stroke-width="1.8072" stroke-miterlimit="10" stroke-linecap="round" stroke-linejoin="round"/>
<path fill-rule="evenodd" clip-rule="evenodd" d="M1485.63 522.85C1485.63 522.85 1488.78 538.03 1493.05 538.03C1497.31 538.03 1502.51 522.85 1502.51 522.85H1485.63Z" fill="black"/>
<path d="M1494.06 518.51C1509.51 518.51 1522.03 505.987 1522.03 490.54C1522.03 475.092 1509.51 462.57 1494.06 462.57C1478.61 462.57 1466.09 475.092 1466.09 490.54C1466.09 505.987 1478.61 518.51 1494.06 518.51Z" fill="black"/>
<path fill-rule="evenodd" clip-rule="evenodd" d="M1494.06 504.87C1500.23 504.87 1505.24 509.88 1505.24 516.05C1505.24 522.22 1500.23 527.23 1494.06 527.23C1487.89 527.23 1482.88 522.22 1482.88 516.05C1482.89 509.88 1487.89 504.87 1494.06 504.87Z" fill="#8D1A00"/>
<path fill-rule="evenodd" clip-rule="evenodd" d="M1483.41 512.65H1504.71C1504.71 512.65 1505.1 502.23 1494.06 502.23C1483.03 502.23 1483.41 512.65 1483.41 512.65Z" fill="black"/>
<path fill-rule="evenodd" clip-rule="evenodd" d="M1467.4 580.39C1467.4 586.19 1461.63 592.98 1459.13 607.7C1456.64 622.42 1468.25 669.3 1468.25 669.3H1512.08C1512.08 669.3 1524.96 620.03 1524.96 609.62C1524.96 599.2 1517.14 586.01 1517.14 580.39H1467.4Z" fill="#163BF3"/>
<path fill-rule="evenodd" clip-rule="evenodd" d="M1468.26 669.3C1468.26 669.3 1471.74 692.73 1472.55 697.83H1478.69L1484.37 669.3H1468.26Z" fill="#FF341A"/>
<path fill-rule="evenodd" clip-rule="evenodd" d="M1512.09 669.3C1512.09 669.3 1509.89 692.73 1507.8 697.83H1501.65L1495.97 669.3H1512.09Z" fill="#FF341A"/>
<path fill-rule="evenodd" clip-rule="evenodd" d="M1472.55 697.83C1472.89 700.96 1468.26 710.44 1468.26 712.48H1480.67L1478.7 697.83H1472.55Z" fill="#FBBE2E"/>
<path fill-rule="evenodd" clip-rule="evenodd" d="M1507.8 697.83C1509.59 706.84 1520.99 709.2 1520.99 712.48H1499.68L1501.65 697.83H1507.8Z" fill="#FBBE2E"/>
<path d="M1490.06 521.42C1492.58 523.96 1495.22 524.04 1497.98 521.42" stroke="black" stroke-width="1.8072" stroke-miterlimit="10" stroke-linecap="round" stroke-linejoin="round"/>
<path d="M1482.89 516.05H1505.24" stroke="black" stroke-width="1.8072" stroke-miterlimit="10" stroke-linecap="round" stroke-linejoin="round"/>
<path fill-rule="evenodd" clip-rule="evenodd" d="M1490.06 513.63C1491.4 513.63 1492.48 514.71 1492.48 516.05C1492.48 517.39 1491.39 518.47 1490.06 518.47C1488.73 518.47 1487.64 517.39 1487.64 516.05C1487.64 514.71 1488.72 513.63 1490.06 513.63Z" fill="#FFC7BF"/>
<path fill-rule="evenodd" clip-rule="evenodd" d="M1497.98 513.63C1499.32 513.63 1500.4 514.71 1500.4 516.05C1500.4 517.39 1499.31 518.47 1497.98 518.47C1496.65 518.47 1495.56 517.39 1495.56 516.05C1495.55 514.71 1496.64 513.63 1497.98 513.63Z" fill="#FFC7BF"/>
<path fill-rule="evenodd" clip-rule="evenodd" d="M1035.83 321.12H1012.12C1002.18 321.12 978.52 320.22 966.37 337.24C954.21 354.26 931.67 385.42 923.27 407.52C914.87 429.62 920.84 440.45 928.35 445.09C935.86 449.73 953.86 457.09 962.92 444.05C971.98 431.01 976.31 422.11 976.31 422.11V481.45C976.31 486.85 977.54 487.77 983.3 487.77H1048.58C1055.35 440.61 1062.58 393.57 1048.58 340.87L1035.83 321.12Z" fill="#163BF3"/>
<path fill-rule="evenodd" clip-rule="evenodd" d="M1061.34 321.12H1085.05C1094.99 321.12 1118.65 320.22 1130.8 337.24C1142.95 354.26 1165.5 385.42 1173.9 407.52C1182.3 429.62 1176.33 440.45 1168.81 445.09C1161.29 449.73 1143.3 457.09 1134.24 444.05C1125.18 431.01 1120.85 422.11 1120.85 422.11V481.45C1120.85 486.85 1119.62 487.77 1113.86 487.77H1048.58V340.87L1061.34 321.12Z" fill="#163BF3"/>
<path d="M976.32 422.1L1002.83 372.74" stroke="#8D1A00" stroke-width="1.8072" stroke-miterlimit="10" stroke-linecap="round" stroke-linejoin="round"/>
<path d="M1120.85 422.1L1094.35 372.74" stroke="#8D1A00" stroke-width="1.8072" stroke-miterlimit="10" stroke-linecap="round" stroke-linejoin="round"/>
<path d="M936.04 428.09L986.03 351.33" stroke="#8D1A00" stroke-width="1.8072" stroke-miterlimit="10" stroke-linecap="round" stroke-linejoin="round"/>
<path d="M1161.14 428.09L1111.15 351.33" stroke="#8D1A00" stroke-width="1.8072" stroke-miterlimit="10" stroke-linecap="round" stroke-linejoin="round"/>
<path d="M1000.77 433.183L988.545 466.704L994.727 468.959L1006.95 435.438L1000.77 433.183Z" fill="#FEDD8E"/>
<path d="M1096.56 433.172L1090.37 435.427L1102.6 468.949L1108.78 466.694L1096.56 433.172Z" fill="#FEDD8E"/>
<path fill-rule="evenodd" clip-rule="evenodd" d="M925.061 219.62C925.061 219.62 945.7 195.09 949.6 192.92H971.72C971.72 192.92 978.23 178.18 985.38 178.18C992.54 178.18 986.25 188.62 984.51 193.39C982.78 198.16 969.55 216.15 966.08 219.63H925.061V219.62Z" fill="#8D1A00"/>
<path fill-rule="evenodd" clip-rule="evenodd" d="M1172.1 219.62C1172.1 219.62 1151.46 195.09 1147.56 192.92H1125.44C1125.44 192.92 1118.93 178.18 1111.78 178.18C1104.62 178.18 1110.91 188.62 1112.65 193.39C1114.38 198.16 1127.61 216.15 1131.08 219.63H1172.1V219.62Z" fill="#8D1A00"/>
<path fill-rule="evenodd" clip-rule="evenodd" d="M925.06 219.62C917.83 228.34 908.35 246.3 910.38 255.11C912.41 263.92 915.46 267.99 932.4 267.99H996.44V282.9H1048.58C1060.01 266.75 1062.94 250.6 1048.58 234.45H954.09L966.09 219.63H925.06V219.62Z" fill="#163BF3"/>
<path fill-rule="evenodd" clip-rule="evenodd" d="M1172.1 219.62C1179.33 228.34 1188.81 246.3 1186.78 255.11C1184.75 263.92 1181.7 267.99 1164.76 267.99H1100.72V282.9H1048.58V234.45H1143.08L1131.08 219.63H1172.1V219.62Z" fill="#163BF3"/>
<path fill-rule="evenodd" clip-rule="evenodd" d="M1038.99 234.44C1038.99 234.44 1025.11 241.37 1033.09 244.5C1041.07 247.62 1048.58 234.44 1048.58 234.44H1038.99Z" fill="#B9E2FE"/>
<path fill-rule="evenodd" clip-rule="evenodd" d="M1058.17 234.44C1058.17 234.44 1072.05 241.37 1064.07 244.5C1056.09 247.62 1048.58 234.44 1048.58 234.44H1058.17Z" fill="#B9E2FE"/>
<path fill-rule="evenodd" clip-rule="evenodd" d="M1048.58 208.6C1052.85 208.6 1065.35 214.92 1065.35 224.58C1065.35 234.24 1056.19 237.44 1048.58 237.44C1040.98 237.44 1031.81 234.24 1031.81 224.58C1031.81 214.92 1044.31 208.6 1048.58 208.6Z" fill="#8D1A00"/>
<path fill-rule="evenodd" clip-rule="evenodd" d="M1031.99 222.4C1031.99 222.4 1029.07 219.54 1026.8 221.32C1024.53 223.1 1026.54 229.53 1032.39 228.62C1031.99 225.86 1031.99 222.4 1031.99 222.4Z" fill="#8D1A00"/>
<path fill-rule="evenodd" clip-rule="evenodd" d="M1065.17 222.4C1065.17 222.4 1068.08 219.54 1070.36 221.32C1072.63 223.1 1070.62 229.53 1064.77 228.62C1065.17 225.86 1065.17 222.4 1065.17 222.4Z" fill="#8D1A00"/>
<path fill-rule="evenodd" clip-rule="evenodd" d="M1032.39 221.01L1031.81 224.72C1031.81 224.72 1048.58 225.33 1048.58 208.6C1037.2 208.6 1032.59 217.1 1032.39 221.01Z" fill="black"/>
<path fill-rule="evenodd" clip-rule="evenodd" d="M1064.77 221.01L1065.35 224.72C1065.35 224.72 1048.58 225.33 1048.58 208.6C1059.96 208.6 1064.57 217.1 1064.77 221.01Z" fill="black"/>
<path d="M954.081 234.44L945.551 244.97" stroke="#8D1A00" stroke-width="1.8072" stroke-miterlimit="10" stroke-linecap="round" stroke-linejoin="round"/>
<path d="M1142.57 234.44L1151.1 244.97" stroke="#8D1A00" stroke-width="1.8072" stroke-miterlimit="10" stroke-linecap="round" stroke-linejoin="round"/>
<path d="M996.431 267.98H1006.17" stroke="#8D1A00" stroke-width="1.8072" stroke-miterlimit="10" stroke-linecap="round" stroke-linejoin="round"/>
<path d="M1100.22 267.98H1090.49" stroke="#8D1A00" stroke-width="1.8072" stroke-miterlimit="10" stroke-linecap="round" stroke-linejoin="round"/>
<path d="M1043.57 230.67C1046.91 233.33 1050.25 233.33 1053.59 230.67" stroke="black" stroke-width="1.8072" stroke-miterlimit="10" stroke-linecap="round" stroke-linejoin="round"/>
<path fill-rule="evenodd" clip-rule="evenodd" d="M1043.57 224.56C1044.11 224.56 1044.55 225 1044.55 225.54C1044.55 226.08 1044.11 226.52 1043.57 226.52C1043.03 226.52 1042.59 226.08 1042.59 225.54C1042.59 225 1043.03 224.56 1043.57 224.56Z" fill="black"/>
<path fill-rule="evenodd" clip-rule="evenodd" d="M1053.58 224.56C1054.12 224.56 1054.56 225 1054.56 225.54C1054.56 226.08 1054.12 226.52 1053.58 226.52C1053.04 226.52 1052.6 226.08 1052.6 225.54C1052.6 225 1053.04 224.56 1053.58 224.56Z" fill="black"/>
<path d="M971.721 192.91L967.631 198.89" stroke="black" stroke-width="1.8072" stroke-miterlimit="10" stroke-linecap="round" stroke-linejoin="round"/>
<path fill-rule="evenodd" clip-rule="evenodd" d="M1026.18 374.98C1028.53 380.58 1031.25 391.11 1032.78 395.69C1033.21 396.96 1037.86 417.44 1038.11 418.84C1037.11 419.33 1035.48 419.97 1033.07 420.78C1032.78 419.82 1031.8 416.64 1031.04 414.07C1027.55 420.58 1021.17 430.28 1019.08 432.47C1016.74 434.92 1009.8 437.14 1010.41 428.91C1011.02 420.68 1016.06 413.26 1013.37 405.79C1010.68 398.32 1003.72 386.07 1003.72 386.07C1003.72 386.07 1023.83 369.37 1026.18 374.98Z" fill="black"/>
<path fill-rule="evenodd" clip-rule="evenodd" d="M1071.5 374.98C1069.15 380.58 1066.43 391.11 1064.9 395.69C1064.48 396.96 1059.82 417.44 1059.57 418.84C1060.57 419.33 1062.2 419.97 1064.61 420.78C1064.9 419.82 1065.88 416.64 1066.64 414.07C1070.13 420.58 1076.51 430.28 1078.6 432.47C1080.94 434.92 1087.88 437.14 1087.27 428.91C1086.66 420.68 1081.62 413.26 1084.31 405.79C1087 398.32 1093.96 386.07 1093.96 386.07C1093.96 386.07 1073.85 369.37 1071.5 374.98Z" fill="black"/>
<path d="M1125.72 192.91L1129.8 198.89" stroke="black" stroke-width="1.8072" stroke-miterlimit="10" stroke-linecap="round" stroke-linejoin="round"/>
<path fill-rule="evenodd" clip-rule="evenodd" d="M996.43 282.89C996.43 285.59 997.74 293.44 997.74 293.44C997.74 293.44 989.89 294.24 984.7 301.96C979.51 309.68 974.05 323.12 981.11 337.09C988.16 351.06 1001.21 382.75 1003.73 387.4C1006.26 392.05 1015.97 390.59 1018.77 389.12C1021.56 387.66 1028.08 380.74 1026.22 373.69C1024.36 366.64 1010.12 321.13 1010.12 321.13H1048.58V282.9H996.43V282.89Z" fill="#60D399"/>
<path fill-rule="evenodd" clip-rule="evenodd" d="M1100.72 282.89C1100.72 285.59 1099.41 293.44 1099.41 293.44C1099.41 293.44 1107.26 294.24 1112.45 301.96C1117.64 309.68 1123.1 323.12 1116.04 337.09C1108.99 351.06 1095.94 382.75 1093.42 387.4C1090.89 392.05 1081.18 390.59 1078.38 389.12C1075.59 387.66 1069.07 380.74 1070.93 373.69C1072.79 366.64 1087.03 321.13 1087.03 321.13H1048.57V282.9H1100.72V282.89Z" fill="#60D399"/>
<path fill-rule="evenodd" clip-rule="evenodd" d="M988.9 319.92C994.93 319.11 1009.15 303.3 1006.55 299.31C1004.39 295.98 997.4 296.09 994.47 296.36C992.46 296.55 984.18 297.91 980.83 309C977.49 320.09 985.53 320.38 988.9 319.92Z" fill="#9CE8C2"/>
<path fill-rule="evenodd" clip-rule="evenodd" d="M1107.52 319.92C1101.49 319.11 1087.27 303.3 1089.87 299.31C1092.04 295.98 1099.02 296.09 1101.95 296.36C1103.96 296.55 1112.24 297.91 1115.58 309C1118.94 320.09 1110.9 320.38 1107.52 319.92Z" fill="#9CE8C2"/>
<path d="M1010.11 321.12L1008.32 315.38" stroke="#8D1A00" stroke-width="1.8072" stroke-miterlimit="10" stroke-linecap="round" stroke-linejoin="round"/>
<path d="M1087.04 321.12L1088.83 315.38" stroke="#8D1A00" stroke-width="1.8072" stroke-miterlimit="10" stroke-linecap="round" stroke-linejoin="round"/>
<path d="M1034.09 303.07C1034.09 303.07 1010.89 295.82 1007.41 294.62C1004 293.45 998.751 293.06 997.391 293.84" stroke="#9CE8C2" stroke-width="1.8072" stroke-miterlimit="10" stroke-linecap="round" stroke-linejoin="round"/>
<path d="M1063.43 302.72C1063.43 302.72 1085.53 295.81 1089.02 294.62C1092.43 293.45 1097.68 293.06 1099.04 293.84" stroke="#9CE8C2" stroke-width="1.8072" stroke-miterlimit="10" stroke-linecap="round" stroke-linejoin="round"/>
<path fill-rule="evenodd" clip-rule="evenodd" d="M1061.33 318V321.13C1061.33 322.59 1056.92 340.45 1048.63 340.87H1048.58C1040.25 340.52 1035.83 322.59 1035.83 321.13V318L1048.58 320.15L1061.33 318Z" fill="#FFC7BF"/>
<path fill-rule="evenodd" clip-rule="evenodd" d="M1061.33 317.51V319.78C1061.33 320.84 1056.92 333.78 1048.63 334.08H1048.58C1040.25 333.83 1035.83 320.83 1035.83 319.78V317.51L1048.58 319.07L1061.33 317.51Z" fill="#FF341A"/>
<path d="M1048.58 323.91C1057.81 323.91 1065.3 316.424 1065.3 307.19C1065.3 297.956 1057.81 290.47 1048.58 290.47C1039.35 290.47 1031.86 297.956 1031.86 307.19C1031.86 316.424 1039.35 323.91 1048.58 323.91Z" fill="#FFC7BF"/>
<path d="M1056.58 286.555C1060.04 282.123 1059.25 275.726 1054.82 272.266C1050.39 268.806 1043.99 269.594 1040.53 274.025C1037.07 278.457 1037.86 284.854 1042.29 288.314C1046.72 291.774 1053.12 290.986 1056.58 286.555Z" fill="#FEDD8E"/>
<path fill-rule="evenodd" clip-rule="evenodd" d="M1048.58 290.47C1042.46 290.47 1032.1 294.04 1032.1 304.36H1048.58C1048.58 304.36 1054.7 290.47 1048.58 290.47Z" fill="#FEDD8E"/>
<path fill-rule="evenodd" clip-rule="evenodd" d="M1048.82 290.47C1054.94 290.47 1065.3 294.04 1065.3 304.36H1048.82C1048.82 304.36 1042.69 290.47 1048.82 290.47Z" fill="#FEDD8E"/>
<path fill-rule="evenodd" clip-rule="evenodd" d="M984.661 343.79C983.081 346.69 981.111 352.95 982.221 358.12C983.331 363.29 985.741 365.96 988.001 367.26C990.271 368.57 995.371 368.58 996.211 365.04C997.041 361.51 996.191 356.53 997.601 354.27C999.001 352.01 1002.1 348.56 1000.72 346.85C999.331 345.14 996.671 346.54 996.671 346.54C996.671 346.54 999.591 341.66 997.801 340.38C996.001 339.11 993.311 340.99 993.311 340.99C993.311 340.99 994.841 338.3 992.391 336.92C989.941 335.53 986.241 340.88 984.661 343.79Z" fill="#FFC7BF"/>
<path fill-rule="evenodd" clip-rule="evenodd" d="M1112.52 343.79C1114.1 346.69 1116.07 352.95 1114.96 358.12C1113.85 363.29 1111.44 365.96 1109.18 367.26C1106.92 368.56 1101.81 368.58 1100.97 365.04C1100.14 361.51 1100.99 356.53 1099.58 354.27C1098.18 352.01 1095.08 348.56 1096.46 346.85C1097.85 345.14 1100.51 346.54 1100.51 346.54C1100.51 346.54 1097.59 341.66 1099.38 340.38C1101.18 339.11 1103.87 340.99 1103.87 340.99C1103.87 340.99 1102.34 338.3 1104.79 336.92C1107.24 335.53 1110.93 340.88 1112.52 343.79Z" fill="#FFC7BF"/>
<path d="M993.311 340.99C993.311 340.99 989.771 344.86 987.931 349.93" stroke="#8D1A00" stroke-width="1.8072" stroke-miterlimit="10" stroke-linecap="round" stroke-linejoin="round"/>
<path d="M1103.87 340.99C1103.87 340.99 1107.41 344.86 1109.25 349.93" stroke="#8D1A00" stroke-width="1.8072" stroke-miterlimit="10" stroke-linecap="round" stroke-linejoin="round"/>
<path d="M996.671 346.54C996.671 346.54 994.671 347.6 992.391 353.12" stroke="#8D1A00" stroke-width="1.8072" stroke-miterlimit="10" stroke-linecap="round" stroke-linejoin="round"/>
<path d="M1100.51 346.54C1100.51 346.54 1102.51 347.6 1104.79 353.12" stroke="#8D1A00" stroke-width="1.8072" stroke-miterlimit="10" stroke-linecap="round" stroke-linejoin="round"/>
<path fill-rule="evenodd" clip-rule="evenodd" d="M1048.59 487.76H983.311C983.311 487.76 983.49 518.68 987.74 538.98C992 559.28 999.851 575.98 998.541 590.38C997.231 604.79 1008.36 653.57 1021.79 666.01H1048.58V487.76H1048.59Z" fill="#60D399"/>
<path fill-rule="evenodd" clip-rule="evenodd" d="M1048.59 487.76H1113.87C1113.87 487.76 1113.69 518.68 1109.44 538.98C1105.18 559.28 1097.33 575.98 1098.64 590.38C1099.95 604.79 1088.82 653.57 1075.39 666.01H1048.6V487.76H1048.59Z" fill="#60D399"/>
<path d="M1038.96 512.38L1048.59 522.2V666.01" stroke="#8D1A00" stroke-width="1.8072" stroke-miterlimit="10" stroke-linecap="round" stroke-linejoin="round"/>
<path d="M1058.21 512.38L1048.59 522.2V666.01" stroke="#8D1A00" stroke-width="1.8072" stroke-miterlimit="10" stroke-linecap="round" stroke-linejoin="round"/>
<path d="M1002.62 487.76L986.561 532.46" stroke="#8D1A00" stroke-width="1.8072" stroke-miterlimit="10" stroke-linecap="round" stroke-linejoin="round"/>
<path d="M1094.55 487.76L1110.61 532.46" stroke="#8D1A00" stroke-width="1.8072" stroke-miterlimit="10" stroke-linecap="round" stroke-linejoin="round"/>
<path fill-rule="evenodd" clip-rule="evenodd" d="M1023.71 570.88C1030.48 570.88 1035.99 574.98 1035.99 580.04C1035.99 585.1 1030.49 589.2 1023.71 589.2C1016.93 589.2 1011.43 585.1 1011.43 580.04C1011.43 574.98 1016.93 570.88 1023.71 570.88Z" fill="#9CE8C2"/>
<path fill-rule="evenodd" clip-rule="evenodd" d="M1073.47 570.88C1080.24 570.88 1085.75 574.98 1085.75 580.04C1085.75 585.1 1080.25 589.2 1073.47 589.2C1066.69 589.2 1061.19 585.1 1061.19 580.04C1061.19 574.98 1066.69 570.88 1073.47 570.88Z" fill="#9CE8C2"/>
<path fill-rule="evenodd" clip-rule="evenodd" d="M1048.59 666.01V718.41H1015.95C1015.95 718.41 1014.31 715.23 1018.22 713.85C1022.13 712.47 1027.11 709.56 1025.12 701.21C1023.12 692.86 1017.42 676.13 1021.81 666.02H1048.59V666.01Z" fill="#8D1A00"/>
<path fill-rule="evenodd" clip-rule="evenodd" d="M1048.59 666.01V718.41H1081.23C1081.23 718.41 1082.87 715.23 1078.96 713.85C1075.05 712.47 1070.07 709.56 1072.06 701.21C1074.06 692.86 1079.76 676.13 1075.37 666.02H1048.59V666.01Z" fill="#8D1A00"/>
<path d="M1048.59 666.01V718.41" stroke="black" stroke-width="1.8072" stroke-miterlimit="10" stroke-linecap="round" stroke-linejoin="round"/>
<path d="M1043.57 313.36C1046.91 316.02 1050.25 316.01 1053.59 313.36" stroke="#FF341A" stroke-width="1.8072" stroke-miterlimit="10" stroke-linecap="round" stroke-linejoin="round"/>
<path fill-rule="evenodd" clip-rule="evenodd" d="M1043.57 307.25C1044.11 307.25 1044.55 307.69 1044.55 308.23C1044.55 308.77 1044.11 309.21 1043.57 309.21C1043.03 309.21 1042.59 308.77 1042.59 308.23C1042.59 307.69 1043.03 307.25 1043.57 307.25Z" fill="#FF341A"/>
<path fill-rule="evenodd" clip-rule="evenodd" d="M1053.58 307.25C1054.12 307.25 1054.56 307.69 1054.56 308.23C1054.56 308.77 1054.12 309.21 1053.58 309.21C1053.04 309.21 1052.6 308.77 1052.6 308.23C1052.6 307.69 1053.04 307.25 1053.58 307.25Z" fill="#FF341A"/>
<path fill-rule="evenodd" clip-rule="evenodd" d="M652.97 131.76L643.97 108.37C634.53 88.6401 596.52 102.3 573.89 125.01C551.8 147.19 524.55 195.64 498.65 205.96C481.6 212.76 456.58 209.07 451.66 196.97L460.7 220.36C465.62 232.46 490.65 236.15 507.69 229.35C533.59 219.03 561.76 171.45 582.93 148.4C604.95 124.44 644.42 108.6 652.97 131.76Z" fill="#0089E3"/>
<path fill-rule="evenodd" clip-rule="evenodd" d="M688 223.62L678.99 200.23C669.55 180.5 631.54 193.16 608.91 215.87C586.82 238.05 559.57 287.51 533.67 297.83C516.62 304.63 491.6 300.94 486.68 288.84L495.72 312.23C500.64 324.33 525.67 328.02 542.71 321.22C568.61 310.89 596.78 263.32 617.95 240.26C639.97 216.29 679.44 200.46 688 223.62Z" fill="#0089E3"/>
<path fill-rule="evenodd" clip-rule="evenodd" d="M660.89 153.13L651.88 129.74C642.44 110.01 604.43 123.67 581.81 146.38C559.72 168.56 532.47 217.01 506.57 227.34C489.52 234.14 464.5 230.44 459.58 218.34L468.62 241.73C473.54 253.83 498.56 257.52 515.61 250.73C541.51 240.4 569.68 192.83 590.85 169.77C612.87 145.81 652.34 129.97 660.89 153.13Z" fill="#FFC7BF"/>
<path fill-rule="evenodd" clip-rule="evenodd" d="M678.53 199.92L669.53 176.53C660.09 156.8 622.08 170.46 599.45 193.17C577.36 215.35 550.11 263.8 524.21 274.13C507.16 280.93 482.14 277.24 477.22 265.14L486.26 288.53C491.18 300.63 516.2 304.32 533.25 297.52C559.15 287.19 587.32 239.62 608.49 216.56C630.51 192.59 669.98 176.76 678.53 199.92Z" fill="#FFC7BF"/>
<path fill-rule="evenodd" clip-rule="evenodd" d="M669.47 174.93L660.47 151.54C651.03 131.81 613.02 145.47 590.39 168.18C568.3 190.36 541.05 238.81 515.15 249.14C498.1 255.94 473.08 252.24 468.16 240.14L477.2 263.53C482.12 275.63 507.15 279.32 524.19 272.53C550.09 262.2 578.26 214.63 599.43 191.57C621.45 167.61 660.92 151.78 669.47 174.93Z" fill="#FFFAF0"/>
<path fill-rule="evenodd" clip-rule="evenodd" d="M607.31 230.7C602.25 217.68 599.03 194.88 613.6 170.61C628.17 146.34 650.64 127.08 644.2 109.28C654.32 135.69 687.95 222.98 687.95 222.98C687.95 222.98 622.54 269.91 607.31 230.7Z" fill="#8D1A00"/>
<path fill-rule="evenodd" clip-rule="evenodd" d="M808.87 165.49L799.87 142.1C799.87 142.1 752.55 137.25 729.79 158.74C707.03 180.23 680.45 229.37 654.55 239.7C637.5 246.5 612.37 243.16 607.45 231.06L616.59 254.09C621.51 266.19 646.54 269.88 663.58 263.08C689.48 252.75 716.06 203.62 738.82 182.12C761.24 160.96 807.49 165.35 808.87 165.49Z" fill="#0089E3"/>
<path fill-rule="evenodd" clip-rule="evenodd" d="M844.42 258.82L835.42 235.43C835.42 235.43 788.1 230.58 765.34 252.07C742.58 273.56 716 322.7 690.1 333.03C673.05 339.83 648.03 336.14 643.11 324.04L652.15 347.43C657.07 359.53 682.09 363.22 699.14 356.42C725.04 346.09 751.62 296.96 774.38 275.46C796.8 254.29 843.05 258.69 844.42 258.82Z" fill="#0089E3"/>
<path fill-rule="evenodd" clip-rule="evenodd" d="M826.49 212.09L817.49 188.7C817.49 188.7 770.17 183.85 747.41 205.34C724.65 226.83 698.07 275.97 672.17 286.3C655.12 293.1 630.1 289.4 625.18 277.3L634.22 300.69C639.14 312.79 664.16 316.48 681.21 309.69C707.11 299.36 733.69 250.23 756.45 228.73C778.87 207.56 825.12 211.95 826.49 212.09Z" fill="#FFFAF0"/>
<path fill-rule="evenodd" clip-rule="evenodd" d="M817.9 188.78L808.89 165.39C808.89 165.39 761.57 160.54 738.81 182.03C716.05 203.52 689.47 252.66 663.57 262.99C646.52 269.79 621.5 266.1 616.58 254L625.62 277.39C630.54 289.49 655.57 293.18 672.61 286.38C698.51 276.05 725.1 226.92 747.85 205.42C770.28 184.26 816.52 188.65 817.9 188.78Z" fill="#FFC7BF"/>
<path fill-rule="evenodd" clip-rule="evenodd" d="M835.52 235.38L826.52 211.99C826.52 211.99 779.2 207.14 756.44 228.63C733.68 250.12 707.1 299.26 681.2 309.59C664.15 316.39 639.13 312.69 634.21 300.59L643.25 323.98C648.17 336.08 673.2 339.77 690.24 332.98C716.14 322.65 742.72 273.52 765.48 252.02C787.89 230.85 834.14 235.24 835.52 235.38Z" fill="#FFC7BF"/>
<path d="M800.61 142.17L1019.16 711.39" stroke="black" stroke-width="1.8072" stroke-miterlimit="10" stroke-linecap="round" stroke-linejoin="round"/>
<path fill-rule="evenodd" clip-rule="evenodd" d="M930.319 484.77C927.049 486.22 924.019 489.83 926.569 497.57C928.329 502.91 931.19 510.29 933.67 508.09C939.27 503.13 940.24 493.66 938.81 489.82C936.75 484.28 932.949 483.6 930.319 484.77Z" fill="#FFC7BF"/>
<path d="M767.72 497.82C770.1 497.82 772.03 495.89 772.03 493.51C772.03 491.13 770.1 489.2 767.72 489.2C765.34 489.2 763.41 491.13 763.41 493.51C763.41 495.89 765.34 497.82 767.72 497.82Z" fill="#FFFAF0"/>
<path fill-rule="evenodd" clip-rule="evenodd" d="M572.3 368.85C564.64 368.85 550.62 374.28 549.73 385.77C548.84 397.26 538.97 421.07 530.66 425.89C522.35 430.71 516.74 450.08 531.01 458.91C545.28 467.74 560.91 450.42 560.91 450.42L587.74 391.3L578.48 380.11C578.49 380.11 579.97 368.85 572.3 368.85Z" fill="#8D1A00"/>
<path fill-rule="evenodd" clip-rule="evenodd" d="M636.629 416.26L676.979 453.21L677.939 465.68L621.279 442.55L614.859 423.9L636.629 416.26Z" fill="#163BF3"/>
<path fill-rule="evenodd" clip-rule="evenodd" d="M684.21 440.29C681.84 442.11 677.17 446.23 677.17 446.23L681.76 450.5C681.76 450.5 677.49 454.77 672.89 453.19C670.36 458.34 672.42 466.25 677.16 467.36C681.91 468.47 684.84 468.55 684.84 468.55L700.27 458.97L696.95 441.95C696.96 441.95 686.59 438.46 684.21 440.29Z" fill="#8D1A00"/>
<path fill-rule="evenodd" clip-rule="evenodd" d="M684.64 440.05C687.21 438.2 695 432.12 699.62 436.36C704.24 440.6 700.28 458.97 700.28 458.97L693.93 462.91C693.93 462.91 689.74 452.7 696.2 447.57C689.87 443.64 687.53 441.83 684.64 440.05Z" fill="#FFC7BF"/>
<path fill-rule="evenodd" clip-rule="evenodd" d="M682.879 441.35C682.879 441.35 679.809 441.65 676.239 440.28C677.259 441.98 679.249 444.41 679.249 444.41L682.879 441.35Z" fill="#8D1A00"/>
<path fill-rule="evenodd" clip-rule="evenodd" d="M711.22 475.03C711.22 475.03 728.25 458.91 739.07 461.23C749.89 463.55 751.05 480.5 751.05 487.87V587.61C751.05 597.47 742.16 601.33 736.36 601.33C730.56 601.33 714.33 592.05 716.84 570.8C719.35 549.54 719.96 555.28 719.96 555.28L711.22 475.03Z" fill="#FF341A"/>
<path d="M684.64 443.41L683.89 444.08" stroke="black" stroke-width="1.8072" stroke-miterlimit="10" stroke-linecap="round" stroke-linejoin="round"/>
<path fill-rule="evenodd" clip-rule="evenodd" d="M722.249 387.52C720.449 383.05 722.079 376.23 724.329 374.03C726.579 371.84 732.709 365.9 733.849 364.94C734.989 363.99 738.649 365.54 736.829 367.9C735.009 370.26 732.809 374.04 732.809 374.04C732.809 374.04 751.419 365.41 754.139 364.23C756.859 363.04 758.399 366.35 755.639 367.69C752.879 369.03 740.049 376.48 740.049 376.48C740.049 376.48 755.569 371.18 758.199 370.38C760.829 369.58 762.549 372.64 759.569 373.85C756.589 375.06 742.169 381.41 742.169 381.41C742.169 381.41 759.449 378.56 761.149 378.32C762.859 378.08 765.209 381.62 761.599 382.22C757.989 382.82 745.309 386.37 745.309 386.37C745.309 386.37 755.679 389.06 757.859 389.39C760.049 389.72 760.639 393.33 756.229 393.03C751.809 392.73 735.799 393.89 733.069 393.79C730.339 393.68 724.049 391.99 722.249 387.52Z" fill="#FF341A"/>
<path fill-rule="evenodd" clip-rule="evenodd" d="M437.5 336.99L562.45 391.31H598.81L721.68 375C731.75 378.12 735.2 384.73 731.72 394.99L619.24 425.6L635.47 477.67H561.85L543.75 434.69L423.94 354.3C423.93 354.29 423.44 337.47 437.5 336.99Z" fill="#FBBE2E"/>
<path fill-rule="evenodd" clip-rule="evenodd" d="M699.1 435.94C699.1 435.94 703.3 421.26 715.65 416.46C725.23 412.74 733.57 415.47 734.33 425.25C734.96 433.4 727.19 437.95 720 439.02C712.07 440.19 699.1 435.94 699.1 435.94Z" fill="#FFC7BF"/>
<path fill-rule="evenodd" clip-rule="evenodd" d="M700.28 458.97L719.96 487.87L686.94 481.56L684.85 468.54L700.28 458.97Z" fill="#163BF3"/>
<path fill-rule="evenodd" clip-rule="evenodd" d="M632.08 444.08C632.08 444.08 702.42 477.44 708.02 479.37C713.62 481.3 722.9 487.49 722.9 500.63C722.9 513.77 719.96 555.28 719.96 555.28H674.6C674.6 555.28 685.48 511.75 686.04 502.72C671.01 495.55 626.99 473.04 619.57 470.19C612.15 467.35 608.44 456.54 612.15 448.9C615.86 441.25 626.4 441.72 632.08 444.08Z" fill="#60D399"/>
<path fill-rule="evenodd" clip-rule="evenodd" d="M694.96 507.03C694.96 507.03 699.59 529.91 720.36 549.46C720.12 551.69 719.96 555.28 719.96 555.28C719.96 555.28 697.72 540.85 688.88 504.09C691.92 505.55 694.96 507.03 694.96 507.03Z" fill="#FF341A"/>
<path fill-rule="evenodd" clip-rule="evenodd" d="M674.61 555.28C674.61 555.28 659.65 617.56 655.21 633.02C650.77 648.48 651.73 668.19 651.73 668.19H696.95L720.37 555.28H674.61Z" fill="#163BF3"/>
<path fill-rule="evenodd" clip-rule="evenodd" d="M696.939 668.19H727.089L715.93 576.64L696.939 668.19Z" fill="#8D1A00"/>
<path fill-rule="evenodd" clip-rule="evenodd" d="M659.31 668.19C659.31 668.19 659 683.69 649.42 689.88C639.84 696.06 623.06 707.53 623.06 712.02H679.64L690.54 668.19H659.31Z" fill="#60D399"/>
<path fill-rule="evenodd" clip-rule="evenodd" d="M721.61 668.19C721.61 668.19 731.16 702.9 730.28 712.02H679.63L680.6 708.01C680.6 708.01 696.41 701.63 695.48 693.28C694.55 684.93 692.85 668.19 692.85 668.19H721.61Z" fill="#163BF3"/>
<path fill-rule="evenodd" clip-rule="evenodd" d="M621.28 442.55C621.28 442.55 620.59 438.12 617.72 435.35C614.85 432.58 611.68 429.71 608.62 427.83C605.55 425.95 604.27 428.84 605.99 430.74C607.7 432.64 610.7 436.12 610.7 436.12C610.7 436.12 589.72 425.61 586.67 424.22C583.63 422.83 583.31 426.37 585.53 427.89C587.75 429.41 599.78 440.3 599.78 440.3C599.78 440.3 586.86 432.95 584.39 431.56C581.92 430.17 580.15 433.02 583.31 435.23C586.48 437.45 597.05 447.45 597.05 447.45C597.05 447.45 583.38 440.74 580.9 439.34C578.43 437.95 576.72 441.11 580.2 443.2C583.68 445.29 596.48 454.15 596.48 454.15C596.48 454.15 584.51 450.1 581.73 449.4C578.94 448.7 578.63 452.25 582.24 453.45C585.85 454.65 606.98 466.22 612.79 463.83C616.24 452.71 621.28 442.55 621.28 442.55Z" fill="#8D1A00"/>
<path d="M543.739 434.67L552.439 440.51" stroke="#8D1A00" stroke-width="1.8072" stroke-miterlimit="10" stroke-linecap="round" stroke-linejoin="round"/>
<path d="M620.04 428.79L615.09 413.1" stroke="#8D1A00" stroke-width="1.8072" stroke-miterlimit="10" stroke-linecap="round" stroke-linejoin="round"/>
<path fill-rule="evenodd" clip-rule="evenodd" d="M561.84 477.65C565.67 486.41 576.84 524.46 578.95 530.19C581.06 535.93 586.19 554.95 583.78 570.65C581.37 586.35 568.38 678.14 568.38 678.14H603.71C603.71 678.14 622.73 595.71 624.24 584.84C625.75 573.97 628.31 553.04 625.21 542.41C628.69 551.11 658.36 621.13 658.36 621.13L671.58 567.73L635.45 477.65H561.84Z" fill="#FF341A"/>
<path d="M625.219 542.42L612.739 497.21" stroke="#8D1A00" stroke-width="1.8072" stroke-miterlimit="10" stroke-linecap="round" stroke-linejoin="round"/>
<path fill-rule="evenodd" clip-rule="evenodd" d="M568.39 678.15C567.41 684.43 561.85 713.95 561.85 713.95H623.91C623.91 713.95 620.6 706.65 614.57 704.79C608.54 702.93 599.68 693.51 603.73 678.15H568.39Z" fill="#8D1A00"/>
<path fill-rule="evenodd" clip-rule="evenodd" d="M572.3 368.85C578.51 368.85 583.55 375.07 583.55 382.74C583.55 390.4 578.51 396.62 572.3 396.62C566.09 396.62 561.06 390.4 561.06 382.74C561.06 375.07 566.1 368.85 572.3 368.85Z" fill="#FF341A"/>
<path fill-rule="evenodd" clip-rule="evenodd" d="M583.48 381.14C583.95 382.7 588.2 384.79 586.65 385.16C585.4 385.16 583.05 385.1 583.05 385.1C583.05 385.1 581.78 381.61 583.48 381.14Z" fill="#FF341A"/>
<path fill-rule="evenodd" clip-rule="evenodd" d="M582.669 388.12C580.219 388.45 579.009 387.2 577.179 385.16C576.039 383.89 574.719 385.39 575.389 386.78C576.439 388.96 578.049 390.67 581.429 390.86C582.289 389.38 582.299 389.78 582.669 388.12Z" fill="#FFFAF0"/>
<path fill-rule="evenodd" clip-rule="evenodd" d="M561.299 385.6C561.299 385.6 565.539 386.7 567.799 383.29C569.909 380.12 572.299 375.9 572.299 375.9H582.099C582.099 375.9 580.549 368.84 572.299 368.84C564.059 368.85 559.489 376.88 561.299 385.6Z" fill="#8D1A00"/>
<path d="M686.04 502.71L697.3 508.16" stroke="#8D1A00" stroke-width="1.8072" stroke-miterlimit="10" stroke-linecap="round" stroke-linejoin="round"/>
<path fill-rule="evenodd" clip-rule="evenodd" d="M433.87 349.27C436.69 345.36 436.72 338.34 435.06 335.67C433.4 333 428.86 325.78 427.98 324.58C427.1 323.38 423.18 324.02 424.38 326.74C425.58 329.47 426.82 333.67 426.82 333.67C426.82 333.67 410.81 320.86 408.45 319.06C406.09 317.26 403.8 320.1 406.17 322.06C408.53 324.02 419.22 334.31 419.22 334.31C419.22 334.31 405.4 325.46 403.04 324.06C400.68 322.66 398.28 325.22 400.88 327.1C403.48 328.98 415.97 338.59 415.97 338.59C415.97 338.59 399.88 331.7 398.28 331.06C396.68 330.42 393.55 333.3 396.92 334.74C400.28 336.18 411.75 342.65 411.75 342.65C411.75 342.65 401.04 342.79 398.84 342.59C396.64 342.39 395.2 345.75 399.56 346.51C403.92 347.27 419.2 352.21 421.87 352.77C424.54 353.32 431.05 353.18 433.87 349.27Z" fill="#FF341A"/>
<path fill-rule="evenodd" clip-rule="evenodd" d="M581.599 380.36C581.939 380.36 582.219 380.64 582.219 380.98C582.219 381.32 581.939 381.6 581.599 381.6C581.259 381.6 580.979 381.32 580.979 380.98C580.979 380.64 581.259 380.36 581.599 380.36Z" fill="#8D1A00"/>
<path fill-rule="evenodd" clip-rule="evenodd" d="M795.229 429.76C795.229 429.76 794.739 422 798.939 419.05C803.139 416.1 807.589 412.27 809.199 405.53C810.809 398.79 815.999 387.41 830.099 387.41C844.199 387.41 845.93 395.67 848.03 401.48C851.12 401.48 858.29 406.43 858.04 412.98C857.8 419.53 852.849 429.45 852.849 429.45L795.229 429.76Z" fill="#8D1A00"/>
<path fill-rule="evenodd" clip-rule="evenodd" d="M818.37 428.32H797.209C793.129 428.32 780.389 432.4 775.569 445.76C770.749 459.12 758.13 490.41 756.03 496.84C753.93 503.27 754.18 522.81 771.74 522.81C789.3 522.81 782.13 522.81 782.13 522.81V530.85H858.079L862.03 487.19C862.03 487.19 871.06 504.26 875.02 508.59C878.98 512.92 885.91 516.63 896.66 516.63H921.42C923.86 516.63 925.85 514.65 925.85 512.2C925.85 504.78 925.85 490.65 925.85 490.65H900.74C900.74 490.65 881.69 455.77 877.49 448.6C873.28 441.43 867.6 429.45 852.88 429.45C838.15 429.46 818.37 428.32 818.37 428.32Z" fill="#163BF3"/>
<path d="M794.11 457.33L780.14 500.99" stroke="#8D1A00" stroke-width="1.8072" stroke-miterlimit="10" stroke-linecap="round" stroke-linejoin="round"/>
<path fill-rule="evenodd" clip-rule="evenodd" d="M791.91 464.21H807.43V500.99H780.14L791.91 464.21Z" fill="#8D1A00"/>
<path d="M823.449 464.21H818.109V500.99H823.449V464.21Z" fill="#FFFAF0"/>
<path d="M818.109 464.21H812.77V500.99H818.109V464.21Z" fill="#FF341A"/>
<path d="M812.77 464.21H807.43V500.99H812.77V464.21Z" fill="#FFFAF0"/>
<path fill-rule="evenodd" clip-rule="evenodd" d="M918.48 490.65C920.38 487.3 922.47 482.68 928.04 480.52C933.61 478.37 935.39 481.03 935.45 482.1C935.51 483.18 930.32 484.76 930.32 484.76L937.16 502.11C937.16 502.11 932.61 513.06 925.83 513.06C919.05 513.07 916.58 494 918.48 490.65Z" fill="#FFC7BF"/>
<path d="M773.209 500.99H804.629" stroke="#8D1A00" stroke-width="1.8072" stroke-miterlimit="10" stroke-linecap="round" stroke-linejoin="round"/>
<path d="M782.119 522.81H803.389" stroke="#8D1A00" stroke-width="1.8072" stroke-miterlimit="10" stroke-linecap="round" stroke-linejoin="round"/>
<path fill-rule="evenodd" clip-rule="evenodd" d="M804.629 500.99C802.669 502.55 796.609 506.9 795.909 511.6C795.079 517.11 797.569 522.8 803.399 522.8H816.68C819.28 522.8 833.139 519.77 832.509 510.58C831.879 501.4 823.449 492.72 823.449 492.72V500.98H813.889C813.889 500.98 812.429 496.02 811.739 493.42C811.039 490.82 810.159 488.61 807.689 488.92C805.219 489.24 804.639 491.51 804.639 494V500.99H804.629Z" fill="#FFC7BF"/>
<path d="M862.02 487.19L863.979 465.53" stroke="#8D1A00" stroke-width="1.8072" stroke-miterlimit="10" stroke-linecap="round" stroke-linejoin="round"/>
<path d="M900.729 490.65H895.329" stroke="#8D1A00" stroke-width="1.8072" stroke-miterlimit="10" stroke-linecap="round" stroke-linejoin="round"/>
<path fill-rule="evenodd" clip-rule="evenodd" d="M782.12 530.85C782.12 538.6 781.58 571.51 793.79 595.37C805.99 619.22 812.77 631.91 812.77 631.91L807.43 690.85H828.52L836.06 667.85C836.06 667.85 846.3 682.54 849.97 686.98H871.42C871.42 686.98 868.13 657.99 863.88 646.79C859.63 635.58 850.36 613.17 850.36 613.17C852.52 607.45 858.4 554.03 858.06 530.86H782.12V530.85Z" fill="#0089E3"/>
<path d="M850.359 613.15L826.77 558.3" stroke="#8D1A00" stroke-width="1.8072" stroke-miterlimit="10" stroke-linecap="round" stroke-linejoin="round"/>
<path d="M812.77 631.9L836.06 667.84" stroke="#8D1A00" stroke-width="1.8072" stroke-miterlimit="10" stroke-linecap="round" stroke-linejoin="round"/>
<path fill-rule="evenodd" clip-rule="evenodd" d="M807.43 690.84C807.02 693.44 803.27 705.81 804.43 709.89H846.09C846.09 709.89 843.12 706.08 839.32 703.93C835.52 701.78 827.62 694.66 828.53 690.84H807.43Z" fill="#8D1A00"/>
<path fill-rule="evenodd" clip-rule="evenodd" d="M849.979 686.97C849.979 686.97 847.879 704.13 854.229 709.88H896.779C896.779 709.88 896.309 706.2 888.679 702.09C881.049 697.97 872.729 691.55 871.429 686.97H849.979Z" fill="#8D1A00"/>
<path fill-rule="evenodd" clip-rule="evenodd" d="M818.369 419.05V428.22C818.369 431.06 820.709 440.46 827.019 440.46C833.329 440.46 835.819 434.11 835.989 428.69C823.799 423.4 818.369 419.05 818.369 419.05Z" fill="#FF341A"/>
<path d="M831.589 429.46C839.238 429.46 845.439 422.816 845.439 414.62C845.439 406.424 839.238 399.78 831.589 399.78C823.94 399.78 817.739 406.424 817.739 414.62C817.739 422.816 823.94 429.46 831.589 429.46Z" fill="#FFC7BF"/>
<path fill-rule="evenodd" clip-rule="evenodd" d="M817.74 414.62H845.44C845.44 414.62 848.04 396.44 831.59 396.44C815.14 396.44 817.74 414.62 817.74 414.62Z" fill="#8D1A00"/>
<path fill-rule="evenodd" clip-rule="evenodd" d="M851.929 433.48C854.309 433.48 856.239 435.41 856.239 437.79C856.239 440.17 854.309 442.1 851.929 442.1C849.549 442.1 847.619 440.17 847.619 437.79C847.619 435.41 849.549 433.48 851.929 433.48Z" fill="#FFFAF0"/>
<path fill-rule="evenodd" clip-rule="evenodd" d="M853.759 463.91C856.139 463.91 858.069 465.84 858.069 468.22C858.069 470.6 856.139 472.53 853.759 472.53C851.379 472.53 849.449 470.6 849.449 468.22C849.449 465.84 851.379 463.91 853.759 463.91Z" fill="#FFFAF0"/>
<path fill-rule="evenodd" clip-rule="evenodd" d="M827.589 449.46C829.969 449.46 831.899 451.39 831.899 453.77C831.899 456.15 829.969 458.08 827.589 458.08C825.209 458.08 823.279 456.15 823.279 453.77C823.279 451.39 825.209 449.46 827.589 449.46Z" fill="#FFFAF0"/>
<path fill-rule="evenodd" clip-rule="evenodd" d="M804.31 433.02C806.69 433.02 808.62 434.95 808.62 437.33C808.62 439.71 806.69 441.64 804.31 441.64C801.93 441.64 800 439.71 800 437.33C800 434.95 801.93 433.02 804.31 433.02Z" fill="#FFFAF0"/>
<path fill-rule="evenodd" clip-rule="evenodd" d="M778.589 458.59C780.969 458.59 782.899 460.52 782.899 462.9C782.899 465.28 780.969 467.21 778.589 467.21C776.209 467.21 774.279 465.28 774.279 462.9C774.289 460.52 776.219 458.59 778.589 458.59Z" fill="#FFFAF0"/>
<path fill-rule="evenodd" clip-rule="evenodd" d="M838.24 484.6C840.62 484.6 842.55 486.53 842.55 488.91C842.55 491.29 840.62 493.22 838.24 493.22C835.86 493.22 833.93 491.29 833.93 488.91C833.93 486.53 835.86 484.6 838.24 484.6Z" fill="#FFFAF0"/>
<path fill-rule="evenodd" clip-rule="evenodd" d="M850.099 508.49C852.479 508.49 854.409 510.42 854.409 512.8C854.409 515.18 852.479 517.11 850.099 517.11C847.719 517.11 845.789 515.18 845.789 512.8C845.799 510.42 847.729 508.49 850.099 508.49Z" fill="#FFFAF0"/>
<path fill-rule="evenodd" clip-rule="evenodd" d="M877.639 463.3C880.019 463.3 881.949 465.23 881.949 467.61C881.949 469.99 880.019 471.92 877.639 471.92C875.259 471.92 873.329 469.99 873.329 467.61C873.339 465.23 875.269 463.3 877.639 463.3Z" fill="#FFFAF0"/>
<path fill-rule="evenodd" clip-rule="evenodd" d="M882.82 495.41C885.2 495.41 887.13 497.34 887.13 499.72C887.13 502.1 885.2 504.03 882.82 504.03C880.44 504.03 878.51 502.1 878.51 499.72C878.51 497.34 880.44 495.41 882.82 495.41Z" fill="#FFFAF0"/>
<path fill-rule="evenodd" clip-rule="evenodd" d="M909.599 503.32C911.979 503.32 913.909 505.25 913.909 507.63C913.909 510.01 911.979 511.94 909.599 511.94C907.219 511.94 905.289 510.01 905.289 507.63C905.289 505.25 907.219 503.32 909.599 503.32Z" fill="#FFFAF0"/>
<path fill-rule="evenodd" clip-rule="evenodd" d="M781.79 508.49C784.17 508.49 786.099 510.42 786.099 512.8C786.099 515.18 784.17 517.11 781.79 517.11C779.41 517.11 777.479 515.18 777.479 512.8C777.479 510.42 779.41 508.49 781.79 508.49Z" fill="#FFFAF0"/>
<path d="M828.029 419.02C831.369 421.68 834.699 421.67 838.039 419.02" stroke="#FF341A" stroke-width="1.8072" stroke-miterlimit="10" stroke-linecap="round" stroke-linejoin="round"/>
<path fill-rule="evenodd" clip-rule="evenodd" d="M321.74 157.59L355.12 206.72H288.36L321.74 157.59Z" fill="#FBBE2E"/>
<path fill-rule="evenodd" clip-rule="evenodd" d="M1765.18 157.59L1731.81 206.72H1798.56L1765.18 157.59Z" fill="#FBBE2E"/>
<path fill-rule="evenodd" clip-rule="evenodd" d="M127.77 452.33L161.14 403.21H94.3896L127.77 452.33Z" fill="#0089E3"/>
<path fill-rule="evenodd" clip-rule="evenodd" d="M1959.16 452.33L1925.78 403.21H1992.53L1959.16 452.33Z" fill="#0089E3"/>
<path fill-rule="evenodd" clip-rule="evenodd" d="M35.5999 206.4L-0.0800781 182.15V230.65L35.5999 206.4Z" fill="#FFC7BF"/>
<path fill-rule="evenodd" clip-rule="evenodd" d="M2051.32 206.4L2087 182.15V230.65L2051.32 206.4Z" fill="#FFC7BF"/>
<path d="M941.62 631.9H873.21V651.49H941.62V631.9Z" fill="#FF341A"/>
<path d="M922.62 651.49H888.67V679.89H922.62V651.49Z" fill="#8D1A00"/>
<path d="M982.57 679.89H954.17V708.29H982.57V679.89Z" fill="#8D1A00"/>
<path d="M973.17 631.9H941.62V651.49H973.17V631.9Z" fill="#8D1A00"/>
<path d="M967.24 651.49H922.61V679.89H967.24V651.49Z" fill="#60D399"/>
<path d="M954.17 679.89H900.88V708.29H954.17V679.89Z" fill="#FFC7BF"/>
<path d="M873.21 638H941.62" stroke="#8D1A00" stroke-width="1.8072" stroke-miterlimit="10" stroke-linejoin="round"/>
<path d="M922.61 658.86H967.24" stroke="#8D1A00" stroke-width="1.8072" stroke-miterlimit="10" stroke-linejoin="round"/>
<path d="M900.88 687.26H954.17" stroke="#8D1A00" stroke-width="1.8072" stroke-miterlimit="10" stroke-linejoin="round"/>
<path d="M873.21 644.9H941.62" stroke="#8D1A00" stroke-width="1.8072" stroke-miterlimit="10" stroke-linejoin="round"/>
<path d="M922.61 665.76H967.24" stroke="#8D1A00" stroke-width="1.8072" stroke-miterlimit="10" stroke-linejoin="round"/>
<path d="M900.88 694.16H954.17" stroke="#8D1A00" stroke-width="1.8072" stroke-miterlimit="10" stroke-linejoin="round"/>
<path d="M922.61 672.52H967.24" stroke="#8D1A00" stroke-width="1.8072" stroke-miterlimit="10" stroke-linejoin="round"/>
<path d="M900.88 700.92H954.17" stroke="#8D1A00" stroke-width="1.8072" stroke-miterlimit="10" stroke-linejoin="round"/>
<path fill-rule="evenodd" clip-rule="evenodd" d="M441.07 624.93C443.72 615.21 442.64 604.48 437.21 595.07C426.42 576.37 402.46 569.95 383.76 580.75C369.96 588.72 362.85 603.85 364.41 618.75C352.29 609.95 335.63 608.54 321.82 616.51C303.12 627.31 296.7 651.26 307.5 669.96C312.93 679.37 321.69 685.66 331.43 688.23L419.64 714.43L441.07 624.93Z" fill="#FF341A"/>
<path fill-rule="evenodd" clip-rule="evenodd" d="M469.859 472.07L495.779 517.26L484.269 548.38L475.259 552.29C475.259 552.29 460.359 558.34 457.249 559.19C454.139 560.03 447.749 562.3 445.279 569.31C442.809 576.32 435.119 591.81 435.119 591.81C435.119 591.81 440.869 617.26 442.199 619.1C443.529 620.94 449.609 621.46 453.429 618.26C457.239 615.07 459.299 611.87 459.299 611.87L462.179 620.22H518.149C518.149 620.22 507.329 581.98 506.299 578.17C505.269 574.36 504.959 572.71 507.019 566.52C509.079 560.34 517.839 530.76 519.689 526.33C521.549 521.9 521.129 516.75 518.659 510.66C516.189 504.58 489.249 458.1 489.249 458.1L469.859 472.07Z" fill="#163BF3"/>
<path fill-rule="evenodd" clip-rule="evenodd" d="M463.31 561.58C463.31 561.58 464.4 578.86 471.79 591.91C473.42 585.93 474.07 581.37 471.18 580.93C472.92 578.61 472.92 573.1 469.01 572.6C472.42 567.67 471.18 560.3 467.99 559.86C464.8 560.49 463.31 561.58 463.31 561.58Z" fill="white"/>
<path d="M484.27 548.39L482.22 553.96" stroke="#8D1A00" stroke-width="1.8072" stroke-miterlimit="10" stroke-linecap="round" stroke-linejoin="round"/>
<path fill-rule="evenodd" clip-rule="evenodd" d="M538.38 687.92C540.65 687.92 545.51 688.62 547.49 693.07C549.46 697.52 559.44 714.42 559.44 714.42H526.6C526.6 714.42 536.11 687.92 538.38 687.92Z" fill="#163BF3"/>
<path d="M495.779 517.26L498.069 521.24" stroke="#8D1A00" stroke-width="1.8072" stroke-miterlimit="10" stroke-linecap="round" stroke-linejoin="round"/>
<path fill-rule="evenodd" clip-rule="evenodd" d="M421.82 580.15C421.82 580.15 422.62 573.21 417.19 571.4C411.75 569.59 400.12 570.1 395.8 576.23C391.47 582.36 390.98 585 392.54 585.58C394.1 586.16 403.29 575.5 403.29 575.5C403.29 575.5 400.62 582.85 399.55 584.83C398.48 586.81 401.04 590.11 403.59 586.97C406.15 583.84 412.17 576.51 412.17 576.51C412.17 576.51 410.93 582.35 410.27 584.33C409.61 586.31 412.75 587.55 413.98 585.48C415.22 583.42 417.73 578.24 417.73 578.24L421.82 580.15Z" fill="#FFC7BF"/>
<path d="M459.299 611.87C459.299 611.87 454.489 598.25 453.069 594.77C451.649 591.29 452.429 586.91 453.329 586.01" stroke="#8D1A00" stroke-width="1.8072" stroke-miterlimit="10" stroke-linecap="round" stroke-linejoin="round"/>
<path fill-rule="evenodd" clip-rule="evenodd" d="M462.179 620.22L464.179 625.24H440.999L426.319 686.59H452.289L446.629 661.31H477.989C477.989 661.31 472.099 678.51 469.519 686.24C466.939 693.97 468.549 714.42 485.939 714.42H528.129C532.959 714.42 541.009 705.24 541.009 697.35C541.009 689.46 538.909 684.95 531.669 684.95H508.159C508.159 684.95 519.049 651.97 520.839 644.96C522.629 637.95 524.119 626.63 518.139 620.22H462.179Z" fill="#8D1A00"/>
<path d="M464.18 625.24H474.64" stroke="black" stroke-width="1.8072" stroke-miterlimit="10" stroke-linecap="round" stroke-linejoin="round"/>
<path d="M446.619 661.31L444.699 652.7" stroke="black" stroke-width="1.8072" stroke-miterlimit="10" stroke-linecap="round" stroke-linejoin="round"/>
<path d="M477.979 661.31L483.77 642.02" stroke="black" stroke-width="1.8072" stroke-miterlimit="10" stroke-linecap="round" stroke-linejoin="round"/>
<path d="M507.72 684.61L504.58 694.9" stroke="black" stroke-width="1.8072" stroke-miterlimit="10" stroke-linecap="round" stroke-linejoin="round"/>
<path fill-rule="evenodd" clip-rule="evenodd" d="M449.199 686.59C449.199 686.59 454.189 697.71 455.479 702.38C456.769 707.05 456.209 712.18 454.119 714.43H419.659L426.319 686.59H449.199Z" fill="#163BF3"/>
<path fill-rule="evenodd" clip-rule="evenodd" d="M468.869 532.99C461.529 532.72 457.759 538.5 456.489 539.55C455.219 540.61 452.519 540.55 450.249 540.6C447.969 540.64 447.299 542.2 449.069 542.92C450.839 543.64 453.629 544.69 453.629 544.69C453.629 544.69 448.879 551.13 452.259 554.5C455.639 557.88 459.329 560.99 459.329 560.99C459.329 560.99 465.589 562.95 468.679 559.13C471.769 555.32 475.109 552.63 475.849 551.63C476.589 550.63 479.069 544.45 477.589 540.34C476.109 536.23 472.659 533.12 468.869 532.99Z" fill="#FFC7BF"/>
<path fill-rule="evenodd" clip-rule="evenodd" d="M463.06 467.98C460.01 465.2 455.4 458.35 461.2 450.96C457.9 445.48 452.62 437.24 451.04 434.93C449.46 432.62 451.43 430.71 453.94 433.41C456.45 436.11 465.81 445.68 465.81 445.68C465.81 445.68 467.86 442.18 470.03 442.51C472.2 442.84 473.59 445.81 473.59 445.81C473.59 445.81 476.3 443.5 478.05 444.89C479.86 443.57 481.31 443.7 482.9 445.35C484.48 447 489.5 452.34 488.97 453.79C489.76 456.96 488.9 463.75 486 467.11C483.1 470.49 473.36 477.35 463.06 467.98Z" fill="#FFC7BF"/>
<path d="M461.199 450.97C462.329 449.53 465.619 447.21 467.479 448.94C469.339 450.67 468.579 453.29 467.729 454.26C466.879 455.23 464.139 458.78 465.029 461.39" stroke="#8D1A00" stroke-width="1.8072" stroke-miterlimit="10" stroke-linecap="round" stroke-linejoin="round"/>
<path d="M468.63 451.61C468.63 451.61 472.63 460.46 475.21 459.45C477.79 458.44 476.98 454.74 476.01 452.41C475.04 450.08 473.6 445.82 473.6 445.82" stroke="#8D1A00" stroke-width="1.8072" stroke-miterlimit="10" stroke-linecap="round" stroke-linejoin="round"/>
<path d="M476.93 454.25C476.93 454.25 480.31 458.47 481.78 457.63C483.26 456.79 482.29 453.2 481.4 451.51C480.51 449.82 478.04 444.9 478.04 444.9" stroke="#8D1A00" stroke-width="1.8072" stroke-miterlimit="10" stroke-linecap="round" stroke-linejoin="round"/>
<path d="M482.55 453.62C482.55 453.62 487.98 459.92 488.32 453.62" stroke="#8D1A00" stroke-width="1.8072" stroke-miterlimit="10" stroke-linecap="round" stroke-linejoin="round"/>
<path fill-rule="evenodd" clip-rule="evenodd" d="M453.27 545.23C454.42 545.83 459.12 544.09 460.45 545.75C461.78 547.41 458.62 548.37 456.75 548.41C454.88 548.45 452.15 547.24 452.15 547.24C452.15 547.24 452.11 544.63 453.27 545.23Z" fill="#FFFAF0"/>
<path fill-rule="evenodd" clip-rule="evenodd" d="M459.109 539.52C459.389 539.52 459.609 539.74 459.609 540.02C459.609 540.3 459.389 540.52 459.109 540.52C458.839 540.52 458.609 540.3 458.609 540.02C458.609 539.74 458.839 539.52 459.109 539.52Z" fill="#8D1A00"/>
<path d="M465.629 542.67C465.629 542.67 467.519 541.46 469.039 542.85C470.089 543.8 470.209 545.96 468.609 548.12C467.559 549.53 465.409 550.59 463.489 549.26" stroke="#FF341A" stroke-width="1.8072" stroke-miterlimit="10" stroke-linecap="round" stroke-linejoin="round"/>
<path fill-rule="evenodd" clip-rule="evenodd" d="M465.389 547.31C466.099 547.31 466.669 547.88 466.669 548.59C466.669 549.29 466.099 549.87 465.389 549.87C464.689 549.87 464.119 549.3 464.119 548.59C464.109 547.88 464.689 547.31 465.389 547.31Z" fill="#0089E3"/>
<path fill-rule="evenodd" clip-rule="evenodd" d="M1237.62 422.39C1227.24 422.39 1214.4 425.01 1207.58 437.07C1200.77 449.13 1187.66 481.1 1187.66 481.1H1179.14C1176.48 481.1 1173.99 480.97 1173.56 481.83C1173.22 484.23 1167.98 504.67 1167.98 504.67C1167.98 504.67 1167.9 506.13 1171.25 506.13H1181.98C1184.3 506.13 1191.68 506.22 1193.4 504.33C1190.05 509.83 1183.18 525.54 1183.18 525.54H1266.8L1289.07 472.35L1313.48 484.21L1375.59 481.33L1374.54 463.51C1374.54 463.51 1340.21 453.29 1330.78 449.36C1321.35 445.43 1308.65 437.35 1304.69 434.47C1300.74 431.59 1284.68 422.13 1275.82 422.13C1266.96 422.12 1248 422.39 1237.62 422.39Z" fill="#60D399"/>
<path fill-rule="evenodd" clip-rule="evenodd" d="M1240.33 422.39C1240.33 422.39 1245.1 431.24 1246.25 433.54C1247.4 435.84 1253.31 436.76 1256.3 436.76C1259.29 436.76 1264.58 433.85 1265.34 431.09C1270.02 429.02 1280.98 423.12 1282.44 417.14C1283.9 411.16 1280.68 405.87 1280.68 405.87L1285.2 401.27C1285.2 401.27 1286.35 399.81 1282.82 399.51C1279.29 399.2 1276 398.82 1276 398.82C1276 398.82 1273.24 397.13 1271.02 396.6C1267.34 399.04 1240.33 422.39 1240.33 422.39Z" fill="#FF341A"/>
<path d="M1249.84 414.21C1249.84 414.21 1252.18 417.69 1253.5 419.51C1254.82 421.33 1258.59 421.96 1259.59 418.51" stroke="#8D1A00" stroke-width="1.8072" stroke-miterlimit="10" stroke-linecap="round" stroke-linejoin="round"/>
<path d="M1271.02 401.61L1272.16 402.74" stroke="#8D1A00" stroke-width="1.8072" stroke-miterlimit="10" stroke-linecap="round" stroke-linejoin="round"/>
<path d="M1281.36 408.97C1281.36 408.97 1279.48 411.35 1274.5 411.54" stroke="#8D1A00" stroke-width="1.8072" stroke-miterlimit="10" stroke-linecap="round" stroke-linejoin="round"/>
<path d="M1193.4 504.32L1221.59 447.15" stroke="#8D1A00" stroke-width="1.8072" stroke-miterlimit="10" stroke-linecap="round" stroke-linejoin="round"/>
<path d="M1289.07 472.34L1293.96 460.68" stroke="#8D1A00" stroke-width="1.8072" stroke-miterlimit="10" stroke-linecap="round" stroke-linejoin="round"/>
<path fill-rule="evenodd" clip-rule="evenodd" d="M1173.56 481.82C1170.52 479.43 1166.92 477.5 1164.66 476.5C1162.4 475.5 1159.38 476 1158.63 477.42C1157.87 478.84 1160.3 481.44 1162.81 482.53C1161.64 485.71 1154.45 504.32 1154.45 504.32H1162.32C1165.5 504.32 1173.63 501.62 1176.05 493.75C1177.72 488.31 1176.6 484.21 1173.56 481.82Z" fill="#FF341A"/>
<path fill-rule="evenodd" clip-rule="evenodd" d="M1183.18 525.53L1180.4 531.75L1264.26 531.59L1266.8 525.53H1183.18Z" fill="#8D1A00"/>
<path fill-rule="evenodd" clip-rule="evenodd" d="M1342.11 627.56L1329.97 709.65L1302.6 710.47L1303.59 627.56H1342.11Z" fill="#FFC7BF"/>
<path fill-rule="evenodd" clip-rule="evenodd" d="M1332.72 691.02L1329.82 711.27H1297.94C1297.94 711.27 1297.67 708.89 1301.72 706.68C1305.77 704.48 1309.21 699.59 1308.43 691.02H1332.72Z" fill="#60D399"/>
<path fill-rule="evenodd" clip-rule="evenodd" d="M1130.86 665.85C1130.86 665.85 1119.71 688.82 1114.92 694.76C1110.12 700.7 1095.76 705.4 1095.13 712.29C1097.68 712.29 1115.31 711.87 1123.1 711.87C1136.83 711.87 1130.58 700.86 1142.08 700.86C1143.54 700.86 1140.08 712.29 1141.36 712.29H1150.89L1172.27 665.85H1130.86Z" fill="#8D1A00"/>
<path fill-rule="evenodd" clip-rule="evenodd" d="M1306.95 666.01C1306.95 666.01 1311.94 688.98 1315.15 694.92C1318.35 700.86 1331.46 705.56 1330.25 712.45C1327.7 712.45 1310.18 712.03 1302.39 712.03C1288.66 712.03 1297.86 701.02 1286.36 701.02C1284.9 701.02 1285.3 712.45 1284.02 712.45H1274.49L1265.55 666.01H1306.95Z" fill="#8D1A00"/>
<path fill-rule="evenodd" clip-rule="evenodd" d="M1265.35 431.09C1262.84 432.29 1253.56 432.41 1253.56 432.41L1257.24 436.68C1257.24 436.68 1263.84 435.44 1265.35 431.09Z" fill="#8D1A00"/>
<path fill-rule="evenodd" clip-rule="evenodd" d="M1265.5 529.08C1265.5 529.08 1289.41 541.26 1294.06 543.75C1298.7 546.24 1310.48 549.07 1316.14 544.43C1313.87 551.34 1300.85 599.91 1303.59 627.56H1404.47C1404.47 627.56 1405.09 610.5 1397.62 579.02C1390.15 547.54 1386.3 503.38 1386.3 503.38L1466.69 427.52L1453.56 410.31L1368.41 471.91H1336.93C1323.34 471.91 1300.38 483.97 1296.75 506.61C1290.56 503.65 1278.95 496.98 1278.95 496.98L1265.5 529.08Z" fill="#FF341A"/>
<path d="M1386.29 503.38L1385.28 494.18" stroke="#8D1A00" stroke-width="1.8072" stroke-miterlimit="10" stroke-linecap="round" stroke-linejoin="round"/>
<path d="M1316.13 544.43C1316.13 544.43 1320.2 529.64 1321.13 521.64C1322.06 513.64 1324.76 498.78 1324.76 498.78" stroke="#8D1A00" stroke-width="1.8072" stroke-miterlimit="10" stroke-linecap="round" stroke-linejoin="round"/>
<path d="M1296.74 506.61L1303.91 510.29" stroke="#8D1A00" stroke-width="1.8072" stroke-miterlimit="10" stroke-linecap="round" stroke-linejoin="round"/>
<path fill-rule="evenodd" clip-rule="evenodd" d="M1359.97 439.95C1369.82 439.95 1377.83 447.95 1377.83 457.81C1377.83 467.66 1369.83 475.67 1359.97 475.67C1350.11 475.67 1342.11 467.67 1342.11 457.81C1342.11 447.95 1350.11 439.95 1359.97 439.95Z" fill="#8D1A00"/>
<path fill-rule="evenodd" clip-rule="evenodd" d="M1366.67 439.95C1375.95 443.26 1380.1 454.52 1376.79 463.8C1370.45 453.27 1352.76 447.76 1343.15 451.81C1346.45 442.52 1357.38 436.64 1366.67 439.95Z" fill="#FFC7BF"/>
<path fill-rule="evenodd" clip-rule="evenodd" d="M1368.84 627.56L1384.78 692.24H1407.97L1404.46 627.56H1368.84Z" fill="#FFC7BF"/>
<path fill-rule="evenodd" clip-rule="evenodd" d="M1384.78 692.24L1389.85 712.49H1421.73C1421.73 712.49 1421.61 710.11 1417.21 707.9C1412.81 705.69 1408.57 700.81 1407.96 692.24H1384.78Z" fill="#60D399"/>
<path fill-rule="evenodd" clip-rule="evenodd" d="M1453.55 410.31C1453.55 410.31 1453.94 400.72 1453.94 398.41C1453.94 396.11 1457.72 391.29 1460.99 393.96C1464.26 396.63 1466.69 398.63 1466.69 398.63C1466.69 398.63 1470.27 395.14 1472.64 397.07C1475.01 399 1473.9 404.05 1473.9 404.05C1473.9 404.05 1476.42 403.83 1477.54 405.46C1478.65 407.09 1477.24 410.31 1477.24 410.31C1477.24 410.31 1479.76 409.69 1480.43 411.99C1481.1 414.29 1479.02 420.15 1476.57 422.75C1474.12 425.35 1466.69 427.52 1466.69 427.52L1453.55 410.31Z" fill="#8D1A00"/>
<path d="M1458.99 400.49C1458.99 400.49 1462 403.04 1462.67 403.77C1463.34 404.5 1465.77 405.05 1467.44 403.41C1469.11 401.77 1466.68 398.63 1466.68 398.63" stroke="black" stroke-width="1.8072" stroke-miterlimit="10" stroke-linecap="round" stroke-linejoin="round"/>
<path d="M1467.05 403.75C1467.05 403.75 1463.78 410.75 1466.68 412.41C1469.58 414.07 1471.81 410.77 1472.62 408.8C1473.45 406.8 1473.89 404.05 1473.89 404.05" stroke="black" stroke-width="1.8072" stroke-miterlimit="10" stroke-linecap="round" stroke-linejoin="round"/>
<path d="M1470.39 412.01C1470.39 412.01 1468.83 415.99 1470.84 416.51C1472.85 417.03 1476.22 412.67 1477.24 410.31" stroke="black" stroke-width="1.8072" stroke-miterlimit="10" stroke-linecap="round" stroke-linejoin="round"/>
<path d="M1473.89 415.01C1473.64 415.98 1471.55 420.12 1473.52 420.97C1475.49 421.82 1478.56 419.43 1479.44 417.85" stroke="black" stroke-width="1.8072" stroke-miterlimit="10" stroke-linecap="round" stroke-linejoin="round"/>
<path fill-rule="evenodd" clip-rule="evenodd" d="M1180.4 531.75L1126.21 645.82C1119.73 660.01 1124.64 664.96 1130.81 665.98H1172.36L1217.82 573.1L1253.53 614.02L1265.56 666.03H1306.96C1312.74 666.03 1321.05 662.63 1318.51 651.24C1316.61 642.76 1314 628.96 1313.03 623.12C1311.41 613.39 1309.58 594.44 1303.61 586.58C1283.92 560.73 1264.28 531.6 1264.28 531.6L1180.4 531.75Z" fill="#0089E3"/>
<path d="M1204.23 572.05H1232.42" stroke="#8D1A00" stroke-width="1.8072" stroke-miterlimit="10" stroke-linecap="round" stroke-linejoin="round"/>
<path fill-rule="evenodd" clip-rule="evenodd" d="M1343.15 451.87C1343.15 451.87 1334.3 480.11 1349.25 491.93C1364.2 503.75 1367.19 485.41 1368.82 480.65C1370.45 475.89 1376.79 463.8 1376.79 463.8C1372.7 469.56 1364.75 468.9 1356.35 465.97C1347.26 462.81 1341.4 459.71 1343.15 451.87Z" fill="black"/>
<path fill-rule="evenodd" clip-rule="evenodd" d="M1360.82 472.88C1361.28 471.44 1360.5 469.9 1359.06 469.43C1357.38 468.89 1355.19 468.18 1353.51 467.64C1352.07 467.17 1350.53 467.96 1350.06 469.4C1350.04 469.46 1350.02 469.51 1350.01 469.57C1349.55 471.01 1350.33 472.55 1351.77 473.02C1353.45 473.56 1355.63 474.27 1357.32 474.81C1358.76 475.28 1360.3 474.49 1360.76 473.05C1360.79 473 1360.8 472.94 1360.82 472.88Z" fill="#8D1A00"/>
<path d="M1352.63 469.82C1354.35 471.45 1356.28 472.23 1358.54 471.72" stroke="black" stroke-width="1.8072" stroke-miterlimit="10" stroke-linecap="round" stroke-linejoin="round"/>
<path d="M1352.39 455.82L1352.03 457.39" stroke="black" stroke-width="1.8072" stroke-miterlimit="10" stroke-linecap="round" stroke-linejoin="round"/>
<path d="M1366.33 459.48L1365.97 461.04" stroke="black" stroke-width="1.8072" stroke-miterlimit="10" stroke-linecap="round" stroke-linejoin="round"/>
<path fill-rule="evenodd" clip-rule="evenodd" d="M1256.15 426.05C1259.05 426.05 1261.4 428.4 1261.4 431.3C1261.4 434.2 1259.05 436.55 1256.15 436.55C1253.25 436.55 1250.9 434.2 1250.9 431.3C1250.9 428.41 1253.25 426.05 1256.15 426.05Z" fill="#FFC7BF"/>
<path fill-rule="evenodd" clip-rule="evenodd" d="M1256.15 434.6C1257.93 434.6 1259.37 436.04 1259.37 437.82C1259.37 439.6 1257.93 441.04 1256.15 441.04C1254.37 441.04 1252.93 439.6 1252.93 437.82C1252.93 436.04 1254.37 434.6 1256.15 434.6Z" fill="#163BF3"/>
<path d="M1256.15 427.94V418.32" stroke="#8D1A00" stroke-width="1.6595" stroke-miterlimit="10" stroke-linecap="round" stroke-linejoin="round"/>
<path fill-rule="evenodd" clip-rule="evenodd" d="M1240.33 422.39C1238.82 419.36 1234.05 404.89 1244.71 397.53C1255.37 390.17 1265.27 392.9 1271.02 396.58C1264.43 401.49 1244.3 419.21 1240.33 422.39Z" fill="#FBBE2E"/>
</g>
<defs>
<clipPath id="clip0_463:21040">
<rect width="2087" height="718" fill="white"/>
</clipPath>
</defs>
</svg>
