<svg width="929" height="691" viewBox="0 0 929 691" fill="none" xmlns="http://www.w3.org/2000/svg">
<g clip-path="url(#clip0_398:20373)">
<path d="M437.439 426.768C437.439 426.768 446.094 418.475 446.87 413.349" stroke="black" stroke-width="1.67" stroke-linecap="round" stroke-linejoin="round"/>
<path fill-rule="evenodd" clip-rule="evenodd" d="M464.547 379.359C508.733 379.611 510.724 443.795 510.724 443.795L459.78 442.253L417.867 443.795C417.867 443.795 419.858 379.359 464.306 379.359H464.547Z" fill="#163BF3"/>
<path d="M491.581 426.768C491.581 426.768 482.915 418.475 482.15 413.349" stroke="black" stroke-width="1.67" stroke-linecap="round" stroke-linejoin="round"/>
<path d="M437.074 426.768C437.074 426.768 445.74 418.475 446.505 413.349" stroke="black" stroke-width="1.67" stroke-linecap="round" stroke-linejoin="round"/>
<path fill-rule="evenodd" clip-rule="evenodd" d="M476.126 426.768C477.174 429.914 485.189 431.947 492.136 434.726C525.08 443.47 528.653 467.698 528.653 467.698C518.332 515.36 464.286 500.095 464.286 500.095V498.805C444.314 501.709 407.358 502.139 399.908 467.73C399.908 467.73 403.481 443.501 436.424 434.757C443.371 431.979 451.387 429.966 452.445 426.8L476.126 426.768Z" fill="#CF1D00"/>
<path fill-rule="evenodd" clip-rule="evenodd" d="M452.445 426.768C452.445 426.768 454.541 447.527 464.286 447.527C474.03 447.527 476.126 426.768 476.126 426.768H452.445Z" fill="#FBBE2E"/>
<path fill-rule="evenodd" clip-rule="evenodd" d="M452.445 426.768C452.445 426.768 454.541 435.827 464.286 435.827C474.03 435.827 476.126 426.768 476.126 426.768H452.445Z" fill="#FF8173"/>
<path fill-rule="evenodd" clip-rule="evenodd" d="M464.285 385.723C468.68 385.723 472.977 387.027 476.632 389.47C480.286 391.914 483.135 395.387 484.817 399.45C486.499 403.513 486.939 407.984 486.082 412.298C485.224 416.612 483.107 420.574 479.999 423.684C476.891 426.794 472.931 428.911 468.62 429.769C464.309 430.627 459.841 430.187 455.78 428.504C451.719 426.821 448.248 423.971 445.806 420.314C443.364 416.657 442.061 412.358 442.061 407.96C442.063 402.063 444.406 396.409 448.573 392.239C452.74 388.069 458.391 385.726 464.285 385.723Z" fill="#FBBE2E"/>
<path d="M464.243 402.403L465.616 414.345H461.498" stroke="#FF8173" stroke-width="1.67" stroke-linecap="round" stroke-linejoin="round"/>
<path d="M457.066 419.996C457.066 419.996 462.955 425.395 468.76 420.153" stroke="#FF8173" stroke-width="1.67" stroke-linecap="round" stroke-linejoin="round"/>
<path fill-rule="evenodd" clip-rule="evenodd" d="M452.864 406.785C453.252 406.687 453.66 406.712 454.033 406.858C454.405 407.003 454.723 407.261 454.941 407.596C455.16 407.931 455.268 408.326 455.252 408.725C455.235 409.125 455.094 409.509 454.848 409.825C454.602 410.14 454.264 410.371 453.881 410.485C453.498 410.598 453.088 410.589 452.71 410.459C452.333 410.328 452.005 410.083 451.773 409.757C451.541 409.431 451.417 409.041 451.418 408.641C451.37 408.204 451.495 407.766 451.765 407.42C452.035 407.073 452.429 406.846 452.864 406.785Z" fill="black"/>
<path fill-rule="evenodd" clip-rule="evenodd" d="M475.707 406.785C476.092 406.692 476.497 406.72 476.865 406.868C477.233 407.015 477.546 407.273 477.761 407.607C477.975 407.941 478.081 408.333 478.062 408.729C478.043 409.125 477.902 409.506 477.657 409.818C477.412 410.13 477.076 410.358 476.696 410.47C476.315 410.582 475.91 410.573 475.535 410.443C475.16 410.314 474.835 410.071 474.605 409.748C474.374 409.425 474.25 409.038 474.25 408.641C474.203 408.203 474.328 407.763 474.6 407.416C474.873 407.07 475.27 406.843 475.707 406.785Z" fill="black"/>
<path fill-rule="evenodd" clip-rule="evenodd" d="M439.316 403.714H489.611C489.611 403.714 480.37 379.359 464.296 379.359C448.223 379.359 439.316 403.714 439.316 403.714Z" fill="#163BF3"/>
<path fill-rule="evenodd" clip-rule="evenodd" d="M270.262 180.453C270.262 180.453 231.158 184.427 208.441 187.866C185.725 191.304 177.007 200.447 176.514 214.611C176.022 228.775 188.292 238.441 197.471 239.773C206.649 241.104 294.498 242.394 294.498 242.394H387.69L387.166 193.412C387.166 193.412 350.231 180.757 328.405 174.918C301.77 179.793 270.262 180.453 270.262 180.453Z" fill="#00672E"/>
<path fill-rule="evenodd" clip-rule="evenodd" d="M317.969 107.704C335.782 116.878 341.325 141.704 330.312 163.092C319.3 184.479 296.72 192.563 278.068 185.213C264.101 179.699 260.015 167.065 271.027 145.678C272.976 141.893 269.979 122.612 272.641 119.593C284.848 105.523 303.3 100.145 317.969 107.704Z" fill="#FFC7BF"/>
<path fill-rule="evenodd" clip-rule="evenodd" d="M505.6 451.867C502.384 445.797 497.574 438.06 495.636 434.694C493.697 431.329 496.369 429.096 499.156 432.136C501.095 434.172 503.245 435.996 505.569 437.577C505.569 437.577 502.509 418.821 501.462 412.531C500.414 406.24 504.909 405.926 506.648 411.262C508.555 417.081 512.642 430.018 512.642 430.018C512.642 430.018 511.301 411.671 510.829 408.159C510.358 404.647 514.507 402.581 515.418 407.75C516.33 412.919 519.473 428.509 519.473 428.509C519.473 428.509 520.678 412.982 521.003 408.484C521.328 403.986 525.687 402.854 525.844 408.788C526.001 414.722 526.19 429.117 526.19 429.117C526.19 429.117 529.847 417.521 530.716 414.261C531.586 411 535.568 411.619 534.562 417.039C533.556 422.459 530.884 444.214 529.773 449.351C527.605 459.28 510.703 461.45 505.6 451.867Z" fill="#FBBE2E"/>
<path fill-rule="evenodd" clip-rule="evenodd" d="M288.012 187.667L294.435 203.781C304.305 204.043 315.904 192.363 328.352 174.886L326.32 169.644L288.012 187.667Z" fill="#FFC7BF"/>
<path fill-rule="evenodd" clip-rule="evenodd" d="M288.012 187.656L300.868 188.358L290.223 193.38L288.012 187.656Z" fill="#FF8173"/>
<path fill-rule="evenodd" clip-rule="evenodd" d="M271.488 127.435C267.297 123.807 263.399 120.463 263.524 117.108C263.65 113.753 271.037 113.093 270.629 108.93C270.22 104.768 257.08 102.64 264.729 89.9016C272.378 77.1634 293.67 82.395 310.833 92.4493C327.996 102.504 352.368 132.006 345.128 146.076C340.345 155.003 333.974 162.982 326.33 169.623C326.33 169.623 329.18 153.32 330.385 146.076C331.59 138.831 330.26 136.011 326.508 134.669C322.757 133.327 320.882 146.076 320.882 146.076H316.439C316.439 146.076 318.314 136.011 318.849 129.175C319.383 122.34 313.966 116.594 308.172 116.594H275.48C273.871 120.099 272.536 123.723 271.488 127.435Z" fill="#FF341A"/>
<path d="M214.414 203.791H264.709C294.75 203.791 318.011 224.036 318.011 224.036" stroke="#24A865" stroke-width="1.67" stroke-linecap="round" stroke-linejoin="round"/>
<path d="M275.385 129.511C275.385 129.511 281.074 129.343 283.254 129.343C285.433 129.343 290.526 132.687 288.65 137.552C286.774 142.417 281.577 154.641 281.577 154.641H292.129L285.098 163.354C285.098 163.354 296.006 165.702 300.354 158.667" stroke="#FF8173" stroke-width="1.67" stroke-linecap="round" stroke-linejoin="round"/>
<path d="M299.244 129.343H309.513" stroke="#FF8173" stroke-width="1.67" stroke-linecap="round" stroke-linejoin="round"/>
<path fill-rule="evenodd" clip-rule="evenodd" d="M279.692 135.875C280.116 135.753 280.568 135.769 280.982 135.919C281.397 136.069 281.753 136.347 282.001 136.711C282.249 137.076 282.376 137.51 282.363 137.951C282.351 138.391 282.199 138.817 281.931 139.167C281.663 139.517 281.291 139.773 280.869 139.9C280.446 140.026 279.995 140.016 279.579 139.871C279.162 139.726 278.802 139.453 278.55 139.091C278.298 138.729 278.166 138.297 278.173 137.856C278.122 137.394 278.251 136.929 278.534 136.56C278.818 136.19 279.233 135.945 279.692 135.875Z" fill="black"/>
<path fill-rule="evenodd" clip-rule="evenodd" d="M303.477 135.875C303.901 135.756 304.352 135.774 304.766 135.926C305.179 136.078 305.534 136.356 305.78 136.722C306.027 137.087 306.151 137.521 306.137 137.961C306.123 138.402 305.97 138.827 305.701 139.176C305.432 139.524 305.06 139.779 304.637 139.904C304.215 140.029 303.764 140.018 303.348 139.872C302.933 139.726 302.574 139.453 302.322 139.091C302.071 138.729 301.94 138.297 301.947 137.856C301.894 137.391 302.024 136.924 302.309 136.554C302.595 136.184 303.014 135.94 303.477 135.875Z" fill="black"/>
<path fill-rule="evenodd" clip-rule="evenodd" d="M464.285 679.531C720.527 679.531 928.769 679.017 928.56 685.035C928.34 691.525 720.527 690.529 464.285 690.529C208.043 690.529 0 691.2 0 685.035C0 678.871 208.043 679.531 464.285 679.531Z" fill="black"/>
<path fill-rule="evenodd" clip-rule="evenodd" d="M464.286 548.437V685.046L443.528 674.132L427.57 563C427.57 563 453.587 536.129 464.286 548.437Z" fill="#C98600"/>
<path fill-rule="evenodd" clip-rule="evenodd" d="M464.285 548.437V685.046L485.032 674.132L500.99 563C500.99 563 474.973 536.129 464.285 548.437Z" fill="#C98600"/>
<path fill-rule="evenodd" clip-rule="evenodd" d="M443.527 674.132C438.089 674.132 425.232 681.471 425.232 685.077H464.284C464.284 685.077 458.783 674.132 443.527 674.132Z" fill="#163BF3"/>
<path fill-rule="evenodd" clip-rule="evenodd" d="M485.032 674.132C490.47 674.132 503.327 681.471 503.327 685.077H464.285C464.285 685.077 469.776 674.132 485.032 674.132Z" fill="#163BF3"/>
<path fill-rule="evenodd" clip-rule="evenodd" d="M714.104 492.064L744.029 440.492L822.384 465.581C822.384 465.581 855.285 473.339 848.202 497.882C844.084 512.13 833.837 514.217 819.084 512.204C806.122 510.432 714.104 492.064 714.104 492.064Z" fill="#163BF3"/>
<path fill-rule="evenodd" clip-rule="evenodd" d="M757.935 444.948L744.03 440.492L714.115 492.064C714.115 492.064 734.799 496.195 757.935 500.724V444.948Z" fill="black"/>
<path fill-rule="evenodd" clip-rule="evenodd" d="M743.945 449.634C744.595 460.506 740.089 491.948 731.979 506.134C723.869 520.319 708.435 555.786 708.435 555.786H631.326C631.326 555.786 664.72 441.509 709.566 427.691C739.953 418.318 742.897 432.304 743.945 449.634Z" fill="#163BF3"/>
<path fill-rule="evenodd" clip-rule="evenodd" d="M740.698 455.925C741.358 466.797 706.047 495.911 697.947 510.107C689.847 524.303 705.282 537.366 705.282 537.366L633.926 552.767C633.926 552.767 664.679 441.53 709.525 427.691C739.954 418.318 739.65 438.595 740.698 455.925Z" fill="black"/>
<path fill-rule="evenodd" clip-rule="evenodd" d="M746.544 413.317L732.137 424.682L743.317 462.939L761.769 440.199L746.544 413.317Z" fill="#163BF3"/>
<path fill-rule="evenodd" clip-rule="evenodd" d="M849.198 492.085C854.52 466.849 852.634 434.097 858.02 419.587C844.084 414.271 829.216 410.476 829.216 410.476C829.216 410.476 814.148 467.594 810.292 481.223C806.436 494.853 809.014 510.579 823.589 512.246C838.164 513.913 845.939 507.601 849.198 492.085Z" fill="#163BF3"/>
<path fill-rule="evenodd" clip-rule="evenodd" d="M829.427 409.931C831.47 402.33 834.834 393.072 839.203 389.424C843.572 385.775 846.087 387.977 843.813 390.745C842.437 392.481 841.731 394.654 841.822 396.867C841.822 396.867 853.202 385.073 859.258 379.044C863.03 375.281 865.314 378.258 863.533 380.984C862.066 383.228 855.832 391.982 853.736 395.316C861.176 389.424 865.754 385.702 870.25 382.452C874.745 379.202 877.165 382.452 874.273 385.356C871.591 387.998 862.087 396.008 859.897 399.216C866.063 395.956 872.433 393.099 878.967 390.661C883.944 388.889 885.988 392.359 881.618 394.697C877.249 397.035 865.231 402.277 863.345 404.458C867.714 402.854 878.098 399.751 881.87 398.493C885.81 397.182 887.444 401.428 883.221 403.609C878.999 405.789 860.222 410.35 858.975 415.424C858.367 417.878 858.022 419.618 858.022 419.618C854.49 430.375 824.921 426.705 829.427 409.931Z" fill="#FBBE2E"/>
<path fill-rule="evenodd" clip-rule="evenodd" d="M768.046 368.833C752.988 370.594 742.479 386.656 744.585 404.752C746.691 422.847 760.617 436.068 775.663 434.317C790.71 432.566 801.23 416.494 799.134 398.398C797.038 380.303 783.082 367.082 768.046 368.833Z" fill="#FBBE2E"/>
<path fill-rule="evenodd" clip-rule="evenodd" d="M768.235 336.73C760.711 337.59 755.472 345.621 756.52 354.627C757.568 363.633 764.515 370.227 772.017 369.357C779.52 368.487 784.811 360.456 783.763 351.461C782.715 342.465 775.737 335.86 768.235 336.73Z" fill="black"/>
<path fill-rule="evenodd" clip-rule="evenodd" d="M746.638 412.845C746.638 412.845 753.427 408.505 754.758 401.313C756.089 394.121 758.153 389.413 761.171 389.78C764.189 390.147 765.708 396.574 764.765 402.435C763.822 408.295 762.879 418.685 762.879 418.685L774.017 385.817L798.651 395.431C798.651 395.431 797.97 366.359 770.14 366.359C742.31 366.359 741.535 400.757 746.638 412.845Z" fill="black"/>
<path fill-rule="evenodd" clip-rule="evenodd" d="M767.667 433.856L761.768 440.198L738.58 419.587L746.543 413.317L767.667 433.856Z" fill="#FBBE2E"/>
<path fill-rule="evenodd" clip-rule="evenodd" d="M767.668 433.856L758.678 430.48L764.87 436.865L767.668 433.856Z" fill="#FF8173"/>
<path d="M792.774 401.051C792.774 401.051 789.317 409.962 792.565 417.448L785.23 414.701L786.047 423.015C786.047 423.015 776.46 420.74 774.521 415.917" stroke="#FF8173" stroke-width="1.67" stroke-linecap="round" stroke-linejoin="round"/>
<path fill-rule="evenodd" clip-rule="evenodd" d="M784.988 398.597C785.408 398.682 785.792 398.893 786.089 399.202C786.385 399.511 786.58 399.904 786.646 400.327C786.713 400.751 786.648 401.184 786.461 401.57C786.274 401.955 785.973 402.274 785.599 402.483C785.225 402.692 784.797 402.782 784.37 402.74C783.944 402.698 783.541 402.526 783.215 402.248C782.89 401.97 782.657 401.598 782.549 401.184C782.44 400.769 782.462 400.331 782.61 399.929C782.751 399.438 783.08 399.024 783.525 398.774C783.971 398.525 784.496 398.461 784.988 398.597Z" fill="black"/>
<path fill-rule="evenodd" clip-rule="evenodd" d="M796.631 402.98C797.051 403.062 797.437 403.272 797.735 403.58C798.033 403.889 798.229 404.281 798.297 404.705C798.365 405.128 798.302 405.563 798.116 405.949C797.929 406.336 797.629 406.656 797.255 406.866C796.881 407.076 796.452 407.166 796.025 407.125C795.598 407.083 795.195 406.911 794.868 406.633C794.542 406.354 794.309 405.983 794.201 405.567C794.092 405.152 794.114 404.714 794.263 404.311C794.407 403.825 794.734 403.413 795.177 403.165C795.619 402.916 796.14 402.85 796.631 402.98Z" fill="black"/>
<path fill-rule="evenodd" clip-rule="evenodd" d="M696.291 429.148C676.509 441.027 640.757 468.82 615.484 486.811C598.593 498.847 603.298 519.081 611.031 527.395C619.413 536.443 632.93 539.662 653.698 523.831C674.465 508 721.323 473.947 732.692 466.032C744.061 458.116 747.529 436.34 740.111 426.443C732.692 416.546 716.074 417.27 696.291 429.148Z" fill="#163BF3"/>
<path fill-rule="evenodd" clip-rule="evenodd" d="M775.138 492.085H624.159C624.159 492.085 594.349 497.149 608.222 523.632C615.923 538.309 631.117 540.857 644.728 540.857C658.339 540.857 767.542 531.673 767.542 531.673L775.138 492.085Z" fill="#163BF3"/>
<path fill-rule="evenodd" clip-rule="evenodd" d="M590.002 657.294C589.93 655.953 589.346 654.692 588.371 653.769C587.396 652.846 586.105 652.333 584.763 652.335C579.65 651.884 568.773 663.972 562.13 670.158C555.487 676.344 541.436 680.642 543.092 684.186C555.183 684.186 591.165 682.823 591.165 682.823L590.002 657.294Z" fill="#163BF3"/>
<path d="M696.606 492.064L662.855 516.953" stroke="black" stroke-width="1.67" stroke-linecap="round" stroke-linejoin="round"/>
<path fill-rule="evenodd" clip-rule="evenodd" d="M775.14 492.085C768.319 492.431 755.672 499.13 755.996 510.317C756.321 521.503 761.414 529.356 767.522 531.673C773.631 533.99 791.14 530.572 795.677 516.471C796.722 513.305 797.483 510.053 797.951 506.752C797.951 506.752 809.76 503.712 816.727 501.51C823.318 499.487 821.317 495.995 814.024 496.163L785.796 496.803C785.796 496.803 783.093 491.707 775.14 492.085Z" fill="#FBBE2E"/>
<path fill-rule="evenodd" clip-rule="evenodd" d="M708.467 555.786C705.145 564.006 707.105 573.609 713.842 583.045C720.579 592.481 755.031 640.551 763.383 652.461C771.734 664.371 769.963 682.865 759.841 682.865H591.206C591.206 682.865 577.648 671.71 590.001 657.326C599.526 655.092 647.337 647.187 647.337 647.187C647.337 647.187 614.719 601.676 631.327 555.818" fill="#CF1D00"/>
<path fill-rule="evenodd" clip-rule="evenodd" d="M464.285 269.967C485.908 269.969 507.044 276.387 525.022 288.408C542.999 300.43 557.011 317.515 565.284 337.504C573.557 357.493 575.721 379.487 571.501 400.707C567.281 421.926 556.868 441.417 541.578 456.714C526.287 472.012 506.807 482.43 485.599 486.65C464.392 490.87 442.41 488.703 422.434 480.423C402.457 472.143 385.383 458.122 373.37 440.133C361.358 422.144 354.946 400.994 354.946 379.359C354.96 350.349 366.484 322.531 386.986 302.019C407.489 281.507 435.292 269.978 464.285 269.967ZM438.551 18.7038C440.317 13.2679 443.757 8.53094 448.379 5.17159C453.001 1.81223 458.567 0.00292969 464.28 0.00292969C469.992 0.00292969 475.558 1.81223 480.18 5.17159C484.802 8.53094 488.242 13.2679 490.009 18.7038L549.545 202.051C553.191 213.273 560.293 223.053 569.834 229.989C579.375 236.925 590.865 240.662 602.659 240.664H795.288C801.003 240.659 806.572 242.466 811.197 245.824C815.822 249.183 819.264 253.921 821.031 259.359C822.797 264.796 822.797 270.654 821.03 276.092C819.263 281.529 815.819 286.267 811.194 289.625L655.353 402.948C645.815 409.887 638.715 419.668 635.072 430.89C631.428 442.112 631.426 454.2 635.068 465.424C650.03 511.48 675.419 589.661 694.615 648.771C696.377 654.206 696.374 660.061 694.608 665.495C692.841 670.93 689.401 675.665 684.78 679.024C680.159 682.383 674.595 684.192 668.883 684.192C663.172 684.193 657.607 682.385 652.985 679.028L497.113 565.715C487.57 558.78 476.079 555.044 464.285 555.044C452.491 555.044 440.999 558.78 431.457 565.715L275.574 679.028C270.954 682.388 265.388 684.199 259.676 684.199C253.963 684.2 248.398 682.391 243.776 679.031C239.155 675.671 235.716 670.934 233.951 665.498C232.187 660.061 232.188 654.206 233.955 648.771C253.151 589.661 278.529 511.48 293.492 465.424C297.135 454.201 297.134 442.112 293.49 430.889C289.846 419.667 282.746 409.886 273.206 402.948L117.355 289.625C112.73 286.268 109.287 281.531 107.52 276.094C105.752 270.658 105.751 264.801 107.516 259.364C109.282 253.926 112.723 249.188 117.346 245.829C121.969 242.469 127.536 240.661 133.25 240.664H325.869C337.663 240.662 349.153 236.925 358.694 229.989C368.235 223.053 375.337 213.273 378.983 202.051C393.977 155.994 419.355 77.8135 438.551 18.7038Z" fill="#FBBE2E"/>
<path fill-rule="evenodd" clip-rule="evenodd" d="M318.031 224.036C314.374 220.566 302.775 222.138 298.835 226.332C294.445 231.018 291.113 235.768 294.434 242.362C297.756 248.957 300.721 256.547 300.354 263.331C299.988 270.114 307.616 266.832 307.134 262.44C307.815 267.682 315.778 271.498 314.887 261.894C317.077 265.532 323.804 268.279 323.27 257.218C325.187 259.976 334.24 261.339 330.814 250.708C327.388 240.077 321.677 227.506 318.031 224.036Z" fill="#FFC7BF"/>
<path d="M307.135 262.45C307.135 262.45 306.465 251.641 305.375 248.013" stroke="#FF8173" stroke-width="1.67" stroke-linecap="round" stroke-linejoin="round"/>
<path d="M314.889 261.905C314.889 261.905 314.951 251.641 312.793 244.962" stroke="#FF8173" stroke-width="1.67" stroke-linecap="round" stroke-linejoin="round"/>
<path d="M323.249 257.229C323.249 257.229 322.934 248.296 320.682 242.551" stroke="#FF8173" stroke-width="1.67" stroke-linecap="round" stroke-linejoin="round"/>
<path fill-rule="evenodd" clip-rule="evenodd" d="M215.85 486.759C215.85 486.759 217.159 524.219 228.151 522.908C239.142 521.598 255.834 455.81 252.722 433.311C249.61 410.812 234.71 425.322 228.958 429.851C223.205 434.38 216.656 445.042 216.656 445.042L215.85 486.759Z" fill="#014A82"/>
<path fill-rule="evenodd" clip-rule="evenodd" d="M113.562 484.567C120.614 495.219 136.048 509.782 164.769 502.17C196.392 493.783 208.955 489.589 220.366 484.987C235.485 478.917 249.369 450.253 228.203 443.826C203.056 436.183 146.401 442.285 126.88 449.75C108.396 456.805 106.51 473.884 113.562 484.567Z" fill="#935000"/>
<path fill-rule="evenodd" clip-rule="evenodd" d="M219.548 363.905C219.548 363.905 146.368 422.805 127.969 439.171C109.569 455.537 105.483 471.903 114.075 485.417C122.667 498.931 139.83 499.738 161.09 485.417C182.35 471.095 288.651 413.81 288.651 413.81L219.548 363.905Z" fill="#C98600"/>
<path d="M231.357 445.063L160.766 485.616" stroke="black" stroke-width="1.67" stroke-linecap="round" stroke-linejoin="round"/>
<path fill-rule="evenodd" clip-rule="evenodd" d="M148.244 553.417C149.229 550.383 151.149 547.738 153.728 545.863C156.308 543.987 159.415 542.977 162.604 542.977C165.793 542.977 168.899 543.987 171.479 545.863C174.059 547.738 175.979 550.383 176.964 553.417C178.343 557.681 181.037 561.398 184.659 564.035C188.281 566.672 192.645 568.093 197.124 568.095C200.313 568.094 203.421 569.104 206.001 570.979C208.581 572.855 210.502 575.5 211.487 578.534C212.472 581.569 212.472 584.838 211.486 587.873C210.5 590.908 208.579 593.552 205.999 595.427C202.378 598.058 199.682 601.769 198.298 606.027C196.915 610.286 196.915 614.873 198.297 619.132C199.281 622.165 199.28 625.432 198.295 628.465C197.309 631.498 195.39 634.141 192.811 636.016C190.233 637.891 187.128 638.901 183.94 638.902C180.753 638.903 177.647 637.895 175.067 636.022C171.446 633.39 167.085 631.972 162.609 631.972C158.133 631.972 153.772 633.39 150.151 636.022C147.571 637.899 144.464 638.911 141.274 638.912C138.084 638.913 134.976 637.904 132.395 636.028C129.815 634.152 127.894 631.507 126.908 628.472C125.923 625.437 125.924 622.167 126.91 619.132C128.292 614.874 128.293 610.288 126.911 606.03C125.53 601.772 122.837 598.061 119.219 595.427C116.639 593.553 114.719 590.909 113.733 587.875C112.746 584.842 112.745 581.574 113.729 578.539C114.714 575.505 116.632 572.86 119.211 570.984C121.789 569.108 124.895 568.096 128.084 568.095C132.561 568.093 136.923 566.671 140.544 564.034C144.164 561.397 146.856 557.68 148.233 553.417H148.244Z" fill="#FBBE2E"/>
<path fill-rule="evenodd" clip-rule="evenodd" d="M606.871 17.6869C607.856 14.6524 609.776 12.0079 612.356 10.1324C614.935 8.25695 618.042 7.24683 621.231 7.24683C624.42 7.24683 627.527 8.25695 630.106 10.1324C632.686 12.0079 634.606 14.6524 635.591 17.6869C636.967 21.9509 639.659 25.6687 643.279 28.3059C646.9 30.9432 651.262 32.3642 655.741 32.3647C658.93 32.3641 662.037 33.3738 664.618 35.2492C667.198 37.1246 669.118 39.7693 670.104 42.8042C671.089 45.839 671.089 49.1081 670.103 52.1428C669.117 55.1775 667.196 57.8219 664.616 59.6969C661.011 62.3359 658.332 66.0468 656.96 70.3C655.588 74.5531 655.594 79.1311 656.977 83.3806C657.964 86.4148 657.966 89.6838 656.982 92.7189C655.998 95.7541 654.078 98.3996 651.499 100.276C648.92 102.153 645.813 103.164 642.624 103.165C639.435 103.166 636.328 102.156 633.747 100.281C630.126 97.6488 625.765 96.2311 621.289 96.2311C616.813 96.2311 612.452 97.6488 608.83 100.281C606.249 102.153 603.142 103.16 599.954 103.158C596.765 103.156 593.66 102.144 591.081 100.269C588.502 98.3936 586.582 95.7501 585.596 92.7166C584.609 89.6832 584.607 86.4153 585.59 83.3806C586.975 79.1232 586.978 74.536 585.596 70.2772C584.214 66.0185 581.52 62.3072 577.899 59.6759C575.318 57.8009 573.397 55.1565 572.412 52.1219C571.426 49.0872 571.425 45.818 572.411 42.7832C573.396 39.7484 575.317 37.1037 577.897 35.2283C580.477 33.3529 583.585 32.3431 586.774 32.3437C591.252 32.3432 595.615 30.9222 599.235 28.285C602.856 25.6477 605.547 21.9299 606.923 17.6659L606.871 17.6869Z" fill="#FBBE2E"/>
<path d="M464.285 564.121V684.196" stroke="black" stroke-width="1.67" stroke-linecap="round" stroke-linejoin="round"/>
<path d="M815.186 463.274L830.085 468.044" stroke="black" stroke-width="1.67" stroke-linecap="round" stroke-linejoin="round"/>
<path d="M685.844 586.641C685.844 586.641 727.148 642.354 732.681 650.102C738.213 657.85 743.735 673.492 728.993 682.834" stroke="black" stroke-width="1.67" stroke-linecap="round" stroke-linejoin="round"/>
<path fill-rule="evenodd" clip-rule="evenodd" d="M650.314 216.414H683.844L685.804 222.317C685.804 222.317 686.6 240.37 666.702 240.37C646.804 240.37 648.334 221.813 648.334 221.813L650.314 216.414Z" fill="#CF1D00"/>
<path fill-rule="evenodd" clip-rule="evenodd" d="M650.784 221.813C648.437 221.813 638.347 223.963 639.562 235.579C640.778 247.196 650.763 269.799 650.763 269.799L661.912 264.557C661.912 264.557 660.267 237.802 659.282 231.008C658.297 224.214 654.776 221.751 650.784 221.813Z" fill="#FEC8C2"/>
<path fill-rule="evenodd" clip-rule="evenodd" d="M679.296 221.813C681.653 221.813 691.733 223.963 690.528 235.579C689.323 247.196 679.327 269.799 679.327 269.799L668.168 264.557C668.168 264.557 669.813 237.802 670.808 231.008C671.804 224.214 675.304 221.751 679.296 221.813Z" fill="#FEC8C2"/>
<path fill-rule="evenodd" clip-rule="evenodd" d="M650.764 269.799C652.273 273.479 647.977 281.206 645.87 285.767C643.764 290.327 644.728 291.994 649.381 288.755C654.033 285.515 663.316 276.551 663.316 276.551L661.912 264.536C661.912 264.536 654.683 267.692 650.764 269.799Z" fill="white"/>
<path fill-rule="evenodd" clip-rule="evenodd" d="M679.337 269.799C677.828 273.479 682.124 281.206 684.22 285.767C686.315 290.327 685.362 291.994 680.72 288.755C676.078 285.515 666.773 276.551 666.773 276.551L668.178 264.536C668.178 264.536 675.407 267.692 679.337 269.799Z" fill="white"/>
<path fill-rule="evenodd" clip-rule="evenodd" d="M668.21 180.17C662.248 180.17 658.779 180.349 653.257 180.453C647.735 180.558 639.562 185.171 636.272 192.877C632.982 200.583 615.861 235.999 615.861 235.999C615.861 235.999 607.154 237.718 606.158 240.192H620.828C622.253 240.192 624.83 238.095 626.968 234.95C629.105 231.805 648.092 206.391 648.092 206.391L650.282 216.509H668.178C668.178 216.509 674.161 180.17 668.21 180.17Z" fill="#163BF3"/>
<path fill-rule="evenodd" clip-rule="evenodd" d="M656.296 172.265C656.296 172.265 652.828 164.067 658.392 161.089C663.956 158.112 672.443 167.851 672.443 167.851L656.296 172.265Z" fill="#8D1A00"/>
<path fill-rule="evenodd" clip-rule="evenodd" d="M665.989 180.17C671.951 180.17 675.367 180.349 680.941 180.453C686.516 180.558 694.699 185.171 697.926 192.909C701.153 200.646 718.327 236.03 718.327 236.03C718.327 236.03 727.034 237.749 728.04 240.224H713.371C711.935 240.224 709.379 238.127 707.231 234.982C705.083 231.836 686.107 206.423 686.107 206.423L683.917 216.54H665.989C665.989 216.54 660.037 180.17 665.989 180.17Z" fill="#163BF3"/>
<path fill-rule="evenodd" clip-rule="evenodd" d="M658.371 180.915C658.371 180.915 661.588 187.771 665.622 187.771C669.656 187.771 672.422 180.831 672.422 180.831L658.371 180.915Z" fill="black"/>
<path d="M665.622 184.301C670.94 184.301 675.251 179.987 675.251 174.666C675.251 169.345 670.94 165.031 665.622 165.031C660.303 165.031 655.992 169.345 655.992 174.666C655.992 179.987 660.303 184.301 665.622 184.301Z" fill="#FEC8C2"/>
</g>
<defs>
<clipPath id="clip0_398:20373">
<rect width="928.56" height="690.581" fill="white"/>
</clipPath>
</defs>
</svg>
