<svg width="903" height="949" viewBox="0 0 903 949" fill="none" xmlns="http://www.w3.org/2000/svg">
<path fill-rule="evenodd" clip-rule="evenodd" d="M439.979 62.6577C442.629 54.4937 450.242 48.9619 458.832 48.9619C467.424 48.9619 475.037 54.4937 477.686 62.6577C491.754 105.954 510.364 163.216 521.323 196.955C526.8 213.819 542.518 225.238 560.246 225.238H701.455C710.045 225.238 717.659 230.769 720.313 238.933C722.967 247.103 720.058 256.051 713.11 261.101C676.28 287.858 627.566 323.251 598.872 344.099C584.523 354.524 578.521 372.999 584.004 389.861C594.962 423.594 613.573 480.863 627.636 524.154C630.291 532.324 627.382 541.272 620.435 546.321C613.487 551.372 604.079 551.372 597.125 546.321C560.3 519.564 511.585 484.172 482.888 463.323C468.543 452.898 449.122 452.898 434.778 463.323C406.079 484.172 357.364 519.564 320.539 546.321C313.585 551.372 304.178 551.372 297.23 546.321C290.283 541.272 287.374 532.324 290.029 524.154C304.091 480.863 322.702 423.594 333.662 389.861C339.144 372.999 333.141 354.524 318.793 344.099C290.099 323.251 241.384 287.858 204.554 261.101C197.606 256.051 194.697 247.103 197.351 238.933C200.007 230.769 207.619 225.238 216.211 225.238H357.419C375.146 225.238 390.864 213.819 396.342 196.955C407.301 163.216 425.912 105.954 439.979 62.6577Z" fill="#FBBE2E"/>
<path fill-rule="evenodd" clip-rule="evenodd" d="M307.049 820.329C305.395 821.512 301.145 826.39 302.832 830.205C304.518 834.02 310.585 839.149 312.526 838.148C314.461 837.148 322.95 828.512 322.95 828.512L307.049 820.329Z" fill="#FFC7BF"/>
<path fill-rule="evenodd" clip-rule="evenodd" d="M594.99 828.451H308.589C308.589 828.451 330.065 883.996 343.749 919.384C350.433 936.665 367.052 948.058 385.582 948.058H517.998C536.527 948.058 553.147 936.665 559.83 919.384C573.514 883.996 594.99 828.451 594.99 828.451ZM583.175 368.539H334.488C333.892 368.539 333.406 368.054 333.406 367.457C333.406 366.86 333.892 366.376 334.488 366.376H583.175C583.772 366.376 584.257 366.86 584.257 367.457C584.257 368.054 583.772 368.539 583.175 368.539Z" fill="#133191"/>
<path fill-rule="evenodd" clip-rule="evenodd" d="M458.832 456.587C458.38 456.587 457.959 456.302 457.807 455.852L378.021 219.399C377.83 218.833 378.134 218.219 378.699 218.028C379.268 217.838 379.879 218.142 380.07 218.706L459.856 455.159C460.047 455.725 459.743 456.339 459.178 456.53C459.062 456.568 458.946 456.587 458.832 456.587Z" fill="#CF1D00"/>
<path fill-rule="evenodd" clip-rule="evenodd" d="M458.831 456.586C458.717 456.586 458.601 456.567 458.485 456.529C457.92 456.338 457.616 455.725 457.806 455.158L537.594 218.705C537.785 218.142 538.395 217.839 538.965 218.027C539.53 218.218 539.834 218.832 539.643 219.398L459.856 455.851C459.704 456.301 459.283 456.586 458.831 456.586ZM372.313 277.243C371.235 277.243 370.276 277.397 369.469 277.736C368.027 278.344 367.172 279.538 366.852 281.392C366.517 283.342 366.966 284.909 368.226 286.182C373.861 291.868 392.794 290.113 399.978 289.212C392.944 284.665 379.791 277.243 372.313 277.243ZM385.792 292.348C378.245 292.348 370.31 291.356 366.69 287.705C364.927 285.925 364.264 283.677 364.721 281.024C365.169 278.422 366.485 276.645 368.631 275.742C378.293 271.686 402.536 288.291 403.562 289.001C403.926 289.251 404.101 289.698 404.004 290.128C403.907 290.56 403.558 290.887 403.121 290.959C402.5 291.058 394.398 292.348 385.792 292.348Z" fill="#CF1D00"/>
<path fill-rule="evenodd" clip-rule="evenodd" d="M384.304 316.255C384.072 316.255 383.837 316.18 383.64 316.026C383.169 315.659 383.085 314.979 383.452 314.508L402.095 290.6C402.462 290.129 403.141 290.045 403.613 290.413C404.084 290.779 404.169 291.459 403.801 291.93L385.159 315.837C384.945 316.112 384.625 316.255 384.304 316.255Z" fill="#CF1D00"/>
<mask id="mask0_472:18776" style="mask-type:alpha" maskUnits="userSpaceOnUse" x="0" y="367" width="205" height="95">
<path d="M0 367.452H204.943V461.008H0V367.452Z" fill="white"/>
</mask>
<g mask="url(#mask0_472:18776)">
<path fill-rule="evenodd" clip-rule="evenodd" d="M24.5581 367.454C65.0604 367.454 71.591 404.424 71.591 404.424C71.591 404.424 116.008 399.196 135.607 416.179C155.201 433.162 172.184 444.127 191.784 444.127C211.378 444.127 207.062 461.006 192.082 461.006H5.86239C5.86239 461.006 -15.9443 367.454 24.5581 367.454Z" fill="white"/>
</g>
<mask id="mask1_472:18776" style="mask-type:alpha" maskUnits="userSpaceOnUse" x="759" y="541" width="144" height="66">
<path d="M759.792 541.061H902.953V606.417H759.792V541.061Z" fill="white"/>
</mask>
<g mask="url(#mask1_472:18776)">
<path fill-rule="evenodd" clip-rule="evenodd" d="M885.8 541.062C857.507 541.062 852.943 566.891 852.943 566.891C852.943 566.891 821.913 563.235 808.224 575.103C794.534 586.966 782.672 594.621 768.982 594.621C755.292 594.621 758.31 606.419 768.776 606.419H898.862C898.862 606.419 914.094 541.062 885.8 541.062Z" fill="white"/>
</g>
<mask id="mask2_472:18776" style="mask-type:alpha" maskUnits="userSpaceOnUse" x="759" y="541" width="144" height="66">
<path d="M759.792 541.061H902.953V606.417H759.792V541.061Z" fill="white"/>
</mask>
<g mask="url(#mask2_472:18776)">
<path fill-rule="evenodd" clip-rule="evenodd" d="M885.8 541.062C857.507 541.062 852.943 566.891 852.943 566.891C852.943 566.891 821.913 563.235 808.224 575.103C794.534 586.966 782.672 594.621 768.982 594.621C755.292 594.621 758.31 606.419 768.776 606.419H898.862C898.862 606.419 914.094 541.062 885.8 541.062Z" fill="white"/>
</g>
<path fill-rule="evenodd" clip-rule="evenodd" d="M342.029 829.532C341.488 829.532 341.02 829.125 340.956 828.574L307.515 541.192C307.447 540.598 307.872 540.062 308.465 539.992C309.048 539.926 309.595 540.349 309.664 540.942L343.105 828.325C343.174 828.919 342.748 829.456 342.155 829.525C342.113 829.532 342.071 829.532 342.029 829.532ZM569.482 829.532C569.441 829.532 569.398 829.532 569.357 829.525C568.764 829.456 568.338 828.919 568.407 828.325L601.852 540.942C601.922 540.349 602.464 539.923 603.051 539.992C603.644 540.062 604.07 540.598 604.001 541.192L570.555 828.574C570.492 829.125 570.024 829.532 569.482 829.532Z" fill="#CF1D00"/>
<path fill-rule="evenodd" clip-rule="evenodd" d="M466.823 770.708C466.823 770.708 463.027 765.883 467.336 760.109C471.646 754.335 475.333 748.218 483.53 746.925C491.726 745.632 498.468 760.195 500.782 762.695C503.097 765.194 503.638 769.071 500.782 770.88C497.928 772.69 466.823 770.708 466.823 770.708Z" fill="black"/>
<path fill-rule="evenodd" clip-rule="evenodd" d="M508.877 828.513C508.877 828.513 520.053 814.512 522.544 811.967C525.032 809.424 532.504 807.117 537.915 807.397C543.323 807.673 551.373 808.842 554.666 808.842C557.954 808.842 566.702 810.387 570.043 828.513H508.877Z" fill="#0089E3"/>
<path fill-rule="evenodd" clip-rule="evenodd" d="M283.34 781.996C289.791 781.996 295.03 787.235 295.03 793.687C295.03 800.139 289.791 805.376 283.34 805.376C276.89 805.376 271.65 800.139 271.65 793.687C271.65 787.235 276.89 781.996 283.34 781.996ZM546.729 788.572C553.179 788.572 558.419 793.811 558.419 800.262C558.419 806.715 553.179 811.952 546.729 811.952C540.274 811.952 535.04 806.715 535.04 800.262C535.04 793.811 540.274 788.572 546.729 788.572Z" fill="#FFC7BF"/>
<path fill-rule="evenodd" clip-rule="evenodd" d="M460.006 786.726C460.006 786.726 458.638 773.877 466.19 770.946C473.75 768.014 484.304 766.515 484.304 766.515C484.304 766.515 493.618 767.102 498.048 768.014C502.482 768.925 506.845 772.183 507.494 777.394C509.97 772.964 515.051 765.799 515.051 765.799C515.051 765.799 514.333 770.749 516.744 772.378C519.155 774.007 522.545 774.268 522.545 774.268C522.545 774.268 515.9 792.9 514.333 796.678C512.77 800.456 506.06 801.303 504.562 800.26C505.087 804.495 508.878 828.512 508.878 828.512H464.905L460.006 786.726ZM295.03 793.687C295.095 800.079 303.778 807.003 308.688 808.639C313.597 810.276 315.7 811.952 315.7 811.952L307.049 820.329L322.95 828.512H370.649L360.824 800.261C360.824 800.261 328.562 791.65 319.209 788.572C309.855 785.493 294.932 784.11 295.03 793.687Z" fill="#FF341A"/>
<path fill-rule="evenodd" clip-rule="evenodd" d="M407.338 788.573L407.793 747.841L426.056 747.974L434.403 772.132C434.403 772.132 445.888 776.938 451.105 779.287C456.322 781.635 466.763 792.655 467.023 800.322C467.283 807.989 467.807 816.339 467.807 816.339L455.02 816.861L455.28 828.512H413.269L407.338 788.573Z" fill="#00672E"/>
<path fill-rule="evenodd" clip-rule="evenodd" d="M379.11 776.43C374.616 779.415 358.953 793.209 358.953 802.561C358.953 811.914 359.186 828.511 359.186 828.511H420.676C420.676 828.511 408.754 792.975 405.948 784.325C403.142 775.674 395.476 771.091 391.594 772.331C387.711 773.57 383.603 773.447 379.11 776.43Z" fill="#0089E3"/>
<path fill-rule="evenodd" clip-rule="evenodd" d="M483.531 747.841C489.278 747.841 493.939 752.505 493.939 758.253C493.939 763.998 489.278 768.663 483.531 768.663C477.784 768.663 473.117 763.998 473.117 758.253C473.117 752.505 477.784 747.841 483.531 747.841Z" fill="#5B3100"/>
<path fill-rule="evenodd" clip-rule="evenodd" d="M436.405 750.947C442.855 750.947 448.095 756.185 448.095 762.637C448.095 769.088 442.855 774.325 436.405 774.325C429.955 774.325 424.715 769.088 424.715 762.637C424.715 756.185 429.955 750.947 436.405 750.947Z" fill="#FFC7BF"/>
<path fill-rule="evenodd" clip-rule="evenodd" d="M382.337 753.502C388.794 753.502 394.027 758.741 394.027 765.193C394.027 771.645 388.794 776.882 382.337 776.882C375.887 776.882 370.647 771.645 370.647 765.193C370.647 758.741 375.887 753.502 382.337 753.502Z" fill="#DFA98B"/>
<path fill-rule="evenodd" clip-rule="evenodd" d="M407.793 747.841C407.793 747.841 410.923 699.701 412.75 687.177C414.572 674.652 412.561 676.557 411.708 672.495C410.847 668.434 409.031 660.525 414.269 659.243C419.509 657.96 421.002 664.48 421.754 666.724C422.926 664.266 424.316 662.128 425.705 663.624C427.094 665.122 422.607 673.564 422.391 676.45C422.18 679.336 426.056 747.974 426.056 747.974L407.793 747.841Z" fill="#FFC7BF"/>
<path fill-rule="evenodd" clip-rule="evenodd" d="M455.019 816.863L455.28 828.515H467.807V816.339L455.019 816.863Z" fill="#FFC7BF"/>
<path fill-rule="evenodd" clip-rule="evenodd" d="M315.7 813.035C315.417 813.035 315.135 812.924 314.923 812.706C314.507 812.276 314.519 811.592 314.947 811.177L322.727 803.641C323.156 803.225 323.84 803.237 324.256 803.665C324.672 804.095 324.66 804.78 324.232 805.195L316.452 812.73C316.242 812.933 315.97 813.035 315.7 813.035ZM325.409 829.594C325.125 829.594 324.84 829.482 324.627 829.26C324.214 828.827 324.231 828.142 324.662 827.73C324.723 827.672 330.767 821.91 339.825 813.41C341.915 811.448 342.866 809.501 342.734 807.457C342.437 802.898 336.673 798.746 333.577 796.517C333.031 796.125 332.553 795.78 332.178 795.489C331.705 795.122 331.617 794.444 331.984 793.971C332.348 793.498 333.027 793.411 333.5 793.777C333.86 794.056 334.318 794.386 334.841 794.762C338.227 797.2 344.531 801.739 344.891 807.316C345.067 810.009 343.859 812.589 341.305 814.987C332.254 823.481 326.216 829.237 326.156 829.295C325.946 829.495 325.678 829.594 325.409 829.594ZM378.454 828.173C377.948 828.173 377.497 827.818 377.395 827.303L372.869 804.629C372.753 804.044 373.133 803.474 373.719 803.357C374.308 803.239 374.875 803.621 374.991 804.207L379.515 826.88C379.632 827.465 379.253 828.035 378.667 828.152C378.595 828.166 378.525 828.173 378.454 828.173ZM454.905 816.837C454.365 816.837 453.897 816.433 453.833 815.882L452.363 803.468C452.292 802.874 452.715 802.338 453.308 802.268C453.897 802.192 454.44 802.62 454.509 803.215L455.98 815.629C456.051 816.221 455.626 816.759 455.033 816.829C454.99 816.835 454.948 816.837 454.905 816.837ZM504.025 799.927C503.507 799.927 503.049 799.553 502.96 799.024L499.716 779.684C499.617 779.095 500.015 778.537 500.603 778.438C501.191 778.337 501.75 778.737 501.849 779.326L505.092 798.667C505.191 799.255 504.793 799.812 504.205 799.911C504.146 799.922 504.084 799.927 504.025 799.927ZM505.004 782.311C504.801 782.311 504.594 782.253 504.411 782.134C503.912 781.805 503.773 781.135 504.101 780.635L506.361 777.196C506.689 776.699 507.357 776.558 507.86 776.887C508.358 777.214 508.497 777.886 508.169 778.386L505.909 781.824C505.701 782.138 505.356 782.311 505.004 782.311Z" fill="black"/>
<path fill-rule="evenodd" clip-rule="evenodd" d="M515.052 765.8C515.052 765.8 515.814 760.417 515.955 759.243C516.101 758.068 517.862 756.036 518.144 758.253C518.425 760.469 518.782 762.092 518.782 762.092C518.782 762.092 523.583 757.296 525.416 755.776C527.249 754.256 528.806 755.315 527.817 756.94C526.828 758.562 524.854 762.516 524.854 762.516C524.854 762.516 529.158 767.739 526.967 770.281C524.778 772.822 522.545 774.269 522.545 774.269C522.545 774.269 513.722 774.943 515.052 765.8Z" fill="#5B3100"/>
<path fill-rule="evenodd" clip-rule="evenodd" d="M473.117 755.776H493.938C493.938 755.776 491.813 748.347 485.033 747.465C478.259 746.582 473.452 752.864 473.117 755.776Z" fill="black"/>
<path fill-rule="evenodd" clip-rule="evenodd" d="M361.462 847.691C361.462 847.691 352.947 870.125 352.947 879.739C352.947 884.439 356.764 888.254 361.462 888.254C366.162 888.254 369.979 884.439 369.979 879.739C369.979 870.125 361.462 847.691 361.462 847.691ZM495.923 847.691C495.923 847.691 487.402 870.125 487.402 879.739C487.402 884.439 491.22 888.254 495.923 888.254C500.621 888.254 504.438 884.439 504.438 879.739C504.438 870.125 495.923 847.691 495.923 847.691ZM452.031 847.691C452.031 847.691 443.516 870.125 443.516 879.739C443.516 884.439 447.332 888.254 452.031 888.254C456.734 888.254 460.546 884.439 460.546 879.739C460.546 870.125 452.031 847.691 452.031 847.691ZM407.663 847.691C407.663 847.691 399.148 870.125 399.148 879.739C399.148 884.439 402.96 888.254 407.663 888.254C412.361 888.254 416.178 884.439 416.178 879.739C416.178 870.125 407.663 847.691 407.663 847.691ZM542.118 847.691C542.118 847.691 533.603 870.125 533.603 879.739C533.603 884.439 537.419 888.254 542.118 888.254C546.821 888.254 550.633 884.439 550.633 879.739C550.633 870.125 542.118 847.691 542.118 847.691Z" fill="#FBBE2E"/>
<path fill-rule="evenodd" clip-rule="evenodd" d="M587.55 848.772H316.03C315.433 848.772 314.948 848.288 314.948 847.691C314.948 847.094 315.433 846.609 316.03 846.609H587.55C588.147 846.609 588.632 847.094 588.632 847.691C588.632 848.288 588.147 848.772 587.55 848.772Z" fill="#FBBE2E"/>
<line x1="334.085" y1="367.597" x2="582.959" y2="367.597" stroke="#CF1D00" stroke-width="2" stroke-linecap="round"/>
</svg>
