<svg width="1064" height="819" viewBox="0 0 1064 819" fill="none" xmlns="http://www.w3.org/2000/svg">
<g clip-path="url(#clip0_463:21992)">
<path fill-rule="evenodd" clip-rule="evenodd" d="M542.532 174.516L957.654 805.413H127.395L542.532 174.516Z" fill="#B9E2FE"/>
<path fill-rule="evenodd" clip-rule="evenodd" d="M1044.67 261.13L882.826 184.166L587.697 804.643L786.562 803.77L1044.67 261.13Z" fill="#FFF3D6"/>
<path fill-rule="evenodd" clip-rule="evenodd" d="M990.843 235.539L936.649 209.771L649.559 813.361H715.995L990.843 235.539Z" fill="white"/>
<path fill-rule="evenodd" clip-rule="evenodd" d="M177.993 726.895L330.79 790.672C333.062 791.623 334.935 793.332 336.091 795.507C337.247 797.682 337.615 800.19 337.132 802.605C336.65 805.021 335.346 807.195 333.443 808.759C331.539 810.322 329.153 811.18 326.69 811.185H29.311C26.8437 811.19 24.4509 810.34 22.5397 808.78C20.6286 807.219 19.3171 805.045 18.8286 802.627C18.34 800.209 18.7044 797.696 19.8599 795.517C21.0153 793.337 22.8905 791.625 25.1662 790.672L177.993 726.895Z" fill="#E3F7ED"/>
<path fill-rule="evenodd" clip-rule="evenodd" d="M563.894 803.4C839.912 803.4 1064.24 802.675 1064 811.171C1063.76 820.332 839.912 818.926 563.894 818.926C287.876 818.926 63.7871 819.873 63.7871 811.171C63.7871 802.468 287.876 803.4 563.894 803.4Z" fill="black"/>
<path fill-rule="evenodd" clip-rule="evenodd" d="M722.981 370.019C725.441 370.019 727.846 370.749 729.891 372.115C731.937 373.482 733.53 375.425 734.471 377.697C735.412 379.97 735.657 382.471 735.176 384.883C734.695 387.295 733.509 389.51 731.769 391.248C730.028 392.986 727.811 394.169 725.398 394.647C722.985 395.125 720.485 394.877 718.213 393.934C715.941 392.99 714 391.395 712.635 389.348C711.271 387.302 710.544 384.896 710.547 382.437C710.547 380.805 710.869 379.189 711.494 377.681C712.119 376.174 713.035 374.804 714.19 373.651C715.345 372.498 716.716 371.583 718.224 370.96C719.733 370.337 721.349 370.017 722.981 370.019Z" fill="#FFC7BF"/>
<path fill-rule="evenodd" clip-rule="evenodd" d="M686.151 506.526L588.125 789.147H632.963L710.828 591.749L761.691 792.507H802.488L735.401 506.526H686.151Z" fill="#FBBE2E"/>
<path fill-rule="evenodd" clip-rule="evenodd" d="M659.507 338.612C661.431 334.305 663.341 327.126 661.579 321.532C659.818 315.937 657.138 305.251 660.78 303.327C664.422 301.403 669.884 311.793 669.884 311.793C670.872 311.86 671.825 312.192 672.64 312.755C673.455 313.317 674.104 314.089 674.517 314.99C676.116 318.172 678.04 328.725 674.68 338.671C670.047 338.775 665.576 338.612 659.507 338.612Z" fill="#FFC7BF"/>
<path fill-rule="evenodd" clip-rule="evenodd" d="M659.505 338.612C653.259 351.518 638.988 388.934 634.251 401.737C629.514 414.54 638.248 427.18 653.717 427.18H690.651L686.21 506.526H735.46V428.734C735.46 428.734 744.342 440.574 747.169 445.015C750.367 449.988 753.09 453.895 751.61 464.418C750.219 473.98 741.81 500.429 739.028 507.814C745.215 511.011 751.196 514.208 751.196 514.208C751.196 514.208 764.77 479.471 767.967 471.093C771.165 462.716 774.525 456.589 769.936 447.605C765.347 438.621 756.614 421.481 751.581 413.563C746.547 405.645 735.993 398.762 721.812 398.762H674.442C662.94 398.762 659.121 393.404 662.599 379.521C666.078 365.638 674.841 338.701 674.841 338.701C674.841 338.701 667.618 338.227 659.505 338.612Z" fill="#4FB3F6"/>
<path d="M690.652 427.18L691.304 415.458" stroke="black" stroke-width="0.83" stroke-linecap="round" stroke-linejoin="round"/>
<path d="M735.402 428.734L729.91 421.333" stroke="black" stroke-width="0.83" stroke-linecap="round" stroke-linejoin="round"/>
<path fill-rule="evenodd" clip-rule="evenodd" d="M738.924 507.784C738.924 507.784 727.792 509.265 728.088 515.081C728.384 520.898 732.825 525.531 736.97 524.361C741.115 523.192 748.398 520.78 751.077 514.178C746.192 511.44 738.924 507.784 738.924 507.784Z" fill="#FFC7BF"/>
<path fill-rule="evenodd" clip-rule="evenodd" d="M715.551 372.417L733.966 388.416C733.966 388.416 740.376 378.559 734.099 372.505C727.823 366.452 718.467 369.323 715.551 372.417Z" fill="#FF341A"/>
<path fill-rule="evenodd" clip-rule="evenodd" d="M733.861 372.283C733.861 372.283 739.087 351.118 739.59 347.122C740.093 343.126 744.978 341.128 747.465 345.228C749.952 349.327 758.05 366.822 760.092 370.626C762.135 374.43 760.314 375.732 754.319 376.472C748.324 377.212 733.861 372.283 733.861 372.283Z" fill="#FF341A"/>
<path d="M565.892 18.7229H519.174V211.177H565.892V18.7229Z" fill="#B9E2FE"/>
<path d="M185.6 263.231H170.383V295.601H185.6V263.231Z" fill="#E3F7ED"/>
<path fill-rule="evenodd" clip-rule="evenodd" d="M581.982 9.35409C581.982 8.12445 581.74 6.90687 581.269 5.77102C580.798 4.63516 580.107 3.60332 579.237 2.73452C578.367 1.86572 577.334 1.17701 576.197 0.707796C575.06 0.238581 573.842 -0.00193392 572.612 1.17105e-05H512.438C509.956 1.17105e-05 507.577 0.985528 505.822 2.73976C504.068 4.49399 503.082 6.87324 503.082 9.35409C503.082 11.8349 504.068 14.2142 505.822 15.9684C507.577 17.7227 509.956 18.7082 512.438 18.7082H572.612C573.842 18.7101 575.06 18.4696 576.197 18.0004C577.334 17.5312 578.367 16.8425 579.237 15.9737C580.107 15.1049 580.798 14.073 581.269 12.9372C581.74 11.8013 581.982 10.5837 581.982 9.35409Z" fill="#B9E2FE"/>
<path d="M177.992 666.833C276.294 666.833 355.984 587.156 355.984 488.869C355.984 390.582 276.294 310.905 177.992 310.905C79.6898 310.905 0 390.582 0 488.869C0 587.156 79.6898 666.833 177.992 666.833Z" fill="#E3F7ED"/>
<path d="M177.162 310.919V666.833" stroke="#9CE8C2" stroke-width="1.5" stroke-linecap="round" stroke-linejoin="round"/>
<path d="M177.992 666.833C251.293 666.833 310.716 587.156 310.716 488.869C310.716 390.582 251.293 310.905 177.992 310.905C104.69 310.905 45.2676 390.582 45.2676 488.869C45.2676 587.156 104.69 666.833 177.992 666.833Z" stroke="#9CE8C2" stroke-width="1.5" stroke-linecap="round" stroke-linejoin="round"/>
<path d="M177.992 310.905C213.993 310.905 243.214 390.651 243.214 488.869C243.214 587.087 213.993 666.833 177.992 666.833C141.991 666.833 112.77 587.087 112.77 488.869C112.77 390.651 142.006 310.905 177.992 310.905Z" stroke="#9CE8C2" stroke-width="1.5" stroke-linecap="round" stroke-linejoin="round"/>
<path fill-rule="evenodd" clip-rule="evenodd" d="M598.354 789.147L565.58 810.001H627.472L627.768 789.147H598.354Z" fill="#FF341A"/>
<path fill-rule="evenodd" clip-rule="evenodd" d="M791.609 792.507L824.383 813.361H762.506L762.195 792.507H791.609Z" fill="#FF341A"/>
<path fill-rule="evenodd" clip-rule="evenodd" d="M754.186 576.253C747.45 578.34 734.942 581.655 732.455 591.053C729.968 600.452 725.69 613.876 725.69 613.876C725.69 613.876 721.249 606.476 719.325 602.864C717.4 599.253 706.594 600.866 708.311 610.428C710.028 619.989 714.158 637.217 716.675 642.782C719.191 648.347 736.037 653.394 740.019 642.516V647.43H785.109C785.109 647.43 780.21 626.708 780.21 616.126C780.21 605.543 790.024 588.671 799.454 577.392C808.883 566.114 827.713 544.091 820.548 537.8C813.383 531.51 803.598 534.13 798.565 539.428C793.532 544.727 760.877 574.151 754.186 576.253Z" fill="#4FB3F6"/>
<path d="M806.115 546.148L783.955 565.182" stroke="#163BF3" stroke-width="0.83" stroke-linecap="round" stroke-linejoin="round"/>
<path fill-rule="evenodd" clip-rule="evenodd" d="M761.692 572.627H733.773C733.773 572.627 739.354 537.815 761.692 537.815C784.03 537.815 789.981 572.464 789.981 572.464L761.692 572.627Z" fill="black"/>
<path fill-rule="evenodd" clip-rule="evenodd" d="M772.809 561.526C773.655 563.388 774.021 565.433 773.873 567.473C773.725 569.513 773.069 571.483 771.963 573.204C770.857 574.925 769.338 576.341 767.544 577.324C765.75 578.306 763.738 578.823 761.692 578.828C758.451 578.824 755.343 577.535 753.051 575.243C750.758 572.951 749.469 569.844 749.465 566.603C749.459 564.851 749.833 563.119 750.56 561.526H772.809Z" fill="#DFA98B"/>
<path d="M725.691 613.891L733.774 627.656" stroke="#163BF3" stroke-width="0.83" stroke-linecap="round" stroke-linejoin="round"/>
<path d="M740.02 642.531V601.68" stroke="#163BF3" stroke-width="0.83" stroke-linecap="round" stroke-linejoin="round"/>
<path fill-rule="evenodd" clip-rule="evenodd" d="M717.12 601.458C717.12 601.458 700.111 599.046 695.404 598.291C690.696 597.536 689.601 599.771 694.293 602.539C698.986 605.307 701.488 612.574 705.218 612.278C708.948 611.982 714.559 611.271 714.559 611.271L717.12 601.458Z" fill="#DFA98B"/>
<path fill-rule="evenodd" clip-rule="evenodd" d="M740.02 647.444C740.02 647.444 722.168 675.566 725.691 699.913H795.028C795.028 699.913 798.27 669.823 785.11 647.444H740.02Z" fill="#FF341A"/>
<path fill-rule="evenodd" clip-rule="evenodd" d="M725.691 699.913L750.664 813.361H769.834L795.044 699.913H725.691Z" fill="#DFA98B"/>
<path d="M760.359 699.913V808.935" stroke="black" stroke-width="0.82" stroke-linecap="round" stroke-linejoin="round"/>
<path d="M760.359 699.913V677.638" stroke="#DFA98B" stroke-width="0.83" stroke-linecap="round" stroke-linejoin="round"/>
<path d="M741.277 748.045H746.251" stroke="black" stroke-width="0.83" stroke-linecap="round" stroke-linejoin="round"/>
<path d="M771.787 748.045H776.761" stroke="black" stroke-width="0.83" stroke-linecap="round" stroke-linejoin="round"/>
<path fill-rule="evenodd" clip-rule="evenodd" d="M760.36 813.361H739.961L748.71 804.495H771.802L783.275 813.361H760.36Z" fill="#FF341A"/>
<path fill-rule="evenodd" clip-rule="evenodd" d="M134.648 752.885L137.491 800.499H170.191V755.683L134.648 752.885Z" fill="#FF341A"/>
<path fill-rule="evenodd" clip-rule="evenodd" d="M144.892 683.262C137.979 684.313 124.05 688.073 115.819 689.745C107.589 691.418 103.651 698.241 104.954 703.836C106.256 709.43 111.437 714.196 119.594 714.196H133.864V738.232C133.864 738.232 123.413 737.211 123.99 742.91C124.568 748.608 126.181 750.058 132.872 752.249C139.563 754.439 152.871 757.947 160.998 757.947C169.125 757.947 183.203 750.547 183.203 736.057V712.908C183.203 707.506 177.03 694.111 166.549 694.111H155.684C155.684 694.111 151.805 682.212 144.892 683.262Z" fill="#FFC7BF"/>
<path fill-rule="evenodd" clip-rule="evenodd" d="M557.423 514.918C545.374 514.918 522.695 524.583 514.643 540.08C506.59 555.576 482.535 606.831 479.855 614.084C477.176 621.336 485.421 629.965 493.474 617.991C501.527 606.017 526.811 558.669 526.811 558.669L522.695 626.516H580.872C580.872 626.516 580.872 652.299 589.931 652.299C598.99 652.299 600.042 633.739 600.042 625.658V539.813C600.042 528.461 599.257 514.874 574.876 514.874L557.423 514.918Z" fill="#FBBE2E"/>
<path d="M580.873 626.472V546.858" stroke="#FF341A" stroke-width="0.83" stroke-linecap="round" stroke-linejoin="round"/>
<path fill-rule="evenodd" clip-rule="evenodd" d="M522.696 626.472L482.891 691.403L513.637 710.052L546.44 659.181V714.921H580.872V626.472H522.696Z" fill="#163BF3"/>
<path fill-rule="evenodd" clip-rule="evenodd" d="M513.638 710.052L464.417 786.438L445.588 770.143L485.971 693.268L513.638 710.052Z" fill="#DFA98B"/>
<path fill-rule="evenodd" clip-rule="evenodd" d="M550.082 714.921V795.925H570.214L577.734 714.921H550.082Z" fill="#DFA98B"/>
<path fill-rule="evenodd" clip-rule="evenodd" d="M550.083 795.926C550.083 795.926 546.723 807.115 546.723 813.361H593.604C589.738 810.476 585.435 808.227 580.859 806.701C573.798 804.495 570.052 799.182 570.2 795.926H550.083Z" fill="#163BF3"/>
<path d="M556.359 653.32L546.441 659.182L537.322 651.559" stroke="black" stroke-width="0.83" stroke-linecap="round" stroke-linejoin="round"/>
<path fill-rule="evenodd" clip-rule="evenodd" d="M557.425 485.125C560.375 485.122 563.259 485.994 565.712 487.63C568.166 489.267 570.079 491.594 571.209 494.318C572.339 497.042 572.636 500.04 572.061 502.933C571.486 505.825 570.066 508.483 567.981 510.568C565.895 512.653 563.237 514.073 560.344 514.648C557.451 515.222 554.453 514.926 551.729 513.796C549.004 512.666 546.676 510.753 545.039 508.3C543.402 505.847 542.53 502.963 542.533 500.014C542.537 496.066 544.107 492.281 546.899 489.49C549.691 486.698 553.477 485.128 557.425 485.125Z" fill="#DFA98B"/>
<path d="M526.811 558.625V541.5" stroke="#FF341A" stroke-width="0.83" stroke-linecap="round" stroke-linejoin="round"/>
<path d="M155.888 694.095C161.881 694.037 166.691 689.132 166.632 683.141C166.574 677.149 161.669 672.34 155.676 672.398C149.684 672.457 144.874 677.361 144.932 683.353C144.991 689.344 149.896 694.154 155.888 694.095Z" fill="#DFA98B"/>
<path d="M133.863 738.306H163.381" stroke="#FF341A" stroke-width="0.83" stroke-linecap="round" stroke-linejoin="round"/>
<path d="M160.924 738.306V706.514" stroke="#FF341A" stroke-width="0.83" stroke-linecap="round" stroke-linejoin="round"/>
<path d="M133.863 714.27V706.514" stroke="#FF341A" stroke-width="0.83" stroke-linecap="round" stroke-linejoin="round"/>
<path d="M153.331 694.111L115.953 699.04" stroke="#FF341A" stroke-width="0.83" stroke-linecap="round" stroke-linejoin="round"/>
<path d="M155.447 800.499L145.811 767.938" stroke="black" stroke-width="0.83" stroke-linecap="round" stroke-linejoin="round"/>
<path fill-rule="evenodd" clip-rule="evenodd" d="M137.477 800.499C134.516 802.556 123.799 809.054 123.799 811.822H155.433V800.499C155.433 800.499 142.939 800.469 137.477 800.499Z" fill="#163BF3"/>
<path fill-rule="evenodd" clip-rule="evenodd" d="M155.432 800.484H170.235C170.235 802.675 173.98 808.403 173.98 811.822H155.432V800.484Z" fill="#163BF3"/>
<path fill-rule="evenodd" clip-rule="evenodd" d="M442.346 813.361H501.099L470.546 793.099L442.346 813.361Z" fill="#163BF3"/>
<path fill-rule="evenodd" clip-rule="evenodd" d="M347.028 368.879C350.167 368.879 353.236 369.809 355.847 371.552C358.457 373.294 360.493 375.771 361.697 378.67C362.901 381.568 363.219 384.758 362.611 387.837C362.003 390.916 360.496 393.746 358.281 395.969C356.065 398.193 353.24 399.71 350.163 400.329C347.086 400.949 343.894 400.643 340.991 399.45C338.087 398.257 335.603 396.231 333.85 393.627C332.098 391.023 331.156 387.958 331.145 384.82C331.139 382.73 331.545 380.659 332.341 378.726C333.136 376.794 334.305 375.037 335.78 373.556C337.256 372.076 339.008 370.9 340.938 370.098C342.869 369.295 344.938 368.881 347.028 368.879Z" fill="#DFA98B"/>
<path fill-rule="evenodd" clip-rule="evenodd" d="M349.929 399.177C334.134 402.551 316.666 405.94 309.605 408.19C302.544 410.44 291.842 411.298 287.06 429.059C282.279 446.82 273.856 477.828 272.376 489.905C270.895 501.983 275.765 524.021 307.622 509.916V535.861L411.672 548.265L398.35 488.78C398.35 488.78 407.098 487.078 413.02 485.391C418.941 483.704 432.767 478.908 427.112 457.773C421.457 436.637 414.426 411.816 412.176 404.194C409.926 396.572 405.411 386.433 387.647 390.385C369.883 394.337 365.724 395.787 349.929 399.177Z" fill="#163BF3"/>
<path fill-rule="evenodd" clip-rule="evenodd" d="M339.553 401.352C339.553 401.352 332.152 419.024 340.308 418.491C348.465 417.959 350.345 404.593 350.345 404.593C350.345 404.593 363.579 415.413 367.013 411.639C370.447 407.864 359.36 397.075 359.36 397.075L339.553 401.352Z" fill="#4FB3F6"/>
<path d="M398.424 488.825L315.246 506.186" stroke="black" stroke-width="0.83" stroke-linecap="round" stroke-linejoin="round"/>
<path d="M315.245 442.839L307.637 481.72" stroke="black" stroke-width="0.83" stroke-linecap="round" stroke-linejoin="round"/>
<path fill-rule="evenodd" clip-rule="evenodd" d="M312.893 480.004C312.893 480.004 299.333 475.045 294.804 478.287C293.488 479.26 292.441 480.552 291.76 482.04C291.079 483.529 290.787 485.165 290.91 486.797L312.893 480.004Z" fill="#DFA98B"/>
<path fill-rule="evenodd" clip-rule="evenodd" d="M369.499 462.524L373.407 469.465L387.219 460.733C387.219 460.733 376.457 457.284 369.455 462.524" fill="#DFA98B"/>
<path d="M307.637 509.96L400.644 452.711" stroke="black" stroke-width="0.83" stroke-linecap="round" stroke-linejoin="round"/>
<path d="M369.5 462.524L284.367 488.825" stroke="black" stroke-width="0.83" stroke-linecap="round" stroke-linejoin="round"/>
<path d="M381.445 424.086L393.006 457.402" stroke="black" stroke-width="0.83" stroke-linecap="round" stroke-linejoin="round"/>
<path fill-rule="evenodd" clip-rule="evenodd" d="M311.441 536.365V808.521H359.966L363.489 592.667L442.345 813.361L470.545 793.099L411.688 548.309L311.441 536.365Z" fill="#FBBE2E"/>
<path d="M337.762 579.287H382.867" stroke="#163BF3" stroke-width="0.83" stroke-linecap="round" stroke-linejoin="round"/>
<path fill-rule="evenodd" clip-rule="evenodd" d="M294.655 639.896C294.655 639.896 276.255 606.328 310.006 596.234C321.004 586.48 328.776 590.639 331.84 595.509C334.904 600.378 352.105 632.51 339.36 639.718C326.615 646.926 294.655 639.896 294.655 639.896Z" fill="black"/>
<path fill-rule="evenodd" clip-rule="evenodd" d="M316.43 626.561C307.682 626.561 287.416 626.427 282.383 641.509C276.181 659.833 263.139 715.365 260.386 725.518C257.633 735.672 271.103 738.484 274.493 727.206H352.313L342.158 651.944C342.158 651.944 399.683 642.072 410.963 639.807C422.243 637.543 421.68 627.404 407.573 627.404C393.466 627.404 325.164 626.561 316.43 626.561Z" fill="#9CE8C2"/>
<path d="M274.42 727.205L294.656 652.388" stroke="#24A865" stroke-width="0.83" stroke-linecap="round" stroke-linejoin="round"/>
<path d="M342.143 652.388L341.299 646.142" stroke="#24A865" stroke-width="0.83" stroke-linecap="round" stroke-linejoin="round"/>
<path d="M316.269 626.013C324.068 626.013 330.391 619.691 330.391 611.893C330.391 604.095 324.068 597.773 316.269 597.773C308.469 597.773 302.146 604.095 302.146 611.893C302.146 619.691 308.469 626.013 316.269 626.013Z" fill="#FFC7BF"/>
<path fill-rule="evenodd" clip-rule="evenodd" d="M299.852 609.643H332.418C332.418 609.643 325.017 594.739 318.785 594.739C312.553 594.739 301.82 600.511 299.852 609.643Z" fill="black"/>
<path fill-rule="evenodd" clip-rule="evenodd" d="M274.419 727.206L256.004 813.361H369.07L352.239 727.206H274.419Z" fill="#24A865"/>
<path fill-rule="evenodd" clip-rule="evenodd" d="M500.418 793.72C500.995 798.56 510.144 804.939 517.264 807.855C524.384 810.771 528.869 810.031 528.292 813.361H488.649L481.914 793.72C481.914 793.72 494.882 792.951 500.418 793.72Z" fill="#FF341A"/>
<path fill-rule="evenodd" clip-rule="evenodd" d="M397.315 701.823L383.252 793.72H401.756L428.342 742.051H462.582L480.878 794.786H505.126L488.975 707.92L397.315 701.823Z" fill="#163BF3"/>
<path fill-rule="evenodd" clip-rule="evenodd" d="M383.252 793.72C382.66 798.56 373.511 804.939 366.391 807.855C359.271 810.771 354.771 810.031 355.363 813.361H395.005L401.755 793.72C401.755 793.72 388.758 792.951 383.252 793.72Z" fill="#FF341A"/>
<path d="M428.34 742.051H417.342" stroke="black" stroke-width="0.83" stroke-linecap="round" stroke-linejoin="round"/>
<path d="M473.757 742.051H462.773" stroke="black" stroke-width="0.83" stroke-linecap="round" stroke-linejoin="round"/>
<path fill-rule="evenodd" clip-rule="evenodd" d="M444.18 560.312C448.001 560.315 451.734 561.45 454.909 563.575C458.084 565.699 460.558 568.716 462.017 572.246C463.477 575.776 463.858 579.659 463.111 583.404C462.364 587.15 460.523 590.59 457.82 593.29C455.118 595.99 451.676 597.828 447.929 598.572C444.182 599.316 440.299 598.933 436.77 597.471C433.241 596.008 430.224 593.533 428.102 590.357C425.98 587.181 424.848 583.447 424.848 579.627C424.848 577.09 425.348 574.577 426.32 572.232C427.291 569.888 428.716 567.758 430.511 565.964C432.306 564.171 434.438 562.748 436.783 561.778C439.129 560.808 441.642 560.31 444.18 560.312Z" fill="#FFC7BF"/>
<path fill-rule="evenodd" clip-rule="evenodd" d="M452.235 597.359H408.773C401.12 597.359 385.591 604.448 381.121 617.414C376.65 630.379 367.709 656.547 364.956 665.694C362.203 674.841 367.502 689.508 386.864 689.508C396.25 699.721 400.898 716.312 449.6 716.312C498.302 716.312 501.307 692.631 501.307 692.631C501.307 692.631 528.1 692.409 524.059 671.999C520.018 651.589 512.217 627.597 509.804 619.471C507.391 611.346 500.656 597.27 481.308 597.27L452.235 597.359Z" fill="#FF341A"/>
<path d="M386.864 689.508C379.7 679 377.375 643.626 403.384 625.288" stroke="black" stroke-width="0.83" stroke-linecap="round" stroke-linejoin="round"/>
<path d="M501.306 692.676C505.258 678.6 509.151 644.47 486.266 625.258" stroke="black" stroke-width="0.83" stroke-linecap="round" stroke-linejoin="round"/>
<path fill-rule="evenodd" clip-rule="evenodd" d="M221.587 545.571C223.842 545.568 226.047 546.234 227.923 547.484C229.8 548.735 231.263 550.514 232.128 552.596C232.993 554.678 233.221 556.97 232.783 559.182C232.345 561.393 231.26 563.425 229.667 565.021C228.073 566.616 226.042 567.703 223.831 568.144C221.619 568.585 219.327 568.36 217.243 567.498C215.159 566.636 213.378 565.175 212.125 563.301C210.872 561.426 210.203 559.222 210.203 556.967C210.203 553.947 211.402 551.051 213.536 548.914C215.671 546.777 218.566 545.575 221.587 545.571Z" fill="#FFC7BF"/>
<path fill-rule="evenodd" clip-rule="evenodd" d="M899.76 519.788C897.505 519.788 895.302 520.456 893.427 521.708C891.553 522.961 890.092 524.741 889.229 526.823C888.366 528.906 888.141 531.197 888.58 533.408C889.02 535.618 890.106 537.649 891.7 539.243C893.294 540.837 895.325 541.922 897.536 542.362C899.747 542.802 902.039 542.576 904.122 541.713C906.204 540.851 907.985 539.39 909.237 537.516C910.49 535.642 911.158 533.438 911.158 531.184C911.158 529.688 910.863 528.206 910.291 526.823C909.718 525.44 908.878 524.184 907.82 523.126C906.761 522.068 905.505 521.228 904.122 520.655C902.739 520.083 901.257 519.788 899.76 519.788Z" fill="#FFC7BF"/>
<path fill-rule="evenodd" clip-rule="evenodd" d="M230.691 563.539C212.276 572.789 156.913 601.34 146.255 608.074C135.597 614.809 143.294 621.232 156.617 616.096C169.94 610.961 201.603 599.09 201.603 599.09V629.565H255.575V578.562C255.575 578.562 286.662 549.478 296.121 542.744C305.58 536.01 303.212 527.351 290.895 533.123C278.579 538.896 249.092 554.274 230.691 563.539Z" fill="#24A865"/>
<path fill-rule="evenodd" clip-rule="evenodd" d="M787.597 493.975C779.367 489.209 763.172 479.988 765.393 475.741C766.37 473.831 769.982 475.667 772.291 476.999C776.436 479.382 779.307 477.635 783.452 479.737C787.049 481.557 785.806 487.004 790.217 489.535C788.5 492.421 788.426 492.865 787.597 493.975Z" fill="#FFC7BF"/>
<path fill-rule="evenodd" clip-rule="evenodd" d="M972.279 534.603C972.279 525.086 972.398 506.482 967.631 506.215C965.5 506.097 965.278 510.138 965.278 512.817C965.278 517.597 962.317 519.196 962.065 523.843C961.843 527.869 967.172 529.527 967.172 534.603C970.488 534.603 970.858 534.737 972.279 534.603Z" fill="#FFC7BF"/>
<path fill-rule="evenodd" clip-rule="evenodd" d="M890.671 537.741C909.086 547.007 964.465 575.557 975.123 582.292C985.781 589.026 978.009 595.435 964.761 590.299C951.512 585.163 923.357 577.23 923.357 577.23V618.405L860.902 639.127L860.133 548.842L792.349 500.443C782.935 493.709 785.259 485.051 797.575 490.823C809.891 496.595 872.271 528.491 890.671 537.741Z" fill="#24A865"/>
<path fill-rule="evenodd" clip-rule="evenodd" d="M201.633 629.565C201.633 629.565 193.269 672.872 196.999 703.347C200.73 733.822 217.827 800.529 217.827 800.529L230.04 813.361V798.93L236.183 793.794C236.183 793.794 258.388 730.284 258.388 703.021C258.388 675.758 255.664 629.565 255.664 629.565H201.633Z" fill="#4FB3F6"/>
<path d="M230.039 798.93V653.172" stroke="#163BF3" stroke-width="0.83" stroke-linecap="round" stroke-linejoin="round"/>
<path d="M201.633 599.09V590.758" stroke="black" stroke-width="0.83" stroke-linecap="round" stroke-linejoin="round"/>
<path fill-rule="evenodd" clip-rule="evenodd" d="M217.828 800.529C212.706 802.349 199.043 810.327 199.043 813.361H230.041C230.041 813.361 222.95 798.723 217.828 800.529Z" fill="#163BF3"/>
<path fill-rule="evenodd" clip-rule="evenodd" d="M236.182 793.794C237.544 796.429 246.87 806.656 247.003 813.361H230.039V798.93C230.039 798.93 234.835 791.16 236.182 793.794Z" fill="#163BF3"/>
<path d="M255.605 578.561V568.364" stroke="black" stroke-width="0.83" stroke-linecap="round" stroke-linejoin="round"/>
<path fill-rule="evenodd" clip-rule="evenodd" d="M510.276 305.665C510.276 305.665 503.852 333.106 503.852 340.595C503.852 348.084 511.742 358.06 527.403 361.316C541.481 347.241 541.644 309.632 541.644 309.632L510.276 305.665Z" fill="white"/>
<path fill-rule="evenodd" clip-rule="evenodd" d="M556.121 289.917H447.082V294.861L533.991 318.764L523.407 377.523H569.577L586.201 315.848L646.968 294.861V289.754H575.795L556.121 289.917Z" fill="#163BF3"/>
<path fill-rule="evenodd" clip-rule="evenodd" d="M565.892 270.587C568.293 270.587 570.64 271.299 572.636 272.633C574.632 273.966 576.188 275.862 577.107 278.08C578.026 280.297 578.266 282.737 577.798 285.092C577.329 287.446 576.173 289.609 574.476 291.306C572.778 293.003 570.615 294.159 568.26 294.627C565.906 295.096 563.465 294.855 561.247 293.937C559.029 293.018 557.133 291.463 555.8 289.467C554.466 287.471 553.754 285.124 553.754 282.724C553.754 279.505 555.033 276.418 557.309 274.142C559.586 271.866 562.673 270.587 565.892 270.587Z" fill="#FFC7BF"/>
<path fill-rule="evenodd" clip-rule="evenodd" d="M523.407 377.523L432.25 430.524L440.806 444.215L547.018 404.875L596.564 442.202L577.542 498.874L592.464 504.38C592.464 504.38 613.854 458.749 619.257 449.617C624.66 440.485 623.891 432.182 612.847 421.111C601.804 410.04 569.652 377.523 569.652 377.523H523.407Z" fill="#FF341A"/>
<path fill-rule="evenodd" clip-rule="evenodd" d="M440.806 444.215C440.806 444.215 431.14 451.897 424.523 448.833C422.51 441.951 415.049 414.791 415.049 414.791C415.049 414.791 416.529 412.897 418.128 415.665C419.727 418.432 429.186 428.719 432.191 430.465C434.678 434.077 440.806 444.215 440.806 444.215Z" fill="black"/>
<path fill-rule="evenodd" clip-rule="evenodd" d="M581.76 500.384C581.76 500.384 575.558 512.106 574.98 515.614H612.787C612.787 515.614 611.766 513.557 607.236 511.085C602.707 508.613 593.129 506.142 592.596 504.38C589.784 503.226 581.76 500.384 581.76 500.384Z" fill="black"/>
<path fill-rule="evenodd" clip-rule="evenodd" d="M539.394 289.917C544.679 289.917 547.018 303.001 547.018 308.122C547.018 325.883 529.58 343.259 529.58 343.259L528.277 350.452C528.277 350.452 552.14 330.708 553.013 308.196C553.472 296.208 549.165 289.976 547.018 289.917H539.394Z" fill="white"/>
<path fill-rule="evenodd" clip-rule="evenodd" d="M578.637 289.917C583.921 289.917 586.26 303.001 586.26 308.122C586.461 310.694 586.461 313.277 586.26 315.848C583.759 326.653 582.337 330.131 580.739 336.303C586.438 328.71 591.9 318.764 592.315 308.182C592.774 296.193 588.451 289.962 586.394 289.903L578.637 289.917Z" fill="white"/>
<path d="M547.018 404.875L560.459 399.887" stroke="black" stroke-width="0.83" stroke-linecap="round" stroke-linejoin="round"/>
<path fill-rule="evenodd" clip-rule="evenodd" d="M447.052 289.755C437.534 289.755 418.926 289.636 418.645 294.402C418.527 296.548 422.583 296.755 425.262 296.755C430.029 296.755 431.642 299.716 436.29 299.967C440.317 300.189 441.96 294.861 447.052 294.861C447.052 291.575 447.2 291.19 447.052 289.755Z" fill="#FFC7BF"/>
<path fill-rule="evenodd" clip-rule="evenodd" d="M647.028 289.755C656.532 289.755 675.154 289.636 675.42 294.402C675.539 296.548 671.497 296.755 668.818 296.755C664.037 296.755 662.438 299.716 657.79 299.967C653.763 300.189 652.105 294.861 647.028 294.861C647.028 291.575 646.895 291.19 647.028 289.755Z" fill="#FFC7BF"/>
<path fill-rule="evenodd" clip-rule="evenodd" d="M602.041 630.853H645.414L736.423 797.465L721.502 803.385C721.502 803.385 631.721 678.659 618.561 663.148C605.401 647.637 602.041 643.833 602.041 630.853Z" fill="#4FB3F6"/>
<path fill-rule="evenodd" clip-rule="evenodd" d="M652.652 708.557L623.135 789.709L637.346 796.281L675.301 739.594L652.652 708.557Z" fill="#4FB3F6"/>
<path fill-rule="evenodd" clip-rule="evenodd" d="M623.209 789.709C623.209 789.709 615.067 806.878 615.629 813.391H656.515C656.515 813.391 641.342 803.03 639.433 801.358C637.523 799.685 636.472 798.886 637.345 796.296C633.704 793.883 623.209 789.709 623.209 789.709Z" fill="#FFC7BF"/>
<path fill-rule="evenodd" clip-rule="evenodd" d="M721.502 803.429L728.119 813.361H765.127C764.458 811.967 763.474 810.747 762.254 809.797C761.034 808.846 759.611 808.192 758.095 807.884C752.514 806.404 740.08 804.658 736.468 797.524C730.961 799.759 721.502 803.429 721.502 803.429Z" fill="#FFC7BF"/>
<path d="M644.972 549.454C646.586 544.126 643.575 538.499 638.246 536.886C632.918 535.272 627.29 538.283 625.676 543.611C624.062 548.938 627.073 554.565 632.402 556.179C637.73 557.792 643.358 554.781 644.972 549.454Z" fill="#FFC7BF"/>
<path fill-rule="evenodd" clip-rule="evenodd" d="M626.894 540.864C626.894 530.148 627.753 507.533 621.654 504.232C615.555 500.931 610.285 510.715 606.125 520.247C601.966 529.778 599.893 542.862 605.267 545.067C610.64 547.273 617.361 544.12 626.894 540.864Z" fill="#FF341A"/>
<path fill-rule="evenodd" clip-rule="evenodd" d="M629.634 554.821C629.634 554.821 632.195 550.795 633.379 549.286C634.563 547.776 633.941 543.78 635.821 543.78C637.701 543.78 643.326 540.39 643.326 540.39C642.009 538.304 633.098 530.548 626.185 540.094C621.166 547.036 627.265 553.46 629.634 554.821Z" fill="#FF341A"/>
<path fill-rule="evenodd" clip-rule="evenodd" d="M629.634 554.821C625.919 550.558 608.155 556.124 602.041 578.088C595.928 600.052 602.041 630.853 602.041 630.853H645.414C645.414 630.853 654.296 583.15 629.634 554.821Z" fill="#24A865"/>
<path fill-rule="evenodd" clip-rule="evenodd" d="M635.274 562.518C635.274 562.518 680.438 626.072 689.824 636.817C699.209 647.563 704.863 652.565 698.898 657.109C692.932 661.653 685.575 659.019 680.039 653.054C674.502 647.089 620.59 595.76 620.59 595.76C620.59 595.76 602.337 580.234 614.565 562.814C626.792 545.393 635.274 562.518 635.274 562.518Z" fill="#24A865"/>
<path d="M646.938 620.966L618.561 593.851" stroke="black" stroke-width="0.83" stroke-linecap="round" stroke-linejoin="round"/>
<path fill-rule="evenodd" clip-rule="evenodd" d="M641.047 570.599C641.047 570.599 666.656 538.555 672.03 532.694C677.403 526.833 683.162 532.561 680.823 538.615C678.484 544.668 656.516 592.179 656.516 592.179L641.047 570.599Z" fill="#24A865"/>
<path d="M641.047 570.599L656.516 592.178" stroke="black" stroke-width="0.83" stroke-linecap="round" stroke-linejoin="round"/>
<path d="M675.301 739.594L652.652 708.557" stroke="black" stroke-width="0.83" stroke-linecap="round" stroke-linejoin="round"/>
<path fill-rule="evenodd" clip-rule="evenodd" d="M963.932 581.152V538.052C963.932 530.119 972.947 529.023 974.294 537.682C975.641 546.34 980.215 588.108 980.215 588.108C980.215 588.108 964.479 597.358 963.932 581.152Z" fill="#24A865"/>
<path fill-rule="evenodd" clip-rule="evenodd" d="M923.356 618.391V693.608H895.541L890.849 660.218L874.344 697.442H839.408L860.917 639.112L923.356 618.391Z" fill="#9CE8C2"/>
<path fill-rule="evenodd" clip-rule="evenodd" d="M897.807 693.608C898.991 704.857 909.398 805.457 909.398 805.457H917.791L920.944 693.608C920.944 693.608 904.883 693.564 897.807 693.608Z" fill="#FFC7BF"/>
<path fill-rule="evenodd" clip-rule="evenodd" d="M870.301 697.441L818.224 800.351H805.449L842.783 697.441H870.301Z" fill="#FFC7BF"/>
<path fill-rule="evenodd" clip-rule="evenodd" d="M909.397 805.458C909.397 805.458 905.726 810.075 906.052 813.361H925.725L917.791 805.458H909.397Z" fill="#FF341A"/>
<path fill-rule="evenodd" clip-rule="evenodd" d="M805.449 800.351C805.449 800.351 779.129 810.623 779.129 813.361H817.262L818.224 800.351H805.449Z" fill="#FF341A"/>
<path d="M860.133 548.768V536.409" stroke="black" stroke-width="0.83" stroke-linecap="round" stroke-linejoin="round"/>
<path d="M923.356 577.215L910.521 573.485" stroke="black" stroke-width="0.83" stroke-linecap="round" stroke-linejoin="round"/>
<path d="M963.932 575.912V581.907" stroke="black" stroke-width="0.83" stroke-linecap="round" stroke-linejoin="round"/>
<path d="M890.848 660.218L888.643 644.529" stroke="#24A865" stroke-width="0.83" stroke-linecap="round" stroke-linejoin="round"/>
<path fill-rule="evenodd" clip-rule="evenodd" d="M1035.4 71.3989L1044.67 261.13L882.633 184.314L1035.4 71.3989Z" fill="#FFF3D6"/>
<path fill-rule="evenodd" clip-rule="evenodd" d="M992.62 669.305C995.143 669.305 997.61 670.053 999.709 671.455C1001.81 672.857 1003.44 674.85 1004.41 677.181C1005.37 679.512 1005.63 682.078 1005.13 684.552C1004.64 687.027 1003.43 689.301 1001.64 691.085C999.858 692.869 997.584 694.084 995.109 694.576C992.634 695.069 990.068 694.816 987.737 693.851C985.405 692.885 983.412 691.25 982.01 689.152C980.608 687.053 979.859 684.587 979.859 682.063C979.859 678.68 981.204 675.435 983.597 673.042C985.99 670.649 989.235 669.305 992.62 669.305Z" fill="#DFA98B"/>
<path fill-rule="evenodd" clip-rule="evenodd" d="M993.463 694.822C976.425 694.822 958.04 695.547 952.977 708.379C947.914 721.212 956.145 733.881 962.155 745.929V763.038H993.463C993.463 763.038 1010.52 694.822 993.463 694.822Z" fill="#FFC7BF"/>
<path fill-rule="evenodd" clip-rule="evenodd" d="M991.805 694.822C1008.86 694.822 1027.23 695.547 1032.31 708.379C1037.38 721.212 1029.14 733.881 1023.11 745.929V763.038H991.805C991.805 763.038 974.722 694.822 991.805 694.822Z" fill="#FFC7BF"/>
<path d="M962.154 745.929V717.57" stroke="#FF341A" stroke-width="0.83" stroke-linecap="round" stroke-linejoin="round"/>
<path d="M1022.85 745.929V717.57" stroke="#FF341A" stroke-width="0.83" stroke-linecap="round" stroke-linejoin="round"/>
<path fill-rule="evenodd" clip-rule="evenodd" d="M962.17 763.039V785.21H990.118L992.427 777.129L994.648 785.373H1022.85V763.039H962.17Z" fill="#FF341A"/>
<path fill-rule="evenodd" clip-rule="evenodd" d="M987.113 785.373V809.972L969.423 805.901L967.307 785.21L987.113 785.373Z" fill="#DFA98B"/>
<path fill-rule="evenodd" clip-rule="evenodd" d="M998.244 785.373V809.972L1015.93 805.901L1018.05 785.21L998.244 785.373Z" fill="#DFA98B"/>
<path fill-rule="evenodd" clip-rule="evenodd" d="M969.423 805.901L952.977 813.361H987.112V809.972L969.423 805.901Z" fill="#FF341A"/>
<path fill-rule="evenodd" clip-rule="evenodd" d="M1015.93 805.901L1032.38 813.361H998.244V809.972L1015.93 805.901Z" fill="#FF341A"/>
<path fill-rule="evenodd" clip-rule="evenodd" d="M379.728 255.816C371.963 255.882 364.535 258.995 359.044 264.485C353.553 269.975 350.439 277.402 350.374 285.166V285.359C350.374 277.508 347.254 269.979 341.702 264.427C336.15 258.876 328.62 255.757 320.768 255.757C328.62 255.757 336.15 252.638 341.702 247.087C347.254 241.536 350.374 234.006 350.374 226.156V226.452C350.44 234.259 353.589 241.723 359.134 247.221C364.679 252.718 372.171 255.802 379.98 255.801L379.728 255.816Z" fill="#FBBE2E"/>
<path fill-rule="evenodd" clip-rule="evenodd" d="M753.55 262.625C745.785 262.69 738.357 265.804 732.866 271.294C727.375 276.784 724.262 284.211 724.196 291.975V292.167C724.196 284.316 721.077 276.787 715.525 271.235C709.972 265.684 702.442 262.565 694.59 262.565C702.442 262.565 709.972 259.447 715.525 253.895C721.077 248.344 724.196 240.815 724.196 232.964V233.156C724.258 240.966 727.405 248.435 732.951 253.935C738.496 259.435 745.991 262.521 753.802 262.521L753.55 262.625Z" fill="#FBBE2E"/>
<path fill-rule="evenodd" clip-rule="evenodd" d="M438.644 142.665C435.052 142.692 431.615 144.13 429.075 146.67C426.535 149.209 425.097 152.646 425.069 156.237V156.326C425.069 152.702 423.63 149.228 421.068 146.666C418.505 144.104 415.03 142.665 411.406 142.665C415.03 142.665 418.505 141.225 421.068 138.663C423.63 136.101 425.069 132.627 425.069 129.003V129.092C425.101 132.698 426.553 136.145 429.111 138.686C431.669 141.227 435.127 142.657 438.733 142.665H438.644Z" fill="#FBBE2E"/>
<path fill-rule="evenodd" clip-rule="evenodd" d="M653.066 160.81C649.475 160.837 646.04 162.277 643.502 164.816C640.965 167.356 639.529 170.793 639.506 174.383V174.471C639.502 170.847 638.059 167.372 635.495 164.811C632.93 162.249 629.453 160.81 625.828 160.81C629.451 160.806 632.924 159.366 635.485 156.805C638.047 154.244 639.487 150.771 639.491 147.149V147.238C639.515 150.846 640.965 154.298 643.524 156.84C646.084 159.383 649.546 160.81 653.155 160.81H653.066Z" fill="#FBBE2E"/>
<path fill-rule="evenodd" clip-rule="evenodd" d="M793.193 138.121C789.6 138.144 786.161 139.582 783.62 142.122C781.079 144.662 779.642 148.101 779.618 151.693V151.782C779.614 148.16 778.174 144.687 775.612 142.126C773.051 139.565 769.578 138.125 765.955 138.121C767.749 138.121 769.526 137.767 771.184 137.081C772.841 136.394 774.348 135.388 775.616 134.12C776.885 132.851 777.892 131.345 778.578 129.688C779.265 128.03 779.618 126.254 779.618 124.46V124.549C779.642 128.156 781.092 131.608 783.651 134.151C786.211 136.694 789.673 138.121 793.282 138.121H793.193Z" fill="#FBBE2E"/>
<path fill-rule="evenodd" clip-rule="evenodd" d="M317.822 127.908C314.228 127.939 310.792 129.381 308.252 131.923C305.713 134.465 304.274 137.903 304.247 141.495V141.569C304.247 137.946 302.808 134.471 300.245 131.909C297.683 129.347 294.208 127.908 290.584 127.908C292.378 127.91 294.154 127.558 295.812 126.874C297.469 126.189 298.975 125.184 300.244 123.916C301.513 122.649 302.52 121.144 303.207 119.487C303.894 117.831 304.247 116.055 304.247 114.262C304.275 117.868 305.726 121.318 308.285 123.86C310.844 126.402 314.303 127.83 317.91 127.834L317.822 127.908Z" fill="#FBBE2E"/>
</g>
<defs>
<clipPath id="clip0_463:21992">
<rect width="1064" height="819" fill="white"/>
</clipPath>
</defs>
</svg>
