<svg width="1228" height="735" viewBox="0 0 1228 735" fill="none" xmlns="http://www.w3.org/2000/svg">
<circle cx="865.172" cy="362.527" r="362.527" fill="#FEDD8E"/>
<path fill-rule="evenodd" clip-rule="evenodd" d="M252.93 328.383C241.841 325.493 209.074 326.481 196.173 338.392C183.271 350.302 164.919 366.217 155.956 375.162C146.992 384.108 140.066 403.488 149.005 420.378C157.944 437.268 211.512 538.134 211.512 538.134L327.188 570.926L394.096 553.698L420.349 415.298L411.086 341.382C411.086 341.382 264.006 331.273 252.93 328.383Z" fill="#9CE8C2"/>
<path fill-rule="evenodd" clip-rule="evenodd" d="M160.682 370.621C160.682 370.621 181.247 394.117 189.973 383.132C198.699 372.147 197.711 340.018 197.711 340.018L160.682 370.621Z" fill="#24A865"/>
<path fill-rule="evenodd" clip-rule="evenodd" d="M642.049 264.988L668.364 219.034L704.419 232.659L657.313 315.759L642.049 264.988Z" fill="black"/>
<path fill-rule="evenodd" clip-rule="evenodd" d="M668.366 220.974C664.79 217.095 659.877 207.036 662.677 195.438C664.582 187.987 667.172 180.729 670.416 173.756C671.453 170.954 678.554 165.349 682.667 164.998C686.78 164.648 687.143 164.06 687.143 164.06C687.143 164.06 713.858 126.526 718.896 119.57C723.934 112.614 729.735 118.081 726.56 124.812C723.384 131.543 708.62 165.561 708.62 165.561C708.62 165.561 721.884 178.836 726.122 185.579C730.36 192.323 730.61 199.229 727.81 203.333C725.01 207.437 719.209 210.84 719.209 210.84C719.209 210.84 715.846 230.858 704.357 234.611C690.318 229.281 671.953 224.865 668.366 220.974Z" fill="#5B3100"/>
<path d="M687.142 164.047C692.855 163.659 702.419 166.049 703.019 168.927C703.619 171.804 700.169 177.785 691.768 180.65C683.367 183.515 681.241 189.508 681.004 194.887" stroke="black" stroke-width="1.6" stroke-linecap="round" stroke-linejoin="round"/>
<path d="M695.794 178.861C695.794 178.861 691.194 189.858 689.393 194.875C687.593 199.892 689.043 205.885 693.694 201.581C698.344 197.277 706.97 183.878 706.97 183.878" stroke="black" stroke-width="1.6" stroke-linecap="round" stroke-linejoin="round"/>
<path d="M695.794 199.367C691.644 204.071 693.406 211.277 699.97 205.022C706.533 198.766 714.571 190.959 714.571 190.959" stroke="black" stroke-width="1.6" stroke-linecap="round" stroke-linejoin="round"/>
<path d="M700.494 204.521C698.506 207.361 699.243 215.081 705.131 210.777L722.634 197.94" stroke="black" stroke-width="1.6" stroke-linecap="round" stroke-linejoin="round"/>
<path fill-rule="evenodd" clip-rule="evenodd" d="M206.725 549.457C187.16 549.457 165.345 557.414 133.054 581.861C100.762 606.308 67.6086 620.295 49.294 634.708C30.9793 649.121 20.5406 673.568 32.267 691.472C43.9934 709.375 53.2069 721.173 88.9861 721.173H538.038L479.094 573.266C479.094 573.266 434.576 562.518 408.398 555.75C382.22 548.981 350.767 547.605 334.852 547.605C318.938 547.605 226.277 549.457 206.725 549.457Z" fill="#24A865"/>
<path fill-rule="evenodd" clip-rule="evenodd" d="M188.01 644.479C188.385 657.766 193.511 681.575 208.162 683.402C222.814 685.229 234.303 666.562 234.315 656.303C234.328 646.043 187.635 631.155 188.01 644.479Z" fill="black"/>
<path d="M705.558 210.452C704.007 212.816 706.558 219.497 719.309 210.777" stroke="black" stroke-width="1.6" stroke-linecap="round" stroke-linejoin="round"/>
<path fill-rule="evenodd" clip-rule="evenodd" d="M513.471 230.107C456.765 230.107 340.189 231.17 305.147 231.358C270.106 231.546 242.715 260.684 242.715 292.576C242.715 324.467 275.219 369.72 314.061 369.72C352.903 369.72 398.158 347.037 398.158 347.037L483.63 605.444L538.374 721.874L619.259 728.13L691.767 393.792C691.767 393.792 668.139 334.476 659.876 304.899C651.612 275.323 628.172 229.919 587.367 229.919C546.563 229.919 570.165 230.107 513.471 230.107Z" fill="#0089E3"/>
<path fill-rule="evenodd" clip-rule="evenodd" d="M576.879 672.655C576.879 672.655 582.38 503.102 583.342 473.075C584.305 443.048 610.733 394.655 648.962 394.655H783.378C820.332 394.655 894.241 416.962 924.819 492.243C955.398 567.523 968.775 605.72 977.05 633.144C985.326 660.569 986.614 700.079 961.761 714.743C936.908 729.406 576.879 721.912 576.879 721.912V672.655Z" fill="#24A865"/>
<path fill-rule="evenodd" clip-rule="evenodd" d="M685.455 394.68C685.455 394.68 669.003 421.304 680.767 452.97C690.443 446.714 701.044 439.895 701.044 439.895L720.234 455.322C720.234 455.322 770.577 432.138 779.653 394.68C770.902 390.926 769.24 394.092 769.24 394.092L685.455 394.68Z" fill="white"/>
<path fill-rule="evenodd" clip-rule="evenodd" d="M593.845 525.76L520.861 580.034L608.522 728.18L689.093 663.684L593.845 525.76Z" fill="#24A865"/>
<path fill-rule="evenodd" clip-rule="evenodd" d="M576.879 721.899H985.114V690.521C985.114 690.521 767.589 627.126 704.819 608.935C642.049 590.744 576.879 646.581 576.879 721.899Z" fill="#FFF3D6"/>
<path fill-rule="evenodd" clip-rule="evenodd" d="M576.88 721.899H168.633V690.521C168.633 690.521 386.296 627.126 448.953 608.935C511.61 590.744 576.88 646.581 576.88 721.899Z" fill="#FFF3D6"/>
<path d="M791.304 337.316H753.125V372.635H791.304V337.316Z" fill="#5B3100"/>
<path fill-rule="evenodd" clip-rule="evenodd" d="M993.291 728.18C993.291 726.521 992.633 724.93 991.46 723.756C990.288 722.583 988.698 721.924 987.04 721.924H166.745C165.087 721.924 163.497 722.583 162.325 723.756C161.153 724.93 160.494 726.521 160.494 728.18C160.494 729.839 161.153 731.43 162.325 732.603C163.497 733.776 165.087 734.436 166.745 734.436H987.028C988.686 734.436 990.276 733.776 991.448 732.603C992.62 731.43 993.279 729.839 993.279 728.18H993.291Z" fill="#8D1A00"/>
<path fill-rule="evenodd" clip-rule="evenodd" d="M685.455 382.231V411.77C685.455 425.47 697.156 442.773 710.521 442.773C723.885 442.773 769.277 394.104 769.277 394.104V364.615L685.455 382.231Z" fill="#FFC7BF"/>
<path fill-rule="evenodd" clip-rule="evenodd" d="M685.455 382.231V388.074C685.455 397.707 700.144 403.625 706.145 403.688C728.923 403.901 769.24 364.615 769.24 364.615L685.455 382.231Z" fill="#FF7968"/>
<path fill-rule="evenodd" clip-rule="evenodd" d="M777.754 222.85C810.708 241.892 816.784 293.189 791.306 337.341C765.828 381.493 718.41 401.874 685.456 382.832C652.502 363.789 646.439 312.493 671.904 268.354C697.37 224.214 744.8 203.796 777.754 222.85Z" fill="#FFC7BF"/>
<path fill-rule="evenodd" clip-rule="evenodd" d="M575.28 99.4017C603.409 115.666 610.285 156.503 590.645 190.559C571.005 224.614 532.2 239.115 504.085 222.85C475.969 206.586 469.081 165.761 488.733 131.693C508.385 97.6251 547.165 83.1496 575.28 99.4017Z" fill="#5B3100"/>
<path fill-rule="evenodd" clip-rule="evenodd" d="M127.577 282.029C147.267 269.267 175.232 277.387 189.972 300.17C204.711 322.953 200.71 351.804 181.021 364.578C161.331 377.352 133.353 369.232 118.613 346.449C103.874 323.666 107.875 294.803 127.577 282.029Z" fill="#FFC7BF"/>
<path fill-rule="evenodd" clip-rule="evenodd" d="M124.152 253.703C126.54 239.29 141.979 229.832 158.618 232.597C175.258 235.362 186.822 249.287 184.434 263.7C182.046 278.113 166.607 287.559 150.017 284.806C133.428 282.054 121.764 268.104 124.152 253.703Z" fill="#163BF3"/>
<path d="M768.377 319.087C773.553 319.087 778.953 315.008 778.953 306.1" stroke="#FF7968" stroke-width="1.6" stroke-linecap="round" stroke-linejoin="round"/>
<path fill-rule="evenodd" clip-rule="evenodd" d="M670.416 270.981H746.237V347.062C746.237 347.062 758.226 319.663 758.226 306.301C758.226 292.939 761.977 286.758 768.84 286.758C775.703 286.758 777.753 297.38 777.753 306.638C777.753 315.897 776.916 347.187 777.753 372.673C799.106 372.272 833.272 373.136 833.272 373.136C833.272 373.136 831.86 307.514 828.784 282.642C824.896 251.364 798.293 211.328 755.488 211.328C712.683 211.328 679.18 250.062 670.416 270.981Z" fill="#163BF3"/>
<path d="M667.34 289.936H677.791C678.317 289.937 678.831 290.083 679.279 290.358C679.726 290.633 680.089 291.027 680.327 291.496C680.565 291.964 680.669 292.489 680.627 293.013C680.586 293.537 680.4 294.039 680.092 294.465L663.19 317.736C662.88 318.16 662.694 318.661 662.652 319.185C662.61 319.709 662.714 320.234 662.952 320.702C663.19 321.17 663.554 321.563 664.002 321.836C664.45 322.11 664.965 322.254 665.49 322.252H678.304" stroke="#FF7968" stroke-width="1.6" stroke-linecap="round" stroke-linejoin="round"/>
<path d="M700.02 289.936H717.434" stroke="#FF7968" stroke-width="1.6" stroke-linecap="round" stroke-linejoin="round"/>
<path fill-rule="evenodd" clip-rule="evenodd" d="M669.54 294.803C670.702 294.803 671.64 296.154 671.64 297.805C671.64 299.457 670.702 300.821 669.54 300.821C668.377 300.821 667.439 299.469 667.439 297.805C667.439 296.141 668.377 294.803 669.54 294.803Z" fill="black"/>
<path fill-rule="evenodd" clip-rule="evenodd" d="M705.208 294.803C706.37 294.803 707.32 296.154 707.32 297.805C707.32 299.457 706.37 300.821 705.208 300.821C704.045 300.821 703.107 299.469 703.107 297.805C703.107 296.141 704.045 294.803 705.208 294.803Z" fill="black"/>
<path fill-rule="evenodd" clip-rule="evenodd" d="M669.541 337.316C678.58 337.316 691.793 336.427 691.793 344.022C691.793 351.616 676.929 357.972 671.641 357.972C666.353 357.972 659.902 348.426 659.902 343.033C659.902 337.641 660.49 337.316 669.541 337.316Z" fill="#FF7968"/>
<path fill-rule="evenodd" clip-rule="evenodd" d="M593.819 525.76C585.506 513.599 560.315 475.34 538.138 449.554C515.96 423.768 495.408 424.744 483.669 421.479C471.93 418.213 468.667 431.926 479.756 436.817C483.755 438.609 487.247 441.368 489.918 444.844C492.589 448.321 494.355 452.407 495.058 456.735C486.307 450.48 447.827 422.53 438.701 415.336C429.575 408.142 422.712 415.01 431.513 423.831C440.314 432.651 469.017 464.968 469.017 464.968C469.017 464.968 423.349 436.192 413.898 432.313C404.447 428.435 397.909 436.242 408.672 443.411C419.436 450.58 459.228 478.342 459.228 478.342C459.228 478.342 410.96 457.449 401.822 455.497C392.683 453.545 390.408 462.353 400.572 467.895C410.735 473.438 447.54 492.38 452.44 494.019C437.101 491.404 411.985 483.572 403.509 481.933C395.033 480.294 395.021 489.44 403.172 493.694C411.323 497.948 450.802 517.352 466.454 525.76C482.106 534.168 511.634 565.796 520.848 580.034C537.9 567.46 577.705 540.536 593.819 525.76Z" fill="#FFC7BF"/>
<path d="M495.058 456.736C495.058 456.736 489.045 489.665 506.522 511.86" stroke="#FF7968" stroke-width="1.6" stroke-linecap="round" stroke-linejoin="round"/>
<path d="M465.842 505.842L486.457 472.412" stroke="#FF7968" stroke-width="1.6" stroke-linecap="round" stroke-linejoin="round"/>
<path d="M593.844 525.76L651.913 610.236" stroke="black" stroke-width="1.6" stroke-linecap="round" stroke-linejoin="round"/>
<path d="M808.77 488.289L876.077 658.755" stroke="black" stroke-width="1.6" stroke-linecap="round" stroke-linejoin="round"/>
<path fill-rule="evenodd" clip-rule="evenodd" d="M485.894 303.022C484.931 314.02 484.931 341.807 496.895 347.062C508.859 352.317 529.287 325.405 530.162 311.392C531.037 297.38 486.857 292.037 485.894 303.022Z" fill="black"/>
<path d="M617.135 467.483L646.851 602.88" stroke="black" stroke-width="1.6" stroke-linecap="round" stroke-linejoin="round"/>
<path d="M530.063 274.384H317.525" stroke="black" stroke-width="1.6" stroke-linecap="round" stroke-linejoin="round"/>
<path d="M398.158 347.062C412.16 340.806 462.728 329.997 497.782 346.161" stroke="black" stroke-width="1.6" stroke-linecap="round" stroke-linejoin="round"/>
<path fill-rule="evenodd" clip-rule="evenodd" d="M531.774 272.758C515.66 271.319 493.645 277.762 487.319 297.317C481.868 314.183 488.619 325.067 501.308 334.201C513.997 343.334 524.498 368.919 525.836 379.616C527.173 390.314 536.187 389.813 536.187 379.454V368.256C536.187 368.256 543.575 383.958 545.063 393.003C546.551 402.049 555.252 396.169 554.414 386.986C553.577 377.802 554.089 376.977 554.089 376.977C554.089 376.977 556.252 379.316 559.765 382.832C563.278 386.347 569.016 383.157 568.516 375.638C568.016 368.119 566.466 352.742 564.29 345.386C567.466 348.726 570.804 356.083 572.479 359.436C574.154 362.789 580.992 360.937 579.492 351.929C577.992 342.921 572.641 323.854 569.978 315.997C567.316 308.14 550.989 274.459 531.774 272.758Z" fill="#5B3100"/>
<path d="M536.224 368.256C536.224 368.256 532.849 349.026 524.16 338.229" stroke="black" stroke-width="1.6" stroke-linecap="round" stroke-linejoin="round"/>
<path d="M554.103 376.939C554.103 376.939 551.215 345.41 544.039 335.552" stroke="black" stroke-width="1.6" stroke-linecap="round" stroke-linejoin="round"/>
<path d="M564.279 345.348C564.279 345.348 560.404 331.373 556.391 324.016" stroke="black" stroke-width="1.6" stroke-linecap="round" stroke-linejoin="round"/>
<path fill-rule="evenodd" clip-rule="evenodd" d="M560.729 96.4866C565.854 93.0585 575.043 85.7895 579.106 82.5866C583.169 79.3837 585.519 82.7868 584.669 87.5035C583.819 92.2203 577.606 108.898 577.606 108.898C577.606 108.898 555.59 99.9397 560.729 96.4866Z" fill="#5B3100"/>
<path fill-rule="evenodd" clip-rule="evenodd" d="M578.043 141.865C565.216 141.865 548.752 146.357 548.752 161.12C548.752 175.883 567.404 179.724 575.28 179.724C583.156 179.724 597.495 165.824 597.495 157.479C597.495 149.134 590.869 141.865 578.043 141.865Z" fill="#FF7968"/>
<path d="M496.42 146.444C496.42 146.444 489.069 146.444 486.156 155.34C483.243 164.235 488.894 176.396 498.133 178.273C507.371 180.149 514.385 177.585 518.823 168.001" stroke="black" stroke-width="1.6" stroke-linecap="round" stroke-linejoin="round"/>
<path d="M496.933 152.95C496.933 152.95 490.607 160.82 495.908 165.787C497.416 167.201 499.301 168.148 501.336 168.512C503.37 168.876 505.467 168.642 507.371 167.839" stroke="black" stroke-width="1.6" stroke-linecap="round" stroke-linejoin="round"/>
<path fill-rule="evenodd" clip-rule="evenodd" d="M530.763 109.11C532.263 110.474 532.075 113.126 530.35 115.016C528.625 116.905 526 117.33 524.499 115.967C522.999 114.603 523.249 111.938 524.925 110.049C526.6 108.159 529.263 107.747 530.763 109.11Z" fill="black"/>
<path fill-rule="evenodd" clip-rule="evenodd" d="M489.919 210.539C492.857 214.142 489.244 225.027 483.818 230.182C488.194 236.437 532.161 251.776 552.576 249.086C572.991 246.396 556.839 222.813 556.839 222.813C556.839 222.813 528.899 217.42 489.919 210.539Z" fill="#0089E3"/>
<path fill-rule="evenodd" clip-rule="evenodd" d="M275.296 465.043C310.3 465.043 338.728 496.647 338.728 535.569C338.728 574.492 310.312 606.083 275.296 606.083C240.279 606.083 211.863 574.479 211.863 535.632C211.863 496.784 240.292 465.043 275.296 465.043Z" fill="#FFC7BF"/>
<path fill-rule="evenodd" clip-rule="evenodd" d="M211.9 533.129C211.9 533.129 207.775 526.448 202.812 530.99C197.849 535.532 207.812 556.012 214.526 555.825C221.239 555.637 211.9 533.129 211.9 533.129Z" fill="#FFC7BF"/>
<path fill-rule="evenodd" clip-rule="evenodd" d="M338.252 533.129C338.252 533.129 342.365 526.448 347.341 530.99C352.317 535.532 342.34 556.012 335.627 555.825C328.914 555.637 338.252 533.129 338.252 533.129Z" fill="#FFC7BF"/>
<path fill-rule="evenodd" clip-rule="evenodd" d="M267.27 603.93C267.27 603.93 271.57 615.603 272.783 619.232C273.995 622.86 277.971 622.347 279.358 618.368C280.746 614.39 283.409 605.069 283.409 605.069L267.27 603.93Z" fill="#FFC7BF"/>
<path fill-rule="evenodd" clip-rule="evenodd" d="M211.9 533.129C211.9 533.129 216.563 547.38 216.901 555.825C220.214 545.403 229.89 541.775 235.778 549.394C241.666 557.013 253.368 573.278 275.27 573.278V461.928C275.27 461.928 214.801 461.64 211.9 533.129Z" fill="#CF1D00"/>
<path fill-rule="evenodd" clip-rule="evenodd" d="M338.789 533.129C338.789 533.129 334.138 547.38 333.788 555.825C330.488 545.403 320.799 541.775 314.911 549.394C309.023 557.013 297.321 573.278 275.419 573.278C254.691 552.96 254.166 463.342 275.419 461.928C275.331 461.965 335.826 461.64 338.789 533.129Z" fill="#CF1D00"/>
<path d="M244.803 588.079C250.278 589.33 255.304 592.708 259.805 598.288" stroke="#FF7968" stroke-width="1.6" stroke-linecap="round" stroke-linejoin="round"/>
<path d="M305.861 588.079C298.923 590.293 293.76 593.609 290.859 598.288" stroke="#FF7968" stroke-width="1.6" stroke-linecap="round" stroke-linejoin="round"/>
<path d="M197.047 616.654L73.6953 661.332" stroke="#9CE8C2" stroke-width="1.6" stroke-linecap="round" stroke-linejoin="round"/>
<path fill-rule="evenodd" clip-rule="evenodd" d="M251.492 595.323C252.567 596.161 253.055 597.337 252.58 597.938C252.105 598.538 250.842 598.35 249.779 597.512C248.717 596.674 248.217 595.485 248.692 594.885C249.167 594.284 250.429 594.434 251.492 595.323Z" fill="#FF7968"/>
<path fill-rule="evenodd" clip-rule="evenodd" d="M298.41 595.323C297.335 596.161 296.847 597.337 297.323 597.938C297.798 598.538 299.06 598.35 300.123 597.512C301.186 596.674 301.686 595.485 301.211 594.885C300.735 594.284 299.473 594.434 298.41 595.323Z" fill="#FF7968"/>
<path fill-rule="evenodd" clip-rule="evenodd" d="M200.548 614.014C213.137 610.361 231.889 604.856 239.44 614.477C246.991 624.099 253.191 647.444 255.454 653.863C257.717 660.281 248.978 664.26 244.29 658.867C239.602 653.475 237.39 652.061 237.39 652.061C237.39 652.061 231.639 661.445 221.138 663.434C211.224 665.311 190.834 667.412 188.346 643.266C187.384 634.295 187.971 617.68 200.548 614.014Z" fill="#FFC7BF"/>
<path d="M237.39 652.061L226.076 640.376" stroke="#FF7968" stroke-width="1.6" stroke-linecap="round" stroke-linejoin="round"/>
<path fill-rule="evenodd" clip-rule="evenodd" d="M157.531 436.467H117.352L125.052 479.081L190.785 499.049L157.531 436.467Z" fill="#24A865"/>
<path fill-rule="evenodd" clip-rule="evenodd" d="M119.188 436.555C107.937 436.968 93.0855 436.467 86.7472 436.467C80.409 436.467 79.4214 442.085 86.0096 443.549C90.4714 444.63 94.8049 446.187 98.9361 448.19C98.9361 448.19 69.9078 459.175 60.1816 462.841C50.4555 466.507 53.6434 473.138 62.6819 471.224C72.4581 469.159 94.1106 464.392 94.1106 464.392C94.1106 464.392 67.0574 477.492 61.6943 479.681C56.3312 481.871 56.8062 489.452 64.8697 486.525C72.9331 483.597 97.5485 475.265 97.5485 475.265C97.5485 475.265 76.496 489.69 70.3953 493.844C64.2946 497.998 66.2448 505.104 74.7958 500.437C83.3468 495.771 103.824 484.335 103.824 484.335C103.824 484.335 90.3977 498.973 86.4972 502.877C82.5968 506.78 86.7472 511.91 93.573 506.055C100.399 500.2 129.027 478.618 135.378 472.862C147.729 461.615 136.991 435.904 119.188 436.555Z" fill="#FFC7BF"/>
<path d="M241.941 385.359L348.704 410.257L334.227 508.708" stroke="#24A865" stroke-width="1.6" stroke-linecap="round" stroke-linejoin="round"/>
<path fill-rule="evenodd" clip-rule="evenodd" d="M125.978 280.102C118.064 286.658 102.513 308.14 111.826 331.698C123.852 323.178 144.855 310.429 144.855 310.429L163.995 333.037C163.995 333.037 158.407 312.368 164.382 306.188C170.358 300.007 176.734 311.017 179.246 314.495C181.759 317.973 188.66 328.183 198.811 327.007C200.274 313.695 193.186 282.867 162.845 274.284C146.43 269.668 133.891 273.534 125.978 280.102Z" fill="#163BF3"/>
<path fill-rule="evenodd" clip-rule="evenodd" d="M123.839 339.968C123.839 339.968 124.027 358.735 123.839 363.339C123.652 367.943 127.252 368.194 129.077 364.59C130.902 360.987 134.278 355.044 134.278 355.044L123.839 339.968Z" fill="#FFC7BF"/>
<path fill-rule="evenodd" clip-rule="evenodd" d="M831.389 44.0885C825.095 44.1277 819.07 46.6428 814.614 51.0905C810.158 55.5383 807.629 61.5617 807.574 67.8599V68.0225C807.574 61.6582 805.047 55.5546 800.551 51.0544C796.054 46.5541 789.955 44.0259 783.596 44.0259C789.956 44.0226 796.055 41.4916 800.551 36.9894C805.048 32.4872 807.574 26.3823 807.574 20.0168V20.1795C807.613 26.5177 810.157 32.5828 814.649 37.0507C819.142 41.5185 825.218 44.0261 831.551 44.0259L831.389 44.0885Z" fill="#FFFAF0"/>
<path fill-rule="evenodd" clip-rule="evenodd" d="M47.8056 354.356C41.5014 354.399 35.4672 356.923 31.0082 361.383C26.5492 365.843 24.0236 371.881 23.9778 378.19V378.353C23.9778 371.987 21.452 365.882 16.9556 361.38C12.4593 356.878 6.36046 354.347 0 354.343C6.35714 354.343 12.4541 351.817 16.9504 347.319C21.4468 342.822 23.9745 336.721 23.9778 330.359V330.51C24.024 336.845 26.5702 342.905 31.0615 347.369C35.5529 351.833 41.6253 354.34 47.9556 354.343L47.8056 354.356Z" fill="#FFFAF0"/>
<path fill-rule="evenodd" clip-rule="evenodd" d="M912.032 192.947C908.396 192.983 904.919 194.445 902.348 197.018C899.777 199.591 898.317 203.071 898.281 206.71V206.81C898.281 203.126 896.819 199.592 894.217 196.986C891.615 194.379 888.086 192.913 884.404 192.91C888.085 192.91 891.614 191.447 894.217 188.842C896.819 186.238 898.281 182.706 898.281 179.022V179.11C898.317 182.773 899.796 186.273 902.397 188.85C904.998 191.427 908.51 192.873 912.17 192.872L912.032 192.947Z" fill="#FFFAF0"/>
<path fill-rule="evenodd" clip-rule="evenodd" d="M1030.52 93.1917C1026.88 93.2275 1023.41 94.689 1020.84 97.2622C1018.26 99.8354 1016.8 103.315 1016.77 106.954V107.042C1016.76 103.357 1015.3 99.825 1012.7 97.2209C1010.09 94.6169 1006.56 93.1541 1002.88 93.1542C1006.56 93.1508 1010.09 91.6853 1012.7 89.0793C1015.3 86.4732 1016.76 82.9396 1016.77 79.2542V79.3542C1016.8 83.0147 1018.28 86.5131 1020.88 89.0898C1023.48 91.6665 1026.99 93.1135 1030.64 93.1166L1030.52 93.1917Z" fill="#FFFAF0"/>
<path d="M483.807 230.182C483.807 230.182 501.309 249.624 542.839 251.363C584.368 253.103 560.728 230.019 560.728 230.019" fill="#0089E3"/>
<path d="M483.807 230.182C483.807 230.182 501.309 249.624 542.839 251.363C584.368 253.103 560.728 230.019 560.728 230.019" stroke="black" stroke-width="1.6" stroke-linecap="round" stroke-linejoin="round"/>
<path d="M98.9355 448.19C98.9355 448.19 112.812 459.451 125.976 458.312" stroke="#FF7968" stroke-width="1.6" stroke-linecap="round" stroke-linejoin="round"/>
<path d="M98.9355 458.387L112.462 475.753" stroke="#FF7968" stroke-width="1.6" stroke-linecap="round" stroke-linejoin="round"/>
</svg>
