<svg width="861" height="819" viewBox="0 0 861 819" fill="none" xmlns="http://www.w3.org/2000/svg">
<g clip-path="url(#clip0_463:21764)">
<path fill-rule="evenodd" clip-rule="evenodd" d="M418.61 804.73C640.36 804.73 820.61 804.08 820.39 811.59C820.2 819.7 640.39 818.45 418.61 818.45C196.83 818.45 16.8301 819.3 16.8301 811.59C16.8301 803.88 196.86 804.73 418.61 804.73Z" fill="#133191"/>
<path fill-rule="evenodd" clip-rule="evenodd" d="M754.56 772.51C750.87 780.97 765.78 800.57 762.16 808.67H685.92L699.3 772.51C699.3 772.51 740.57 772.15 754.56 772.51Z" fill="black"/>
<g style="mix-blend-mode:multiply">
<path fill-rule="evenodd" clip-rule="evenodd" d="M621.429 308.85L673.999 394.49L708.849 447.54L794.299 454.38C794.299 454.38 770.089 371.29 772.999 354.25C784.709 364.1 794.569 375.1 807.089 368.13C817.999 389.13 848.889 458.9 857.679 482.87C866.469 506.84 851.019 525.21 811.079 525.21H746.919L722.159 571.55H544.469L614.789 450.8L559.429 332.6C559.429 332.6 580.629 285.92 621.429 308.85Z" fill="#133191"/>
</g>
<path d="M794.32 454.37L801.4 479.44" stroke="black" stroke-width="1.67" stroke-linecap="round" stroke-linejoin="round"/>
<path fill-rule="evenodd" clip-rule="evenodd" d="M746.92 525.2H731.5L739.39 539.3L746.92 525.2Z" fill="black"/>
<path fill-rule="evenodd" clip-rule="evenodd" d="M473.529 810.91C473.529 810.91 514.599 812.08 526.409 812.08C538.219 812.08 528.229 795.54 517.259 782.92C506.289 770.3 473.529 810.91 473.529 810.91Z" fill="black"/>
<path d="M614.789 450.78L619.689 461.25" stroke="black" stroke-width="1.67" stroke-linecap="round" stroke-linejoin="round"/>
<path d="M685.92 472.32L635.34 571.54" stroke="black" stroke-width="1.67" stroke-linecap="round" stroke-linejoin="round"/>
<path fill-rule="evenodd" clip-rule="evenodd" d="M729.199 449.17C729.199 449.17 709.719 476.4 683.199 471.98C666.659 469.22 663.199 446.41 663.199 446.41L729.199 449.17Z" fill="black"/>
<path fill-rule="evenodd" clip-rule="evenodd" d="M709.339 369C730.399 373.36 743.269 397.41 738.049 422.69C732.829 447.97 711.479 464.95 690.409 460.6C669.339 456.25 656.479 432.19 661.709 406.91C666.939 381.63 688.269 364.63 709.339 369Z" fill="#FFC7BF"/>
<path fill-rule="evenodd" clip-rule="evenodd" d="M773.001 354.25C777.121 362.13 793.101 376.13 807.091 368.13C821.081 360.13 839.821 341.82 844.291 337.35C848.761 332.88 845.571 329.25 840.031 332.88C834.491 336.51 819.001 342.25 819.001 342.25C819.001 342.25 836.681 320.73 842.431 313.92C848.181 307.11 843.501 304.97 837.961 309.23C832.421 313.49 813.671 329.47 813.671 329.47C813.671 329.47 828.801 306.68 834.121 299C839.441 291.32 834.981 288.78 829.221 294.32C823.461 299.86 808.131 314.32 808.131 314.32C808.131 314.32 817.511 294.08 820.921 286.2C824.331 278.32 821.131 276.83 815.801 283.65C810.471 290.47 796.421 311.77 792.801 316.88C789.181 321.99 781.931 320.93 781.721 314.32C781.511 307.71 781.081 300.69 780.871 297.32C780.661 293.95 774.691 293.05 772.981 302.54C771.271 312.03 764.141 337.27 773.001 354.25Z" fill="#FFC7BF"/>
<path fill-rule="evenodd" clip-rule="evenodd" d="M722.16 571.55L706.29 601.91H752.06C780.36 601.91 826.13 624.38 803.25 673.91C780.37 723.44 754.56 772.52 754.56 772.52H699.3L726.22 676.4H595.7L510.16 792.57C506.081 798.112 500.784 802.644 494.678 805.818C488.573 808.993 481.82 810.724 474.94 810.88C469.526 811.005 464.172 809.724 459.401 807.163C454.629 804.601 450.603 800.847 447.715 796.266C444.827 791.685 443.176 786.433 442.923 781.023C442.67 775.614 443.823 770.231 446.27 765.4C481.7 695.4 544.47 571.55 544.47 571.55" fill="#60D399"/>
<path d="M726.219 676.39L736.789 638.64" stroke="#24A865" stroke-width="1.67" stroke-linecap="round" stroke-linejoin="round"/>
<path d="M595.699 676.39L635.919 621.76" stroke="#24A865" stroke-width="1.67" stroke-linecap="round" stroke-linejoin="round"/>
<path d="M706.29 601.91H688.58" stroke="#24A865" stroke-width="1.67" stroke-linecap="round" stroke-linejoin="round"/>
<path d="M716.761 581.88H541.891" stroke="#24A865" stroke-width="1.67" stroke-linecap="round" stroke-linejoin="round"/>
<path fill-rule="evenodd" clip-rule="evenodd" d="M677.26 387.92C677.26 387.92 664.71 386.92 659.93 386.67C655.15 386.42 655.43 389.95 658 392.26C660.57 394.57 666.46 399.26 666.46 399.26L677.26 387.92Z" fill="#FFC7BF"/>
<path fill-rule="evenodd" clip-rule="evenodd" d="M663.591 400.15C664.661 402.03 667.591 402.77 669.721 402.86C671.851 402.95 685.951 402.97 685.721 408.21C685.351 417.69 662.721 413.21 660.811 412.28C660.912 408.091 661.858 403.965 663.591 400.15Z" fill="white"/>
<path fill-rule="evenodd" clip-rule="evenodd" d="M692.85 388.18C692.317 387.872 691.702 387.736 691.088 387.789C690.475 387.843 689.893 388.084 689.421 388.48C688.949 388.876 688.611 389.408 688.452 390.003C688.292 390.597 688.32 391.227 688.531 391.806C688.742 392.384 689.126 392.884 689.631 393.237C690.136 393.589 690.737 393.778 691.353 393.778C691.968 393.777 692.569 393.587 693.073 393.233C693.577 392.879 693.96 392.379 694.17 391.8C694.474 391.145 694.505 390.396 694.258 389.717C694.01 389.039 693.504 388.486 692.85 388.18Z" fill="black"/>
<path d="M711.94 399.42C711.94 399.42 714.27 395.48 717.77 396.89C721.27 398.3 722.47 404 721.42 408.26C720.37 412.52 717.5 417 714 416.85C710.5 416.7 709.59 412.43 709.59 412.43" stroke="black" stroke-width="1.67" stroke-linecap="round" stroke-linejoin="round"/>
<path d="M716.261 400.88C717.157 402.47 717.597 404.277 717.532 406.102C717.467 407.927 716.899 409.698 715.891 411.22" stroke="black" stroke-width="1.67" stroke-linecap="round" stroke-linejoin="round"/>
<path fill-rule="evenodd" clip-rule="evenodd" d="M634.809 250.62C634.809 250.62 591.619 276.87 580.139 285.07C568.659 293.27 548.489 310.19 559.429 332.6C570.369 355.01 601.999 350.14 601.999 350.14L628.909 321.05L674.719 257.19L634.809 250.62Z" fill="#133191"/>
<path fill-rule="evenodd" clip-rule="evenodd" d="M653.34 227.06C653.34 227.06 631.71 231.23 634.81 250.62C637.37 266.62 664.81 265.37 674.73 257.19C676.863 255.47 678.623 253.334 679.904 250.912C681.184 248.489 681.958 245.831 682.178 243.1C682.398 240.369 682.059 237.622 681.183 235.026C680.306 232.429 678.91 230.039 677.08 228C670.08 220.39 654.23 205.16 647.74 199.78C641.25 194.4 639.01 200.23 642.81 205.78C646.61 211.33 653.34 227.06 653.34 227.06Z" fill="#FFC7BF"/>
<path d="M611.061 345.96L628.921 321.05" stroke="black" stroke-width="1.67" stroke-linecap="round" stroke-linejoin="round"/>
<path d="M673.809 238.76C673.809 238.76 663.809 228.17 660.129 224.54C656.849 221.26 652.649 223.68 654.839 228.3C658.139 235.24 652.939 244.84 662.459 250.62" stroke="#FF341A" stroke-width="1.67" stroke-linecap="round" stroke-linejoin="round"/>
<path fill-rule="evenodd" clip-rule="evenodd" d="M105.529 772.17C109.219 780.63 94.2995 800.23 97.9295 808.33H174.169L160.799 772.17C160.799 772.17 119.519 771.81 105.529 772.17Z" fill="black"/>
<g style="mix-blend-mode:multiply">
<path fill-rule="evenodd" clip-rule="evenodd" d="M238.66 308.52L186.07 394.15L151.22 447.2L65.7697 454C65.7697 454 89.9997 371 87.0697 353.91C75.3497 363.76 65.4997 374.76 52.9997 367.8C42.0797 388.8 11.1897 458.57 2.39968 482.53C-6.39032 506.49 9.04968 524.88 48.9997 524.88H113.18L137.95 571.21H315.63L245.3 450.45L300.66 332.26C300.66 332.26 279.45 285.58 238.66 308.52Z" fill="#133191"/>
</g>
<path d="M65.7695 454.03L58.6895 479.1" stroke="black" stroke-width="1.67" stroke-linecap="round" stroke-linejoin="round"/>
<path fill-rule="evenodd" clip-rule="evenodd" d="M113.17 524.87H128.59L120.7 538.96L113.17 524.87Z" fill="black"/>
<path d="M245.3 450.45L240.4 460.92" stroke="black" stroke-width="1.67" stroke-linecap="round" stroke-linejoin="round"/>
<path d="M174.17 471.98L224.75 571.2" stroke="black" stroke-width="1.67" stroke-linecap="round" stroke-linejoin="round"/>
<path fill-rule="evenodd" clip-rule="evenodd" d="M130.891 448.83C130.891 448.83 150.381 476.06 176.891 471.64C193.431 468.88 196.891 446.07 196.891 446.07L130.891 448.83Z" fill="black"/>
<path fill-rule="evenodd" clip-rule="evenodd" d="M118.74 394.69C106.92 412.69 114.83 438.77 136.4 452.95C157.97 467.13 185.06 464.05 196.88 446.07C208.7 428.09 200.79 401.99 179.23 387.81C157.67 373.63 130.56 376.71 118.74 394.69Z" fill="#FFC7BF"/>
<path fill-rule="evenodd" clip-rule="evenodd" d="M87.0696 353.91C82.9996 361.79 66.9996 375.78 52.9996 367.8C38.9996 359.82 20.2496 341.49 15.7796 337C11.3096 332.51 14.4996 328.91 20.0396 332.53C25.5796 336.15 41.1296 341.9 41.1296 341.9C41.1296 341.9 23.4496 320.4 17.6996 313.58C11.9496 306.76 16.6296 304.63 22.1696 308.89C27.7096 313.15 46.4496 329.13 46.4496 329.13C46.4496 329.13 31.3296 306.33 25.9996 298.67C20.6696 291.01 25.1496 288.44 30.8996 293.98C36.6496 299.52 51.9996 314 51.9996 314C51.9996 314 42.6196 293.77 39.2096 285.88C35.7996 277.99 38.9996 276.51 44.3296 283.33C49.6596 290.15 63.7096 311.45 67.3296 316.56C70.9496 321.67 78.1996 320.61 78.4096 314C78.6196 307.39 79.0496 300.37 79.2596 297C79.4696 293.63 85.4396 292.73 87.1496 302.22C88.8596 311.71 95.9996 336.93 87.0696 353.91Z" fill="#FFC7BF"/>
<path fill-rule="evenodd" clip-rule="evenodd" d="M137.939 571.21L153.799 601.57H107.999C79.6995 601.57 33.9295 624.04 56.8195 673.57C79.7095 723.1 105.499 772.18 105.499 772.18H160.799L133.869 676.06H264.399L349.929 792.24C354.009 797.782 359.306 802.314 365.411 805.488C371.517 808.663 378.27 810.394 385.149 810.55C390.564 810.675 395.917 809.394 400.689 806.833C405.461 804.271 409.487 800.517 412.375 795.936C415.262 791.354 416.914 786.103 417.167 780.693C417.42 775.284 416.267 769.901 413.819 765.07L315.629 571.21" fill="#60D399"/>
<path fill-rule="evenodd" clip-rule="evenodd" d="M441.859 680.28L426.179 770.79L394.699 771.07V680.28H441.859Z" fill="#FBBE2E"/>
<path fill-rule="evenodd" clip-rule="evenodd" d="M617.999 766.3C618.669 772 624.549 784.75 626.229 792.93C628.609 804.49 635.109 808.73 635.109 808.73L729.109 756.04C727.728 754.512 725.956 753.39 723.983 752.796C722.011 752.202 719.914 752.158 717.919 752.67C710.639 754.27 688.449 756.04 676.739 754.67C665.029 753.3 645.999 750.27 645.999 750.27C645.999 750.27 615.519 745.5 617.999 766.3Z" fill="#FF341A"/>
<path fill-rule="evenodd" clip-rule="evenodd" d="M529.16 649.59L586.16 622.66L646 750.27C639.61 755.51 625 761.8 618 766.27C605 753.7 554.68 695.05 547.57 683.16C540.46 671.27 529.16 649.59 529.16 649.59Z" fill="#FBBE2E"/>
<path fill-rule="evenodd" clip-rule="evenodd" d="M530.279 651.72L541.519 672.63L591.879 634.85L587.629 624.86L530.279 651.72Z" fill="black"/>
<path fill-rule="evenodd" clip-rule="evenodd" d="M441.859 680.28H394.699V694.83L440.129 690.27L441.859 680.28Z" fill="black"/>
<path fill-rule="evenodd" clip-rule="evenodd" d="M426.179 770.79C426.179 770.79 443.479 785.33 454.669 789.24C465.859 793.15 498.339 802.1 498.339 811.56H394.699V771.07L426.179 770.79Z" fill="#FF341A"/>
<path d="M133.869 676.05L123.299 638.3" stroke="#24A865" stroke-width="1.67" stroke-linecap="round" stroke-linejoin="round"/>
<path d="M264.4 676.05L224.17 621.42" stroke="#24A865" stroke-width="1.67" stroke-linecap="round" stroke-linejoin="round"/>
<path d="M153.799 601.57H171.509" stroke="#24A865" stroke-width="1.67" stroke-linecap="round" stroke-linejoin="round"/>
<path d="M143.33 581.54H318.2" stroke="#24A865" stroke-width="1.67" stroke-linecap="round" stroke-linejoin="round"/>
<path fill-rule="evenodd" clip-rule="evenodd" d="M321.52 201.73L265.17 275L241.86 224.24C241.86 224.24 237.86 231.68 230.86 235.24C223.86 238.8 214 237.63 214 237.63C214 237.63 239.2 313 243.45 323.52C247.7 334.04 275.69 344.33 296.09 322.52C316.09 301.16 317.62 299.64 317.62 299.64L321.52 201.73Z" fill="#60D399"/>
<path d="M265.17 275.02L275.08 296.62" stroke="#24A865" stroke-width="1.67" stroke-linecap="round" stroke-linejoin="round"/>
<path fill-rule="evenodd" clip-rule="evenodd" d="M321.521 202.25L317.621 299.68L307.811 308.73L316.071 209.34L321.521 202.25Z" fill="#24A865"/>
<path fill-rule="evenodd" clip-rule="evenodd" d="M393.21 125.53L351.6 141.53L352.26 150.53C352.26 150.53 319.16 176.1 317.91 228.11C316.66 280.12 318.75 369.58 318.75 369.58H416.11C416.11 369.58 418.61 201.89 418.61 182.76C418.61 163.63 393.21 125.53 393.21 125.53Z" fill="#60D399"/>
<path fill-rule="evenodd" clip-rule="evenodd" d="M318.2 341.61L416.11 353.59V317.64L318.09 334.69L318.2 341.61Z" fill="black"/>
<path fill-rule="evenodd" clip-rule="evenodd" d="M296.999 330.46C296.999 330.46 284.379 328.05 279.049 326.72C273.719 325.39 266.429 319.62 267.779 312.16C268.55 307.18 269.969 302.322 271.999 297.71C273.219 295.1 277.839 292.49 279.589 292.49C279.759 290.22 283.249 285.68 285.779 286.38C288.309 287.08 303.999 299.16 303.999 299.16L296.999 330.46Z" fill="#FFF3D6"/>
<path fill-rule="evenodd" clip-rule="evenodd" d="M318.149 338.16C326.579 339.43 381.889 338.62 397.599 338.62C413.309 338.62 416.779 325.83 416.849 319.17C416.919 312.51 417.579 286.95 417.569 268.8C417.559 250.65 414.109 173.51 411.629 164.89C409.149 156.27 402.199 135.79 388.199 140.07C362.549 147.92 358.989 193.75 360.779 216.42C362.569 239.09 372.629 294.42 372.629 294.42L318.529 299.66C312.319 300.28 291.419 297.66 290.779 316.83C290.139 336 309.729 336.89 318.149 338.16Z" fill="#60D399"/>
<path fill-rule="evenodd" clip-rule="evenodd" d="M198.19 728.07L242.08 744.32L214.71 811.74H118.84C118.84 811.74 118.84 807.17 125.5 803.97C132.16 800.77 170.77 787.19 176.9 781.07C183.03 774.95 198.19 728.07 198.19 728.07Z" fill="#FBBE2E"/>
<path fill-rule="evenodd" clip-rule="evenodd" d="M198.19 728.9L194.98 737.68L238.77 752.47L242.08 744.32L198.19 728.9Z" fill="black"/>
<path fill-rule="evenodd" clip-rule="evenodd" d="M416.109 369.55V741.09L336.349 742.11V577.53L261.029 752.47L198.189 728.9L312.799 429.09L318.749 369.55H416.109Z" fill="white"/>
<path d="M336.35 577.54V459.87" stroke="#60D399" stroke-width="1.67" stroke-linecap="round" stroke-linejoin="round"/>
<path d="M317.73 379.73H416.11" stroke="#60D399" stroke-width="1.67" stroke-linecap="round" stroke-linejoin="round"/>
<path fill-rule="evenodd" clip-rule="evenodd" d="M329.81 368.57C330.914 368.57 331.993 368.897 332.911 369.51C333.828 370.124 334.543 370.995 334.966 372.015C335.388 373.034 335.499 374.156 335.283 375.239C335.068 376.321 334.536 377.315 333.756 378.096C332.976 378.876 331.981 379.408 330.899 379.623C329.817 379.838 328.695 379.728 327.675 379.305C326.655 378.883 325.784 378.168 325.171 377.25C324.558 376.333 324.23 375.254 324.23 374.15C324.23 372.67 324.818 371.251 325.865 370.204C326.911 369.158 328.331 368.57 329.81 368.57Z" fill="white"/>
<path d="M318.529 299.68L371.379 294.44" stroke="#24A865" stroke-width="1.67" stroke-linecap="round" stroke-linejoin="round"/>
<path d="M411.63 164.89C409.58 155.89 401.07 136.47 387.31 140.29C371.05 144.8 355.69 173.29 361.02 218.52C366.35 263.75 375.33 308.73 375.33 308.73" stroke="#24A865" stroke-width="1.67" stroke-linecap="round" stroke-linejoin="round"/>
<path d="M352.26 151C352.26 151 361.6 143.14 367.69 139.77" stroke="#24A865" stroke-width="1.67" stroke-linecap="round" stroke-linejoin="round"/>
<path fill-rule="evenodd" clip-rule="evenodd" d="M217.79 14.1101C230.568 14.1101 243.06 17.8994 253.685 24.9989C264.31 32.0983 272.591 42.189 277.482 53.9949C282.372 65.8009 283.651 78.7918 281.158 91.3249C278.665 103.858 272.512 115.37 263.476 124.406C254.44 133.442 242.928 139.596 230.394 142.089C217.861 144.582 204.87 143.302 193.065 138.412C181.259 133.522 171.168 125.241 164.068 114.616C156.969 103.99 153.18 91.4988 153.18 78.7201C153.188 61.5869 159.997 45.1577 172.112 33.0427C184.227 20.9277 200.656 14.1181 217.79 14.1101Z" fill="#FBBE2E"/>
<path fill-rule="evenodd" clip-rule="evenodd" d="M213.999 237.63L209.109 226.86C209.109 226.86 195.609 217 189.999 213.22C184.389 209.44 185.059 206.05 185.909 203.33C186.235 202.477 186.737 201.703 187.384 201.059C188.03 200.414 188.805 199.914 189.659 199.59C189.659 199.59 187.059 195.88 188.809 192.09C190.559 188.3 194.089 188.68 194.089 188.68C194.089 188.68 194.259 183.57 197.669 182.55C198.72 182.275 199.821 182.254 200.882 182.489C201.942 182.724 202.932 183.207 203.769 183.9C203.769 183.9 201.539 179.5 203.769 177.18C206.769 174.08 212.489 181.01 212.489 181.01C212.489 181.01 213.709 155.29 213.979 149.65C214.249 144.01 219.479 140.45 220.339 146.41C221.199 152.37 224.759 186.3 225.449 190.22C228.859 193.63 239.039 208.27 241.869 224.22C241.439 230.62 236.229 236.22 231.959 238.22C223.919 242.12 213.999 237.63 213.999 237.63Z" fill="#FFF3D6"/>
<path d="M203.76 183.9L215.66 200.77C215.66 200.77 220.57 213.97 228.42 215.93" stroke="#FBBE2E" stroke-width="1.67" stroke-linecap="round" stroke-linejoin="round"/>
<path d="M209.3 226C209.3 226 213.15 227.67 213.97 226C215.57 222.69 211.86 219.54 210.21 218C208.77 216.67 189.65 199.64 189.65 199.64" stroke="#FBBE2E" stroke-width="1.67" stroke-linecap="round" stroke-linejoin="round"/>
<path d="M212.32 220C212.32 220 215.41 220.69 216.86 219C218.31 217.31 217 212.26 214.96 210.58C212.92 208.9 194.08 188.67 194.08 188.67" stroke="#FBBE2E" stroke-width="1.67" stroke-linecap="round" stroke-linejoin="round"/>
<path d="M194.08 188.68C194.08 188.68 215.8 212.05 219.08 208.79" stroke="#FBBE2E" stroke-width="1.67" stroke-linecap="round" stroke-linejoin="round"/>
<path d="M212.859 180.82C212.859 180.82 225.359 190.53 226.619 191.82" stroke="#FBBE2E" stroke-width="1.67" stroke-linecap="round" stroke-linejoin="round"/>
<path fill-rule="evenodd" clip-rule="evenodd" d="M378.92 43.64C398 53.49 404 80.12 392.16 103.06C380.32 126 355.22 136.64 336.09 126.79C316.96 116.94 311 90.31 322.85 67.37C334.7 44.43 359.79 33.79 378.92 43.64Z" fill="#FFF3D6"/>
<path fill-rule="evenodd" clip-rule="evenodd" d="M453.049 43.64C433.929 53.49 427.989 80.12 439.809 103.06C451.629 126 476.749 136.64 495.879 126.79C515.009 116.94 520.879 90.31 509.109 67.37C497.339 44.43 472.179 33.79 453.049 43.64Z" fill="#FFF3D6"/>
<path fill-rule="evenodd" clip-rule="evenodd" d="M346.92 130.17L351.6 141.54L393.21 125.56L385.25 113.44L346.92 130.17Z" fill="#FFF3D6"/>
<path fill-rule="evenodd" clip-rule="evenodd" d="M485.05 130.17L480.37 141.54L438.76 125.56L446.71 113.44L485.05 130.17Z" fill="#FFF3D6"/>
<path fill-rule="evenodd" clip-rule="evenodd" d="M346.92 130.17H360.56L349.13 135.55L346.92 130.17Z" fill="#FBBE2E"/>
<path fill-rule="evenodd" clip-rule="evenodd" d="M485.05 130.17H471.41L482.83 135.55L485.05 130.17Z" fill="#FBBE2E"/>
<path fill-rule="evenodd" clip-rule="evenodd" d="M336.35 742.11L336.72 767.53C336.72 767.53 300.51 793.53 289.07 800.82C277.63 808.11 273.46 806.54 276.58 811.74H383.21L382.65 741.52L336.35 742.11Z" fill="#FBBE2E"/>
<path fill-rule="evenodd" clip-rule="evenodd" d="M336.35 742.11L382.65 741.52L382.76 755.22L336.45 749.48L336.35 742.11Z" fill="black"/>
<path d="M319.55 88.9801C324.145 88.9801 327.87 83.2941 327.87 76.2801C327.87 69.2661 324.145 63.5801 319.55 63.5801C314.955 63.5801 311.23 69.2661 311.23 76.2801C311.23 83.2941 314.955 88.9801 319.55 88.9801Z" fill="black"/>
<path d="M370 94.6801C370 94.6801 371.77 101.68 376.81 101.36C381.85 101.04 386.5 94.0001 386.5 87.8701" stroke="#FBBE2E" stroke-width="1.67" stroke-linecap="round" stroke-linejoin="round"/>
<path d="M346.689 88.9801C351.284 88.9801 355.009 83.2941 355.009 76.2801C355.009 69.2661 351.284 63.5801 346.689 63.5801C342.094 63.5801 338.369 69.2661 338.369 76.2801C338.369 83.2941 342.094 88.9801 346.689 88.9801Z" fill="black"/>
<path fill-rule="evenodd" clip-rule="evenodd" d="M333.119 53.3499H369.119V85.2099H372.119C372.119 85.2099 373.119 74.3999 378.959 74.0599C384.799 73.7199 385.609 82.6999 385.609 87.7599C385.609 92.8199 384.889 104.95 388.609 109.04C393.299 102 398.879 91.7899 400.259 77.9999C403.259 47.9999 391.049 35.4099 369.079 34.5099C351.999 33.7599 338.849 46.5399 333.119 53.3499Z" fill="#133191"/>
<path d="M354.879 74.0601H372.079" stroke="black" stroke-width="1.67" stroke-linecap="round" stroke-linejoin="round"/>
<path d="M329.939 74.0601C329.939 74.0601 330.079 87.6201 322.029 95.9401H333.119L327.879 106.58C327.879 106.58 341.749 108.35 346.689 102.89" stroke="#FBBE2E" stroke-width="1.67" stroke-linecap="round" stroke-linejoin="round"/>
<path d="M501.999 74.0601C501.999 74.0601 501.869 87.6201 509.909 95.9401H498.849L504.089 106.58C504.089 106.58 490.209 108.35 485.279 102.89" stroke="#FBBE2E" stroke-width="1.67" stroke-linecap="round" stroke-linejoin="round"/>
<path d="M377.33 78.45C377.33 78.45 379.85 80.53 380.12 86.26C380.39 91.99 378.21 94.51 378.21 94.51" stroke="#FBBE2E" stroke-width="1.67" stroke-linecap="round" stroke-linejoin="round"/>
<path d="M327.75 74.0601H338.49" stroke="black" stroke-width="1.67" stroke-linecap="round" stroke-linejoin="round"/>
<path fill-rule="evenodd" clip-rule="evenodd" d="M154.811 385.39C154.811 385.39 162.981 375.8 166.181 372.25C169.381 368.7 171.681 371.4 171.501 374.85C171.321 378.3 170.441 385.75 170.441 385.75L154.811 385.39Z" fill="#FFC7BF"/>
<path fill-rule="evenodd" clip-rule="evenodd" d="M170.729 383.18C171.839 385.33 172.159 389.04 170.729 390.63C169.299 392.22 159.729 403.27 163.179 405.74C166.629 408.21 176.839 394.18 178.289 392.36C179.739 390.54 181.719 389.85 183.679 391C180.169 387.72 175.779 383.73 170.729 383.18Z" fill="white"/>
<path fill-rule="evenodd" clip-rule="evenodd" d="M144 396.6C144.16 396.006 144.499 395.475 144.971 395.08C145.443 394.685 146.025 394.445 146.638 394.392C147.251 394.339 147.866 394.476 148.399 394.784C148.932 395.092 149.357 395.556 149.616 396.114C149.876 396.672 149.958 397.296 149.851 397.902C149.744 398.508 149.453 399.067 149.018 399.502C148.583 399.937 148.025 400.228 147.418 400.335C146.812 400.442 146.188 400.36 145.63 400.1C144.952 399.85 144.399 399.342 144.094 398.686C143.789 398.03 143.755 397.281 144 396.6Z" fill="black"/>
<path fill-rule="evenodd" clip-rule="evenodd" d="M490.451 74.7C491.057 74.5868 491.684 74.6636 492.246 74.9199C492.808 75.1762 493.276 75.5995 493.589 76.132C493.901 76.6646 494.041 77.2805 493.99 77.8957C493.94 78.5109 493.7 79.0955 493.305 79.5697C492.91 80.044 492.378 80.3847 491.782 80.5456C491.186 80.7064 490.555 80.6795 489.975 80.4684C489.395 80.2574 488.894 79.8725 488.541 79.3664C488.187 78.8602 487.999 78.2573 488.001 77.64C487.945 76.9272 488.17 76.2207 488.627 75.6714C489.085 75.1221 489.739 74.7735 490.451 74.7Z" fill="black"/>
<path fill-rule="evenodd" clip-rule="evenodd" d="M508.109 74.6999C508.716 74.5952 509.341 74.6799 509.898 74.9423C510.455 75.2048 510.918 75.6324 511.224 76.1671C511.529 76.7017 511.663 77.3175 511.607 77.9308C511.55 78.5441 511.307 79.1252 510.909 79.5951C510.511 80.0651 509.978 80.4012 509.382 80.5577C508.786 80.7143 508.157 80.6837 507.579 80.4702C507.002 80.2566 506.504 79.8704 506.153 79.3641C505.802 78.8578 505.616 78.2558 505.619 77.6399C505.564 76.9208 505.794 76.2088 506.26 75.6584C506.727 75.108 507.391 74.7636 508.109 74.6999Z" fill="black"/>
<path d="M138.419 418.05C138.419 418.05 133.989 416.91 132.509 420.38C131.029 423.85 134.219 428.73 137.959 431C141.699 433.27 146.959 434.41 149.319 431.8C151.679 429.19 149.319 425.55 149.319 425.55" stroke="black" stroke-width="1.67" stroke-linecap="round" stroke-linejoin="round"/>
<path d="M136.4 422.14C136.889 423.899 137.855 425.488 139.191 426.732C140.527 427.977 142.181 428.827 143.97 429.19" stroke="black" stroke-width="1.67" stroke-linecap="round" stroke-linejoin="round"/>
<path fill-rule="evenodd" clip-rule="evenodd" d="M438.999 125.53L480.609 141.53L479.939 150.53C479.939 150.53 513.039 176.1 514.289 228.11C515.539 280.12 513.459 369.58 513.459 369.58H416.109C416.109 369.58 413.609 201.89 413.609 182.76C413.609 163.63 438.999 125.53 438.999 125.53Z" fill="white"/>
<path fill-rule="evenodd" clip-rule="evenodd" d="M541.121 282C547.601 283 557.12 285 560.41 296.72C563.7 308.44 556.271 315.5 556.271 315.5C556.271 315.5 534.631 281 541.121 282Z" fill="#FFF3D6"/>
<path fill-rule="evenodd" clip-rule="evenodd" d="M431.539 195.09C437.539 212.94 474.639 312.2 480.879 326.76C487.119 341.32 498.6 347.57 514.71 343.41C530.82 339.25 567.569 326.76 557.859 302.15C548.149 277.54 523.86 275.79 514.71 279.6C511.4 267.82 489.199 194.6 483.999 175.93C478.799 157.26 452.799 137.79 439.999 143C427.199 148.21 420.999 164 431.539 195.09Z" fill="white"/>
<path fill-rule="evenodd" clip-rule="evenodd" d="M514.299 227.94L592.999 140.29C592.999 140.29 591.819 154.78 600.139 158.94C608.459 163.1 617.919 162.81 617.919 162.81L514.709 293.48L514.299 227.94Z" fill="white"/>
<path fill-rule="evenodd" clip-rule="evenodd" d="M590.709 143.12C597.349 135.12 601.399 128.29 612.899 128.29C624.399 128.29 673.299 128.63 680.679 128.67C688.059 128.71 684.879 133.41 679.529 135.03C674.179 136.65 651.129 141.66 641.999 145.03C632.869 148.4 622.669 156.69 617.759 163.03C612.849 169.37 577.159 159.39 590.709 143.12Z" fill="#FFF3D6"/>
<path fill-rule="evenodd" clip-rule="evenodd" d="M660.279 2.11C660.277 1.5512 660.053 1.01604 659.658 0.62091C659.263 0.225777 658.728 0.00262967 658.169 0L638.449 0C638.179 0.00304997 637.911 0.0593742 637.662 0.165755C637.414 0.272137 637.188 0.42649 636.999 0.62C636.8 0.814034 636.642 1.04574 636.534 1.30157C636.426 1.55741 636.37 1.83224 636.369 2.11C636.371 2.38759 636.428 2.66209 636.536 2.91777C636.644 3.17346 636.801 3.40529 636.999 3.6C637.193 3.79831 637.425 3.95545 637.681 4.06198C637.937 4.16852 638.212 4.22227 638.489 4.22H658.209C658.768 4.21737 659.303 3.99422 659.698 3.59909C660.093 3.20396 660.317 2.6688 660.319 2.11H660.279Z" fill="#60D399"/>
<path fill-rule="evenodd" clip-rule="evenodd" d="M622.789 128.29C621.194 128.293 619.625 127.884 618.234 127.105C616.843 126.326 615.675 125.201 614.845 123.84C614.014 122.479 613.547 120.926 613.49 119.333C613.433 117.739 613.787 116.157 614.519 114.74L638.429 68.2301C639.837 65.4891 640.57 62.4516 640.569 59.3701V3.37012H657.169V59.3701C657.167 62.4516 657.901 65.4891 659.309 68.2301C664.059 77.4801 675.669 100.05 683.219 114.74C683.948 116.154 684.302 117.731 684.248 119.32C684.193 120.91 683.731 122.459 682.906 123.819C682.081 125.178 680.921 126.304 679.536 127.087C678.152 127.87 676.589 128.284 674.999 128.29H622.789Z" fill="#60D399"/>
<path d="M657.16 4.21997H640.57V8.25997H657.16V4.21997Z" fill="black"/>
<path d="M484.77 178.64L524.5 312.68" stroke="#60D399" stroke-width="1.67" stroke-linecap="round" stroke-linejoin="round"/>
<path d="M428.199 183.46C428.199 183.46 473.569 307.46 478.249 320.28C482.929 333.1 495.399 349.06 514.249 343.51" stroke="#60D399" stroke-width="1.67" stroke-linecap="round" stroke-linejoin="round"/>
<path fill-rule="evenodd" clip-rule="evenodd" d="M416.109 369.55V681.55L467.649 682.24C467.649 682.24 482.469 643.75 484.769 616.71C491.229 631.96 504.629 656.58 504.629 656.58C504.629 656.58 564.049 652.07 604.959 609.77C590.749 582.77 524.959 431.77 513.479 369.57L416.109 369.55Z" fill="#60D399"/>
<path d="M484.77 616.69L504.63 408.29" stroke="black" stroke-width="1.67" stroke-linecap="round" stroke-linejoin="round"/>
<path fill-rule="evenodd" clip-rule="evenodd" d="M510.59 70.4601L478.66 70.1501L462.89 126.22L417.18 126.79C417.18 126.79 416.67 94.5001 416.62 80.5901C416.5 50.5901 440.92 35.3601 462.89 34.4601C480 33.7601 498.66 38.1301 510.59 70.4601Z" fill="#133191"/>
<path fill-rule="evenodd" clip-rule="evenodd" d="M461 73.7401L454.27 89.3701C454.27 89.3701 448.78 76.3701 453.07 73.2801C454.237 72.4164 455.669 71.9893 457.119 72.0734C458.568 72.1575 459.941 72.7473 461 73.7401Z" fill="#FFF3D6"/>
<path d="M216.66 806.92H118.84V811.74H216.66V806.92Z" fill="black"/>
<path d="M383.21 806.92H275.59V811.74H383.21V806.92Z" fill="black"/>
<path d="M498.339 806.92H394.699V811.74H498.339V806.92Z" fill="black"/>
<path fill-rule="evenodd" clip-rule="evenodd" d="M727.409 751.54L631.529 805.16L633.939 809.33L729.819 755.71L727.409 751.54Z" fill="black"/>
</g>
<defs>
<clipPath id="clip0_463:21764">
<rect width="860.09" height="818.52" fill="white"/>
</clipPath>
</defs>
</svg>
