<svg width="740" height="843" viewBox="0 0 740 843" fill="none" xmlns="http://www.w3.org/2000/svg">
<g clip-path="url(#clip0_463:21876)">
<path fill-rule="evenodd" clip-rule="evenodd" d="M369.39 831.83C480.01 831.83 569.9 831.34 569.81 837.07C569.72 843.27 480.01 842.31 369.39 842.31C258.77 842.31 169 843 169 837.07C169 831.14 258.78 831.83 369.39 831.83Z" fill="black"/>
<path fill-rule="evenodd" clip-rule="evenodd" d="M370.49 731.29H84.9996C-24.0004 731.29 -21.3804 619.61 54.3496 543.89C130.08 468.17 194 520.15 194 520.15C194 520.15 199.08 389 265.48 389C331.88 389 351.43 429.87 351.43 429.87L369.43 559.28L370.49 731.29Z" fill="#FFF3D6"/>
<path fill-rule="evenodd" clip-rule="evenodd" d="M369.391 731.29H654.891C763.891 731.29 761.261 619.61 685.541 543.89C609.821 468.17 545.911 520.15 545.911 520.15C545.911 520.15 540.801 389 474.391 389C407.981 389 388.461 429.87 388.461 429.87L370.461 559.28L369.391 731.29Z" fill="#FFF3D6"/>
<path fill-rule="evenodd" clip-rule="evenodd" d="M412.53 114.7C412.53 114.7 415.62 125.12 418.85 135.97C420.968 143.102 425.153 149.445 430.875 154.199C436.598 158.953 443.601 161.905 451 162.68L473.09 165C473.09 165 468.77 175 464.26 185.35C461.296 192.18 460.425 199.735 461.756 207.06C463.088 214.385 466.562 221.15 471.74 226.5L487.18 242.43L467.33 252.34C460.67 255.669 455.147 260.899 451.458 267.368C447.77 273.836 446.083 281.253 446.61 288.68C447.42 299.97 448.19 310.8 448.19 310.8L426.62 305.64C419.38 303.904 411.789 304.356 404.807 306.94C397.824 309.523 391.766 314.12 387.4 320.15C380.76 329.32 374.4 338.15 374.4 338.15L361.2 320.33C356.768 314.35 350.661 309.819 343.653 307.311C336.645 304.803 329.05 304.43 321.83 306.24L300.31 311.64C300.31 311.64 300.96 300.8 301.65 289.5C302.098 282.068 300.332 274.67 296.574 268.242C292.816 261.814 287.236 256.645 280.54 253.39L260.59 243.7L275.85 227.6C280.964 222.191 284.359 215.386 285.605 208.047C286.851 200.708 285.892 193.164 282.85 186.37L273.82 166L295.82 163.47C303.209 162.626 310.182 159.61 315.858 154.805C321.534 149.999 325.658 143.619 327.71 136.47C330.81 125.58 333.79 115.14 333.79 115.14L352.3 127.37C358.512 131.472 365.801 133.64 373.245 133.599C380.689 133.559 387.954 131.311 394.12 127.14L412.53 114.7Z" fill="#FBBE2E"/>
<path fill-rule="evenodd" clip-rule="evenodd" d="M357.999 236C357.999 229.68 363.149 217 369.739 211.42C376.329 205.84 378.969 203.55 381.479 201.74C383.989 199.93 382.629 194.99 378.819 197.29C375.009 199.59 369.069 202.92 369.069 202.92C369.069 202.92 376.259 196.53 378.849 194.17C381.439 191.81 380.919 188.17 377.069 190.32C373.219 192.47 367.459 195.84 367.459 195.84C367.459 195.84 374.019 189.57 375.799 187.56C377.579 185.55 376.199 182.96 372.519 185.32C368.839 187.68 363.899 191.13 363.899 191.13C363.899 191.13 369.059 185.32 370.959 183.42C372.859 181.52 371.319 178.82 368.319 181.12C365.319 183.42 356.319 189.12 351.419 195.73V184.84C351.419 183.11 348.709 181.56 347.559 184.95C346.409 188.34 328.619 209.12 328.619 235.95L357.999 236Z" fill="#DFA98B"/>
<path d="M398.45 48.52H351.43V250.82H398.45V48.52Z" fill="#FF341A"/>
<path fill-rule="evenodd" clip-rule="evenodd" d="M398.439 250.82H351.439C351.438 253.65 351.995 256.453 353.079 259.068C354.162 261.682 355.75 264.058 357.753 266.058C359.756 268.058 362.133 269.643 364.75 270.723C367.366 271.802 370.169 272.355 372.999 272.35H376.999C382.707 272.35 388.181 270.083 392.216 266.047C396.252 262.011 398.519 256.538 398.519 250.83L398.439 250.82Z" fill="white"/>
<path fill-rule="evenodd" clip-rule="evenodd" d="M391.82 235.55C391.82 229.23 386.71 217.02 380.11 211.4C373.51 205.78 370.89 203.53 368.38 201.72C365.87 199.91 367.23 194.97 371.04 197.27C374.85 199.57 380.78 202.9 380.78 202.9C380.78 202.9 373.6 196.51 371.01 194.15C368.42 191.79 368.94 188.15 372.79 190.3C376.64 192.45 382.4 195.82 382.4 195.82C382.4 195.82 375.84 189.55 374.06 187.54C372.28 185.53 373.66 182.94 377.33 185.3C381 187.66 385.96 191.11 385.96 191.11C385.96 191.11 380.8 185.3 378.9 183.4C377 181.5 378.54 178.8 381.53 181.1C384.52 183.4 393.53 189.1 398.44 195.71V184.84C398.44 183.11 401.15 181.56 402.3 184.95C403.45 188.34 421.24 209.12 421.24 235.95C412.64 236 397 235.55 391.82 235.55Z" fill="#DFA98B"/>
<path fill-rule="evenodd" clip-rule="evenodd" d="M328.63 236C325.06 255.88 313.5 292.73 313.5 326.59V529.26H427.5L427.22 444.82H351.43V236C351.43 236 340.61 235.75 328.63 236Z" fill="#9CE8C2"/>
<path d="M337.699 444.82H351.429" stroke="#24A865" stroke-width="1.67" stroke-linecap="round" stroke-linejoin="round"/>
<path fill-rule="evenodd" clip-rule="evenodd" d="M374.859 395.14C382.039 394.14 390.429 398.45 393.379 408.56C396.329 418.67 390.519 425.94 383.879 433.12C375.999 416.85 367.669 396.13 374.859 395.14Z" fill="black"/>
<path fill-rule="evenodd" clip-rule="evenodd" d="M350.91 410.11C350.91 410.11 337.4 383.51 340.91 367.22C344.42 350.93 352.7 360.35 358.32 367.37C363.94 374.39 378.61 401.57 385.03 414.87C377.83 414.87 350.91 410.11 350.91 410.11Z" fill="#FF341A"/>
<path fill-rule="evenodd" clip-rule="evenodd" d="M382.18 435.17L385.03 444.82H366.07L382.18 435.17Z" fill="#FF341A"/>
<path fill-rule="evenodd" clip-rule="evenodd" d="M364.32 398.47C355.37 402.33 337.58 421.09 345.54 439.37C352.38 455.07 378.54 440.95 383.81 433.23C389.08 425.51 386.66 412.52 379.07 406.5C372.58 401.36 370.4 400.18 364.32 398.47Z" fill="#DFA98B"/>
<path fill-rule="evenodd" clip-rule="evenodd" d="M391.82 444.82C391.82 444.82 427.48 496.26 427.48 456.7V325.28C427.48 305.57 421.24 235.98 421.24 235.98L391.82 235.55V444.82Z" fill="#9CE8C2"/>
<path d="M391.82 444.82V458.55" stroke="#24A865" stroke-width="1.67" stroke-linecap="round" stroke-linejoin="round"/>
<path d="M427.49 529.26H313.5V543.89H427.49V529.26Z" fill="#24A865"/>
<path fill-rule="evenodd" clip-rule="evenodd" d="M346.211 543.89L370.491 616.78L427.481 770.12H487.561L427.481 543.89H346.211Z" fill="#FBBE2E"/>
<path fill-rule="evenodd" clip-rule="evenodd" d="M370.49 543.89V616.78L313.5 770.12H253.41L313.5 543.89H370.49Z" fill="#FBBE2E"/>
<path d="M413.44 444.82L403.02 467.9" stroke="#24A865" stroke-width="1.67" stroke-linecap="round" stroke-linejoin="round"/>
<path d="M328.52 512.49H391.33" stroke="#24A865" stroke-width="1.67" stroke-linecap="round" stroke-linejoin="round"/>
<path d="M344.561 502.07L370.491 512.49" stroke="#24A865" stroke-width="1.67" stroke-linecap="round" stroke-linejoin="round"/>
<path fill-rule="evenodd" clip-rule="evenodd" d="M391.82 235.55H421.24L422.53 250.82H391.82V235.55Z" fill="#24A865"/>
<path fill-rule="evenodd" clip-rule="evenodd" d="M328.629 235.98H351.429V250.82H325.439L328.629 235.98Z" fill="#24A865"/>
<path fill-rule="evenodd" clip-rule="evenodd" d="M487.56 770.07L493.41 792.1H462.99L453.4 770.07H487.56Z" fill="#DFA98B"/>
<path fill-rule="evenodd" clip-rule="evenodd" d="M253.561 770.07L247.711 792.1H278.131L287.721 770.07H253.561Z" fill="#DFA98B"/>
<path fill-rule="evenodd" clip-rule="evenodd" d="M493.41 792.1H463L482.61 837.1H549.74C549.74 837.1 550.42 828.26 540.48 825.52C530.54 822.78 502.99 817.69 499.84 809.09C496.69 800.49 493.41 792.1 493.41 792.1Z" fill="#163BF3"/>
<path fill-rule="evenodd" clip-rule="evenodd" d="M247.621 792.1H278.001L258.401 837.1H191.301C191.301 837.1 190.621 828.26 200.561 825.52C210.501 822.78 238.041 817.69 241.201 809.09C244.361 800.49 247.621 792.1 247.621 792.1Z" fill="#163BF3"/>
<path fill-rule="evenodd" clip-rule="evenodd" d="M258.26 799.52C259.168 799.518 260.056 799.786 260.812 800.289C261.569 800.792 262.158 801.508 262.507 802.347C262.856 803.185 262.949 804.108 262.773 804.999C262.597 805.89 262.16 806.709 261.519 807.352C260.877 807.995 260.059 808.433 259.169 808.611C258.278 808.789 257.355 808.699 256.516 808.352C255.676 808.004 254.959 807.416 254.454 806.661C253.949 805.906 253.68 805.018 253.68 804.11C253.682 802.895 254.165 801.731 255.023 800.871C255.882 800.011 257.045 799.525 258.26 799.52Z" fill="#FBBE2E"/>
<path fill-rule="evenodd" clip-rule="evenodd" d="M482.879 799.52C481.971 799.518 481.083 799.786 480.327 800.289C479.57 800.792 478.981 801.508 478.632 802.347C478.283 803.185 478.19 804.108 478.366 804.999C478.542 805.89 478.979 806.709 479.62 807.352C480.262 807.995 481.08 808.433 481.97 808.611C482.861 808.789 483.784 808.699 484.624 808.352C485.463 808.004 486.18 807.416 486.685 806.661C487.19 805.906 487.459 805.018 487.459 804.11C487.457 802.895 486.974 801.731 486.116 800.871C485.257 800.011 484.094 799.525 482.879 799.52Z" fill="#FBBE2E"/>
<path fill-rule="evenodd" clip-rule="evenodd" d="M278.001 792.1H287.691C287.691 792.1 282.501 797.55 279.891 797.55C279.891 800.24 276.311 801.47 273.891 801.47C275.251 798.45 278.001 792.1 278.001 792.1Z" fill="#FBBE2E"/>
<path fill-rule="evenodd" clip-rule="evenodd" d="M463.1 792.1H453.41C453.41 792.1 458.61 797.55 461.22 797.55C461.22 800.24 464.8 801.47 467.22 801.47C465.89 798.45 463.1 792.1 463.1 792.1Z" fill="#FBBE2E"/>
<path d="M370.49 616.74V597.83" stroke="#C98600" stroke-width="1.67" stroke-linecap="round" stroke-linejoin="round"/>
<path d="M338.66 580.77L370.49 597.83" stroke="#C98600" stroke-width="1.67" stroke-linecap="round" stroke-linejoin="round"/>
<path d="M402.32 580.77L370.49 597.83" stroke="#C98600" stroke-width="1.67" stroke-linecap="round" stroke-linejoin="round"/>
<path fill-rule="evenodd" clip-rule="evenodd" d="M374.94 0L398.44 48.52H351.43L374.94 0Z" fill="#FFF3D6"/>
<path fill-rule="evenodd" clip-rule="evenodd" d="M374.941 0L380.481 11.44H369.391L374.941 0Z" fill="#163BF3"/>
<path d="M376.71 408C376.71 408 365.79 407.64 359.27 412.56" stroke="black" stroke-width="1.67" stroke-linecap="round" stroke-linejoin="round"/>
<path fill-rule="evenodd" clip-rule="evenodd" d="M358.11 402.5C358.11 402.5 356.78 396.9 358.2 396.45C359.62 396 364.57 398.7 366.36 399.89C363.59 401.54 358.11 402.5 358.11 402.5Z" fill="#DFA98B"/>
<path d="M225.989 226.39H62.5293" stroke="#FBBE2E" stroke-width="1.67" stroke-linecap="round" stroke-linejoin="round"/>
<path d="M507.561 226.39H658.911" stroke="#FBBE2E" stroke-width="1.67" stroke-linecap="round" stroke-linejoin="round"/>
<path d="M273.44 125.95L200.01 52.52" stroke="#FBBE2E" stroke-width="1.67" stroke-linecap="round" stroke-linejoin="round"/>
<path d="M485.561 114.7L531.821 68.4399" stroke="#FBBE2E" stroke-width="1.67" stroke-linecap="round" stroke-linejoin="round"/>
<path fill-rule="evenodd" clip-rule="evenodd" d="M205.41 149.67C200.163 149.712 195.142 151.814 191.431 155.524C187.72 159.233 185.615 164.253 185.57 169.5V169.63C185.57 164.326 183.463 159.238 179.712 155.488C175.962 151.737 170.875 149.63 165.57 149.63C170.875 149.63 175.962 147.523 179.712 143.772C183.463 140.021 185.57 134.934 185.57 129.63V129.76C185.615 135.035 187.742 140.078 191.488 143.792C195.234 147.506 200.295 149.59 205.57 149.59L205.41 149.67Z" fill="#FBBE2E"/>
<path fill-rule="evenodd" clip-rule="evenodd" d="M566.79 149.67C561.551 149.725 556.544 151.833 552.843 155.541C549.142 159.249 547.044 164.261 547 169.5V169.63C547 164.326 544.893 159.238 541.142 155.488C537.391 151.737 532.304 149.63 527 149.63C532.304 149.63 537.391 147.523 541.142 143.772C544.893 140.021 547 134.934 547 129.63V129.76C547.045 135.035 549.172 140.078 552.918 143.792C556.663 147.506 561.725 149.59 567 149.59L566.79 149.67Z" fill="#FBBE2E"/>
<path fill-rule="evenodd" clip-rule="evenodd" d="M296.64 37.9999C293.865 38.0209 291.21 39.1331 289.249 41.0961C287.288 43.0591 286.178 45.7152 286.16 48.4899V48.5599C286.16 45.7592 285.047 43.0732 283.067 41.0929C281.086 39.1125 278.4 37.9999 275.6 37.9999C276.99 37.9999 278.366 37.7255 279.65 37.1923C280.934 36.6591 282.1 35.8776 283.081 34.8928C284.062 33.908 284.839 32.7391 285.367 31.4533C285.896 30.1675 286.165 28.79 286.16 27.3999V27.4799C286.168 30.2727 287.283 32.9485 289.26 34.9205C291.238 36.8925 293.917 37.9999 296.71 37.9999H296.64Z" fill="#FBBE2E"/>
<path fill-rule="evenodd" clip-rule="evenodd" d="M471.861 37.9999C469.085 38.0208 466.429 39.1327 464.466 41.0955C462.503 43.0582 461.391 45.7143 461.371 48.4899V48.5599C461.371 45.7592 460.258 43.0732 458.278 41.0929C456.297 39.1125 453.611 37.9999 450.811 37.9999C452.201 37.9999 453.577 37.7255 454.861 37.1923C456.145 36.6591 457.311 35.8776 458.292 34.8928C459.273 33.908 460.05 32.7391 460.578 31.4533C461.107 30.1675 461.376 28.79 461.371 27.3999V27.4799C461.384 30.2728 462.502 32.947 464.48 34.9182C466.459 36.8894 469.138 37.9973 471.931 37.9999H471.861Z" fill="#FBBE2E"/>
</g>
<defs>
<clipPath id="clip0_463:21876">
<rect width="739.88" height="842.37" fill="white"/>
</clipPath>
</defs>
</svg>
