<svg width="2206" height="728" viewBox="0 0 2206 728" fill="none" xmlns="http://www.w3.org/2000/svg">
<g clip-path="url(#clip0_463:21332)">
<path d="M1350.53 299.15L1421.75 258.03C1442.99 245.77 1470.19 253.05 1482.45 274.3" stroke="#FF7968" stroke-width="53.9604" stroke-miterlimit="10" stroke-linecap="round" stroke-linejoin="round"/>
<path d="M1531.67 90.62C1595.94 53.51 1678.24 75.57 1715.35 139.84C1752.45 204.11 1730.4 286.41 1666.13 323.52C1601.86 360.63 1519.55 338.57 1482.45 274.31" stroke="#FF7968" stroke-width="53.9604" stroke-miterlimit="10" stroke-linecap="round" stroke-linejoin="round"/>
<path d="M1262.58 349.93L1255.21 354.19" stroke="#FF7968" stroke-width="54.1667" stroke-miterlimit="10" stroke-linecap="round" stroke-linejoin="round"/>
<path d="M359.25 501.57L289.61 482.91C268.84 477.34 256.5 455.96 262.06 435.19" stroke="#163BF3" stroke-width="53.9604" stroke-miterlimit="10" stroke-linecap="round" stroke-linejoin="round"/>
<path d="M117.68 518.56C54.83 501.72 17.48 437.03 34.32 374.18C51.16 311.33 115.85 273.98 178.7 290.82C241.55 307.66 278.9 372.35 262.05 435.2" stroke="#163BF3" stroke-width="53.9604" stroke-miterlimit="10" stroke-linecap="round" stroke-linejoin="round"/>
<path d="M445.26 524.62L452.47 526.55" stroke="#163BF3" stroke-width="54.1667" stroke-miterlimit="10" stroke-linecap="round" stroke-linejoin="round"/>
<path d="M1826.58 493.72L1896.22 475.06C1916.99 469.49 1938.37 481.84 1943.93 502.61" stroke="#163BF3" stroke-width="53.9604" stroke-miterlimit="10" stroke-linecap="round" stroke-linejoin="round"/>
<path d="M2027.29 358.23C2090.14 341.39 2154.83 378.74 2171.67 441.59C2188.51 504.44 2151.16 569.13 2088.31 585.97C2025.46 602.81 1960.77 565.46 1943.93 502.61" stroke="#163BF3" stroke-width="53.9604" stroke-miterlimit="10" stroke-linecap="round" stroke-linejoin="round"/>
<path d="M1740.57 516.77L1733.37 518.7" stroke="#163BF3" stroke-width="54.1667" stroke-miterlimit="10" stroke-linecap="round" stroke-linejoin="round"/>
<path d="M740.13 423.12L681.98 364.97C664.64 347.63 664.64 319.47 681.98 302.12" stroke="#FF7968" stroke-width="53.9604" stroke-miterlimit="10" stroke-linecap="round" stroke-linejoin="round"/>
<path d="M491.819 302.12C439.349 249.64 439.349 164.44 491.819 111.96C544.299 59.4899 629.499 59.4899 681.979 111.96C734.459 164.43 734.459 249.64 681.979 302.12" stroke="#FF7968" stroke-width="53.9604" stroke-miterlimit="10" stroke-linecap="round" stroke-linejoin="round"/>
<path d="M811.949 494.93L817.969 500.95" stroke="#FF7968" stroke-width="54.1667" stroke-miterlimit="10" stroke-linecap="round" stroke-linejoin="round"/>
<path d="M845.461 484.03H723.471V606.02H845.461V484.03Z" fill="#163BF3"/>
<path d="M763.621 524.19L805.291 565.86" stroke="black" stroke-width="1.6667" stroke-miterlimit="10" stroke-linecap="round" stroke-linejoin="round"/>
<path d="M805.291 524.19L763.621 565.86" stroke="black" stroke-width="1.6667" stroke-miterlimit="10" stroke-linecap="round" stroke-linejoin="round"/>
<path d="M827.64 606.02H705.65V728.01H827.64V606.02Z" fill="#4FB3F6"/>
<path d="M745.801 646.17L787.471 687.84" stroke="black" stroke-width="1.6667" stroke-miterlimit="10" stroke-linecap="round" stroke-linejoin="round"/>
<path d="M787.471 646.17L745.801 687.84" stroke="black" stroke-width="1.6667" stroke-miterlimit="10" stroke-linecap="round" stroke-linejoin="round"/>
<path d="M705.64 606.02H583.66V728.01H705.64V606.02Z" fill="#163BF3"/>
<path d="M623.82 646.17L665.49 687.84" stroke="black" stroke-width="1.6667" stroke-miterlimit="10" stroke-linecap="round" stroke-linejoin="round"/>
<path d="M665.49 646.17L623.82 687.84" stroke="black" stroke-width="1.6667" stroke-miterlimit="10" stroke-linecap="round" stroke-linejoin="round"/>
<path d="M1559.54 606.02H1437.56V728.01H1559.54V606.02Z" fill="#FF7968"/>
<path d="M1477.72 646.17L1519.39 687.84" stroke="black" stroke-width="1.6667" stroke-miterlimit="10" stroke-linecap="round" stroke-linejoin="round"/>
<path d="M1519.39 646.17L1477.72 687.84" stroke="black" stroke-width="1.6667" stroke-miterlimit="10" stroke-linecap="round" stroke-linejoin="round"/>
<path d="M1473.78 484.24H1351.8V606.23H1473.78V484.24Z" fill="#163BF3"/>
<path d="M1391.96 524.4L1433.63 566.07" stroke="black" stroke-width="1.6667" stroke-miterlimit="10" stroke-linecap="round" stroke-linejoin="round"/>
<path d="M1433.63 524.4L1391.96 566.07" stroke="black" stroke-width="1.6667" stroke-miterlimit="10" stroke-linecap="round" stroke-linejoin="round"/>
<path fill-rule="evenodd" clip-rule="evenodd" d="M662.47 484.03C696.13 484.03 723.47 511.36 723.47 545.02C723.47 578.68 696.14 606.01 662.47 606.01C628.81 606.01 601.48 578.68 601.48 545.02C601.48 511.36 628.81 484.03 662.47 484.03Z" fill="#FF7968"/>
<path d="M641.641 524.19L683.311 565.86" stroke="black" stroke-width="1.6667" stroke-miterlimit="10" stroke-linecap="round" stroke-linejoin="round"/>
<path d="M683.311 524.19L641.641 565.86" stroke="black" stroke-width="1.6667" stroke-miterlimit="10" stroke-linecap="round" stroke-linejoin="round"/>
<path d="M888.621 728C922.305 728 949.611 700.694 949.611 667.01C949.611 633.326 922.305 606.02 888.621 606.02C854.937 606.02 827.631 633.326 827.631 667.01C827.631 700.694 854.937 728 888.621 728Z" fill="#FF7968"/>
<path d="M867.791 646.17L909.461 687.84" stroke="black" stroke-width="1.6667" stroke-miterlimit="10" stroke-linecap="round" stroke-linejoin="round"/>
<path d="M909.461 646.17L867.791 687.84" stroke="black" stroke-width="1.6667" stroke-miterlimit="10" stroke-linecap="round" stroke-linejoin="round"/>
<path d="M1132.6 728C1166.28 728 1193.59 700.694 1193.59 667.01C1193.59 633.326 1166.28 606.02 1132.6 606.02C1098.92 606.02 1071.61 633.326 1071.61 667.01C1071.61 700.694 1098.92 728 1132.6 728Z" fill="#163BF3"/>
<path d="M1111.76 646.17L1153.43 687.84" stroke="black" stroke-width="1.6667" stroke-miterlimit="10" stroke-linecap="round" stroke-linejoin="round"/>
<path d="M1153.43 646.17L1111.76 687.84" stroke="black" stroke-width="1.6667" stroke-miterlimit="10" stroke-linecap="round" stroke-linejoin="round"/>
<path fill-rule="evenodd" clip-rule="evenodd" d="M1376.57 606.02C1410.23 606.02 1437.56 633.35 1437.56 667.01C1437.56 700.67 1410.23 728 1376.57 728C1342.91 728 1315.57 700.67 1315.57 667.01C1315.57 633.34 1342.9 606.02 1376.57 606.02Z" fill="#4FB3F6"/>
<path d="M1355.73 646.17L1397.4 687.84" stroke="black" stroke-width="1.6667" stroke-miterlimit="10" stroke-linecap="round" stroke-linejoin="round"/>
<path d="M1397.4 646.17L1355.73 687.84" stroke="black" stroke-width="1.6667" stroke-miterlimit="10" stroke-linecap="round" stroke-linejoin="round"/>
<path fill-rule="evenodd" clip-rule="evenodd" d="M1620.54 606.02C1654.2 606.02 1681.53 633.35 1681.53 667.01C1681.53 700.67 1654.2 728 1620.54 728C1586.87 728 1559.54 700.67 1559.54 667.01C1559.54 633.34 1586.87 606.02 1620.54 606.02Z" fill="#163BF3"/>
<path d="M1599.7 646.17L1641.37 687.84" stroke="black" stroke-width="1.6667" stroke-miterlimit="10" stroke-linecap="round" stroke-linejoin="round"/>
<path d="M1641.37 646.17L1599.7 687.84" stroke="black" stroke-width="1.6667" stroke-miterlimit="10" stroke-linecap="round" stroke-linejoin="round"/>
<path fill-rule="evenodd" clip-rule="evenodd" d="M1534.78 484.24C1568.44 484.24 1595.77 511.57 1595.77 545.23C1595.77 578.89 1568.44 606.22 1534.78 606.22C1501.12 606.22 1473.78 578.89 1473.78 545.23C1473.78 511.57 1501.12 484.24 1534.78 484.24Z" fill="#4FB3F6"/>
<path d="M1513.94 524.4L1555.61 566.07" stroke="black" stroke-width="1.6667" stroke-miterlimit="10" stroke-linecap="round" stroke-linejoin="round"/>
<path d="M1555.61 524.4L1513.94 566.07" stroke="black" stroke-width="1.6667" stroke-miterlimit="10" stroke-linecap="round" stroke-linejoin="round"/>
<path d="M1412.79 484.24C1446.47 484.24 1473.78 456.934 1473.78 423.25C1473.78 389.566 1446.47 362.26 1412.79 362.26C1379.11 362.26 1351.8 389.566 1351.8 423.25C1351.8 456.934 1379.11 484.24 1412.79 484.24Z" fill="#FF7968"/>
<path d="M1391.96 402.41L1433.63 444.08" stroke="black" stroke-width="1.6667" stroke-miterlimit="10" stroke-linecap="round" stroke-linejoin="round"/>
<path d="M1433.63 402.41L1391.96 444.08" stroke="black" stroke-width="1.6667" stroke-miterlimit="10" stroke-linecap="round" stroke-linejoin="round"/>
<path d="M785.004 484.047C818.688 483.768 845.768 456.235 845.488 422.551C845.209 388.867 817.676 361.788 783.992 362.067C750.308 362.347 723.229 389.879 723.508 423.563C723.788 457.247 751.32 484.327 785.004 484.047Z" fill="#4FB3F6"/>
<path d="M763.619 402.2L805.289 443.87" stroke="black" stroke-width="1.6667" stroke-miterlimit="10" stroke-linecap="round" stroke-linejoin="round"/>
<path d="M805.289 402.2L763.619 443.87" stroke="black" stroke-width="1.6667" stroke-miterlimit="10" stroke-linecap="round" stroke-linejoin="round"/>
<path d="M1071.6 606.02H949.621V728.01H1071.6V606.02Z" fill="#4FB3F6"/>
<path d="M989.771 646.17L1031.45 687.84" stroke="black" stroke-width="1.6667" stroke-miterlimit="10" stroke-linecap="round" stroke-linejoin="round"/>
<path d="M1031.45 646.17L989.771 687.84" stroke="black" stroke-width="1.6667" stroke-miterlimit="10" stroke-linecap="round" stroke-linejoin="round"/>
<path d="M1071.6 606.22H949.621V622.86H1071.6V606.22Z" fill="black"/>
<path d="M1315.57 606.02H1193.59V728.01H1315.57V606.02Z" fill="#FF7968"/>
<path d="M1233.75 646.17L1275.42 687.84" stroke="black" stroke-width="1.6667" stroke-miterlimit="10" stroke-linecap="round" stroke-linejoin="round"/>
<path d="M1275.42 646.17L1233.75 687.84" stroke="black" stroke-width="1.6667" stroke-miterlimit="10" stroke-linecap="round" stroke-linejoin="round"/>
<path d="M1315.57 606.22H1193.59V622.86H1315.57V606.22Z" fill="black"/>
<path fill-rule="evenodd" clip-rule="evenodd" d="M1107.85 -0.110107C1120.02 -0.110107 1129.9 9.7699 1129.9 21.9399C1129.9 34.1099 1120.02 43.9899 1107.85 43.9899C1095.68 43.9899 1085.8 34.1099 1085.8 21.9399C1085.8 9.7699 1095.68 -0.110107 1107.85 -0.110107Z" fill="black"/>
<path fill-rule="evenodd" clip-rule="evenodd" d="M1351.8 138.53C1351.8 118.18 1335.3 101.68 1314.95 101.68H882.299C861.949 101.68 845.449 118.18 845.449 138.53V550.34C845.449 570.69 861.949 587.19 882.299 587.19H1314.94C1335.29 587.19 1351.79 570.69 1351.79 550.34V138.53H1351.8Z" fill="white"/>
<path fill-rule="evenodd" clip-rule="evenodd" d="M1351.8 157.56C1351.8 137.21 1335.3 120.71 1314.95 120.71H882.299C861.949 120.71 845.449 137.21 845.449 157.56V569.37C845.449 589.72 861.949 606.22 882.299 606.22H1314.94C1335.29 606.22 1351.79 589.72 1351.79 569.37V157.56H1351.8Z" fill="#FBBE2E"/>
<path fill-rule="evenodd" clip-rule="evenodd" d="M1304.03 130.88H930.828C925.518 130.88 920.429 132.99 916.669 136.74C907.199 146.21 888.639 164.77 879.169 174.24C875.419 177.99 873.309 183.09 873.309 188.39V532.36H1304.03V130.88Z" fill="white"/>
<path fill-rule="evenodd" clip-rule="evenodd" d="M878.809 174.6C883.209 170.25 889.819 169.17 896.179 169.17H918.409V144.32C918.409 138.03 921.158 132.95 925.198 131.72C920.928 130.96 900.249 153.15 900.249 153.15C900.249 153.15 885.349 168.11 878.809 174.6Z" fill="#B9E2FE"/>
<path fill-rule="evenodd" clip-rule="evenodd" d="M1221.89 100.38C1221.89 95.3198 1219.88 90.4798 1216.31 86.8998C1212.73 83.3298 1207.88 81.3198 1202.83 81.3198H1012.88C1007.83 81.3198 1002.98 83.3298 999.41 86.8998C995.83 90.4698 993.83 95.3198 993.83 100.38V154.64C993.83 159.69 995.83 164.54 999.41 168.12C1002.98 171.69 1007.83 173.7 1012.88 173.7H1202.83C1207.88 173.7 1212.73 171.69 1216.31 168.12C1219.88 164.55 1221.89 159.7 1221.89 154.64V100.38Z" fill="#163BF3"/>
<path d="M1025.2 265.73H1047.35" stroke="black" stroke-width="1.815" stroke-miterlimit="10" stroke-linecap="round" stroke-linejoin="round"/>
<path d="M1025.2 285.91H1221.89" stroke="black" stroke-width="1.815" stroke-miterlimit="10" stroke-linecap="round" stroke-linejoin="round"/>
<path d="M1025.2 356.27H1168.67" stroke="black" stroke-width="1.815" stroke-miterlimit="10" stroke-linecap="round" stroke-linejoin="round"/>
<path d="M1025.2 380.42H1096.93" stroke="black" stroke-width="1.815" stroke-miterlimit="10" stroke-linecap="round" stroke-linejoin="round"/>
<path d="M1025.2 453.4H1214.35" stroke="black" stroke-width="1.815" stroke-miterlimit="10" stroke-linecap="round" stroke-linejoin="round"/>
<path fill-rule="evenodd" clip-rule="evenodd" d="M961.89 255.07C974.06 255.07 983.94 264.95 983.94 277.12C983.94 289.29 974.06 299.17 961.89 299.17C949.72 299.17 939.84 289.29 939.84 277.12C939.83 264.95 949.72 255.07 961.89 255.07Z" fill="#163BF3"/>
<path fill-rule="evenodd" clip-rule="evenodd" d="M961.89 348.53C974.06 348.53 983.94 358.41 983.94 370.58C983.94 382.75 974.06 392.63 961.89 392.63C949.72 392.63 939.84 382.75 939.84 370.58C939.83 358.41 949.72 348.53 961.89 348.53Z" fill="#4FB3F6"/>
<path fill-rule="evenodd" clip-rule="evenodd" d="M961.89 438.84C974.06 438.84 983.94 448.72 983.94 460.89C983.94 473.06 974.06 482.94 961.89 482.94C949.72 482.94 939.84 473.06 939.84 460.89C939.83 448.72 949.72 438.84 961.89 438.84Z" fill="#FF7968"/>
</g>
<defs>
<clipPath id="clip0_463:21332">
<rect width="2206" height="728" fill="white"/>
</clipPath>
</defs>
</svg>
