<svg width="1921" height="1080" viewBox="0 0 1921 1080" fill="none" xmlns="http://www.w3.org/2000/svg">
<g clip-path="url(#clip0_463:22141)">
<path d="M1920.2 0H0.199219V1080H1920.2V0Z" fill="#E3F7ED"/>
<path fill-rule="evenodd" clip-rule="evenodd" d="M0.200738 132.3C87.4007 132.3 250.701 186.1 250.701 290.4C250.701 227.8 361.901 198.3 419.201 238.3C476.501 278.3 447.001 358.1 447.001 358.1C447.001 358.1 528.701 300.8 586.001 349.4C643.301 398 668.001 412.9 710.201 412.9C752.401 412.9 803.901 417.7 803.901 468.7C753.801 518.8 413.401 615.3 413.401 615.3H0.200738C0.200738 615.3 -0.299262 172.5 0.200738 132.3Z" fill="white"/>
<path fill-rule="evenodd" clip-rule="evenodd" d="M439.999 488.4C439.999 483.378 438.011 478.56 434.47 475C430.928 471.44 426.121 469.426 421.099 469.4H19.1992C14.1601 469.4 9.32738 471.402 5.76419 474.965C2.201 478.528 0.199219 483.361 0.199219 488.4V633.5H439.999V488.4Z" fill="#9CE8C2"/>
<path fill-rule="evenodd" clip-rule="evenodd" d="M928.4 487.6C928.373 482.578 926.36 477.771 922.799 474.23C919.239 470.688 914.421 468.7 909.4 468.7H507.6C502.578 468.7 497.76 470.688 494.2 474.23C490.639 477.771 488.626 482.578 488.6 487.6V632.8H928.4V487.6Z" fill="#9CE8C2"/>
<path fill-rule="evenodd" clip-rule="evenodd" d="M1148.3 492.6C1118.12 476.904 1084.61 468.706 1050.6 468.7H977V632.8H1322.7C1327.84 632.77 1332.83 631.024 1336.87 627.839C1340.91 624.654 1343.77 620.212 1344.99 615.218C1346.22 610.224 1345.75 604.962 1343.65 600.267C1341.55 595.572 1337.94 591.713 1333.4 589.3L1148.3 492.6Z" fill="#9CE8C2"/>
<path d="M488.6 469.4H440V633.52H488.6V469.4Z" fill="#24A865"/>
<path d="M450.001 469.4H447.301V633.52H450.001V469.4Z" fill="black"/>
<path d="M465.7 469.4H463V633.52H465.7V469.4Z" fill="black"/>
<path d="M457.8 469.4H455.1V633.52H457.8V469.4Z" fill="black"/>
<path d="M473.501 469.4H470.801V633.52H473.501V469.4Z" fill="black"/>
<path d="M481.3 469.4H478.6V633.52H481.3V469.4Z" fill="black"/>
<path d="M977 469.4H928.4V633.52H977V469.4Z" fill="#24A865"/>
<path d="M1920.2 663.4H0.199219V705.56H1920.2V663.4Z" fill="#24A865"/>
<path d="M938.399 469.4H935.699V633.52H938.399V469.4Z" fill="black"/>
<path d="M954.001 469.4H951.301V633.52H954.001V469.4Z" fill="black"/>
<path d="M946.2 469.4H943.5V633.52H946.2V469.4Z" fill="black"/>
<path d="M961.899 469.4H959.199V633.52H961.899V469.4Z" fill="black"/>
<path d="M969.7 469.4H967V633.52H969.7V469.4Z" fill="black"/>
<path d="M868.699 496.4H739.099C729.766 496.4 722.199 503.966 722.199 513.3V544.07C722.199 553.404 729.766 560.97 739.099 560.97H868.699C878.033 560.97 885.599 553.404 885.599 544.07V513.3C885.599 503.966 878.033 496.4 868.699 496.4Z" fill="white"/>
<path fill-rule="evenodd" clip-rule="evenodd" d="M1050.9 513.3C1050.91 511.077 1050.48 508.873 1049.64 506.817C1048.8 504.761 1047.55 502.892 1045.98 501.32C1044.41 499.748 1042.54 498.504 1040.48 497.659C1038.43 496.815 1036.22 496.387 1034 496.4H1021.7C1019.48 496.387 1017.27 496.815 1015.22 497.659C1013.16 498.504 1011.29 499.748 1009.72 501.32C1008.15 502.892 1006.9 504.761 1006.06 506.817C1005.21 508.873 1004.79 511.077 1004.8 513.3V544C1004.79 546.223 1005.21 548.427 1006.06 550.483C1006.9 552.539 1008.15 554.408 1009.72 555.98C1011.29 557.552 1013.16 558.796 1015.22 559.641C1017.27 560.485 1019.48 560.913 1021.7 560.9H1034C1036.22 560.913 1038.43 560.485 1040.48 559.641C1042.54 558.796 1044.41 557.552 1045.98 555.98C1047.55 554.408 1048.8 552.539 1049.64 550.483C1050.48 548.427 1050.91 546.223 1050.9 544V513.3Z" fill="white"/>
<path d="M380.301 496.4H250.701C241.367 496.4 233.801 503.966 233.801 513.3V544.07C233.801 553.404 241.367 560.97 250.701 560.97H380.301C389.634 560.97 397.201 553.404 397.201 544.07V513.3C397.201 503.966 389.634 496.4 380.301 496.4Z" fill="white"/>
<path fill-rule="evenodd" clip-rule="evenodd" d="M694.8 513.3C694.8 508.818 693.02 504.519 689.85 501.35C686.681 498.18 682.383 496.4 677.9 496.4H548.3C543.818 496.4 539.52 498.18 536.35 501.35C533.181 504.519 531.4 508.818 531.4 513.3V544C531.4 548.482 533.181 552.781 536.35 555.95C539.52 559.119 543.818 560.9 548.3 560.9H677.9C682.383 560.9 686.681 559.119 689.85 555.95C693.02 552.781 694.8 548.482 694.8 544V513.3Z" fill="white"/>
<path d="M189.5 496.4H59.9C50.5664 496.4 43 503.966 43 513.3V544.07C43 553.404 50.5664 560.97 59.9 560.97H189.5C198.834 560.97 206.4 553.404 206.4 544.07V513.3C206.4 503.966 198.834 496.4 189.5 496.4Z" fill="white"/>
<path fill-rule="evenodd" clip-rule="evenodd" d="M1155.4 496.4H1097.7C1093.67 496.4 1089.8 498.001 1086.95 500.852C1084.1 503.702 1082.5 507.569 1082.5 511.6V545.7C1082.5 549.731 1084.1 553.597 1086.95 556.448C1089.8 559.298 1093.67 560.9 1097.7 560.9H1279.1L1155.4 496.4Z" fill="white"/>
<path d="M1279.1 632.8H0.199219V646.68H1279.1V632.8Z" fill="#24A865"/>
<path fill-rule="evenodd" clip-rule="evenodd" d="M1205.4 646.7C1207.6 646.7 1209.71 647.574 1211.27 649.131C1212.83 650.688 1213.7 652.799 1213.7 655C1213.7 657.211 1212.83 659.332 1211.28 660.905C1209.72 662.477 1207.61 663.374 1205.4 663.4C1203.18 663.374 1201.06 662.481 1199.49 660.911C1197.92 659.341 1197.03 657.22 1197 655C1197.03 652.789 1197.92 650.678 1199.5 649.125C1201.07 647.571 1203.19 646.7 1205.4 646.7Z" fill="#24A865"/>
<path fill-rule="evenodd" clip-rule="evenodd" d="M1042.3 646.7C1044.5 646.7 1046.61 647.574 1048.17 649.131C1049.73 650.688 1050.6 652.799 1050.6 655C1050.6 657.211 1049.73 659.332 1048.18 660.905C1046.62 662.477 1044.51 663.374 1042.3 663.4C1040.08 663.374 1037.96 662.481 1036.39 660.911C1034.82 659.341 1033.93 657.22 1033.9 655C1033.93 652.789 1034.82 650.678 1036.4 649.125C1037.97 647.571 1040.09 646.7 1042.3 646.7Z" fill="#24A865"/>
<path fill-rule="evenodd" clip-rule="evenodd" d="M849.999 646.7C852.21 646.7 854.331 647.571 855.904 649.125C857.476 650.678 858.373 652.789 858.399 655C858.373 657.22 857.48 659.341 855.91 660.911C854.341 662.481 852.219 663.374 849.999 663.4C847.789 663.374 845.678 662.477 844.124 660.905C842.57 659.332 841.699 657.211 841.699 655C841.699 652.799 842.574 650.688 844.13 649.131C845.687 647.574 847.798 646.7 849.999 646.7Z" fill="#24A865"/>
<path fill-rule="evenodd" clip-rule="evenodd" d="M592.601 646.7C594.811 646.7 596.933 647.571 598.505 649.125C600.078 650.678 600.974 652.789 601.001 655C600.975 657.22 600.081 659.341 598.512 660.911C596.942 662.481 594.821 663.374 592.601 663.4C590.39 663.374 588.279 662.477 586.726 660.905C585.172 659.332 584.301 657.211 584.301 655C584.301 652.799 585.175 650.688 586.732 649.131C588.288 647.574 590.399 646.7 592.601 646.7Z" fill="#24A865"/>
<path fill-rule="evenodd" clip-rule="evenodd" d="M367.8 646.7C368.89 646.7 369.97 646.915 370.977 647.332C371.984 647.749 372.899 648.36 373.669 649.131C374.44 649.902 375.051 650.817 375.469 651.824C375.886 652.831 376.1 653.91 376.1 655C376.101 657.211 375.229 659.332 373.676 660.905C372.122 662.477 370.011 663.374 367.8 663.4C365.581 663.374 363.459 662.481 361.889 660.911C360.32 659.341 359.426 657.22 359.4 655C359.427 652.789 360.323 650.678 361.896 649.125C363.468 647.571 365.59 646.7 367.8 646.7Z" fill="#24A865"/>
<path fill-rule="evenodd" clip-rule="evenodd" d="M101.9 646.7C104.11 646.7 106.232 647.571 107.804 649.125C109.377 650.678 110.273 652.789 110.3 655C110.274 657.22 109.38 659.341 107.811 660.911C106.241 662.481 104.119 663.374 101.9 663.4C99.6892 663.374 97.5782 662.477 96.0245 660.905C94.4707 659.332 93.5995 657.211 93.5996 655C93.5996 652.799 94.4741 650.688 96.0306 649.131C97.5872 647.574 99.6983 646.7 101.9 646.7Z" fill="#24A865"/>
<path fill-rule="evenodd" clip-rule="evenodd" d="M1176.4 646.7C1177.5 646.687 1178.59 646.892 1179.61 647.303C1180.63 647.714 1181.55 648.323 1182.33 649.095C1183.12 649.867 1183.74 650.787 1184.16 651.801C1184.58 652.814 1184.8 653.902 1184.8 655C1184.93 656.173 1184.81 657.361 1184.45 658.484C1184.09 659.608 1183.49 660.643 1182.71 661.522C1181.92 662.401 1180.95 663.104 1179.88 663.585C1178.8 664.066 1177.63 664.315 1176.45 664.315C1175.27 664.315 1174.1 664.066 1173.03 663.585C1171.95 663.104 1170.98 662.401 1170.2 661.522C1169.41 660.643 1168.81 659.608 1168.45 658.484C1168.09 657.361 1167.97 656.173 1168.1 655C1168.1 652.799 1168.98 650.688 1170.53 649.131C1172.09 647.575 1174.2 646.7 1176.4 646.7Z" fill="#24A865"/>
<path fill-rule="evenodd" clip-rule="evenodd" d="M1013.4 646.7C1015.6 646.7 1017.71 647.574 1019.27 649.131C1020.83 650.688 1021.7 652.799 1021.7 655C1021.7 657.211 1020.83 659.332 1019.28 660.905C1017.72 662.477 1015.61 663.374 1013.4 663.4C1011.18 663.374 1009.06 662.481 1007.49 660.911C1005.92 659.341 1005.03 657.22 1005 655C1005.03 652.789 1005.92 650.678 1007.5 649.125C1009.07 647.571 1011.19 646.7 1013.4 646.7Z" fill="#24A865"/>
<path fill-rule="evenodd" clip-rule="evenodd" d="M821.101 646.7C823.311 646.7 825.433 647.571 827.005 649.125C828.578 650.678 829.474 652.789 829.501 655C829.475 657.22 828.581 659.341 827.012 660.911C825.442 662.481 823.321 663.374 821.101 663.4C818.89 663.374 816.779 662.477 815.226 660.905C813.672 659.332 812.801 657.211 812.801 655C812.801 652.799 813.675 650.688 815.232 649.131C816.788 647.574 818.899 646.7 821.101 646.7Z" fill="#24A865"/>
<path fill-rule="evenodd" clip-rule="evenodd" d="M563.701 646.7C565.902 646.7 568.013 647.574 569.57 649.131C571.126 650.688 572.001 652.799 572.001 655C572.001 657.211 571.13 659.332 569.576 660.905C568.022 662.477 565.911 663.374 563.701 663.4C561.481 663.374 559.36 662.481 557.79 660.911C556.22 659.341 555.327 657.22 555.301 655C555.327 652.789 556.224 650.678 557.796 649.125C559.369 647.571 561.49 646.7 563.701 646.7Z" fill="#24A865"/>
<path fill-rule="evenodd" clip-rule="evenodd" d="M338.799 646.7C339.898 646.687 340.988 646.892 342.006 647.303C343.025 647.714 343.952 648.323 344.733 649.095C345.514 649.867 346.135 650.787 346.558 651.801C346.981 652.814 347.199 653.902 347.199 655C347.328 656.173 347.208 657.361 346.847 658.484C346.486 659.608 345.892 660.643 345.104 661.522C344.316 662.401 343.352 663.104 342.274 663.585C341.197 664.066 340.03 664.315 338.849 664.315C337.669 664.315 336.502 664.066 335.424 663.585C334.346 663.104 333.382 662.401 332.594 661.522C331.807 660.643 331.213 659.608 330.852 658.484C330.491 657.361 330.371 656.173 330.499 655C330.499 652.799 331.374 650.688 332.93 649.131C334.487 647.575 336.598 646.7 338.799 646.7Z" fill="#24A865"/>
<path fill-rule="evenodd" clip-rule="evenodd" d="M72.9992 646.7C75.2098 646.7 77.3314 647.571 78.9038 649.125C80.4763 650.678 81.3729 652.789 81.3992 655C81.3733 657.22 80.4799 659.341 78.9102 660.911C77.3405 662.481 75.219 663.374 72.9992 663.4C70.7888 663.374 68.6778 662.477 67.1241 660.905C65.5703 659.332 64.6991 657.211 64.6992 655C64.6992 652.799 65.5737 650.688 67.1302 649.131C68.6868 647.574 70.7979 646.7 72.9992 646.7Z" fill="#24A865"/>
<path fill-rule="evenodd" clip-rule="evenodd" d="M278.6 1080V705.5H81.4004C124.349 705.553 165.524 722.638 195.893 753.007C226.263 783.377 243.347 824.551 243.4 867.5V1080H278.6Z" fill="#24A865"/>
<path fill-rule="evenodd" clip-rule="evenodd" d="M1020.4 1080V705.5H823.199C866.148 705.553 907.323 722.638 937.692 753.007C968.062 783.377 985.146 824.551 985.199 867.5V1080H1020.4Z" fill="#24A865"/>
<path fill-rule="evenodd" clip-rule="evenodd" d="M643.001 1080V705.5H445.801C488.75 705.553 529.924 722.638 560.294 753.007C590.663 783.377 607.748 824.551 607.801 867.5V1080H643.001Z" fill="#24A865"/>
<path fill-rule="evenodd" clip-rule="evenodd" d="M1384.8 1080V705.5H1187.6C1230.55 705.553 1271.72 722.638 1302.09 753.007C1332.46 783.377 1349.55 824.551 1349.6 867.5V1080H1384.8Z" fill="#24A865"/>
<path fill-rule="evenodd" clip-rule="evenodd" d="M1753 1080V705.5H1555.8C1598.77 705.5 1639.97 722.568 1670.35 752.949C1700.73 783.33 1717.8 824.535 1717.8 867.5V1080H1753Z" fill="#24A865"/>
<path fill-rule="evenodd" clip-rule="evenodd" d="M248.6 1080V705.5H445.8C402.835 705.5 361.629 722.568 331.248 752.949C300.867 783.33 283.8 824.535 283.8 867.5V1080H248.6Z" fill="#24A865"/>
<path fill-rule="evenodd" clip-rule="evenodd" d="M990.4 1080V705.5H1187.6C1144.64 705.5 1103.43 722.568 1073.05 752.949C1042.67 783.33 1025.6 824.535 1025.6 867.5V1080H990.4Z" fill="#24A865"/>
<path fill-rule="evenodd" clip-rule="evenodd" d="M613 1080V705.5H810.2C767.251 705.553 726.077 722.638 695.707 753.007C665.338 783.377 648.253 824.551 648.2 867.5V1080H613Z" fill="#24A865"/>
<path fill-rule="evenodd" clip-rule="evenodd" d="M1354.8 1080V705.5H1552C1509.05 705.553 1467.88 722.638 1437.51 753.007C1407.14 783.377 1390.05 824.551 1390 867.5V1080H1354.8Z" fill="#24A865"/>
<path fill-rule="evenodd" clip-rule="evenodd" d="M1723 1080V705.5H1920.2C1877.25 705.553 1836.08 722.638 1805.71 753.007C1775.34 783.377 1758.25 824.551 1758.2 867.5V1080H1723Z" fill="#24A865"/>
<path fill-rule="evenodd" clip-rule="evenodd" d="M171.3 732.8C144.701 714.992 113.41 705.49 81.4004 705.5H445.8C413.759 705.488 382.435 714.989 355.8 732.8H171.3Z" fill="black"/>
<path fill-rule="evenodd" clip-rule="evenodd" d="M913.099 732.8C886.5 714.992 855.209 705.49 823.199 705.5H1187.6C1155.56 705.488 1124.23 714.989 1097.6 732.8H913.099Z" fill="black"/>
<path fill-rule="evenodd" clip-rule="evenodd" d="M535.801 732.8C509.158 715.006 477.839 705.506 445.801 705.5H810.201C778.159 705.488 746.836 714.989 720.201 732.8H535.801Z" fill="black"/>
<path fill-rule="evenodd" clip-rule="evenodd" d="M1277.6 732.8C1250.96 715.006 1219.64 705.506 1187.6 705.5H1552C1519.96 705.488 1488.63 714.989 1462 732.8H1277.6Z" fill="black"/>
<path fill-rule="evenodd" clip-rule="evenodd" d="M1645.8 732.8C1619.17 714.989 1587.84 705.488 1555.8 705.5H1920.2C1888.19 705.49 1856.9 714.992 1830.3 732.8H1645.8Z" fill="black"/>
<path fill-rule="evenodd" clip-rule="evenodd" d="M618.1 496.4H603L563.6 560.9H578.7L618.1 496.4Z" fill="#E3F7ED"/>
<path fill-rule="evenodd" clip-rule="evenodd" d="M127.5 496.4H112.4L73 560.9H88.1L127.5 496.4Z" fill="#E3F7ED"/>
<path fill-rule="evenodd" clip-rule="evenodd" d="M817.301 496.4H802.201L762.801 560.9H777.801L817.301 496.4Z" fill="#E3F7ED"/>
<path fill-rule="evenodd" clip-rule="evenodd" d="M326.599 496.4H311.599L272.199 560.9H287.199L326.599 496.4Z" fill="#E3F7ED"/>
<path fill-rule="evenodd" clip-rule="evenodd" d="M642.499 496.4H634.099L594.699 560.9H602.999L642.499 496.4Z" fill="#E3F7ED"/>
<path fill-rule="evenodd" clip-rule="evenodd" d="M151.8 496.4H143.5L104.1 560.9H112.4L151.8 496.4Z" fill="#E3F7ED"/>
<path fill-rule="evenodd" clip-rule="evenodd" d="M841.6 496.4H833.3L793.9 560.9H802.2L841.6 496.4Z" fill="#E3F7ED"/>
<path fill-rule="evenodd" clip-rule="evenodd" d="M351.001 496.4H342.701L303.301 560.9H311.601L351.001 496.4Z" fill="#E3F7ED"/>
<path d="M184.3 340.5H171.9V395.23H184.3V340.5Z" fill="#9CE8C2"/>
<path d="M205.399 361.6H150.699V373.99H205.399V361.6Z" fill="#9CE8C2"/>
<path d="M427.3 393.8H419.4V428.79H427.3V393.8Z" fill="#9CE8C2"/>
<path d="M440.9 407.4H405.9V415.32H440.9V407.4Z" fill="#9CE8C2"/>
<path d="M156.599 231.7H148.699V266.69H156.599V231.7Z" fill="#9CE8C2"/>
<path d="M170.199 245.2H135.199V253.12H170.199V245.2Z" fill="#9CE8C2"/>
<path d="M290.101 411.3H285.301V432.39H290.101V411.3Z" fill="#9CE8C2"/>
<path d="M298.299 419.5H277.199V424.28H298.299V419.5Z" fill="#9CE8C2"/>
<path d="M328.999 324.2H324.199V345.29H328.999V324.2Z" fill="#9CE8C2"/>
<path d="M337.2 332.3H316.1V337.08H337.2V332.3Z" fill="#9CE8C2"/>
<path d="M67.4992 398.9H62.6992V419.99H67.4992V398.9Z" fill="#9CE8C2"/>
<path d="M75.6 407.1H54.5V411.88H75.6V407.1Z" fill="#9CE8C2"/>
</g>
<defs>
<clipPath id="clip0_463:22141">
<rect width="1920.2" height="1080" fill="white"/>
</clipPath>
</defs>
</svg>
