<svg width="1809" height="693" viewBox="0 0 1809 693" fill="none" xmlns="http://www.w3.org/2000/svg">
<g clip-path="url(#clip0_463:21430)">
<path fill-rule="evenodd" clip-rule="evenodd" d="M1808.36 276.19C1792.63 276.29 1779.88 289.04 1779.79 304.76V304.94C1779.79 289.07 1766.9 276.18 1751.03 276.18C1766.91 276.18 1779.79 263.29 1779.79 247.42V247.61C1779.89 263.4 1792.74 276.19 1808.55 276.19H1808.36Z" fill="white"/>
<path fill-rule="evenodd" clip-rule="evenodd" d="M1557.46 534.36C1541.73 534.46 1528.98 547.21 1528.89 562.93V563.12C1528.89 547.25 1516 534.36 1500.13 534.36C1516 534.36 1528.89 521.47 1528.89 505.6V505.79C1528.99 521.58 1541.84 534.37 1557.65 534.37L1557.46 534.36Z" fill="white"/>
<path fill-rule="evenodd" clip-rule="evenodd" d="M1535.12 121.05C1519.39 121.15 1506.64 133.9 1506.55 149.63V149.82C1506.55 133.95 1493.66 121.06 1477.79 121.06C1493.67 121.06 1506.55 108.17 1506.55 92.3V92.4901C1506.65 108.28 1519.5 121.06 1535.31 121.06H1535.12V121.05Z" fill="white"/>
<path fill-rule="evenodd" clip-rule="evenodd" d="M419.32 87.1001C403.6 87.2001 390.85 99.9501 390.74 115.68V115.87C390.74 100 377.849 87.1101 361.979 87.1101C377.859 87.1101 390.74 74.2201 390.74 58.3501V58.5301C390.84 74.3201 403.69 87.1101 419.5 87.1101H419.32V87.1001Z" fill="white"/>
<path fill-rule="evenodd" clip-rule="evenodd" d="M259.44 370.56C243.71 370.66 230.97 383.41 230.86 399.14V399.33C230.86 383.46 217.97 370.57 202.1 370.57C217.98 370.57 230.86 357.68 230.86 341.81V342C230.96 357.79 243.81 370.57 259.62 370.57L259.44 370.56Z" fill="white"/>
<path fill-rule="evenodd" clip-rule="evenodd" d="M57.6698 274.21C41.9498 274.31 29.1899 287.06 29.0999 302.79V302.98C29.0999 287.11 16.2098 274.22 0.339844 274.22C16.2198 274.22 29.0999 261.33 29.0999 245.46V245.65C29.1999 261.44 42.0498 274.22 57.8598 274.22H57.6698V274.21Z" fill="white"/>
<path d="M813.95 30.8601H782.66V62.1501H813.95V30.8601Z" fill="#5B3100"/>
<path d="M845.24 -0.419922H813.95V30.8701H845.24V-0.419922Z" fill="#FBBE2E"/>
<path d="M1336.67 323.67H1305.38V354.96H1336.67V323.67Z" fill="#FBBE2E"/>
<path d="M713.68 479.73H682.39V511.02H713.68V479.73Z" fill="#FBBE2E"/>
<path d="M251.07 456.07H219.78V487.36H251.07V456.07Z" fill="#FBBE2E"/>
<path d="M191.75 244.84C232.763 244.84 266.01 211.593 266.01 170.58C266.01 129.567 232.763 96.3201 191.75 96.3201C150.738 96.3201 117.49 129.567 117.49 170.58C117.49 211.593 150.738 244.84 191.75 244.84Z" fill="#B9E2FE"/>
<path fill-rule="evenodd" clip-rule="evenodd" d="M191.75 96.3201C150.74 96.3201 117.49 129.57 117.49 170.58C117.49 190.28 125.31 209.16 139.24 223.09L191.75 170.58V96.3201Z" fill="#FF341A"/>
<path fill-rule="evenodd" clip-rule="evenodd" d="M191.75 96.3201C163.48 96.3201 137.66 112.37 125.15 137.73L191.75 170.58V96.3201Z" fill="#5B3100"/>
<path d="M350.8 282.27H556.03" stroke="#5B3100" stroke-width="1.8333" stroke-miterlimit="10" stroke-linecap="round" stroke-linejoin="round"/>
<path d="M350.8 314.67H556.03" stroke="#5B3100" stroke-width="1.8333" stroke-miterlimit="10" stroke-linecap="round" stroke-linejoin="round"/>
<path d="M350.8 356.21H556.03" stroke="#5B3100" stroke-width="1.8333" stroke-miterlimit="10" stroke-linecap="round" stroke-linejoin="round"/>
<path d="M350.8 388.32H556.03" stroke="#5B3100" stroke-width="1.8333" stroke-miterlimit="10" stroke-linecap="round" stroke-linejoin="round"/>
<path d="M350.8 422.77H556.03" stroke="#5B3100" stroke-width="1.8333" stroke-miterlimit="10" stroke-linecap="round" stroke-linejoin="round"/>
<path d="M350.8 457.26H556.03" stroke="#5B3100" stroke-width="1.8333" stroke-miterlimit="10" stroke-linecap="round" stroke-linejoin="round"/>
<path d="M350.8 489.66H556.03" stroke="#5B3100" stroke-width="1.8333" stroke-miterlimit="10" stroke-linecap="round" stroke-linejoin="round"/>
<path d="M366.525 183.043C367.534 178.764 364.884 174.477 360.605 173.467C356.326 172.458 352.039 175.108 351.03 179.387C350.02 183.666 352.671 187.953 356.95 188.962C361.228 189.972 365.515 187.321 366.525 183.043Z" fill="#0089E3"/>
<path fill-rule="evenodd" clip-rule="evenodd" d="M358.76 348.25C363.16 348.25 366.72 351.82 366.72 356.21C366.72 360.6 363.15 364.17 358.76 364.17C354.37 364.17 350.8 360.6 350.8 356.21C350.8 351.82 354.37 348.25 358.76 348.25Z" fill="#0089E3"/>
<path d="M364.382 218.961C367.49 215.853 367.49 210.813 364.382 207.704C361.273 204.596 356.233 204.596 353.125 207.704C350.016 210.813 350.016 215.853 353.125 218.961C356.233 222.07 361.273 222.07 364.382 218.961Z" fill="#0089E3"/>
<path fill-rule="evenodd" clip-rule="evenodd" d="M358.76 380.36C363.16 380.36 366.72 383.93 366.72 388.32C366.72 392.71 363.15 396.28 358.76 396.28C354.37 396.28 350.8 392.71 350.8 388.32C350.8 383.93 354.37 380.36 358.76 380.36Z" fill="#0089E3"/>
<path d="M362.96 254.587C366.698 252.273 367.852 247.367 365.539 243.629C363.225 239.891 358.319 238.736 354.581 241.05C350.843 243.364 349.688 248.27 352.002 252.008C354.316 255.746 359.222 256.901 362.96 254.587Z" fill="#0089E3"/>
<path fill-rule="evenodd" clip-rule="evenodd" d="M358.76 414.81C363.16 414.81 366.72 418.38 366.72 422.77C366.72 427.16 363.15 430.73 358.76 430.73C354.37 430.73 350.8 427.16 350.8 422.77C350.8 418.38 354.37 414.81 358.76 414.81Z" fill="#0089E3"/>
<path d="M362.958 289.078C366.696 286.764 367.85 281.858 365.537 278.12C363.223 274.382 358.317 273.228 354.579 275.541C350.841 277.855 349.686 282.761 352 286.499C354.314 290.237 359.22 291.392 362.958 289.078Z" fill="#0089E3"/>
<path fill-rule="evenodd" clip-rule="evenodd" d="M358.76 449.3C363.16 449.3 366.72 452.87 366.72 457.26C366.72 461.65 363.15 465.22 358.76 465.22C354.37 465.22 350.8 461.65 350.8 457.26C350.8 452.87 354.37 449.3 358.76 449.3Z" fill="#0089E3"/>
<path d="M362.957 321.479C366.695 319.165 367.849 314.259 365.536 310.521C363.222 306.783 358.316 305.629 354.578 307.942C350.84 310.256 349.685 315.162 351.999 318.9C354.313 322.638 359.219 323.793 362.957 321.479Z" fill="#0089E3"/>
<path fill-rule="evenodd" clip-rule="evenodd" d="M358.76 481.7C363.16 481.7 366.72 485.27 366.72 489.66C366.72 494.05 363.15 497.62 358.76 497.62C354.37 497.62 350.8 494.05 350.8 489.66C350.8 485.27 354.37 481.7 358.76 481.7Z" fill="#0089E3"/>
<path d="M438.391 189.18C442.787 189.18 446.351 185.616 446.351 181.22C446.351 176.824 442.787 173.26 438.391 173.26C433.994 173.26 430.431 176.824 430.431 181.22C430.431 185.616 433.994 189.18 438.391 189.18Z" fill="#0089E3"/>
<path fill-rule="evenodd" clip-rule="evenodd" d="M438.391 348.25C442.791 348.25 446.351 351.82 446.351 356.21C446.351 360.6 442.781 364.17 438.391 364.17C433.991 364.17 430.431 360.6 430.431 356.21C430.421 351.82 433.991 348.25 438.391 348.25Z" fill="#0089E3"/>
<path d="M438.391 221.29C442.787 221.29 446.351 217.726 446.351 213.33C446.351 208.934 442.787 205.37 438.391 205.37C433.994 205.37 430.431 208.934 430.431 213.33C430.431 217.726 433.994 221.29 438.391 221.29Z" fill="#0089E3"/>
<path fill-rule="evenodd" clip-rule="evenodd" d="M438.391 380.36C442.791 380.36 446.351 383.93 446.351 388.32C446.351 392.71 442.781 396.28 438.391 396.28C433.991 396.28 430.431 392.71 430.431 388.32C430.421 383.93 433.991 380.36 438.391 380.36Z" fill="#0089E3"/>
<path d="M438.391 255.74C442.787 255.74 446.351 252.176 446.351 247.78C446.351 243.384 442.787 239.82 438.391 239.82C433.994 239.82 430.431 243.384 430.431 247.78C430.431 252.176 433.994 255.74 438.391 255.74Z" fill="#0089E3"/>
<path fill-rule="evenodd" clip-rule="evenodd" d="M438.391 414.81C442.791 414.81 446.351 418.38 446.351 422.77C446.351 427.16 442.781 430.73 438.391 430.73C433.991 430.73 430.431 427.16 430.431 422.77C430.421 418.38 433.991 414.81 438.391 414.81Z" fill="#0089E3"/>
<path d="M438.391 290.23C442.787 290.23 446.351 286.666 446.351 282.27C446.351 277.874 442.787 274.31 438.391 274.31C433.994 274.31 430.431 277.874 430.431 282.27C430.431 286.666 433.994 290.23 438.391 290.23Z" fill="#0089E3"/>
<path fill-rule="evenodd" clip-rule="evenodd" d="M438.391 449.3C442.791 449.3 446.351 452.87 446.351 457.26C446.351 461.65 442.781 465.22 438.391 465.22C433.991 465.22 430.431 461.65 430.431 457.26C430.421 452.87 433.991 449.3 438.391 449.3Z" fill="#0089E3"/>
<path d="M438.391 322.63C442.787 322.63 446.351 319.066 446.351 314.67C446.351 310.274 442.787 306.71 438.391 306.71C433.994 306.71 430.431 310.274 430.431 314.67C430.431 319.066 433.994 322.63 438.391 322.63Z" fill="#0089E3"/>
<path fill-rule="evenodd" clip-rule="evenodd" d="M438.391 481.7C442.791 481.7 446.351 485.27 446.351 489.66C446.351 494.05 442.781 497.62 438.391 497.62C433.991 497.62 430.431 494.05 430.431 489.66C430.421 485.27 433.991 481.7 438.391 481.7Z" fill="#0089E3"/>
<path fill-rule="evenodd" clip-rule="evenodd" d="M390.61 173.26C395.01 173.26 398.58 176.83 398.58 181.22C398.58 185.62 395.01 189.18 390.61 189.18C386.22 189.18 382.65 185.61 382.65 181.22C382.65 176.83 386.22 173.26 390.61 173.26Z" fill="#0089E3"/>
<path fill-rule="evenodd" clip-rule="evenodd" d="M390.61 348.25C395.01 348.25 398.58 351.82 398.58 356.21C398.58 360.6 395.01 364.17 390.61 364.17C386.22 364.17 382.65 360.6 382.65 356.21C382.65 351.82 386.22 348.25 390.61 348.25Z" fill="#0089E3"/>
<path fill-rule="evenodd" clip-rule="evenodd" d="M390.61 205.37C395.01 205.37 398.58 208.94 398.58 213.33C398.58 217.73 395.01 221.29 390.61 221.29C386.22 221.29 382.65 217.72 382.65 213.33C382.65 208.93 386.22 205.37 390.61 205.37Z" fill="#0089E3"/>
<path fill-rule="evenodd" clip-rule="evenodd" d="M390.61 380.36C395.01 380.36 398.58 383.93 398.58 388.32C398.58 392.71 395.01 396.28 390.61 396.28C386.22 396.28 382.65 392.71 382.65 388.32C382.65 383.93 386.22 380.36 390.61 380.36Z" fill="#0089E3"/>
<path fill-rule="evenodd" clip-rule="evenodd" d="M390.61 239.82C395.01 239.82 398.58 243.39 398.58 247.78C398.58 252.17 395.01 255.74 390.61 255.74C386.22 255.74 382.65 252.17 382.65 247.78C382.65 243.39 386.22 239.82 390.61 239.82Z" fill="#0089E3"/>
<path fill-rule="evenodd" clip-rule="evenodd" d="M390.61 414.81C395.01 414.81 398.58 418.38 398.58 422.77C398.58 427.16 395.01 430.73 390.61 430.73C386.22 430.73 382.65 427.16 382.65 422.77C382.65 418.38 386.22 414.81 390.61 414.81Z" fill="#0089E3"/>
<path fill-rule="evenodd" clip-rule="evenodd" d="M390.61 274.31C395.01 274.31 398.58 277.88 398.58 282.27C398.58 286.66 395.01 290.23 390.61 290.23C386.22 290.23 382.65 286.66 382.65 282.27C382.65 277.88 386.22 274.31 390.61 274.31Z" fill="#0089E3"/>
<path fill-rule="evenodd" clip-rule="evenodd" d="M390.61 449.3C395.01 449.3 398.58 452.87 398.58 457.26C398.58 461.65 395.01 465.22 390.61 465.22C386.22 465.22 382.65 461.65 382.65 457.26C382.65 452.87 386.22 449.3 390.61 449.3Z" fill="#0089E3"/>
<path fill-rule="evenodd" clip-rule="evenodd" d="M390.61 306.71C395.01 306.71 398.58 310.28 398.58 314.67C398.58 319.07 395.01 322.63 390.61 322.63C386.22 322.63 382.65 319.06 382.65 314.67C382.65 310.28 386.22 306.71 390.61 306.71Z" fill="#0089E3"/>
<path fill-rule="evenodd" clip-rule="evenodd" d="M390.61 481.7C395.01 481.7 398.58 485.27 398.58 489.66C398.58 494.05 395.01 497.62 390.61 497.62C386.22 497.62 382.65 494.05 382.65 489.66C382.65 485.27 386.22 481.7 390.61 481.7Z" fill="#0089E3"/>
<path d="M475.859 186.852C478.968 183.744 478.968 178.704 475.859 175.595C472.751 172.487 467.711 172.487 464.602 175.595C461.494 178.704 461.494 183.744 464.602 186.852C467.711 189.961 472.751 189.961 475.859 186.852Z" fill="#0089E3"/>
<path fill-rule="evenodd" clip-rule="evenodd" d="M470.24 348.25C474.64 348.25 478.2 351.82 478.2 356.21C478.2 360.6 474.63 364.17 470.24 364.17C465.84 364.17 462.28 360.6 462.28 356.21C462.28 351.82 465.84 348.25 470.24 348.25Z" fill="#0089E3"/>
<path d="M477.959 215.158C478.97 210.88 476.321 206.592 472.042 205.582C467.764 204.571 463.476 207.22 462.466 211.498C461.455 215.777 464.104 220.064 468.382 221.075C472.661 222.086 476.948 219.437 477.959 215.158Z" fill="#0089E3"/>
<path fill-rule="evenodd" clip-rule="evenodd" d="M470.24 380.36C474.64 380.36 478.2 383.93 478.2 388.32C478.2 392.71 474.63 396.28 470.24 396.28C465.84 396.28 462.28 392.71 462.28 388.32C462.28 383.93 465.84 380.36 470.24 380.36Z" fill="#0089E3"/>
<path d="M478.019 249.307C478.85 244.99 476.025 240.816 471.709 239.985C467.392 239.153 463.219 241.978 462.387 246.294C461.555 250.611 464.38 254.785 468.697 255.616C473.013 256.448 477.187 253.623 478.019 249.307Z" fill="#0089E3"/>
<path fill-rule="evenodd" clip-rule="evenodd" d="M470.24 414.81C474.64 414.81 478.2 418.38 478.2 422.77C478.2 427.16 474.63 430.73 470.24 430.73C465.84 430.73 462.28 427.16 462.28 422.77C462.28 418.38 465.84 414.81 470.24 414.81Z" fill="#0089E3"/>
<path d="M478.017 283.797C478.849 279.48 476.023 275.307 471.707 274.475C467.39 273.643 463.217 276.468 462.385 280.785C461.553 285.102 464.378 289.275 468.695 290.107C473.011 290.939 477.185 288.114 478.017 283.797Z" fill="#0089E3"/>
<path fill-rule="evenodd" clip-rule="evenodd" d="M470.24 449.3C474.64 449.3 478.2 452.87 478.2 457.26C478.2 461.65 474.63 465.22 470.24 465.22C465.84 465.22 462.28 461.65 462.28 457.26C462.28 452.87 465.84 449.3 470.24 449.3Z" fill="#0089E3"/>
<path d="M478.015 316.196C478.847 311.88 476.022 307.706 471.705 306.874C467.388 306.042 463.215 308.867 462.383 313.184C461.551 317.501 464.376 321.674 468.693 322.506C473.01 323.338 477.183 320.513 478.015 316.196Z" fill="#0089E3"/>
<path fill-rule="evenodd" clip-rule="evenodd" d="M470.24 481.7C474.64 481.7 478.2 485.27 478.2 489.66C478.2 494.05 474.63 497.62 470.24 497.62C465.84 497.62 462.28 494.05 462.28 489.66C462.28 485.27 465.84 481.7 470.24 481.7Z" fill="#0089E3"/>
<path d="M374.681 189.18C379.077 189.18 382.641 185.616 382.641 181.22C382.641 176.824 379.077 173.26 374.681 173.26C370.285 173.26 366.721 176.824 366.721 181.22C366.721 185.616 370.285 189.18 374.681 189.18Z" fill="#0089E3"/>
<path fill-rule="evenodd" clip-rule="evenodd" d="M374.681 348.25C379.081 348.25 382.641 351.82 382.641 356.21C382.641 360.6 379.071 364.17 374.681 364.17C370.291 364.17 366.721 360.6 366.721 356.21C366.721 351.82 370.291 348.25 374.681 348.25Z" fill="#0089E3"/>
<path d="M374.681 221.29C379.077 221.29 382.641 217.726 382.641 213.33C382.641 208.934 379.077 205.37 374.681 205.37C370.285 205.37 366.721 208.934 366.721 213.33C366.721 217.726 370.285 221.29 374.681 221.29Z" fill="#0089E3"/>
<path fill-rule="evenodd" clip-rule="evenodd" d="M374.681 380.36C379.081 380.36 382.641 383.93 382.641 388.32C382.641 392.71 379.071 396.28 374.681 396.28C370.291 396.28 366.721 392.71 366.721 388.32C366.721 383.93 370.291 380.36 374.681 380.36Z" fill="#0089E3"/>
<path d="M374.681 255.74C379.077 255.74 382.641 252.176 382.641 247.78C382.641 243.384 379.077 239.82 374.681 239.82C370.285 239.82 366.721 243.384 366.721 247.78C366.721 252.176 370.285 255.74 374.681 255.74Z" fill="#0089E3"/>
<path fill-rule="evenodd" clip-rule="evenodd" d="M374.681 414.81C379.081 414.81 382.641 418.38 382.641 422.77C382.641 427.16 379.071 430.73 374.681 430.73C370.291 430.73 366.721 427.16 366.721 422.77C366.721 418.38 370.291 414.81 374.681 414.81Z" fill="#0089E3"/>
<path d="M374.681 290.23C379.077 290.23 382.641 286.666 382.641 282.27C382.641 277.874 379.077 274.31 374.681 274.31C370.285 274.31 366.721 277.874 366.721 282.27C366.721 286.666 370.285 290.23 374.681 290.23Z" fill="#0089E3"/>
<path fill-rule="evenodd" clip-rule="evenodd" d="M374.681 449.3C379.081 449.3 382.641 452.87 382.641 457.26C382.641 461.65 379.071 465.22 374.681 465.22C370.291 465.22 366.721 461.65 366.721 457.26C366.721 452.87 370.291 449.3 374.681 449.3Z" fill="#0089E3"/>
<path d="M374.681 322.63C379.077 322.63 382.641 319.066 382.641 314.67C382.641 310.274 379.077 306.71 374.681 306.71C370.285 306.71 366.721 310.274 366.721 314.67C366.721 319.066 370.285 322.63 374.681 322.63Z" fill="#0089E3"/>
<path fill-rule="evenodd" clip-rule="evenodd" d="M374.681 481.7C379.081 481.7 382.641 485.27 382.641 489.66C382.641 494.05 379.071 497.62 374.681 497.62C370.291 497.62 366.721 494.05 366.721 489.66C366.721 485.27 370.291 481.7 374.681 481.7Z" fill="#0089E3"/>
<path d="M462.079 183.046C463.089 178.767 460.438 174.48 456.16 173.471C451.881 172.461 447.594 175.112 446.584 179.39C445.575 183.669 448.226 187.956 452.504 188.966C456.783 189.975 461.07 187.324 462.079 183.046Z" fill="#0089E3"/>
<path fill-rule="evenodd" clip-rule="evenodd" d="M454.311 348.25C458.711 348.25 462.271 351.82 462.271 356.21C462.271 360.6 458.701 364.17 454.311 364.17C449.911 364.17 446.351 360.6 446.351 356.21C446.351 351.82 449.921 348.25 454.311 348.25Z" fill="#0089E3"/>
<path d="M459.932 218.965C463.041 215.856 463.041 210.816 459.932 207.708C456.824 204.599 451.784 204.599 448.675 207.708C445.567 210.816 445.567 215.856 448.675 218.965C451.784 222.073 456.824 222.073 459.932 218.965Z" fill="#0089E3"/>
<path fill-rule="evenodd" clip-rule="evenodd" d="M454.311 380.36C458.711 380.36 462.271 383.93 462.271 388.32C462.271 392.71 458.701 396.28 454.311 396.28C449.911 396.28 446.351 392.71 446.351 388.32C446.351 383.93 449.921 380.36 454.311 380.36Z" fill="#0089E3"/>
<path d="M458.512 254.593C462.25 252.279 463.405 247.373 461.091 243.635C458.778 239.897 453.872 238.743 450.134 241.056C446.396 243.37 445.241 248.276 447.555 252.014C449.868 255.752 454.774 256.907 458.512 254.593Z" fill="#0089E3"/>
<path fill-rule="evenodd" clip-rule="evenodd" d="M454.311 414.81C458.711 414.81 462.271 418.38 462.271 422.77C462.271 427.16 458.701 430.73 454.311 430.73C449.911 430.73 446.351 427.16 446.351 422.77C446.351 418.38 449.921 414.81 454.311 414.81Z" fill="#0089E3"/>
<path d="M458.51 289.084C462.248 286.77 463.403 281.864 461.089 278.126C458.776 274.388 453.87 273.233 450.132 275.547C446.394 277.861 445.239 282.767 447.553 286.505C449.866 290.243 454.772 291.398 458.51 289.084Z" fill="#0089E3"/>
<path fill-rule="evenodd" clip-rule="evenodd" d="M454.311 449.3C458.711 449.3 462.271 452.87 462.271 457.26C462.271 461.65 458.701 465.22 454.311 465.22C449.911 465.22 446.351 461.65 446.351 457.26C446.351 452.87 449.921 449.3 454.311 449.3Z" fill="#0089E3"/>
<path d="M458.509 321.485C462.247 319.171 463.402 314.265 461.088 310.527C458.775 306.789 453.869 305.634 450.131 307.948C446.393 310.262 445.238 315.168 447.552 318.906C449.865 322.644 454.771 323.799 458.509 321.485Z" fill="#0089E3"/>
<path fill-rule="evenodd" clip-rule="evenodd" d="M454.311 481.7C458.711 481.7 462.271 485.27 462.271 489.66C462.271 494.05 458.701 497.62 454.311 497.62C449.911 497.62 446.351 494.05 446.351 489.66C446.351 485.27 449.921 481.7 454.311 481.7Z" fill="#0089E3"/>
<path d="M406.54 189.18C410.936 189.18 414.5 185.616 414.5 181.22C414.5 176.824 410.936 173.26 406.54 173.26C402.144 173.26 398.58 176.824 398.58 181.22C398.58 185.616 402.144 189.18 406.54 189.18Z" fill="#0089E3"/>
<path fill-rule="evenodd" clip-rule="evenodd" d="M406.54 348.25C410.93 348.25 414.5 351.82 414.5 356.21C414.5 360.6 410.93 364.17 406.54 364.17C402.14 364.17 398.58 360.6 398.58 356.21C398.58 351.82 402.14 348.25 406.54 348.25Z" fill="#0089E3"/>
<path d="M406.54 221.29C410.936 221.29 414.5 217.726 414.5 213.33C414.5 208.934 410.936 205.37 406.54 205.37C402.144 205.37 398.58 208.934 398.58 213.33C398.58 217.726 402.144 221.29 406.54 221.29Z" fill="#0089E3"/>
<path fill-rule="evenodd" clip-rule="evenodd" d="M406.54 380.36C410.93 380.36 414.5 383.93 414.5 388.32C414.5 392.71 410.93 396.28 406.54 396.28C402.14 396.28 398.58 392.71 398.58 388.32C398.58 383.93 402.14 380.36 406.54 380.36Z" fill="#0089E3"/>
<path d="M406.54 255.74C410.936 255.74 414.5 252.176 414.5 247.78C414.5 243.384 410.936 239.82 406.54 239.82C402.144 239.82 398.58 243.384 398.58 247.78C398.58 252.176 402.144 255.74 406.54 255.74Z" fill="#0089E3"/>
<path fill-rule="evenodd" clip-rule="evenodd" d="M406.54 414.81C410.93 414.81 414.5 418.38 414.5 422.77C414.5 427.16 410.93 430.73 406.54 430.73C402.14 430.73 398.58 427.16 398.58 422.77C398.58 418.38 402.14 414.81 406.54 414.81Z" fill="#0089E3"/>
<path d="M406.54 290.23C410.936 290.23 414.5 286.666 414.5 282.27C414.5 277.874 410.936 274.31 406.54 274.31C402.144 274.31 398.58 277.874 398.58 282.27C398.58 286.666 402.144 290.23 406.54 290.23Z" fill="#0089E3"/>
<path fill-rule="evenodd" clip-rule="evenodd" d="M406.54 449.3C410.93 449.3 414.5 452.87 414.5 457.26C414.5 461.65 410.93 465.22 406.54 465.22C402.14 465.22 398.58 461.65 398.58 457.26C398.58 452.87 402.14 449.3 406.54 449.3Z" fill="#0089E3"/>
<path d="M406.54 322.63C410.936 322.63 414.5 319.066 414.5 314.67C414.5 310.274 410.936 306.71 406.54 306.71C402.144 306.71 398.58 310.274 398.58 314.67C398.58 319.066 402.144 322.63 406.54 322.63Z" fill="#0089E3"/>
<path fill-rule="evenodd" clip-rule="evenodd" d="M406.54 481.7C410.93 481.7 414.5 485.27 414.5 489.66C414.5 494.05 410.93 497.62 406.54 497.62C402.14 497.62 398.58 494.05 398.58 489.66C398.58 485.27 402.14 481.7 406.54 481.7Z" fill="#0089E3"/>
<path d="M486.16 189.18C490.556 189.18 494.12 185.616 494.12 181.22C494.12 176.824 490.556 173.26 486.16 173.26C481.764 173.26 478.2 176.824 478.2 181.22C478.2 185.616 481.764 189.18 486.16 189.18Z" fill="#0089E3"/>
<path fill-rule="evenodd" clip-rule="evenodd" d="M486.16 348.25C490.56 348.25 494.12 351.82 494.12 356.21C494.12 360.6 490.55 364.17 486.16 364.17C481.77 364.17 478.2 360.6 478.2 356.21C478.2 351.82 481.77 348.25 486.16 348.25Z" fill="#0089E3"/>
<path d="M486.16 221.29C490.556 221.29 494.12 217.726 494.12 213.33C494.12 208.934 490.556 205.37 486.16 205.37C481.764 205.37 478.2 208.934 478.2 213.33C478.2 217.726 481.764 221.29 486.16 221.29Z" fill="#0089E3"/>
<path fill-rule="evenodd" clip-rule="evenodd" d="M486.16 380.36C490.56 380.36 494.12 383.93 494.12 388.32C494.12 392.71 490.55 396.28 486.16 396.28C481.77 396.28 478.2 392.71 478.2 388.32C478.2 383.93 481.77 380.36 486.16 380.36Z" fill="#0089E3"/>
<path d="M486.16 255.74C490.556 255.74 494.12 252.176 494.12 247.78C494.12 243.384 490.556 239.82 486.16 239.82C481.764 239.82 478.2 243.384 478.2 247.78C478.2 252.176 481.764 255.74 486.16 255.74Z" fill="#0089E3"/>
<path fill-rule="evenodd" clip-rule="evenodd" d="M486.16 414.81C490.56 414.81 494.12 418.38 494.12 422.77C494.12 427.16 490.55 430.73 486.16 430.73C481.77 430.73 478.2 427.16 478.2 422.77C478.2 418.38 481.77 414.81 486.16 414.81Z" fill="#0089E3"/>
<path d="M486.16 290.23C490.556 290.23 494.12 286.666 494.12 282.27C494.12 277.874 490.556 274.31 486.16 274.31C481.764 274.31 478.2 277.874 478.2 282.27C478.2 286.666 481.764 290.23 486.16 290.23Z" fill="#0089E3"/>
<path fill-rule="evenodd" clip-rule="evenodd" d="M486.16 449.3C490.56 449.3 494.12 452.87 494.12 457.26C494.12 461.65 490.55 465.22 486.16 465.22C481.77 465.22 478.2 461.65 478.2 457.26C478.2 452.87 481.77 449.3 486.16 449.3Z" fill="#0089E3"/>
<path d="M486.16 322.63C490.556 322.63 494.12 319.066 494.12 314.67C494.12 310.274 490.556 306.71 486.16 306.71C481.764 306.71 478.2 310.274 478.2 314.67C478.2 319.066 481.764 322.63 486.16 322.63Z" fill="#0089E3"/>
<path fill-rule="evenodd" clip-rule="evenodd" d="M486.16 481.7C490.56 481.7 494.12 485.27 494.12 489.66C494.12 494.05 490.55 497.62 486.16 497.62C481.77 497.62 478.2 494.05 478.2 489.66C478.2 485.27 481.77 481.7 486.16 481.7Z" fill="#0089E3"/>
<path d="M428.081 186.855C431.189 183.747 431.189 178.707 428.081 175.598C424.972 172.49 419.932 172.49 416.824 175.598C413.715 178.707 413.715 183.747 416.824 186.855C419.932 189.964 424.972 189.964 428.081 186.855Z" fill="#0089E3"/>
<path fill-rule="evenodd" clip-rule="evenodd" d="M422.46 348.25C426.85 348.25 430.42 351.82 430.42 356.21C430.42 360.6 426.85 364.17 422.46 364.17C418.06 364.17 414.5 360.6 414.5 356.21C414.5 351.82 418.07 348.25 422.46 348.25Z" fill="#0089E3"/>
<path d="M430.185 215.163C431.195 210.884 428.546 206.597 424.268 205.586C419.99 204.576 415.702 207.224 414.691 211.503C413.681 215.781 416.33 220.069 420.608 221.08C424.886 222.09 429.174 219.441 430.185 215.163Z" fill="#0089E3"/>
<path fill-rule="evenodd" clip-rule="evenodd" d="M422.46 380.36C426.85 380.36 430.42 383.93 430.42 388.32C430.42 392.71 426.85 396.28 422.46 396.28C418.06 396.28 414.5 392.71 414.5 388.32C414.5 383.93 418.07 380.36 422.46 380.36Z" fill="#0089E3"/>
<path d="M430.244 249.31C431.076 244.993 428.251 240.82 423.934 239.988C419.618 239.156 415.444 241.981 414.612 246.298C413.781 250.614 416.606 254.788 420.922 255.62C425.239 256.452 429.413 253.627 430.244 249.31Z" fill="#0089E3"/>
<path fill-rule="evenodd" clip-rule="evenodd" d="M422.46 414.81C426.85 414.81 430.42 418.38 430.42 422.77C430.42 427.16 426.85 430.73 422.46 430.73C418.06 430.73 414.5 427.16 414.5 422.77C414.5 418.38 418.07 414.81 422.46 414.81Z" fill="#0089E3"/>
<path d="M430.241 283.8C431.073 279.484 428.248 275.31 423.931 274.478C419.615 273.646 415.441 276.471 414.61 280.788C413.778 285.105 416.603 289.278 420.919 290.11C425.236 290.942 429.41 288.117 430.241 283.8Z" fill="#0089E3"/>
<path fill-rule="evenodd" clip-rule="evenodd" d="M422.46 449.3C426.85 449.3 430.42 452.87 430.42 457.26C430.42 461.65 426.85 465.22 422.46 465.22C418.06 465.22 414.5 461.65 414.5 457.26C414.5 452.87 418.07 449.3 422.46 449.3Z" fill="#0089E3"/>
<path d="M430.24 316.2C431.072 311.883 428.247 307.709 423.931 306.878C419.614 306.046 415.44 308.871 414.609 313.187C413.777 317.504 416.602 321.678 420.918 322.509C425.235 323.341 429.409 320.516 430.24 316.2Z" fill="#0089E3"/>
<path fill-rule="evenodd" clip-rule="evenodd" d="M422.46 481.7C426.85 481.7 430.42 485.27 430.42 489.66C430.42 494.05 426.85 497.62 422.46 497.62C418.06 497.62 414.5 494.05 414.5 489.66C414.5 485.27 418.07 481.7 422.46 481.7Z" fill="#0089E3"/>
<path d="M507.71 186.852C510.818 183.744 510.818 178.704 507.71 175.595C504.601 172.487 499.561 172.487 496.453 175.595C493.344 178.704 493.344 183.744 496.453 186.852C499.561 189.961 504.601 189.961 507.71 186.852Z" fill="#0089E3"/>
<path fill-rule="evenodd" clip-rule="evenodd" d="M502.09 348.25C506.49 348.25 510.05 351.82 510.05 356.21C510.05 360.6 506.48 364.17 502.09 364.17C497.7 364.17 494.13 360.6 494.13 356.21C494.12 351.82 497.7 348.25 502.09 348.25Z" fill="#0089E3"/>
<path d="M509.809 215.159C510.819 210.88 508.17 206.593 503.892 205.582C499.614 204.571 495.326 207.22 494.315 211.499C493.305 215.777 495.954 220.065 500.232 221.075C504.51 222.086 508.798 219.437 509.809 215.159Z" fill="#0089E3"/>
<path fill-rule="evenodd" clip-rule="evenodd" d="M502.09 380.36C506.49 380.36 510.05 383.93 510.05 388.32C510.05 392.71 506.48 396.28 502.09 396.28C497.7 396.28 494.13 392.71 494.13 388.32C494.12 383.93 497.7 380.36 502.09 380.36Z" fill="#0089E3"/>
<path d="M509.868 249.308C510.7 244.991 507.875 240.818 503.558 239.986C499.242 239.154 495.068 241.979 494.237 246.296C493.405 250.612 496.23 254.786 500.546 255.618C504.863 256.449 509.037 253.624 509.868 249.308Z" fill="#0089E3"/>
<path fill-rule="evenodd" clip-rule="evenodd" d="M502.09 414.81C506.49 414.81 510.05 418.38 510.05 422.77C510.05 427.16 506.48 430.73 502.09 430.73C497.7 430.73 494.13 427.16 494.13 422.77C494.12 418.38 497.7 414.81 502.09 414.81Z" fill="#0089E3"/>
<path d="M509.865 283.798C510.697 279.481 507.872 275.308 503.556 274.476C499.239 273.644 495.065 276.469 494.234 280.786C493.402 285.102 496.227 289.276 500.543 290.108C504.86 290.94 509.034 288.115 509.865 283.798Z" fill="#0089E3"/>
<path fill-rule="evenodd" clip-rule="evenodd" d="M502.09 449.3C506.49 449.3 510.05 452.87 510.05 457.26C510.05 461.65 506.48 465.22 502.09 465.22C497.7 465.22 494.13 461.65 494.13 457.26C494.12 452.87 497.7 449.3 502.09 449.3Z" fill="#0089E3"/>
<path d="M509.864 316.197C510.696 311.88 507.871 307.707 503.555 306.875C499.238 306.043 495.064 308.868 494.233 313.185C493.401 317.502 496.226 321.675 500.543 322.507C504.859 323.339 509.033 320.514 509.864 316.197Z" fill="#0089E3"/>
<path fill-rule="evenodd" clip-rule="evenodd" d="M502.09 481.7C506.49 481.7 510.05 485.27 510.05 489.66C510.05 494.05 506.48 497.62 502.09 497.62C497.7 497.62 494.13 494.05 494.13 489.66C494.12 485.27 497.7 481.7 502.09 481.7Z" fill="#0089E3"/>
<path d="M350.8 156.37H336.24V508.15H350.8V156.37Z" fill="#5B3100"/>
<path d="M570.59 156.37H556.03V508.15H570.59V156.37Z" fill="#5B3100"/>
<path d="M798.3 46.51H508.82V244.84H798.3V46.51Z" fill="#FEDD8E"/>
<path d="M536.67 69.3V211.92H764.55" stroke="#0089E3" stroke-width="1.8333" stroke-miterlimit="10" stroke-linecap="round" stroke-linejoin="round"/>
<path d="M536.67 208.42C536.67 208.42 545.75 191.13 572.22 185.73C598.69 180.33 605.71 190.05 622.99 188.97C640.28 187.89 638.11 153.69 659.72 145.67C681.32 137.65 700.23 148.42 712.11 140.61C723.99 132.79 740.81 114.43 764.54 92.8201" stroke="#FF341A" stroke-width="1.8333" stroke-miterlimit="10" stroke-linecap="round" stroke-linejoin="round"/>
<path fill-rule="evenodd" clip-rule="evenodd" d="M609.55 422.66C605.36 422.66 601.55 420.25 599.75 416.47C597.95 412.69 598.48 408.21 601.12 404.96C619.44 382.37 650.44 344.14 664.5 326.8C669.24 320.95 671.83 313.66 671.83 306.13C671.83 285.54 671.83 244.83 671.83 244.83H701.13C701.13 244.83 701.13 285.54 701.13 306.13C701.13 313.66 703.72 320.95 708.46 326.8C722.52 344.14 753.52 382.37 771.84 404.96C774.47 408.21 775.01 412.69 773.21 416.47C771.41 420.25 767.6 422.66 763.41 422.66H609.55Z" fill="#B9E2FE"/>
<path d="M1370.56 232.71H1104.71V260.33H1370.56V232.71Z" fill="#5B3100"/>
<path fill-rule="evenodd" clip-rule="evenodd" d="M1237.64 67.9199C1237.64 57.2999 1229.04 48.6899 1218.42 48.6899C1181.6 48.6899 1104.72 48.6899 1104.72 48.6899V232.71H1221.88C1230.58 232.71 1237.64 239.77 1237.64 248.48C1237.64 251.58 1237.64 253.9 1237.64 253.9C1237.64 253.9 1237.64 118.94 1237.64 67.9199Z" fill="#BDC7FB"/>
<path fill-rule="evenodd" clip-rule="evenodd" d="M1237.64 67.9199C1237.64 57.2999 1246.25 48.6899 1256.87 48.6899C1293.69 48.6899 1370.57 48.6899 1370.57 48.6899V232.71H1253.4C1244.7 232.71 1237.63 239.77 1237.63 248.48C1237.63 251.58 1237.63 253.9 1237.63 253.9C1237.63 253.9 1237.64 118.94 1237.64 67.9199Z" fill="#BDC7FB"/>
<path d="M1237.64 68.8599V246.52" stroke="#5B3100" stroke-width="1.8333" stroke-miterlimit="10" stroke-linecap="round" stroke-linejoin="round"/>
<path d="M1346.39 80.45H1276.38V108.27H1346.39V80.45Z" fill="white"/>
<path d="M1202.21 124.49H1132.2V152.31H1202.21V124.49Z" fill="#0089E3"/>
<path d="M1346.39 178.27H1276.38V206.09H1346.39V178.27Z" fill="#163BF3"/>
<path fill-rule="evenodd" clip-rule="evenodd" d="M950.001 72.55C1051.68 72.55 1134.24 155.1 1134.24 256.79C1134.24 358.47 1051.69 441.02 950.001 441.02C848.311 441.02 765.761 358.47 765.761 256.79C765.761 155.1 848.321 72.55 950.001 72.55Z" fill="#0089E3"/>
<path fill-rule="evenodd" clip-rule="evenodd" d="M813.35 133.28C813.35 133.28 834.891 144.48 843.671 152.1C852.451 159.72 852.451 178.9 859.151 187.69C865.851 196.47 871.171 207.33 866.541 213.8C861.921 220.27 835.81 227.9 823.33 227.9C810.85 227.9 790.28 241.3 790.98 259.32C791.68 277.35 804.16 291.9 824.95 291.9C845.75 291.9 851.99 294.9 854.99 306.92C857.99 318.94 825.64 336.96 836.73 352.44C847.82 367.92 893.21 386.41 887.62 430.18C847.13 430.18 757.061 358.91 757.061 262.78C757.061 166.65 813.35 133.28 813.35 133.28Z" fill="#60D399"/>
<path fill-rule="evenodd" clip-rule="evenodd" d="M1104.97 157.18C1104.97 157.18 1067.57 125.13 1049.52 138.22C1031.47 151.31 1054.94 153.11 1062.61 154.92C1070.28 156.73 1079.81 164.35 1076.58 169.89C1073.35 175.44 1054.63 170.82 1049.55 168.96C1044.46 167.11 988.081 146.31 981.381 178.9C974.681 211.48 993.861 212.17 1002.64 212.64C1011.42 213.1 1024.13 198.77 1041.47 201.32C1058.8 203.86 1064.35 210.33 1062.27 215.88C1060.19 221.43 1054.65 228.82 1038.93 227.43C1023.22 226.05 988.551 227.43 977.701 227.43C966.841 227.43 938.421 250.51 964.991 281.74C991.561 312.97 1017.67 303.95 1026.46 303.95C1035.24 303.95 1048.41 310.42 1048.41 323.36V371.89C1048.41 379.05 1054.88 382.75 1061.12 382.75C1067.36 382.75 1079.37 374.2 1084 359.64C1088.62 345.08 1094.63 311.57 1102.72 311.57C1110.81 311.57 1119.69 328.68 1119.69 328.68C1150.81 275.71 1147.77 218.76 1104.97 157.18Z" fill="#60D399"/>
<path fill-rule="evenodd" clip-rule="evenodd" d="M1015.3 122.56C1007.56 122.56 997.25 143.96 1007.82 143.96C1018.39 143.96 1026.39 122.56 1015.3 122.56Z" fill="#60D399"/>
<path d="M950.001 72.55C1008.59 72.55 1056.16 155.1 1056.16 256.79C1056.16 358.47 1008.59 441.02 950.001 441.02C891.411 441.02 843.841 358.47 843.841 256.79C843.841 155.1 891.411 72.55 950.001 72.55Z" stroke="black" stroke-width="1.8333" stroke-miterlimit="10" stroke-linecap="round" stroke-linejoin="round"/>
<path d="M951.58 72.5701V441" stroke="black" stroke-width="1.8333" stroke-miterlimit="10" stroke-linecap="round" stroke-linejoin="round"/>
<path d="M765.761 256.79H1134.24" stroke="black" stroke-width="1.8333" stroke-miterlimit="10" stroke-linecap="round" stroke-linejoin="round"/>
<path d="M1193.57 561C1247.97 561 1292.07 516.9 1292.07 462.5C1292.07 408.1 1247.97 364 1193.57 364C1139.17 364 1095.07 408.1 1095.07 462.5C1095.07 516.9 1139.17 561 1193.57 561Z" fill="#FF341A"/>
<path fill-rule="evenodd" clip-rule="evenodd" d="M1193.57 384.47C1236.64 384.47 1271.61 419.44 1271.61 462.51C1271.61 505.58 1236.64 540.55 1193.57 540.55C1150.5 540.55 1115.54 505.58 1115.54 462.51C1115.54 419.43 1150.5 384.47 1193.57 384.47Z" fill="#FBBE2E"/>
<path fill-rule="evenodd" clip-rule="evenodd" d="M1193.57 407.34C1224.02 407.34 1248.74 432.06 1248.74 462.51C1248.74 492.96 1224.02 517.68 1193.57 517.68C1163.12 517.68 1138.4 492.96 1138.4 462.51C1138.4 432.06 1163.12 407.34 1193.57 407.34Z" fill="#FF341A"/>
<path d="M1193.57 496.25C1212.21 496.25 1227.32 481.14 1227.32 462.5C1227.32 443.86 1212.21 428.75 1193.57 428.75C1174.93 428.75 1159.82 443.86 1159.82 462.5C1159.82 481.14 1174.93 496.25 1193.57 496.25Z" fill="#FBBE2E"/>
<path fill-rule="evenodd" clip-rule="evenodd" d="M1193.57 446.38C1202.47 446.38 1209.7 453.61 1209.7 462.51C1209.7 471.41 1202.47 478.64 1193.57 478.64C1184.67 478.64 1177.45 471.41 1177.45 462.51C1177.45 453.6 1184.67 446.38 1193.57 446.38Z" fill="#FF341A"/>
<path fill-rule="evenodd" clip-rule="evenodd" d="M1460.25 212.15C1476.53 212.15 1489.75 225.37 1489.75 241.65C1489.75 257.93 1476.53 271.15 1460.25 271.15C1443.97 271.15 1430.75 257.93 1430.75 241.65C1430.75 225.36 1443.97 212.15 1460.25 212.15Z" fill="#0089E3"/>
<path fill-rule="evenodd" clip-rule="evenodd" d="M1495.12 276.75C1495.12 275.26 1494.53 273.84 1493.48 272.79C1492.43 271.74 1491 271.14 1489.51 271.14H1430.99C1429.5 271.14 1428.08 271.73 1427.02 272.79C1425.97 273.84 1425.38 275.27 1425.38 276.75C1425.38 277.28 1425.38 277.82 1425.38 278.35C1425.38 279.84 1425.97 281.27 1427.02 282.32C1428.07 283.37 1429.5 283.96 1430.99 283.96H1489.51C1491 283.96 1492.43 283.37 1493.48 282.32C1494.53 281.27 1495.12 279.84 1495.12 278.35V276.75Z" fill="#163BF3"/>
<path fill-rule="evenodd" clip-rule="evenodd" d="M1519.92 424.45C1519.92 418.74 1515.3 414.11 1509.59 414.11H1411.06C1405.35 414.11 1400.72 418.74 1400.72 424.45C1400.72 425.86 1400.72 426.83 1400.72 426.83H1519.92V424.45Z" fill="#163BF3"/>
<path fill-rule="evenodd" clip-rule="evenodd" d="M1533.85 437.17C1533.85 431.46 1529.22 426.83 1523.51 426.83H1397.12C1391.41 426.83 1386.78 431.46 1386.78 437.17V439.55H1533.84C1533.85 439.54 1533.85 438.57 1533.85 437.17Z" fill="#163BF3"/>
<path fill-rule="evenodd" clip-rule="evenodd" d="M1435.81 397.73C1428.43 393.93 1425.39 384.81 1425.39 377.76C1425.39 370.71 1436.29 361.54 1442.02 361.54H1478.5C1484.22 361.54 1495.13 370.7 1495.13 377.76C1495.13 384.81 1492.08 393.93 1484.7 397.73H1435.81Z" fill="#163BF3"/>
<path fill-rule="evenodd" clip-rule="evenodd" d="M1442.22 361.54C1442.22 361.54 1442.22 313.9 1442.22 293.28C1442.22 290.8 1441.24 288.43 1439.49 286.68C1437.74 284.93 1435.37 283.95 1432.9 283.95H1487.61C1485.14 283.95 1482.76 284.93 1481.01 286.68C1479.26 288.43 1478.28 290.8 1478.28 293.28C1478.28 313.9 1478.28 361.54 1478.28 361.54H1442.22Z" fill="#163BF3"/>
<path fill-rule="evenodd" clip-rule="evenodd" d="M1442.07 291.59C1441.73 289.75 1440.84 288.04 1439.5 286.69C1437.75 284.94 1435.38 283.96 1432.91 283.96H1487.62C1485.15 283.96 1482.77 284.94 1481.02 286.69C1479.68 288.03 1478.79 289.74 1478.45 291.59H1442.07Z" fill="black"/>
<path fill-rule="evenodd" clip-rule="evenodd" d="M1427.78 414.12C1434.94 409.56 1435.81 397.73 1435.81 397.73H1484.7C1484.7 397.73 1485.57 409.56 1492.73 414.12H1427.78Z" fill="#163BF3"/>
<path fill-rule="evenodd" clip-rule="evenodd" d="M1434.99 402.42C1435.66 399.74 1435.81 397.73 1435.81 397.73H1484.7C1484.7 397.73 1484.85 399.74 1485.52 402.42H1434.99Z" fill="black"/>
<path d="M1672.09 230.495C1675.21 206.664 1658.43 184.81 1634.6 181.683C1610.77 178.556 1588.91 195.34 1585.79 219.171C1582.66 243.003 1599.44 264.856 1623.27 267.983C1647.11 271.11 1668.96 254.326 1672.09 230.495Z" fill="white"/>
<path fill-rule="evenodd" clip-rule="evenodd" d="M1655.34 270.73C1655.34 267.07 1652.37 264.11 1648.71 264.11C1638.56 264.11 1619.27 264.11 1609.12 264.11C1605.47 264.11 1602.5 267.07 1602.5 270.73C1602.5 271.52 1602.5 272.32 1602.5 273.1C1602.5 276.76 1605.47 279.72 1609.12 279.72H1648.71C1652.37 279.72 1655.34 276.76 1655.34 273.1C1655.34 272.33 1655.34 271.52 1655.34 270.73Z" fill="#FBBE2E"/>
<path fill-rule="evenodd" clip-rule="evenodd" d="M1644.39 279.73H1613.46C1613.46 279.73 1613.46 287.2 1613.46 294.51C1613.46 302.16 1619.66 308.37 1627.32 308.37C1628.39 308.37 1629.47 308.37 1630.54 308.37C1638.19 308.37 1644.4 302.17 1644.4 294.51C1644.39 287.2 1644.39 279.73 1644.39 279.73Z" fill="#FBBE2E"/>
<path d="M1644.39 279.73H1613.46V283.86H1644.39V279.73Z" fill="black"/>
<path d="M1628.93 264.11V221.2C1628.93 210.35 1613.46 210.35 1613.46 221.2C1613.46 232.05 1617.55 234.28 1628.93 234.28" stroke="#FBBE2E" stroke-width="1.8333" stroke-miterlimit="10" stroke-linecap="round" stroke-linejoin="round"/>
<path d="M1628.93 264.11V221.2C1628.93 210.35 1644.4 210.35 1644.4 221.2C1644.4 232.05 1640.31 234.28 1628.93 234.28" stroke="#FBBE2E" stroke-width="1.8333" stroke-miterlimit="10" stroke-linecap="round" stroke-linejoin="round"/>
<path fill-rule="evenodd" clip-rule="evenodd" d="M1047.6 543.51C1051.65 543.51 1054.94 546.8 1054.94 550.85C1054.94 554.9 1051.65 558.19 1047.6 558.19C1043.55 558.19 1040.26 554.9 1040.26 550.85C1040.26 546.8 1043.55 543.51 1047.6 543.51Z" fill="#FBBE2E"/>
<path fill-rule="evenodd" clip-rule="evenodd" d="M1048.93 558.2C1045.17 559.26 1035.93 561.92 1034.52 568.65C1033.11 575.38 1032.72 576.17 1032.72 576.17C1032.72 576.17 1030.37 572.8 1027.71 574.06C1025.05 575.31 1025.28 578.84 1025.21 582.36C1025.13 585.88 1024.9 591.84 1024.82 594.73C1024.74 597.63 1027.72 601.23 1030.14 601.7C1032.57 602.17 1033.74 601.86 1033.74 601.86L1035.23 603.35H1070.31C1070.31 603.35 1068.9 589.8 1068.66 588.39C1070.15 588.39 1072.65 586.82 1071.87 581.89C1071.09 576.96 1069.6 570.77 1068.43 566.54C1067.25 562.31 1061.85 555.89 1057.93 556.6C1054.02 557.29 1052.68 557.14 1048.93 558.2Z" fill="#60D399"/>
<path d="M1033.73 601.85C1033.73 601.85 1040.7 600.52 1041.64 588.77C1042.58 577.02 1042.89 572.4 1042.89 572.4" stroke="black" stroke-width="1.8333" stroke-miterlimit="10" stroke-linecap="round" stroke-linejoin="round"/>
<path d="M1032.72 576.17L1031.46 583.68" stroke="black" stroke-width="1.8333" stroke-miterlimit="10" stroke-linecap="round" stroke-linejoin="round"/>
<path d="M1068.66 588.38L1065.45 571.78" stroke="black" stroke-width="1.8333" stroke-miterlimit="10" stroke-linecap="round" stroke-linejoin="round"/>
<path fill-rule="evenodd" clip-rule="evenodd" d="M1035.22 603.34L1040.26 633H1074.11L1070.3 603.34H1035.22Z" fill="#0089E3"/>
<path d="M1050.81 620.77H1065.45" stroke="black" stroke-width="1.8333" stroke-miterlimit="10" stroke-linecap="round" stroke-linejoin="round"/>
<path d="M1058.13 620.77L1060.8 633" stroke="black" stroke-width="1.8333" stroke-miterlimit="10" stroke-linecap="round" stroke-linejoin="round"/>
<path fill-rule="evenodd" clip-rule="evenodd" d="M1041.98 633L1049.32 676.71H1058.12C1058.12 676.71 1063.85 641.44 1060.79 633H1041.98Z" fill="#FBBE2E"/>
<path fill-rule="evenodd" clip-rule="evenodd" d="M1059.46 667.54L1063.09 676.71H1072.26C1072.26 676.71 1077.93 642.51 1074.1 633C1067.82 633 1060.79 633 1060.79 633L1059.46 667.54Z" fill="#FBBE2E"/>
<path fill-rule="evenodd" clip-rule="evenodd" d="M1049.33 676.71L1039.54 692.25H1057.28L1058.13 676.71H1049.33Z" fill="black"/>
<path fill-rule="evenodd" clip-rule="evenodd" d="M1063.09 676.71V692.25H1077.01L1072.27 676.71H1063.09Z" fill="black"/>
<path fill-rule="evenodd" clip-rule="evenodd" d="M996.36 546.53C999.49 546.53 1002.03 549.07 1002.03 552.2C1002.03 555.33 999.49 557.87 996.36 557.87C993.23 557.87 990.69 555.33 990.69 552.2C990.69 549.07 993.23 546.53 996.36 546.53Z" fill="#5B3100"/>
<path fill-rule="evenodd" clip-rule="evenodd" d="M1002.03 538.27C1005.16 538.27 1007.7 540.81 1007.7 543.94C1007.7 547.07 1005.16 549.61 1002.03 549.61C998.9 549.61 996.36 547.07 996.36 543.94C996.37 540.81 998.9 538.27 1002.03 538.27Z" fill="#5B3100"/>
<path fill-rule="evenodd" clip-rule="evenodd" d="M996.36 557.86C992.13 557.86 983.41 559.76 983.41 566.68V579.72C983.41 579.72 980.11 575.05 978.83 573.42C977.55 571.79 971.73 573.46 973.87 576.99C976.01 580.51 979.98 591.13 981.57 592.58C983.15 594.03 986.76 594.47 987.24 593.86V603.64H1012.17C1012.17 603.64 1012.67 576.33 1011.82 570.95C1010.95 565.57 1008.53 557.86 996.36 557.86Z" fill="#B9E2FE"/>
<path d="M987.24 593.86C987.24 593.86 990.69 591.28 990.69 583.75V569.34" stroke="black" stroke-width="1.8333" stroke-miterlimit="10" stroke-linecap="round" stroke-linejoin="round"/>
<path d="M983.41 579.72V584.55" stroke="#B9E2FE" stroke-width="1.8333" stroke-miterlimit="10" stroke-linecap="round" stroke-linejoin="round"/>
<path fill-rule="evenodd" clip-rule="evenodd" d="M987.24 603.63C987.24 603.63 981.98 628.29 987.24 642.22H1012.32C1012.32 642.22 1017.17 615.96 1012.32 603.63H987.24Z" fill="#FBBE2E"/>
<path fill-rule="evenodd" clip-rule="evenodd" d="M987.24 642.23C987.24 642.23 989.77 676.78 991.54 681.97H997.62L1000.44 642.23H987.24Z" fill="#5B3100"/>
<path fill-rule="evenodd" clip-rule="evenodd" d="M997.61 681.97H1006.07L1012.32 642.23H1000.43L997.61 681.97Z" fill="#5B3100"/>
<path fill-rule="evenodd" clip-rule="evenodd" d="M991.54 681.97C991.54 681.97 989.85 686.94 988.32 687.53C986.79 688.12 984.39 692.25 988.32 692.25H997.07V681.97H991.54Z" fill="#60D399"/>
<path d="M1006.07 681.97H997.07V692.25H1006.07V681.97Z" fill="#60D399"/>
<path fill-rule="evenodd" clip-rule="evenodd" d="M875.79 540.22C869.12 540.22 867.25 545.57 866.01 548.78C864.77 551.99 860.11 560.37 866.78 563.01C873.45 565.65 879.66 564.21 882.93 562.96C886.19 561.72 888.88 556.68 885.31 549.79C881.73 542.91 881 540.22 875.79 540.22Z" fill="#FF341A"/>
<path fill-rule="evenodd" clip-rule="evenodd" d="M865.72 562.48C865.72 562.48 855.77 564.2 853.12 575.16C850.47 586.11 846.67 615.7 846.94 622.68H852.061L859.13 588.5H883.86L890.39 622.07H894.46C894.46 622.07 893.66 584.44 892.96 577.55C892.26 570.66 886.43 564.82 882.58 563.1C875.81 563.1 865.72 562.48 865.72 562.48Z" fill="#B9E2FE"/>
<path fill-rule="evenodd" clip-rule="evenodd" d="M859.12 588.5C859.12 588.5 852.41 615.44 852.05 622.68C851.7 629.92 855.85 658.45 855.85 658.45H887C887 658.45 890.39 630.1 890.39 622.06C890.39 614.02 883.86 588.49 883.86 588.49H859.12V588.5Z" fill="#60D399"/>
<path d="M860.18 581.08L859.12 588.5" stroke="black" stroke-width="1.8333" stroke-miterlimit="10" stroke-linecap="round" stroke-linejoin="round"/>
<path d="M883.85 588.5L882.7 581.08" stroke="black" stroke-width="1.8333" stroke-miterlimit="10" stroke-linecap="round" stroke-linejoin="round"/>
<path fill-rule="evenodd" clip-rule="evenodd" d="M846.93 622.68C846.93 622.68 843.13 627.87 846.02 629.96C848.9 632.05 852.35 629.63 852.35 629.63L852.05 622.68H846.93Z" fill="#5B3100"/>
<path fill-rule="evenodd" clip-rule="evenodd" d="M894.44 621.95C894.44 621.95 899.43 627.14 896.54 629.23C893.66 631.32 890.2 628.9 890.2 628.9L890.5 621.95H894.44Z" fill="#5B3100"/>
<path fill-rule="evenodd" clip-rule="evenodd" d="M868.58 658.46V688.33H862.46C862.46 688.33 856.21 662.63 855.86 658.46H868.58Z" fill="#B9E2FE"/>
<path fill-rule="evenodd" clip-rule="evenodd" d="M873.75 658.46V688.33H879.87C879.87 688.33 886.12 662.63 886.47 658.46H873.75Z" fill="#B9E2FE"/>
<path fill-rule="evenodd" clip-rule="evenodd" d="M868.581 688.32V692.57H861.641L862.451 688.32H868.581Z" fill="#5B3100"/>
<path fill-rule="evenodd" clip-rule="evenodd" d="M873.75 688.32V692.57H880.69L879.88 688.32H873.75Z" fill="#5B3100"/>
<path fill-rule="evenodd" clip-rule="evenodd" d="M786.109 614.75L788.999 679.41H802.509L803.669 643.31L819.509 680.81H832.669C832.669 680.81 820.089 620.02 815.779 615.01C807.979 615.01 786.109 614.75 786.109 614.75Z" fill="#B9E2FE"/>
<path fill-rule="evenodd" clip-rule="evenodd" d="M789 679.41L789.23 692.57H806.7C806.7 692.57 803.2 689.31 802.86 687.45C802.51 685.59 802.51 679.41 802.51 679.41H789Z" fill="#60D399"/>
<path fill-rule="evenodd" clip-rule="evenodd" d="M819.51 680.81L824.98 692.57H845.59C845.59 692.57 834.18 681.97 832.67 680.81H819.51Z" fill="#60D399"/>
<path d="M803.669 643.31L798.279 630.54" stroke="black" stroke-width="1.8333" stroke-miterlimit="10" stroke-linecap="round" stroke-linejoin="round"/>
<path fill-rule="evenodd" clip-rule="evenodd" d="M786.11 614.75C786.09 611.52 786.11 602.32 786.11 602.32C786.11 602.32 779.21 599.53 780.03 591.26C780.84 582.99 786.11 572.05 786.11 572.05C786.11 572.05 783.64 565.53 789 561.69C794.35 557.85 801.34 564.72 804.72 566.46C808.1 568.21 815.55 566.34 817.18 572.75C818.81 579.16 820.79 594.06 820.79 594.06L827.66 584.39C827.66 584.39 831.04 589.51 828.82 593.94C826.61 598.37 821.6 606.28 817.17 607.1V614.75H786.11Z" fill="#FBBE2E"/>
<path d="M788.999 577.28C788.999 577.28 786.139 595.21 786.109 602.32" stroke="black" stroke-width="1.8333" stroke-miterlimit="10" stroke-linecap="round" stroke-linejoin="round"/>
<path d="M805.77 577.28C805.77 577.28 808.71 596.15 809.39 600.69C810.07 605.23 814.09 607.77 817.18 607.09" stroke="black" stroke-width="1.8333" stroke-miterlimit="10" stroke-linecap="round" stroke-linejoin="round"/>
<path d="M786.109 572.04C787.809 572.65 800.979 571.24 808.649 567.38" stroke="black" stroke-width="1.8333" stroke-miterlimit="10" stroke-linecap="round" stroke-linejoin="round"/>
<path fill-rule="evenodd" clip-rule="evenodd" d="M797.379 561.86C797.379 561.86 793.999 555.79 797.379 552.25C800.759 548.71 807.279 546.94 809.889 551.6C812.499 556.26 811.229 561.38 808.649 562.97C806.069 564.55 803.559 565.77 803.559 565.77L797.379 561.86Z" fill="#5B3100"/>
<path fill-rule="evenodd" clip-rule="evenodd" d="M820.789 594.05L834.899 574.21H817.529L820.789 594.05Z" fill="#B9E2FE"/>
<path fill-rule="evenodd" clip-rule="evenodd" d="M960.41 543.72C960.41 543.72 951.21 546.58 946.39 548.24C941.57 549.9 924.99 553.67 925.29 564.67C925.59 575.68 925.29 583.51 925.29 583.51C925.29 583.51 921.72 577.29 917.93 580.05C914.14 582.81 915.93 586.46 918.21 590.18C920.49 593.9 925.66 602.1 927.31 604.24C928.96 606.38 936.06 606.24 936.06 601.62V588.8H966.8V565.16C966.8 561.64 974.63 544.98 975.7 535.83C976.78 526.68 980.44 500.73 980.44 500.73L974.63 498.79C974.63 498.79 965.69 520.86 963.97 527.11C962.22 533.37 960.41 543.72 960.41 543.72Z" fill="#60D399"/>
<path d="M925.28 583.52V589.26" stroke="black" stroke-width="1.8333" stroke-miterlimit="10" stroke-linecap="round" stroke-linejoin="round"/>
<path d="M936.05 588.82V565.9" stroke="black" stroke-width="1.8333" stroke-miterlimit="10" stroke-linecap="round" stroke-linejoin="round"/>
<path d="M960.41 543.72L964.22 542.53" stroke="black" stroke-width="1.8333" stroke-miterlimit="10" stroke-linecap="round" stroke-linejoin="round"/>
<path fill-rule="evenodd" clip-rule="evenodd" d="M946.18 548.32C946.18 548.32 943.54 539.95 948.08 536.75C952.62 533.55 960.13 534.75 961.74 536.79C961.37 539.58 960.42 543.73 960.42 543.73L946.18 548.32Z" fill="#FBBE2E"/>
<path fill-rule="evenodd" clip-rule="evenodd" d="M940.09 677.94C940.09 677.94 936.91 668.88 936.04 660.89C935.17 652.89 936.91 640.07 936.04 633.13C935.17 626.19 935.65 603.33 935.65 603.33L936.04 588.82H966.71L967.1 603.33C967.1 603.33 967.58 626.19 966.71 633.13C965.84 640.07 967.58 652.89 966.71 660.89C965.84 668.89 962.66 677.94 962.66 677.94H940.09Z" fill="#FF341A"/>
<path d="M951.38 692.25V607.16" stroke="black" stroke-width="1.8333" stroke-miterlimit="10" stroke-linecap="round" stroke-linejoin="round"/>
<path d="M945.41 607.16H956.8" stroke="black" stroke-width="1.8333" stroke-miterlimit="10" stroke-linecap="round" stroke-linejoin="round"/>
<path fill-rule="evenodd" clip-rule="evenodd" d="M940.09 677.94C940.09 677.94 941.681 685.03 942.041 686.53C942.401 688.04 938.061 690.26 938.061 692.25H951.37V677.94H940.09Z" fill="#B9E2FE"/>
<path fill-rule="evenodd" clip-rule="evenodd" d="M962.67 677.94C962.67 677.94 961.08 685.03 960.72 686.53C960.36 688.04 964.7 690.26 964.7 692.25H951.39V677.94H962.67Z" fill="#B9E2FE"/>
<path fill-rule="evenodd" clip-rule="evenodd" d="M974.61 498.8C974.61 498.8 973.53 496.55 973.99 495.39C974.45 494.23 976.46 493.95 976.46 493.95C976.46 493.95 978.54 488.28 980.09 488.73C981.64 489.19 979.92 494.72 979.92 494.72C979.92 494.72 983.28 498.09 980.44 500.74C978.07 499.83 974.61 498.8 974.61 498.8Z" fill="#FBBE2E"/>
<path d="M198.83 692.57H1673.56" stroke="black" stroke-width="3" stroke-miterlimit="10" stroke-linecap="round" stroke-linejoin="round"/>
</g>
<defs>
<clipPath id="clip0_463:21430">
<rect width="1809" height="693" fill="white"/>
</clipPath>
</defs>
</svg>
