<svg width="520" height="781" viewBox="0 0 520 781" fill="none" xmlns="http://www.w3.org/2000/svg">
<g clip-path="url(#clip0_467:18518)">
<path d="M32.4023 279.499H487.819" stroke="black" stroke-width="1.83" stroke-linecap="round" stroke-linejoin="round"/>
<path d="M32.4023 202.909H487.819" stroke="black" stroke-width="1.83" stroke-linecap="round" stroke-linejoin="round"/>
<path d="M32.4023 126.541H487.819" stroke="black" stroke-width="1.83" stroke-linecap="round" stroke-linejoin="round"/>
<path d="M32.4023 55.0566H487.819" stroke="black" stroke-width="1.83" stroke-linecap="round" stroke-linejoin="round"/>
<path d="M32.4023 351.428H487.819" stroke="black" stroke-width="1.83" stroke-linecap="round" stroke-linejoin="round"/>
<path d="M32.4023 443.559H487.819" stroke="black" stroke-width="1.83" stroke-linecap="round" stroke-linejoin="round"/>
<path d="M32.4023 514.82H487.819" stroke="black" stroke-width="1.83" stroke-linecap="round" stroke-linejoin="round"/>
<path d="M32.4023 591.411H487.819" stroke="black" stroke-width="1.83" stroke-linecap="round" stroke-linejoin="round"/>
<path d="M32.4023 668.001H487.819" stroke="black" stroke-width="1.83" stroke-linecap="round" stroke-linejoin="round"/>
<path d="M32.4023 739.93H487.819" stroke="black" stroke-width="1.83" stroke-linecap="round" stroke-linejoin="round"/>
<path d="M67.2398 59.3838C69.4956 49.8382 63.5884 40.2708 54.0455 38.0143C44.5027 35.7578 34.938 41.6668 32.6822 51.2123C30.4264 60.7579 36.3336 70.3253 45.8765 72.5818C55.4193 74.8383 64.984 68.9293 67.2398 59.3838Z" fill="#163BF3"/>
<path fill-rule="evenodd" clip-rule="evenodd" d="M49.9368 426.02C52.2579 425.991 54.5617 426.423 56.7146 427.291C58.8675 428.159 60.8266 429.446 62.4783 431.078C64.13 432.709 65.4413 434.652 66.3363 436.795C67.2313 438.937 67.692 441.236 67.6918 443.558C67.6918 448.268 65.8212 452.786 62.4915 456.116C59.1618 459.447 54.6457 461.318 49.9368 461.318C47.6156 461.318 45.3174 460.857 43.1755 459.962C41.0337 459.067 39.091 457.755 37.4599 456.103C35.8289 454.451 34.5421 452.491 33.6741 450.338C32.8062 448.184 32.3744 445.88 32.4037 443.558C32.4037 438.907 34.251 434.446 37.5391 431.157C40.8272 427.868 45.2868 426.02 49.9368 426.02Z" fill="#163BF3"/>
<path d="M62.5234 139.089C69.4572 132.153 69.4572 120.908 62.5234 113.972C55.5897 107.036 44.3478 107.036 37.4141 113.972C30.4803 120.908 30.4803 132.153 37.4141 139.089C44.3478 146.024 55.5897 146.024 62.5234 139.089Z" fill="#163BF3"/>
<path fill-rule="evenodd" clip-rule="evenodd" d="M49.9368 497.283C53.4669 497.239 56.93 498.249 59.8835 500.183C62.8371 502.118 65.1471 504.889 66.5183 508.143C67.8896 511.397 68.2599 514.986 67.5819 518.452C66.9039 521.918 65.2084 525.103 62.712 527.6C60.2157 530.097 57.0318 531.793 53.5671 532.471C50.1024 533.149 46.5143 532.779 43.2611 531.407C40.0078 530.035 37.2373 527.725 35.3033 524.77C33.3694 521.816 32.3599 518.352 32.4037 514.821C32.4037 510.169 34.2509 505.708 37.539 502.419C40.8271 499.13 45.2867 497.283 49.9368 497.283Z" fill="#163BF3"/>
<path d="M59.4837 217.833C67.8176 212.665 70.3847 201.717 65.2175 193.381C60.0502 185.044 49.1054 182.476 40.7715 187.645C32.4376 192.814 29.8705 203.762 35.0377 212.098C40.205 220.434 51.1498 223.002 59.4837 217.833Z" fill="#163BF3"/>
<path fill-rule="evenodd" clip-rule="evenodd" d="M49.9367 573.651C54.6456 573.651 59.1616 575.523 62.4913 578.853C65.8211 582.184 67.6917 586.701 67.6917 591.411C67.6917 596.122 65.8211 600.639 62.4913 603.97C59.1616 607.3 54.6456 609.172 49.9367 609.172C45.2277 609.172 40.7117 607.3 37.382 603.97C34.0523 600.639 32.1816 596.122 32.1816 591.411C32.1816 586.701 34.0523 582.184 37.382 578.853C40.7117 575.523 45.2277 573.651 49.9367 573.651Z" fill="#163BF3"/>
<path d="M59.4388 294.471C67.7727 289.302 70.3398 278.354 65.1725 270.018C60.0053 261.682 49.0605 259.114 40.7266 264.283C32.3927 269.452 29.8256 280.399 34.9928 288.736C40.1601 297.072 51.1049 299.64 59.4388 294.471Z" fill="#163BF3"/>
<path fill-rule="evenodd" clip-rule="evenodd" d="M49.9367 650.241C54.6456 650.241 59.1616 652.112 62.4913 655.443C65.8211 658.774 67.6917 663.291 67.6917 668.001C67.6917 672.712 65.8211 677.229 62.4913 680.56C59.1616 683.89 54.6456 685.761 49.9367 685.761C45.2277 685.761 40.7117 683.89 37.382 680.56C34.0523 677.229 32.1816 672.712 32.1816 668.001C32.1816 663.291 34.0523 658.774 37.382 655.443C40.7117 652.112 45.2277 650.241 49.9367 650.241Z" fill="#163BF3"/>
<path d="M59.6029 366.481C67.9368 361.312 70.5038 350.364 65.3366 342.028C60.1694 333.692 49.2245 331.124 40.8906 336.293C32.5567 341.461 29.9897 352.409 35.1569 360.746C40.3241 369.082 51.269 371.65 59.6029 366.481Z" fill="#163BF3"/>
<path fill-rule="evenodd" clip-rule="evenodd" d="M49.9367 722.17C54.6456 722.17 59.1616 724.041 62.4913 727.372C65.8211 730.702 67.6917 735.22 67.6917 739.93C67.6917 744.64 65.8211 749.158 62.4913 752.488C59.1616 755.819 54.6456 757.69 49.9367 757.69C45.2277 757.69 40.7117 755.819 37.382 752.488C34.0523 749.158 32.1816 744.64 32.1816 739.93C32.1816 735.22 34.0523 730.702 37.382 727.372C40.7117 724.041 45.2277 722.17 49.9367 722.17Z" fill="#163BF3"/>
<path d="M226.599 72.8161C236.405 72.8161 244.354 64.8646 244.354 55.056C244.354 45.2474 236.405 37.2959 226.599 37.2959C216.793 37.2959 208.844 45.2474 208.844 55.056C208.844 64.8646 216.793 72.8161 226.599 72.8161Z" fill="#163BF3"/>
<path fill-rule="evenodd" clip-rule="evenodd" d="M226.599 426.02C228.92 425.991 231.224 426.423 233.377 427.291C235.53 428.159 237.489 429.446 239.141 431.078C240.792 432.709 242.104 434.652 242.999 436.795C243.894 438.937 244.354 441.236 244.354 443.558C244.633 446.042 244.385 448.557 243.625 450.938C242.866 453.32 241.612 455.514 239.947 457.377C238.282 459.241 236.242 460.732 233.961 461.752C231.68 462.773 229.209 463.301 226.71 463.301C224.211 463.301 221.741 462.773 219.46 461.752C217.179 460.732 215.139 459.241 213.473 457.377C211.808 455.514 210.554 453.32 209.795 450.938C209.035 448.557 208.787 446.042 209.066 443.558C209.066 441.255 209.52 438.974 210.401 436.847C211.282 434.719 212.573 432.785 214.201 431.157C215.829 429.528 217.762 428.236 219.89 427.355C222.017 426.474 224.297 426.02 226.599 426.02Z" fill="#163BF3"/>
<path d="M226.599 144.3C236.405 144.3 244.354 136.349 244.354 126.54C244.354 116.732 236.405 108.78 226.599 108.78C216.793 108.78 208.844 116.732 208.844 126.54C208.844 136.349 216.793 144.3 226.599 144.3Z" fill="#163BF3"/>
<path fill-rule="evenodd" clip-rule="evenodd" d="M226.599 497.283C230.129 497.239 233.592 498.249 236.546 500.183C239.499 502.118 241.809 504.889 243.18 508.143C244.552 511.397 244.922 514.986 244.244 518.452C243.566 521.918 241.871 525.103 239.374 527.6C236.878 530.097 233.694 531.793 230.229 532.471C226.765 533.149 223.176 532.779 219.923 531.407C216.67 530.035 213.899 527.725 211.965 524.77C210.031 521.816 209.022 518.352 209.066 514.821C209.123 510.187 210.989 505.76 214.265 502.483C217.54 499.206 221.967 497.34 226.599 497.283Z" fill="#163BF3"/>
<path d="M226.599 220.67C236.405 220.67 244.354 212.718 244.354 202.91C244.354 193.101 236.405 185.149 226.599 185.149C216.793 185.149 208.844 193.101 208.844 202.91C208.844 212.718 216.793 220.67 226.599 220.67Z" fill="#163BF3"/>
<path fill-rule="evenodd" clip-rule="evenodd" d="M226.598 573.651C230.118 573.607 233.573 574.611 236.521 576.535C239.47 578.46 241.78 581.218 243.158 584.459C244.536 587.7 244.92 591.278 244.26 594.738C243.6 598.197 241.927 601.383 239.453 603.889C236.979 606.395 233.816 608.108 230.366 608.812C226.916 609.515 223.334 609.177 220.077 607.839C216.82 606.502 214.034 604.226 212.073 601.301C210.112 598.375 209.065 594.933 209.064 591.411C209.064 586.739 210.904 582.255 214.186 578.93C217.468 575.606 221.927 573.709 226.598 573.651Z" fill="#163BF3"/>
<path d="M226.599 297.259C236.405 297.259 244.354 289.308 244.354 279.499C244.354 269.691 236.405 261.739 226.599 261.739C216.793 261.739 208.844 269.691 208.844 279.499C208.844 289.308 216.793 297.259 226.599 297.259Z" fill="#163BF3"/>
<path fill-rule="evenodd" clip-rule="evenodd" d="M226.598 650.242C230.118 650.198 233.573 651.202 236.521 653.126C239.47 655.051 241.78 657.809 243.158 661.05C244.536 664.291 244.92 667.869 244.26 671.328C243.6 674.788 241.927 677.973 239.453 680.479C236.979 682.985 233.816 684.699 230.366 685.403C226.916 686.106 223.334 685.767 220.077 684.43C216.82 683.093 214.034 680.817 212.073 677.891C210.112 674.966 209.065 671.524 209.064 668.002C209.064 663.33 210.904 658.846 214.186 655.521C217.468 652.197 221.927 650.3 226.598 650.242Z" fill="#163BF3"/>
<path d="M226.599 369.188C236.405 369.188 244.354 361.237 244.354 351.428C244.354 341.619 236.405 333.668 226.599 333.668C216.793 333.668 208.844 341.619 208.844 351.428C208.844 361.237 216.793 369.188 226.599 369.188Z" fill="#163BF3"/>
<path fill-rule="evenodd" clip-rule="evenodd" d="M226.598 722.169C230.118 722.125 233.573 723.129 236.521 725.054C239.47 726.979 241.78 729.737 243.158 732.978C244.536 736.219 244.92 739.797 244.26 743.256C243.6 746.716 241.927 749.901 239.453 752.407C236.979 754.913 233.816 756.627 230.366 757.33C226.916 758.034 223.334 757.695 220.077 756.358C216.82 755.02 214.034 752.744 212.073 749.819C210.112 746.894 209.065 743.451 209.064 739.929C209.064 735.257 210.904 730.773 214.186 727.449C217.468 724.125 221.927 722.228 226.598 722.169Z" fill="#163BF3"/>
<path fill-rule="evenodd" clip-rule="evenodd" d="M120.735 37.5182C125.073 38.0057 129.08 40.075 131.99 43.3307C134.9 46.5864 136.508 50.8003 136.508 55.1673C136.508 59.5343 134.9 63.7482 131.99 67.0039C129.08 70.2597 125.073 72.3289 120.735 72.8164C118.252 73.0954 115.738 72.847 113.357 72.0873C110.976 71.3277 108.783 70.0739 106.92 68.408C105.057 66.7421 103.566 64.7016 102.546 62.42C101.526 60.1383 100.998 57.6669 100.998 55.1673C100.998 52.6678 101.526 50.1963 102.546 47.9147C103.566 45.633 105.057 43.5925 106.92 41.9266C108.783 40.2608 110.976 39.007 113.357 38.2473C115.738 37.4876 118.252 37.2392 120.735 37.5182Z" fill="#163BF3"/>
<path fill-rule="evenodd" clip-rule="evenodd" d="M120.734 426.02C125.384 426.02 129.843 427.868 133.131 431.157C136.419 434.446 138.267 438.907 138.267 443.558C138.296 445.88 137.864 448.184 136.996 450.338C136.128 452.491 134.841 454.451 133.21 456.103C131.579 457.755 129.637 459.067 127.495 459.962C125.353 460.857 123.055 461.318 120.734 461.318C116.025 461.318 111.509 459.447 108.179 456.116C104.849 452.786 102.979 448.268 102.979 443.558C102.978 441.236 103.439 438.937 104.334 436.795C105.229 434.652 106.54 432.709 108.192 431.078C109.844 429.446 111.803 428.159 113.956 427.291C116.109 426.423 118.412 425.991 120.734 426.02Z" fill="#163BF3"/>
<path fill-rule="evenodd" clip-rule="evenodd" d="M120.734 108.78C123.055 108.78 125.353 109.241 127.495 110.136C129.637 111.031 131.579 112.343 133.21 113.995C134.841 115.647 136.128 117.607 136.996 119.761C137.864 121.914 138.296 124.219 138.267 126.54C138.267 128.844 137.813 131.124 136.932 133.252C136.051 135.38 134.759 137.313 133.131 138.942C131.503 140.57 129.57 141.862 127.443 142.743C125.316 143.625 123.036 144.078 120.734 144.078C118.412 144.108 116.109 143.676 113.956 142.808C111.803 141.94 109.844 140.652 108.192 139.021C106.54 137.389 105.229 135.446 104.334 133.304C103.439 131.161 102.978 128.862 102.979 126.54C102.979 124.208 103.438 121.899 104.33 119.744C105.222 117.589 106.53 115.631 108.179 113.982C109.828 112.333 111.785 111.025 113.939 110.132C116.093 109.24 118.402 108.78 120.734 108.78Z" fill="#163BF3"/>
<path fill-rule="evenodd" clip-rule="evenodd" d="M120.735 497.283C125.073 497.77 129.08 499.84 131.99 503.095C134.9 506.351 136.508 510.565 136.508 514.932C136.508 519.299 134.9 523.513 131.99 526.769C129.08 530.024 125.073 532.094 120.735 532.581C118.252 532.86 115.738 532.612 113.357 531.852C110.976 531.092 108.783 529.839 106.92 528.173C105.057 526.507 103.566 524.466 102.546 522.185C101.526 519.903 100.998 517.432 100.998 514.932C100.998 512.432 101.526 509.961 102.546 507.679C103.566 505.398 105.057 503.357 106.92 501.691C108.783 500.025 110.976 498.772 113.357 498.012C115.738 497.252 118.252 497.004 120.735 497.283Z" fill="#163BF3"/>
<path fill-rule="evenodd" clip-rule="evenodd" d="M120.734 185.149C125.442 185.149 129.959 187.021 133.288 190.351C136.618 193.682 138.489 198.199 138.489 202.91C138.489 207.62 136.618 212.137 133.288 215.468C129.959 218.798 125.442 220.67 120.734 220.67C116.025 220.67 111.509 218.798 108.179 215.468C104.849 212.137 102.979 207.62 102.979 202.91C102.979 198.199 104.849 193.682 108.179 190.351C111.509 187.021 116.025 185.149 120.734 185.149Z" fill="#163BF3"/>
<path fill-rule="evenodd" clip-rule="evenodd" d="M120.734 573.651C125.442 573.651 129.959 575.523 133.288 578.853C136.618 582.184 138.489 586.701 138.489 591.411C138.489 596.122 136.618 600.639 133.288 603.97C129.959 607.3 125.442 609.172 120.734 609.172C116.025 609.172 111.509 607.3 108.179 603.97C104.849 600.639 102.979 596.122 102.979 591.411C102.979 586.701 104.849 582.184 108.179 578.853C111.509 575.523 116.025 573.651 120.734 573.651Z" fill="#163BF3"/>
<path fill-rule="evenodd" clip-rule="evenodd" d="M120.734 261.739C125.442 261.739 129.959 263.61 133.288 266.941C136.618 270.272 138.489 274.789 138.489 279.499C138.489 284.21 136.618 288.727 133.288 292.058C129.959 295.388 125.442 297.259 120.734 297.259C116.025 297.259 111.509 295.388 108.179 292.058C104.849 288.727 102.979 284.21 102.979 279.499C102.979 274.789 104.849 270.272 108.179 266.941C111.509 263.61 116.025 261.739 120.734 261.739Z" fill="#163BF3"/>
<path fill-rule="evenodd" clip-rule="evenodd" d="M120.734 650.241C125.442 650.241 129.959 652.112 133.288 655.443C136.618 658.774 138.489 663.291 138.489 668.001C138.489 672.712 136.618 677.229 133.288 680.56C129.959 683.89 125.442 685.761 120.734 685.761C116.025 685.761 111.509 683.89 108.179 680.56C104.849 677.229 102.979 672.712 102.979 668.001C102.979 663.291 104.849 658.774 108.179 655.443C111.509 652.112 116.025 650.241 120.734 650.241Z" fill="#163BF3"/>
<path fill-rule="evenodd" clip-rule="evenodd" d="M120.734 333.668C125.442 333.668 129.959 335.539 133.288 338.87C136.618 342.2 138.489 346.718 138.489 351.428C138.489 356.138 136.618 360.656 133.288 363.986C129.959 367.317 125.442 369.188 120.734 369.188C116.025 369.188 111.509 367.317 108.179 363.986C104.849 360.656 102.979 356.138 102.979 351.428C102.979 346.718 104.849 342.2 108.179 338.87C111.509 335.539 116.025 333.668 120.734 333.668Z" fill="#163BF3"/>
<path fill-rule="evenodd" clip-rule="evenodd" d="M120.734 722.17C125.442 722.17 129.959 724.041 133.288 727.372C136.618 730.702 138.489 735.22 138.489 739.93C138.489 744.64 136.618 749.158 133.288 752.488C129.959 755.819 125.442 757.69 120.734 757.69C116.025 757.69 111.509 755.819 108.179 752.488C104.849 749.158 102.979 744.64 102.979 739.93C102.979 735.22 104.849 730.702 108.179 727.372C111.509 724.041 116.025 722.17 120.734 722.17Z" fill="#163BF3"/>
<path d="M309.926 67.5788C316.86 60.643 316.86 49.398 309.926 42.4622C302.992 35.5265 291.75 35.5265 284.816 42.4622C277.883 49.398 277.883 60.643 284.816 67.5788C291.75 74.5145 302.992 74.5145 309.926 67.5788Z" fill="#163BF3"/>
<path fill-rule="evenodd" clip-rule="evenodd" d="M297.396 426.02C299.717 425.991 302.021 426.423 304.173 427.291C306.326 428.159 308.285 429.446 309.937 431.078C311.589 432.709 312.9 434.652 313.795 436.795C314.69 438.937 315.151 441.236 315.151 443.558C315.151 448.268 313.28 452.786 309.95 456.116C306.621 459.447 302.105 461.318 297.396 461.318C292.687 461.318 288.171 459.447 284.841 456.116C281.511 452.786 279.641 448.268 279.641 443.558C279.64 441.236 280.101 438.937 280.996 436.795C281.891 434.652 283.203 432.709 284.854 431.078C286.506 429.446 288.465 428.159 290.618 427.291C292.771 426.423 295.075 425.991 297.396 426.02Z" fill="#163BF3"/>
<path d="M314.892 130.642C317.148 121.096 311.241 111.529 301.698 109.272C292.155 107.016 282.59 112.925 280.335 122.47C278.079 132.016 283.986 141.583 293.529 143.84C303.072 146.096 312.636 140.187 314.892 130.642Z" fill="#163BF3"/>
<path fill-rule="evenodd" clip-rule="evenodd" d="M297.397 497.282C300.918 497.283 304.359 498.33 307.284 500.291C310.208 502.253 312.484 505.04 313.821 508.298C315.158 511.556 315.496 515.139 314.793 518.59C314.09 522.041 312.376 525.205 309.871 527.679C307.366 530.154 304.181 531.828 300.723 532.488C297.264 533.148 293.687 532.764 290.447 531.386C287.207 530.008 284.45 527.697 282.526 524.747C280.602 521.797 279.598 518.342 279.642 514.82C279.7 510.149 281.597 505.688 284.92 502.405C288.244 499.123 292.726 497.282 297.397 497.282Z" fill="#163BF3"/>
<path d="M314.809 206.269C316.663 196.638 310.36 187.326 300.732 185.471C291.103 183.616 281.794 189.921 279.939 199.553C278.085 209.184 284.388 218.496 294.017 220.351C303.646 222.205 312.955 215.901 314.809 206.269Z" fill="#163BF3"/>
<path fill-rule="evenodd" clip-rule="evenodd" d="M297.396 573.651C300.907 573.651 304.34 574.693 307.26 576.644C310.18 578.596 312.455 581.37 313.799 584.615C315.143 587.86 315.495 591.431 314.81 594.876C314.124 598.321 312.433 601.486 309.95 603.97C307.467 606.454 304.304 608.145 300.859 608.83C297.415 609.516 293.845 609.164 290.601 607.82C287.357 606.475 284.584 604.199 282.633 601.278C280.682 598.358 279.641 594.924 279.641 591.411C279.641 586.701 281.511 582.184 284.841 578.853C288.171 575.523 292.687 573.651 297.396 573.651Z" fill="#163BF3"/>
<path d="M314.758 282.69C316.612 273.058 310.31 263.747 300.681 261.892C291.052 260.037 281.743 266.342 279.889 275.973C278.034 285.605 284.337 294.917 293.966 296.771C303.595 298.626 312.904 292.322 314.758 282.69Z" fill="#163BF3"/>
<path fill-rule="evenodd" clip-rule="evenodd" d="M297.396 650.241C300.907 650.241 304.34 651.283 307.26 653.234C310.18 655.186 312.455 657.96 313.799 661.205C315.143 664.45 315.495 668.021 314.81 671.466C314.124 674.911 312.433 678.076 309.95 680.56C307.467 683.043 304.304 684.735 300.859 685.42C297.415 686.105 293.845 685.754 290.601 684.41C287.357 683.065 284.584 680.789 282.633 677.868C280.682 674.948 279.641 671.514 279.641 668.001C279.641 663.291 281.511 658.774 284.841 655.443C288.171 652.112 292.687 650.241 297.396 650.241Z" fill="#163BF3"/>
<path d="M314.793 354.678C316.647 345.047 310.345 335.735 300.716 333.88C291.087 332.026 281.778 338.33 279.924 347.962C278.07 357.593 284.372 366.905 294.001 368.76C303.63 370.614 312.939 364.31 314.793 354.678Z" fill="#163BF3"/>
<path fill-rule="evenodd" clip-rule="evenodd" d="M297.396 722.17C300.907 722.17 304.34 723.212 307.26 725.163C310.18 727.115 312.455 729.888 313.799 733.134C315.143 736.379 315.495 739.95 314.81 743.395C314.124 746.84 312.433 750.005 309.95 752.488C307.467 754.972 304.304 756.664 300.859 757.349C297.415 758.034 293.845 757.682 290.601 756.338C287.357 754.994 284.584 752.718 282.633 749.797C280.682 746.876 279.641 743.443 279.641 739.93C279.641 735.22 281.511 730.702 284.841 727.372C288.171 724.041 292.687 722.17 297.396 722.17Z" fill="#163BF3"/>
<path d="M85.2238 72.8161C95.0296 72.8161 102.979 64.8646 102.979 55.056C102.979 45.2474 95.0296 37.2959 85.2238 37.2959C75.4179 37.2959 67.4688 45.2474 67.4688 55.056C67.4688 64.8646 75.4179 72.8161 85.2238 72.8161Z" fill="#163BF3"/>
<path fill-rule="evenodd" clip-rule="evenodd" d="M85.2239 426.02C87.545 425.991 89.8488 426.423 92.0017 427.291C94.1546 428.159 96.1137 429.446 97.7654 431.078C99.4171 432.709 100.728 434.652 101.623 436.795C102.518 438.937 102.979 441.236 102.979 443.558C102.979 448.268 101.108 452.786 97.7786 456.116C94.4489 459.447 89.9329 461.318 85.2239 461.318C82.9027 461.318 80.6045 460.857 78.4627 459.962C76.3208 459.067 74.3781 457.755 72.747 456.103C71.116 454.451 69.8292 452.491 68.9612 450.338C68.0933 448.184 67.6615 445.88 67.6909 443.558C67.6909 438.907 69.5381 434.446 72.8262 431.157C76.1143 427.868 80.5739 426.02 85.2239 426.02Z" fill="#163BF3"/>
<path d="M85.2238 144.3C95.0296 144.3 102.979 136.349 102.979 126.54C102.979 116.732 95.0296 108.78 85.2238 108.78C75.4179 108.78 67.4688 116.732 67.4688 126.54C67.4688 136.349 75.4179 144.3 85.2238 144.3Z" fill="#163BF3"/>
<path fill-rule="evenodd" clip-rule="evenodd" d="M85.2239 497.283C88.754 497.239 92.2171 498.249 95.1706 500.183C98.1242 502.118 100.434 504.889 101.805 508.143C103.177 511.397 103.547 514.986 102.869 518.452C102.191 521.918 100.496 525.103 97.9992 527.6C95.5028 530.097 92.3189 531.793 88.8542 532.471C85.3895 533.149 81.8014 532.779 78.5482 531.407C75.2949 530.035 72.5244 527.725 70.5904 524.77C68.6565 521.816 67.647 518.352 67.6908 514.821C67.6908 510.169 69.5381 505.708 72.8261 502.419C76.1142 499.13 80.5738 497.283 85.2239 497.283Z" fill="#163BF3"/>
<path d="M85.2238 220.67C95.0296 220.67 102.979 212.718 102.979 202.91C102.979 193.101 95.0296 185.149 85.2238 185.149C75.4179 185.149 67.4688 193.101 67.4688 202.91C67.4688 212.718 75.4179 220.67 85.2238 220.67Z" fill="#163BF3"/>
<path fill-rule="evenodd" clip-rule="evenodd" d="M85.2238 573.651C89.9327 573.651 94.4488 575.523 97.7785 578.853C101.108 582.184 102.979 586.701 102.979 591.411C102.979 596.122 101.108 600.639 97.7785 603.97C94.4488 607.3 89.9327 609.172 85.2238 609.172C80.5148 609.172 75.9988 607.3 72.6691 603.97C69.3394 600.639 67.4688 596.122 67.4688 591.411C67.4688 586.701 69.3394 582.184 72.6691 578.853C75.9988 575.523 80.5148 573.651 85.2238 573.651Z" fill="#163BF3"/>
<path d="M85.2238 297.259C95.0296 297.259 102.979 289.308 102.979 279.499C102.979 269.691 95.0296 261.739 85.2238 261.739C75.4179 261.739 67.4688 269.691 67.4688 279.499C67.4688 289.308 75.4179 297.259 85.2238 297.259Z" fill="#163BF3"/>
<path fill-rule="evenodd" clip-rule="evenodd" d="M85.2238 650.241C89.9327 650.241 94.4488 652.112 97.7785 655.443C101.108 658.774 102.979 663.291 102.979 668.001C102.979 672.712 101.108 677.229 97.7785 680.56C94.4488 683.89 89.9327 685.761 85.2238 685.761C80.5148 685.761 75.9988 683.89 72.6691 680.56C69.3394 677.229 67.4688 672.712 67.4688 668.001C67.4688 663.291 69.3394 658.774 72.6691 655.443C75.9988 652.112 80.5148 650.241 85.2238 650.241Z" fill="#163BF3"/>
<path d="M85.2238 369.188C95.0296 369.188 102.979 361.237 102.979 351.428C102.979 341.619 95.0296 333.668 85.2238 333.668C75.4179 333.668 67.4688 341.619 67.4688 351.428C67.4688 361.237 75.4179 369.188 85.2238 369.188Z" fill="#163BF3"/>
<path fill-rule="evenodd" clip-rule="evenodd" d="M85.2238 722.17C89.9327 722.17 94.4488 724.041 97.7785 727.372C101.108 730.702 102.979 735.22 102.979 739.93C102.979 744.64 101.108 749.158 97.7785 752.488C94.4488 755.819 89.9327 757.69 85.2238 757.69C80.5148 757.69 75.9988 755.819 72.6691 752.488C69.3394 749.158 67.4688 744.64 67.4688 739.93C67.4688 735.22 69.3394 730.702 72.6691 727.372C75.9988 724.041 80.5148 722.17 85.2238 722.17Z" fill="#163BF3"/>
<path d="M279.396 59.3037C281.652 49.7581 275.745 40.1907 266.202 37.9342C256.659 35.6778 247.094 41.5867 244.838 51.1323C242.583 60.6778 248.49 70.2452 258.033 72.5017C267.576 74.7582 277.14 68.8492 279.396 59.3037Z" fill="#163BF3"/>
<path fill-rule="evenodd" clip-rule="evenodd" d="M262.109 426.02C266.759 426.02 271.218 427.868 274.506 431.157C277.794 434.446 279.642 438.907 279.642 443.558C279.671 445.88 279.239 448.184 278.371 450.338C277.503 452.491 276.216 454.451 274.585 456.103C272.954 457.755 271.012 459.067 268.87 459.962C266.728 460.857 264.43 461.318 262.109 461.318C257.4 461.318 252.884 459.447 249.554 456.116C246.224 452.786 244.354 448.268 244.354 443.558C244.353 441.236 244.814 438.937 245.709 436.795C246.604 434.652 247.915 432.709 249.567 431.078C251.219 429.446 253.178 428.159 255.331 427.291C257.484 426.423 259.787 425.991 262.109 426.02Z" fill="#163BF3"/>
<path d="M274.695 139.09C281.629 132.154 281.629 120.909 274.695 113.973C267.762 107.037 256.52 107.037 249.586 113.973C242.652 120.909 242.652 132.154 249.586 139.09C256.52 146.025 267.762 146.025 274.695 139.09Z" fill="#163BF3"/>
<path fill-rule="evenodd" clip-rule="evenodd" d="M262.108 497.283C266.447 497.77 270.453 499.84 273.363 503.095C276.273 506.351 277.881 510.565 277.881 514.932C277.881 519.299 276.273 523.513 273.363 526.769C270.453 530.024 266.447 532.094 262.108 532.581C259.625 532.86 257.111 532.612 254.73 531.852C252.349 531.092 250.156 529.839 248.293 528.173C246.43 526.507 244.939 524.466 243.919 522.185C242.899 519.903 242.371 517.432 242.371 514.932C242.371 512.432 242.899 509.961 243.919 507.679C244.939 505.398 246.43 503.357 248.293 501.691C250.156 500.025 252.349 498.772 254.73 498.012C257.111 497.252 259.625 497.004 262.108 497.283Z" fill="#163BF3"/>
<path d="M271.544 217.663C279.878 212.494 282.445 201.546 277.278 193.21C272.111 184.873 261.166 182.306 252.832 187.474C244.498 192.643 241.931 203.591 247.098 211.927C252.266 220.263 263.21 222.831 271.544 217.663Z" fill="#163BF3"/>
<path fill-rule="evenodd" clip-rule="evenodd" d="M262.109 573.651C266.817 573.651 271.334 575.523 274.663 578.853C277.993 582.184 279.864 586.701 279.864 591.411C279.864 596.122 277.993 600.639 274.663 603.97C271.334 607.3 266.817 609.172 262.109 609.172C257.4 609.172 252.884 607.3 249.554 603.97C246.224 600.639 244.354 596.122 244.354 591.411C244.354 586.701 246.224 582.184 249.554 578.853C252.884 575.523 257.4 573.651 262.109 573.651Z" fill="#163BF3"/>
<path d="M271.499 294.3C279.833 289.132 282.4 278.184 277.233 269.847C272.066 261.511 261.121 258.943 252.787 264.112C244.453 269.281 241.886 280.229 247.053 288.565C252.221 296.901 263.165 299.469 271.499 294.3Z" fill="#163BF3"/>
<path fill-rule="evenodd" clip-rule="evenodd" d="M262.109 650.241C266.817 650.241 271.334 652.112 274.663 655.443C277.993 658.774 279.864 663.291 279.864 668.001C279.864 672.712 277.993 677.229 274.663 680.56C271.334 683.89 266.817 685.761 262.109 685.761C257.4 685.761 252.884 683.89 249.554 680.56C246.224 677.229 244.354 672.712 244.354 668.001C244.354 663.291 246.224 658.774 249.554 655.443C252.884 652.112 257.4 650.241 262.109 650.241Z" fill="#163BF3"/>
<path d="M271.663 366.088C279.997 360.92 282.564 349.972 277.397 341.635C272.23 333.299 261.285 330.731 252.951 335.9C244.617 341.069 242.05 352.017 247.217 360.353C252.385 368.689 263.33 371.257 271.663 366.088Z" fill="#163BF3"/>
<path fill-rule="evenodd" clip-rule="evenodd" d="M262.109 722.17C266.817 722.17 271.334 724.041 274.663 727.372C277.993 730.702 279.864 735.22 279.864 739.93C279.864 744.64 277.993 749.158 274.663 752.488C271.334 755.819 266.817 757.69 262.109 757.69C257.4 757.69 252.884 755.819 249.554 752.488C246.224 749.158 244.354 744.64 244.354 739.93C244.354 735.22 246.224 730.702 249.554 727.372C252.884 724.041 257.4 722.17 262.109 722.17Z" fill="#163BF3"/>
<path d="M156.023 72.8161C165.828 72.8161 173.778 64.8646 173.778 55.056C173.778 45.2474 165.828 37.2959 156.023 37.2959C146.217 37.2959 138.268 45.2474 138.268 55.056C138.268 64.8646 146.217 72.8161 156.023 72.8161Z" fill="#163BF3"/>
<path fill-rule="evenodd" clip-rule="evenodd" d="M156.023 426.02C158.344 425.991 160.648 426.423 162.8 427.291C164.953 428.159 166.912 429.446 168.564 431.078C170.216 432.709 171.527 434.652 172.422 436.795C173.317 438.937 173.778 441.236 173.778 443.558C173.778 448.268 171.907 452.786 168.577 456.116C165.248 459.447 160.732 461.318 156.023 461.318C151.314 461.318 146.798 459.447 143.468 456.116C140.138 452.786 138.268 448.268 138.268 443.558C138.267 441.236 138.728 438.937 139.623 436.795C140.518 434.652 141.829 432.709 143.481 431.078C145.133 429.446 147.092 428.159 149.245 427.291C151.398 426.423 153.702 425.991 156.023 426.02Z" fill="#163BF3"/>
<path d="M156.023 144.3C165.828 144.3 173.778 136.349 173.778 126.54C173.778 116.732 165.828 108.78 156.023 108.78C146.217 108.78 138.268 116.732 138.268 126.54C138.268 136.349 146.217 144.3 156.023 144.3Z" fill="#163BF3"/>
<path fill-rule="evenodd" clip-rule="evenodd" d="M156.022 497.282C159.543 497.283 162.984 498.33 165.909 500.291C168.833 502.253 171.109 505.04 172.446 508.298C173.783 511.556 174.121 515.139 173.418 518.59C172.715 522.041 171.001 525.205 168.496 527.679C165.991 530.154 162.806 531.828 159.348 532.488C155.889 533.148 152.312 532.764 149.072 531.386C145.832 530.008 143.075 527.697 141.151 524.747C139.227 521.797 138.223 518.342 138.267 514.82C138.325 510.149 140.222 505.688 143.545 502.405C146.869 499.123 151.351 497.282 156.022 497.282Z" fill="#163BF3"/>
<path d="M156.023 220.67C165.828 220.67 173.778 212.718 173.778 202.91C173.778 193.101 165.828 185.149 156.023 185.149C146.217 185.149 138.268 193.101 138.268 202.91C138.268 212.718 146.217 220.67 156.023 220.67Z" fill="#163BF3"/>
<path fill-rule="evenodd" clip-rule="evenodd" d="M156.023 573.651C159.534 573.651 162.967 574.693 165.887 576.644C168.807 578.596 171.082 581.37 172.426 584.615C173.77 587.86 174.122 591.431 173.436 594.876C172.751 598.321 171.06 601.486 168.577 603.97C166.094 606.454 162.931 608.145 159.486 608.83C156.042 609.516 152.472 609.164 149.228 607.82C145.984 606.475 143.211 604.199 141.26 601.278C139.309 598.358 138.268 594.924 138.268 591.411C138.268 586.701 140.138 582.184 143.468 578.853C146.798 575.523 151.314 573.651 156.023 573.651Z" fill="#163BF3"/>
<path d="M156.023 297.259C165.828 297.259 173.778 289.308 173.778 279.499C173.778 269.691 165.828 261.739 156.023 261.739C146.217 261.739 138.268 269.691 138.268 279.499C138.268 289.308 146.217 297.259 156.023 297.259Z" fill="#163BF3"/>
<path fill-rule="evenodd" clip-rule="evenodd" d="M156.023 650.241C159.534 650.241 162.967 651.283 165.887 653.234C168.807 655.186 171.082 657.96 172.426 661.205C173.77 664.45 174.122 668.021 173.436 671.466C172.751 674.911 171.06 678.076 168.577 680.56C166.094 683.043 162.931 684.735 159.486 685.42C156.042 686.105 152.472 685.754 149.228 684.41C145.984 683.065 143.211 680.789 141.26 677.868C139.309 674.948 138.268 671.514 138.268 668.001C138.268 663.291 140.138 658.774 143.468 655.443C146.798 652.112 151.314 650.241 156.023 650.241Z" fill="#163BF3"/>
<path d="M156.023 369.188C165.828 369.188 173.778 361.237 173.778 351.428C173.778 341.619 165.828 333.668 156.023 333.668C146.217 333.668 138.268 341.619 138.268 351.428C138.268 361.237 146.217 369.188 156.023 369.188Z" fill="#163BF3"/>
<path fill-rule="evenodd" clip-rule="evenodd" d="M156.023 722.17C159.534 722.17 162.967 723.212 165.887 725.163C168.807 727.115 171.082 729.888 172.426 733.134C173.77 736.379 174.122 739.95 173.436 743.395C172.751 746.84 171.06 750.005 168.577 752.488C166.094 754.972 162.931 756.664 159.486 757.349C156.042 758.034 152.472 757.682 149.228 756.338C145.984 754.994 143.211 752.718 141.26 749.797C139.309 746.876 138.268 743.443 138.268 739.93C138.268 735.22 140.138 730.702 143.468 727.372C146.798 724.041 151.314 722.17 156.023 722.17Z" fill="#163BF3"/>
<path d="M332.685 72.8161C342.491 72.8161 350.44 64.8646 350.44 55.056C350.44 45.2474 342.491 37.2959 332.685 37.2959C322.879 37.2959 314.93 45.2474 314.93 55.056C314.93 64.8646 322.879 72.8161 332.685 72.8161Z" fill="#163BF3"/>
<path fill-rule="evenodd" clip-rule="evenodd" d="M332.685 426.02C335.006 425.991 337.31 426.423 339.463 427.291C341.616 428.159 343.575 429.446 345.226 431.078C346.878 432.709 348.189 434.652 349.084 436.795C349.979 438.937 350.44 441.236 350.44 443.558C350.44 448.268 348.569 452.786 345.24 456.116C341.91 459.447 337.394 461.318 332.685 461.318C330.364 461.318 328.065 460.857 325.924 459.962C323.782 459.067 321.839 457.755 320.208 456.103C318.577 454.451 317.29 452.491 316.422 450.338C315.554 448.184 315.122 445.88 315.152 443.558C315.152 438.907 316.999 434.446 320.287 431.157C323.575 427.868 328.035 426.02 332.685 426.02Z" fill="#163BF3"/>
<path d="M332.685 144.3C342.491 144.3 350.44 136.349 350.44 126.54C350.44 116.732 342.491 108.78 332.685 108.78C322.879 108.78 314.93 116.732 314.93 126.54C314.93 136.349 322.879 144.3 332.685 144.3Z" fill="#163BF3"/>
<path fill-rule="evenodd" clip-rule="evenodd" d="M332.685 497.283C336.215 497.239 339.678 498.249 342.632 500.183C345.585 502.118 347.895 504.889 349.266 508.143C350.638 511.397 351.008 514.986 350.33 518.452C349.652 521.918 347.956 525.103 345.46 527.6C342.964 530.097 339.78 531.793 336.315 532.471C332.85 533.149 329.262 532.779 326.009 531.407C322.756 530.035 319.985 527.725 318.051 524.77C316.117 521.816 315.108 518.352 315.152 514.821C315.152 510.169 316.999 505.708 320.287 502.419C323.575 499.13 328.035 497.283 332.685 497.283Z" fill="#163BF3"/>
<path d="M332.685 220.67C342.491 220.67 350.44 212.718 350.44 202.91C350.44 193.101 342.491 185.149 332.685 185.149C322.879 185.149 314.93 193.101 314.93 202.91C314.93 212.718 322.879 220.67 332.685 220.67Z" fill="#163BF3"/>
<path fill-rule="evenodd" clip-rule="evenodd" d="M332.685 573.651C337.394 573.651 341.91 575.523 345.239 578.853C348.569 582.184 350.44 586.701 350.44 591.411C350.44 596.122 348.569 600.639 345.239 603.97C341.91 607.3 337.394 609.172 332.685 609.172C327.976 609.172 323.46 607.3 320.13 603.97C316.8 600.639 314.93 596.122 314.93 591.411C314.93 586.701 316.8 582.184 320.13 578.853C323.46 575.523 327.976 573.651 332.685 573.651Z" fill="#163BF3"/>
<path d="M332.685 297.259C342.491 297.259 350.44 289.308 350.44 279.499C350.44 269.691 342.491 261.739 332.685 261.739C322.879 261.739 314.93 269.691 314.93 279.499C314.93 289.308 322.879 297.259 332.685 297.259Z" fill="#163BF3"/>
<path fill-rule="evenodd" clip-rule="evenodd" d="M332.685 650.241C337.394 650.241 341.91 652.112 345.239 655.443C348.569 658.774 350.44 663.291 350.44 668.001C350.44 672.712 348.569 677.229 345.239 680.56C341.91 683.89 337.394 685.761 332.685 685.761C327.976 685.761 323.46 683.89 320.13 680.56C316.8 677.229 314.93 672.712 314.93 668.001C314.93 663.291 316.8 658.774 320.13 655.443C323.46 652.112 327.976 650.241 332.685 650.241Z" fill="#163BF3"/>
<path d="M332.685 369.188C342.491 369.188 350.44 361.237 350.44 351.428C350.44 341.619 342.491 333.668 332.685 333.668C322.879 333.668 314.93 341.619 314.93 351.428C314.93 361.237 322.879 369.188 332.685 369.188Z" fill="#163BF3"/>
<path fill-rule="evenodd" clip-rule="evenodd" d="M332.685 722.17C337.394 722.17 341.91 724.041 345.239 727.372C348.569 730.702 350.44 735.22 350.44 739.93C350.44 744.64 348.569 749.158 345.239 752.488C341.91 755.819 337.394 757.69 332.685 757.69C327.976 757.69 323.46 755.819 320.13 752.488C316.8 749.158 314.93 744.64 314.93 739.93C314.93 735.22 316.8 730.702 320.13 727.372C323.46 724.041 327.976 722.17 332.685 722.17Z" fill="#163BF3"/>
<path d="M203.84 67.5778C210.774 60.6421 210.774 49.397 203.84 42.4612C196.906 35.5255 185.664 35.5255 178.73 42.4612C171.797 49.397 171.797 60.6421 178.73 67.5778C185.664 74.5136 196.906 74.5136 203.84 67.5778Z" fill="#163BF3"/>
<path fill-rule="evenodd" clip-rule="evenodd" d="M191.31 426.02C193.631 425.991 195.935 426.423 198.088 427.291C200.241 428.159 202.2 429.446 203.851 431.078C205.503 432.709 206.814 434.652 207.709 436.795C208.604 438.937 209.065 441.236 209.065 443.558C209.065 448.268 207.194 452.786 203.865 456.116C200.535 459.447 196.019 461.318 191.31 461.318C188.989 461.318 186.69 460.857 184.549 459.962C182.407 459.067 180.464 457.755 178.833 456.103C177.202 454.451 175.915 452.491 175.047 450.338C174.179 448.184 173.747 445.88 173.777 443.558C173.777 441.255 174.23 438.974 175.111 436.847C175.993 434.719 177.284 432.785 178.912 431.157C180.54 429.528 182.473 428.236 184.6 427.355C186.727 426.474 189.007 426.02 191.31 426.02Z" fill="#163BF3"/>
<path d="M208.814 130.682C211.07 121.136 205.163 111.569 195.62 109.312C186.077 107.056 176.512 112.965 174.256 122.51C172.001 132.056 177.908 141.623 187.451 143.88C196.993 146.136 206.558 140.227 208.814 130.682Z" fill="#163BF3"/>
<path fill-rule="evenodd" clip-rule="evenodd" d="M191.31 497.283C194.84 497.239 198.303 498.249 201.257 500.183C204.21 502.118 206.52 504.889 207.891 508.143C209.263 511.397 209.633 514.986 208.955 518.452C208.277 521.918 206.581 525.103 204.085 527.6C201.589 530.097 198.405 531.793 194.94 532.471C191.475 533.149 187.887 532.779 184.634 531.407C181.381 530.035 178.61 527.725 176.676 524.77C174.742 521.816 173.733 518.352 173.777 514.821C173.777 512.518 174.23 510.237 175.111 508.109C175.993 505.981 177.284 504.048 178.912 502.419C180.54 500.791 182.473 499.499 184.6 498.618C186.727 497.736 189.007 497.283 191.31 497.283Z" fill="#163BF3"/>
<path d="M208.858 206.353C210.712 196.722 204.409 187.41 194.78 185.555C185.151 183.7 175.842 190.005 173.988 199.637C172.134 209.268 178.437 218.58 188.066 220.435C197.694 222.289 207.003 215.985 208.858 206.353Z" fill="#163BF3"/>
<path fill-rule="evenodd" clip-rule="evenodd" d="M191.31 573.651C196.019 573.651 200.535 575.523 203.864 578.853C207.194 582.184 209.065 586.701 209.065 591.411C209.065 596.122 207.194 600.639 203.864 603.97C200.535 607.3 196.019 609.172 191.31 609.172C186.601 609.172 182.085 607.3 178.755 603.97C175.425 600.639 173.555 596.122 173.555 591.411C173.555 586.701 175.425 582.184 178.755 578.853C182.085 575.523 186.601 573.651 191.31 573.651Z" fill="#163BF3"/>
<path d="M208.809 282.774C210.663 273.142 204.36 263.831 194.732 261.976C185.103 260.121 175.794 266.426 173.939 276.057C172.085 285.689 178.388 295.001 188.017 296.855C197.646 298.71 206.955 292.406 208.809 282.774Z" fill="#163BF3"/>
<path fill-rule="evenodd" clip-rule="evenodd" d="M191.31 650.241C196.019 650.241 200.535 652.112 203.864 655.443C207.194 658.774 209.065 663.291 209.065 668.001C209.065 672.712 207.194 677.229 203.864 680.56C200.535 683.89 196.019 685.761 191.31 685.761C186.601 685.761 182.085 683.89 178.755 680.56C175.425 677.229 173.555 672.712 173.555 668.001C173.555 663.291 175.425 658.774 178.755 655.443C182.085 652.112 186.601 650.241 191.31 650.241Z" fill="#163BF3"/>
<path d="M208.842 354.761C210.696 345.13 204.394 335.818 194.765 333.963C185.136 332.109 175.827 338.413 173.973 348.045C172.118 357.676 178.421 366.988 188.05 368.843C197.679 370.697 206.988 364.393 208.842 354.761Z" fill="#163BF3"/>
<path fill-rule="evenodd" clip-rule="evenodd" d="M191.31 722.17C196.019 722.17 200.535 724.041 203.864 727.372C207.194 730.702 209.065 735.22 209.065 739.93C209.065 744.64 207.194 749.158 203.864 752.488C200.535 755.819 196.019 757.69 191.31 757.69C186.601 757.69 182.085 755.819 178.755 752.488C175.425 749.158 173.555 744.64 173.555 739.93C173.555 735.22 175.425 730.702 178.755 727.372C182.085 724.041 186.601 722.17 191.31 722.17Z" fill="#163BF3"/>
<path d="M380.471 67.61C387.404 60.6743 387.404 49.4292 380.471 42.4935C373.537 35.5577 362.295 35.5577 355.361 42.4935C348.428 49.4292 348.428 60.6743 355.361 67.61C362.295 74.5458 373.537 74.5458 380.471 67.61Z" fill="#163BF3"/>
<path fill-rule="evenodd" clip-rule="evenodd" d="M367.972 426.02C370.293 425.991 372.597 426.423 374.75 427.291C376.903 428.159 378.862 429.446 380.514 431.078C382.165 432.709 383.477 434.652 384.372 436.795C385.267 438.937 385.727 441.236 385.727 443.558C386.006 446.042 385.758 448.557 384.998 450.938C384.239 453.32 382.985 455.514 381.32 457.377C379.655 459.241 377.615 460.732 375.334 461.752C373.053 462.773 370.582 463.301 368.083 463.301C365.584 463.301 363.114 462.773 360.833 461.752C358.552 460.732 356.512 459.241 354.846 457.377C353.181 455.514 351.927 453.32 351.168 450.938C350.409 448.557 350.16 446.042 350.439 443.558C350.439 438.907 352.286 434.446 355.574 431.157C358.863 427.868 363.322 426.02 367.972 426.02Z" fill="#163BF3"/>
<path d="M385.503 130.759C387.759 121.213 381.852 111.646 372.309 109.389C362.766 107.133 353.202 113.042 350.946 122.587C348.69 132.133 354.597 141.7 364.14 143.957C373.683 146.213 383.248 140.304 385.503 130.759Z" fill="#163BF3"/>
<path fill-rule="evenodd" clip-rule="evenodd" d="M367.972 497.283C371.502 497.239 374.965 498.249 377.919 500.183C380.872 502.118 383.182 504.889 384.553 508.143C385.925 511.397 386.295 514.986 385.617 518.452C384.939 521.918 383.244 525.103 380.747 527.6C378.251 530.097 375.067 531.793 371.602 532.471C368.138 533.149 364.549 532.779 361.296 531.407C358.043 530.035 355.272 527.725 353.338 524.77C351.405 521.816 350.395 518.352 350.439 514.821C350.496 510.187 352.362 505.76 355.638 502.483C358.914 499.206 363.34 497.34 367.972 497.283Z" fill="#163BF3"/>
<path d="M385.414 206.433C387.269 196.802 380.966 187.49 371.337 185.635C361.708 183.78 352.399 190.085 350.545 199.717C348.691 209.348 354.993 218.66 364.622 220.515C374.251 222.369 383.56 216.065 385.414 206.433Z" fill="#163BF3"/>
<path fill-rule="evenodd" clip-rule="evenodd" d="M367.973 573.651C371.493 573.607 374.948 574.611 377.896 576.535C380.845 578.46 383.155 581.218 384.533 584.459C385.911 587.7 386.295 591.278 385.635 594.738C384.975 598.197 383.302 601.383 380.828 603.889C378.354 606.395 375.191 608.108 371.741 608.812C368.291 609.515 364.709 609.177 361.452 607.839C358.195 606.502 355.409 604.226 353.448 601.301C351.487 598.375 350.44 594.933 350.439 591.411C350.439 586.739 352.279 582.255 355.561 578.93C358.843 575.606 363.302 573.709 367.973 573.651Z" fill="#163BF3"/>
<path d="M385.363 282.854C387.218 273.222 380.915 263.911 371.286 262.056C361.657 260.201 352.348 266.506 350.494 276.137C348.64 285.769 354.942 295.081 364.571 296.936C374.2 298.79 383.509 292.486 385.363 282.854Z" fill="#163BF3"/>
<path fill-rule="evenodd" clip-rule="evenodd" d="M367.973 650.242C371.493 650.198 374.948 651.202 377.896 653.126C380.845 655.051 383.155 657.809 384.533 661.05C385.911 664.291 386.295 667.869 385.635 671.328C384.975 674.788 383.302 677.973 380.828 680.479C378.354 682.985 375.191 684.699 371.741 685.403C368.291 686.106 364.709 685.767 361.452 684.43C358.195 683.093 355.409 680.817 353.448 677.891C351.487 674.966 350.44 671.524 350.439 668.002C350.439 663.33 352.279 658.846 355.561 655.521C358.843 652.197 363.302 650.3 367.973 650.242Z" fill="#163BF3"/>
<path d="M385.399 354.841C387.253 345.21 380.95 335.898 371.321 334.043C361.692 332.189 352.384 338.493 350.529 348.125C348.675 357.756 354.978 367.068 364.607 368.923C374.235 370.778 383.544 364.473 385.399 354.841Z" fill="#163BF3"/>
<path fill-rule="evenodd" clip-rule="evenodd" d="M367.973 722.169C371.493 722.125 374.948 723.129 377.896 725.054C380.845 726.979 383.155 729.737 384.533 732.978C385.911 736.219 386.295 739.797 385.635 743.256C384.975 746.716 383.302 749.901 380.828 752.407C378.354 754.913 375.191 756.627 371.741 757.33C368.291 758.034 364.709 757.695 361.452 756.358C358.195 755.02 355.409 752.744 353.448 749.819C351.487 746.894 350.44 743.451 350.439 739.929C350.439 735.257 352.279 730.773 355.561 727.449C358.843 724.125 363.302 722.228 367.973 722.169Z" fill="#163BF3"/>
<path d="M32.4029 0H0V780.956H32.4029V0Z" fill="black"/>
<path d="M520.221 0H487.818V780.956H520.221V0Z" fill="black"/>
</g>
<defs>
<clipPath id="clip0_467:18518">
<rect width="520" height="781" fill="white"/>
</clipPath>
</defs>
</svg>
