<svg width="438" height="845" viewBox="0 0 438 845" fill="none" xmlns="http://www.w3.org/2000/svg">
<path fill-rule="evenodd" clip-rule="evenodd" d="M318.133 278.381L343.484 313.902H292.939L318.133 278.381Z" fill="#FBBE2E"/>
<path d="M318.132 278.224C384.247 278.224 437.843 215.942 437.843 139.112C437.843 62.2826 384.247 0 318.132 0C252.018 0 198.422 62.2826 198.422 139.112C198.422 215.942 252.018 278.224 318.132 278.224Z" fill="#163BF3"/>
<path d="M320.793 30.8271C320.793 30.8271 380.727 30.8271 407.172 116.11" stroke="white" stroke-width="21.76" stroke-linecap="round" stroke-linejoin="round"/>
<path fill-rule="evenodd" clip-rule="evenodd" d="M138.959 412.798L164.935 449.258H112.982L138.959 412.798Z" fill="#FBBE2E"/>
<path fill-rule="evenodd" clip-rule="evenodd" d="M138.958 126.124C207.029 126.124 262.268 190.281 262.268 269.305C262.268 348.328 207.029 412.485 138.958 412.485C70.8875 412.485 15.6484 348.328 15.6484 269.305C15.6484 190.281 70.8875 126.124 138.958 126.124Z" fill="#24A865"/>
<path d="M138.959 160.55C138.959 160.55 200.614 160.55 227.842 248.336" stroke="white" stroke-width="22.4" stroke-linecap="round" stroke-linejoin="round"/>
<path d="M144.123 413.58H133.639" stroke="black" stroke-width="2" stroke-linecap="round" stroke-linejoin="round"/>
<path d="M133.637 413.58C62.2804 413.58 14.3962 448.475 30.827 499.019C49.1357 555.039 167.125 532.663 167.125 619.666C167.125 706.67 1.56445 732.646 1.56445 843.435" stroke="black" stroke-width="2" stroke-linecap="round" stroke-linejoin="round"/>
</svg>
