<svg width="725" height="742" viewBox="0 0 725 742" fill="none" xmlns="http://www.w3.org/2000/svg">
<g clip-path="url(#clip0_467:18426)">
<path d="M606.2 19.4805H67.6602V722.549H606.2V19.4805Z" fill="#4FB3F6"/>
<path d="M705.794 19.4805H167.254V722.549H705.794V19.4805Z" fill="#4FB3F6"/>
<path d="M67.6596 19.4805H48.4531V722.549H67.6596V19.4805Z" fill="#163BF3"/>
<path d="M625.406 19.4805H606.199V722.549H625.406V19.4805Z" fill="#0089E3"/>
<path d="M724.999 19.4805H705.793V722.549H724.999V19.4805Z" fill="#0089E3"/>
<path fill-rule="evenodd" clip-rule="evenodd" d="M48.454 24.2045C48.454 17.7851 45.9015 11.6286 41.3581 7.08934C36.8146 2.55011 30.6524 0 24.227 0C17.8016 0 11.6394 2.55011 7.09592 7.08934C2.55248 11.6286 0 17.7851 0 24.2045L0 717.825C0 724.244 2.55248 730.401 7.09592 734.94C11.6394 739.479 17.8016 742.029 24.227 742.029C30.6524 742.029 36.8146 739.479 41.3581 734.94C45.9015 730.401 48.454 724.244 48.454 717.825V24.2045Z" fill="#4FB3F6"/>
<path d="M344.637 140.736H184.418V595.461H344.637V140.736Z" fill="white"/>
<path d="M424.76 140.736H264.541V170.89H424.76V140.736Z" fill="white"/>
<path d="M424.76 353.036H264.541V383.19H424.76V353.036Z" fill="white"/>
<path d="M424.76 155.813C443.515 155.821 461.5 163.268 474.762 176.518C488.023 189.767 495.477 207.735 495.485 226.473V297.454C495.477 316.191 488.023 334.16 474.762 347.409C461.5 360.659 443.515 368.106 424.76 368.113V368.113" stroke="white" stroke-width="10.23" stroke-linejoin="round"/>
<path d="M344.637 368.113L495.486 595.461" stroke="white" stroke-width="10.23" stroke-linejoin="round"/>
<path fill-rule="evenodd" clip-rule="evenodd" d="M554.361 19.4805H606.201V124.027C598.617 124.019 591.345 121.005 585.982 115.647C580.619 110.29 577.603 103.025 577.595 95.4477C577.595 94.777 577.595 94.1354 577.595 93.4647C573.844 94.783 569.896 95.4536 565.92 95.4477C560.149 95.4525 554.463 94.0631 549.347 91.398C544.23 88.7328 539.834 84.871 536.534 80.1418C533.234 75.4125 531.127 69.9561 530.394 64.2377C529.661 58.5194 530.323 52.7087 532.323 47.3011C530.151 47.8059 527.928 48.0603 525.697 48.0593C521.941 48.0593 518.221 47.3201 514.75 45.8839C511.28 44.4477 508.126 42.3426 505.47 39.6888C502.814 37.035 500.707 33.8845 499.269 30.4171C497.832 26.9498 497.092 23.2335 497.092 19.4805H554.361Z" fill="#163BF3"/>
<path fill-rule="evenodd" clip-rule="evenodd" d="M554.361 722.549H606.201V618.003C598.614 618.003 591.339 621.014 585.974 626.374C580.609 631.733 577.596 639.002 577.596 646.582C577.596 647.253 577.596 647.894 577.596 648.536C572.202 646.688 566.445 646.153 560.803 646.976C555.161 647.8 549.797 649.957 545.158 653.268C540.519 656.58 536.738 660.95 534.13 666.016C531.521 671.082 530.162 676.696 530.163 682.393C530.161 686.613 530.912 690.801 532.382 694.758C530.209 694.253 527.986 693.998 525.756 693.999C518.169 693.999 510.893 697.01 505.529 702.37C500.164 707.729 497.15 714.999 497.15 722.578L554.361 722.549Z" fill="#163BF3"/>
<path d="M705.793 43.9766H625.406V694.029H705.793V43.9766Z" fill="#D9F0FF"/>
</g>
<defs>
<clipPath id="clip0_467:18426">
<rect width="725" height="742" fill="white"/>
</clipPath>
</defs>
</svg>
