<svg width="843" height="787" viewBox="0 0 843 787" fill="none" xmlns="http://www.w3.org/2000/svg">
<g clip-path="url(#clip0_467:18441)">
<path fill-rule="evenodd" clip-rule="evenodd" d="M124.42 473.88C124.42 473.88 4.41974 447.23 0.149736 343.31C-4.12026 239.39 85.5597 220.88 85.5597 220.88C85.5597 220.88 49.6397 139.5 124.42 105.57C162.71 88.1997 233.84 119.86 248.78 85.0697C288.28 -6.89025 420.85 0.119748 420.85 0.119748L421.38 534.12L124.42 473.88Z" fill="#0C114D"/>
<path fill-rule="evenodd" clip-rule="evenodd" d="M717.81 473.88C717.81 473.88 837.81 447.23 842.08 343.31C846.35 239.39 756.67 220.88 756.67 220.88C756.67 220.88 792.59 139.5 717.81 105.57C679.52 88.1997 608.39 119.86 593.45 85.0697C554 -6.89025 421.38 0.119748 421.38 0.119748C352.83 199.24 355.77 376.26 420.85 534.12L717.81 473.88Z" fill="#0C114D"/>
<path fill-rule="evenodd" clip-rule="evenodd" d="M427.571 760.57C572.041 760.57 689.451 759.37 689.331 773.38C689.201 788.51 572.041 786.18 427.571 786.18C283.101 786.18 165.811 787.76 165.811 773.38C165.811 759 283.101 760.57 427.571 760.57Z" fill="#0C114D"/>
<path fill-rule="evenodd" clip-rule="evenodd" d="M420.851 773.42H220.68C220.68 773.42 225.241 736.09 265.321 723.34C305.401 710.59 318.171 675.96 323.631 635.87C329.091 595.78 329.1 548.41 291.751 548.41H95.8605C51.2205 548.41 89.2105 501.94 124.421 501.94H420.551L420.851 773.42Z" fill="#163BF3"/>
<path fill-rule="evenodd" clip-rule="evenodd" d="M393.6 773.42H621C621 773.42 616.44 736.09 576.35 723.34C536.26 710.59 523.54 676 518.07 635.87C512.6 595.74 512.6 548.41 550 548.41H745.84C790.49 548.41 752.5 501.94 717.28 501.94H421.16L393.6 773.42Z" fill="#163BF3"/>
<path fill-rule="evenodd" clip-rule="evenodd" d="M373.14 289.42C382.578 289.42 391.804 292.219 399.652 297.462C407.499 302.706 413.616 310.159 417.227 318.878C420.839 327.598 421.784 337.193 419.943 346.45C418.102 355.706 413.557 364.209 406.883 370.883C400.209 377.557 391.706 382.102 382.45 383.943C373.193 385.784 363.598 384.839 354.878 381.227C346.159 377.616 338.706 371.499 333.462 363.652C328.219 355.804 325.42 346.578 325.42 337.14C325.425 324.485 330.455 312.351 339.403 303.403C348.351 294.455 360.485 289.425 373.14 289.42Z" fill="#C98600"/>
<path fill-rule="evenodd" clip-rule="evenodd" d="M468.57 289.42C459.131 289.418 449.904 292.215 442.055 297.457C434.206 302.7 428.089 310.152 424.475 318.871C420.862 327.591 419.915 337.186 421.756 346.443C423.596 355.701 428.14 364.205 434.813 370.88C441.487 377.554 449.989 382.1 459.246 383.942C468.504 385.784 478.099 384.84 486.819 381.228C495.539 377.617 502.993 371.501 508.237 363.653C513.481 355.805 516.28 346.578 516.28 337.14C516.275 324.487 511.247 312.354 502.301 303.406C493.355 294.458 481.223 289.428 468.57 289.42Z" fill="#C98600"/>
<path fill-rule="evenodd" clip-rule="evenodd" d="M124.42 384.85V350.57L359.25 291.48L373.14 384.85H124.42Z" fill="#FBBE2E"/>
<path d="M420.85 350.57H124.42V494.07H420.85V350.57Z" fill="#FBBE2E"/>
<path d="M717.28 350.57H420.85V494.07H717.28V350.57Z" fill="#FBBE2E"/>
<path fill-rule="evenodd" clip-rule="evenodd" d="M717.28 384.85V350.57L482.45 291.48L468.57 384.85H717.28Z" fill="#FBBE2E"/>
<path d="M420.849 520.57H106.949V533.09H420.849V520.57Z" fill="#FFC7BF"/>
<path d="M734.75 520.57H420.85V533.09H734.75V520.57Z" fill="#FFC7BF"/>
<path fill-rule="evenodd" clip-rule="evenodd" d="M442 539.35C442.001 538.527 441.84 537.713 441.526 536.953C441.212 536.193 440.751 535.502 440.169 534.92C439.588 534.339 438.897 533.878 438.137 533.564C437.377 533.25 436.562 533.089 435.74 533.09H405.93C405.108 533.09 404.295 533.252 403.536 533.567C402.777 533.881 402.087 534.343 401.507 534.924C400.926 535.505 400.466 536.196 400.153 536.955C399.839 537.714 399.678 538.528 399.68 539.35C399.682 541.008 400.341 542.597 401.513 543.77C402.684 544.943 404.272 545.605 405.93 545.61H435.77C437.429 545.607 439.02 544.947 440.193 543.773C441.367 542.6 442.027 541.009 442.03 539.35H442Z" fill="#FFC7BF"/>
<path fill-rule="evenodd" clip-rule="evenodd" d="M373.14 425.14C382.578 425.14 391.805 427.939 399.653 433.183C407.501 438.427 413.617 445.88 417.228 454.6C420.84 463.321 421.784 472.916 419.942 482.173C418.1 491.43 413.554 499.933 406.88 506.606C400.205 513.28 391.701 517.824 382.443 519.664C373.186 521.504 363.591 520.558 354.871 516.944C346.152 513.331 338.7 507.213 333.457 499.364C328.215 491.515 325.418 482.288 325.42 472.85C325.425 460.196 330.455 448.062 339.403 439.116C348.352 430.169 360.486 425.142 373.14 425.14Z" fill="#CF1D00"/>
<path fill-rule="evenodd" clip-rule="evenodd" d="M468.57 425.14C459.131 425.138 449.903 427.935 442.054 433.178C434.205 438.421 428.087 445.873 424.474 454.593C420.861 463.313 419.915 472.909 421.756 482.167C423.597 491.425 428.142 499.928 434.817 506.603C441.491 513.277 449.995 517.822 459.253 519.663C468.51 521.504 478.106 520.558 486.826 516.945C495.546 513.332 502.999 507.214 508.242 499.365C513.485 491.516 516.282 482.289 516.28 472.85C516.272 460.199 511.243 448.068 502.297 439.122C493.352 430.177 481.221 425.148 468.57 425.14Z" fill="#CF1D00"/>
<path fill-rule="evenodd" clip-rule="evenodd" d="M124.42 520.57V486.29L359.25 427.19L373.14 520.57H124.42Z" fill="#CF1D00"/>
<path fill-rule="evenodd" clip-rule="evenodd" d="M717.28 520.57V486.29L482.45 427.19L468.57 520.57H717.28Z" fill="#CF1D00"/>
<path d="M373.14 425.14H140.17" stroke="#CF1D00" stroke-width="1.67" stroke-linecap="round" stroke-linejoin="round"/>
<path fill-rule="evenodd" clip-rule="evenodd" d="M366.63 289.42H140.17V426.97H387.53L366.63 289.42Z" fill="#C98600"/>
<path fill-rule="evenodd" clip-rule="evenodd" d="M701.54 289.42H480.15L454.17 426.97H701.54V289.42Z" fill="#C98600"/>
<path d="M392.49 429.23L188.84 336.18" stroke="#CF1D00" stroke-width="1.67" stroke-linecap="round" stroke-linejoin="round"/>
<path d="M449.221 429.23L652.871 336.18" stroke="#CF1D00" stroke-width="1.67" stroke-linecap="round" stroke-linejoin="round"/>
<path d="M509.9 472.85H333.59V520.57H509.9V472.85Z" fill="#CF1D00"/>
<path fill-rule="evenodd" clip-rule="evenodd" d="M188.84 200.46V336.18L392.49 429.23C392.49 429.23 420.85 443.17 420.85 472.85V337.14C420.85 310.98 404.99 301 392.49 293.51C379.99 286.02 188.84 200.46 188.84 200.46Z" fill="#FFFAF0"/>
<path fill-rule="evenodd" clip-rule="evenodd" d="M652.561 200.46V336.18L448.911 429.23C448.911 429.23 420.551 443.17 420.551 472.85V337.14C420.551 310.98 436.411 301 448.911 293.51C461.411 286.02 652.561 200.46 652.561 200.46Z" fill="#FFFAF0"/>
<path d="M420.66 600.14V691.25" stroke="#0C114D" stroke-width="1.67" stroke-linecap="round" stroke-linejoin="round"/>
<path d="M354.881 701.16C354.881 701.16 370.741 662.91 373.541 620.46" stroke="#0C114D" stroke-width="1.67" stroke-linecap="round" stroke-linejoin="round"/>
<path d="M399.2 580.81C399.2 580.81 396.86 624.66 393.6 641.45" stroke="#0C114D" stroke-width="1.67" stroke-linecap="round" stroke-linejoin="round"/>
<path fill-rule="evenodd" clip-rule="evenodd" d="M274.67 773.42C274.67 773.42 286.8 751.13 301.73 751.13C316.66 751.13 320.85 773.42 320.85 773.42C320.85 773.42 284 777.05 274.67 773.42Z" fill="#0C114D"/>
<path fill-rule="evenodd" clip-rule="evenodd" d="M561.821 773.42C561.821 773.42 549.691 751.13 534.761 751.13C519.831 751.13 515.641 773.42 515.641 773.42C515.641 773.42 552.491 777.05 561.821 773.42Z" fill="#0C114D"/>
<path fill-rule="evenodd" clip-rule="evenodd" d="M341.32 189.19L321.97 141.81L315.59 142.82L321.97 164.62H304.85V169.39L321.97 172.38L331.71 194.17L341.32 189.19Z" fill="#163BF3"/>
<path fill-rule="evenodd" clip-rule="evenodd" d="M451.109 163.01L491.089 69.5195L497.459 70.5295L491.089 92.3195H508.209V97.0895L491.089 100.08L460.719 167.99L451.109 163.01Z" fill="#163BF3"/>
<path d="M240.02 244.88L369.67 303.61" stroke="#FBBE2E" stroke-width="1.67" stroke-linecap="round" stroke-linejoin="round"/>
<path d="M601.38 244.88L471.73 303.61" stroke="#FBBE2E" stroke-width="1.67" stroke-linecap="round" stroke-linejoin="round"/>
<path d="M240.02 271.7L369.67 330.43" stroke="#FBBE2E" stroke-width="1.67" stroke-linecap="round" stroke-linejoin="round"/>
<path d="M601.38 271.7L471.73 330.43" stroke="#FBBE2E" stroke-width="1.67" stroke-linecap="round" stroke-linejoin="round"/>
<path d="M240.02 316.6L369.67 375.33" stroke="#FBBE2E" stroke-width="1.67" stroke-linecap="round" stroke-linejoin="round"/>
<path d="M601.38 316.6L471.73 375.33" stroke="#FBBE2E" stroke-width="1.67" stroke-linecap="round" stroke-linejoin="round"/>
<path d="M296.16 548.64H345.62" stroke="#0C114D" stroke-width="1.67" stroke-linecap="round" stroke-linejoin="round"/>
<path d="M494.881 548.64H544.341" stroke="#0C114D" stroke-width="1.67" stroke-linecap="round" stroke-linejoin="round"/>
<path d="M345.619 563.45C347.734 581.799 347.734 600.331 345.619 618.68" stroke="#0C114D" stroke-width="1.67" stroke-linecap="round" stroke-linejoin="round"/>
<path d="M345.619 632.86C345.619 632.86 342.409 648.54 337.189 659.36" stroke="#0C114D" stroke-width="1.67" stroke-linecap="round" stroke-linejoin="round"/>
<path d="M393.601 683.24C393.601 683.24 379.731 721.24 376.381 751.13" stroke="#0C114D" stroke-width="1.67" stroke-linecap="round" stroke-linejoin="round"/>
<path d="M265.91 751.13C265.91 751.13 275.61 731.76 304.35 722.05C333.09 712.34 337.19 688.05 337.19 688.05" stroke="#0C114D" stroke-width="1.67" stroke-linecap="round" stroke-linejoin="round"/>
<path d="M367.069 697.81C367.069 697.81 363.539 718 347.199 733.26" stroke="#0C114D" stroke-width="1.67" stroke-linecap="round" stroke-linejoin="round"/>
<path d="M384.99 546.54V589.82" stroke="#0C114D" stroke-width="1.67" stroke-linecap="round" stroke-linejoin="round"/>
<path d="M496.15 572.29C496.15 572.29 489.43 593.93 492.05 613.34" stroke="#0C114D" stroke-width="1.67" stroke-linecap="round" stroke-linejoin="round"/>
<path d="M472.27 602.89C472.27 602.89 464.43 672.67 496.15 710.36" stroke="#0C114D" stroke-width="1.67" stroke-linecap="round" stroke-linejoin="round"/>
<path d="M440.92 672.3C440.92 672.3 441.67 706.3 450.25 725.66" stroke="#0C114D" stroke-width="1.67" stroke-linecap="round" stroke-linejoin="round"/>
<path d="M307.32 737.61C307.32 737.61 329.71 736.49 341.32 755.89" stroke="#0C114D" stroke-width="1.67" stroke-linecap="round" stroke-linejoin="round"/>
<path d="M530.48 737.59C530.48 737.59 504.74 737.9 496.15 760.52" stroke="#0C114D" stroke-width="1.67" stroke-linecap="round" stroke-linejoin="round"/>
<path d="M474.59 585.85L476.46 565.33" stroke="#0C114D" stroke-width="1.67" stroke-linecap="round" stroke-linejoin="round"/>
<path d="M445.109 626.53V559.36" stroke="#0C114D" stroke-width="1.67" stroke-linecap="round" stroke-linejoin="round"/>
<path d="M332.1 617.7L319.41 659.87" stroke="#0C114D" stroke-width="1.67" stroke-linecap="round" stroke-linejoin="round"/>
<path d="M506.35 631.87C506.35 631.87 520 658 524.93 668.25" stroke="#0C114D" stroke-width="1.67" stroke-linecap="round" stroke-linejoin="round"/>
<path d="M506.35 682.25C506.35 682.25 518.86 711 538.73 721.8" stroke="#0C114D" stroke-width="1.67" stroke-linecap="round" stroke-linejoin="round"/>
<path d="M561.82 736C561.82 736 585.09 745.41 591.06 763.1" stroke="#0C114D" stroke-width="1.67" stroke-linecap="round" stroke-linejoin="round"/>
<path d="M406.71 727C406.71 727 405.71 745.91 443.03 756.85" stroke="#0C114D" stroke-width="1.67" stroke-linecap="round" stroke-linejoin="round"/>
</g>
<defs>
<clipPath id="clip0_467:18441">
<rect width="842.23" height="786.31" fill="white"/>
</clipPath>
</defs>
</svg>
