<svg width="908" height="723" viewBox="0 0 908 723" fill="none" xmlns="http://www.w3.org/2000/svg">
<g clip-path="url(#clip0_467:18501)">
<path d="M908 628.695H0V723.068H908V628.695Z" fill="#8D1A00"/>
<path fill-rule="evenodd" clip-rule="evenodd" d="M453.829 65.603C453.829 48.204 446.922 31.5176 434.626 19.2147C422.33 6.91173 405.654 0 388.265 0L0 0V628.696H400.217C407.286 628.695 414.286 630.094 420.812 632.812C427.339 635.529 433.265 639.511 438.248 644.528C443.231 649.546 447.173 655.5 449.847 662.048C452.521 668.596 453.874 675.608 453.829 682.681V65.603Z" fill="#BDC7FB"/>
<path fill-rule="evenodd" clip-rule="evenodd" d="M453.83 65.6029C453.83 56.959 455.537 48.4003 458.853 40.4186C462.17 32.4369 467.03 25.1897 473.154 19.0934C479.278 12.9971 486.547 8.17193 494.541 4.89524C502.535 1.61854 511.097 -0.0451072 519.736 -8.66816e-05H908.001V628.696H507.784C493.475 628.696 479.751 634.383 469.633 644.508C459.515 654.632 453.83 668.363 453.83 682.681V65.6029Z" fill="#BDC7FB"/>
<path d="M453.83 69.0195V675.848" stroke="#8D1A00" stroke-width="2" stroke-linecap="round" stroke-linejoin="round"/>
<path d="M825.361 108.655H586.324V203.711H825.361V108.655Z" fill="white"/>
<path d="M332.945 258.995H93.9082V354.051H332.945V258.995Z" fill="#4FB3F6"/>
<path d="M825.361 442.82H586.324V537.876H825.361V442.82Z" fill="#163BF3"/>
</g>
<defs>
<clipPath id="clip0_467:18501">
<rect width="908" height="723" fill="white"/>
</clipPath>
</defs>
</svg>
