<svg width="605" height="730" viewBox="0 0 605 730" fill="none" xmlns="http://www.w3.org/2000/svg">
<path fill-rule="evenodd" clip-rule="evenodd" d="M542.379 240.085C542.379 176.41 517.106 115.344 472.12 70.3191C427.134 25.2946 366.119 0 302.499 0C238.879 0 177.865 25.2946 132.878 70.3191C87.8921 115.344 62.6191 176.41 62.6191 240.085V663.914H542.379V240.085Z" fill="white"/>
<path fill-rule="evenodd" clip-rule="evenodd" d="M276.881 472.455C276.881 472.455 298.44 484.923 307.13 505.756C315.819 526.59 325.451 549.575 325.451 549.575H349.332C349.332 549.575 343.123 515.051 335.043 500.777C326.964 486.503 317.982 467.581 317.982 467.581C317.982 467.581 277.995 464.647 276.881 472.455Z" fill="#FBBE2E"/>
<path fill-rule="evenodd" clip-rule="evenodd" d="M309.121 468.551C309.121 468.551 331.675 516.352 362.255 521.358C392.836 526.364 416.517 523.948 431.031 512.064C445.545 500.18 447.721 488.853 447.323 479.864C446.925 470.874 394.733 458.101 363.887 458.101C345.142 458.153 326.571 461.697 309.121 468.551Z" fill="#CF1D00"/>
<path fill-rule="evenodd" clip-rule="evenodd" d="M177.18 423.856C168.928 427.255 124.776 416.566 112.172 388.403C90.3348 372.854 96.159 354.41 103.482 346.643C95.7212 327.708 108.338 313.619 122.414 299.053C136.491 284.487 157.638 275.617 157.638 275.617C157.638 275.617 167.88 260.081 172.855 256.35C177.83 252.619 188.378 251.039 193.658 247.958C198.938 244.878 207.005 234.282 216.941 233.976C226.878 233.671 253.28 226.514 261.664 228.068C266.391 228.854 270.923 230.545 275.011 233.047C275.011 233.047 297.061 222.783 308.245 223.752C319.429 224.721 338.666 233.047 338.666 233.047C338.666 233.047 364.444 231.799 373.16 236.778C386.507 237.389 402.652 242.368 411.979 257.598C421.306 272.829 420.669 277.184 425.631 279.972C430.593 282.761 442.095 280.278 449.511 286.187C456.928 292.095 476.523 325.663 477.77 341.198C491.435 344.624 505.087 383.158 497.325 408.918C504.463 436.576 497.02 443.72 490.493 452.417C483.966 461.115 458.175 484.79 441.79 478.881C425.405 472.972 410.732 470.184 397.385 470.184C384.039 470.184 346.653 468.67 322.958 467.966C299.263 467.262 280.649 476.119 266.281 474.964C258.01 474.345 249.819 472.908 241.83 470.675C241.83 470.675 186.64 469.121 187.064 433.39C184.127 429.86 180.813 426.663 177.18 423.856Z" fill="#FFC7BF"/>
<path d="M112.172 388.403C112.172 388.403 126.314 396.37 137.246 395.321" stroke="#CF1D00" stroke-width="1.67" stroke-linecap="round" stroke-linejoin="round"/>
<path d="M132.776 343.602C132.776 343.602 115.648 352.06 124.709 377.169" stroke="#CF1D00" stroke-width="1.67" stroke-linecap="round" stroke-linejoin="round"/>
<path d="M137.246 308.056C137.246 308.056 116.125 320.975 116.881 332.66C117.382 339.732 120.204 346.44 124.908 351.741" stroke="#CF1D00" stroke-width="1.67" stroke-linecap="round" stroke-linejoin="round"/>
<path d="M135.018 327.19C135.018 327.19 150.938 341.119 149.412 355.792C147.887 370.464 147.435 380.157 147.435 380.157" stroke="#CF1D00" stroke-width="1.67" stroke-linecap="round" stroke-linejoin="round"/>
<path d="M193.141 271.249C193.141 271.249 160.107 270.505 146.707 316.753" stroke="#CF1D00" stroke-width="1.67" stroke-linecap="round" stroke-linejoin="round"/>
<path d="M233.392 294.008C233.392 294.008 218.48 286.665 203.581 300.341C188.682 314.018 175.004 330.364 164.576 329.899" stroke="#CF1D00" stroke-width="1.67" stroke-linecap="round" stroke-linejoin="round"/>
<path d="M180.775 289.984C180.775 289.984 182.102 308.667 197.173 306.41" stroke="#CF1D00" stroke-width="1.67" stroke-linecap="round" stroke-linejoin="round"/>
<path d="M182.752 320.1C182.752 320.1 198.434 322.755 198.977 334.374" stroke="#CF1D00" stroke-width="1.67" stroke-linecap="round" stroke-linejoin="round"/>
<path d="M219.568 258.315C219.568 258.315 239.761 260.068 248.504 278.684" stroke="#CF1D00" stroke-width="1.67" stroke-linecap="round" stroke-linejoin="round"/>
<path d="M266.467 255.606C266.467 255.606 238.009 274.594 242.586 327.243" stroke="#CF1D00" stroke-width="1.67" stroke-linecap="round" stroke-linejoin="round"/>
<path d="M177.181 423.856C170.866 416.633 172.803 406.196 182.753 396.251C192.703 386.305 212.989 373.345 224.518 370.145C237.93 366.414 258.056 368.897 263.522 374.859C275.688 362.431 300.789 352.406 316.935 351.742C340.816 350.746 364.139 365.166 364.139 365.166" stroke="#CF1D00" stroke-width="1.67" stroke-linecap="round" stroke-linejoin="round"/>
<path d="M212.1 314.947C212.1 314.947 229.864 330.802 226.07 369.747" stroke="#CF1D00" stroke-width="1.67" stroke-linecap="round" stroke-linejoin="round"/>
<path d="M173.531 354.225C173.531 354.225 191.8 356.455 201.83 381.445" stroke="#CF1D00" stroke-width="1.67" stroke-linecap="round" stroke-linejoin="round"/>
<path d="M169.113 377.355L187.687 391.776" stroke="#CF1D00" stroke-width="1.67" stroke-linecap="round" stroke-linejoin="round"/>
<path d="M274.957 233.047C280.662 238.61 286.897 245.582 287.614 251.291" stroke="#CF1D00" stroke-width="1.67" stroke-linecap="round" stroke-linejoin="round"/>
<path d="M303.522 260.745C303.522 260.745 280.425 281.871 281.26 314.947" stroke="#CF1D00" stroke-width="1.67" stroke-linecap="round" stroke-linejoin="round"/>
<path d="M284.045 293.715C284.045 293.715 296.065 280.875 310.725 282.124" stroke="#CF1D00" stroke-width="1.67" stroke-linecap="round" stroke-linejoin="round"/>
<path d="M338.613 233.047C326.673 235.623 318.713 245.329 318.713 251.291" stroke="#CF1D00" stroke-width="1.67" stroke-linecap="round" stroke-linejoin="round"/>
<path d="M267.25 330.111C267.25 330.111 263.044 355.34 274.958 365.963" stroke="#CF1D00" stroke-width="1.67" stroke-linecap="round" stroke-linejoin="round"/>
<path d="M373.094 236.778C373.094 236.778 346.494 237.615 341.532 260.746C336.571 283.876 338.614 287.873 338.614 287.873C338.614 287.873 301.28 298.921 324.139 351.689" stroke="#CF1D00" stroke-width="1.67" stroke-linecap="round" stroke-linejoin="round"/>
<path d="M203.715 415.397C203.715 415.397 218.308 416.008 220.803 426.578" stroke="#CF1D00" stroke-width="1.67" stroke-linecap="round" stroke-linejoin="round"/>
<path d="M212.272 444.915C212.272 444.915 210.865 428.583 229.81 423.856C248.756 419.129 256.835 414.773 260.245 399.225" stroke="#CF1D00" stroke-width="1.67" stroke-linecap="round" stroke-linejoin="round"/>
<path d="M251.104 415.397C251.104 415.397 286.301 416.606 314.533 409.727C329.498 406.089 347.581 401.455 361.458 403.885C372.682 405.863 398.725 403.885 424.503 362.244C430.406 352.949 422.95 343.894 436.921 336.75" stroke="#CF1D00" stroke-width="1.67" stroke-linecap="round" stroke-linejoin="round"/>
<path d="M424.504 362.245L436.922 365.963" stroke="#CF1D00" stroke-width="1.67" stroke-linecap="round" stroke-linejoin="round"/>
<path d="M316.735 384.938C316.735 384.938 305.206 400.247 306.785 411.853" stroke="#CF1D00" stroke-width="1.67" stroke-linecap="round" stroke-linejoin="round"/>
<path d="M461.358 343.907C461.358 343.907 470.048 383.583 418.188 422.023" stroke="#CF1D00" stroke-width="1.67" stroke-linecap="round" stroke-linejoin="round"/>
<path d="M446.486 394.112C446.486 394.112 478.937 428.49 461.903 456.162" stroke="#CF1D00" stroke-width="1.67" stroke-linecap="round" stroke-linejoin="round"/>
<path d="M476.257 437.2L466.838 438.409" stroke="#CF1D00" stroke-width="1.67" stroke-linecap="round" stroke-linejoin="round"/>
<path d="M256.053 450.877C256.053 450.877 301.081 470.449 350.766 443.414C380.258 455.843 432.503 455.843 446.447 437.2" stroke="#CF1D00" stroke-width="1.67" stroke-linecap="round" stroke-linejoin="round"/>
<path d="M386.335 324.508C386.335 324.508 358.978 336.458 351.283 358.567" stroke="#CF1D00" stroke-width="1.67" stroke-linecap="round" stroke-linejoin="round"/>
<path d="M344.012 324.507C344.012 324.507 363.912 296.411 390.3 307.843C416.688 319.276 405.451 341.53 405.451 341.53" stroke="#CF1D00" stroke-width="1.67" stroke-linecap="round" stroke-linejoin="round"/>
<path d="M368.822 275.776C368.822 275.776 357.757 293.45 368.822 306.316" stroke="#CF1D00" stroke-width="1.67" stroke-linecap="round" stroke-linejoin="round"/>
<path d="M418.122 299.146L402.201 315.97" stroke="#CF1D00" stroke-width="1.67" stroke-linecap="round" stroke-linejoin="round"/>
<path d="M394.029 275.777C394.029 275.777 405.97 275.272 410.162 281.739C414.354 288.205 412.669 294.672 418.122 299.147C423.575 303.621 438.739 305.401 443.714 316.023" stroke="#CF1D00" stroke-width="1.67" stroke-linecap="round" stroke-linejoin="round"/>
<path d="M302.5 193.199V127.75" stroke="#133191" stroke-width="1.67" stroke-linecap="round" stroke-linejoin="round"/>
<path d="M248.518 191.154L208.65 139.275" stroke="#133191" stroke-width="1.67" stroke-linecap="round" stroke-linejoin="round"/>
<path d="M350.805 191.154L390.659 139.275" stroke="#133191" stroke-width="1.67" stroke-linecap="round" stroke-linejoin="round"/>
<path fill-rule="evenodd" clip-rule="evenodd" d="M572.404 696.964C572.404 688.201 568.927 679.796 562.737 673.599C556.547 667.401 548.151 663.918 539.396 663.914H65.6059C56.8526 663.918 48.4589 667.399 42.2694 673.594C36.0799 679.789 32.6012 688.19 32.5977 696.95H572.404V696.964Z" fill="#133191"/>
<path fill-rule="evenodd" clip-rule="evenodd" d="M604.974 730C604.97 721.24 601.491 712.839 595.302 706.644C589.112 700.449 580.719 696.967 571.965 696.964H33.0082C24.255 696.967 15.8612 700.449 9.67176 706.644C3.48228 712.839 0.00351606 721.24 0 730H604.974Z" fill="#4FB3F6"/>
<path fill-rule="evenodd" clip-rule="evenodd" d="M402.904 47.6693C415.653 53.5781 422.552 65.8606 418.28 75.0624C414.008 84.2642 400.21 86.9332 387.461 80.9978C374.711 75.0624 367.813 62.8065 372.071 53.6047C376.33 44.4029 390.141 41.7472 402.904 47.6693Z" fill="#B9E2FE"/>
<path fill-rule="evenodd" clip-rule="evenodd" d="M456.888 78.3417C462.646 82.6571 464.848 89.5486 461.704 93.7047C458.56 97.8608 451.395 97.6881 445.624 93.4391C439.853 89.1901 437.664 82.2455 440.795 78.0761C443.926 73.9067 451.077 74.0661 456.888 78.3417Z" fill="#B9E2FE"/>
</svg>
