<svg width="502" height="733" viewBox="0 0 502 733" fill="none" xmlns="http://www.w3.org/2000/svg">
<g clip-path="url(#clip0_465:18316)">
<path d="M499.885 284.126C517.979 146.652 421.232 20.5355 283.795 2.43665C146.357 -15.6622 20.274 81.1107 2.18004 218.585C-15.914 356.059 80.8331 482.176 218.271 500.275C355.708 518.374 481.791 421.601 499.885 284.126Z" fill="white"/>
<path fill-rule="evenodd" clip-rule="evenodd" d="M403.332 515.985C403.332 505.883 399.32 496.194 392.178 489.05C385.036 481.906 375.349 477.893 365.249 477.893H136.753C126.699 478.042 117.099 482.103 109.989 489.215C102.879 496.326 98.8189 505.929 98.6699 515.985V529.837C98.8189 539.894 102.879 549.497 109.989 556.608C117.099 563.72 126.699 567.781 136.753 567.93H365.249C375.349 567.93 385.036 563.917 392.178 556.773C399.32 549.629 403.332 539.94 403.332 529.837V515.985Z" fill="#FBBE2E"/>
<path fill-rule="evenodd" clip-rule="evenodd" d="M340.437 567.931H162.141V653.351C162.141 674.475 170.53 694.734 185.463 709.671C200.396 724.608 220.65 733 241.768 733H260.233C270.738 733.076 281.154 731.072 290.882 727.103C300.61 723.135 309.456 717.28 316.911 709.876C324.366 702.473 330.283 693.667 334.321 683.965C338.359 674.264 340.437 663.859 340.437 653.351V567.931Z" fill="#FBBE2E"/>
<path d="M340.437 567.931H162.141V591.768H340.437V567.931Z" fill="#5B3100"/>
<path d="M251 477.893V230.289C251 224.453 249.851 218.674 247.618 213.282C245.386 207.89 242.113 202.991 237.987 198.864C233.861 194.738 228.964 191.464 223.573 189.231C218.183 186.997 212.405 185.848 206.571 185.848C200.736 185.848 194.958 186.997 189.568 189.231C184.177 191.464 179.28 194.738 175.154 198.864C171.028 202.991 167.755 207.89 165.523 213.282C163.29 218.674 162.141 224.453 162.141 230.289C162.141 292.623 185.221 305.898 251 305.898" stroke="#FBBE2E" stroke-width="4" stroke-linecap="round" stroke-linejoin="round"/>
<path d="M251 477.893V230.289C251 167.378 340.437 167.378 340.437 230.289C340.437 293.2 316.779 305.897 251 305.897" stroke="#FBBE2E" stroke-width="4" stroke-linecap="round" stroke-linejoin="round"/>
</g>
<defs>
<clipPath id="clip0_465:18316">
<rect width="502" height="733" fill="white"/>
</clipPath>
</defs>
</svg>
