<svg width="309" height="709" viewBox="0 0 309 709" fill="none" xmlns="http://www.w3.org/2000/svg">
<path d="M161.459 81.7979H146.773V163.596H161.459V81.7979Z" fill="#4FB3F6"/>
<path d="M265.254 391.048H0V401.637H265.254V391.048Z" fill="#24A865"/>
<path d="M35.3651 369.869H24.9355V422.816H35.3651V369.869Z" fill="#24A865"/>
<path fill-rule="evenodd" clip-rule="evenodd" d="M298.8 694.684L140.039 182.917H168.211L308.051 633.665L308.17 694.684H298.8Z" fill="#60D399"/>
<path fill-rule="evenodd" clip-rule="evenodd" d="M140.02 182.917H168.192L8.77181 696.802H0.0605469L0.200407 633.665L140.02 182.917Z" fill="#60D399"/>
<path fill-rule="evenodd" clip-rule="evenodd" d="M119.98 247.512L110.17 279.16L135.804 287.312L146.653 252.307L119.98 247.512Z" fill="#24A865"/>
<path fill-rule="evenodd" clip-rule="evenodd" d="M188.331 247.512L198.142 279.16L172.507 287.312L161.658 252.307L188.331 247.512Z" fill="#24A865"/>
<path fill-rule="evenodd" clip-rule="evenodd" d="M154.126 95.125C171.49 95.125 188.463 100.274 202.901 109.921C217.338 119.567 228.59 133.279 235.235 149.32C241.88 165.362 243.618 183.014 240.231 200.044C236.844 217.074 228.482 232.717 216.204 244.995C203.926 257.273 188.283 265.635 171.253 269.022C154.223 272.409 136.571 270.671 120.529 264.026C104.488 257.381 90.7763 246.129 81.1296 231.692C71.4829 217.254 66.334 200.281 66.334 182.917C66.3657 159.643 75.6254 137.331 92.0827 120.874C108.54 104.416 130.852 95.1567 154.126 95.125Z" fill="#C98600"/>
<path d="M154.125 107.892C168.973 107.892 183.488 112.295 195.833 120.545C208.178 128.795 217.8 140.521 223.48 154.24C229.16 167.958 230.644 183.053 227.745 197.615C224.845 212.178 217.692 225.553 207.19 236.049C196.688 246.546 183.309 253.692 168.745 256.584C154.181 259.475 139.087 257.983 125.372 252.296C111.656 246.608 99.9352 236.981 91.6918 224.631C83.4484 212.281 79.0527 197.764 79.0606 182.916C79.0764 163.017 86.9914 143.937 101.066 129.869C115.142 115.802 134.225 107.897 154.125 107.892Z" stroke="#FFF3D6" stroke-width="1.42" stroke-linejoin="round"/>
<path d="M166.792 0H141.438V81.798H166.792V0Z" fill="#163BF3"/>
<path fill-rule="evenodd" clip-rule="evenodd" d="M4.35476 708.269L6.95215 696.801H1.77734L4.35476 708.269Z" fill="#24A865"/>
<path fill-rule="evenodd" clip-rule="evenodd" d="M303.136 706.152L305.713 694.684H300.559L303.136 706.152Z" fill="#24A865"/>
<path fill-rule="evenodd" clip-rule="evenodd" d="M103.617 391.048L100.34 401.637H111.069L113.986 391.048H103.617Z" fill="black"/>
<path fill-rule="evenodd" clip-rule="evenodd" d="M204.594 391.048L207.871 401.637H197.142L194.225 391.048H204.594Z" fill="black"/>
<path d="M35.3651 371.707H24.9355V373.805H35.3651V371.707Z" fill="black"/>
<path d="M35.3651 418.88H24.9355V420.978H35.3651V418.88Z" fill="black"/>
<path d="M35.3651 409.449H24.9355V411.547H35.3651V409.449Z" fill="black"/>
<path d="M35.3651 400.019H24.9355V402.116H35.3651V400.019Z" fill="black"/>
<path d="M35.3651 390.588H24.9355V392.686H35.3651V390.588Z" fill="black"/>
<path d="M35.3651 381.138H24.9355V383.236H35.3651V381.138Z" fill="black"/>
<path d="M35.3651 414.165H24.9355V416.263H35.3651V414.165Z" fill="black"/>
<path d="M35.3651 404.734H24.9355V406.832H35.3651V404.734Z" fill="black"/>
<path d="M35.3651 395.304H24.9355V397.402H35.3651V395.304Z" fill="black"/>
<path d="M35.3651 385.873H24.9355V387.971H35.3651V385.873Z" fill="black"/>
<path d="M35.3651 376.423H24.9355V378.521H35.3651V376.423Z" fill="black"/>
</svg>
