<svg width="1141" height="714" viewBox="0 0 1141 714" fill="none" xmlns="http://www.w3.org/2000/svg">
<path fill-rule="evenodd" clip-rule="evenodd" d="M109.062 233.638C109.953 229.63 112.182 226.045 115.381 223.472C118.58 220.899 122.559 219.492 126.664 219.482C129.613 219.471 132.525 220.129 135.183 221.407C137.84 222.684 140.173 224.548 142.007 226.857C143.861 229.14 145.168 231.817 145.827 234.683C146.487 237.55 146.482 240.529 145.813 243.393L39.0103 714H0L109.062 233.638Z" fill="#CF1D00"/>
<path fill-rule="evenodd" clip-rule="evenodd" d="M109.062 233.638C109.953 229.63 112.182 226.045 115.381 223.472C118.58 220.899 122.559 219.492 126.664 219.482C129.613 219.471 132.525 220.129 135.182 221.407C137.84 222.684 140.173 224.548 142.007 226.857C143.861 229.14 145.167 231.817 145.827 234.683C146.487 237.55 146.482 240.529 145.813 243.393C137.131 281.817 120.956 352.717 120.956 352.717H81.9453C81.9453 352.717 101.213 267.898 109.062 233.638Z" fill="#1C2126"/>
<path fill-rule="evenodd" clip-rule="evenodd" d="M1140.34 0L213.723 174.872V251.125L1140.34 596.229V0Z" fill="#B9E2FE"/>
<path fill-rule="evenodd" clip-rule="evenodd" d="M305.421 157.504L213.723 174.872V251.126L304.826 285.029L305.421 157.504Z" fill="#CF1D00"/>
<path fill-rule="evenodd" clip-rule="evenodd" d="M213.722 176.418C213.719 170.452 211.369 164.726 207.181 160.477C205.103 158.401 202.637 156.755 199.923 155.632C197.208 154.509 194.3 153.933 191.363 153.935H74.0939C71.1569 153.933 68.2482 154.509 65.5341 155.632C62.82 156.755 60.3535 158.401 58.2757 160.477C54.0874 164.726 51.7378 170.452 51.7344 176.418V262.545C51.763 268.507 54.1089 274.223 58.2757 278.486C60.3535 280.562 62.82 282.209 65.5341 283.331C68.2482 284.454 71.1569 285.031 74.0939 285.029H191.363C194.3 285.031 197.208 284.454 199.923 283.331C202.637 282.209 205.103 280.562 207.181 278.486C211.348 274.223 213.694 268.507 213.722 262.545V176.418Z" fill="#FBBE2E"/>
<path fill-rule="evenodd" clip-rule="evenodd" d="M51.7374 181.414H35.6813C34.125 181.414 32.5841 181.723 31.1478 182.322C29.7114 182.921 28.4081 183.799 27.3132 184.905C26.2182 186.012 25.3534 187.324 24.7688 188.767C24.1841 190.209 23.8911 191.754 23.9069 193.31V246.128C23.8911 247.685 24.1841 249.229 24.7688 250.672C25.3534 252.115 26.2182 253.427 27.3132 254.533C28.4081 255.639 29.7114 256.518 31.1478 257.117C32.5841 257.716 34.125 258.025 35.6813 258.025H51.7374V181.414Z" fill="#CF1D00"/>
<path fill-rule="evenodd" clip-rule="evenodd" d="M94.3159 153.816C87.4482 153.385 80.8294 151.083 75.1765 147.158C69.5237 143.234 65.0525 137.836 62.2474 131.552C59.4424 125.267 58.4105 118.334 59.2635 111.504C60.1165 104.675 62.822 98.2089 67.0867 92.8074C71.3514 87.406 77.0128 83.275 83.4572 80.8621C89.9016 78.4492 96.8833 77.8464 103.646 79.119C110.408 80.3916 116.694 83.4911 121.821 88.0816C126.948 92.6722 130.721 98.5786 132.731 105.161C134.742 98.5786 138.515 92.6722 143.642 88.0816C148.769 83.4911 155.055 80.3916 161.817 79.119C168.58 77.8464 175.561 78.4492 182.006 80.8621C188.45 83.275 194.112 87.406 198.376 92.8074C202.641 98.2089 205.346 104.675 206.199 111.504C207.053 118.334 206.021 125.267 203.216 131.552C200.411 137.836 195.939 143.234 190.286 147.158C184.634 151.083 178.015 153.385 171.147 153.816H94.3159ZM96.3377 103.02C98.9066 102.996 101.425 103.736 103.572 105.147C105.72 106.557 107.4 108.574 108.399 110.941C109.399 113.308 109.672 115.919 109.186 118.442C108.699 120.965 107.474 123.287 105.666 125.112C103.857 126.938 101.548 128.184 99.0298 128.694C96.5119 129.204 93.8992 128.955 91.5234 127.977C89.1477 126.999 87.116 125.337 85.6862 123.202C84.2563 121.068 83.4929 118.556 83.4928 115.986C83.4927 112.568 84.8422 109.288 87.2477 106.859C89.6532 104.431 92.9201 103.051 96.3377 103.02ZM170.196 103.02C172.76 103.02 175.266 103.78 177.398 105.205C179.53 106.63 181.191 108.655 182.173 111.024C183.154 113.394 183.411 116.001 182.91 118.516C182.41 121.031 181.175 123.342 179.362 125.155C177.549 126.969 175.24 128.204 172.725 128.704C170.21 129.204 167.604 128.947 165.235 127.966C162.866 126.985 160.841 125.323 159.417 123.19C157.992 121.058 157.232 118.551 157.232 115.986C157.216 114.279 157.541 112.586 158.186 111.005C158.832 109.425 159.787 107.989 160.994 106.782C162.201 105.575 163.636 104.62 165.216 103.974C166.796 103.328 168.489 103.004 170.196 103.02Z" fill="#1C2126"/>
<path fill-rule="evenodd" clip-rule="evenodd" d="M213.722 204.136V262.545C213.694 268.507 211.348 274.223 207.181 278.486C205.103 280.562 202.637 282.209 199.923 283.331C197.208 284.454 194.3 285.031 191.363 285.029H74.0939C71.1569 285.031 68.2482 284.454 65.5341 283.331C62.82 282.209 60.3535 280.562 58.2757 278.486C54.1089 274.223 51.763 268.507 51.7344 262.545V204.136H213.722Z" fill="#B9E2FE"/>
<path fill-rule="evenodd" clip-rule="evenodd" d="M143.673 233.638C142.801 229.62 140.578 226.022 137.375 223.445C134.171 220.869 130.181 219.47 126.07 219.482C123.13 219.482 120.227 220.143 117.576 221.417C114.926 222.69 112.595 224.543 110.757 226.839C108.919 229.134 107.62 231.814 106.956 234.679C106.292 237.544 106.28 240.522 106.922 243.393L213.725 714H252.735C252.735 714 162.107 314.293 143.673 233.638Z" fill="#8D1A00"/>
</svg>
