<svg width="500" height="500" viewBox="0 0 500 500" fill="none" xmlns="http://www.w3.org/2000/svg">
<g clip-path="url(#clip0_467:18376)">
<path d="M250.168 500.337C388.332 500.337 500.337 388.332 500.337 250.168C500.337 112.004 388.332 0 250.168 0C112.004 0 0 112.004 0 250.168C0 388.332 112.004 500.337 250.168 500.337Z" fill="#B9E2FE"/>
<path fill-rule="evenodd" clip-rule="evenodd" d="M250.169 1.30177e-05C200.699 -0.0159424 152.335 14.6355 111.19 42.1022C70.0458 69.5689 37.9684 108.618 19.0131 154.312C0.0577904 200.007 -4.92431 250.295 4.69658 298.821C14.3175 347.346 38.1094 391.93 73.0647 426.936L250.169 250.168V1.30177e-05Z" fill="#FF341A"/>
<path fill-rule="evenodd" clip-rule="evenodd" d="M250.168 0C203.51 0.0118795 157.785 13.0717 118.159 37.704C78.5336 62.3364 46.5859 97.5595 25.9258 139.394L250.168 250.168V0Z" fill="#8D1A00"/>
</g>
<defs>
<clipPath id="clip0_467:18376">
<rect width="500" height="500" fill="white"/>
</clipPath>
</defs>
</svg>
