<svg width="1144" height="539" viewBox="0 0 1144 539" fill="none" xmlns="http://www.w3.org/2000/svg">
<g clip-path="url(#clip0_467:18359)">
<path d="M1143.5 307.2H0V333.68H1143.5V307.2Z" fill="#133191"/>
<path fill-rule="evenodd" clip-rule="evenodd" d="M0 307.2L84.5 228.8H571.8V307.2H0Z" fill="#B9E2FE"/>
<path fill-rule="evenodd" clip-rule="evenodd" d="M1143.5 307.2L1059 228.8H571.801V307.2H1143.5Z" fill="#B9E2FE"/>
<path d="M130.5 333.7H112.5V538.88H130.5V333.7Z" fill="#133191"/>
<path d="M1031 333.7H1013V538.88H1031V333.7Z" fill="#133191"/>
<path d="M130.5 333.7H112.5V374.47H130.5V333.7Z" fill="#0C114D"/>
<path d="M1031 333.7H1013V374.47H1031V333.7Z" fill="#0C114D"/>
<path fill-rule="evenodd" clip-rule="evenodd" d="M355.6 239.8L341.1 279.6H807.3L785.4 239.8H355.6Z" fill="#EDF8FF"/>
<path fill-rule="evenodd" clip-rule="evenodd" d="M371.4 245.2L367 257.4L773.5 256.4L767.3 245.2H371.4Z" fill="white"/>
<path fill-rule="evenodd" clip-rule="evenodd" d="M533 261.7L528.5 273.9H620.4L613.7 261.7H533Z" fill="white"/>
<path d="M807.2 279.6H341.1V289.88H807.2V279.6Z" fill="#133191"/>
<path d="M785.4 0H355.6V10.28H785.4V0Z" fill="#B9E2FE"/>
<path d="M785.4 10.2998H355.6V239.83H785.4V10.2998Z" fill="#133191"/>
<path d="M774.5 20.7002H366.5V229.34H774.5V20.7002Z" fill="#163BF3"/>
<path fill-rule="evenodd" clip-rule="evenodd" d="M848.9 267.1C848.053 265.443 846.764 264.052 845.175 263.081C843.587 262.111 841.762 261.598 839.9 261.6H829.3C828.432 261.624 827.583 261.865 826.832 262.302C826.081 262.739 825.451 263.357 825 264.1C824.546 264.851 824.298 265.709 824.28 266.586C824.263 267.464 824.477 268.331 824.9 269.1L833 284.5C833.887 286.117 835.188 287.469 836.769 288.418C838.351 289.367 840.156 289.878 842 289.9H852.6C853.463 289.905 854.313 289.686 855.066 289.266C855.82 288.845 856.452 288.237 856.9 287.5C857.352 286.75 857.606 285.899 857.641 285.025C857.676 284.151 857.49 283.283 857.1 282.5L848.9 267.1Z" fill="#EDF8FF"/>
<path fill-rule="evenodd" clip-rule="evenodd" d="M870.999 238.8C867.499 238.8 864.699 240.2 864.699 242C864.699 243.8 867.499 245.2 870.999 245.2C874.499 245.2 877.199 243.8 877.199 242C877.199 240.2 874.399 238.8 870.999 238.8Z" fill="#FBBE2E"/>
</g>
<defs>
<clipPath id="clip0_467:18359">
<rect width="1143.5" height="538.9" fill="white"/>
</clipPath>
</defs>
</svg>
