<svg width="716" height="659" viewBox="0 0 716 659" fill="none" xmlns="http://www.w3.org/2000/svg">
<g clip-path="url(#clip0_467:18287)">
<path d="M189.57 275.15H77.4004V343.93H189.57V275.15Z" fill="#0C114D"/>
<path d="M563.259 175.66H346.119V373.54H563.259V175.66Z" fill="#FBBE2E"/>
<path fill-rule="evenodd" clip-rule="evenodd" d="M466.55 189.84C466.551 186.447 465.884 183.087 464.587 179.952C463.289 176.817 461.387 173.969 458.988 171.569C456.589 169.169 453.742 167.266 450.607 165.967C447.473 164.668 444.113 164 440.72 164H204.33C200.937 163.997 197.577 164.664 194.442 165.961C191.307 167.258 188.459 169.161 186.06 171.56C183.661 173.959 181.758 176.807 180.461 179.942C179.164 183.077 178.497 186.437 178.5 189.83V632.9C178.499 636.293 179.166 639.653 180.463 642.788C181.761 645.923 183.663 648.771 186.062 651.171C188.461 653.571 191.308 655.474 194.443 656.773C197.577 658.072 200.937 658.74 204.33 658.74H440.72C447.571 658.735 454.139 656.01 458.982 651.165C463.825 646.32 466.547 639.751 466.55 632.9V189.84Z" fill="#0C114D"/>
<path d="M450.501 185.31H194.551V619.16H450.501V185.31Z" fill="#FFFAF0"/>
<path d="M516.7 0H290.25V329.09H516.7V0Z" fill="#BDC7FB"/>
<path d="M367.491 269.84H123.051V411.37H367.491V269.84Z" fill="#B9E2FE"/>
<path d="M308.241 94.1797H28.8809V303.7H308.241V94.1797Z" fill="#133191"/>
<path d="M112.17 464.77H0V533.55H112.17V464.77Z" fill="#133191"/>
<path d="M715.15 14.8096H586.6V94.1696H715.15V14.8096Z" fill="#133191"/>
<path d="M411.46 450.5H218.67V460.9H411.46V450.5Z" fill="#B9E2FE"/>
<path d="M411.46 479.28H218.67V489.68H411.46V479.28Z" fill="#B9E2FE"/>
<path d="M411.46 507.02H218.67V517.42H411.46V507.02Z" fill="#B9E2FE"/>
<path d="M341.62 634.29H303.43C300.944 634.29 298.93 636.305 298.93 638.79C298.93 641.275 300.944 643.29 303.43 643.29H341.62C344.105 643.29 346.12 641.275 346.12 638.79C346.12 636.305 344.105 634.29 341.62 634.29Z" fill="#EBEEFF"/>
<path d="M100.323 253.574C105.121 245.88 102.772 235.753 95.0783 230.956C87.3842 226.158 77.2577 228.506 72.4601 236.2C67.6626 243.894 70.0108 254.021 77.7049 258.819C85.3991 263.616 95.5256 261.268 100.323 253.574Z" fill="#EBEEFF"/>
<path d="M139.84 219.39H112.17V227.4H139.84V219.39Z" fill="#EBEEFF"/>
<path fill-rule="evenodd" clip-rule="evenodd" d="M96.3301 230.92L150.15 137.69V260.19H136.12V190.08L100.09 252.49L96.3301 230.92Z" fill="#EBEEFF"/>
<path fill-rule="evenodd" clip-rule="evenodd" d="M247.82 198.94C240.888 198.985 234.252 201.758 229.35 206.66C224.448 211.562 221.674 218.198 221.63 225.13V225.3C221.627 218.308 218.848 211.604 213.903 206.66C208.958 201.717 202.252 198.94 195.26 198.94C202.254 198.94 208.961 196.162 213.906 191.217C218.852 186.271 221.63 179.564 221.63 172.57V172.74C221.677 179.704 224.476 186.366 229.416 191.274C234.356 196.182 241.036 198.938 248 198.94H247.82Z" fill="#FBBE2E"/>
<path fill-rule="evenodd" clip-rule="evenodd" d="M403.189 21C406.552 21 409.839 21.997 412.634 23.865C415.43 25.733 417.609 28.388 418.895 31.4944C420.182 34.6007 420.519 38.0189 419.863 41.3165C419.207 44.6142 417.588 47.6433 415.21 50.0208C412.833 52.3983 409.804 54.0174 406.506 54.6734C403.208 55.3293 399.79 54.9926 396.684 53.706C393.577 52.4193 390.922 50.2403 389.054 47.4447C387.186 44.6491 386.189 41.3623 386.189 38C386.189 33.4913 387.981 29.1673 391.169 25.9792C394.357 22.7911 398.681 21 403.189 21Z" fill="#133191"/>
<path d="M420.19 86.2596C424.387 86.2596 427.79 82.8569 427.79 78.6596C427.79 74.4622 424.387 71.0596 420.19 71.0596C415.992 71.0596 412.59 74.4622 412.59 78.6596C412.59 82.8569 415.992 86.2596 420.19 86.2596Z" fill="#133191"/>
<path fill-rule="evenodd" clip-rule="evenodd" d="M460 80.4297C460.874 80.4297 461.729 80.6889 462.456 81.1746C463.183 81.6603 463.749 82.3506 464.084 83.1582C464.418 83.9659 464.506 84.8546 464.335 85.712C464.165 86.5694 463.744 87.3569 463.125 87.9751C462.507 88.5932 461.72 89.0142 460.862 89.1848C460.005 89.3553 459.116 89.2678 458.309 88.9332C457.501 88.5987 456.811 88.0322 456.325 87.3053C455.839 86.5784 455.58 85.7239 455.58 84.8497C455.58 83.6774 456.046 82.5532 456.875 81.7243C457.704 80.8954 458.828 80.4297 460 80.4297Z" fill="#133191"/>
<path fill-rule="evenodd" clip-rule="evenodd" d="M448.59 43.6201C450.848 43.6201 453.055 44.2901 454.932 45.5452C456.809 46.8002 458.271 48.584 459.134 50.6707C459.997 52.7573 460.221 55.053 459.778 57.2672C459.336 59.4813 458.246 61.5143 456.647 63.1088C455.048 64.7033 453.013 65.7877 450.797 66.2245C448.582 66.6614 446.287 66.4311 444.202 65.5629C442.118 64.6947 440.338 63.2276 439.088 61.3473C437.838 59.467 437.174 57.2581 437.18 55.0001C437.19 51.98 438.397 49.0871 440.535 46.9543C442.673 44.8216 445.57 43.6227 448.59 43.6201Z" fill="#133191"/>
<path fill-rule="evenodd" clip-rule="evenodd" d="M464.379 102.16H357.449L374.599 142.81H447.229L464.379 102.16Z" fill="#B9E2FE"/>
<path fill-rule="evenodd" clip-rule="evenodd" d="M461.999 226.64C462.295 228.333 462.218 230.07 461.771 231.73C461.325 233.39 460.521 234.933 459.416 236.249C458.311 237.566 456.931 238.625 455.374 239.352C453.816 240.08 452.118 240.458 450.399 240.46H371.469C369.75 240.458 368.053 240.08 366.495 239.352C364.938 238.625 363.558 237.566 362.453 236.249C361.348 234.933 360.544 233.39 360.098 231.73C359.651 230.07 359.573 228.333 359.869 226.64C364.599 199.71 374.599 142.81 374.599 142.81H447.229C447.229 142.81 457.229 199.71 461.999 226.64Z" fill="#133191"/>
<path fill-rule="evenodd" clip-rule="evenodd" d="M464.38 102.16H480.01L452.68 129.91L464.38 102.16Z" fill="#133191"/>
<path fill-rule="evenodd" clip-rule="evenodd" d="M357.45 102.16H344.79C342.101 102.16 339.522 103.228 337.62 105.13C335.719 107.032 334.65 109.611 334.65 112.3V179.52H371V173.42H341.51V113.55C341.51 112.309 342.003 111.119 342.881 110.241C343.759 109.363 344.949 108.87 346.19 108.87H360.28L357.45 102.16Z" fill="#133191"/>
</g>
<defs>
<clipPath id="clip0_467:18287">
<rect width="715.15" height="658.74" fill="white"/>
</clipPath>
</defs>
</svg>
