<svg width="591" height="499" viewBox="0 0 591 499" fill="none" xmlns="http://www.w3.org/2000/svg">
<g clip-path="url(#clip0_467:18313)">
<path fill-rule="evenodd" clip-rule="evenodd" d="M518.999 234.23C518.999 228.39 516.684 222.788 512.559 218.652C508.435 214.517 502.84 212.186 496.999 212.17H95.9995C90.1488 212.17 84.5377 214.494 80.4007 218.631C76.2636 222.768 73.9395 228.379 73.9395 234.23V417.09H518.999V234.23Z" fill="#163BF3"/>
<path d="M506.82 230.11H83.9199V405.3H506.82V230.11Z" fill="#B9E2FE"/>
<path d="M467.97 254.67H118.17V405.29H467.97V254.67Z" fill="white"/>
<path fill-rule="evenodd" clip-rule="evenodd" d="M586.851 484.88H3.88086L73.8909 417.09H516.851L586.851 484.88Z" fill="#B9E2FE"/>
<path fill-rule="evenodd" clip-rule="evenodd" d="M590.73 489.52C590.73 488.291 590.242 487.112 589.375 486.242C588.507 485.373 587.329 484.883 586.1 484.88H4.64C3.4094 484.88 2.22919 485.369 1.35902 486.239C0.488856 487.109 0 488.289 0 489.52L0 493.62C-1.42012e-06 494.229 0.120088 494.832 0.353392 495.394C0.586696 495.956 0.928634 496.467 1.35963 496.897C1.79062 497.327 2.30221 497.668 2.8651 497.9C3.428 498.132 4.03114 498.251 4.64 498.25H586.1C587.328 498.25 588.506 497.762 589.374 496.894C590.242 496.025 590.73 494.848 590.73 493.62V489.52Z" fill="#163BF3"/>
<path d="M456.781 0H133.961V184.36H456.781V0Z" fill="#B9E2FE"/>
<path d="M456.781 122.13H133.961V184.36H456.781V122.13Z" fill="#FBBE2E"/>
<path fill-rule="evenodd" clip-rule="evenodd" d="M456.77 122.13H176.23C176.23 122.13 168.23 123.78 168.23 127.75C168.23 131.72 172.16 140.58 193.83 140.58C215.5 140.58 275.3 153.25 310.83 153.25C346.36 153.25 440.59 161.99 456.83 161.99L456.77 122.13Z" fill="#4FB3F6"/>
<path fill-rule="evenodd" clip-rule="evenodd" d="M178.911 51.8C178.911 51.8 146.501 29.07 144.001 37.43C141.501 45.79 169.561 51.8 178.911 51.8Z" fill="#24A865"/>
<path fill-rule="evenodd" clip-rule="evenodd" d="M178.909 51.8004C178.909 51.8004 174.179 23.0604 182.209 23.2904C190.239 23.5204 178.909 51.8004 178.909 51.8004Z" fill="#24A865"/>
<path fill-rule="evenodd" clip-rule="evenodd" d="M178.91 51.7996C178.91 51.7996 227.66 26.5596 230.22 43.6996C232.78 60.8396 178.91 51.7996 178.91 51.7996Z" fill="#24A865"/>
<path fill-rule="evenodd" clip-rule="evenodd" d="M178.91 51.7998C178.91 51.7998 177.91 83.7998 191.23 81.3298C204.55 78.8598 178.91 51.7998 178.91 51.7998Z" fill="#24A865"/>
<path fill-rule="evenodd" clip-rule="evenodd" d="M394.74 21.4805C402.431 21.4805 409.95 23.7613 416.346 28.0346C422.741 32.3079 427.726 38.3817 430.669 45.4879C433.613 52.5941 434.383 60.4136 432.882 67.9575C431.382 75.5015 427.678 82.431 422.239 87.8699C416.8 93.3087 409.871 97.0126 402.327 98.5132C394.783 100.014 386.963 99.2436 379.857 96.3001C372.751 93.3567 366.677 88.372 362.404 81.9766C358.13 75.5812 355.85 68.0622 355.85 60.3705C355.852 50.057 359.95 40.1667 367.243 32.874C374.536 25.5813 384.426 21.4831 394.74 21.4805Z" fill="#FEDD8E"/>
<path fill-rule="evenodd" clip-rule="evenodd" d="M175.841 51.5C175.841 51.5 143.161 83.5 133.961 110.6C134.081 120.35 133.961 149.46 133.961 149.46C133.961 149.46 150.361 78.83 178.911 55.24C179.362 54.1377 179.362 52.9023 178.911 51.8L175.841 51.5Z" fill="#24A865"/>
<path d="M202.211 193.61H192.961V405.3H202.211V193.61Z" fill="black"/>
<path d="M398.65 193.61H389.4V405.3H398.65V193.61Z" fill="black"/>
<path d="M418.681 184.36H172.051V193.61H418.681V184.36Z" fill="black"/>
<path fill-rule="evenodd" clip-rule="evenodd" d="M237.719 460.61H353.009L355.689 472.62H235.039L237.719 460.61Z" fill="white"/>
<path fill-rule="evenodd" clip-rule="evenodd" d="M239.011 454.82H202.881L206.751 444.28H241.371L239.011 454.82Z" fill="white"/>
<path fill-rule="evenodd" clip-rule="evenodd" d="M242.789 437.89H209.119L212.979 427.35H245.149L242.789 437.89Z" fill="white"/>
<path fill-rule="evenodd" clip-rule="evenodd" d="M347.52 437.89H381.19L377.33 427.35H345.16L347.52 437.89Z" fill="white"/>
<path fill-rule="evenodd" clip-rule="evenodd" d="M351.86 454.82H387.99L384.13 444.28H349.51L351.86 454.82Z" fill="white"/>
<path fill-rule="evenodd" clip-rule="evenodd" d="M201.51 444.28L196.72 454.82H164.99L170.44 444.28H201.51Z" fill="white"/>
<path fill-rule="evenodd" clip-rule="evenodd" d="M207.921 427.35L203.671 437.89H173.561L179.011 427.35H207.921Z" fill="white"/>
<path fill-rule="evenodd" clip-rule="evenodd" d="M382.391 427.35L386.641 437.89H416.751L411.301 427.35H382.391Z" fill="white"/>
<path fill-rule="evenodd" clip-rule="evenodd" d="M389.369 444.28L394.159 454.82H425.889L420.439 444.28H389.369Z" fill="white"/>
<path fill-rule="evenodd" clip-rule="evenodd" d="M164.991 444.28L159.011 454.82H124.881L132.011 444.28H164.991Z" fill="white"/>
<path fill-rule="evenodd" clip-rule="evenodd" d="M173.56 427.42L167.65 437.89H136.84L143.96 427.35L173.56 427.42Z" fill="white"/>
<path fill-rule="evenodd" clip-rule="evenodd" d="M416.75 427.42L422.66 437.89H453.47L446.35 427.35L416.75 427.42Z" fill="white"/>
<path fill-rule="evenodd" clip-rule="evenodd" d="M425.891 444.28L431.871 454.82H465.991L458.871 444.28H425.891Z" fill="white"/>
<path fill-rule="evenodd" clip-rule="evenodd" d="M245.779 454.82L247.639 444.28H284.119V454.82H245.779Z" fill="white"/>
<path fill-rule="evenodd" clip-rule="evenodd" d="M248.439 437.89L250.289 427.35H284.119V437.89H248.439Z" fill="white"/>
<path fill-rule="evenodd" clip-rule="evenodd" d="M341.879 437.89L340.019 427.35H306.189V437.89H341.879Z" fill="white"/>
<path fill-rule="evenodd" clip-rule="evenodd" d="M344.529 454.82L342.679 444.28H306.189V454.82H344.529Z" fill="white"/>
<path fill-rule="evenodd" clip-rule="evenodd" d="M137.82 270.07C138.663 270.068 139.488 270.317 140.19 270.783C140.892 271.25 141.439 271.915 141.763 272.693C142.087 273.471 142.173 274.328 142.01 275.155C141.846 275.982 141.441 276.742 140.846 277.339C140.251 277.936 139.492 278.343 138.665 278.508C137.838 278.673 136.981 278.589 136.202 278.267C135.423 277.945 134.757 277.399 134.289 276.698C133.82 275.997 133.57 275.173 133.57 274.33C133.57 273.202 134.018 272.12 134.814 271.322C135.611 270.523 136.692 270.073 137.82 270.07Z" fill="#4FB3F6"/>
<path fill-rule="evenodd" clip-rule="evenodd" d="M153.221 270.07C154.063 270.07 154.887 270.32 155.588 270.788C156.288 271.256 156.834 271.922 157.157 272.7C157.479 273.478 157.563 274.335 157.399 275.161C157.235 275.988 156.829 276.747 156.233 277.343C155.637 277.938 154.878 278.344 154.052 278.508C153.226 278.673 152.369 278.588 151.591 278.266C150.812 277.944 150.147 277.398 149.679 276.697C149.211 275.996 148.961 275.173 148.961 274.33C148.961 273.2 149.41 272.117 150.209 271.318C151.008 270.519 152.091 270.07 153.221 270.07Z" fill="#FBBE2E"/>
<path fill-rule="evenodd" clip-rule="evenodd" d="M167.84 270.07C168.683 270.068 169.507 270.317 170.209 270.783C170.911 271.25 171.459 271.915 171.783 272.693C172.107 273.471 172.192 274.328 172.029 275.155C171.866 275.982 171.461 276.742 170.866 277.339C170.27 277.936 169.511 278.343 168.685 278.508C167.858 278.673 167.001 278.589 166.222 278.267C165.443 277.945 164.777 277.399 164.308 276.698C163.84 275.997 163.59 275.173 163.59 274.33C163.59 273.202 164.037 272.12 164.834 271.322C165.631 270.523 166.712 270.073 167.84 270.07Z" fill="#163BF3"/>
<path d="M61.4004 79.9697H99.8804" stroke="#163BF3" stroke-width="1.67" stroke-linecap="round" stroke-linejoin="round"/>
<path d="M529.33 79.9697H490.85" stroke="#163BF3" stroke-width="1.67" stroke-linecap="round" stroke-linejoin="round"/>
<path d="M99.8791 69.9697L74.5391 44.6396" stroke="#163BF3" stroke-width="1.67" stroke-linecap="round" stroke-linejoin="round"/>
<path d="M490.85 69.9697L516.19 44.6396" stroke="#163BF3" stroke-width="1.67" stroke-linecap="round" stroke-linejoin="round"/>
<path d="M99.8791 89.9697L74.5391 115.3" stroke="#163BF3" stroke-width="1.67" stroke-linecap="round" stroke-linejoin="round"/>
<path d="M490.85 89.9697L516.19 115.3" stroke="#163BF3" stroke-width="1.67" stroke-linecap="round" stroke-linejoin="round"/>
<path fill-rule="evenodd" clip-rule="evenodd" d="M253.1 107H315.67C315.67 107 305.03 100.28 298.21 100.28C291.39 100.28 288.7 94.5 282.09 94.5C275.48 94.5 256.36 103.54 253.1 107Z" fill="white"/>
<path fill-rule="evenodd" clip-rule="evenodd" d="M315.67 97.0597H340.11C340.11 97.0597 335.95 94.4397 333.29 94.4397C330.63 94.4397 329.57 92.1797 326.99 92.1797C324.41 92.1797 317 95.7297 315.67 97.0597Z" fill="white"/>
</g>
<defs>
<clipPath id="clip0_467:18313">
<rect width="590.73" height="498.25" fill="white"/>
</clipPath>
</defs>
</svg>
