<svg width="125" height="500" viewBox="0 0 125 500" fill="none" xmlns="http://www.w3.org/2000/svg">
<g clip-path="url(#clip0_467:18272)">
<path fill-rule="evenodd" clip-rule="evenodd" d="M111.862 138.156H12.8262V450.51C12.8262 463.631 18.0384 476.214 27.3163 485.492C36.5941 494.77 49.1776 499.982 62.2985 499.982C75.4193 499.982 88.0028 494.77 97.2807 485.492C106.559 476.214 111.771 463.631 111.771 450.51L111.862 138.156Z" fill="#B9E2FE"/>
<path fill-rule="evenodd" clip-rule="evenodd" d="M62.2985 500C49.1776 500 36.5941 494.787 27.3163 485.509C18.0384 476.232 12.8262 463.648 12.8262 450.527V365.38C12.8262 346.471 24.7911 310.576 56.9298 312.921C56.9298 282.212 76.4622 257.659 111.899 260.957V450.509C111.899 463.63 106.687 476.213 97.4089 485.491C88.1311 494.769 75.5476 499.981 62.4267 499.981L62.2985 500Z" fill="#EDF8FF"/>
<path fill-rule="evenodd" clip-rule="evenodd" d="M47.6391 233.985C50.2726 234 52.8429 234.794 55.026 236.267C57.2092 237.739 58.9075 239.826 59.907 242.262C60.9064 244.699 61.1623 247.377 60.6423 249.958C60.1223 252.54 58.8498 254.91 56.985 256.77C55.1203 258.629 52.7468 259.895 50.1637 260.408C47.5806 260.921 44.9034 260.658 42.4696 259.652C40.0358 258.646 37.9543 256.942 36.4874 254.755C35.0205 252.567 34.2339 249.995 34.2266 247.361C34.2241 245.601 34.5697 243.858 35.2433 242.231C35.9169 240.605 36.9054 239.128 38.1518 237.885C39.3982 236.642 40.8781 235.657 42.5062 234.988C44.1344 234.319 45.8788 233.978 47.6391 233.985Z" fill="#EDF8FF"/>
<path fill-rule="evenodd" clip-rule="evenodd" d="M47.6402 354.405C48.9167 354.419 50.1605 354.81 51.2159 355.528C52.2713 356.247 53.0913 357.26 53.5731 358.443C54.0549 359.625 54.1772 360.923 53.9246 362.174C53.672 363.426 53.0557 364.575 52.153 365.477C51.2503 366.38 50.1013 366.996 48.8499 367.249C47.5986 367.501 46.3005 367.379 45.1183 366.897C43.9361 366.415 42.9224 365.596 42.2041 364.54C41.4859 363.485 41.095 362.241 41.0805 360.964C41.0707 360.1 41.2336 359.243 41.5598 358.443C41.886 357.642 42.3688 356.915 42.9799 356.304C43.591 355.693 44.318 355.21 45.1183 354.884C45.9186 354.558 46.776 354.395 47.6402 354.405Z" fill="#B9E2FE"/>
<path fill-rule="evenodd" clip-rule="evenodd" d="M64.4615 346.489C65.1146 346.486 65.7541 346.676 66.2988 347.036C66.8436 347.396 67.2692 347.91 67.5217 348.513C67.7741 349.115 67.842 349.779 67.7168 350.42C67.5917 351.061 67.279 351.65 66.8185 352.113C66.358 352.576 65.7703 352.892 65.1301 353.021C64.4898 353.15 63.8257 353.085 63.222 352.836C62.6182 352.587 62.102 352.164 61.7388 351.622C61.3756 351.079 61.1817 350.441 61.1817 349.787C61.1793 349.355 61.2623 348.927 61.4261 348.527C61.5898 348.127 61.831 347.763 62.1358 347.456C62.4406 347.15 62.803 346.907 63.2021 346.741C63.6013 346.575 64.0293 346.489 64.4615 346.489Z" fill="#B9E2FE"/>
<path fill-rule="evenodd" clip-rule="evenodd" d="M71.4596 373.497C72.1134 373.493 72.7536 373.684 73.2988 374.045C73.844 374.406 74.2695 374.921 74.5214 375.525C74.7733 376.128 74.8402 376.793 74.7135 377.434C74.5868 378.076 74.2723 378.665 73.81 379.127C73.3476 379.59 72.7583 379.904 72.1168 380.031C71.4753 380.158 70.8107 380.091 70.2073 379.839C69.6039 379.587 69.0889 379.161 68.7279 378.616C68.3669 378.071 68.1761 377.431 68.1797 376.777C68.1845 375.909 68.5316 375.077 69.1457 374.463C69.7597 373.849 70.5912 373.502 71.4596 373.497Z" fill="#B9E2FE"/>
<path d="M81.8317 215.79C85.9403 215.79 89.2709 212.46 89.2709 208.351C89.2709 204.243 85.9403 200.912 81.8317 200.912C77.7232 200.912 74.3926 204.243 74.3926 208.351C74.3926 212.46 77.7232 215.79 81.8317 215.79Z" fill="#B9E2FE"/>
<path fill-rule="evenodd" clip-rule="evenodd" d="M113.804 0C115.276 0 116.714 0.4363 117.937 1.25373C119.161 2.07115 120.114 3.23299 120.677 4.59232C121.24 5.95165 121.388 7.44742 121.101 8.89048C120.814 10.3335 120.105 11.6591 119.065 12.6995C118.024 13.7398 116.699 14.4484 115.256 14.7354C113.813 15.0224 112.317 14.8751 110.958 14.3121C109.598 13.749 108.436 12.7955 107.619 11.5721C106.802 10.3488 106.365 8.9105 106.365 7.43917C106.365 5.46618 107.149 3.574 108.544 2.17888C109.939 0.783767 111.831 0 113.804 0V0Z" fill="#B9E2FE"/>
<path fill-rule="evenodd" clip-rule="evenodd" d="M55.6829 62.2988C58.6727 62.2988 61.5953 63.1854 64.0812 64.8464C66.5671 66.5075 68.5047 68.8683 69.6488 71.6305C70.7929 74.3927 71.0923 77.4321 70.509 80.3644C69.9257 83.2968 68.486 85.9903 66.3719 88.1044C64.2579 90.2184 61.5643 91.6582 58.632 92.2414C55.6997 92.8247 52.6603 92.5254 49.8981 91.3812C47.1359 90.2371 44.775 88.2996 43.114 85.8137C41.453 83.3278 40.5664 80.4051 40.5664 77.4154C40.5664 73.4062 42.159 69.5613 44.9939 66.7264C47.8288 63.8915 51.6738 62.2988 55.6829 62.2988Z" fill="#B9E2FE"/>
<path d="M73.6771 51.9885C76.0767 39.5275 67.9203 27.4806 55.4594 25.081C42.9984 22.6814 30.9515 30.8378 28.5519 43.2987C26.1523 55.7597 34.3086 67.8066 46.7696 70.2062C59.2306 72.6058 71.2775 64.4495 73.6771 51.9885Z" fill="#B9E2FE"/>
<path d="M100.788 68.3793C105.644 56.6554 100.077 43.2145 88.3531 38.3583C76.6291 33.502 63.1883 39.0694 58.332 50.7934C53.4758 62.5173 59.0432 75.9582 70.7672 80.8145C82.4911 85.6707 95.932 80.1033 100.788 68.3793Z" fill="#B9E2FE"/>
<path fill-rule="evenodd" clip-rule="evenodd" d="M70.8006 7.43945C74.2107 7.43945 77.5443 8.45068 80.3798 10.3453C83.2152 12.2398 85.4251 14.9327 86.7301 18.0832C88.0351 21.2338 88.3766 24.7006 87.7113 28.0452C87.046 31.3898 85.4039 34.4621 82.9925 36.8734C80.5812 39.2847 77.509 40.9269 74.1644 41.5922C70.8197 42.2575 67.3529 41.916 64.2024 40.611C61.0518 39.306 58.359 37.096 56.4644 34.2606C54.5698 31.4252 53.5586 28.0916 53.5586 24.6815C53.5586 20.1086 55.3752 15.723 58.6087 12.4895C61.8422 9.25602 66.2277 7.43945 70.8006 7.43945Z" fill="#B9E2FE"/>
<path fill-rule="evenodd" clip-rule="evenodd" d="M124.707 131.284C124.709 130.384 124.534 129.492 124.19 128.659C123.847 127.827 123.342 127.07 122.705 126.433C122.068 125.797 121.312 125.292 120.479 124.948C119.647 124.605 118.755 124.429 117.854 124.432H6.87115C5.96969 124.429 5.0766 124.605 4.24306 124.948C3.40952 125.291 2.65191 125.796 2.01362 126.432C1.37533 127.069 0.86892 127.825 0.523388 128.658C0.177856 129.49 -3.22235e-06 130.383 0 131.284H0C0 133.107 0.723923 134.855 2.01251 136.143C3.3011 137.432 5.04881 138.156 6.87115 138.156H117.854C118.755 138.156 119.648 137.978 120.481 137.632C121.313 137.287 122.07 136.78 122.706 136.142C123.343 135.504 123.847 134.746 124.19 133.913C124.534 133.079 124.709 132.186 124.707 131.284Z" fill="#B9E2FE"/>
<path d="M111.863 138.156H12.8633V148.252H111.863V138.156Z" fill="#163BF3"/>
</g>
<defs>
<clipPath id="clip0_467:18272">
<rect width="124.707" height="500" fill="white"/>
</clipPath>
</defs>
</svg>
