<svg width="384" height="371" viewBox="0 0 384 371" fill="none" xmlns="http://www.w3.org/2000/svg">
<g clip-path="url(#clip0_467:18263)">
<path fill-rule="evenodd" clip-rule="evenodd" d="M192.999 0.900391C294.599 0.900391 377.199 83.5004 377.199 185.2C377.199 286.9 294.599 369.4 192.999 369.4C91.3992 369.4 8.69922 286.8 8.69922 185.2C8.69922 83.6004 91.2992 0.900391 192.999 0.900391Z" fill="#B9E2FE"/>
<path fill-rule="evenodd" clip-rule="evenodd" d="M56.3 61.5996C56.3 61.5996 77.8 72.7996 86.6 80.4996C95.4 88.1996 95.4 107.3 102.1 116.1C108.8 124.9 114.1 135.7 109.5 142.2C104.9 148.7 78.8 156.3 66.3 156.3C53.8 156.3 33.2 169.7 33.9 187.7C34.6 205.7 47.1 220.3 67.9 220.3C88.7 220.3 94.9 223.3 97.9 235.3C100.9 247.3 68.6 265.3 79.7 280.8C90.8 296.3 136.2 314.8 130.6 358.5C90.1 358.5 0 287.3 0 191.1C0 94.8996 56.3 61.5996 56.3 61.5996Z" fill="#60D399"/>
<path fill-rule="evenodd" clip-rule="evenodd" d="M347.9 85.4998C347.9 85.4998 310.5 53.4998 292.5 66.5998C274.5 79.6998 297.9 81.4998 305.6 83.2998C313.3 85.0998 322.8 92.6998 319.5 98.1998C316.2 103.7 297.6 99.1998 292.5 97.2998C287.4 95.3998 231 74.6998 224.3 107.3C217.6 139.9 236.8 140.5 245.6 141C254.4 141.5 267.1 127.1 284.4 129.7C301.7 132.3 307.3 138.7 305.2 144.2C303.1 149.7 297.6 157.2 281.9 155.8C266.2 154.4 231.5 155.8 220.6 155.8C209.7 155.8 181.4 178.9 207.9 210.1C234.4 241.3 260.6 232.3 269.4 232.3C278.2 232.3 291.3 238.8 291.3 251.7V300.2C291.3 307.4 297.8 311.1 304.1 311.1C310.4 311.1 322.3 302.6 326.9 288C331.5 273.4 337.6 239.9 345.6 239.9C353.6 239.9 362.6 257 362.6 257C393.8 204.1 390.7 147.1 347.9 85.4998Z" fill="#60D399"/>
<path fill-rule="evenodd" clip-rule="evenodd" d="M258.3 50.9004C250.5 50.9004 240.2 72.3004 250.8 72.3004C261.4 72.3004 269.3 50.9004 258.3 50.9004Z" fill="#60D399"/>
<path d="M193.001 0.900391C251.501 0.900391 299.101 83.5004 299.101 185.2C299.101 286.9 251.501 369.4 193.001 369.4C134.501 369.4 86.8008 286.8 86.8008 185.2C86.8008 83.6004 134.401 0.900391 193.001 0.900391Z" stroke="black" stroke-width="1.83" stroke-linecap="round" stroke-linejoin="round"/>
<path d="M194.5 0.900391V369.4" stroke="black" stroke-width="1.83" stroke-linecap="round" stroke-linejoin="round"/>
<path d="M8.69922 185.2H377.199" stroke="black" stroke-width="1.83" stroke-linecap="round" stroke-linejoin="round"/>
</g>
<defs>
<clipPath id="clip0_467:18263">
<rect width="383.4" height="370.3" fill="white"/>
</clipPath>
</defs>
</svg>
