<svg width="224" height="290" viewBox="0 0 224 290" fill="none" xmlns="http://www.w3.org/2000/svg">
<g clip-path="url(#clip0_473:17963)">
<path fill-rule="evenodd" clip-rule="evenodd" d="M35.64 84.9199C38.8986 82.2848 41.5328 78.9605 43.3535 75.186C45.1742 71.4115 46.1361 67.2805 46.17 63.0899C46.2424 48.0027 51.6929 33.4358 61.5419 22.0067C71.391 10.5775 84.9931 3.03536 99.9041 0.735327C114.815 -1.5647 130.058 1.52819 142.893 9.45827C155.728 17.3883 165.315 29.6358 169.93 43.9999C171.584 49.2088 174.707 53.8292 178.924 57.3061C183.141 60.783 188.271 62.9685 193.7 63.5999C198.21 64.1084 202.566 65.5488 206.49 67.8299C211.544 70.7477 215.739 74.9461 218.654 80.0019C221.568 85.0578 223.098 90.7924 223.09 96.628C223.082 102.464 221.536 108.194 218.607 113.242C215.679 118.289 211.472 122.476 206.41 125.38C201.757 128.059 197.96 132.003 195.458 136.754C192.957 141.505 191.855 146.868 192.28 152.22C192.46 154.67 192.56 157.15 192.56 159.65C192.569 175.909 188.46 191.907 180.617 206.149C172.773 220.392 161.45 232.416 147.704 241.1C133.958 249.785 118.236 254.847 102.005 255.813C85.7745 256.78 69.5632 253.621 54.8832 246.63C40.2033 239.639 27.533 229.044 18.0539 215.833C8.57486 202.622 2.59588 187.226 0.674564 171.081C-1.24675 154.935 0.952206 138.566 7.06634 123.499C13.1805 108.433 23.0106 95.1607 35.64 84.9199V84.9199Z" fill="#D9F0FF"/>
<path d="M101.88 205.95H46.9902V216.29H101.88V205.95Z" fill="#24A865"/>
<path fill-rule="evenodd" clip-rule="evenodd" d="M76.3306 133.16H66.0106L17.6406 289.08H27.9606L76.3306 133.16Z" fill="black"/>
<path fill-rule="evenodd" clip-rule="evenodd" d="M66.0098 133.16H120.91L169.28 289.08H114.38L66.0098 133.16Z" fill="#163BF3"/>
<path d="M145.349 160.76H135.119V205.95H145.349V160.76Z" fill="#9CE8C2"/>
<path d="M162.831 178.24H117.641V188.47H162.831V178.24Z" fill="#9CE8C2"/>
</g>
<defs>
<clipPath id="clip0_473:17963">
<rect width="223.09" height="289.08" fill="white"/>
</clipPath>
</defs>
</svg>
