<svg width="195" height="238" viewBox="0 0 195 238" fill="none" xmlns="http://www.w3.org/2000/svg">
<g clip-path="url(#clip0_473:17996)">
<path fill-rule="evenodd" clip-rule="evenodd" d="M15.9396 88.9997C19.6425 84.6475 22.239 79.4651 23.5083 73.8936C24.7776 68.322 24.6819 62.5263 23.2296 56.9997C20.5168 46.5269 21.6175 35.4306 26.3349 25.6949C31.0523 15.9592 39.0789 8.21881 48.9793 3.85774C58.8798 -0.503324 70.0087 -1.20072 80.3762 1.89026C90.7436 4.98124 99.6736 11.659 105.57 20.7297C108.705 25.5471 112.965 29.5298 117.982 32.3345C123 35.1393 128.623 36.682 134.37 36.8297C149.807 37.179 164.552 43.3108 175.684 54.0118C186.817 64.7128 193.527 79.2032 194.487 94.6152C195.446 110.027 190.585 125.238 180.865 137.237C171.145 149.236 157.275 157.149 142 159.41C132.969 160.756 124.805 165.535 119.21 172.75C113.828 179.873 107.067 185.84 99.3299 190.295C91.5931 194.75 83.0386 197.602 74.1762 198.682C65.3138 199.761 56.3248 199.045 47.7449 196.577C39.165 194.109 31.1697 189.938 24.2355 184.315C17.3013 178.691 11.5701 171.73 7.38329 163.844C3.19652 155.959 0.639904 147.312 -0.134225 138.417C-0.908353 129.523 0.115853 120.564 2.87736 112.074C5.63887 103.584 10.0812 95.7366 15.9396 88.9997V88.9997Z" fill="#D9F0FF"/>
<path fill-rule="evenodd" clip-rule="evenodd" d="M94.8099 81.5596C87.6013 81.5583 80.463 82.9771 73.8029 85.7352C67.1427 88.4932 61.0912 92.5363 55.9939 97.6336C50.8966 102.731 46.8535 108.782 44.0955 115.443C41.3375 122.103 39.9186 129.241 39.9199 136.45V182.6C39.9199 189.808 41.3397 196.946 44.0982 203.605C46.8567 210.265 50.8998 216.316 55.9968 221.413C66.2907 231.707 80.2522 237.49 94.8099 237.49V81.5596Z" fill="#FF341A"/>
<path d="M146.721 136.56C146.049 136.562 145.383 136.43 144.762 136.174C144.141 135.918 143.576 135.542 143.101 135.067C142.625 134.593 142.248 134.029 141.99 133.408C141.733 132.788 141.601 132.122 141.601 131.45C141.59 120.951 137.414 110.885 129.99 103.461C122.566 96.0365 112.5 91.8609 102.001 91.8503H94.8105V81.6104H102.001C115.214 81.6262 127.882 86.8823 137.225 96.2257C146.569 105.569 151.825 118.237 151.841 131.45C151.838 132.807 151.297 134.106 150.337 135.064C149.378 136.022 148.077 136.56 146.721 136.56Z" fill="#163BF3"/>
<path d="M102.001 237.16H94.8105V226.92H102.001C112.5 226.91 122.566 222.734 129.99 215.31C137.414 207.886 141.59 197.82 141.601 187.32C141.601 185.962 142.14 184.66 143.1 183.7C144.06 182.74 145.363 182.2 146.721 182.2C148.078 182.2 149.381 182.74 150.341 183.7C151.301 184.66 151.841 185.962 151.841 187.32C151.825 200.534 146.569 213.201 137.225 222.545C127.882 231.888 115.214 237.144 102.001 237.16V237.16Z" fill="black"/>
</g>
<defs>
<clipPath id="clip0_473:17996">
<rect width="194.53" height="237.49" fill="white"/>
</clipPath>
</defs>
</svg>
