<svg width="223" height="271" viewBox="0 0 223 271" fill="none" xmlns="http://www.w3.org/2000/svg">
<g clip-path="url(#clip0_473:18001)">
<path fill-rule="evenodd" clip-rule="evenodd" d="M42.0005 73.4803C46.295 72.5151 50.133 70.1166 52.883 66.6797C55.6329 63.2427 57.1309 58.972 57.1305 54.5703V54.5703C57.1313 47.1079 58.6624 39.7248 61.6291 32.8774C64.5959 26.03 68.9353 19.8637 74.3793 14.7596C79.8232 9.65542 86.256 5.72187 93.2802 3.20198C100.304 0.68208 107.771 -0.370629 115.218 0.108899C122.665 0.588427 129.934 2.59 136.577 5.98995C143.22 9.38989 149.096 14.116 153.84 19.8761C158.584 25.6363 162.097 32.3082 164.161 39.4796C166.225 46.6509 166.797 54.1694 165.84 61.5703C164.905 68.7709 166.114 76.0874 169.316 82.6044C172.517 89.1215 177.57 94.5498 183.84 98.2103C194.79 104.618 203.992 113.625 210.634 124.433C217.277 135.241 221.156 147.519 221.927 160.182C222.699 172.845 220.34 185.503 215.059 197.038C209.778 208.573 201.737 218.63 191.647 226.32C181.557 234.011 169.729 239.097 157.206 241.132C144.684 243.166 131.853 242.084 119.848 237.983C107.843 233.882 97.0323 226.888 88.3716 217.617C79.7109 208.347 73.4667 197.086 70.1905 184.83C69.6905 182.97 69.2705 181.11 68.9105 179.26C61.9274 181.142 54.6401 181.616 47.472 180.657C40.3039 179.697 33.3979 177.323 27.1554 173.672C20.9128 170.02 15.4582 165.164 11.1085 159.387C6.75874 153.609 3.60061 147.024 1.8176 140.016C0.0345906 133.007 -0.33774 125.714 0.722243 118.56C1.78223 111.406 4.25339 104.534 7.99213 98.3431C11.7309 92.1524 16.6626 86.7665 22.5009 82.4983C28.3391 78.2301 34.9674 75.1648 42.0005 73.4803V73.4803Z" fill="#D9F0FF"/>
<path d="M175.44 114.09H90.8496V124.43H175.44V114.09Z" fill="#163BF3"/>
<path d="M175.44 186.88H90.8496V197.22H175.44V186.88Z" fill="black"/>
<path d="M175.44 259.68H90.8496V270.02H175.44V259.68Z" fill="#163BF3"/>
<path d="M118.3 114.09H63.4102V270.02H118.3V114.09Z" fill="#FBBE2E"/>
</g>
<defs>
<clipPath id="clip0_473:18001">
<rect width="222.02" height="270.02" fill="white"/>
</clipPath>
</defs>
</svg>
