<svg width="224" height="292" viewBox="0 0 224 292" fill="none" xmlns="http://www.w3.org/2000/svg">
<g clip-path="url(#clip0_473:18017)">
<path fill-rule="evenodd" clip-rule="evenodd" d="M35.64 84.9202C38.8986 82.2851 41.5329 78.9608 43.3535 75.1863C45.1742 71.4118 46.1361 67.2808 46.17 63.0902C46.2275 47.9945 51.6703 33.4148 61.5192 21.9743C71.3681 10.5339 84.9765 2.9838 99.8959 0.682476C114.815 -1.61884 130.066 1.4797 142.905 9.42061C155.743 17.3615 165.326 29.6235 169.93 44.0002C171.584 49.2091 174.707 53.8296 178.924 57.3065C183.141 60.7834 188.271 62.9688 193.7 63.6002C198.209 64.1099 202.563 65.5466 206.49 67.8202C211.543 70.7408 215.738 74.9412 218.652 79.9986C221.565 85.056 223.095 90.7917 223.087 96.6284C223.079 102.465 221.533 108.196 218.606 113.246C215.678 118.295 211.471 122.484 206.41 125.39C201.76 128.069 197.964 132.012 195.463 136.761C192.962 141.509 191.858 146.87 192.28 152.22C192.467 154.667 192.56 157.147 192.56 159.66C192.567 175.919 188.457 191.916 180.612 206.157C172.768 220.399 161.444 232.422 147.698 241.105C133.951 249.788 118.23 254.848 101.999 255.814C85.7686 256.78 69.5579 253.62 54.8787 246.628C40.1995 239.636 27.53 229.041 18.0517 215.83C8.57343 202.62 2.59511 187.224 0.674268 171.079C-1.24657 154.933 0.952641 138.564 7.06682 123.499C13.181 108.433 23.011 95.1608 35.64 84.9202V84.9202Z" fill="#D9F0FF"/>
<path d="M140.829 135.24H85.9395V145.58H140.829V135.24Z" fill="#24A865"/>
<path d="M140.829 280.82H85.9395V291.16H140.829V280.82Z" fill="#24A865"/>
<path d="M113.38 135.23H58.4902V291.16H113.38V135.23Z" fill="#163BF3"/>
<path d="M140.83 291.11V280.88C143.345 280.887 145.837 280.397 148.162 279.439C150.488 278.481 152.602 277.074 154.382 275.298C156.163 273.522 157.576 271.412 158.54 269.089C159.504 266.766 160 264.275 160 261.76V164.64C160 159.569 157.986 154.706 154.4 151.12C150.814 147.534 145.951 145.52 140.88 145.52V135.29C148.663 135.293 156.127 138.386 161.631 143.889C167.134 149.393 170.227 156.857 170.23 164.64V261.76C170.23 269.544 167.138 277.009 161.634 282.514C156.129 288.018 148.664 291.11 140.88 291.11H140.83Z" fill="black"/>
</g>
<defs>
<clipPath id="clip0_473:18017">
<rect width="223.09" height="291.17" fill="white"/>
</clipPath>
</defs>
</svg>
