<svg width="223" height="273" viewBox="0 0 223 273" fill="none" xmlns="http://www.w3.org/2000/svg">
<g clip-path="url(#clip0_473:17988)">
<path fill-rule="evenodd" clip-rule="evenodd" d="M41.9996 73.4795C46.285 72.5067 50.1127 70.1064 52.8545 66.6722C55.5964 63.2381 57.0898 58.974 57.0896 54.5795C57.2838 40.2333 63.1191 26.5404 73.3328 16.4641C83.5465 6.38772 97.317 0.738281 111.665 0.738281C126.012 0.738281 139.783 6.38772 149.996 16.4641C160.21 26.5404 166.045 40.2333 166.24 54.5795C166.24 56.9195 166.096 59.2572 165.81 61.5795C164.872 68.7789 166.081 76.0947 169.282 82.6105C172.484 89.1264 177.538 94.5526 183.81 98.2095C194.765 104.613 203.975 113.617 210.624 124.425C217.273 135.233 221.157 147.513 221.933 160.179C222.709 172.845 220.353 185.507 215.073 197.046C209.793 208.585 201.751 218.646 191.659 226.339C181.567 234.032 169.735 239.12 157.21 241.154C144.684 243.188 131.85 242.105 119.843 238.001C107.835 233.896 97.0231 226.897 88.3631 217.622C79.703 208.346 73.4613 197.08 70.1896 184.82C69.6896 182.97 69.2696 181.11 68.9096 179.25C61.9569 181.04 54.7193 181.44 47.6115 180.429C40.5038 179.417 33.6655 177.012 27.4886 173.353C21.3117 169.694 15.9176 164.851 11.6154 159.104C7.31317 153.356 4.1874 146.816 2.4172 139.858C0.647004 132.9 0.267166 125.662 1.29945 118.557C2.33174 111.452 4.75587 104.621 8.43292 98.4544C12.11 92.2881 16.9677 86.9079 22.7277 82.6223C28.4877 78.3366 35.0367 75.2297 41.9996 73.4795V73.4795Z" fill="#D9F0FF"/>
<path d="M122.451 117.05H67.5605V127.39H122.451V117.05Z" fill="#163BF3"/>
<path d="M122.451 189.85H67.5605V200.19H122.451V189.85Z" fill="#163BF3"/>
<path d="M94.9994 117.05H40.1094V272.98H94.9994V117.05Z" fill="#FBBE2E"/>
<path d="M122.449 200.13V189.9C127.517 189.895 132.375 187.88 135.96 184.298C139.544 180.716 141.561 175.858 141.569 170.79V146.45C141.567 141.381 139.551 136.52 135.966 132.937C132.38 129.353 127.518 127.34 122.449 127.34V117.11C130.232 117.11 137.695 120.201 143.199 125.703C148.703 131.205 151.797 138.668 151.799 146.45V170.79C151.797 178.573 148.703 186.035 143.199 191.537C137.695 197.04 130.232 200.13 122.449 200.13V200.13Z" fill="black"/>
<path d="M122.449 272.93V262.7C127.52 262.7 132.383 260.686 135.969 257.1C139.555 253.515 141.569 248.651 141.569 243.58V219.25C141.564 214.181 139.548 209.321 135.963 205.736C132.379 202.152 127.519 200.136 122.449 200.13V189.9C130.233 189.903 137.696 192.996 143.2 198.5C148.703 204.003 151.797 211.467 151.799 219.25V243.58C151.797 251.364 148.703 258.827 143.2 264.331C137.696 269.835 130.233 272.928 122.449 272.93V272.93Z" fill="black"/>
<path d="M214.69 184.79H169.5V195.02H214.69V184.79Z" fill="#9CE8C2"/>
</g>
<defs>
<clipPath id="clip0_473:17988">
<rect width="222.02" height="272.98" fill="white"/>
</clipPath>
</defs>
</svg>
