<svg width="195" height="240" viewBox="0 0 195 240" fill="none" xmlns="http://www.w3.org/2000/svg">
<g clip-path="url(#clip0_473:17970)">
<path fill-rule="evenodd" clip-rule="evenodd" d="M15.9396 88.9997C19.6425 84.6475 22.239 79.4651 23.5083 73.8936C24.7776 68.322 24.682 62.5263 23.2296 56.9997C20.5168 46.5269 21.6175 35.4306 26.3349 25.6949C31.0524 15.9592 39.0789 8.21881 48.9794 3.85774C58.8798 -0.503324 70.0087 -1.20072 80.3762 1.89026C90.7436 4.98124 99.6737 11.659 105.57 20.7297C108.704 25.5483 112.964 29.5319 117.981 32.3368C122.999 35.1417 128.623 36.6837 134.37 36.8297C149.807 37.179 164.552 43.3108 175.684 54.0118C186.817 64.7128 193.527 79.2032 194.487 94.6152C195.446 110.027 190.585 125.238 180.865 137.237C171.145 149.236 157.275 157.149 142 159.41C132.972 160.757 124.812 165.535 119.22 172.75C113.831 179.856 107.069 185.806 99.3354 190.247C91.6014 194.688 83.0535 197.528 74.1999 198.598C65.3463 199.669 56.3677 198.949 47.7982 196.48C39.2286 194.011 31.243 189.844 24.3161 184.227C17.3892 178.61 11.6625 171.657 7.4765 163.783C3.2905 155.908 0.730679 147.272 -0.0507695 138.388C-0.832218 129.504 0.180668 120.554 2.92766 112.07C5.67466 103.585 10.0997 95.7397 15.9396 88.9997V88.9997Z" fill="#D9F0FF"/>
<path d="M152.33 83.0898H67.5898V93.4298H152.33V83.0898Z" fill="#163BF3"/>
<path d="M152.33 155.88H67.5898V166.22H152.33V155.88Z" fill="black"/>
<path d="M95.0296 83.0898H40.1396V239.02H95.0296V83.0898Z" fill="#FF341A"/>
</g>
<defs>
<clipPath id="clip0_473:17970">
<rect width="194.52" height="239.02" fill="white"/>
</clipPath>
</defs>
</svg>
