<svg width="189" height="372" viewBox="0 0 189 372" fill="none" xmlns="http://www.w3.org/2000/svg">
<g clip-path="url(#clip0_473:18042)">
<path fill-rule="evenodd" clip-rule="evenodd" d="M18.5896 323.18C21.3996 310.32 29.0296 278.58 11.3496 242.41C-6.33039 206.24 0.90961 181.34 4.91961 169.69C8.92961 158.04 17.6496 151 25.3396 149.49C27.7596 142.22 52.9296 44.8197 58.6996 28.7797C64.4696 12.7397 80.6996 15.7797 78.4396 34.3297C76.1796 52.8797 70.6196 126.49 70.6196 126.49C70.6196 126.49 105.19 25.2797 108.68 11.6997C112.17 -1.88032 131.93 -7.43032 129.46 16.2297C126.99 39.8897 112.39 130.81 112.39 130.81C112.39 130.81 143.45 49.9997 147.77 37.2097C152.09 24.4197 167.93 21.2097 165.05 41.5297C162.17 61.8497 145.71 144 145.71 144C145.71 144 168.71 103.27 173.89 93.9997C179.07 84.7297 191.38 83.5097 187.47 101.82C183.56 120.13 128.75 323.2 128.75 323.2C128.75 323.2 31.4096 322.66 18.5896 323.18Z" fill="#DFA98B"/>
<path fill-rule="evenodd" clip-rule="evenodd" d="M18.5897 323.18L8.21973 371.78H117.66L128.75 323.19L18.5897 323.18Z" fill="#FBBE2E"/>
<path fill-rule="evenodd" clip-rule="evenodd" d="M101.18 341.33C102.579 341.33 103.946 341.745 105.108 342.522C106.271 343.298 107.177 344.403 107.712 345.695C108.247 346.986 108.387 348.408 108.115 349.779C107.842 351.151 107.168 352.411 106.18 353.399C105.191 354.388 103.931 355.061 102.56 355.334C101.188 355.607 99.7667 355.467 98.4748 354.932C97.1829 354.397 96.0787 353.491 95.3019 352.328C94.525 351.165 94.1104 349.798 94.1104 348.4C94.113 346.526 94.8587 344.729 96.184 343.404C97.5093 342.078 99.3061 341.333 101.18 341.33V341.33Z" fill="white"/>
<path d="M25.3398 149.49C35.7998 147.86 73.3398 154.35 85.3398 154.74C97.3398 155.13 113.39 155.93 113.39 164.74C113.39 173.55 93.3898 179.22 84.6798 179.88C75.9698 180.54 42.1598 184.36 42.1598 184.36" stroke="#935000" stroke-width="1.67" stroke-linecap="round" stroke-linejoin="round"/>
<path d="M55.7002 182.86C73.9202 193.8 89.5702 239.14 83.1202 262.31" stroke="#935000" stroke-width="1.67" stroke-linecap="round" stroke-linejoin="round"/>
<path d="M64.4199 124.2L75.6099 127.36" stroke="#935000" stroke-width="1.67" stroke-linecap="round" stroke-linejoin="round"/>
<path d="M106.42 130.38L117.61 133.55" stroke="#935000" stroke-width="1.67" stroke-linecap="round" stroke-linejoin="round"/>
<path d="M140.26 143.15L151.45 146.32" stroke="#935000" stroke-width="1.67" stroke-linecap="round" stroke-linejoin="round"/>
<path d="M87.0898 154.8C89.3398 160.18 109.84 173.35 107.94 157.92" stroke="#935000" stroke-width="1.67" stroke-linecap="round" stroke-linejoin="round"/>
</g>
<defs>
<clipPath id="clip0_473:18042">
<rect width="188.23" height="371.78" fill="white"/>
</clipPath>
</defs>
</svg>
