<svg width="476" height="697" viewBox="0 0 476 697" fill="none" xmlns="http://www.w3.org/2000/svg">
<g clip-path="url(#clip0_473:17975)">
<path fill-rule="evenodd" clip-rule="evenodd" d="M48.5105 545C72.0805 545 101.81 570 114.84 600.82C127.87 631.64 119.32 656.65 95.7405 656.65C72.1605 656.65 42.4505 631.65 29.4105 600.82C16.3705 569.99 24.9305 545 48.5105 545Z" fill="#FBBE2E"/>
<path fill-rule="evenodd" clip-rule="evenodd" d="M62.6301 545C86.2001 545 115.92 570 128.96 600.82C142 631.64 133.44 656.65 109.86 656.65C86.2801 656.65 56.5601 631.65 43.5301 600.82C30.5001 569.99 39.0501 545 62.6301 545Z" fill="black"/>
<path fill-rule="evenodd" clip-rule="evenodd" d="M125.44 694.2C125.44 694.2 38.9196 489.38 15.0796 433.76C-8.76041 378.14 0.0795879 323.41 11.5496 278.38C23.0196 233.35 45.9996 159.19 52.9996 129.18C59.9996 99.1696 94.4996 82.3896 100.68 128.29C106.86 174.19 105.09 181.29 105.09 181.29C105.09 181.29 182.78 47.0896 202.21 17.9596C221.64 -11.1704 249.92 -3.25036 237.56 30.2996C225.2 63.8496 164.64 202.45 164.64 202.45C164.64 202.45 281.46 44.8096 302.36 17.1196C323.26 -10.5704 350.36 4.68964 339.65 35.2096C328.94 65.7296 246.42 234.66 246.42 234.66C246.42 234.66 369.6 111.49 395 88.3196C420.4 65.1496 453.76 83.2296 433.42 111.49C413.08 139.75 310.27 264.61 310.27 264.61C310.27 264.61 429.63 211 449.52 202.32C469.41 193.64 486.81 216.42 466.52 232.69C446.23 248.96 358.75 311.53 349 319.12C339.25 326.71 339.6 329.24 330.55 344.07C321.5 358.9 280.65 422.91 272.7 436.29C264.75 449.67 256.06 462.29 265.82 492.29C275.58 522.29 351.17 696.29 351.17 696.29L125.44 694.2Z" fill="#DFA98B"/>
<path d="M105.13 181.27C103.77 198.51 102.87 215.68 101.06 225.63C99.2499 235.58 97.4499 246.42 104.68 259.98C111.91 273.54 146.68 346.32 145.81 377.51" stroke="#935000" stroke-width="1.67" stroke-linecap="round" stroke-linejoin="round"/>
<path d="M141.74 273.54L267.41 338.63" stroke="#935000" stroke-width="1.67" stroke-linecap="round" stroke-linejoin="round"/>
<path d="M145.83 190.37L182.43 210.71" stroke="#935000" stroke-width="1.67" stroke-linecap="round" stroke-linejoin="round"/>
<path d="M227.19 223.37L263.79 243.71" stroke="#935000" stroke-width="1.67" stroke-linecap="round" stroke-linejoin="round"/>
<path d="M290.93 256.37L327.52 276.71" stroke="#935000" stroke-width="1.67" stroke-linecap="round" stroke-linejoin="round"/>
<path fill-rule="evenodd" clip-rule="evenodd" d="M294.7 564.33H70.5195L101.39 637.3H325.71L294.7 564.33Z" fill="#FF341A"/>
<path fill-rule="evenodd" clip-rule="evenodd" d="M236.4 564.33H218.78L249.65 637.3H267.41L236.4 564.33Z" fill="black"/>
<path d="M200.29 564.33C179.29 564.33 150.02 589.99 154.36 600.81C158.7 611.63 197.36 637.3 227.19 637.3" stroke="black" stroke-width="1.67" stroke-linecap="round" stroke-linejoin="round"/>
<path fill-rule="evenodd" clip-rule="evenodd" d="M241.82 598.85C241.54 598.193 241.073 597.634 240.477 597.241C239.881 596.848 239.184 596.639 238.47 596.64H227.07C226.721 596.638 226.378 596.723 226.07 596.887C225.762 597.051 225.501 597.29 225.308 597.58C225.116 597.871 224.998 598.205 224.967 598.552C224.936 598.9 224.992 599.249 225.13 599.57V599.63C225.407 600.287 225.872 600.848 226.466 601.243C227.06 601.638 227.757 601.849 228.47 601.85H239.88C240.228 601.849 240.57 601.762 240.876 601.597C241.182 601.433 241.443 601.194 241.635 600.905C241.827 600.615 241.944 600.282 241.977 599.935C242.009 599.589 241.955 599.24 241.82 598.92V598.85Z" fill="#DFA98B"/>
</g>
<defs>
<clipPath id="clip0_473:17975">
<rect width="475.58" height="696.29" fill="white"/>
</clipPath>
</defs>
</svg>
