<svg width="371" height="264" viewBox="0 0 371 264" fill="none" xmlns="http://www.w3.org/2000/svg">
<g clip-path="url(#clip0_473:18037)">
<path fill-rule="evenodd" clip-rule="evenodd" d="M43.6797 165.12C71.4497 142.36 126.61 93.7604 140.5 74.8604C154.39 55.9604 175.6 34.3604 212.63 26.2604C249.66 18.1604 325.65 3.89044 350 0.410443C374.35 -3.06956 377 16.2304 356.17 24.3304C335.34 32.4304 307.9 42.0704 307.9 42.0704C307.9 42.0704 327.57 45.5404 316.39 69.4604C305.21 93.3804 302.89 96.4604 295.95 104.17C289.01 111.88 272.03 117.67 260.85 117.67H228.06C220.608 134.476 208.059 148.512 192.19 157.79C165.96 172.79 155.19 172.06 141.27 183.63C127.35 195.2 93.4397 226.06 93.4397 226.06C93.4397 226.06 55.2497 182.47 43.6797 165.12Z" fill="#DFA98B"/>
<path d="M307.9 42.0703L199.04 81.4503" stroke="#935000" stroke-width="1.67" stroke-linecap="round" stroke-linejoin="round"/>
<path d="M274.88 54.0003C279.6 52.5203 292.64 51.7303 296 60.0003C299.36 68.2703 295.6 71.2503 287.7 77.3703C279.8 83.4903 240.9 109.11 228.06 117.63C215.22 126.15 176.71 143.53 162.49 147.68" stroke="#935000" stroke-width="1.67" stroke-linecap="round" stroke-linejoin="round"/>
<path fill-rule="evenodd" clip-rule="evenodd" d="M43.68 165.12L93.44 226.06L52.09 263.42L0 202.44L43.68 165.12Z" fill="#163BF3"/>
</g>
<defs>
<clipPath id="clip0_473:18037">
<rect width="370.12" height="263.42" fill="white"/>
</clipPath>
</defs>
</svg>
