<svg width="220" height="522" viewBox="0 0 220 522" fill="none" xmlns="http://www.w3.org/2000/svg">
<g clip-path="url(#clip0_473:18023)">
<path fill-rule="evenodd" clip-rule="evenodd" d="M38.3695 460.55C38.3695 460.55 50.1695 391.67 52.3695 372.86C54.5695 354.05 50.5595 334.17 37.1795 319.71C23.7995 305.25 -13.8205 261.85 5.35954 208.33C24.5395 154.81 47.3595 117.7 61.4395 119.51C68.6095 120.44 70.4395 131.32 70.4395 131.32C70.4395 131.32 125.55 23.9998 132.06 11.3098C138.57 -1.38019 146.16 -2.80019 151.23 4.06981C156.3 10.9398 157.74 29.3798 151.23 50.3598C144.72 71.3398 125.23 142.93 125.23 142.93C125.23 142.93 134.6 132.84 143.86 138.39C153.12 143.94 157.29 156.44 157.29 161.77C164.23 150.89 173.29 150.43 178.34 153.2C183.39 155.97 189 172.64 189 185.61C194.09 176.11 202.65 173.34 206.36 177.73C210.07 182.12 217.93 182.9 217.93 237.14C221.166 260.704 220.538 284.638 216.07 308C212.07 328.61 185.33 461 185.33 461L38.3695 460.55Z" fill="#DFA98B"/>
<path fill-rule="evenodd" clip-rule="evenodd" d="M38.3696 460.55L28.1396 521.11L173.37 521.06L185.33 460.98L38.3696 460.55Z" fill="#FBBE2E"/>
<path fill-rule="evenodd" clip-rule="evenodd" d="M64.0004 487C65.7586 487 67.4774 487.521 68.9394 488.498C70.4013 489.475 71.5408 490.864 72.2136 492.488C72.8865 494.112 73.0626 495.9 72.7195 497.624C72.3765 499.349 71.5298 500.933 70.2865 502.176C69.0432 503.419 67.4592 504.266 65.7347 504.609C64.0102 504.952 62.2227 504.776 60.5983 504.103C58.9739 503.43 57.5854 502.291 56.6086 500.829C55.6317 499.367 55.1104 497.648 55.1104 495.89C55.1104 493.532 56.047 491.271 57.7142 489.604C59.3814 487.937 61.6426 487 64.0004 487V487Z" fill="#163BF3"/>
<path d="M71.0001 131.57C71.3101 137.87 64.9401 183.49 62.0001 198.7C59.0601 213.91 60.4001 227.33 70.8901 238.79C81.3801 250.25 104.09 278.88 104.09 278.88" stroke="#935000" stroke-width="1.67" stroke-linecap="round" stroke-linejoin="round"/>
<path d="M97.1904 159.4L118.72 165.52" stroke="#935000" stroke-width="1.67" stroke-linecap="round" stroke-linejoin="round"/>
<path d="M125.76 143.18L118.76 165.52C118.76 165.52 115.22 218.22 118.76 236.73C122.3 255.24 135.7 252.66 141.42 240.13C146.31 229.43 156.94 191.81 157.85 162.02" stroke="#935000" stroke-width="1.67" stroke-linecap="round" stroke-linejoin="round"/>
<path d="M146.48 225.64C146.48 238.29 147.12 265.74 157.81 271.27C168.5 276.8 173.65 260.48 177.6 250.08C181.55 239.68 189.4 198.99 189.52 185.86" stroke="#935000" stroke-width="1.67" stroke-linecap="round" stroke-linejoin="round"/>
<path d="M183 229.12C183 229.12 183.9 259.87 189.55 272.38C195.2 284.89 206.66 285.55 210.8 272.38C214.94 259.21 218.48 237.38 218.48 237.38" stroke="#935000" stroke-width="1.67" stroke-linecap="round" stroke-linejoin="round"/>
<path d="M31.3496 151C35.4396 155.08 50.9296 165.24 50.7696 124.63" stroke="#935000" stroke-width="1.67" stroke-linecap="round" stroke-linejoin="round"/>
<path d="M141.67 239.47C141.67 239.47 138.18 229.12 132.02 229.12C125.86 229.12 121.57 241.93 124.02 247.95" stroke="#935000" stroke-width="1.67" stroke-linecap="round" stroke-linejoin="round"/>
<path d="M173.68 260.11C173.68 260.11 172.94 251.4 165.98 250.11C159.02 248.82 153.26 262.84 157.8 271.3" stroke="#935000" stroke-width="1.67" stroke-linecap="round" stroke-linejoin="round"/>
<path d="M211.12 271.27C211.12 271.27 212.43 256.97 203.43 257.61C194.43 258.25 192.88 274.33 197.68 281.37" stroke="#935000" stroke-width="1.67" stroke-linecap="round" stroke-linejoin="round"/>
<path d="M118.72 375.08H157.81" stroke="#935000" stroke-width="1.67" stroke-linecap="round" stroke-linejoin="round"/>
</g>
<defs>
<clipPath id="clip0_473:18023">
<rect width="219.95" height="521.11" fill="white"/>
</clipPath>
</defs>
</svg>
