<svg width="148" height="228" viewBox="0 0 148 228" fill="none" xmlns="http://www.w3.org/2000/svg">
<g clip-path="url(#clip0_473:18007)">
<path fill-rule="evenodd" clip-rule="evenodd" d="M73.5 0C79.3345 0 85.0381 1.73014 89.8893 4.97165C94.7406 8.21315 98.5217 12.8204 100.754 18.2108C102.987 23.6013 103.571 29.5327 102.433 35.2552C101.295 40.9776 98.4853 46.234 94.3596 50.3596C90.234 54.4853 84.9776 57.2949 79.2552 58.4332C73.5327 59.5714 67.6013 58.9872 62.2108 56.7544C56.8204 54.5217 52.2131 50.7406 48.9716 45.8893C45.7301 41.0381 44 35.3345 44 29.5C44 21.6761 47.108 14.1727 52.6404 8.64035C58.1727 3.10803 65.6761 0 73.5 0V0Z" fill="#4FB3F6"/>
<path fill-rule="evenodd" clip-rule="evenodd" d="M108.3 64.5999C108.313 63.8608 108.178 63.1265 107.901 62.441C107.624 61.7554 107.212 61.1327 106.69 60.6099C106.167 60.0872 105.544 59.6752 104.859 59.3986C104.173 59.122 103.439 58.9864 102.7 58.9999H44.1996C43.4604 58.9864 42.7261 59.122 42.0406 59.3986C41.355 59.6752 40.7323 60.0872 40.2095 60.6099C39.6868 61.1327 39.2748 61.7554 38.9982 62.441C38.7216 63.1265 38.586 63.8608 38.5996 64.5999V66.1999C38.586 66.9391 38.7216 67.6734 38.9982 68.3589C39.2748 69.0445 39.6868 69.6672 40.2095 70.19C40.7323 70.7127 41.355 71.1247 42.0406 71.4013C42.7261 71.6779 43.4604 71.8135 44.1996 71.8H102.7C103.439 71.8135 104.173 71.6779 104.859 71.4013C105.544 71.1247 106.167 70.7127 106.69 70.19C107.212 69.6672 107.624 69.0445 107.901 68.3589C108.178 67.6734 108.313 66.9391 108.3 66.1999V64.5999Z" fill="#163BF3"/>
<path fill-rule="evenodd" clip-rule="evenodd" d="M133.1 212.3C133.1 209.568 132.015 206.948 130.084 205.017C128.152 203.085 125.532 202 122.8 202H24.3004C21.5594 202 18.9291 203.082 16.9816 205.011C15.0341 206.939 13.9267 209.559 13.9004 212.3V214.7H133.1V212.3Z" fill="#163BF3"/>
<path fill-rule="evenodd" clip-rule="evenodd" d="M147.1 225C147.074 222.259 145.966 219.64 144.019 217.711C142.071 215.782 139.441 214.7 136.7 214.7H10.3C7.56827 214.7 4.94842 215.785 3.0168 217.717C1.08518 219.649 0 222.268 0 225L0 227.4H147.1V225Z" fill="#163BF3"/>
<path fill-rule="evenodd" clip-rule="evenodd" d="M48.9996 185.6C41.5996 181.8 38.5996 172.7 38.5996 165.6C38.5996 158.5 49.4996 149.4 55.1996 149.4H91.6996C97.3996 149.4 108.3 158.6 108.3 165.6C108.3 172.6 105.3 181.8 97.8996 185.6H48.9996Z" fill="#163BF3"/>
<path fill-rule="evenodd" clip-rule="evenodd" d="M55.3996 149.4V81.1003C55.413 79.8753 55.1816 78.66 54.719 77.5256C54.2563 76.3912 53.5718 75.3607 52.7055 74.4944C51.8393 73.6281 50.8087 72.9436 49.6743 72.481C48.54 72.0184 47.3246 71.787 46.0996 71.8004H100.8C99.5746 71.787 98.3593 72.0184 97.2249 72.481C96.0905 72.9436 95.0599 73.6281 94.1937 74.4944C93.3274 75.3607 92.6429 76.3912 92.1803 77.5256C91.7176 78.66 91.4862 79.8753 91.4996 81.1003V149.4H55.3996Z" fill="#163BF3"/>
<path fill-rule="evenodd" clip-rule="evenodd" d="M55.2996 79.3998C54.9229 77.5502 54.0201 75.8487 52.6996 74.4998C50.9396 72.7679 48.5688 71.798 46.0996 71.7998H100.8C98.3386 71.8391 95.9825 72.8029 94.1996 74.4998C92.9061 75.8543 92.0371 77.5576 91.6996 79.3998H55.2996Z" fill="black"/>
<path fill-rule="evenodd" clip-rule="evenodd" d="M41 202C48.2 197.4 49 185.6 49 185.6H97.9C97.9 185.6 98.8 197.4 105.9 202H41Z" fill="#163BF3"/>
<path fill-rule="evenodd" clip-rule="evenodd" d="M48.2002 190.3C48.6108 188.761 48.8786 187.188 49.0002 185.6H97.9002C98.0825 187.179 98.3495 188.748 98.7002 190.3H48.2002Z" fill="black"/>
</g>
<defs>
<clipPath id="clip0_473:18007">
<rect width="147.1" height="227.4" fill="white"/>
</clipPath>
</defs>
</svg>
