<svg width="537" height="710" viewBox="0 0 537 710" fill="none" xmlns="http://www.w3.org/2000/svg">
<path fill-rule="evenodd" clip-rule="evenodd" d="M411.617 359.969C418.628 334.323 416.963 307.08 406.882 282.479C396.801 257.878 378.869 237.3 355.879 223.948C332.888 210.597 306.128 205.221 279.764 208.658C253.401 212.095 228.914 224.152 210.114 242.951C191.315 261.751 179.258 286.238 175.821 312.601C172.385 338.965 177.76 365.725 191.112 388.715C204.463 411.706 225.041 429.638 249.642 439.719C274.243 449.8 301.487 451.465 327.132 444.454L253.016 370.338L337.501 285.853L411.617 359.969ZM418.289 535.611C367.737 565.582 307.983 576.07 250.246 565.105C192.508 554.14 140.759 522.477 104.714 476.06C68.6684 429.643 50.8059 371.665 54.48 313.011C58.1541 254.357 83.112 199.061 124.668 157.505C166.224 115.949 221.52 90.991 280.174 87.3169C338.828 83.6428 396.806 101.505 443.223 137.551C489.64 173.596 521.304 225.345 532.268 283.083C543.233 340.82 532.745 400.574 502.774 451.126L536.507 484.859L452.022 569.344L418.289 535.611Z" fill="#4FB3F6"/>
<mask id="mask0_473:18101" style="mask-type:alpha" maskUnits="userSpaceOnUse" x="53" y="87" width="484" height="483">
<path fill-rule="evenodd" clip-rule="evenodd" d="M411.474 360.226C418.485 334.58 416.82 307.337 406.739 282.736C396.658 258.134 378.727 237.557 355.736 224.205C332.745 210.854 305.985 205.478 279.622 208.915C253.259 212.352 228.771 224.409 209.972 243.208C191.172 262.008 179.116 286.495 175.679 312.858C172.242 339.222 177.618 365.981 190.969 388.972C204.32 411.963 224.898 429.895 249.499 439.976C274.1 450.057 301.344 451.721 326.989 444.711L252.874 370.595L337.358 286.11L411.474 360.226ZM418.146 535.868C367.594 565.839 307.84 576.327 250.103 565.362C192.366 554.397 140.617 522.734 104.571 476.317C68.5259 429.9 50.6634 371.922 54.3374 313.268C58.0115 254.614 82.9694 199.318 124.525 157.762C166.081 116.206 221.377 91.2478 280.032 87.5738C338.686 83.8997 396.664 101.762 443.081 137.808C489.498 173.853 521.161 225.602 532.126 283.339C543.091 341.076 532.603 400.831 502.631 451.383L536.364 485.115L451.879 569.6L418.146 535.868Z" fill="#4FB3F6"/>
</mask>
<g mask="url(#mask0_473:18101)">
<path fill-rule="evenodd" clip-rule="evenodd" d="M478.47 171.223C478.47 171.223 391.447 143.244 376.79 165.82C362.133 188.396 394.838 192.311 405.557 191.196C416.276 190.08 441.084 194.433 440.559 207.471C440.034 220.509 392.016 218.759 360.427 216.025C328.838 213.29 306.831 221.1 319.825 243.654C332.819 266.208 367.23 268.199 391.469 255.358C415.708 242.517 462.522 247.592 470.419 267.346C478.317 287.1 366.946 267.04 345.726 293.991C327.219 317.376 336.254 345.749 384.206 376.769C432.158 407.79 408.467 455.195 451.322 456.879C494.177 458.564 522.572 424.722 536.638 392.017C550.704 359.312 559.301 240.395 478.47 171.223Z" fill="#60D399"/>
<path fill-rule="evenodd" clip-rule="evenodd" d="M111.676 152.257C111.676 152.257 177.829 178.07 174.635 207.472C171.441 236.873 133.07 294.713 107.716 306.986C82.3618 319.258 72.1895 330.524 74.9021 349.709C77.6147 368.895 114.957 352.531 143.724 377.907C172.491 403.284 131.32 440.079 148.799 456.945C166.278 473.812 220.946 521.961 179.25 539.615C120.12 540.337 60.9015 470.333 60.9015 470.333C60.9015 470.333 -10.1735 263.956 111.676 152.257Z" fill="#60D399"/>
<path fill-rule="evenodd" clip-rule="evenodd" d="M354.258 171.989C343.998 174.176 344.414 200.974 354.521 199.246C364.628 197.518 365.896 169.582 354.258 171.989Z" fill="#60D399"/>
<path fill-rule="evenodd" clip-rule="evenodd" d="M336.494 175.117C332.119 175.774 331.769 186.537 336.779 185.771C341.788 185.005 341.373 174.374 336.494 175.117Z" fill="#60D399"/>
</g>
<path fill-rule="evenodd" clip-rule="evenodd" d="M295.326 32.8135C217 32.8135 141.883 63.928 86.4988 119.312C31.1146 174.697 0 249.814 0 328.139C0 406.464 31.1146 481.581 86.4988 536.966C141.883 592.35 217 623.465 295.326 623.465V587.15C227.035 586.523 161.755 558.954 113.687 510.442C65.6184 461.93 38.6509 396.4 38.6509 328.106C38.6509 259.813 65.6184 194.282 113.687 145.77C161.755 97.2581 227.035 69.6895 295.326 69.062V32.8135Z" fill="#133191"/>
<path d="M304.886 0H285.635V32.8358H304.886V0Z" fill="black"/>
<path d="M304.886 69.0625H285.635V87.0445H304.886V69.0625Z" fill="black"/>
<path d="M304.886 569.541H285.635V587.523H304.886V569.541Z" fill="black"/>
<path d="M304.886 623.355H285.635V651.444H304.886V623.355Z" fill="black"/>
<path d="M304.885 33.208H295.26V69.0408H304.885V33.208Z" fill="#4FB3F6"/>
<path d="M304.885 587.522H295.26V623.355H304.885V587.522Z" fill="#4FB3F6"/>
<path fill-rule="evenodd" clip-rule="evenodd" d="M295.326 709.416H61.5596C61.5596 709.416 54.2968 701.103 74.029 696.159C93.7611 691.215 285.635 651.467 285.635 651.467H295.326V709.416Z" fill="#935000"/>
<path fill-rule="evenodd" clip-rule="evenodd" d="M295.326 709.416H528.961C528.961 709.416 536.246 701.103 516.492 696.159C496.738 691.215 304.886 651.467 304.886 651.467H295.326V709.416Z" fill="#935000"/>
</svg>
