<?xml version="1.0" encoding="utf-8"?>
<!-- Generator: Adobe Illustrator 26.0.3, SVG Export Plug-In . SVG Version: 6.00 Build 0)  -->
<svg version="1.1" xmlns="http://www.w3.org/2000/svg" xmlns:xlink="http://www.w3.org/1999/xlink" x="0px" y="0px"
	 viewBox="0 0 283.5 283.5" style="enable-background:new 0 0 283.5 283.5;" xml:space="preserve">
<style type="text/css">
	.st0{fill-rule:evenodd;clip-rule:evenodd;fill:#FFFFFF;}
	.st1{fill:#163BF3;}
	.st2{fill-rule:evenodd;clip-rule:evenodd;fill:#4FB3F6;}
	.st3{fill:#B9E2FE;}
	.st4{fill-rule:evenodd;clip-rule:evenodd;fill:#B9E2FE;}
</style>
<g id="Base_Fill">
</g>
<g id="_x5B_EDIT_BACKGROUND_COLOR_HERE_x5D_">
</g>
<g id="Graphic">
</g>
<g id="Text">
	<path class="st0" d="M274.6,152.2c0.4,0,0.8,0.1,1.2,0.3s0.6,0.6,0.8,1c0.2,0.4,0.2,0.8,0.1,1.3c-0.1,0.4-0.3,0.8-0.6,1.1
		c-0.3,0.3-0.7,0.5-1.1,0.6c-0.4,0.1-0.9,0-1.3-0.1c-0.4-0.2-0.7-0.4-1-0.8c-0.2-0.4-0.4-0.8-0.3-1.2c0-0.6,0.2-1.1,0.6-1.5
		C273.5,152.4,274,152.2,274.6,152.2z"/>
	<path class="st0" d="M133.7,161c0.6,0,1.1,0.2,1.5,0.6c0.4,0.4,0.6,1,0.6,1.5c0,0.6-0.2,1.1-0.6,1.5c-0.4,0.4-1,0.6-1.5,0.6
		c-0.6,0-1.1-0.2-1.5-0.6c-0.4-0.4-0.6-1-0.6-1.5c0-0.6,0.2-1.1,0.6-1.5C132.6,161.2,133.2,161,133.7,161z"/>
	<path class="st0" d="M251.2,167.6c0.4,0,0.8,0.1,1.2,0.4c0.4,0.2,0.6,0.6,0.8,1c0.2,0.4,0.2,0.8,0.1,1.2c-0.1,0.4-0.3,0.8-0.6,1.1
		s-0.7,0.5-1.1,0.6c-0.4,0.1-0.8,0-1.2-0.1c-0.4-0.2-0.7-0.4-1-0.8c-0.2-0.4-0.4-0.8-0.4-1.2c0-0.6,0.2-1.1,0.6-1.5
		C250.1,167.9,250.7,167.6,251.2,167.6z"/>
	<path class="st1" d="M85.5,63.3L56.9,92l151.4,151.5l28.6-28.6L85.5,63.3z"/>
	<path class="st2" d="M147,124.8c-10,9.6-21.4,17.5-33.9,23.4l95.2,95.3l28.7-28.6L147,124.8z"/>
	<path class="st3" d="M164.7,199.9l-14.3,14.3l32.9,33l14.3-14.3L164.7,199.9z"/>
	<path class="st3" d="M207.6,157l-14.3,14.3l32.9,33l14.3-14.3L207.6,157z"/>
	<path class="st4" d="M251.2,229.2l-28.6,28.7l-7.1-21.5l14.3-14.3L251.2,229.2z"/>
	<path class="st4" d="M85.4,63.4L56.8,92L29.1,52.1c-1.4-2-2-4.5-1.8-6.9c0.2-2.4,1.3-4.7,3-6.5l1.9-1.9c1.8-1.7,4-2.8,6.5-3
		c2.4-0.2,4.9,0.4,6.9,1.8L85.4,63.4z"/>
	<path class="st2" d="M105.8,112.3c1.1-1.1,2.5-1.9,4.1-2.2c1.5-0.3,3.1-0.1,4.6,0.5c1.4,0.6,2.7,1.6,3.6,2.9
		c0.9,1.3,1.3,2.8,1.3,4.4c0,1.6-0.5,3.1-1.3,4.4c-0.9,1.3-2.1,2.3-3.6,2.9c-1.4,0.6-3,0.8-4.6,0.5c-1.5-0.3-3-1.1-4.1-2.2
		c-1.5-1.5-2.3-3.5-2.3-5.6C103.5,115.8,104.4,113.8,105.8,112.3z"/>
</g>
</svg>
